<?xml version="1.0" encoding="us-ascii" standalone="no"?><svg xmlns="http://www.w3.org/2000/svg" xmlns:xlink="http://www.w3.org/1999/xlink" contentStyleType="text/css" height="301px" preserveAspectRatio="none" style="width:666px;height:301px;background:#FFFFFF;" version="1.1" viewBox="0 0 666 301" width="666px" zoomAndPan="magnify"><defs/><g><path d="M19.5,7 L640.5,7 A12.5,12.5 0 0 1 653,19.5 L653,36.0679 L7,36.0679 L7,19.5 A12.5,12.5 0 0 1 19.5,7 " fill="#F1F1F1" style="stroke:#F1F1F1;stroke-width:1.0;"/><rect fill="none" height="288.0679" rx="12.5" ry="12.5" style="stroke:#181818;stroke-width:0.5;" width="646" x="7" y="7"/><line style="stroke:#181818;stroke-width:0.5;" x1="7" x2="653" y1="36.0679" y2="36.0679"/><text fill="#000000" font-family="sans-serif" font-size="14" lengthAdjust="spacing" textLength="207" x="226.5" y="26.9659">guardarCambiosAntesDeSalir()</text><g id="guardarCambiosAntesDeSalir.EsperandoDecision"><rect fill="#F1F1F1" height="50" rx="12.5" ry="12.5" style="stroke:#181818;stroke-width:0.5;" width="50" x="214" y="140.0679"/><line style="stroke:#181818;stroke-width:0.5;" x1="214" x2="264" y1="169.1358" y2="169.1358"/><text fill="#000000" font-family="sans-serif" font-size="14" lengthAdjust="spacing" textLength="4" x="237" y="160.0339">&#160;</text></g><ellipse cx="239" cy="57.0679" fill="#222222" rx="10" ry="10" style="stroke:#222222;stroke-width:1.0;"/><ellipse cx="239" cy="274.0679" fill="none" rx="11" ry="11" style="stroke:#222222;stroke-width:1.0;"/><ellipse cx="239" cy="274.0679" fill="#222222" rx="6" ry="6" style="stroke:#222222;stroke-width:1.0;"/><!--link *start*guardarCambiosAntesDeSalir to EsperandoDecision--><g id="link_*start*guardarCambiosAntesDeSalir_EsperandoDecision"><path d="M239,67.1079 C239,83.0279 239,110.5779 239,133.7079 " fill="none" id="*start*guardarCambiosAntesDeSalir-to-EsperandoDecision" style="stroke:#008000;stroke-width:1.0;"/><polygon fill="#008000" points="239,139.7079,243,130.7079,239,134.7079,235,130.7079,239,139.7079" style="stroke:#008000;stroke-width:1.0;"/><path d="M244,90.0679 L244,117.0679 L584,117.0679 L584,100.0679 L574,90.0679 L244,90.0679 " fill="#FEFFDD" style="stroke:#181818;stroke-width:0.5;"/><path d="M574,90.0679 L574,100.0679 L584,100.0679 L574,90.0679 " fill="#FEFFDD" style="stroke:#181818;stroke-width:0.5;"/><text fill="#000000" font-family="sans-serif" font-size="13" font-weight="bold" lengthAdjust="spacing" textLength="52" x="250" y="108.9649">Sistema</text><text fill="#000000" font-family="sans-serif" font-size="13" lengthAdjust="spacing" textLength="264" x="305" y="108.9649">presenta opciones para cambios sin guardar</text></g><!--link EsperandoDecision to *end*guardarCambiosAntesDeSalir--><g id="link_EsperandoDecision_*end*guardarCambiosAntesDeSalir"><path d="M213.65,170.8879 C155.6,181.9179 18,208.0679 18,208.0679 C18,208.0679 18,245.0679 18,245.0679 C18,245.0679 177.4976,265.2737 222.0876,270.9237 " fill="none" id="EsperandoDecision-to-*end*guardarCambiosAntesDeSalir" style="stroke:#008000;stroke-width:1.0;"/><polygon fill="#008000" points="228.04,271.6779,219.6142,266.5783,223.0797,271.0494,218.6086,274.5148,228.04,271.6779" style="stroke:#008000;stroke-width:1.0;"/><path d="M23,213.0679 L23,240.0679 L212,240.0679 L212,223.0679 L202,213.0679 L23,213.0679 " fill="#FEFFDD" style="stroke:#181818;stroke-width:0.5;"/><path d="M202,213.0679 L202,223.0679 L212,223.0679 L202,213.0679 " fill="#FEFFDD" style="stroke:#181818;stroke-width:0.5;"/><text fill="#000000" font-family="sans-serif" font-size="13" font-weight="bold" lengthAdjust="spacing" textLength="36" x="29" y="231.9649">Actor</text><text fill="#000000" font-family="sans-serif" font-size="13" lengthAdjust="spacing" textLength="129" x="68" y="231.9649">solicita guardar y salir</text></g><!--link EsperandoDecision to *end*guardarCambiosAntesDeSalir--><g id="link_EsperandoDecision_*end*guardarCambiosAntesDeSalir"><path d="M239,190.0779 C239,212.9979 239,240.4279 239,256.9879 " fill="none" id="EsperandoDecision-to-*end*guardarCambiosAntesDeSalir-1" style="stroke:#0000FF;stroke-width:1.0;"/><polygon fill="#0000FF" points="239,262.9879,243,253.9879,239,257.9879,235,253.9879,239,262.9879" style="stroke:#0000FF;stroke-width:1.0;"/><path d="M244,213.0679 L244,240.0679 L443,240.0679 L443,223.0679 L433,213.0679 L244,213.0679 " fill="#FEFFDD" style="stroke:#181818;stroke-width:0.5;"/><path d="M433,213.0679 L433,223.0679 L443,223.0679 L433,213.0679 " fill="#FEFFDD" style="stroke:#181818;stroke-width:0.5;"/><text fill="#000000" font-family="sans-serif" font-size="13" font-weight="bold" lengthAdjust="spacing" textLength="36" x="250" y="231.9649">Actor</text><text fill="#000000" font-family="sans-serif" font-size="13" lengthAdjust="spacing" textLength="139" x="289" y="231.9649">solicita salir sin guardar</text></g><!--link EsperandoDecision to *end*guardarCambiosAntesDeSalir--><g id="link_EsperandoDecision_*end*guardarCambiosAntesDeSalir"><path d="M264.33,171.1379 C320.18,182.3079 449,208.0679 449,208.0679 C449,208.0679 449,245.0679 449,245.0679 C449,245.0679 299.1474,265.0451 255.9374,270.8051 " fill="none" id="EsperandoDecision-to-*end*guardarCambiosAntesDeSalir-2" style="stroke:#FF0000;stroke-width:1.0;"/><polygon fill="#FF0000" points="249.99,271.5979,259.4396,274.3736,254.9462,270.9372,258.3826,266.4438,249.99,271.5979" style="stroke:#FF0000;stroke-width:1.0;"/><path d="M454,213.0679 L454,240.0679 L644,240.0679 L644,223.0679 L634,213.0679 L454,213.0679 " fill="#FEFFDD" style="stroke:#181818;stroke-width:0.5;"/><path d="M634,213.0679 L634,223.0679 L644,223.0679 L634,213.0679 " fill="#FEFFDD" style="stroke:#181818;stroke-width:0.5;"/><text fill="#000000" font-family="sans-serif" font-size="13" font-weight="bold" lengthAdjust="spacing" textLength="36" x="460" y="231.9649">Actor</text><text fill="#000000" font-family="sans-serif" font-size="13" lengthAdjust="spacing" textLength="130" x="499" y="231.9649">solicita cancelar salida</text></g><!--SRC=[dP31QW8n48RlUOfXUx45wGl8WjG-WKVnC9iCCfYTX4myBD9tRv9j3wA2R79ACZFVzqVFB14JZk1PA4-H80O_rOCncZ4Jd2wO7AOl70SEkfLCkgCzUaw02jtpvzLx1rTZeAnvKbTsQVdMI0d5XHrPLWuornm-Zh0-l9qIaHpN_OEoMYMX30fITS_jOZFqUzPC8su-XnvY8YN9227QqaCADHxOMG-KvJzGwoPnRUIiS8Uy4Ig2JnMsDeVK13Hujbm4_Z0mWTRVU1Kt-0ije3N6adY9t0ASHR7aIxhATNWB-p6_]--></g></svg>