<?xml version="1.0" encoding="us-ascii" standalone="no"?><svg xmlns="http://www.w3.org/2000/svg" xmlns:xlink="http://www.w3.org/1999/xlink" contentStyleType="text/css" height="665px" preserveAspectRatio="none" style="width:923px;height:665px;background:#FFFFFF;" version="1.1" viewBox="0 0 923 665" width="923px" zoomAndPan="magnify"><defs/><g><path d="M134,7 L538,7 A12.5,12.5 0 0 1 550.5,19.5 L550.5,36.0679 L121.5,36.0679 L121.5,19.5 A12.5,12.5 0 0 1 134,7 " fill="#F1F1F1" style="stroke:#F1F1F1;stroke-width:1.0;"/><rect fill="none" height="505.0679" rx="12.5" ry="12.5" style="stroke:#181818;stroke-width:0.5;" width="429" x="121.5" y="7"/><line style="stroke:#181818;stroke-width:0.5;" x1="121.5" x2="550.5" y1="36.0679" y2="36.0679"/><text fill="#000000" font-family="sans-serif" font-size="14" lengthAdjust="spacing" textLength="132" x="270" y="26.9659">abrir{TipoEntidad}()</text><g id="abrirEntidad.MostrandoLista"><rect fill="#F1F1F1" height="50" rx="12.5" ry="12.5" style="stroke:#181818;stroke-width:0.5;" width="50" x="133.5" y="140.0679"/><line style="stroke:#181818;stroke-width:0.5;" x1="133.5" x2="183.5" y1="169.1358" y2="169.1358"/><text fill="#000000" font-family="sans-serif" font-size="14" lengthAdjust="spacing" textLength="4" x="156.5" y="160.0339">&#160;</text></g><g id="abrirEntidad.FiltrandoLista"><rect fill="#F1F1F1" height="50" rx="12.5" ry="12.5" style="stroke:#181818;stroke-width:0.5;" width="50" x="133.5" y="354.5679"/><line style="stroke:#181818;stroke-width:0.5;" x1="133.5" x2="183.5" y1="383.6358" y2="383.6358"/><text fill="#000000" font-family="sans-serif" font-size="14" lengthAdjust="spacing" textLength="4" x="156.5" y="374.5339">&#160;</text></g><ellipse cx="158.5" cy="57.0679" fill="#222222" rx="10" ry="10" style="stroke:#222222;stroke-width:1.0;"/><ellipse cx="158.5" cy="491.0679" fill="none" rx="11" ry="11" style="stroke:#222222;stroke-width:1.0;"/><ellipse cx="158.5" cy="491.0679" fill="#222222" rx="6" ry="6" style="stroke:#222222;stroke-width:1.0;"/><!--link *start*abrirEntidad to MostrandoLista--><g id="link_*start*abrirEntidad_MostrandoLista"><path d="M158.5,67.1079 C158.5,83.0279 158.5,110.5779 158.5,133.7079 " fill="none" id="*start*abrirEntidad-to-MostrandoLista" style="stroke:#0000FF;stroke-width:1.0;"/><polygon fill="#0000FF" points="158.5,139.7079,162.5,130.7079,158.5,134.7079,154.5,130.7079,158.5,139.7079" style="stroke:#0000FF;stroke-width:1.0;"/><path d="M163.5,90.0679 L163.5,117.0679 L439.5,117.0679 L439.5,100.0679 L429.5,90.0679 L163.5,90.0679 " fill="#FEFFDD" style="stroke:#181818;stroke-width:0.5;"/><path d="M429.5,90.0679 L429.5,100.0679 L439.5,100.0679 L429.5,90.0679 " fill="#FEFFDD" style="stroke:#181818;stroke-width:0.5;"/><text fill="#000000" font-family="sans-serif" font-size="13" font-weight="bold" lengthAdjust="spacing" textLength="95" x="169.5" y="108.9649">Administrador</text><text fill="#000000" font-family="sans-serif" font-size="13" lengthAdjust="spacing" textLength="157" x="267.5" y="108.9649">solicita abrir {TipoEntidad}</text></g><!--link MostrandoLista to FiltrandoLista--><g id="link_MostrandoLista_FiltrandoLista"><path d="M158.5,190.4479 C158.5,231.4379 158.5,307.6779 158.5,348.4779 " fill="none" id="MostrandoLista-to-FiltrandoLista" style="stroke:#0000FF;stroke-width:1.0;"/><polygon fill="#0000FF" points="158.5,354.4779,162.5,345.4779,158.5,349.4779,154.5,345.4779,158.5,354.4779" style="stroke:#0000FF;stroke-width:1.0;"/><path d="M163.5,213.0679 L163.5,329.0679 L471.5,329.0679 L471.5,223.0679 L461.5,213.0679 L163.5,213.0679 " fill="#FEFFDD" style="stroke:#181818;stroke-width:0.5;"/><path d="M461.5,213.0679 L461.5,223.0679 L471.5,223.0679 L461.5,213.0679 " fill="#FEFFDD" style="stroke:#181818;stroke-width:0.5;"/><text fill="#000000" font-family="sans-serif" font-size="13" font-weight="bold" lengthAdjust="spacing" textLength="52" x="169.5" y="231.9649">Sistema</text><text fill="#000000" font-family="sans-serif" font-size="13" lengthAdjust="spacing" textLength="183" x="224.5" y="231.9649">presenta lista de {TipoEntidad}</text><text fill="#000000" font-family="sans-serif" font-size="13" lengthAdjust="spacing" textLength="273" x="169.5" y="249.6709">&#8226; {CamposMostrar} de cada {NombreEntidad}</text><text fill="#000000" font-family="sans-serif" font-size="13" lengthAdjust="spacing" textLength="166" x="169.5" y="267.377">&#8226; Permite solicitar filtrar lista</text><text fill="#000000" font-family="sans-serif" font-size="13" lengthAdjust="spacing" textLength="287" x="169.5" y="285.083">&#8226; Permite solicitar crear {NombreEntidad} nuevo</text><text fill="#000000" font-family="sans-serif" font-size="13" lengthAdjust="spacing" textLength="264" x="169.5" y="302.789">&#8226; Permite solicitar eliminar {NombreEntidad}</text><text fill="#000000" font-family="sans-serif" font-size="13" lengthAdjust="spacing" textLength="251" x="169.5" y="320.495">&#8226; Permite solicitar editar {NombreEntidad}</text></g><!--link FiltrandoLista to FiltrandoLista--><g id="link_FiltrandoLista_FiltrandoLista"><path d="M183.68,367.6179 C193.41,367.0879 201.5,371.0679 201.5,379.5679 C201.5,388.0679 199.4011,392.3743 189.6711,391.8443 " fill="none" id="FiltrandoLista-to-FiltrandoLista" style="stroke:#0000FF;stroke-width:1.0;"/><polygon fill="#0000FF" points="183.68,391.5179,192.4491,396.0015,188.6726,391.7899,192.8842,388.0133,183.68,391.5179" style="stroke:#0000FF;stroke-width:1.0;"/><path d="M206.5,357.0679 L206.5,402.0679 L541.5,402.0679 L541.5,367.0679 L531.5,357.0679 L206.5,357.0679 " fill="#FEFFDD" style="stroke:#181818;stroke-width:0.5;"/><path d="M531.5,357.0679 L531.5,367.0679 L541.5,367.0679 L531.5,357.0679 " fill="#FEFFDD" style="stroke:#181818;stroke-width:0.5;"/><text fill="#000000" font-family="sans-serif" font-size="13" font-weight="bold" lengthAdjust="spacing" textLength="95" x="212.5" y="375.9649">Administrador</text><text fill="#000000" font-family="sans-serif" font-size="13" lengthAdjust="spacing" textLength="103" x="310.5" y="375.9649">solicita filtrar lista</text><text fill="#000000" font-family="sans-serif" font-size="13" font-weight="bold" lengthAdjust="spacing" textLength="52" x="212.5" y="393.6709">Sistema</text><text fill="#000000" font-family="sans-serif" font-size="13" lengthAdjust="spacing" textLength="259" x="267.5" y="393.6709">presenta lista filtrada por {CamposFiltrable}</text></g><!--link FiltrandoLista to *end*abrirEntidad--><g id="link_FiltrandoLista_*end*abrirEntidad"><path d="M158.5,404.5979 C158.5,428.1479 158.5,456.8979 158.5,473.9179 " fill="none" id="FiltrandoLista-to-*end*abrirEntidad" style="stroke:#0000FF;stroke-width:1.0;"/><polygon fill="#0000FF" points="158.5,479.9179,162.5,470.9179,158.5,474.9179,154.5,470.9179,158.5,479.9179" style="stroke:#0000FF;stroke-width:1.0;"/><path d="M163.5,430.0679 L163.5,457.0679 L443.5,457.0679 L443.5,440.0679 L433.5,430.0679 L163.5,430.0679 " fill="#FEFFDD" style="stroke:#181818;stroke-width:0.5;"/><path d="M433.5,430.0679 L433.5,440.0679 L443.5,440.0679 L433.5,430.0679 " fill="#FEFFDD" style="stroke:#181818;stroke-width:0.5;"/><text fill="#000000" font-family="sans-serif" font-size="13" font-weight="bold" lengthAdjust="spacing" textLength="95" x="169.5" y="448.9649">Administrador</text><text fill="#000000" font-family="sans-serif" font-size="13" lengthAdjust="spacing" textLength="161" x="267.5" y="448.9649">solicita una de las opciones</text></g><g id="NE"><rect fill="#F1F1F1" height="50" rx="12.5" ry="12.5" style="stroke:#181818;stroke-width:0.5;" width="202" x="18" y="609"/><line style="stroke:#181818;stroke-width:0.5;" x1="18" x2="220" y1="638.0679" y2="638.0679"/><text fill="#000000" font-family="sans-serif" font-size="14" lengthAdjust="spacing" textLength="182" x="28" y="628.9659">{NombreEntidad}_ABIERTO</text></g><g id="ED"><rect fill="#F1F1F1" height="50" rx="12.5" ry="12.5" style="stroke:#181818;stroke-width:0.5;" width="126" x="381" y="609"/><line style="stroke:#181818;stroke-width:0.5;" x1="381" x2="507" y1="638.0679" y2="638.0679"/><text fill="#000000" font-family="sans-serif" font-size="14" lengthAdjust="spacing" textLength="106" x="391" y="628.9659">{EstadoDestino}</text></g><g id="SISTEMA_DISPONIBLE"><rect fill="#F1F1F1" height="50" rx="12.5" ry="12.5" style="stroke:#181818;stroke-width:0.5;" width="167" x="593.5" y="609"/><line style="stroke:#181818;stroke-width:0.5;" x1="593.5" x2="760.5" y1="638.0679" y2="638.0679"/><text fill="#000000" font-family="sans-serif" font-size="14" lengthAdjust="spacing" textLength="147" x="603.5" y="628.9659">SISTEMA_DISPONIBLE</text></g><g id="elem_GMN18"><path d="M586,157 L586,255.5 L550.78,259.5 L586,263.5 L586,361.7662 A0,0 0 0 0 586,361.7662 L916,361.7662 A0,0 0 0 0 916,361.7662 L916,167 L906,157 L586,157 A0,0 0 0 0 586,157 " fill="#FEFFDD" style="stroke:#181818;stroke-width:0.5;"/><path d="M906,157 L906,167 L916,167 L906,157 " fill="#FEFFDD" style="stroke:#181818;stroke-width:0.5;"/><text fill="#000000" font-family="sans-serif" font-size="13" font-weight="bold" lengthAdjust="spacing" textLength="141" x="592" y="175.897">Caso de uso abstracto</text><text fill="#000000" font-family="sans-serif" font-size="13" lengthAdjust="spacing" textLength="3" x="592" y="193.603">&#160;</text><text fill="#000000" font-family="sans-serif" font-size="13" lengthAdjust="spacing" textLength="171" x="592" y="211.309">Los textos entre llaves {} son</text><text fill="#000000" font-family="sans-serif" font-size="13" font-weight="bold" lengthAdjust="spacing" textLength="198" x="592" y="229.0151">par&#225;metros de especializaci&#243;n</text><text fill="#000000" font-family="sans-serif" font-size="13" lengthAdjust="spacing" textLength="152" x="592" y="246.7211">que cada caso de uso hijo</text><text fill="#000000" font-family="sans-serif" font-size="13" lengthAdjust="spacing" textLength="168" x="592" y="264.4271">debe definir concretamente.</text><text fill="#000000" font-family="sans-serif" font-size="13" lengthAdjust="spacing" textLength="3" x="592" y="282.1331">&#160;</text><text fill="#000000" font-family="sans-serif" font-size="13" lengthAdjust="spacing" textLength="57" x="592" y="299.8391">Ejemplos:</text><text fill="#000000" font-family="sans-serif" font-size="13" lengthAdjust="spacing" textLength="183" x="592" y="317.5451">&#8226; {TipoEntidad} &#8594; "Programas"</text><text fill="#000000" font-family="sans-serif" font-size="13" lengthAdjust="spacing" textLength="201" x="592" y="335.2512">&#8226; {NombreEntidad} &#8594; "Programa"</text><text fill="#000000" font-family="sans-serif" font-size="13" lengthAdjust="spacing" textLength="309" x="592" y="352.9572">&#8226; {CamposFiltrable} &#8594; [c&#243;digo, nombre, descripci&#243;n]</text></g><!--link abrirEntidad to NE--><g id="link_abrirEntidad_NE"><path d="M121.42,443.54 C58.39,497.31 6,542 6,542 C6,542 6,579 6,579 C6,579 32.9457,591.8843 63.0357,606.2543 " fill="none" id="abrirEntidad-to-NE" style="stroke:#0000FF;stroke-width:1.0;"/><polygon fill="#0000FF" points="68.45,608.84,62.0524,601.352,63.9381,606.6853,58.6048,608.571,68.45,608.84" style="stroke:#0000FF;stroke-width:1.0;"/><path d="M11,547 L11,574 L181,574 L181,557 L171,547 L11,547 " fill="#FEFFDD" style="stroke:#181818;stroke-width:0.5;"/><path d="M171,547 L171,557 L181,557 L171,547 " fill="#FEFFDD" style="stroke:#181818;stroke-width:0.5;"/><text fill="#000000" font-family="sans-serif" font-size="13" lengthAdjust="spacing" textLength="149" x="17" y="565.897">editar{NombreEntidad}()</text></g><!--link abrirEntidad to NE--><g id="link_abrirEntidad_NE"><path d="M220.61,512.23 C202.7,551.3 190,579 190,579 C190,579 174.4472,590.8398 155.5372,605.2098 " fill="none" id="abrirEntidad-to-NE-1" style="stroke:#0000FF;stroke-width:1.0;"/><polygon fill="#0000FF" points="150.76,608.84,160.3459,606.5794,154.741,605.8148,155.5056,600.2099,150.76,608.84" style="stroke:#0000FF;stroke-width:1.0;"/><path d="M211,547 L211,574 L376,574 L376,557 L366,547 L211,547 " fill="#FEFFDD" style="stroke:#181818;stroke-width:0.5;"/><path d="M366,547 L366,557 L376,557 L366,547 " fill="#FEFFDD" style="stroke:#181818;stroke-width:0.5;"/><text fill="#000000" font-family="sans-serif" font-size="13" lengthAdjust="spacing" textLength="144" x="217" y="565.897">crear{NombreEntidad}()</text></g><!--link abrirEntidad to ED--><g id="link_abrirEntidad_ED"><path d="M408.94,512.06 C420.38,551.52 428.8482,580.7476 435.2482,602.8076 " fill="none" id="abrirEntidad-to-ED" style="stroke:#0000FF;stroke-width:1.0;"/><polygon fill="#0000FF" points="436.92,608.57,438.2539,598.8119,435.5269,603.768,430.5707,601.0409,436.92,608.57" style="stroke:#0000FF;stroke-width:1.0;"/><path d="M434,547 L434,574 L617,574 L617,557 L607,547 L434,547 " fill="#FEFFDD" style="stroke:#181818;stroke-width:0.5;"/><path d="M607,547 L607,557 L617,557 L607,547 " fill="#FEFFDD" style="stroke:#181818;stroke-width:0.5;"/><text fill="#000000" font-family="sans-serif" font-size="13" lengthAdjust="spacing" textLength="162" x="440" y="565.897">eliminar{NombreEntidad}()</text></g><!--link abrirEntidad to SISTEMA_DISPONIBLE--><g id="link_abrirEntidad_SISTEMA_DISPONIBLE"><path d="M550.72,492.27 C562.12,504.57 569,512 569,512 C569,512 630,542 630,542 C630,542 647.7265,576.3291 661.6465,603.2791 " fill="none" id="abrirEntidad-to-SISTEMA_DISPONIBLE" style="stroke:#0000FF;stroke-width:1.0;"/><polygon fill="#0000FF" points="664.4,608.61,663.8237,598.778,662.1054,604.1676,656.7159,602.4493,664.4,608.61" style="stroke:#0000FF;stroke-width:1.0;"/><path d="M652,547 L652,574 L788,574 L788,557 L778,547 L652,547 " fill="#FEFFDD" style="stroke:#181818;stroke-width:0.5;"/><path d="M778,547 L778,557 L788,557 L778,547 " fill="#FEFFDD" style="stroke:#181818;stroke-width:0.5;"/><text fill="#000000" font-family="sans-serif" font-size="13" lengthAdjust="spacing" textLength="115" x="658" y="565.897">completarGestion()</text></g><!--SRC=[dLLHRXen4FtVKrZq9wcIzh-Aa4ZOLaY4eC8VGf5tFH0dNi_MDb5JXDIl7g0tQA-G8t2JdAHZBn2yKDJ2noxORzuylvanza7gaXjUC2KrkASIM8dgoVz84kku0zRWcP5cFfGbfjf9mSNYvBJ1k6LXOxN6vad2wBEAOG5mZTOPhWLs9Qtlxd-KQdi_04Pln-nyz2PJCnYVD_THQ2G6r5xnGrYuo9ejKKWjFLIWkNYVDPb59NFfUAMIHVf356WHgAgqSPvj1JMHVrCme5qeUCXT6h2WYKO5CW5xqhzy_ytcLxmeqLQvpS83Souuc_Umo0piuFjW2acfrsSpR1B4cIhH0LnkW9urNgPdy8W7ea19idKty5282Azz0R7XiQr767wWvBkk72vGXIVZIpJhebGgCWN_9vxQznZ5CntQHD5GO9bBr63Zj8lDEDQilMrTTjBFmvimKBrqWqhfYy0sM2SrBi9ksawIQ6QtT5Da9BcgOotNoMdowiE_CeNMEuQ8vCQILjru3DUWCnYcrwtRTcVGl-brBhjraLYK2kZ4dxnXg2FIW3HoUkSOJg9RBmbrlU8MVVLczEAPhs_kqDVNDqiNBNFmrT6BEivGZHL_1Clc2wg-hWZe1bx-Ai0P0X4Fs19ooPNyndEvVDQ1Yh4lizNra6_bkvFtVe85P42F2VKN3JjgCjtnWXB2EoyYlGSw7zeFoUhYsRwEsCkFdwpHDpYb_m5k6sjCxRA8K1jGVLW2R9GlduMSuXaPw3dEI9hDZIp3SSQlrlu1]--></g></svg>