<?xml version="1.0" encoding="us-ascii" standalone="no"?><svg xmlns="http://www.w3.org/2000/svg" xmlns:xlink="http://www.w3.org/1999/xlink" contentStyleType="text/css" height="934px" preserveAspectRatio="none" style="width:891px;height:934px;background:#FFFFFF;" version="1.1" viewBox="0 0 891 934" width="891px" zoomAndPan="magnify"><defs/><g><!--cluster Patr?n: Gesti?n de Listas--><g id="cluster_Patr&#243;n: Gesti&#243;n de Listas"><path d="M152.5,517.5 L326.5,517.5 A3.75,3.75 0 0 1 329,520 L336,542.5679 L371.5,542.5679 A2.5,2.5 0 0 1 374,545.0679 L374,649 A2.5,2.5 0 0 1 371.5,651.5 L152.5,651.5 A2.5,2.5 0 0 1 150,649 L150,520 A2.5,2.5 0 0 1 152.5,517.5 " fill="none" style="stroke:#000000;stroke-width:1.5;"/><line style="stroke:#000000;stroke-width:1.5;" x1="150" x2="336" y1="542.5679" y2="542.5679"/><text fill="#000000" font-family="sans-serif" font-size="14" font-weight="bold" lengthAdjust="spacing" textLength="173" x="154" y="534.4659">Patr&#243;n: Gesti&#243;n de Listas</text></g><!--cluster Especializaciones: Gesti?n de Entidades Acad?micas--><g id="cluster_Especializaciones: Gesti&#243;n de Entidades Acad&#233;micas"><path d="M513,255.5 L872,255.5 A3.75,3.75 0 0 1 874.5,258 L881.5,280.5679 L882,280.5679 A2.5,2.5 0 0 1 884.5,283.0679 L884.5,489 A2.5,2.5 0 0 1 882,491.5 L513,491.5 A2.5,2.5 0 0 1 510.5,489 L510.5,258 A2.5,2.5 0 0 1 513,255.5 " fill="none" style="stroke:#000000;stroke-width:1.5;"/><line style="stroke:#000000;stroke-width:1.5;" x1="510.5" x2="881.5" y1="280.5679" y2="280.5679"/><text fill="#000000" font-family="sans-serif" font-size="14" font-weight="bold" lengthAdjust="spacing" textLength="358" x="514.5" y="272.4659">Especializaciones: Gesti&#243;n de Entidades Acad&#233;micas</text></g><!--cluster Especializaciones: Gesti?n del Campus--><g id="cluster_Especializaciones: Gesti&#243;n del Campus"><path d="M560.5,695.5 L825.5,695.5 A3.75,3.75 0 0 1 828,698 L835,720.5679 L835.5,720.5679 A2.5,2.5 0 0 1 838,723.0679 L838,925 A2.5,2.5 0 0 1 835.5,927.5 L560.5,927.5 A2.5,2.5 0 0 1 558,925 L558,698 A2.5,2.5 0 0 1 560.5,695.5 " fill="none" style="stroke:#000000;stroke-width:1.5;"/><line style="stroke:#000000;stroke-width:1.5;" x1="558" x2="835" y1="720.5679" y2="720.5679"/><text fill="#000000" font-family="sans-serif" font-size="14" font-weight="bold" lengthAdjust="spacing" textLength="264" x="562" y="712.4659">Especializaciones: Gesti&#243;n del Campus</text></g><g id="elem_abrirEntidad"><ellipse cx="262.2454" cy="595.5416" fill="#F1F1F1" rx="96.2454" ry="40.0416" style="stroke:#181818;stroke-width:0.5;"/><text fill="#000000" font-family="sans-serif" font-size="14" font-style="italic" lengthAdjust="spacing" textLength="66" x="223.2759" y="577.4579">&#171;abstract&#187;</text><text fill="#000000" font-family="sans-serif" font-size="14" lengthAdjust="spacing" textLength="69" x="221.7759" y="596.5258">&#171;abstract&#187;</text><text fill="#000000" font-family="sans-serif" font-size="14" lengthAdjust="spacing" textLength="132" x="190.2759" y="615.5937">abrir{TipoEntidad}()</text></g><g id="elem_abrirProgramas"><ellipse cx="697.3387" cy="312.6677" fill="#F1F1F1" rx="83.8387" ry="19.1677" style="stroke:#181818;stroke-width:0.5;"/><text fill="#000000" font-family="sans-serif" font-size="14" lengthAdjust="spacing" textLength="114" x="637.3387" y="317.4007">abrirProgramas()</text></g><g id="elem_abrirCursos"><ellipse cx="697.3944" cy="384.2789" fill="#F1F1F1" rx="74.3944" ry="17.2789" style="stroke:#181818;stroke-width:0.5;"/><text fill="#000000" font-family="sans-serif" font-size="14" lengthAdjust="spacing" textLength="87" x="650.8944" y="389.0118">abrirCursos()</text></g><g id="elem_abrirProfesores"><ellipse cx="697.5993" cy="456.5199" fill="#F1F1F1" rx="83.0993" ry="19.0199" style="stroke:#181818;stroke-width:0.5;"/><text fill="#000000" font-family="sans-serif" font-size="14" lengthAdjust="spacing" textLength="112" x="638.5993" y="461.2528">abrirProfesores()</text></g><g id="elem_abrirAulas"><ellipse cx="697.6768" cy="750.5206" fill="#F1F1F1" rx="69.1768" ry="17.0206" style="stroke:#181818;stroke-width:0.5;"/><text fill="#000000" font-family="sans-serif" font-size="14" lengthAdjust="spacing" textLength="78" x="655.6768" y="755.2536">abrirAulas()</text></g><g id="elem_abrirEdificios"><ellipse cx="697.7473" cy="820.4495" fill="#F1F1F1" rx="77.7473" ry="17.9495" style="stroke:#181818;stroke-width:0.5;"/><text fill="#000000" font-family="sans-serif" font-size="14" lengthAdjust="spacing" textLength="97" x="646.2473" y="825.1824">abrirEdificios()</text></g><g id="elem_abrirRecursos"><ellipse cx="697.4912" cy="892.2982" fill="#F1F1F1" rx="79.4912" ry="18.2982" style="stroke:#181818;stroke-width:0.5;"/><text fill="#000000" font-family="sans-serif" font-size="14" lengthAdjust="spacing" textLength="102" x="643.4912" y="897.0312">abrirRecursos()</text></g><!--entity admin--><g id="elem_admin"><ellipse cx="54.5" cy="564.5" fill="#F1F1F1" rx="8" ry="8" style="stroke:#181818;stroke-width:0.5;"/><path d="M54.5,572.5 L54.5,599.5 M41.5,580.5 L67.5,580.5 M54.5,599.5 L41.5,614.5 M54.5,599.5 L67.5,614.5 " fill="none" style="stroke:#181818;stroke-width:0.5;"/><text fill="#000000" font-family="sans-serif" font-size="14" lengthAdjust="spacing" textLength="97" x="6" y="630.9659">Administrador</text></g><g id="elem_GMN26"><path d="M571,511 L571,591.5 L358.13,595.5 L571,599.5 L571,680.3541 A0,0 0 0 0 571,680.3541 L824,680.3541 A0,0 0 0 0 824,680.3541 L824,521 L814,511 L571,511 A0,0 0 0 0 571,511 " fill="#FEFFDD" style="stroke:#181818;stroke-width:0.5;"/><path d="M814,511 L814,521 L824,521 L814,511 " fill="#FEFFDD" style="stroke:#181818;stroke-width:0.5;"/><text fill="#000000" font-family="sans-serif" font-size="13" font-weight="bold" lengthAdjust="spacing" textLength="197" x="577" y="529.897">Caso de uso abstracto (patr&#243;n)</text><text fill="#000000" font-family="sans-serif" font-size="13" lengthAdjust="spacing" textLength="3" x="577" y="547.603">&#160;</text><text fill="#000000" font-family="sans-serif" font-size="13" lengthAdjust="spacing" textLength="232" x="577" y="565.309">Define el comportamiento gen&#233;rico de:</text><text fill="#000000" font-family="sans-serif" font-size="13" lengthAdjust="spacing" textLength="173" x="577" y="583.0151">&#8226; Presentar lista de entidades</text><text fill="#000000" font-family="sans-serif" font-size="13" lengthAdjust="spacing" textLength="214" x="577" y="600.7211">&#8226; Filtrar por campos parametrizados</text><text fill="#000000" font-family="sans-serif" font-size="13" lengthAdjust="spacing" textLength="183" x="577" y="618.4271">&#8226; Navegar a operaciones CRUD</text><text fill="#000000" font-family="sans-serif" font-size="13" lengthAdjust="spacing" textLength="3" x="577" y="636.1331">&#160;</text><text fill="#000000" font-family="sans-serif" font-size="13" font-weight="bold" lengthAdjust="spacing" textLength="183" x="577" y="653.8391">No se ejecuta directamente</text><text fill="#000000" font-family="sans-serif" font-size="13" lengthAdjust="spacing" textLength="199" x="577" y="671.5451">Requiere especializaci&#243;n concreta</text></g><g id="elem_GMN29"><path d="M543,140 L543,238.5301 A0,0 0 0 0 543,238.5301 L693.5,238.5301 L697.5,293.28 L701.5,238.5301 L852,238.5301 A0,0 0 0 0 852,238.5301 L852,150 L842,140 L543,140 A0,0 0 0 0 543,140 " fill="#FEFFDD" style="stroke:#181818;stroke-width:0.5;"/><path d="M842,140 L842,150 L852,150 L842,140 " fill="#FEFFDD" style="stroke:#181818;stroke-width:0.5;"/><text fill="#000000" font-family="sans-serif" font-size="13" font-weight="bold" lengthAdjust="spacing" textLength="160" x="549" y="158.897">Especializaci&#243;n concreta</text><text fill="#000000" font-family="sans-serif" font-size="13" lengthAdjust="spacing" textLength="3" x="549" y="176.603">&#160;</text><text fill="#000000" font-family="sans-serif" font-size="13" lengthAdjust="spacing" textLength="73" x="549" y="194.309">Par&#225;metros:</text><text fill="#000000" font-family="sans-serif" font-size="13" lengthAdjust="spacing" textLength="162" x="549" y="212.0151">&#8226; TipoEntidad: "Programas"</text><text fill="#000000" font-family="sans-serif" font-size="13" lengthAdjust="spacing" textLength="288" x="549" y="229.7211">&#8226; CamposFiltrable: [c&#243;digo, nombre, descripci&#243;n]</text></g><g id="elem_GMN32"><path d="M570,6 L570,104.5301 L825,104.5301 L825,16 L815,6 L570,6 " fill="#FEFFDD" style="stroke:#181818;stroke-width:0.5;"/><path d="M815,6 L815,16 L825,16 L815,6 " fill="#FEFFDD" style="stroke:#181818;stroke-width:1.0;"/><text fill="#000000" font-family="sans-serif" font-size="13" font-weight="bold" lengthAdjust="spacing" textLength="160" x="576" y="24.897">Especializaci&#243;n concreta</text><text fill="#000000" font-family="sans-serif" font-size="13" lengthAdjust="spacing" textLength="3" x="576" y="42.603">&#160;</text><text fill="#000000" font-family="sans-serif" font-size="13" lengthAdjust="spacing" textLength="73" x="576" y="60.309">Par&#225;metros:</text><text fill="#000000" font-family="sans-serif" font-size="13" lengthAdjust="spacing" textLength="128" x="576" y="78.0151">&#8226; TipoEntidad: "Aulas"</text><text fill="#000000" font-family="sans-serif" font-size="13" lengthAdjust="spacing" textLength="234" x="576" y="95.7211">&#8226; CamposFiltrable: [ID, nombre, edificio]</text></g><!--reverse link abrirEntidad to abrirProgramas--><g id="link_abrirEntidad_abrirProgramas"><path d="M289.0918,539.8913 C310.1418,497.5413 340.44,446.7 390,403.5 C453.5,348.15 549.41,326.44 617,317.95 " fill="none" id="abrirEntidad-backto-abrirProgramas" style="stroke:#181818;stroke-width:1.0;"/><polygon fill="none" points="281.08,556.01,294.4647,542.5619,283.7189,537.2207,281.08,556.01" style="stroke:#181818;stroke-width:1.0;"/><text fill="#000000" font-family="sans-serif" font-size="13" lengthAdjust="spacing" textLength="81" x="391" y="351.397">&#171;generalizes&#187;</text></g><!--reverse link abrirEntidad to abrirCursos--><g id="link_abrirEntidad_abrirCursos"><path d="M311.0192,545.4634 C335.3592,521.0134 356.55,502.07 390,478.5 C436.16,445.98 449.1,437.84 502.5,419.5 C543.45,405.44 591.3,396.73 629.23,391.51 " fill="none" id="abrirEntidad-backto-abrirCursos" style="stroke:#181818;stroke-width:1.0;"/><polygon fill="none" points="298.32,558.22,315.2714,549.6965,306.767,541.2303,298.32,558.22" style="stroke:#181818;stroke-width:1.0;"/><text fill="#000000" font-family="sans-serif" font-size="13" lengthAdjust="spacing" textLength="81" x="391" y="426.397">&#171;generalizes&#187;</text></g><!--reverse link abrirEntidad to abrirProfesores--><g id="link_abrirEntidad_abrirProfesores"><path d="M340.9276,557.1952 C388.5176,534.6552 440.24,512.45 502.5,493.5 C542.68,481.27 588.83,472.27 626.03,466.21 " fill="none" id="abrirEntidad-backto-abrirProfesores" style="stroke:#181818;stroke-width:1.0;"/><polygon fill="none" points="324.66,564.9,343.4959,562.6177,338.3594,551.7726,324.66,564.9" style="stroke:#181818;stroke-width:1.0;"/><text fill="#000000" font-family="sans-serif" font-size="13" lengthAdjust="spacing" textLength="81" x="391" y="501.397">&#171;generalizes&#187;</text></g><!--reverse link abrirEntidad to abrirAulas--><g id="link_abrirEntidad_abrirAulas"><path d="M342.7494,632.7442 C390.4994,654.5042 441.57,676.31 502.5,697.5 C550.81,714.3 607.36,729.23 646.9,738.93 " fill="none" id="abrirEntidad-backto-abrirAulas" style="stroke:#181818;stroke-width:1.0;"/><polygon fill="none" points="326.37,625.28,340.2614,638.204,345.2375,627.2844,326.37,625.28" style="stroke:#181818;stroke-width:1.0;"/><text fill="#000000" font-family="sans-serif" font-size="13" lengthAdjust="spacing" textLength="81" x="391" y="652.397">&#171;generalizes&#187;</text></g><!--reverse link abrirEntidad to abrirEdificios--><g id="link_abrirEntidad_abrirEdificios"><path d="M309.2517,646.1774 C352.1317,691.0774 418.27,751.21 502.5,784.5 C541.53,799.92 587.62,808.83 625.09,813.92 " fill="none" id="abrirEntidad-backto-abrirEdificios" style="stroke:#181818;stroke-width:1.0;"/><polygon fill="none" points="296.82,633.16,304.9126,650.3213,313.5909,642.0335,296.82,633.16" style="stroke:#181818;stroke-width:1.0;"/><text fill="#000000" font-family="sans-serif" font-size="13" lengthAdjust="spacing" textLength="81" x="391" y="718.397">&#171;generalizes&#187;</text></g><!--reverse link abrirEntidad to abrirRecursos--><g id="link_abrirEntidad_abrirRecursos"><path d="M287.3333,651.4132 C307.8633,695.8932 338.75,751.67 390,798.5 C453.79,856.79 552.93,878.95 621.09,887.37 " fill="none" id="abrirEntidad-backto-abrirRecursos" style="stroke:#181818;stroke-width:1.0;"/><polygon fill="none" points="279.79,635.07,281.8856,653.9276,292.781,648.8987,279.79,635.07" style="stroke:#181818;stroke-width:1.0;"/><text fill="#000000" font-family="sans-serif" font-size="13" lengthAdjust="spacing" textLength="81" x="391" y="794.397">&#171;generalizes&#187;</text></g><!--link admin to abrirEntidad--><g id="link_admin_abrirEntidad"><path d="M103.16,595.5 C121.9,595.5 138.1,595.5 159.84,595.5 " fill="none" id="admin-to-abrirEntidad" style="stroke:#181818;stroke-width:1.0;"/><polygon fill="#181818" points="165.84,595.5,156.84,591.5,160.84,595.5,156.84,599.5,165.84,595.5" style="stroke:#181818;stroke-width:1.0;"/></g><!--link abrirAulas to GMN32--><g id="link_abrirAulas_GMN32"><path d="M629.06,752.83 C569.04,750.72 484.9,736.8 442.25,680 C370.2,584.04 371.98,237.28 442.25,140 C471.77,99.13 521.81,77.71 569.81,66.59 " fill="none" id="abrirAulas-GMN32" style="stroke:#181818;stroke-width:1.0;stroke-dasharray:7.0,7.0;"/></g><!--SRC=[hLJ1ZjCm4BtxAqQzq4fRSQ-gIbNRHKXeLLLm0WuJUver97Qm7GuiA_4hSDlpVaB_X2zXd3hP15f19NffEvvvy-PvdWlQ1mWMdCvl0oZjI0PjZH0eWtMmLAKssWU7Yl-X1um18IgK7p4d66qnkCEZcS4Bya7pBr04hxW2_GZk1F2dzYJHS-vyZbc4ac6nU6SmSzhTlTQLtPYW5QhxyMJKj8W7AGRz6d7VQxpn5KcDXVw2aWcJ7r98zUHXAL4T7aejJp1gMcsTpHsMwFlzk-29WbNjl1ra7oEdiVVahQFVmLFqWf4AM65PrMU6MDR5S80cS29ne_HUC_mWkGkUADYH_6FUDXRfFuCT5ObmL3udGouD4PcFRycHuRacOgWiJEjg-dKnlEyPttY7G9ullIVm9HLF6bzIrQXsIK6dt2L5hNp_MDD97EMKrW3lGcDFqRWHfjCXX1361agMjllX6S0yMwpGstXNDN-r_h8mhevcdioVPzmLO4rxRIYsaxQih0jOQZASoVmE3qxB23BZn9_VVi2MfUP3T514-qTuQasOKgvrmQqSC1H8NcPMe4BU1GgErqNPDky6FrFEUGYsOXtIRgrsRzRYoF_60kydVM0TOwVcrM8O4wYX3gpNfrhptW7rFPNqauu22Z8Aeav9hSo6OCjEhhx_kU7c74mhrHRTuNiSnFfMaDxJDkE7iWKSfUDL8y1HagoW6RoLXqUbStl5jChCqHLBwANJLTFn_Ly8jtx_BsGRiFD4NwwVE58oG8_VBm00]--></g></svg>