<?xml version="1.0" encoding="us-ascii" standalone="no"?><svg xmlns="http://www.w3.org/2000/svg" xmlns:xlink="http://www.w3.org/1999/xlink" contentStyleType="text/css" height="484px" preserveAspectRatio="none" style="width:1230px;height:484px;background:#FFFFFF;" version="1.1" viewBox="0 0 1230 484" width="1230px" zoomAndPan="magnify"><defs/><g><!--cluster Patr?n: Gesti?n de Listas--><g id="cluster_Patr&#243;n: Gesti&#243;n de Listas"><path d="M540,12.5 L714,12.5 A3.75,3.75 0 0 1 716.5,15 L723.5,37.5679 L759,37.5679 A2.5,2.5 0 0 1 761.5,40.0679 L761.5,144 A2.5,2.5 0 0 1 759,146.5 L540,146.5 A2.5,2.5 0 0 1 537.5,144 L537.5,15 A2.5,2.5 0 0 1 540,12.5 " fill="none" style="stroke:#000000;stroke-width:1.5;"/><line style="stroke:#000000;stroke-width:1.5;" x1="537.5" x2="723.5" y1="37.5679" y2="37.5679"/><text fill="#000000" font-family="sans-serif" font-size="14" font-weight="bold" lengthAdjust="spacing" textLength="173" x="541.5" y="29.4659">Patr&#243;n: Gesti&#243;n de Listas</text></g><!--cluster Especializaciones: Gesti?n de Entidades Acad?micas--><g id="cluster_Especializaciones: Gesti&#243;n de Entidades Acad&#233;micas"><path d="M63,240 L422,240 A3.75,3.75 0 0 1 424.5,242.5 L431.5,265.0679 L643,265.0679 A2.5,2.5 0 0 1 645.5,267.5679 L645.5,329.5 A2.5,2.5 0 0 1 643,332 L63,332 A2.5,2.5 0 0 1 60.5,329.5 L60.5,242.5 A2.5,2.5 0 0 1 63,240 " fill="none" style="stroke:#000000;stroke-width:1.5;"/><line style="stroke:#000000;stroke-width:1.5;" x1="60.5" x2="431.5" y1="265.0679" y2="265.0679"/><text fill="#000000" font-family="sans-serif" font-size="14" font-weight="bold" lengthAdjust="spacing" textLength="358" x="64.5" y="256.9659">Especializaciones: Gesti&#243;n de Entidades Acad&#233;micas</text></g><!--cluster Especializaciones: Gesti?n del Campus--><g id="cluster_Especializaciones: Gesti&#243;n del Campus"><path d="M672,240.5 L937,240.5 A3.75,3.75 0 0 1 939.5,243 L946.5,265.5679 L1221,265.5679 A2.5,2.5 0 0 1 1223.5,268.0679 L1223.5,329 A2.5,2.5 0 0 1 1221,331.5 L672,331.5 A2.5,2.5 0 0 1 669.5,329 L669.5,243 A2.5,2.5 0 0 1 672,240.5 " fill="none" style="stroke:#000000;stroke-width:1.5;"/><line style="stroke:#000000;stroke-width:1.5;" x1="669.5" x2="946.5" y1="265.5679" y2="265.5679"/><text fill="#000000" font-family="sans-serif" font-size="14" font-weight="bold" lengthAdjust="spacing" textLength="264" x="673.5" y="257.4659">Especializaciones: Gesti&#243;n del Campus</text></g><g id="elem_abrirEntidad"><ellipse cx="649.7454" cy="90.5416" fill="#F1F1F1" rx="96.2454" ry="40.0416" style="stroke:#181818;stroke-width:0.5;"/><text fill="#000000" font-family="sans-serif" font-size="14" font-style="italic" lengthAdjust="spacing" textLength="66" x="610.7759" y="72.4579">&#171;abstract&#187;</text><text fill="#000000" font-family="sans-serif" font-size="14" lengthAdjust="spacing" textLength="69" x="609.2759" y="91.5258">&#171;abstract&#187;</text><text fill="#000000" font-family="sans-serif" font-size="14" lengthAdjust="spacing" textLength="132" x="577.7759" y="110.5937">abrir{TipoEntidad}()</text></g><g id="elem_abrirProgramas"><ellipse cx="160.3387" cy="297.1677" fill="#F1F1F1" rx="83.8387" ry="19.1677" style="stroke:#181818;stroke-width:0.5;"/><text fill="#000000" font-family="sans-serif" font-size="14" lengthAdjust="spacing" textLength="114" x="100.3387" y="301.9007">abrirProgramas()</text></g><g id="elem_abrirCursos"><ellipse cx="353.3944" cy="296.7789" fill="#F1F1F1" rx="74.3944" ry="17.2789" style="stroke:#181818;stroke-width:0.5;"/><text fill="#000000" font-family="sans-serif" font-size="14" lengthAdjust="spacing" textLength="87" x="306.8944" y="301.5118">abrirCursos()</text></g><g id="elem_abrirProfesores"><ellipse cx="546.5993" cy="297.0199" fill="#F1F1F1" rx="83.0993" ry="19.0199" style="stroke:#181818;stroke-width:0.5;"/><text fill="#000000" font-family="sans-serif" font-size="14" lengthAdjust="spacing" textLength="112" x="487.5993" y="301.7528">abrirProfesores()</text></g><g id="elem_abrirAulas"><ellipse cx="754.6768" cy="297.0206" fill="#F1F1F1" rx="69.1768" ry="17.0206" style="stroke:#181818;stroke-width:0.5;"/><text fill="#000000" font-family="sans-serif" font-size="14" lengthAdjust="spacing" textLength="78" x="712.6768" y="301.7536">abrirAulas()</text></g><g id="elem_abrirEdificios"><ellipse cx="936.7473" cy="296.9495" fill="#F1F1F1" rx="77.7473" ry="17.9495" style="stroke:#181818;stroke-width:0.5;"/><text fill="#000000" font-family="sans-serif" font-size="14" lengthAdjust="spacing" textLength="97" x="885.2473" y="301.6824">abrirEdificios()</text></g><g id="elem_abrirRecursos"><ellipse cx="1128.4912" cy="296.7982" fill="#F1F1F1" rx="79.4912" ry="18.2982" style="stroke:#181818;stroke-width:0.5;"/><text fill="#000000" font-family="sans-serif" font-size="14" lengthAdjust="spacing" textLength="102" x="1074.4912" y="301.5312">abrirRecursos()</text></g><!--entity admin--><g id="elem_admin"><ellipse cx="469.5" cy="59.5" fill="#F1F1F1" rx="8" ry="8" style="stroke:#181818;stroke-width:0.5;"/><path d="M469.5,67.5 L469.5,94.5 M456.5,75.5 L482.5,75.5 M469.5,94.5 L456.5,109.5 M469.5,94.5 L482.5,109.5 " fill="none" style="stroke:#181818;stroke-width:0.5;"/><text fill="#000000" font-family="sans-serif" font-size="14" lengthAdjust="spacing" textLength="97" x="421" y="125.9659">Administrador</text></g><g id="elem_GMN26"><path d="M781,6 L781,86.5 L745.75,90.5 L781,94.5 L781,175.3541 A0,0 0 0 0 781,175.3541 L1034,175.3541 A0,0 0 0 0 1034,175.3541 L1034,16 L1024,6 L781,6 A0,0 0 0 0 781,6 " fill="#FEFFDD" style="stroke:#181818;stroke-width:0.5;"/><path d="M1024,6 L1024,16 L1034,16 L1024,6 " fill="#FEFFDD" style="stroke:#181818;stroke-width:0.5;"/><text fill="#000000" font-family="sans-serif" font-size="13" font-weight="bold" lengthAdjust="spacing" textLength="197" x="787" y="24.897">Caso de uso abstracto (patr&#243;n)</text><text fill="#000000" font-family="sans-serif" font-size="13" lengthAdjust="spacing" textLength="3" x="787" y="42.603">&#160;</text><text fill="#000000" font-family="sans-serif" font-size="13" lengthAdjust="spacing" textLength="232" x="787" y="60.309">Define el comportamiento gen&#233;rico de:</text><text fill="#000000" font-family="sans-serif" font-size="13" lengthAdjust="spacing" textLength="173" x="787" y="78.0151">&#8226; Presentar lista de entidades</text><text fill="#000000" font-family="sans-serif" font-size="13" lengthAdjust="spacing" textLength="214" x="787" y="95.7211">&#8226; Filtrar por campos parametrizados</text><text fill="#000000" font-family="sans-serif" font-size="13" lengthAdjust="spacing" textLength="183" x="787" y="113.4271">&#8226; Navegar a operaciones CRUD</text><text fill="#000000" font-family="sans-serif" font-size="13" lengthAdjust="spacing" textLength="3" x="787" y="131.1331">&#160;</text><text fill="#000000" font-family="sans-serif" font-size="13" font-weight="bold" lengthAdjust="spacing" textLength="183" x="787" y="148.8391">No se ejecuta directamente</text><text fill="#000000" font-family="sans-serif" font-size="13" lengthAdjust="spacing" textLength="199" x="787" y="166.5451">Requiere especializaci&#243;n concreta</text></g><g id="elem_GMN29"><path d="M6,379 L6,477.5301 A0,0 0 0 0 6,477.5301 L315,477.5301 A0,0 0 0 0 315,477.5301 L315,389 L305,379 L164.5,379 L160.5,316.01 L156.5,379 L6,379 A0,0 0 0 0 6,379 " fill="#FEFFDD" style="stroke:#181818;stroke-width:0.5;"/><path d="M305,379 L305,389 L315,389 L305,379 " fill="#FEFFDD" style="stroke:#181818;stroke-width:0.5;"/><text fill="#000000" font-family="sans-serif" font-size="13" font-weight="bold" lengthAdjust="spacing" textLength="160" x="12" y="397.897">Especializaci&#243;n concreta</text><text fill="#000000" font-family="sans-serif" font-size="13" lengthAdjust="spacing" textLength="3" x="12" y="415.603">&#160;</text><text fill="#000000" font-family="sans-serif" font-size="13" lengthAdjust="spacing" textLength="73" x="12" y="433.309">Par&#225;metros:</text><text fill="#000000" font-family="sans-serif" font-size="13" lengthAdjust="spacing" textLength="162" x="12" y="451.0151">&#8226; TipoEntidad: "Programas"</text><text fill="#000000" font-family="sans-serif" font-size="13" lengthAdjust="spacing" textLength="288" x="12" y="468.7211">&#8226; CamposFiltrable: [c&#243;digo, nombre, descripci&#243;n]</text></g><g id="elem_GMN32"><path d="M627,379 L627,477.5301 A0,0 0 0 0 627,477.5301 L882,477.5301 A0,0 0 0 0 882,477.5301 L882,389 L872,379 L758.5,379 L754.5,314.14 L750.5,379 L627,379 A0,0 0 0 0 627,379 " fill="#FEFFDD" style="stroke:#181818;stroke-width:0.5;"/><path d="M872,379 L872,389 L882,389 L872,379 " fill="#FEFFDD" style="stroke:#181818;stroke-width:0.5;"/><text fill="#000000" font-family="sans-serif" font-size="13" font-weight="bold" lengthAdjust="spacing" textLength="160" x="633" y="397.897">Especializaci&#243;n concreta</text><text fill="#000000" font-family="sans-serif" font-size="13" lengthAdjust="spacing" textLength="3" x="633" y="415.603">&#160;</text><text fill="#000000" font-family="sans-serif" font-size="13" lengthAdjust="spacing" textLength="73" x="633" y="433.309">Par&#225;metros:</text><text fill="#000000" font-family="sans-serif" font-size="13" lengthAdjust="spacing" textLength="128" x="633" y="451.0151">&#8226; TipoEntidad: "Aulas"</text><text fill="#000000" font-family="sans-serif" font-size="13" lengthAdjust="spacing" textLength="234" x="633" y="468.7211">&#8226; CamposFiltrable: [ID, nombre, edificio]</text></g><!--reverse link abrirEntidad to abrirProgramas--><g id="link_abrirEntidad_abrirProgramas"><path d="M596.4165,138.5478 C575.6065,155.5978 562.68,163.37 535.5,175 C465.77,204.85 441.63,188.96 367.5,205 C319.98,215.28 306.14,212.75 261.5,232 C232.91,244.33 203.15,264.18 183.4,278.51 " fill="none" id="abrirEntidad-backto-abrirProgramas" style="stroke:#181818;stroke-width:1.0;"/><polygon fill="none" points="610.34,127.14,592.6139,133.9066,600.2191,143.1889,610.34,127.14" style="stroke:#181818;stroke-width:1.0;"/><text fill="#000000" font-family="sans-serif" font-size="13" lengthAdjust="spacing" textLength="81" x="368.5" y="219.897">&#171;generalizes&#187;</text></g><!--reverse link abrirEntidad to abrirCursos--><g id="link_abrirEntidad_abrirCursos"><path d="M589.4756,136.6071 C568.8056,151.9471 558.37,159.33 535.5,175 C496.76,201.56 485.63,206.02 446.5,232 C422.17,248.16 394.66,267.19 375.91,280.27 " fill="none" id="abrirEntidad-backto-abrirCursos" style="stroke:#181818;stroke-width:1.0;"/><polygon fill="none" points="603.93,125.88,585.8999,131.789,593.0514,141.4253,603.93,125.88" style="stroke:#181818;stroke-width:1.0;"/><text fill="#000000" font-family="sans-serif" font-size="13" lengthAdjust="spacing" textLength="81" x="488.5" y="219.897">&#171;generalizes&#187;</text></g><!--reverse link abrirEntidad to abrirProfesores--><g id="link_abrirEntidad_abrirProfesores"><path d="M622.0336,146.0363 C599.7736,190.2363 572.27,244.83 555.63,277.87 " fill="none" id="abrirEntidad-backto-abrirProfesores" style="stroke:#181818;stroke-width:1.0;"/><polygon fill="none" points="630.13,129.96,616.6749,143.3376,627.3924,148.7351,630.13,129.96" style="stroke:#181818;stroke-width:1.0;"/><text fill="#000000" font-family="sans-serif" font-size="13" lengthAdjust="spacing" textLength="81" x="592.5" y="219.897">&#171;generalizes&#187;</text></g><!--reverse link abrirEntidad to abrirAulas--><g id="link_abrirEntidad_abrirAulas"><path d="M677.4711,145.9729 C700.6411,191.1029 729.75,247.81 746.23,279.9 " fill="none" id="abrirEntidad-backto-abrirAulas" style="stroke:#181818;stroke-width:1.0;"/><polygon fill="none" points="669.25,129.96,672.1335,148.7133,682.8088,143.2325,669.25,129.96" style="stroke:#181818;stroke-width:1.0;"/><text fill="#000000" font-family="sans-serif" font-size="13" lengthAdjust="spacing" textLength="81" x="714.5" y="219.897">&#171;generalizes&#187;</text></g><!--reverse link abrirEntidad to abrirEdificios--><g id="link_abrirEntidad_abrirEdificios"><path d="M710.1479,136.3182 C730.8179,151.5282 741.06,158.94 763.5,175 C816.55,212.97 879.47,256.64 912.88,279.72 " fill="none" id="abrirEntidad-backto-abrirEdificios" style="stroke:#181818;stroke-width:1.0;"/><polygon fill="none" points="695.65,125.65,706.5918,141.1509,713.704,131.4856,695.65,125.65" style="stroke:#181818;stroke-width:1.0;"/><text fill="#000000" font-family="sans-serif" font-size="13" lengthAdjust="spacing" textLength="81" x="830.5" y="219.897">&#171;generalizes&#187;</text></g><!--reverse link abrirEntidad to abrirRecursos--><g id="link_abrirEntidad_abrirRecursos"><path d="M702.9277,138.5882 C723.7177,155.5482 736.51,163.25 763.5,175 C875.16,223.6 919.86,183.36 1031.5,232 C1059.61,244.25 1088.54,264.52 1107.4,278.96 " fill="none" id="abrirEntidad-backto-abrirRecursos" style="stroke:#181818;stroke-width:1.0;"/><polygon fill="none" points="688.98,127.21,699.1349,143.2374,706.7204,133.939,688.98,127.21" style="stroke:#181818;stroke-width:1.0;"/><text fill="#000000" font-family="sans-serif" font-size="13" lengthAdjust="spacing" textLength="81" x="1006.5" y="219.897">&#171;generalizes&#187;</text></g><!--link admin to abrirEntidad--><g id="link_admin_abrirEntidad"><path d="M518.02,90.5 C529.83,90.5 535.64,90.5 547.45,90.5 " fill="none" id="admin-to-abrirEntidad" style="stroke:#181818;stroke-width:1.0;"/><polygon fill="#181818" points="553.45,90.5,544.45,86.5,548.45,90.5,544.45,94.5,553.45,90.5" style="stroke:#181818;stroke-width:1.0;"/></g><!--SRC=[hLJ1ZjD03BtdAwnUQAMDk4TLfQhj8YIqgYeu0GTducO7afdWcN1WMObVWTkUznFw9tm9dZJ99j0AAj5BMu_ztlCRUr1vox3CIcsqyuoP_4C7609HLA7wY3d1P8kU3uycWHVal9PVa16yaWfq4xYBG3wr8uLESkTpJ0EKyel5EuCfQxvxhIkxCLvdcDrFPvE68XoqCHZMHFS3ueshI6aiz1TKsXfoOmbjFJbOAimE3wLM9nGrL5ksEME9RiZV1qyKh6fsTfHzZ9p6tfEpJB-3jz4BMYfWXMLLdsbYMHVZ1fh0YSHDflTQu4V9VV14mOxK7_rsiIZeVmOxAbh5mVgS377RHP0-lIKc8utDeh6r4DTL_7Knll14hhn782UtFd3uaeedao-fQcoxfA2txfAYphz_hEaj3dOgQq260SD-HiqwGXnp78zHeiXOJy0wl_LWz-CpW7cwMA6puRfg-UfspCAqEYxqRFuy5MA0DUsreS2eR5bPzbXgCf8f4WyFh5K0IIJnvxSVi1MtvH0PYl0417Zg5h5DkTQ5K34852WPQ36XGXa7yYmJazakxmO_Kovv2BOIAzhnMktUhAEZ_XiBCgFqGQmCJ9f9YJQXeqOwY6MVQYsZ1pJSgzP2nUGn8fD1yAbrAxNUsxAtQ_W62E7c74ndrHRvy3qqObrdoE1vI-Inx00dxV6gCU1eILfG0c_LuJ7JkRqIMMNAT2KMEiMwQXZV_qLmj_F_HMm3Tbxeo_MJHcftOA3l5m00]--></g></svg>