<?xml version="1.0" encoding="UTF-8" standalone="no"?><svg xmlns="http://www.w3.org/2000/svg" xmlns:xlink="http://www.w3.org/1999/xlink" contentStyleType="text/css" height="256px" preserveAspectRatio="none" style="width:369px;height:256px;background:#FFFFFF;" version="1.1" viewBox="0 0 369 256" width="369px" zoomAndPan="magnify"><defs/><g><ellipse cx="81.92" cy="16" fill="#222222" rx="10" ry="10" style="stroke:none;stroke-width:1.0;"/><g id="NoEncontrado"><rect fill="#F1F1F1" height="50" rx="12.5" ry="12.5" style="stroke:#181818;stroke-width:0.5;" width="118" x="22.92" y="103"/><line style="stroke:#181818;stroke-width:0.5;" x1="22.92" x2="140.92" y1="129.4883" y2="129.4883"/><text fill="#000000" font-family="sans-serif" font-size="14" lengthAdjust="spacing" textLength="98" x="32.92" y="121.5352">NoEncontrado</text></g><ellipse cx="81.92" cy="240" fill="none" rx="10" ry="10" style="stroke:#222222;stroke-width:1.0;"/><ellipse cx="82.42" cy="240.5" fill="#222222" rx="6" ry="6" style="stroke:none;stroke-width:1.0;"/><!--MD5=[86ec9df613c620a655db7a50099195c7]
link *start to NoEncontrado--><g id="link_*start_NoEncontrado"><path d="M81.92,26.38 C81.92,41.8 81.92,73.16 81.92,96.8 " fill="none" id="*start-to-NoEncontrado" style="stroke:#181818;stroke-width:1.0;"/><polygon fill="#181818" points="81.92,101.63,85.92,92.63,81.92,96.63,77.92,92.63,81.92,101.63" style="stroke:#181818;stroke-width:1.0;"/><text fill="#000000" font-family="sans-serif" font-size="13" lengthAdjust="spacing" textLength="43" x="82.92" y="69.5684">int i=0</text></g><!--MD5=[7ab3fc851162b730d19512ef4ae10942]
link NoEncontrado to NoEncontrado--><g id="link_NoEncontrado_NoEncontrado"><path d="M141.13,116.09 C160.5,116.16 175.92,120.12 175.92,128 C175.92,135.08 163.48,139 146.9,139.77 " fill="none" id="NoEncontrado-to-NoEncontrado" style="stroke:#181818;stroke-width:1.0;"/><polygon fill="#181818" points="142.13,139.91,151.2191,143.7033,147.1287,139.7957,151.0362,135.7054,142.13,139.91" style="stroke:#181818;stroke-width:1.0;"/><text fill="#000000" font-family="sans-serif" font-size="13" lengthAdjust="spacing" textLength="175" x="181.92" y="133.0684">(i&lt;t.length &amp;&amp; t[i]!=k) / i++</text></g><!--MD5=[5bd9eb621d71e54c2f643fec538f76d0]
link NoEncontrado to *end--><g id="link_NoEncontrado_*end"><path d="M36.92,153.29 C19.56,166.04 6,182.61 15.92,200 C26.73,218.94 50.75,229.62 66.63,234.84 " fill="none" id="NoEncontrado-to-*end" style="stroke:#181818;stroke-width:1.0;"/><polygon fill="#181818" points="71.08,236.53,63.6584,230.0554,66.302,235.0566,61.3009,237.7002,71.08,236.53" style="stroke:#181818;stroke-width:1.0;"/><text fill="#000000" font-family="sans-serif" font-size="13" lengthAdjust="spacing" textLength="85" x="16.92" y="196.5684">(t[i]==k) / A()</text></g><!--MD5=[5bd9eb621d71e54c2f643fec538f76d0]
link NoEncontrado to *end--><g id="link_NoEncontrado_*end"><path d="M98.47,153.43 C105.67,167.03 111.52,184.32 106.92,200 C103.99,210.03 97.58,219.93 92,227.25 " fill="none" id="NoEncontrado-to-*end-1" style="stroke:#181818;stroke-width:1.0;"/><polygon fill="#181818" points="88.31,230.87,97.0517,226.3331,91.43,226.9629,90.8003,221.3412,88.31,230.87" style="stroke:#181818;stroke-width:1.0;"/><text fill="#000000" font-family="sans-serif" font-size="13" lengthAdjust="spacing" textLength="176" x="108.92" y="196.5684">(i==t.length &amp;&amp; t[i]!=k) / B()</text></g><!--MD5=[7a2a1f30740b037e18a3d79438068a89]
@startuml
[*] - -> NoEncontrado : int i=0

NoEncontrado - -> NoEncontrado : (i<t.length && t[i]!=k) / i++

NoEncontrado - -> [*] : (t[i]==k) / A()
NoEncontrado - -> [*] : (i==t.length && t[i]!=k) / B()
@enduml

PlantUML version 1.2022.7(Mon Aug 22 19:01:30 CEST 2022)
(GPL source distribution)
Java Runtime: Java(TM) SE Runtime Environment
JVM: Java HotSpot(TM) 64-Bit Server VM
Default Encoding: UTF-8
Language: es
Country: ES
--></g></svg>