<?xml version="1.0" encoding="UTF-8" standalone="no"?><svg xmlns="http://www.w3.org/2000/svg" xmlns:xlink="http://www.w3.org/1999/xlink" contentStyleType="text/css" height="286px" preserveAspectRatio="none" style="width:232px;height:286px;background:#FFFFFF;" version="1.1" viewBox="0 0 232 286" width="232px" zoomAndPan="magnify"><defs/><g><rect fill="#FFFFFF" height="174.5078" style="stroke:#181818;stroke-width:1.0;" width="10" x="40" y="67.7988"/><rect fill="#FFFFFF" height="174.5078" style="stroke:#181818;stroke-width:1.0;" width="10" x="133" y="67.7988"/><rect fill="none" height="46.6211" style="stroke:#000000;stroke-width:1.5;" width="216" x="10" y="82.7988"/><rect fill="none" height="90.8867" style="stroke:#000000;stroke-width:1.5;" width="196" x="10" y="143.4199"/><line style="stroke:#181818;stroke-width:0.5;stroke-dasharray:5.0,5.0;" x1="45" x2="45" y1="36.4883" y2="251.3066"/><line style="stroke:#181818;stroke-width:0.5;stroke-dasharray:5.0,5.0;" x1="138" x2="138" y1="36.4883" y2="251.3066"/><rect fill="#E2E2F0" height="30.4883" rx="2.5" ry="2.5" style="stroke:#181818;stroke-width:0.5;" width="50" x="20" y="5"/><text fill="#000000" font-family="sans-serif" font-size="14" lengthAdjust="spacing" textLength="36" x="27" y="25.5352">Code</text><rect fill="#E2E2F0" height="30.4883" rx="2.5" ry="2.5" style="stroke:#181818;stroke-width:0.5;" width="50" x="20" y="250.3066"/><text fill="#000000" font-family="sans-serif" font-size="14" lengthAdjust="spacing" textLength="36" x="27" y="270.8418">Code</text><rect fill="#E2E2F0" height="30.4883" rx="2.5" ry="2.5" style="stroke:#181818;stroke-width:0.5;" width="116" x="80" y="5"/><text fill="#000000" font-family="sans-serif" font-size="14" lengthAdjust="spacing" textLength="102" x="87" y="25.5352">VirtualMachine</text><rect fill="#E2E2F0" height="30.4883" rx="2.5" ry="2.5" style="stroke:#181818;stroke-width:0.5;" width="116" x="80" y="250.3066"/><text fill="#000000" font-family="sans-serif" font-size="14" lengthAdjust="spacing" textLength="102" x="87" y="270.8418">VirtualMachine</text><rect fill="#FFFFFF" height="174.5078" style="stroke:#181818;stroke-width:1.0;" width="10" x="40" y="67.7988"/><rect fill="#FFFFFF" height="174.5078" style="stroke:#181818;stroke-width:1.0;" width="10" x="133" y="67.7988"/><polygon fill="#181818" points="121,63.7988,131,67.7988,121,71.7988,125,67.7988" style="stroke:#181818;stroke-width:1.0;"/><line style="stroke:#181818;stroke-width:1.0;stroke-dasharray:2.0,2.0;" x1="50" x2="127" y1="67.7988" y2="67.7988"/><text fill="#000000" font-family="sans-serif" font-size="13" lengthAdjust="spacing" textLength="43" x="57" y="63.0566">int i=0</text><path d="M10,82.7988 L84,82.7988 L84,90.1094 L74,100.1094 L10,100.1094 L10,82.7988 " fill="#EEEEEE" style="stroke:#000000;stroke-width:1.5;"/><rect fill="none" height="46.6211" style="stroke:#000000;stroke-width:1.5;" width="216" x="10" y="82.7988"/><text fill="#000000" font-family="sans-serif" font-size="13" font-weight="bold" lengthAdjust="spacing" textLength="29" x="25" y="96.3672">loop</text><text fill="#000000" font-family="sans-serif" font-size="11" font-weight="bold" lengthAdjust="spacing" textLength="122" x="99" y="95.4336">[i&lt;t.length &amp;&amp; t[i]!=k]</text><polygon fill="#181818" points="121,117.4199,131,121.4199,121,125.4199,125,121.4199" style="stroke:#181818;stroke-width:1.0;"/><line style="stroke:#181818;stroke-width:1.0;stroke-dasharray:2.0,2.0;" x1="50" x2="127" y1="121.4199" y2="121.4199"/><text fill="#000000" font-family="sans-serif" font-size="13" lengthAdjust="spacing" textLength="24" x="57" y="116.6777">i++</text><path d="M10,143.4199 L72,143.4199 L72,150.7305 L62,160.7305 L10,160.7305 L10,143.4199 " fill="#EEEEEE" style="stroke:#000000;stroke-width:1.5;"/><rect fill="none" height="90.8867" style="stroke:#000000;stroke-width:1.5;" width="196" x="10" y="143.4199"/><text fill="#000000" font-family="sans-serif" font-size="13" font-weight="bold" lengthAdjust="spacing" textLength="17" x="25" y="156.9883">alt</text><text fill="#000000" font-family="sans-serif" font-size="11" font-weight="bold" lengthAdjust="spacing" textLength="49" x="87" y="156.0547">[t[i]==k]</text><polygon fill="#181818" points="121,178.041,131,182.041,121,186.041,125,182.041" style="stroke:#181818;stroke-width:1.0;"/><line style="stroke:#181818;stroke-width:1.0;stroke-dasharray:2.0,2.0;" x1="50" x2="127" y1="182.041" y2="182.041"/><text fill="#000000" font-family="sans-serif" font-size="13" lengthAdjust="spacing" textLength="9" x="57" y="177.2988">A</text><line style="stroke:#000000;stroke-width:1.0;stroke-dasharray:2.0,2.0;" x1="10" x2="206" y1="191.041" y2="191.041"/><text fill="#000000" font-family="sans-serif" font-size="11" font-weight="bold" lengthAdjust="spacing" textLength="131" x="15" y="201.6758">[i==t.length &amp;&amp; t[i]!=k]</text><polygon fill="#181818" points="121,222.3066,131,226.3066,121,230.3066,125,226.3066" style="stroke:#181818;stroke-width:1.0;"/><line style="stroke:#181818;stroke-width:1.0;stroke-dasharray:2.0,2.0;" x1="50" x2="127" y1="226.3066" y2="226.3066"/><text fill="#000000" font-family="sans-serif" font-size="13" lengthAdjust="spacing" textLength="7" x="57" y="221.5645">B</text><!--MD5=[5d60c55a7f3a9aa0aa300468af00649e]
@startuml
Code - -> VirtualMachine : int i=0
activate Code
activate VirtualMachine
loop i<t.length && t[i]!=k
    Code - -> VirtualMachine : i++
end
alt t[i]==k
    Code - -> VirtualMachine : A
else i==t.length && t[i]!=k
    Code - -> VirtualMachine : B
end
@enduml

PlantUML version 1.2022.7(Mon Aug 22 19:01:30 CEST 2022)
(GPL source distribution)
Java Runtime: Java(TM) SE Runtime Environment
JVM: Java HotSpot(TM) 64-Bit Server VM
Default Encoding: UTF-8
Language: es
Country: ES
--></g></svg>