<?xml version="1.0" encoding="UTF-8" standalone="no"?><svg xmlns="http://www.w3.org/2000/svg" xmlns:xlink="http://www.w3.org/1999/xlink" contentStyleType="text/css" height="375px" preserveAspectRatio="none" style="width:215px;height:375px;background:#FFFFFF;" version="1.1" viewBox="0 0 215 375" width="215px" zoomAndPan="magnify"><defs/><g><ellipse cx="106.5" cy="20" fill="#222222" rx="10" ry="10" style="stroke:#222222;stroke-width:1.0;"/><rect fill="#F1F1F1" height="34.1328" rx="12.5" ry="12.5" style="stroke:#181818;stroke-width:0.5;" width="59" x="77" y="50"/><text fill="#000000" font-family="sans-serif" font-size="12" lengthAdjust="spacing" textLength="39" x="87" y="71.6016">int i=0</text><rect fill="#F1F1F1" height="34.1328" rx="12.5" ry="12.5" style="stroke:#181818;stroke-width:0.5;" width="43" x="85" y="148.1328"/><text fill="#000000" font-family="sans-serif" font-size="12" lengthAdjust="spacing" textLength="23" x="95" y="169.7344">i++</text><polygon fill="#F1F1F1" points="48,104.1328,165,104.1328,177,116.1328,165,128.1328,48,128.1328,36,116.1328,48,104.1328" style="stroke:#181818;stroke-width:0.5;"/><text fill="#000000" font-family="sans-serif" font-size="11" lengthAdjust="spacing" textLength="117" x="48" y="120.29">i&lt;=t.length &amp;&amp; t[i]!=k</text><polygon fill="#F1F1F1" points="87,224.2656,126,224.2656,138,236.2656,126,248.2656,87,248.2656,75,236.2656,87,224.2656" style="stroke:#181818;stroke-width:0.5;"/><text fill="#000000" font-family="sans-serif" font-size="11" lengthAdjust="spacing" textLength="39" x="87" y="240.4229">t[i]==k</text><text fill="#000000" font-family="sans-serif" font-size="11" lengthAdjust="spacing" textLength="19" x="56" y="233.9453">YES</text><text fill="#000000" font-family="sans-serif" font-size="11" lengthAdjust="spacing" textLength="17" x="138" y="233.9453">NO</text><rect fill="#F1F1F1" height="34.1328" rx="12.5" ry="12.5" style="stroke:#181818;stroke-width:0.5;" width="36" x="47" y="258.2656"/><text fill="#000000" font-family="sans-serif" font-size="12" lengthAdjust="spacing" textLength="16" x="57" y="279.8672">A()</text><rect fill="#F1F1F1" height="34.1328" rx="12.5" ry="12.5" style="stroke:#181818;stroke-width:0.5;" width="35" x="130.5" y="258.2656"/><text fill="#000000" font-family="sans-serif" font-size="12" lengthAdjust="spacing" textLength="15" x="140.5" y="279.8672">B()</text><polygon fill="#F1F1F1" points="106.5,298.3984,118.5,310.3984,106.5,322.3984,94.5,310.3984,106.5,298.3984" style="stroke:#181818;stroke-width:0.5;"/><ellipse cx="106.5" cy="353.3984" fill="none" rx="11" ry="11" style="stroke:#222222;stroke-width:1.0;"/><ellipse cx="106.5" cy="353.3984" fill="#222222" rx="6" ry="6" style="stroke:#111111;stroke-width:1.0;"/><line style="stroke:#181818;stroke-width:1.0;" x1="106.5" x2="106.5" y1="30" y2="50"/><polygon fill="#181818" points="102.5,40,106.5,50,110.5,40,106.5,44" style="stroke:#181818;stroke-width:1.0;"/><line style="stroke:#181818;stroke-width:1.0;" x1="106.5" x2="106.5" y1="128.1328" y2="148.1328"/><polygon fill="#181818" points="102.5,138.1328,106.5,148.1328,110.5,138.1328,106.5,142.1328" style="stroke:#181818;stroke-width:1.0;"/><line style="stroke:#181818;stroke-width:1.0;" x1="106.5" x2="106.5" y1="182.2656" y2="192.2656"/><line style="stroke:#181818;stroke-width:1.0;" x1="106.5" x2="189" y1="192.2656" y2="192.2656"/><polygon fill="#181818" points="185,163.1992,189,153.1992,193,163.1992,189,159.1992" style="stroke:#181818;stroke-width:1.0;"/><line style="stroke:#181818;stroke-width:1.0;" x1="189" x2="189" y1="116.1328" y2="192.2656"/><line style="stroke:#181818;stroke-width:1.0;" x1="189" x2="177" y1="116.1328" y2="116.1328"/><polygon fill="#181818" points="187,112.1328,177,116.1328,187,120.1328,183,116.1328" style="stroke:#181818;stroke-width:1.0;"/><line style="stroke:#181818;stroke-width:1.0;" x1="36" x2="24" y1="116.1328" y2="116.1328"/><polygon fill="#181818" points="20,149.1992,24,159.1992,28,149.1992,24,153.1992" style="stroke:#181818;stroke-width:1.0;"/><line style="stroke:#181818;stroke-width:1.0;" x1="24" x2="24" y1="116.1328" y2="204.2656"/><line style="stroke:#181818;stroke-width:1.0;" x1="24" x2="106.5" y1="204.2656" y2="204.2656"/><line style="stroke:#181818;stroke-width:1.0;" x1="106.5" x2="106.5" y1="204.2656" y2="224.2656"/><polygon fill="#181818" points="102.5,214.2656,106.5,224.2656,110.5,214.2656,106.5,218.2656" style="stroke:#181818;stroke-width:1.0;"/><line style="stroke:#181818;stroke-width:1.0;" x1="106.5" x2="106.5" y1="84.1328" y2="104.1328"/><polygon fill="#181818" points="102.5,94.1328,106.5,104.1328,110.5,94.1328,106.5,98.1328" style="stroke:#181818;stroke-width:1.0;"/><line style="stroke:#181818;stroke-width:1.0;" x1="75" x2="65" y1="236.2656" y2="236.2656"/><line style="stroke:#181818;stroke-width:1.0;" x1="65" x2="65" y1="236.2656" y2="258.2656"/><polygon fill="#181818" points="61,248.2656,65,258.2656,69,248.2656,65,252.2656" style="stroke:#181818;stroke-width:1.0;"/><line style="stroke:#181818;stroke-width:1.0;" x1="138" x2="148" y1="236.2656" y2="236.2656"/><line style="stroke:#181818;stroke-width:1.0;" x1="148" x2="148" y1="236.2656" y2="258.2656"/><polygon fill="#181818" points="144,248.2656,148,258.2656,152,248.2656,148,252.2656" style="stroke:#181818;stroke-width:1.0;"/><line style="stroke:#181818;stroke-width:1.0;" x1="65" x2="65" y1="292.3984" y2="310.3984"/><line style="stroke:#181818;stroke-width:1.0;" x1="65" x2="94.5" y1="310.3984" y2="310.3984"/><polygon fill="#181818" points="84.5,306.3984,94.5,310.3984,84.5,314.3984,88.5,310.3984" style="stroke:#181818;stroke-width:1.0;"/><line style="stroke:#181818;stroke-width:1.0;" x1="148" x2="148" y1="292.3984" y2="310.3984"/><line style="stroke:#181818;stroke-width:1.0;" x1="148" x2="118.5" y1="310.3984" y2="310.3984"/><polygon fill="#181818" points="128.5,306.3984,118.5,310.3984,128.5,314.3984,124.5,310.3984" style="stroke:#181818;stroke-width:1.0;"/><line style="stroke:#181818;stroke-width:1.0;" x1="106.5" x2="106.5" y1="322.3984" y2="342.3984"/><polygon fill="#181818" points="102.5,332.3984,106.5,342.3984,110.5,332.3984,106.5,336.3984" style="stroke:#181818;stroke-width:1.0;"/><!--MD5=[93c1999c9bee97df282b2b3f07f7892b]
@startuml
start

:int i=0;

while (i<=t.length && t[i]!=k)
    :i++;
endwhile

if (t[i]==k) then (YES)
    :A();
else (NO)
    :B();
endif

stop
@enduml

PlantUML version 1.2022.7(Mon Aug 22 19:01:30 CEST 2022)
(GPL source distribution)
Java Runtime: Java(TM) SE Runtime Environment
JVM: Java HotSpot(TM) 64-Bit Server VM
Default Encoding: UTF-8
Language: es
Country: ES
--></g></svg>