<?xml version="1.0" encoding="UTF-8" standalone="no"?><svg xmlns="http://www.w3.org/2000/svg" xmlns:xlink="http://www.w3.org/1999/xlink" contentStyleType="text/css" height="448px" preserveAspectRatio="none" style="width:501px;height:448px;background:#FFFFFF;" version="1.1" viewBox="0 0 501 448" width="501px" zoomAndPan="magnify"><defs/><g><rect fill="none" height="48.1358" id="_title" style="stroke:none;stroke-width:1.0;" width="293" x="102.75" y="15"/><text fill="#000000" font-family="sans-serif" font-size="14" font-weight="bold" lengthAdjust="spacing" textLength="283" x="107.75" y="34.9659">Actividades de la disciplina de Requisitos</text><text fill="#000000" font-family="sans-serif" font-size="14" font-weight="bold" lengthAdjust="spacing" textLength="4" x="247.25" y="54.0339"> </text><ellipse cx="80.5" cy="112.4256" fill="#222222" rx="10" ry="10" style="stroke:#222222;stroke-width:1.0;"/><rect fill="#F1F1F1" height="52.6882" rx="12.5" ry="12.5" style="stroke:#181818;stroke-width:0.5;" width="99" x="31" y="142.4256"/><text fill="#000000" font-family="sans-serif" font-size="12" lengthAdjust="spacing" textLength="55" x="41" y="165.2537">Encontrar</text><text fill="#000000" font-family="sans-serif" font-size="12" lengthAdjust="spacing" textLength="79" x="41" y="181.5979">Actores y CdU</text><rect fill="#F1F1F1" height="52.6882" rx="12.5" ry="12.5" style="stroke:#181818;stroke-width:0.5;" width="119" x="21" y="384.1462"/><text fill="#000000" font-family="sans-serif" font-size="12" lengthAdjust="spacing" textLength="63" x="31" y="406.9743">Estructurar</text><text fill="#000000" font-family="sans-serif" font-size="12" lengthAdjust="spacing" textLength="99" x="31" y="423.3184">el modelo de CdU</text><line style="stroke:#000000;stroke-width:1.5;" x1="15" x2="15" y1="72.9098" y2="436.8344"/><rect fill="#F1F1F1" height="36.3441" rx="12.5" ry="12.5" style="stroke:#181818;stroke-width:0.5;" width="95" x="150" y="215.1139"/><text fill="#000000" font-family="sans-serif" font-size="12" lengthAdjust="spacing" textLength="75" x="160" y="237.942">Priorizar CdU</text><line style="stroke:#000000;stroke-width:1.5;" x1="144" x2="144" y1="72.9098" y2="436.8344"/><rect fill="#F1F1F1" height="36.3441" rx="12.5" ry="12.5" style="stroke:#181818;stroke-width:0.5;" width="92" x="265.5" y="271.458"/><text fill="#000000" font-family="sans-serif" font-size="12" lengthAdjust="spacing" textLength="72" x="275.5" y="294.2861">Detallar CdU</text><line style="stroke:#000000;stroke-width:1.5;" x1="249" x2="249" y1="72.9098" y2="436.8344"/><rect fill="#F1F1F1" height="36.3441" rx="12.5" ry="12.5" style="stroke:#181818;stroke-width:0.5;" width="92" x="382" y="327.8021"/><text fill="#000000" font-family="sans-serif" font-size="12" lengthAdjust="spacing" textLength="72" x="392" y="350.6302">Prototipar UI</text><line style="stroke:#000000;stroke-width:1.5;" x1="372" x2="372" y1="72.9098" y2="436.8344"/><line style="stroke:#000000;stroke-width:1.5;" x1="482" x2="482" y1="72.9098" y2="436.8344"/><line style="stroke:#181818;stroke-width:1.0;" x1="80.5" x2="80.5" y1="122.4256" y2="142.4256"/><polygon fill="#181818" points="76.5,132.4256,80.5,142.4256,84.5,132.4256,80.5,136.4256" style="stroke:#181818;stroke-width:1.0;"/><line style="stroke:#181818;stroke-width:1.0;" x1="80.5" x2="80.5" y1="195.1139" y2="200.1139"/><line style="stroke:#181818;stroke-width:1.0;" x1="80.5" x2="197.5" y1="200.1139" y2="200.1139"/><line style="stroke:#181818;stroke-width:1.0;" x1="197.5" x2="197.5" y1="200.1139" y2="215.1139"/><polygon fill="#181818" points="193.5,205.1139,197.5,215.1139,201.5,205.1139,197.5,209.1139" style="stroke:#181818;stroke-width:1.0;"/><line style="stroke:#181818;stroke-width:1.0;" x1="197.5" x2="197.5" y1="251.458" y2="256.458"/><line style="stroke:#181818;stroke-width:1.0;" x1="197.5" x2="311.5" y1="256.458" y2="256.458"/><line style="stroke:#181818;stroke-width:1.0;" x1="311.5" x2="311.5" y1="256.458" y2="271.458"/><polygon fill="#181818" points="307.5,261.458,311.5,271.458,315.5,261.458,311.5,265.458" style="stroke:#181818;stroke-width:1.0;"/><line style="stroke:#181818;stroke-width:1.0;" x1="311.5" x2="311.5" y1="307.8021" y2="312.8021"/><line style="stroke:#181818;stroke-width:1.0;" x1="311.5" x2="428" y1="312.8021" y2="312.8021"/><line style="stroke:#181818;stroke-width:1.0;" x1="428" x2="428" y1="312.8021" y2="327.8021"/><polygon fill="#181818" points="424,317.8021,428,327.8021,432,317.8021,428,321.8021" style="stroke:#181818;stroke-width:1.0;"/><line style="stroke:#181818;stroke-width:1.0;" x1="428" x2="428" y1="364.1462" y2="369.1462"/><line style="stroke:#181818;stroke-width:1.0;" x1="428" x2="80.5" y1="369.1462" y2="369.1462"/><line style="stroke:#181818;stroke-width:1.0;" x1="80.5" x2="80.5" y1="369.1462" y2="384.1462"/><polygon fill="#181818" points="76.5,374.1462,80.5,384.1462,84.5,374.1462,80.5,378.1462" style="stroke:#181818;stroke-width:1.0;"/><text fill="#000000" font-family="sans-serif" font-size="18" lengthAdjust="spacing" textLength="69" x="45" y="92.1517">Analista</text><text fill="#000000" font-family="sans-serif" font-size="18" lengthAdjust="spacing" textLength="90" x="151.5" y="92.1517">Arquitecto</text><text fill="#000000" font-family="sans-serif" font-size="18" lengthAdjust="spacing" textLength="113" x="254" y="92.1517">Especificador</text><text fill="#000000" font-family="sans-serif" font-size="18" lengthAdjust="spacing" textLength="90" x="382" y="92.1517">Experto UI</text><!--MD5=[849296593bd331b14dffb8f50ec70d63]
@startuml
title Actividades de la disciplina de Requisitos\n

|Analista|
start
:Encontrar\nActores y CdU;
|Arquitecto|
:Priorizar CdU;
|Especificador|
:Detallar CdU;
| Experto UI |
:Prototipar UI;
|Analista|
:Estructurar\nel modelo de CdU;
@enduml

PlantUML version 1.2022.7(Mon Aug 22 19:01:30 CEST 2022)
(GPL source distribution)
Java Runtime: OpenJDK Runtime Environment
JVM: OpenJDK 64-Bit Server VM
Default Encoding: UTF-8
Language: es
Country: ES
--></g></svg>