<?xml version="1.0" encoding="UTF-8" standalone="no"?><svg xmlns="http://www.w3.org/2000/svg" xmlns:xlink="http://www.w3.org/1999/xlink" contentStyleType="text/css" height="561px" preserveAspectRatio="none" style="width:522px;height:561px;background:#FFFFFF;" version="1.1" viewBox="0 0 522 561" width="522px" zoomAndPan="magnify"><defs/><g><ellipse cx="118.89" cy="16" fill="#222222" rx="10" ry="10" style="stroke:none;stroke-width:1.0;"/><g id="Inicio"><rect fill="#F1F1F1" height="50" rx="12.5" ry="12.5" style="stroke:#181818;stroke-width:0.5;" width="53" x="92.39" y="87"/><line style="stroke:#181818;stroke-width:0.5;" x1="92.39" x2="145.39" y1="113.0986" y2="113.0986"/><text fill="#000000" font-family="sans-serif" font-size="14" lengthAdjust="spacing" textLength="33" x="102.39" y="105.1318">Inicio</text></g><g id="JuegoCerrado"><rect fill="#F1F1F1" height="50" rx="12.5" ry="12.5" style="stroke:#181818;stroke-width:0.5;" width="111" x="63.39" y="213"/><line style="stroke:#181818;stroke-width:0.5;" x1="63.39" x2="174.39" y1="239.0986" y2="239.0986"/><text fill="#000000" font-family="sans-serif" font-size="14" lengthAdjust="spacing" textLength="91" x="73.39" y="231.1318">JuegoCerrado</text></g><g id="JuegoEnCurso"><rect fill="#F1F1F1" height="50" rx="12.5" ry="12.5" style="stroke:#181818;stroke-width:0.5;" width="114" x="280.89" y="213"/><line style="stroke:#181818;stroke-width:0.5;" x1="280.89" x2="394.89" y1="239.0986" y2="239.0986"/><text fill="#000000" font-family="sans-serif" font-size="14" lengthAdjust="spacing" textLength="94" x="290.89" y="231.1318">JuegoEnCurso</text></g><g id="elem_Turno"><polygon fill="#F1F1F1" points="288.89,339,300.89,351,288.89,363,276.89,351,288.89,339" style="stroke:#181818;stroke-width:0.5;"/></g><g id="Final"><rect fill="#F1F1F1" height="50" rx="12.5" ry="12.5" style="stroke:#181818;stroke-width:0.5;" width="51" x="79.39" y="424"/><line style="stroke:#181818;stroke-width:0.5;" x1="79.39" x2="130.39" y1="450.0986" y2="450.0986"/><text fill="#000000" font-family="sans-serif" font-size="14" lengthAdjust="spacing" textLength="31" x="89.39" y="442.1318">Final</text></g><ellipse cx="104.89" cy="545" fill="none" rx="10" ry="10" style="stroke:#222222;stroke-width:1.0;"/><ellipse cx="105.39" cy="545.5" fill="#222222" rx="6" ry="6" style="stroke:none;stroke-width:1.0;"/><!--MD5=[44c84ed82d04b71b709f3e027259f807]
link *start to Inicio--><g id="link_*start_Inicio"><path d="M118.89,26.01 C118.89,38.7 118.89,62.41 118.89,81.57 " fill="none" id="*start-to-Inicio" style="stroke:#181818;stroke-width:1.0;"/><polygon fill="#181818" points="118.89,86.84,122.89,77.84,118.89,81.84,114.89,77.84,118.89,86.84" style="stroke:#181818;stroke-width:1.0;"/></g><!--MD5=[9be2ded703ea9b87b751e5228b0ea5b8]
link Inicio to JuegoCerrado--><g id="link_Inicio_JuegoCerrado"><path d="M118.89,137.2 C118.89,157.43 118.89,186.34 118.89,207.84 " fill="none" id="Inicio-to-JuegoCerrado" style="stroke:#181818;stroke-width:1.0;"/><polygon fill="#181818" points="118.89,212.86,122.89,203.86,118.89,207.86,114.89,203.86,118.89,212.86" style="stroke:#181818;stroke-width:1.0;"/><text fill="#000000" font-family="sans-serif" font-size="13" lengthAdjust="spacing" textLength="31" x="119.89" y="180.1938">Login</text></g><!--MD5=[c00075b5495fa418e3ccd709622c768d]
link JuegoCerrado to JuegoEnCurso--><g id="link_JuegoCerrado_JuegoEnCurso"><path d="M174.52,253.75 C180.93,255.08 187.4,256.22 193.64,257 C223.63,260.75 231.64,260.68 261.64,257 C266.22,256.44 270.91,255.69 275.62,254.83 " fill="none" id="JuegoCerrado-to-JuegoEnCurso" style="stroke:#181818;stroke-width:1.0;"/><polygon fill="#181818" points="280.72,253.84,271.1275,251.6075,275.8096,254.7821,272.6349,259.4642,280.72,253.84" style="stroke:#181818;stroke-width:1.0;"/><text fill="#000000" font-family="sans-serif" font-size="13" lengthAdjust="spacing" textLength="66" x="194.64" y="254.1938">CrearJuego</text></g><!--MD5=[c00075b5495fa418e3ccd709622c768d]
link JuegoCerrado to JuegoEnCurso--><g id="link_JuegoCerrado_JuegoEnCurso"><path d="M174.44,238 C205.35,238 243.91,238 275.82,238 " fill="none" id="JuegoCerrado-to-JuegoEnCurso-1" style="stroke:#181818;stroke-width:1.0;"/><polygon fill="#181818" points="280.88,238,271.88,234,275.88,238,271.88,242,280.88,238" style="stroke:#181818;stroke-width:1.0;"/><text fill="#000000" font-family="sans-serif" font-size="13" lengthAdjust="spacing" textLength="70" x="192.64" y="232.1938">IniciarJuego</text></g><!--MD5=[1ecf37df9a5388a0c2eaf1f3e18b3a46]
link JuegoEnCurso to JuegoEnCurso--><g id="link_JuegoEnCurso_JuegoEnCurso"><path d="M394.94,226.38 C414.32,226.31 429.89,230.19 429.89,238 C429.89,245.08 417.1,248.92 400.28,249.54 " fill="none" id="JuegoEnCurso-to-JuegoEnCurso" style="stroke:#181818;stroke-width:1.0;"/><polygon fill="#181818" points="394.94,249.62,404.0072,253.4651,399.9393,249.5343,403.8701,245.4663,394.94,249.62" style="stroke:#181818;stroke-width:1.0;"/><text fill="#000000" font-family="sans-serif" font-size="13" lengthAdjust="spacing" textLength="74" x="435.89" y="243.1938">GrabarJuego</text></g><!--MD5=[6ca8b2f7fe26c8afd2c8ef25b5884bd7]
link JuegoEnCurso to Turno--><g id="link_JuegoEnCurso_Turno"><path d="M307,263.15 C298.52,271.58 290.42,281.77 285.89,293 C280.24,307.03 282.39,324.59 285.05,336.48 " fill="none" id="JuegoEnCurso-to-Turno" style="stroke:#181818;stroke-width:1.0;"/><polygon fill="#181818" points="286.29,341.52,288.0415,331.8281,285.1042,336.6626,280.2697,333.7254,286.29,341.52" style="stroke:#181818;stroke-width:1.0;"/><text fill="#000000" font-family="sans-serif" font-size="13" lengthAdjust="spacing" textLength="38" x="286.89" y="306.1938">Atacar</text></g><!--MD5=[bcc0a268a3e22e61a7ab8cd0265ef02e]
link Turno to JuegoEnCurso--><g id="link_Turno_JuegoEnCurso"><path d="M295.82,345.4 C305.32,338.66 322.1,325.14 329.89,309 C335.95,296.45 338.2,281.22 338.83,268.17 " fill="none" id="Turno-to-JuegoEnCurso" style="stroke:#181818;stroke-width:1.0;"/><polygon fill="#181818" points="339,263.1,334.7193,271.9699,338.8429,268.0975,342.7153,272.2212,339,263.1" style="stroke:#181818;stroke-width:1.0;"/></g><!--MD5=[7d11d25391e2a930a53203cc2ce1eb09]
link Turno to JuegoCerrado--><g id="link_Turno_JuegoCerrado"><path d="M279.93,347.7 C261.55,342.69 218.73,329.61 187.89,309 C170.64,297.47 154.22,281.11 141.72,267.1 " fill="none" id="Turno-to-JuegoCerrado" style="stroke:#181818;stroke-width:1.0;"/><polygon fill="#181818" points="138.3,263.22,141.2541,272.6154,141.6076,266.9696,147.2534,267.3232,138.3,263.22" style="stroke:#181818;stroke-width:1.0;"/><text fill="#000000" font-family="sans-serif" font-size="13" lengthAdjust="spacing" textLength="84" x="188.89" y="306.1938">FinalizarJuego</text></g><!--MD5=[acf084600a051f9ac4cd69ade5085df1]
link JuegoEnCurso to Final--><g id="link_JuegoEnCurso_Final"><path d="M351.92,263.1 C358.02,276.65 362.79,293.85 357.89,309 C348.78,337.17 342.25,344.81 318.89,363 C262.25,407.11 179.77,431.16 135.58,441.59 " fill="none" id="JuegoEnCurso-to-Final" style="stroke:#181818;stroke-width:1.0;"/><polygon fill="#181818" points="130.64,442.74,140.3106,444.6055,135.511,441.6115,138.505,436.812,130.64,442.74" style="stroke:#181818;stroke-width:1.0;"/><text fill="#000000" font-family="sans-serif" font-size="13" lengthAdjust="spacing" textLength="39" x="344.89" y="356.1938">Logout</text></g><!--MD5=[bdfc33d9dc546a865571d3f1aa4d267a]
link JuegoCerrado to Final--><g id="link_JuegoCerrado_Final"><path d="M83.71,263.36 C61.06,281.31 33.57,307.94 20.89,339 C6,375.47 45.14,410.18 74.89,430.27 " fill="none" id="JuegoCerrado-to-Final" style="stroke:#181818;stroke-width:1.0;"/><polygon fill="#181818" points="79.2,433.12,73.8974,424.8204,75.0288,430.363,69.4862,431.4944,79.2,433.12" style="stroke:#181818;stroke-width:1.0;"/><text fill="#000000" font-family="sans-serif" font-size="13" lengthAdjust="spacing" textLength="39" x="21.89" y="356.1938">Logout</text></g><!--MD5=[ccccdbf9356317ddd116d8a32f52971a]
link Final to JuegoCerrado--><g id="link_Final_JuegoCerrado"><path d="M106.52,423.77 C109.1,385.25 114.13,310.15 116.91,268.53 " fill="none" id="Final-to-JuegoCerrado" style="stroke:#181818;stroke-width:1.0;"/><polygon fill="#181818" points="117.26,263.38,112.6768,272.0975,116.9312,268.3692,120.6595,272.6236,117.26,263.38" style="stroke:#181818;stroke-width:1.0;"/><text fill="#000000" font-family="sans-serif" font-size="13" lengthAdjust="spacing" textLength="31" x="113.89" y="356.1938">Login</text></g><!--MD5=[79c4ae1cf369008be323340b8c07d8b0]
link Final to *end--><g id="link_Final_*end"><path d="M104.89,474.21 C104.89,491.84 104.89,515.13 104.89,529.84 " fill="none" id="Final-to-*end" style="stroke:#181818;stroke-width:1.0;"/><polygon fill="#181818" points="104.89,534.84,108.89,525.84,104.89,529.84,100.89,525.84,104.89,534.84" style="stroke:#181818;stroke-width:1.0;"/></g><!--MD5=[517a969f2f8e8929f54b15cba5275785]
@startuml
[*] - -> Inicio

Inicio -d-> JuegoCerrado : Login
JuegoCerrado - -r-> JuegoEnCurso: CrearJuego
JuegoCerrado - -r-> JuegoEnCurso: IniciarJuego
JuegoEnCurso - - -> JuegoEnCurso: GrabarJuego

state Turno <<choice>>

JuegoEnCurso - -> Turno: Atacar
Turno - -> JuegoEnCurso

Turno - -> JuegoCerrado: FinalizarJuego

JuegoEnCurso - - -> Final: Logout
JuegoCerrado - - -> Final: Logout
Final - - -> JuegoCerrado: Login

Final - -> [*]
@enduml

PlantUML version 1.2022.7(Mon Aug 22 19:01:30 CEST 2022)
(GPL source distribution)
Java Runtime: OpenJDK Runtime Environment
JVM: OpenJDK 64-Bit Server VM
Default Encoding: UTF-8
Language: es
Country: ES
--></g></svg>