<?xml version="1.0" encoding="UTF-8" standalone="no"?><svg xmlns="http://www.w3.org/2000/svg" xmlns:xlink="http://www.w3.org/1999/xlink" contentStyleType="text/css" height="75px" preserveAspectRatio="none" style="width:271px;height:75px;background:#FFFFFF;" version="1.1" viewBox="0 0 271 75" width="271px" zoomAndPan="magnify"><defs/><g><path d="M11,8.7988 C9.9,8.7988 9,9.9188 9,11.2988 C9,12.6788 9.9,13.7988 11,13.7988 C12.1,13.7988 13,12.6788 13,11.2988 C13,9.9188 12.1,8.7988 11,8.7988 M8.91,13.7988 C7.85,13.8488 7,14.7188 7,15.7988 L7,16.7988 L15,16.7988 L15,15.7988 C15,14.7188 14.16,13.8488 13.09,13.7988 C12.55,14.4088 11.81,14.7988 11,14.7988 C10.19,14.7988 9.45,14.4088 8.91,13.7988 " fill="#000000" style="stroke:;stroke-width:0.0;stroke-dasharray:;"/><text fill="#000000" font-family="sans-serif" font-size="12" lengthAdjust="spacing" textLength="57" x="19" y="17.2559">Username</text><text fill="#000000" font-family="sans-serif" font-size="12" lengthAdjust="spacing" textLength="49" x="81" y="17.2559">mmasias</text><line style="stroke:#000000;stroke-width:1.0;" x1="79" x2="162" y1="19.7988" y2="19.7988"/><line style="stroke:#000000;stroke-width:1.0;" x1="79" x2="79" y1="16.7988" y2="18.7988"/><line style="stroke:#000000;stroke-width:1.0;" x1="162" x2="162" y1="16.7988" y2="18.7988"/><path d="M12.5,26.5977 C11.12,26.5977 10,27.7177 10,29.0977 C10,29.2577 10,29.4177 10.03,29.5677 L7,32.5977 L7,34.5977 L10,34.5977 L10,32.5977 L12,32.5977 L12,31.5977 L12.03,31.5677 C12.18,31.5977 12.34,31.5977 12.5,31.5977 C13.88,31.5977 15,30.4777 15,29.0977 C15,27.7177 13.88,26.5977 12.5,26.5977 M13,27.5977 C13.55,27.5977 14,28.0477 14,28.5977 C14,29.1477 13.55,29.5977 13,29.5977 C12.45,29.5977 12,29.1477 12,28.5977 C12,28.0477 12.45,27.5977 13,27.5977 " fill="#000000" style="stroke:;stroke-width:0.0;stroke-dasharray:;"/><text fill="#000000" font-family="sans-serif" font-size="12" lengthAdjust="spacing" textLength="54" x="19" y="35.0547">Password</text><text fill="#000000" font-family="sans-serif" font-size="12" font-weight="bold" lengthAdjust="spacing" textLength="5" x="81" y="35.0547">*</text><text fill="#000000" font-family="sans-serif" font-size="12" lengthAdjust="spacing" textLength="20" x="86" y="35.0547">****</text><line style="stroke:#000000;stroke-width:1.0;" x1="79" x2="162" y1="37.5977" y2="37.5977"/><line style="stroke:#000000;stroke-width:1.0;" x1="79" x2="79" y1="34.5977" y2="36.5977"/><line style="stroke:#000000;stroke-width:1.0;" x1="162" x2="162" y1="34.5977" y2="36.5977"/><line style="stroke:#AAAAAA;stroke-width:1.0;" x1="6" x2="77" y1="45.0977" y2="45.0977"/><line style="stroke:#AAAAAA;stroke-width:1.0;" x1="78" x2="165" y1="45.0977" y2="45.0977"/><line style="stroke:#AAAAAA;stroke-width:1.0;" x1="166" x2="264" y1="45.0977" y2="45.0977"/><rect fill="#EEEEEE" height="17.7988" rx="5" ry="5" style="stroke:#000000;stroke-width:2.5;" width="44" x="8.5" y="52.0977"/><text fill="#000000" font-family="sans-serif" font-size="12" lengthAdjust="spacing" textLength="17" x="15.5" y="65.3535">OK</text><path d="M39.5,56.8965 L39.5,57.8965 L43.5,57.8965 L43.5,62.8965 L39.5,62.8965 L39.5,63.8965 L44.5,63.8965 L44.5,56.8965 L39.5,56.8965 M40.5,58.8965 L40.5,59.8965 L36.5,59.8965 L36.5,60.8965 L40.5,60.8965 L40.5,61.8965 L42.5,60.3965 L40.5,58.8965 " fill="#000000" style="stroke:;stroke-width:0.0;stroke-dasharray:;"/><rect fill="#EEEEEE" height="17.7988" rx="5" ry="5" style="stroke:#000000;stroke-width:2.5;" width="76" x="80.5" y="52.0977"/><text fill="#000000" font-family="sans-serif" font-size="12" lengthAdjust="spacing" textLength="39" x="92.5" y="65.3535">Cancel</text><path d="M139.5,56.8965 C137.29,56.8965 135.5,58.6865 135.5,60.8965 C135.5,63.1065 137.29,64.8965 139.5,64.8965 C141.71,64.8965 143.5,63.1065 143.5,60.8965 C143.5,58.6865 141.71,56.8965 139.5,56.8965 M138,58.6765 L139.5,60.1765 L141,58.6765 L141.72,59.3965 L140.22,60.8965 L141.72,62.3965 L141,63.1165 L139.5,61.6165 L138,63.1165 L137.28,62.3965 L138.78,60.8965 L137.28,59.3965 L138,58.6765 " fill="#000000" style="stroke:;stroke-width:0.0;stroke-dasharray:;"/><rect fill="#EEEEEE" height="17.7988" rx="5" ry="5" style="stroke:#000000;stroke-width:2.5;" width="92" x="168.5" y="52.0977"/><path d="M189,56.8965 L189,59.8965 L186,59.8965 L186,61.8965 L189,61.8965 L189,64.8965 L191,64.8965 L191,61.8965 L194,61.8965 L194,59.8965 L191,59.8965 L191,56.8965 L189,56.8965 " fill="#000000" style="stroke:;stroke-width:0.0;stroke-dasharray:;"/><text fill="#000000" font-family="sans-serif" font-size="12" lengthAdjust="spacing" textLength="46" x="198" y="65.3535">Register</text><!--MD5=[b88739220974bfeea20e627a78535444]
@startsalt
{
  <&person> Username    | "mmasias   "
  <&key> Password       | "********* "
  - -                    |- -|- -
  [OK <&account-login>] | [Cancel <&circle-x>]| [<&plus> Register]
}
@endsalt

PlantUML version 1.2022.7(Mon Aug 22 19:01:30 CEST 2022)
(GPL source distribution)
Java Runtime: OpenJDK Runtime Environment
JVM: OpenJDK 64-Bit Server VM
Default Encoding: UTF-8
Language: es
Country: ES
--></g></svg>