<?xml version="1.0" encoding="UTF-8" standalone="no"?><svg xmlns="http://www.w3.org/2000/svg" xmlns:xlink="http://www.w3.org/1999/xlink" contentStyleType="text/css" height="2184px" preserveAspectRatio="none" style="width:661px;height:2184px;background:#222222;" version="1.1" viewBox="0 0 661 2184" width="661px" zoomAndPan="magnify"><defs/><g><ellipse cx="420.5" cy="16" fill="#222222" rx="10" ry="10" style="stroke:none;stroke-width:1.0;"/><g id="Encontrar"><rect fill="#222222" height="86.4799" rx="12.5" ry="12.5" style="stroke:#DC143C;stroke-width:0.5;" width="205" x="318" y="86"/><line style="stroke:#DC143C;stroke-width:0.5;" x1="318" x2="523" y1="156.4799" y2="156.4799"/><text fill="#DC143C" font-family="sans-serif" font-size="20" font-weight="bold" lengthAdjust="spacing" textLength="179" x="331" y="115.38">Encontrar Actores</text><text fill="#DC143C" font-family="sans-serif" font-size="20" font-weight="bold" lengthAdjust="spacing" textLength="145" x="350.5" y="142.62">y Casos de Uso</text></g><g id="Priorizar"><rect fill="#222222" height="86.4799" rx="12.5" ry="12.5" style="stroke:#DC143C;stroke-width:0.5;" width="155" x="343" y="232"/><line style="stroke:#DC143C;stroke-width:0.5;" x1="343" x2="498" y1="302.4799" y2="302.4799"/><text fill="#DC143C" font-family="sans-serif" font-size="20" font-weight="bold" lengthAdjust="spacing" textLength="86" x="375" y="261.38">Priorizar</text><text fill="#DC143C" font-family="sans-serif" font-size="20" font-weight="bold" lengthAdjust="spacing" textLength="129" x="356" y="288.62">Casos de Uso</text></g><g id="Especificar"><rect fill="#222222" height="86.4799" rx="12.5" ry="12.5" style="stroke:#DC143C;stroke-width:0.5;" width="185" x="255" y="378"/><line style="stroke:#DC143C;stroke-width:0.5;" x1="255" x2="440" y1="448.4799" y2="448.4799"/><text fill="#DC143C" font-family="sans-serif" font-size="20" font-weight="bold" lengthAdjust="spacing" textLength="107" x="294" y="407.38">Especificar</text><text fill="#DC143C" font-family="sans-serif" font-size="20" font-weight="bold" lengthAdjust="spacing" textLength="154" x="273" y="434.62">de  Caso de Uso</text></g><g id="Prototipar"><rect fill="#222222" height="86.4799" rx="12.5" ry="12.5" style="stroke:#DC143C;stroke-width:0.5;" width="224" x="235.5" y="538"/><line style="stroke:#DC143C;stroke-width:0.5;" x1="235.5" x2="459.5" y1="608.4799" y2="608.4799"/><text fill="#DC143C" font-family="sans-serif" font-size="20" font-weight="bold" lengthAdjust="spacing" textLength="127" x="284" y="567.38">Prototipar la</text><text fill="#DC143C" font-family="sans-serif" font-size="20" font-weight="bold" lengthAdjust="spacing" textLength="193" x="253.5" y="594.62">Interfaz de Usuario</text></g><g id="Estructurar"><rect fill="#222222" height="113.7199" rx="12.5" ry="12.5" style="stroke:#DC143C;stroke-width:0.5;" width="193" x="7" y="524"/><line style="stroke:#DC143C;stroke-width:0.5;" x1="7" x2="200" y1="621.7199" y2="621.7199"/><text fill="#DC143C" font-family="sans-serif" font-size="20" font-weight="bold" lengthAdjust="spacing" textLength="114" x="44" y="553.38">Estructurar</text><text fill="#DC143C" font-family="sans-serif" font-size="20" font-weight="bold" lengthAdjust="spacing" textLength="162" x="20" y="580.62">la Especificación</text><text fill="#DC143C" font-family="sans-serif" font-size="20" font-weight="bold" lengthAdjust="spacing" textLength="159" x="24" y="607.8599">de Casos de Uso</text></g><g id="Analisis"><rect fill="#222222" height="86.4799" rx="12.5" ry="12.5" style="stroke:#FFD700;stroke-width:0.5;" width="160" x="494.5" y="538"/><line style="stroke:#FFD700;stroke-width:0.5;" x1="494.5" x2="654.5" y1="608.4799" y2="608.4799"/><text fill="#FFD700" font-family="sans-serif" font-size="20" font-weight="bold" lengthAdjust="spacing" textLength="130" x="509.5" y="567.38">Análisis de la</text><text fill="#FFD700" font-family="sans-serif" font-size="20" font-weight="bold" lengthAdjust="spacing" textLength="129" x="512.5" y="594.62">Arquitectura</text></g><g id="AnalisisCasoUso"><rect fill="#222222" height="86.4799" rx="12.5" ry="12.5" style="stroke:#FFD700;stroke-width:0.5;" width="150" x="272.5" y="698"/><line style="stroke:#FFD700;stroke-width:0.5;" x1="272.5" x2="422.5" y1="768.4799" y2="768.4799"/><text fill="#FFD700" font-family="sans-serif" font-size="20" font-weight="bold" lengthAdjust="spacing" textLength="107" x="294" y="727.38">Análisis de</text><text fill="#FFD700" font-family="sans-serif" font-size="20" font-weight="bold" lengthAdjust="spacing" textLength="119" x="290.5" y="754.62">Caso de Uso</text></g><g id="AnalisisClase"><rect fill="#222222" height="86.4799" rx="12.5" ry="12.5" style="stroke:#FFD700;stroke-width:0.5;" width="109" x="204" y="844"/><line style="stroke:#FFD700;stroke-width:0.5;" x1="204" x2="313" y1="914.4799" y2="914.4799"/><text fill="#FFD700" font-family="sans-serif" font-size="20" font-weight="bold" lengthAdjust="spacing" textLength="77" x="217.5" y="873.38">Análisis</text><text fill="#FFD700" font-family="sans-serif" font-size="20" font-weight="bold" lengthAdjust="spacing" textLength="83" x="217" y="900.62">de Clase</text></g><g id="AnalisisPaquete"><rect fill="#222222" height="86.4799" rx="12.5" ry="12.5" style="stroke:#FFD700;stroke-width:0.5;" width="140" x="184.5" y="990"/><line style="stroke:#FFD700;stroke-width:0.5;" x1="184.5" x2="324.5" y1="1060.4799" y2="1060.4799"/><text fill="#FFD700" font-family="sans-serif" font-size="20" font-weight="bold" lengthAdjust="spacing" textLength="77" x="213.5" y="1019.38">Análisis</text><text fill="#FFD700" font-family="sans-serif" font-size="20" font-weight="bold" lengthAdjust="spacing" textLength="114" x="197.5" y="1046.62">de Paquete</text></g><g id="DiseñoArquitectura"><rect fill="#222222" height="86.4799" rx="12.5" ry="12.5" style="stroke:#228B22;stroke-width:0.5;" width="160" x="475.5" y="698"/><line style="stroke:#228B22;stroke-width:0.5;" x1="475.5" x2="635.5" y1="768.4799" y2="768.4799"/><text fill="#228B22" font-family="sans-serif" font-size="20" font-weight="bold" lengthAdjust="spacing" textLength="121" x="495" y="727.38">Diseño de la</text><text fill="#228B22" font-family="sans-serif" font-size="20" font-weight="bold" lengthAdjust="spacing" textLength="129" x="493.5" y="754.62">Arquitectura</text></g><g id="DiseñoCasoUso"><rect fill="#222222" height="86.4799" rx="12.5" ry="12.5" style="stroke:#228B22;stroke-width:0.5;" width="150" x="348.5" y="844"/><line style="stroke:#228B22;stroke-width:0.5;" x1="348.5" x2="498.5" y1="914.4799" y2="914.4799"/><text fill="#228B22" font-family="sans-serif" font-size="20" font-weight="bold" lengthAdjust="spacing" textLength="98" x="374.5" y="873.38">Diseño de</text><text fill="#228B22" font-family="sans-serif" font-size="20" font-weight="bold" lengthAdjust="spacing" textLength="119" x="366.5" y="900.62">Caso de Uso</text></g><g id="DiseñoClase"><rect fill="#222222" height="86.4799" rx="12.5" ry="12.5" style="stroke:#228B22;stroke-width:0.5;" width="109" x="360" y="990"/><line style="stroke:#228B22;stroke-width:0.5;" x1="360" x2="469" y1="1060.4799" y2="1060.4799"/><text fill="#228B22" font-family="sans-serif" font-size="20" font-weight="bold" lengthAdjust="spacing" textLength="68" x="378" y="1019.38">Diseño</text><text fill="#228B22" font-family="sans-serif" font-size="20" font-weight="bold" lengthAdjust="spacing" textLength="83" x="373" y="1046.62">de Clase</text></g><g id="DiseñarSubsistema"><rect fill="#222222" height="86.4799" rx="12.5" ry="12.5" style="stroke:#228B22;stroke-width:0.5;" width="147" x="210" y="1136"/><line style="stroke:#228B22;stroke-width:0.5;" x1="210" x2="357" y1="1206.4799" y2="1206.4799"/><text fill="#228B22" font-family="sans-serif" font-size="20" font-weight="bold" lengthAdjust="spacing" textLength="77" x="245" y="1165.38">Diseñar</text><text fill="#228B22" font-family="sans-serif" font-size="20" font-weight="bold" lengthAdjust="spacing" textLength="116" x="228" y="1192.62">Subsistema</text></g><g id="ImplementarArquitectura"><rect fill="#222222" height="86.4799" rx="12.5" ry="12.5" style="stroke:#87CEEB;stroke-width:0.5;" width="183" x="464" y="1136"/><line style="stroke:#87CEEB;stroke-width:0.5;" x1="464" x2="647" y1="1206.4799" y2="1206.4799"/><text fill="#87CEEB" font-family="sans-serif" font-size="20" font-weight="bold" lengthAdjust="spacing" textLength="134" x="488.5" y="1165.38">Implementar</text><text fill="#87CEEB" font-family="sans-serif" font-size="20" font-weight="bold" lengthAdjust="spacing" textLength="152" x="482" y="1192.62">la Arquitectura</text></g><g id="IntegrarSistemas"><rect fill="#222222" height="86.4799" rx="12.5" ry="12.5" style="stroke:#87CEEB;stroke-width:0.5;" width="121" x="345" y="1282"/><line style="stroke:#87CEEB;stroke-width:0.5;" x1="345" x2="466" y1="1352.4799" y2="1352.4799"/><text fill="#87CEEB" font-family="sans-serif" font-size="20" font-weight="bold" lengthAdjust="spacing" textLength="85" x="363" y="1311.38">Integrar</text><text fill="#87CEEB" font-family="sans-serif" font-size="20" font-weight="bold" lengthAdjust="spacing" textLength="90" x="363" y="1338.62">Sistemas</text></g><g id="ImplementarSubsistema"><rect fill="#222222" height="86.4799" rx="12.5" ry="12.5" style="stroke:#87CEEB;stroke-width:0.5;" width="165" x="314" y="1428"/><line style="stroke:#87CEEB;stroke-width:0.5;" x1="314" x2="479" y1="1498.4799" y2="1498.4799"/><text fill="#87CEEB" font-family="sans-serif" font-size="20" font-weight="bold" lengthAdjust="spacing" textLength="134" x="327" y="1457.38">Implementar</text><text fill="#87CEEB" font-family="sans-serif" font-size="20" font-weight="bold" lengthAdjust="spacing" textLength="116" x="338.5" y="1484.62">Subsistema</text></g><g id="ImplementarClase"><rect fill="#222222" height="86.4799" rx="12.5" ry="12.5" style="stroke:#87CEEB;stroke-width:0.5;" width="160" x="315.5" y="1574"/><line style="stroke:#87CEEB;stroke-width:0.5;" x1="315.5" x2="475.5" y1="1644.4799" y2="1644.4799"/><text fill="#87CEEB" font-family="sans-serif" font-size="20" font-weight="bold" lengthAdjust="spacing" textLength="134" x="328.5" y="1603.38">Implementar</text><text fill="#87CEEB" font-family="sans-serif" font-size="20" font-weight="bold" lengthAdjust="spacing" textLength="53" x="371.5" y="1630.62">Clase</text></g><g id="ImplementarPruebaUnitaria"><rect fill="#222222" height="86.4799" rx="12.5" ry="12.5" style="stroke:#87CEEB;stroke-width:0.5;" width="190" x="296.5" y="1720"/><line style="stroke:#87CEEB;stroke-width:0.5;" x1="296.5" x2="486.5" y1="1790.4799" y2="1790.4799"/><text fill="#87CEEB" font-family="sans-serif" font-size="20" font-weight="bold" lengthAdjust="spacing" textLength="134" x="324.5" y="1749.38">Implementar</text><text fill="#87CEEB" font-family="sans-serif" font-size="20" font-weight="bold" lengthAdjust="spacing" textLength="159" x="314.5" y="1776.62">Prueba Unitaria</text></g><g id="PlanificarPruebas"><rect fill="#222222" height="86.4799" rx="12.5" ry="12.5" style="stroke:#1E90FF;stroke-width:0.5;" width="121" x="73" y="1282"/><line style="stroke:#1E90FF;stroke-width:0.5;" x1="73" x2="194" y1="1352.4799" y2="1352.4799"/><text fill="#1E90FF" font-family="sans-serif" font-size="20" font-weight="bold" lengthAdjust="spacing" textLength="95" x="86" y="1311.38">Planificar</text><text fill="#1E90FF" font-family="sans-serif" font-size="20" font-weight="bold" lengthAdjust="spacing" textLength="82" x="95" y="1338.62">Pruebas</text></g><g id="DiseñarPruebas"><rect fill="#222222" height="86.4799" rx="12.5" ry="12.5" style="stroke:#1E90FF;stroke-width:0.5;" width="108" x="85.5" y="1428"/><line style="stroke:#1E90FF;stroke-width:0.5;" x1="85.5" x2="193.5" y1="1498.4799" y2="1498.4799"/><text fill="#1E90FF" font-family="sans-serif" font-size="20" font-weight="bold" lengthAdjust="spacing" textLength="77" x="98.5" y="1457.38">Diseñar</text><text fill="#1E90FF" font-family="sans-serif" font-size="20" font-weight="bold" lengthAdjust="spacing" textLength="82" x="98.5" y="1484.62">pruebas</text></g><g id="ImplementarPruebas"><rect fill="#222222" height="86.4799" rx="12.5" ry="12.5" style="stroke:#1E90FF;stroke-width:0.5;" width="160" x="63.5" y="1720"/><line style="stroke:#1E90FF;stroke-width:0.5;" x1="63.5" x2="223.5" y1="1790.4799" y2="1790.4799"/><text fill="#1E90FF" font-family="sans-serif" font-size="20" font-weight="bold" lengthAdjust="spacing" textLength="134" x="76.5" y="1749.38">Implementar</text><text fill="#1E90FF" font-family="sans-serif" font-size="20" font-weight="bold" lengthAdjust="spacing" textLength="82" x="105" y="1776.62">Pruebas</text></g><g id="RealizarPruebasIntegracion"><rect fill="#222222" height="86.4799" rx="12.5" ry="12.5" style="stroke:#1E90FF;stroke-width:0.5;" width="193" x="47" y="1866"/><line style="stroke:#1E90FF;stroke-width:0.5;" x1="47" x2="240" y1="1936.4799" y2="1936.4799"/><text fill="#1E90FF" font-family="sans-serif" font-size="20" font-weight="bold" lengthAdjust="spacing" textLength="167" x="60" y="1895.38">Realizar Pruebas</text><text fill="#1E90FF" font-family="sans-serif" font-size="20" font-weight="bold" lengthAdjust="spacing" textLength="147" x="72.5" y="1922.62">de Integración</text></g><g id="RealizarPruebasSistemas"><rect fill="#222222" height="86.4799" rx="12.5" ry="12.5" style="stroke:#1E90FF;stroke-width:0.5;" width="233" x="275" y="1866"/><line style="stroke:#1E90FF;stroke-width:0.5;" x1="275" x2="508" y1="1936.4799" y2="1936.4799"/><text fill="#1E90FF" font-family="sans-serif" font-size="20" font-weight="bold" lengthAdjust="spacing" textLength="80" x="349" y="1895.38">Realizar</text><text fill="#1E90FF" font-family="sans-serif" font-size="20" font-weight="bold" lengthAdjust="spacing" textLength="207" x="288" y="1922.62">Pruebas de Sistemas</text></g><g id="EvaluarPruebas"><rect fill="#222222" height="86.4799" rx="12.5" ry="12.5" style="stroke:#1E90FF;stroke-width:0.5;" width="113" x="211" y="2012"/><line style="stroke:#1E90FF;stroke-width:0.5;" x1="211" x2="324" y1="2082.4799" y2="2082.4799"/><text fill="#1E90FF" font-family="sans-serif" font-size="20" font-weight="bold" lengthAdjust="spacing" textLength="74" x="230.5" y="2041.38">Evaluar</text><text fill="#1E90FF" font-family="sans-serif" font-size="20" font-weight="bold" lengthAdjust="spacing" textLength="82" x="229" y="2068.62">Pruebas</text></g><ellipse cx="267.5" cy="2168" fill="none" rx="10" ry="10" style="stroke:#222222;stroke-width:1.0;"/><ellipse cx="268" cy="2168.5" fill="#222222" rx="6" ry="6" style="stroke:none;stroke-width:1.0;"/><!--MD5=[66f6600a8dd82c84deeeb9ab0d076263]
link *start to Encontrar--><g id="link_*start_Encontrar"><path d="M420.5,26.08 C420.5,38.11 420.5,60.21 420.5,80.76 " fill="none" id="*start-to-Encontrar" style="stroke:#FFFFFF;stroke-width:1.0;"/><polygon fill="#FFFFFF" points="420.5,85.94,424.5,76.94,420.5,80.94,416.5,76.94,420.5,85.94" style="stroke:#FFFFFF;stroke-width:1.0;"/></g><!--MD5=[f0b9b6ef37fd831ffa8ec0481364c8e8]
link Encontrar to Priorizar--><g id="link_Encontrar_Priorizar"><path d="M420.5,172.04 C420.5,189.04 420.5,208.76 420.5,226.29 " fill="none" id="Encontrar-to-Priorizar" style="stroke:#FFFFFF;stroke-width:1.0;"/><polygon fill="#FFFFFF" points="420.5,231.66,424.5,222.66,420.5,226.66,416.5,222.66,420.5,231.66" style="stroke:#FFFFFF;stroke-width:1.0;"/></g><!--MD5=[65416444dbd4781287acad1e263d3710]
link Priorizar to Especificar--><g id="link_Priorizar_Especificar"><path d="M399.19,318.04 C390.42,335.33 380.23,355.44 371.23,373.2 " fill="none" id="Priorizar-to-Especificar" style="stroke:#FFFFFF;stroke-width:1.0;"/><polygon fill="#FFFFFF" points="368.96,377.66,376.5865,371.4281,371.2132,373.1965,369.4449,367.8231,368.96,377.66" style="stroke:#FFFFFF;stroke-width:1.0;"/></g><!--MD5=[d05bf6be015290055dfd171b8f7059d0]
link Especificar to Prototipar--><g id="link_Especificar_Prototipar"><path d="M347.5,464.34 C347.5,485.41 347.5,510.96 347.5,532.67 " fill="none" id="Especificar-to-Prototipar" style="stroke:#FFFFFF;stroke-width:1.0;"/><polygon fill="#FFFFFF" points="347.5,537.82,351.5,528.82,347.5,532.82,343.5,528.82,347.5,537.82" style="stroke:#FFFFFF;stroke-width:1.0;"/></g><!--MD5=[30256514375ded258edce183160ed134]
link Especificar to Estructurar--><g id="link_Especificar_Estructurar"><path d="M282.43,464.13 C255.52,481.56 223.85,502.07 194.68,520.95 " fill="none" id="Especificar-to-Estructurar" style="stroke:#FFFFFF;stroke-width:1.0;"/><polygon fill="#FFFFFF" points="190.4,523.73,200.13,522.2045,194.5994,521.0161,195.7878,515.4855,190.4,523.73" style="stroke:#FFFFFF;stroke-width:1.0;"/></g><!--MD5=[d9de426964b05d593f0071dee595ba14]
link Priorizar to Analisis--><g id="link_Priorizar_Analisis"><path d="M441.91,318.27 C470.51,374.72 521,474.39 550.74,533.1 " fill="none" id="Priorizar-to-Analisis" style="stroke:#FFFFFF;stroke-width:1.0;"/><polygon fill="#FFFFFF" points="553.02,537.6,552.5225,527.7637,550.7611,533.1394,545.3854,531.378,553.02,537.6" style="stroke:#FFFFFF;stroke-width:1.0;"/></g><!--MD5=[d57a1cc1e50da965c833e31b1c10520a]
link Analisis to AnalisisCasoUso--><g id="link_Analisis_AnalisisCasoUso"><path d="M513.97,624.13 C482.54,646.01 444.14,672.74 412.14,695.01 " fill="none" id="Analisis-to-AnalisisCasoUso" style="stroke:#FFFFFF;stroke-width:1.0;"/><polygon fill="#FFFFFF" points="407.86,697.98,417.5309,696.1161,411.9622,695.1213,412.957,689.5526,407.86,697.98" style="stroke:#FFFFFF;stroke-width:1.0;"/></g><!--MD5=[4b510b05b5b48b52af551661be6a374c]
link Prototipar to AnalisisCasoUso--><g id="link_Prototipar_AnalisisCasoUso"><path d="M347.5,624.34 C347.5,645.41 347.5,670.96 347.5,692.67 " fill="none" id="Prototipar-to-AnalisisCasoUso" style="stroke:#FFFFFF;stroke-width:1.0;"/><polygon fill="#FFFFFF" points="347.5,697.82,351.5,688.82,347.5,692.82,343.5,688.82,347.5,697.82" style="stroke:#FFFFFF;stroke-width:1.0;"/></g><!--MD5=[5c340dd97cdc724591f9654d0f90c340]
link Estructurar to AnalisisCasoUso--><g id="link_Estructurar_AnalisisCasoUso"><path d="M190.21,638.15 C219.08,656.84 250.83,677.4 278.19,695.12 " fill="none" id="Estructurar-to-AnalisisCasoUso" style="stroke:#FFFFFF;stroke-width:1.0;"/><polygon fill="#FFFFFF" points="282.55,697.94,277.1622,689.6955,278.3506,695.2261,272.82,696.4145,282.55,697.94" style="stroke:#FFFFFF;stroke-width:1.0;"/></g><!--MD5=[1cc530a294578e4a0931472416800c59]
link Estructurar to PlanificarPruebas--><g id="link_Estructurar_PlanificarPruebas"><path d="M109.12,638.24 C114.73,699.21 122.5,799.41 122.5,886 C122.5,886 122.5,886 122.5,1034 C122.5,1119.59 127.34,1219.28 130.6,1276.68 " fill="none" id="Estructurar-to-PlanificarPruebas" style="stroke:#FFFFFF;stroke-width:1.0;"/><polygon fill="#FFFFFF" points="130.89,1281.76,134.3685,1272.5459,130.6039,1276.7682,126.3816,1273.0036,130.89,1281.76" style="stroke:#FFFFFF;stroke-width:1.0;"/></g><!--MD5=[99fe193ea8f8247982286ee39d362b02]
link Analisis to DiseñoArquitectura--><g id="link_Analisis_DiseñoArquitectura"><path d="M569.41,624.34 C566.87,645.41 563.8,670.96 561.19,692.67 " fill="none" id="Analisis-to-DiseñoArquitectura" style="stroke:#FFFFFF;stroke-width:1.0;"/><polygon fill="#FFFFFF" points="560.57,697.82,565.6196,689.3641,561.1691,692.856,557.6772,688.4056,560.57,697.82" style="stroke:#FFFFFF;stroke-width:1.0;"/></g><!--MD5=[0ebbe9f9fc7d2e0479cf553f04ed1cb0]
link DiseñoArquitectura to DiseñoCasoUso--><g id="link_DiseñoArquitectura_DiseñoCasoUso"><path d="M516.97,784.04 C500.98,801.48 482.37,821.78 465.99,839.65 " fill="none" id="DiseñoArquitectura-to-DiseñoCasoUso" style="stroke:#FFFFFF;stroke-width:1.0;"/><polygon fill="#FFFFFF" points="462.31,843.66,471.3443,839.738,465.6925,839.9778,465.4527,834.326,462.31,843.66" style="stroke:#FFFFFF;stroke-width:1.0;"/></g><!--MD5=[a144ac62d7970b76873b924013a176a5]
link AnalisisCasoUso to DiseñoCasoUso--><g id="link_AnalisisCasoUso_DiseñoCasoUso"><path d="M369.69,784.04 C378.81,801.33 389.42,821.44 398.8,839.2 " fill="none" id="AnalisisCasoUso-to-DiseñoCasoUso" style="stroke:#FFFFFF;stroke-width:1.0;"/><polygon fill="#FFFFFF" points="401.15,843.66,400.4771,833.8342,398.8119,839.2404,393.4057,837.5752,401.15,843.66" style="stroke:#FFFFFF;stroke-width:1.0;"/></g><!--MD5=[efe8620abf9313619d3a9ea2a0cfaf9d]
link AnalisisCasoUso to AnalisisClase--><g id="link_AnalisisCasoUso_AnalisisClase"><path d="M321.52,784.04 C310.83,801.33 298.4,821.44 287.43,839.2 " fill="none" id="AnalisisCasoUso-to-AnalisisClase" style="stroke:#FFFFFF;stroke-width:1.0;"/><polygon fill="#FFFFFF" points="284.67,843.66,292.8018,838.1036,287.2969,839.4056,285.9948,833.9007,284.67,843.66" style="stroke:#FFFFFF;stroke-width:1.0;"/></g><!--MD5=[ecf5a7afa366972bf370ed032277acde]
link DiseñoCasoUso to DiseñoClase--><g id="link_DiseñoCasoUso_DiseñoClase"><path d="M420.87,930.04 C419.81,947.04 418.58,966.76 417.48,984.29 " fill="none" id="DiseñoCasoUso-to-DiseñoClase" style="stroke:#FFFFFF;stroke-width:1.0;"/><polygon fill="#FFFFFF" points="417.15,989.66,421.7083,980.9295,417.4646,984.6699,413.7241,980.4262,417.15,989.66" style="stroke:#FFFFFF;stroke-width:1.0;"/></g><!--MD5=[ff213ff8a41c94e966a821894244f17e]
link AnalisisClase to DiseñoClase--><g id="link_AnalisisClase_DiseñoClase"><path d="M304.04,930.04 C323.18,947.7 345.49,968.3 365.03,986.34 " fill="none" id="AnalisisClase-to-DiseñoClase" style="stroke:#FFFFFF;stroke-width:1.0;"/><polygon fill="#FFFFFF" points="368.9,989.91,365.0145,980.86,365.2315,986.5127,359.5788,986.7296,368.9,989.91" style="stroke:#FFFFFF;stroke-width:1.0;"/></g><!--MD5=[01258bdf985c2542566a3fe7750e6b8a]
link AnalisisClase to AnalisisPaquete--><g id="link_AnalisisClase_AnalisisPaquete"><path d="M257.33,930.04 C256.86,947.04 256.31,966.76 255.83,984.29 " fill="none" id="AnalisisClase-to-AnalisisPaquete" style="stroke:#FFFFFF;stroke-width:1.0;"/><polygon fill="#FFFFFF" points="255.68,989.66,259.9361,980.7783,255.8232,984.6621,251.9394,980.5491,255.68,989.66" style="stroke:#FFFFFF;stroke-width:1.0;"/></g><!--MD5=[6f30f6002993c06c0a9519d0fa0b39c5]
link DiseñoArquitectura to ImplementarArquitectura--><g id="link_DiseñoArquitectura_ImplementarArquitectura"><path d="M555.5,784.2 C555.5,865.84 555.5,1044.87 555.5,1130.52 " fill="none" id="DiseñoArquitectura-to-ImplementarArquitectura" style="stroke:#FFFFFF;stroke-width:1.0;"/><polygon fill="#FFFFFF" points="555.5,1135.78,559.5,1126.78,555.5,1130.78,551.5,1126.78,555.5,1135.78" style="stroke:#FFFFFF;stroke-width:1.0;"/></g><!--MD5=[9df39b9966ba4ab6415274b36745a668]
link ImplementarArquitectura to IntegrarSistemas--><g id="link_ImplementarArquitectura_IntegrarSistemas"><path d="M511.71,1222.04 C493.31,1239.7 471.85,1260.3 453.06,1278.34 " fill="none" id="ImplementarArquitectura-to-IntegrarSistemas" style="stroke:#FFFFFF;stroke-width:1.0;"/><polygon fill="#FFFFFF" points="449.34,1281.91,458.6087,1278.5796,452.9532,1278.4539,453.0789,1272.7984,449.34,1281.91" style="stroke:#FFFFFF;stroke-width:1.0;"/></g><!--MD5=[74bc9cd89e511f6703118a49bee4ad01]
link DiseñoClase to DiseñarSubsistema--><g id="link_DiseñoClase_DiseñarSubsistema"><path d="M376.26,1076.04 C360.39,1093.48 341.92,1113.78 325.67,1131.65 " fill="none" id="DiseñoClase-to-DiseñarSubsistema" style="stroke:#FFFFFF;stroke-width:1.0;"/><polygon fill="#FFFFFF" points="322.02,1135.66,331.0384,1131.7016,325.3876,1131.9642,325.1251,1126.3134,322.02,1135.66" style="stroke:#FFFFFF;stroke-width:1.0;"/></g><!--MD5=[1b563d09eed1264e6642f8249acc1ebe]
link DiseñoClase to IntegrarSistemas--><g id="link_DiseñoClase_IntegrarSistemas"><path d="M413.19,1076.17 C411.54,1129.43 408.7,1220.84 406.97,1276.51 " fill="none" id="DiseñoClase-to-IntegrarSistemas" style="stroke:#FFFFFF;stroke-width:1.0;"/><polygon fill="#FFFFFF" points="406.81,1281.78,411.0915,1272.9105,406.9675,1276.7825,403.0955,1272.6585,406.81,1281.78" style="stroke:#FFFFFF;stroke-width:1.0;"/></g><!--MD5=[946c778ce79ace5616e602e0ceb9fd43]
link AnalisisPaquete to DiseñarSubsistema--><g id="link_AnalisisPaquete_DiseñarSubsistema"><path d="M262.97,1076.04 C266.42,1093.19 270.43,1113.1 273.98,1130.75 " fill="none" id="AnalisisPaquete-to-DiseñarSubsistema" style="stroke:#FFFFFF;stroke-width:1.0;"/><polygon fill="#FFFFFF" points="274.97,1135.66,277.1165,1126.0479,273.9839,1130.7582,269.2736,1127.6256,274.97,1135.66" style="stroke:#FFFFFF;stroke-width:1.0;"/></g><!--MD5=[45b24eb959ec5e1e8aae0c118aa2e6c0]
link PlanificarPruebas to DiseñarPruebas--><g id="link_PlanificarPruebas_DiseñarPruebas"><path d="M135.25,1368.04 C135.96,1385.04 136.78,1404.76 137.51,1422.29 " fill="none" id="PlanificarPruebas-to-DiseñarPruebas" style="stroke:#FFFFFF;stroke-width:1.0;"/><polygon fill="#FFFFFF" points="137.74,1427.66,141.351,1418.497,137.5259,1422.6646,133.3583,1418.8395,137.74,1427.66" style="stroke:#FFFFFF;stroke-width:1.0;"/></g><!--MD5=[7d39f004f3c67a7ec331f4060068fbe9]
link DiseñarSubsistema to IntegrarSistemas--><g id="link_DiseñarSubsistema_IntegrarSistemas"><path d="M319.12,1222.04 C333.89,1239.48 351.09,1259.78 366.23,1277.65 " fill="none" id="DiseñarSubsistema-to-IntegrarSistemas" style="stroke:#FFFFFF;stroke-width:1.0;"/><polygon fill="#FFFFFF" points="369.63,1281.66,366.8479,1272.2123,366.3913,1277.8507,360.7529,1277.3941,369.63,1281.66" style="stroke:#FFFFFF;stroke-width:1.0;"/></g><!--MD5=[3170183390290ce24cb9ffec0c63d567]
link IntegrarSistemas to ImplementarSubsistema--><g id="link_IntegrarSistemas_ImplementarSubsistema"><path d="M402.87,1368.04 C401.81,1385.04 400.58,1404.76 399.48,1422.29 " fill="none" id="IntegrarSistemas-to-ImplementarSubsistema" style="stroke:#FFFFFF;stroke-width:1.0;"/><polygon fill="#FFFFFF" points="399.15,1427.66,403.7083,1418.9295,399.4646,1422.6699,395.7241,1418.4262,399.15,1427.66" style="stroke:#FFFFFF;stroke-width:1.0;"/></g><!--MD5=[2d659f06deb83bee524d8a336586f786]
link ImplementarSubsistema to ImplementarClase--><g id="link_ImplementarSubsistema_ImplementarClase"><path d="M396.21,1514.04 C396.09,1531.04 395.95,1550.76 395.83,1568.29 " fill="none" id="ImplementarSubsistema-to-ImplementarClase" style="stroke:#FFFFFF;stroke-width:1.0;"/><polygon fill="#FFFFFF" points="395.79,1573.66,399.8414,1564.683,395.8186,1568.6601,391.8415,1564.6373,395.79,1573.66" style="stroke:#FFFFFF;stroke-width:1.0;"/></g><!--MD5=[c8d507ffa23fde56378ab7056c39cbbc]
link ImplementarClase to ImplementarPruebaUnitaria--><g id="link_ImplementarClase_ImplementarPruebaUnitaria"><path d="M394.33,1660.04 C393.86,1677.04 393.31,1696.76 392.83,1714.29 " fill="none" id="ImplementarClase-to-ImplementarPruebaUnitaria" style="stroke:#FFFFFF;stroke-width:1.0;"/><polygon fill="#FFFFFF" points="392.68,1719.66,396.9361,1710.7783,392.8232,1714.6621,388.9394,1710.5491,392.68,1719.66" style="stroke:#FFFFFF;stroke-width:1.0;"/></g><!--MD5=[afe7141fcf2beb587abe6490f5a88d68]
link ImplementarPruebaUnitaria to RealizarPruebasIntegracion--><g id="link_ImplementarPruebaUnitaria_RealizarPruebasIntegracion"><path d="M319.1,1806.04 C288.17,1824 252.02,1844.99 220.59,1863.24 " fill="none" id="ImplementarPruebaUnitaria-to-RealizarPruebasIntegracion" style="stroke:#FFFFFF;stroke-width:1.0;"/><polygon fill="#FFFFFF" points="215.99,1865.91,225.7799,1864.8343,220.3099,1863.3924,221.7518,1857.9224,215.99,1865.91" style="stroke:#FFFFFF;stroke-width:1.0;"/></g><!--MD5=[47cf6f6d5363d8a382aeb11ac14d188b]
link ImplementarPruebaUnitaria to RealizarPruebasSistemas--><g id="link_ImplementarPruebaUnitaria_RealizarPruebasSistemas"><path d="M391.5,1806.04 C391.5,1823.04 391.5,1842.76 391.5,1860.29 " fill="none" id="ImplementarPruebaUnitaria-to-RealizarPruebasSistemas" style="stroke:#FFFFFF;stroke-width:1.0;"/><polygon fill="#FFFFFF" points="391.5,1865.66,395.5,1856.66,391.5,1860.66,387.5,1856.66,391.5,1865.66" style="stroke:#FFFFFF;stroke-width:1.0;"/></g><!--MD5=[f3e1ba24f39bc9964e2c5ee12bc6f7ea]
link DiseñarPruebas to ImplementarPruebas--><g id="link_DiseñarPruebas_ImplementarPruebas"><path d="M140.08,1514.17 C140.82,1567.43 142.08,1658.84 142.84,1714.51 " fill="none" id="DiseñarPruebas-to-ImplementarPruebas" style="stroke:#FFFFFF;stroke-width:1.0;"/><polygon fill="#FFFFFF" points="142.92,1719.78,146.791,1710.7238,142.8486,1714.7805,138.7918,1710.8381,142.92,1719.78" style="stroke:#FFFFFF;stroke-width:1.0;"/></g><!--MD5=[824dd8cba5ad42f79e63b8b699bbd55e]
link ImplementarPruebas to RealizarPruebasSistemas--><g id="link_ImplementarPruebas_RealizarPruebasSistemas"><path d="M215.9,1806.04 C246.83,1824 282.98,1844.99 314.41,1863.24 " fill="none" id="ImplementarPruebas-to-RealizarPruebasSistemas" style="stroke:#FFFFFF;stroke-width:1.0;"/><polygon fill="#FFFFFF" points="319.01,1865.91,313.2482,1857.9224,314.6901,1863.3924,309.2201,1864.8343,319.01,1865.91" style="stroke:#FFFFFF;stroke-width:1.0;"/></g><!--MD5=[bf8e78cdb1bdadf47f843c9c2df479d2]
link ImplementarPruebas to RealizarPruebasIntegracion--><g id="link_ImplementarPruebas_RealizarPruebasIntegracion"><path d="M143.5,1806.04 C143.5,1823.04 143.5,1842.76 143.5,1860.29 " fill="none" id="ImplementarPruebas-to-RealizarPruebasIntegracion" style="stroke:#FFFFFF;stroke-width:1.0;"/><polygon fill="#FFFFFF" points="143.5,1865.66,147.5,1856.66,143.5,1860.66,139.5,1856.66,143.5,1865.66" style="stroke:#FFFFFF;stroke-width:1.0;"/></g><!--MD5=[45fa63ede3c273e4df9f32d922b09589]
link RealizarPruebasIntegracion to EvaluarPruebas--><g id="link_RealizarPruebasIntegracion_EvaluarPruebas"><path d="M179.7,1952.04 C194.72,1969.48 212.2,1989.78 227.59,2007.65 " fill="none" id="RealizarPruebasIntegracion-to-EvaluarPruebas" style="stroke:#FFFFFF;stroke-width:1.0;"/><polygon fill="#FFFFFF" points="231.04,2011.66,228.2023,2002.2288,227.779,2007.8698,222.138,2007.4464,231.04,2011.66" style="stroke:#FFFFFF;stroke-width:1.0;"/></g><!--MD5=[f2fe61f01e3028e23804596be34cb922]
link RealizarPruebasSistemas to EvaluarPruebas--><g id="link_RealizarPruebasSistemas_EvaluarPruebas"><path d="M355.3,1952.04 C340.28,1969.48 322.8,1989.78 307.41,2007.65 " fill="none" id="RealizarPruebasSistemas-to-EvaluarPruebas" style="stroke:#FFFFFF;stroke-width:1.0;"/><polygon fill="#FFFFFF" points="303.96,2011.66,312.862,2007.4464,307.221,2007.8698,306.7977,2002.2288,303.96,2011.66" style="stroke:#FFFFFF;stroke-width:1.0;"/></g><!--MD5=[f05b9c4785bc913be599bc3fdeadbf46]
link EvaluarPruebas to *end--><g id="link_EvaluarPruebas_*end"><path d="M267.5,2098.28 C267.5,2117.54 267.5,2139.04 267.5,2152.79 " fill="none" id="EvaluarPruebas-to-*end" style="stroke:#FFFFFF;stroke-width:1.0;"/><polygon fill="#FFFFFF" points="267.5,2157.82,271.5,2148.82,267.5,2152.82,263.5,2148.82,267.5,2157.82" style="stroke:#FFFFFF;stroke-width:1.0;"/></g><!--MD5=[0bfd27e5411bc2d486a9515da5909031]
@startuml
skinparam ActivityBarColor #White
skinparam titleBackgroundColor #222222
skinparam shadowing false
skinparam backgroundColor #222222
skinparam padding 3
skinparam StateStartColor #White
skinparam StateEndColor #White
hide stereotype
skinparam state {
    fontColor #White
    fontColor<<a>> #DC143C
    fontColor<<b>> #FFD700
    fontColor<<c>> #228B22
    fontColor<<d>> #87ceeb
    fontColor<<e>> #1E90FF
    fontStyle bold
    arrowColor #White
    backgroundColor #222222
    borderColor #White
    borderColor<<a>> #DC143C
    borderColor<<b>> #FFD700
    borderColor<<c>> #228B22
    borderColor<<d>> #87ceeb
    borderColor<<e>> #1E90FF
    circleCharacterFontName #White
    fontSize 20
    DiamondBackgroundColor #White
    DiamondBorderColor #White
}

[*] - -> Encontrar
state "Encontrar Actores\n y Casos de Uso" as Encontrar <<a>>
state "Priorizar \nCasos de Uso" as Priorizar <<a>>
state "Especificar\n de  Caso de Uso" as Especificar <<a>>
state "Prototipar la\n Interfaz de Usuario" as Prototipar <<a>>
state "Estructurar \nla Especificación \nde Casos de Uso" as Estructurar <<a>>
state "Análisis de la\n Arquitectura" as Analisis <<b>>
state "Análisis de\n Caso de Uso" as AnalisisCasoUso <<b>>
state "Análisis \nde Clase" as AnalisisClase <<b>>
state "Análisis \nde Paquete" as AnalisisPaquete <<b>>
state "Diseño de la\n Arquitectura" as DiseñoArquitectura <<c>>
state "Diseño de\n Caso de Uso" as DiseñoCasoUso <<c>>
state "Diseño \nde Clase" as DiseñoClase <<c>>
state "Diseñar\n Subsistema" as DiseñarSubsistema <<c>>
state "Implementar\n la Arquitectura" as ImplementarArquitectura <<d>>
state "Integrar\n Sistemas" as IntegrarSistemas <<d>>
state "Implementar \nSubsistema" as ImplementarSubsistema <<d>>
state "Implementar\n Clase" as ImplementarClase <<d>>
state "Implementar\n Prueba Unitaria" as ImplementarPruebaUnitaria <<d>>
state "Planificar\n Pruebas" as PlanificarPruebas <<e>>
state "Diseñar \npruebas" as DiseñarPruebas <<e>>
state "Implementar\n Pruebas" as ImplementarPruebas <<e>>
state "Realizar Pruebas\n de Integración" as RealizarPruebasIntegracion <<e>>
state "Realizar \nPruebas de Sistemas" as RealizarPruebasSistemas <<e>>
state "Evaluar\n Pruebas" as EvaluarPruebas <<e>>

Encontrar - -> Priorizar
Priorizar - -> Especificar
Especificar - -> Prototipar
Especificar - -> Estructurar
Priorizar - -> Analisis
Analisis - -> AnalisisCasoUso
Prototipar - -> AnalisisCasoUso
Estructurar - -> AnalisisCasoUso
Estructurar - -> PlanificarPruebas
Analisis - -> DiseñoArquitectura
DiseñoArquitectura - -> DiseñoCasoUso
AnalisisCasoUso - -> DiseñoCasoUso
AnalisisCasoUso - -> AnalisisClase
DiseñoCasoUso - -> DiseñoClase
AnalisisClase - -> DiseñoClase
AnalisisClase - -> AnalisisPaquete
DiseñoArquitectura - -> ImplementarArquitectura
ImplementarArquitectura - -> IntegrarSistemas
DiseñoClase - -> DiseñarSubsistema
DiseñoClase - -> IntegrarSistemas
AnalisisPaquete - -> DiseñarSubsistema
PlanificarPruebas - -> DiseñarPruebas
DiseñarSubsistema - -> IntegrarSistemas
IntegrarSistemas - ->ImplementarSubsistema
ImplementarSubsistema - -> ImplementarClase
ImplementarClase - -> ImplementarPruebaUnitaria
ImplementarPruebaUnitaria - -> RealizarPruebasIntegracion
ImplementarPruebaUnitaria - -> RealizarPruebasSistemas
DiseñarPruebas - -> ImplementarPruebas
ImplementarPruebas - -> RealizarPruebasSistemas
ImplementarPruebas - -> RealizarPruebasIntegracion
RealizarPruebasIntegracion - -> EvaluarPruebas
RealizarPruebasSistemas - -> EvaluarPruebas
EvaluarPruebas   - -> [*]
@enduml

PlantUML version 1.2022.7(Mon Aug 22 19:01:30 CEST 2022)
(GPL source distribution)
Java Runtime: OpenJDK Runtime Environment
JVM: OpenJDK 64-Bit Server VM
Default Encoding: UTF-8
Language: es
Country: ES
--></g></svg>