<?xml version="1.0" encoding="us-ascii" standalone="no"?><svg xmlns="http://www.w3.org/2000/svg" xmlns:xlink="http://www.w3.org/1999/xlink" contentStyleType="text/css" height="447px" preserveAspectRatio="none" style="width:621px;height:447px;background:#FFFFFF;" version="1.1" viewBox="0 0 621 447" width="621px" zoomAndPan="magnify"><defs/><g><path d="M19.5,7 L595.5,7 A12.5,12.5 0 0 1 608,19.5 L608,36.0679 L7,36.0679 L7,19.5 A12.5,12.5 0 0 1 19.5,7 " fill="#F1F1F1" style="stroke:#F1F1F1;stroke-width:1.0;"/><rect fill="none" height="434.0679" rx="12.5" ry="12.5" style="stroke:#181818;stroke-width:0.5;" width="601" x="7" y="7"/><line style="stroke:#181818;stroke-width:0.5;" x1="7" x2="608" y1="36.0679" y2="36.0679"/><text fill="#000000" font-family="sans-serif" font-size="14" lengthAdjust="spacing" textLength="205" x="205" y="26.9659">guardarCambiosDePrograma()</text><g id="guardarCambiosDePrograma.ValidandoDatos"><rect fill="#F1F1F1" height="50" rx="12.5" ry="12.5" style="stroke:#181818;stroke-width:0.5;" width="50" x="174" y="140.0679"/><line style="stroke:#181818;stroke-width:0.5;" x1="174" x2="224" y1="169.1358" y2="169.1358"/><text fill="#000000" font-family="sans-serif" font-size="14" lengthAdjust="spacing" textLength="4" x="197" y="160.0339">&#160;</text></g><g id="guardarCambiosDePrograma.PersistiendoDatos"><rect fill="#F1F1F1" height="50" rx="12.5" ry="12.5" style="stroke:#181818;stroke-width:0.5;" width="50" x="71" y="265.5679"/><line style="stroke:#181818;stroke-width:0.5;" x1="71" x2="121" y1="294.6358" y2="294.6358"/><text fill="#000000" font-family="sans-serif" font-size="14" lengthAdjust="spacing" textLength="4" x="94" y="285.5339">&#160;</text></g><ellipse cx="199" cy="57.0679" fill="#222222" rx="10" ry="10" style="stroke:#222222;stroke-width:1.0;"/><ellipse cx="159" cy="420.0679" fill="none" rx="11" ry="11" style="stroke:#222222;stroke-width:1.0;"/><ellipse cx="159" cy="420.0679" fill="#222222" rx="6" ry="6" style="stroke:#222222;stroke-width:1.0;"/><!--link *start*guardarCambiosDePrograma to ValidandoDatos--><g id="link_*start*guardarCambiosDePrograma_ValidandoDatos"><path d="M199,67.1079 C199,83.0279 199,110.5779 199,133.7079 " fill="none" id="*start*guardarCambiosDePrograma-to-ValidandoDatos" style="stroke:#008000;stroke-width:1.0;"/><polygon fill="#008000" points="199,139.7079,203,130.7079,199,134.7079,195,130.7079,199,139.7079" style="stroke:#008000;stroke-width:1.0;"/><path d="M204,90.0679 L204,117.0679 L599,117.0679 L599,100.0679 L589,90.0679 L204,90.0679 " fill="#FEFFDD" style="stroke:#181818;stroke-width:0.5;"/><path d="M589,90.0679 L589,100.0679 L599,100.0679 L589,90.0679 " fill="#FEFFDD" style="stroke:#181818;stroke-width:0.5;"/><text fill="#000000" font-family="sans-serif" font-size="13" font-weight="bold" lengthAdjust="spacing" textLength="145" x="210" y="108.9649">Caso de Uso Invocador</text><text fill="#000000" font-family="sans-serif" font-size="13" lengthAdjust="spacing" textLength="226" x="358" y="108.9649">solicita guardar cambios de programa</text></g><!--link ValidandoDatos to PersistiendoDatos--><g id="link_ValidandoDatos_PersistiendoDatos"><path d="M178.9,190.1779 C160.75,211.9379 138.033,239.1702 119.893,260.9202 " fill="none" id="ValidandoDatos-to-PersistiendoDatos" style="stroke:#008000;stroke-width:1.0;"/><polygon fill="#008000" points="116.05,265.5279,124.8863,261.1783,119.2525,261.6881,118.7426,256.0543,116.05,265.5279" style="stroke:#008000;stroke-width:1.0;"/><path d="M168,213.0679 L168,240.0679 L269,240.0679 L269,223.0679 L259,213.0679 L168,213.0679 " fill="#FEFFDD" style="stroke:#181818;stroke-width:0.5;"/><path d="M259,213.0679 L259,223.0679 L269,223.0679 L259,213.0679 " fill="#FEFFDD" style="stroke:#181818;stroke-width:0.5;"/><text fill="#000000" font-family="sans-serif" font-size="13" lengthAdjust="spacing" textLength="80" x="174" y="231.9649">Datos v&#225;lidos</text></g><!--link ValidandoDatos to *end*guardarCambiosDePrograma--><g id="link_ValidandoDatos_*end*guardarCambiosDePrograma"><path d="M224.43,179.5879 C247.53,191.8679 278,208.0679 278,208.0679 C278,208.0679 288,336.0679 288,336.0679 C288,336.0679 288,391.0679 288,391.0679 C288,391.0679 206.2334,408.8148 175.4234,415.5048 " fill="none" id="ValidandoDatos-to-*end*guardarCambiosDePrograma" style="stroke:#FF0000;stroke-width:1.0;"/><polygon fill="#FF0000" points="169.56,416.7779,179.2038,418.7771,174.4461,415.717,177.5063,410.9593,169.56,416.7779" style="stroke:#FF0000;stroke-width:1.0;"/><path d="M291,268.0679 L291,313.0679 L526,313.0679 L526,278.0679 L516,268.0679 L291,268.0679 " fill="#FEFFDD" style="stroke:#181818;stroke-width:0.5;"/><path d="M516,268.0679 L516,278.0679 L526,278.0679 L516,268.0679 " fill="#FEFFDD" style="stroke:#181818;stroke-width:0.5;"/><text fill="#000000" font-family="sans-serif" font-size="13" lengthAdjust="spacing" textLength="91" x="297" y="286.9649">Datos inv&#225;lidos</text><text fill="#000000" font-family="sans-serif" font-size="13" font-weight="bold" lengthAdjust="spacing" textLength="52" x="297" y="304.6709">Sistema</text><text fill="#000000" font-family="sans-serif" font-size="13" lengthAdjust="spacing" textLength="159" x="352" y="304.6709">retorna error de validaci&#243;n</text></g><!--link PersistiendoDatos to *end*guardarCambiosDePrograma--><g id="link_PersistiendoDatos_*end*guardarCambiosDePrograma"><path d="M70.89,305.8979 C48.09,318.8979 18,336.0679 18,336.0679 C18,336.0679 18,391.0679 18,391.0679 C18,391.0679 109.7252,409.2778 142.5152,415.7978 " fill="none" id="PersistiendoDatos-to-*end*guardarCambiosDePrograma" style="stroke:#008000;stroke-width:1.0;"/><polygon fill="#008000" points="148.4,416.9679,140.3529,411.2895,143.496,415.9928,138.7927,419.1359,148.4,416.9679" style="stroke:#008000;stroke-width:1.0;"/><path d="M23,341.0679 L23,386.0679 L283,386.0679 L283,351.0679 L273,341.0679 L23,341.0679 " fill="#FEFFDD" style="stroke:#181818;stroke-width:0.5;"/><path d="M273,341.0679 L273,351.0679 L283,351.0679 L273,341.0679 " fill="#FEFFDD" style="stroke:#181818;stroke-width:0.5;"/><text fill="#000000" font-family="sans-serif" font-size="13" font-weight="bold" lengthAdjust="spacing" textLength="52" x="29" y="359.9649">Sistema</text><text fill="#000000" font-family="sans-serif" font-size="13" lengthAdjust="spacing" textLength="184" x="84" y="359.9649">guarda los datos del programa</text><text fill="#000000" font-family="sans-serif" font-size="13" font-weight="bold" lengthAdjust="spacing" textLength="52" x="29" y="377.6709">Sistema</text><text fill="#000000" font-family="sans-serif" font-size="13" lengthAdjust="spacing" textLength="78" x="84" y="377.6709">retorna &#233;xito</text></g><!--SRC=[XP2nJiCm48RtFCMfB81KyG9LbdPXguHWgJfSubDarV55PnDH8Hw6aPb7o8jXEmN9905xi6pV_V_tdpjfsw5W2qPRykUEe6DpZfUYS1uzGVECeb2ss5QQtOxsmareG407gwNFwviLl1O5X3MghC8E3Kzej4AhU8UUtVH_J-Aqyvf-IbBDuVO8wyDL8qJsk2xdP2m75ROnnoazRAfoYuv14Jo6uzxsNADYsTnL9JWskjOUlzD1FIQ8rTqbGr8984bwvCXzCwGf-IpLsDWFxq7eKlEVXP2A1c46Vqbgcuc6z0y1XrfCUOKyYqKW4POOiaysjHu-xGp494mMTP7ab-auMp1nh4b4aScdkq0vVBneppdNM_45]--></g></svg>