<?xml version="1.0" encoding="us-ascii" standalone="no"?><svg xmlns="http://www.w3.org/2000/svg" xmlns:xlink="http://www.w3.org/1999/xlink" contentStyleType="text/css" height="395px" preserveAspectRatio="none" style="width:224px;height:395px;background:#FFFFFF;" version="1.1" viewBox="0 0 224 395" width="224px" zoomAndPan="magnify"><defs/><g><ellipse cx="112" cy="20" fill="#222222" rx="10" ry="10" style="stroke:#222222;stroke-width:1.0;"/><rect fill="#F1F1F1" height="36.3441" rx="12.5" ry="12.5" style="stroke:#181818;stroke-width:0.5;" width="100" x="62" y="50"/><text fill="#000000" font-family="sans-serif" font-size="12" lengthAdjust="spacing" textLength="80" x="72" y="72.8281">Inicializar i = 0</text><rect fill="#F1F1F1" height="36.3441" rx="12.5" ry="12.5" style="stroke:#181818;stroke-width:0.5;" width="37" x="93.5" y="163.603"/><text fill="#000000" font-family="sans-serif" font-size="12" lengthAdjust="spacing" textLength="17" x="103.5" y="186.4311">i++</text><polygon fill="#F1F1F1" points="52.5,106.3441,171.5,106.3441,183.5,118.3441,171.5,130.3441,52.5,130.3441,40.5,118.3441,52.5,106.3441" style="stroke:#181818;stroke-width:0.5;"/><text fill="#000000" font-family="sans-serif" font-size="11" lengthAdjust="spacing" textLength="8" x="116" y="142.103">s&#237;</text><text fill="#000000" font-family="sans-serif" font-size="11" lengthAdjust="spacing" textLength="119" x="52.5" y="122.6121">i &lt; t.length &amp;&amp; t[i] != k?</text><text fill="#000000" font-family="sans-serif" font-size="11" lengthAdjust="spacing" textLength="14" x="26.5" y="115.1211">no</text><polygon fill="#F1F1F1" points="51,241.9471,173,241.9471,185,253.9471,173,265.9471,51,265.9471,39,253.9471,51,241.9471" style="stroke:#181818;stroke-width:0.5;"/><text fill="#000000" font-family="sans-serif" font-size="11" lengthAdjust="spacing" textLength="122" x="51" y="258.2151">i &lt; t.length &amp;&amp; t[i] == k?</text><text fill="#000000" font-family="sans-serif" font-size="11" lengthAdjust="spacing" textLength="8" x="31" y="250.7242">s&#237;</text><text fill="#000000" font-family="sans-serif" font-size="11" lengthAdjust="spacing" textLength="14" x="185" y="250.7242">no</text><rect fill="#F1F1F1" height="36.3441" rx="12.5" ry="12.5" style="stroke:#181818;stroke-width:0.5;" width="36" x="11" y="275.9471"/><text fill="#000000" font-family="sans-serif" font-size="12" lengthAdjust="spacing" textLength="16" x="21" y="298.7752">A()</text><rect fill="#F1F1F1" height="36.3441" rx="12.5" ry="12.5" style="stroke:#181818;stroke-width:0.5;" width="36" x="177" y="275.9471"/><text fill="#000000" font-family="sans-serif" font-size="12" lengthAdjust="spacing" textLength="16" x="187" y="298.7752">B()</text><polygon fill="#F1F1F1" points="112,318.2913,124,330.2913,112,342.2913,100,330.2913,112,318.2913" style="stroke:#181818;stroke-width:0.5;"/><ellipse cx="112" cy="373.2913" fill="none" rx="11" ry="11" style="stroke:#222222;stroke-width:1.0;"/><ellipse cx="112" cy="373.2913" fill="#222222" rx="6" ry="6" style="stroke:#222222;stroke-width:1.0;"/><line style="stroke:#181818;stroke-width:1.0;" x1="112" x2="112" y1="30" y2="50"/><polygon fill="#181818" points="108,40,112,50,116,40,112,44" style="stroke:#181818;stroke-width:1.0;"/><line style="stroke:#181818;stroke-width:1.0;" x1="112" x2="112" y1="130.3441" y2="163.603"/><polygon fill="#181818" points="108,153.603,112,163.603,116,153.603,112,157.603" style="stroke:#181818;stroke-width:1.0;"/><line style="stroke:#181818;stroke-width:1.0;" x1="112" x2="112" y1="199.9471" y2="209.9471"/><line style="stroke:#181818;stroke-width:1.0;" x1="112" x2="195.5" y1="209.9471" y2="209.9471"/><polygon fill="#181818" points="191.5,172.2841,195.5,162.2841,199.5,172.2841,195.5,168.2841" style="stroke:#181818;stroke-width:1.0;"/><line style="stroke:#181818;stroke-width:1.0;" x1="195.5" x2="195.5" y1="118.3441" y2="209.9471"/><line style="stroke:#181818;stroke-width:1.0;" x1="195.5" x2="183.5" y1="118.3441" y2="118.3441"/><polygon fill="#181818" points="193.5,114.3441,183.5,118.3441,193.5,122.3441,189.5,118.3441" style="stroke:#181818;stroke-width:1.0;"/><line style="stroke:#181818;stroke-width:1.0;" x1="40.5" x2="28.5" y1="118.3441" y2="118.3441"/><polygon fill="#181818" points="24.5,158.2841,28.5,168.2841,32.5,158.2841,28.5,162.2841" style="stroke:#181818;stroke-width:1.0;"/><line style="stroke:#181818;stroke-width:1.0;" x1="28.5" x2="28.5" y1="118.3441" y2="221.9471"/><line style="stroke:#181818;stroke-width:1.0;" x1="28.5" x2="112" y1="221.9471" y2="221.9471"/><line style="stroke:#181818;stroke-width:1.0;" x1="112" x2="112" y1="221.9471" y2="241.9471"/><polygon fill="#181818" points="108,231.9471,112,241.9471,116,231.9471,112,235.9471" style="stroke:#181818;stroke-width:1.0;"/><line style="stroke:#181818;stroke-width:1.0;" x1="112" x2="112" y1="86.3441" y2="106.3441"/><polygon fill="#181818" points="108,96.3441,112,106.3441,116,96.3441,112,100.3441" style="stroke:#181818;stroke-width:1.0;"/><line style="stroke:#181818;stroke-width:1.0;" x1="39" x2="29" y1="253.9471" y2="253.9471"/><line style="stroke:#181818;stroke-width:1.0;" x1="29" x2="29" y1="253.9471" y2="275.9471"/><polygon fill="#181818" points="25,265.9471,29,275.9471,33,265.9471,29,269.9471" style="stroke:#181818;stroke-width:1.0;"/><line style="stroke:#181818;stroke-width:1.0;" x1="185" x2="195" y1="253.9471" y2="253.9471"/><line style="stroke:#181818;stroke-width:1.0;" x1="195" x2="195" y1="253.9471" y2="275.9471"/><polygon fill="#181818" points="191,265.9471,195,275.9471,199,265.9471,195,269.9471" style="stroke:#181818;stroke-width:1.0;"/><line style="stroke:#181818;stroke-width:1.0;" x1="29" x2="29" y1="312.2913" y2="330.2913"/><line style="stroke:#181818;stroke-width:1.0;" x1="29" x2="100" y1="330.2913" y2="330.2913"/><polygon fill="#181818" points="90,326.2913,100,330.2913,90,334.2913,94,330.2913" style="stroke:#181818;stroke-width:1.0;"/><line style="stroke:#181818;stroke-width:1.0;" x1="195" x2="195" y1="312.2913" y2="330.2913"/><line style="stroke:#181818;stroke-width:1.0;" x1="195" x2="124" y1="330.2913" y2="330.2913"/><polygon fill="#181818" points="134,326.2913,124,330.2913,134,334.2913,130,330.2913" style="stroke:#181818;stroke-width:1.0;"/><line style="stroke:#181818;stroke-width:1.0;" x1="112" x2="112" y1="342.2913" y2="362.2913"/><polygon fill="#181818" points="108,352.2913,112,362.2913,116,352.2913,112,356.2913" style="stroke:#181818;stroke-width:1.0;"/><!--SRC=[TSmn2i9044RXVaxnsuHT0cATk8Xsda4i5hDn1vT9o0m8tibJU3631gni7tnFBKv6pL7umh7m8qvW16nQkcSk2OwnXQrBagjbL1Nin6Ui0cux3rOuVJqz0GtNTKj9keN9u8dxFpnykUKaly7U-NbGTC5pENoATDoJsZ2-0G00]--></g></svg>