<?xml version="1.0" encoding="us-ascii" standalone="no"?><svg xmlns="http://www.w3.org/2000/svg" xmlns:xlink="http://www.w3.org/1999/xlink" contentStyleType="text/css" height="262px" preserveAspectRatio="none" style="width:388px;height:262px;background:#FFFFFF;" version="1.1" viewBox="0 0 388 262" width="388px" zoomAndPan="magnify"><defs/><g><ellipse cx="123.29" cy="16" fill="#222222" rx="10" ry="10" style="stroke:#222222;stroke-width:1.0;"/><g id="NoEncontrado"><rect fill="#F1F1F1" height="50" rx="12.5" ry="12.5" style="stroke:#181818;stroke-width:0.5;" width="116" x="65.29" y="105"/><line style="stroke:#181818;stroke-width:0.5;" x1="65.29" x2="181.29" y1="134.0679" y2="134.0679"/><text fill="#000000" font-family="sans-serif" font-size="14" lengthAdjust="spacing" textLength="96" x="75.29" y="124.9659">NoEncontrado</text></g><ellipse cx="123.29" cy="245" fill="none" rx="11" ry="11" style="stroke:#222222;stroke-width:1.0;"/><ellipse cx="123.29" cy="245" fill="#222222" rx="6" ry="6" style="stroke:#222222;stroke-width:1.0;"/><!--link *start* to NoEncontrado--><g id="link_*start*_NoEncontrado"><path d="M123.29,26.17 C123.29,43.2 123.29,74.23 123.29,98.89 " fill="none" id="*start*-to-NoEncontrado" style="stroke:#181818;stroke-width:1.0;"/><polygon fill="#181818" points="123.29,104.89,127.29,95.89,123.29,99.89,119.29,95.89,123.29,104.89" style="stroke:#181818;stroke-width:1.0;"/><text fill="#000000" font-family="sans-serif" font-size="13" lengthAdjust="spacing" textLength="36" x="124.29" y="70.897">int i=0</text></g><!--link NoEncontrado to NoEncontrado--><g id="link_NoEncontrado_NoEncontrado"><path d="M181.42,118 C200.79,118 216.29,122 216.29,130 C216.29,138 206.79,142 187.42,142 " fill="none" id="NoEncontrado-to-NoEncontrado" style="stroke:#181818;stroke-width:1.0;"/><polygon fill="#181818" points="181.42,142,190.42,146,186.42,142,190.42,138,181.42,142" style="stroke:#181818;stroke-width:1.0;"/><text fill="#000000" font-family="sans-serif" font-size="13" lengthAdjust="spacing" textLength="153" x="222.29" y="135.397">(i&lt;t.length &amp;&amp; t[i]!=k) / i++</text></g><!--link NoEncontrado to *end*--><g id="link_NoEncontrado_*end*"><path d="M65.24,148.6 C34.44,161.14 6,180.02 22.29,204 C42.96,234.42 84.7696,241.2153 106.3596,242.9653 " fill="none" id="NoEncontrado-to-*end*" style="stroke:#181818;stroke-width:1.0;"/><polygon fill="#181818" points="112.34,243.45,103.6926,238.736,107.3563,243.046,103.0463,246.7098,112.34,243.45" style="stroke:#181818;stroke-width:1.0;"/><text fill="#000000" font-family="sans-serif" font-size="13" lengthAdjust="spacing" textLength="155" x="23.29" y="199.897">(i&lt;t.length &amp;&amp; t[i]==k) / A()</text></g><!--link NoEncontrado to *end*--><g id="link_NoEncontrado_*end*"><path d="M162.76,155.23 C179.34,168.66 192.81,186.21 183.29,204 C172.78,223.65 153.5038,233.2189 139.3038,238.4989 " fill="none" id="NoEncontrado-to-*end*-1" style="stroke:#181818;stroke-width:1.0;"/><polygon fill="#181818" points="133.68,240.59,143.5098,241.2025,138.3665,238.8474,140.7216,233.7041,133.68,240.59" style="stroke:#181818;stroke-width:1.0;"/><text fill="#000000" font-family="sans-serif" font-size="13" lengthAdjust="spacing" textLength="99" x="187.29" y="199.897">(i&gt;=t.length) / B()</text></g><!--SRC=[YzQALT3LjLFmotVDIyxFAobAJCbNi5B8p2jHoBGruE924SUYK2FJfaGl9pKllIH3GKrDeIGwCrRHDbjJGLyXKriRY_Pee7rOTTb2T3bgQEBMP6SBqmLIwgIX2G00]--></g></svg>