<?xml version="1.0" encoding="us-ascii" standalone="no"?><svg xmlns="http://www.w3.org/2000/svg" xmlns:xlink="http://www.w3.org/1999/xlink" contentStyleType="text/css" height="524px" preserveAspectRatio="none" style="width:423px;height:524px;background:#FFFFFF;" version="1.1" viewBox="0 0 423 524" width="423px" zoomAndPan="magnify"><defs/><g><rect fill="none" height="127.8241" style="stroke:#000000;stroke-width:1.5;" width="273" x="124" y="132.4799"/><rect fill="none" height="163.512" style="stroke:#000000;stroke-width:1.5;" width="292" x="124" y="274.304"/><line style="stroke:#181818;stroke-width:0.5;stroke-dasharray:5.0,5.0;" x1="43" x2="43" y1="39.0679" y2="486.522"/><line style="stroke:#181818;stroke-width:0.5;stroke-dasharray:5.0,5.0;" x1="202" x2="202" y1="39.0679" y2="486.522"/><line style="stroke:#181818;stroke-width:0.5;stroke-dasharray:5.0,5.0;" x1="310" x2="310" y1="39.0679" y2="486.522"/><line style="stroke:#181818;stroke-width:0.5;stroke-dasharray:5.0,5.0;" x1="361" x2="361" y1="39.0679" y2="486.522"/><line style="stroke:#181818;stroke-width:0.5;stroke-dasharray:5.0,5.0;" x1="394" x2="394" y1="39.0679" y2="486.522"/><rect fill="#E2E2F0" height="33.0679" rx="2.5" ry="2.5" style="stroke:#181818;stroke-width:0.5;" width="77" x="5" y="5"/><text fill="#000000" font-family="sans-serif" font-size="14" lengthAdjust="spacing" textLength="63" x="12" y="26.9659">Llamador</text><rect fill="#E2E2F0" height="33.0679" rx="2.5" ry="2.5" style="stroke:#181818;stroke-width:0.5;" width="77" x="5" y="485.522"/><text fill="#000000" font-family="sans-serif" font-size="14" lengthAdjust="spacing" textLength="63" x="12" y="507.4879">Llamador</text><rect fill="#E2E2F0" height="33.0679" rx="2.5" ry="2.5" style="stroke:#181818;stroke-width:0.5;" width="137" x="134" y="5"/><text fill="#000000" font-family="sans-serif" font-size="14" lengthAdjust="spacing" textLength="123" x="141" y="26.9659">searchAndProcess</text><rect fill="#E2E2F0" height="33.0679" rx="2.5" ry="2.5" style="stroke:#181818;stroke-width:0.5;" width="137" x="134" y="485.522"/><text fill="#000000" font-family="sans-serif" font-size="14" lengthAdjust="spacing" textLength="123" x="141" y="507.4879">searchAndProcess</text><rect fill="#E2E2F0" height="33.0679" rx="2.5" ry="2.5" style="stroke:#181818;stroke-width:0.5;" width="59" x="281" y="5"/><text fill="#000000" font-family="sans-serif" font-size="14" lengthAdjust="spacing" textLength="45" x="288" y="26.9659">Array t</text><rect fill="#E2E2F0" height="33.0679" rx="2.5" ry="2.5" style="stroke:#181818;stroke-width:0.5;" width="59" x="281" y="485.522"/><text fill="#000000" font-family="sans-serif" font-size="14" lengthAdjust="spacing" textLength="45" x="288" y="507.4879">Array t</text><rect fill="#E2E2F0" height="33.0679" rx="2.5" ry="2.5" style="stroke:#181818;stroke-width:0.5;" width="23" x="350" y="5"/><text fill="#000000" font-family="sans-serif" font-size="14" lengthAdjust="spacing" textLength="9" x="357" y="26.9659">A</text><rect fill="#E2E2F0" height="33.0679" rx="2.5" ry="2.5" style="stroke:#181818;stroke-width:0.5;" width="23" x="350" y="485.522"/><text fill="#000000" font-family="sans-serif" font-size="14" lengthAdjust="spacing" textLength="9" x="357" y="507.4879">A</text><rect fill="#E2E2F0" height="33.0679" rx="2.5" ry="2.5" style="stroke:#181818;stroke-width:0.5;" width="23" x="383" y="5"/><text fill="#000000" font-family="sans-serif" font-size="14" lengthAdjust="spacing" textLength="9" x="390" y="26.9659">B</text><rect fill="#E2E2F0" height="33.0679" rx="2.5" ry="2.5" style="stroke:#181818;stroke-width:0.5;" width="23" x="383" y="485.522"/><text fill="#000000" font-family="sans-serif" font-size="14" lengthAdjust="spacing" textLength="9" x="390" y="507.4879">B</text><polygon fill="#181818" points="190.5,68.7739,200.5,72.7739,190.5,76.7739,194.5,72.7739" style="stroke:#181818;stroke-width:1.0;"/><line style="stroke:#181818;stroke-width:1.0;" x1="43.5" x2="196.5" y1="72.7739" y2="72.7739"/><text fill="#000000" font-family="sans-serif" font-size="13" lengthAdjust="spacing" textLength="135" x="50.5" y="66.9649">searchAndProcess(t, k)</text><line style="stroke:#181818;stroke-width:1.0;" x1="202.5" x2="244.5" y1="104.4799" y2="104.4799"/><line style="stroke:#181818;stroke-width:1.0;" x1="244.5" x2="244.5" y1="104.4799" y2="117.4799"/><line style="stroke:#181818;stroke-width:1.0;" x1="203.5" x2="244.5" y1="117.4799" y2="117.4799"/><polygon fill="#181818" points="213.5,113.4799,203.5,117.4799,213.5,121.4799,209.5,117.4799" style="stroke:#181818;stroke-width:1.0;"/><text fill="#000000" font-family="sans-serif" font-size="13" lengthAdjust="spacing" textLength="23" x="209.5" y="98.6709">i = 0</text><path d="M124,132.4799 L197,132.4799 L197,142.186 L187,152.186 L124,152.186 L124,132.4799 " fill="#EEEEEE" style="stroke:#000000;stroke-width:1.5;"/><rect fill="none" height="127.8241" style="stroke:#000000;stroke-width:1.5;" width="273" x="124" y="132.4799"/><text fill="#000000" font-family="sans-serif" font-size="13" font-weight="bold" lengthAdjust="spacing" textLength="28" x="139" y="147.377">loop</text><text fill="#000000" font-family="sans-serif" font-size="11" font-weight="bold" lengthAdjust="spacing" textLength="180" x="212" y="146.2389">[mientras i &lt; t.length &amp;&amp; t[i] != k]</text><polygon fill="#181818" points="298.5,171.892,308.5,175.892,298.5,179.892,302.5,175.892" style="stroke:#181818;stroke-width:1.0;"/><line style="stroke:#181818;stroke-width:1.0;" x1="202.5" x2="304.5" y1="175.892" y2="175.892"/><text fill="#000000" font-family="sans-serif" font-size="13" lengthAdjust="spacing" textLength="41" x="209.5" y="170.083">leer t[i]</text><polygon fill="#181818" points="213.5,203.598,203.5,207.598,213.5,211.598,209.5,207.598" style="stroke:#181818;stroke-width:1.0;"/><line style="stroke:#181818;stroke-width:1.0;" x1="207.5" x2="309.5" y1="207.598" y2="207.598"/><text fill="#000000" font-family="sans-serif" font-size="13" lengthAdjust="spacing" textLength="30" x="219.5" y="201.789">valor</text><line style="stroke:#181818;stroke-width:1.0;" x1="202.5" x2="244.5" y1="239.304" y2="239.304"/><line style="stroke:#181818;stroke-width:1.0;" x1="244.5" x2="244.5" y1="239.304" y2="252.304"/><line style="stroke:#181818;stroke-width:1.0;" x1="203.5" x2="244.5" y1="252.304" y2="252.304"/><polygon fill="#181818" points="213.5,248.304,203.5,252.304,213.5,256.304,209.5,252.304" style="stroke:#181818;stroke-width:1.0;"/><text fill="#000000" font-family="sans-serif" font-size="13" lengthAdjust="spacing" textLength="17" x="209.5" y="233.495">i++</text><path d="M124,274.304 L187,274.304 L187,284.01 L177,294.01 L124,294.01 L124,274.304 " fill="#EEEEEE" style="stroke:#000000;stroke-width:1.5;"/><rect fill="none" height="163.512" style="stroke:#000000;stroke-width:1.5;" width="292" x="124" y="274.304"/><text fill="#000000" font-family="sans-serif" font-size="13" font-weight="bold" lengthAdjust="spacing" textLength="18" x="139" y="289.201">alt</text><text fill="#000000" font-family="sans-serif" font-size="11" font-weight="bold" lengthAdjust="spacing" textLength="130" x="202" y="288.0629">[i &lt; t.length &amp;&amp; t[i] == k]</text><polygon fill="#181818" points="349.5,313.716,359.5,317.716,349.5,321.716,353.5,317.716" style="stroke:#181818;stroke-width:1.0;"/><line style="stroke:#181818;stroke-width:1.0;" x1="202.5" x2="355.5" y1="317.716" y2="317.716"/><text fill="#000000" font-family="sans-serif" font-size="13" lengthAdjust="spacing" textLength="16" x="209.5" y="311.907">A()</text><polygon fill="#181818" points="213.5,345.4221,203.5,349.4221,213.5,353.4221,209.5,349.4221" style="stroke:#181818;stroke-width:1.0;"/><line style="stroke:#181818;stroke-width:1.0;" x1="207.5" x2="360.5" y1="349.4221" y2="349.4221"/><text fill="#000000" font-family="sans-serif" font-size="13" lengthAdjust="spacing" textLength="46" x="219.5" y="343.6131">retorno</text><line style="stroke:#000000;stroke-width:1.0;stroke-dasharray:2.0,2.0;" x1="124" x2="416" y1="358.4221" y2="358.4221"/><text fill="#000000" font-family="sans-serif" font-size="11" font-weight="bold" lengthAdjust="spacing" textLength="73" x="129" y="370.181">[i &gt;= t.length]</text><polygon fill="#181818" points="382.5,394.11,392.5,398.11,382.5,402.11,386.5,398.11" style="stroke:#181818;stroke-width:1.0;"/><line style="stroke:#181818;stroke-width:1.0;" x1="202.5" x2="388.5" y1="398.11" y2="398.11"/><text fill="#000000" font-family="sans-serif" font-size="13" lengthAdjust="spacing" textLength="16" x="209.5" y="392.301">B()</text><polygon fill="#181818" points="213.5,425.816,203.5,429.816,213.5,433.816,209.5,429.816" style="stroke:#181818;stroke-width:1.0;"/><line style="stroke:#181818;stroke-width:1.0;" x1="207.5" x2="393.5" y1="429.816" y2="429.816"/><text fill="#000000" font-family="sans-serif" font-size="13" lengthAdjust="spacing" textLength="46" x="219.5" y="424.007">retorno</text><polygon fill="#181818" points="54.5,464.522,44.5,468.522,54.5,472.522,50.5,468.522" style="stroke:#181818;stroke-width:1.0;"/><line style="stroke:#181818;stroke-width:1.0;" x1="48.5" x2="201.5" y1="468.522" y2="468.522"/><text fill="#000000" font-family="sans-serif" font-size="13" lengthAdjust="spacing" textLength="46" x="60.5" y="462.713">retorno</text><!--SRC=[ROx1QiCm44Jl-eff3Y4XRSdPn079rnuCzgtq8Eob4L4aireA_Vkwgfl49Zg-cNchmRAupWqs25Pltbvi7ta5cr2fuJvBPBaxwT3N73jAANUQUKSpssz8Zjf5b66jvzJyKQDKXPSZcWBBCnjvndchcYbsAB5NFiO15qT1U9mx722ldiAddB1UGzxT1vvAd1N6bvTj0K_4ESgqdNnVraU-zNulx7QAGg-ibyVcScQkTG6zsMPGwyd19953LEGJZP9ZURNS3Kq1ypyqo-7uWToghkm7]--></g></svg>