<?xml version="1.0" encoding="us-ascii" standalone="no"?><svg xmlns="http://www.w3.org/2000/svg" xmlns:xlink="http://www.w3.org/1999/xlink" contentStyleType="text/css" height="1074px" preserveAspectRatio="none" style="width:999px;height:1074px;background:#FFFFFF;" version="1.1" viewBox="0 0 999 1074" width="999px" zoomAndPan="magnify"><defs/><g><!--cluster disciplinas--><g id="cluster_disciplinas"><path d="M8.5,6.602 L81.5,6.602 A3.75,3.75 0 0 1 84,9.102 L91,31.6699 L127.5,31.6699 A2.5,2.5 0 0 1 130,34.1699 L130,242.602 A2.5,2.5 0 0 1 127.5,245.102 L8.5,245.102 A2.5,2.5 0 0 1 6,242.602 L6,9.102 A2.5,2.5 0 0 1 8.5,6.602 " fill="none" style="stroke:#000000;stroke-width:1.5;"/><line style="stroke:#000000;stroke-width:1.5;" x1="6" x2="91" y1="31.6699" y2="31.6699"/><text fill="#000000" font-family="sans-serif" font-size="14" font-weight="bold" lengthAdjust="spacing" textLength="72" x="10" y="23.5679">disciplinas</text></g><!--cluster actividades--><g id="cluster_actividades"><path d="M156.5,136.602 L235.5,136.602 A3.75,3.75 0 0 1 238,139.102 L245,161.6699 L457.5,161.6699 A2.5,2.5 0 0 1 460,164.1699 L460,938.102 A2.5,2.5 0 0 1 457.5,940.602 L156.5,940.602 A2.5,2.5 0 0 1 154,938.102 L154,139.102 A2.5,2.5 0 0 1 156.5,136.602 " fill="none" style="stroke:#000000;stroke-width:1.5;"/><line style="stroke:#000000;stroke-width:1.5;" x1="154" x2="245" y1="161.6699" y2="161.6699"/><text fill="#000000" font-family="sans-serif" font-size="14" font-weight="bold" lengthAdjust="spacing" textLength="78" x="158" y="153.5679">actividades</text></g><!--cluster equipo--><g id="cluster_equipo"><path d="M486.5,546.102 L535.5,546.102 A3.75,3.75 0 0 1 538,548.602 L545,571.1699 L989.5,571.1699 A2.5,2.5 0 0 1 992,573.6699 L992,1065.102 A2.5,2.5 0 0 1 989.5,1067.602 L486.5,1067.602 A2.5,2.5 0 0 1 484,1065.102 L484,548.602 A2.5,2.5 0 0 1 486.5,546.102 " fill="none" style="stroke:#000000;stroke-width:1.5;"/><line style="stroke:#000000;stroke-width:1.5;" x1="484" x2="545" y1="571.1699" y2="571.1699"/><text fill="#000000" font-family="sans-serif" font-size="14" font-weight="bold" lengthAdjust="spacing" textLength="48" x="488" y="563.0679">equipo</text></g><!--class Disciplina--><g id="elem_Disciplina"><rect codeLine="7" fill="#F1F1F1" height="45.0679" id="Disciplina" rx="2.5" ry="2.5" style="stroke:#181818;stroke-width:0.5;" width="72" x="37" y="44.602"/><text fill="#000000" font-family="sans-serif" font-size="14" lengthAdjust="spacing" textLength="66" x="40" y="64.5679">Disciplina</text><line style="stroke:#181818;stroke-width:0.5;" x1="38" x2="108" y1="73.6699" y2="73.6699"/><line style="stroke:#181818;stroke-width:0.5;" x1="38" x2="108" y1="81.6699" y2="81.6699"/></g><!--class DisciplinaRequisitos--><g id="elem_DisciplinaRequisitos"><rect codeLine="8" fill="#F1F1F1" height="64.1358" id="DisciplinaRequisitos" rx="2.5" ry="2.5" style="stroke:#181818;stroke-width:0.5;" width="93" x="21.5" y="165.102"/><text fill="#000000" font-family="sans-serif" font-size="14" lengthAdjust="spacing" textLength="87" x="24.5" y="185.0679">Disciplina de</text><text fill="#000000" font-family="sans-serif" font-size="14" lengthAdjust="spacing" textLength="70" x="33" y="204.1358">Requisitos</text><line style="stroke:#181818;stroke-width:0.5;" x1="22.5" x2="113.5" y1="213.2378" y2="213.2378"/><line style="stroke:#181818;stroke-width:0.5;" x1="22.5" x2="113.5" y1="221.2378" y2="221.2378"/></g><!--class Actividad--><g id="elem_Actividad"><rect codeLine="12" fill="#F1F1F1" height="45.0679" id="Actividad" rx="2.5" ry="2.5" style="stroke:#181818;stroke-width:0.5;" width="68" x="252" y="174.602"/><text fill="#000000" font-family="sans-serif" font-size="14" lengthAdjust="spacing" textLength="62" x="255" y="194.5679">Actividad</text><line style="stroke:#181818;stroke-width:0.5;" x1="253" x2="319" y1="203.6699" y2="203.6699"/><line style="stroke:#181818;stroke-width:0.5;" x1="253" x2="319" y1="211.6699" y2="211.6699"/></g><!--class ActividadRequisitos--><g id="elem_ActividadRequisitos"><rect codeLine="13" fill="#F1F1F1" height="64.1358" id="ActividadRequisitos" rx="2.5" ry="2.5" style="stroke:#181818;stroke-width:0.5;" width="89" x="298.5" y="292.102"/><text fill="#000000" font-family="sans-serif" font-size="14" lengthAdjust="spacing" textLength="83" x="301.5" y="312.0679">Actividad de</text><text fill="#000000" font-family="sans-serif" font-size="14" lengthAdjust="spacing" textLength="70" x="308" y="331.1358">Requisitos</text><line style="stroke:#181818;stroke-width:0.5;" x1="299.5" x2="386.5" y1="340.2378" y2="340.2378"/><line style="stroke:#181818;stroke-width:0.5;" x1="299.5" x2="386.5" y1="348.2378" y2="348.2378"/></g><!--class EncontrarActoresCasosUso--><g id="elem_EncontrarActoresCasosUso"><rect codeLine="14" fill="#F1F1F1" height="64.1358" id="EncontrarActoresCasosUso" rx="2.5" ry="2.5" style="stroke:#181818;stroke-width:0.5;" width="126" x="207" y="417.102"/><text fill="#000000" font-family="sans-serif" font-size="14" lengthAdjust="spacing" textLength="120" x="210" y="437.0679">Encontrar Actores</text><text fill="#000000" font-family="sans-serif" font-size="14" lengthAdjust="spacing" textLength="100" x="220" y="456.1358">y Casos de Uso</text><line style="stroke:#181818;stroke-width:0.5;" x1="208" x2="332" y1="465.2378" y2="465.2378"/><line style="stroke:#181818;stroke-width:0.5;" x1="208" x2="332" y1="473.2378" y2="473.2378"/></g><!--class PriorizarCasosUso--><g id="elem_PriorizarCasosUso"><rect codeLine="15" fill="#F1F1F1" height="64.1358" id="PriorizarCasosUso" rx="2.5" ry="2.5" style="stroke:#181818;stroke-width:0.5;" width="95" x="311.5" y="574.602"/><text fill="#000000" font-family="sans-serif" font-size="14" lengthAdjust="spacing" textLength="57" x="330.5" y="594.5679">Priorizar</text><text fill="#000000" font-family="sans-serif" font-size="14" lengthAdjust="spacing" textLength="89" x="314.5" y="613.6358">Casos de Uso</text><line style="stroke:#181818;stroke-width:0.5;" x1="312.5" x2="405.5" y1="622.7378" y2="622.7378"/><line style="stroke:#181818;stroke-width:0.5;" x1="312.5" x2="405.5" y1="630.7378" y2="630.7378"/></g><!--class DetallarCasoUso--><g id="elem_DetallarCasoUso"><rect codeLine="16" fill="#F1F1F1" height="64.1358" id="DetallarCasoUso" rx="2.5" ry="2.5" style="stroke:#181818;stroke-width:0.5;" width="88" x="231" y="717.602"/><text fill="#000000" font-family="sans-serif" font-size="14" lengthAdjust="spacing" textLength="53" x="248.5" y="737.5679">Detallar</text><text fill="#000000" font-family="sans-serif" font-size="14" lengthAdjust="spacing" textLength="82" x="234" y="756.6358">Caso de Uso</text><line style="stroke:#181818;stroke-width:0.5;" x1="232" x2="318" y1="765.7378" y2="765.7378"/><line style="stroke:#181818;stroke-width:0.5;" x1="232" x2="318" y1="773.7378" y2="773.7378"/></g><!--class EstructurarModeloCasosUso--><g id="elem_EstructurarModeloCasosUso"><rect codeLine="17" fill="#F1F1F1" height="64.1358" id="EstructurarModeloCasosUso" rx="2.5" ry="2.5" style="stroke:#181818;stroke-width:0.5;" width="136" x="199" y="860.602"/><text fill="#000000" font-family="sans-serif" font-size="14" lengthAdjust="spacing" textLength="130" x="202" y="880.5679">Estructurar Modelo</text><text fill="#000000" font-family="sans-serif" font-size="14" lengthAdjust="spacing" textLength="110" x="212" y="899.6358">de Casos de Uso</text><line style="stroke:#181818;stroke-width:0.5;" x1="200" x2="334" y1="908.7378" y2="908.7378"/><line style="stroke:#181818;stroke-width:0.5;" x1="200" x2="334" y1="916.7378" y2="916.7378"/></g><!--class PrototiparInterfaz--><g id="elem_PrototiparInterfaz"><rect codeLine="18" fill="#F1F1F1" height="64.1358" id="PrototiparInterfaz" rx="2.5" ry="2.5" style="stroke:#181818;stroke-width:0.5;" width="73" x="370.5" y="860.602"/><text fill="#000000" font-family="sans-serif" font-size="14" lengthAdjust="spacing" textLength="67" x="373.5" y="880.5679">Prototipar</text><text fill="#000000" font-family="sans-serif" font-size="14" lengthAdjust="spacing" textLength="53" x="380.5" y="899.6358">Interfaz</text><line style="stroke:#181818;stroke-width:0.5;" x1="371.5" x2="442.5" y1="908.7378" y2="908.7378"/><line style="stroke:#181818;stroke-width:0.5;" x1="371.5" x2="442.5" y1="916.7378" y2="916.7378"/></g><!--class Miembro--><g id="elem_Miembro"><rect codeLine="22" fill="#F1F1F1" height="45.0679" id="Miembro" rx="2.5" ry="2.5" style="stroke:#181818;stroke-width:0.5;" width="67" x="506.5" y="584.102"/><text fill="#000000" font-family="sans-serif" font-size="14" lengthAdjust="spacing" textLength="61" x="509.5" y="604.0679">Miembro</text><line style="stroke:#181818;stroke-width:0.5;" x1="507.5" x2="572.5" y1="613.1699" y2="613.1699"/><line style="stroke:#181818;stroke-width:0.5;" x1="507.5" x2="572.5" y1="621.1699" y2="621.1699"/></g><!--class Rol--><g id="elem_Rol"><rect codeLine="23" fill="#F1F1F1" height="45.0679" id="Rol" rx="2.5" ry="2.5" style="stroke:#181818;stroke-width:0.5;" width="27" x="624.5" y="727.102"/><text fill="#000000" font-family="sans-serif" font-size="14" lengthAdjust="spacing" textLength="21" x="627.5" y="747.0679">Rol</text><line style="stroke:#181818;stroke-width:0.5;" x1="625.5" x2="650.5" y1="756.1699" y2="756.1699"/><line style="stroke:#181818;stroke-width:0.5;" x1="625.5" x2="650.5" y1="764.1699" y2="764.1699"/></g><!--class RolRequisitos--><g id="elem_RolRequisitos"><rect codeLine="24" fill="#F1F1F1" height="64.1358" id="RolRequisitos" rx="2.5" ry="2.5" style="stroke:#181818;stroke-width:0.5;" width="76" x="637" y="860.602"/><text fill="#000000" font-family="sans-serif" font-size="14" lengthAdjust="spacing" textLength="42" x="654" y="880.5679">Rol de</text><text fill="#000000" font-family="sans-serif" font-size="14" lengthAdjust="spacing" textLength="70" x="640" y="899.6358">Requisitos</text><line style="stroke:#181818;stroke-width:0.5;" x1="638" x2="712" y1="908.7378" y2="908.7378"/><line style="stroke:#181818;stroke-width:0.5;" x1="638" x2="712" y1="916.7378" y2="916.7378"/></g><!--class AnalistaSistemas--><g id="elem_AnalistaSistemas"><rect codeLine="25" fill="#F1F1F1" height="64.1358" id="AnalistaSistemas" rx="2.5" ry="2.5" style="stroke:#181818;stroke-width:0.5;" width="81" x="500.5" y="987.602"/><text fill="#000000" font-family="sans-serif" font-size="14" lengthAdjust="spacing" textLength="75" x="503.5" y="1007.5679">Analista de</text><text fill="#000000" font-family="sans-serif" font-size="14" lengthAdjust="spacing" textLength="60" x="511" y="1026.6358">Sistemas</text><line style="stroke:#181818;stroke-width:0.5;" x1="501.5" x2="580.5" y1="1035.7378" y2="1035.7378"/><line style="stroke:#181818;stroke-width:0.5;" x1="501.5" x2="580.5" y1="1043.7378" y2="1043.7378"/></g><!--class EspecificadorCasosUso--><g id="elem_EspecificadorCasosUso"><rect codeLine="26" fill="#F1F1F1" height="64.1358" id="EspecificadorCasosUso" rx="2.5" ry="2.5" style="stroke:#181818;stroke-width:0.5;" width="117" x="616.5" y="987.602"/><text fill="#000000" font-family="sans-serif" font-size="14" lengthAdjust="spacing" textLength="111" x="619.5" y="1007.5679">Especificador de</text><text fill="#000000" font-family="sans-serif" font-size="14" lengthAdjust="spacing" textLength="89" x="630.5" y="1026.6358">Casos de Uso</text><line style="stroke:#181818;stroke-width:0.5;" x1="617.5" x2="732.5" y1="1035.7378" y2="1035.7378"/><line style="stroke:#181818;stroke-width:0.5;" x1="617.5" x2="732.5" y1="1043.7378" y2="1043.7378"/></g><!--class Arquitecto--><g id="elem_Arquitecto"><rect codeLine="27" fill="#F1F1F1" height="45.0679" id="Arquitecto" rx="2.5" ry="2.5" style="stroke:#181818;stroke-width:0.5;" width="76" x="900" y="997.102"/><text fill="#000000" font-family="sans-serif" font-size="14" lengthAdjust="spacing" textLength="70" x="903" y="1017.0679">Arquitecto</text><line style="stroke:#181818;stroke-width:0.5;" x1="901" x2="975" y1="1026.1699" y2="1026.1699"/><line style="stroke:#181818;stroke-width:0.5;" x1="901" x2="975" y1="1034.1699" y2="1034.1699"/></g><!--class Dise?adorInterfaz--><g id="elem_Dise&#241;adorInterfaz"><rect codeLine="28" fill="#F1F1F1" height="64.1358" id="Dise&#241;adorInterfaz" rx="2.5" ry="2.5" style="stroke:#181818;stroke-width:0.5;" width="96" x="769" y="987.602"/><text fill="#000000" font-family="sans-serif" font-size="14" lengthAdjust="spacing" textLength="90" x="772" y="1007.5679">Dise&#241;ador de</text><text fill="#000000" font-family="sans-serif" font-size="14" lengthAdjust="spacing" textLength="53" x="790.5" y="1026.6358">Interfaz</text><line style="stroke:#181818;stroke-width:0.5;" x1="770" x2="864" y1="1035.7378" y2="1035.7378"/><line style="stroke:#181818;stroke-width:0.5;" x1="770" x2="864" y1="1043.7378" y2="1043.7378"/></g><!--link Disciplina to Actividad--><g id="link_Disciplina_Actividad"><path codeLine="31" d="M119.4151,95.9939 C159.2951,119.9639 207.5771,148.9715 246.6671,172.4615 " fill="none" id="Disciplina-Actividad" style="stroke:#181818;stroke-width:1.0;"/><polygon fill="#181818" points="109.13,89.812,112.2119,96.3313,119.4151,95.9939,116.3332,89.4746,109.13,89.812" style="stroke:#181818;stroke-width:1.0;"/><polygon fill="#181818" points="251.81,175.552,246.156,167.4877,247.5243,172.9766,242.0354,174.3449,251.81,175.552" style="stroke:#181818;stroke-width:1.0;"/></g><!--reverse link Disciplina to DisciplinaRequisitos--><g id="link_Disciplina_DisciplinaRequisitos"><path codeLine="33" d="M71.4498,107.7984 C70.6498,128.3484 70.14,141.422 69.23,164.662 " fill="none" id="Disciplina-backto-DisciplinaRequisitos" style="stroke:#181818;stroke-width:1.0;"/><polygon fill="none" points="72.15,89.812,65.4543,107.565,77.4453,108.0318,72.15,89.812" style="stroke:#181818;stroke-width:1.0;"/></g><!--link DisciplinaRequisitos to ActividadRequisitos--><g id="link_DisciplinaRequisitos_ActividadRequisitos"><path codeLine="34" d="M123.0085,235.8644 C135.9385,244.1644 140.2,246.232 154,253.102 C201.61,276.802 253.6073,295.1975 292.6273,307.7275 " fill="none" id="DisciplinaRequisitos-ActividadRequisitos" style="stroke:#181818;stroke-width:1.0;"/><polygon fill="#181818" points="112.91,229.382,115.7984,235.9893,123.0085,235.8644,120.12,229.257,112.91,229.382" style="stroke:#181818;stroke-width:1.0;"/><polygon fill="#181818" points="298.34,309.562,290.9939,303.0019,293.5794,308.0333,288.548,310.6188,298.34,309.562" style="stroke:#181818;stroke-width:1.0;"/><text fill="#000000" font-family="sans-serif" font-size="13" lengthAdjust="spacing" textLength="7" x="283.3635" y="302.6902">*</text></g><!--reverse link Actividad to ActividadRequisitos--><g id="link_Actividad_ActividadRequisitos"><path codeLine="36" d="M303.3977,236.2498 C312.4577,256.1198 318.48,269.332 328.7,291.742 " fill="none" id="Actividad-backto-ActividadRequisitos" style="stroke:#181818;stroke-width:1.0;"/><polygon fill="none" points="295.93,219.872,297.9384,238.739,308.857,233.7606,295.93,219.872" style="stroke:#181818;stroke-width:1.0;"/></g><!--link ActividadRequisitos to Miembro--><g id="link_ActividadRequisitos_Miembro"><path codeLine="37" d="M398.4286,346.6622 C420.2886,356.6822 434.68,366.392 452,386.102 C504.71,446.092 526.9804,535.7412 535.1904,578.1812 " fill="none" id="ActividadRequisitos-Miembro" style="stroke:#181818;stroke-width:1.0;"/><polygon fill="#181818" points="387.52,341.662,391.3076,347.7983,398.4286,346.6622,394.641,340.5259,387.52,341.662" style="stroke:#181818;stroke-width:1.0;"/><polygon fill="#181818" points="536.33,584.072,538.5478,574.4761,535.3804,579.163,530.6935,575.9955,536.33,584.072" style="stroke:#181818;stroke-width:1.0;"/></g><!--link Miembro to Rol--><g id="link_Miembro_Rol"><path codeLine="39" d="M561.9492,639.1754 C580.8492,666.3654 602.6653,697.7654 620.8853,723.9754 " fill="none" id="Miembro-Rol" style="stroke:#181818;stroke-width:1.0;"/><polygon fill="#181818" points="555.1,629.322,555.2401,636.5317,561.9492,639.1754,561.809,631.9656,555.1,629.322" style="stroke:#181818;stroke-width:1.0;"/><polygon fill="#181818" points="624.31,728.902,622.4573,719.229,621.4561,724.7965,615.8885,723.7953,624.31,728.902" style="stroke:#181818;stroke-width:1.0;"/></g><!--reverse link Rol to RolRequisitos--><g id="link_Rol_RolRequisitos"><path codeLine="41" d="M648.2671,789.733 C654.4471,813.293 659.81,833.702 666.82,860.432 " fill="none" id="Rol-backto-RolRequisitos" style="stroke:#181818;stroke-width:1.0;"/><polygon fill="none" points="643.7,772.322,642.4634,791.2553,654.0707,788.2106,643.7,772.322" style="stroke:#181818;stroke-width:1.0;"/></g><!--reverse link ActividadRequisitos to EncontrarActoresCasosUso--><g id="link_ActividadRequisitos_EncontrarActoresCasosUso"><path codeLine="43" d="M315.3888,371.6185 C304.3188,390.2585 299.48,398.432 288.42,417.072 " fill="none" id="ActividadRequisitos-backto-EncontrarActoresCasosUso" style="stroke:#181818;stroke-width:1.0;"/><polygon fill="none" points="324.58,356.142,310.2299,368.5547,320.5476,374.6822,324.58,356.142" style="stroke:#181818;stroke-width:1.0;"/></g><!--link EncontrarActoresCasosUso to AnalistaSistemas--><g id="link_EncontrarActoresCasosUso_AnalistaSistemas"><path codeLine="44" d="M206.96,470.612 C149.99,493.582 75,536.862 75,605.602 C75,605.602 75,605.602 75,893.602 C75,981.342 381.1021,1008.8106 494.4721,1016.0306 " fill="none" id="EncontrarActoresCasosUso-to-AnalistaSistemas" style="stroke:#181818;stroke-width:1.0;"/><polygon fill="#181818" points="500.46,1016.412,491.7324,1011.8481,495.4701,1016.0942,491.224,1019.8319,500.46,1016.412" style="stroke:#181818;stroke-width:1.0;"/></g><!--link EncontrarActoresCasosUso to PriorizarCasosUso--><g id="link_EncontrarActoresCasosUso_PriorizarCasosUso"><path codeLine="45" d="M287.8,481.192 C303.32,508.312 322.7405,542.2441 338.2505,569.3541 " fill="none" id="EncontrarActoresCasosUso-to-PriorizarCasosUso" style="stroke:#181818;stroke-width:1.0;"/><polygon fill="#181818" points="341.23,574.562,340.2327,564.7638,338.7471,570.222,333.2888,568.7364,341.23,574.562" style="stroke:#181818;stroke-width:1.0;"/><text fill="#000000" font-family="sans-serif" font-size="13" lengthAdjust="spacing" textLength="55" x="315" y="525.999">siguiente</text></g><!--reverse link ActividadRequisitos to PriorizarCasosUso--><g id="link_ActividadRequisitos_PriorizarCasosUso"><path codeLine="47" d="M374.06,371.9089 C379.37,381.0789 375.26,375.842 378,386.102 C395.43,451.522 379.68,531.412 368.29,574.482 " fill="none" id="ActividadRequisitos-backto-PriorizarCasosUso" style="stroke:#181818;stroke-width:1.0;"/><polygon fill="none" points="365.04,356.332,368.8677,374.9155,379.2523,368.9022,365.04,356.332" style="stroke:#181818;stroke-width:1.0;"/></g><!--link PriorizarCasosUso to Arquitecto--><g id="link_PriorizarCasosUso_Arquitecto"><path codeLine="48" d="M372.68,638.812 C404.71,707.772 491.69,873.012 620,948.602 C721.81,1008.582 771.22,949.282 883,987.602 C890.15,990.052 892.1533,990.6133 898.9933,994.2533 " fill="none" id="PriorizarCasosUso-to-Arquitecto" style="stroke:#181818;stroke-width:1.0;"/><polygon fill="#181818" points="904.29,997.072,898.2241,989.3128,899.8761,994.7231,894.4658,996.375,904.29,997.072" style="stroke:#181818;stroke-width:1.0;"/></g><!--link PriorizarCasosUso to DetallarCasoUso--><g id="link_PriorizarCasosUso_DetallarCasoUso"><path codeLine="49" d="M340.36,638.892 C326.44,662.262 310.5707,688.8973 296.6607,712.2473 " fill="none" id="PriorizarCasosUso-to-DetallarCasoUso" style="stroke:#181818;stroke-width:1.0;"/><polygon fill="#181818" points="293.59,717.402,301.6325,711.7171,296.1489,713.1064,294.7596,707.6228,293.59,717.402" style="stroke:#181818;stroke-width:1.0;"/><text fill="#000000" font-family="sans-serif" font-size="13" lengthAdjust="spacing" textLength="55" x="323" y="683.499">siguiente</text></g><!--reverse link ActividadRequisitos to DetallarCasoUso--><g id="link_ActividadRequisitos_DetallarCasoUso"><path codeLine="51" d="M348.1491,374.0538 C349.9191,391.8738 350.12,396.762 351,417.102 C352.23,445.522 352.45,452.692 351,481.102 C349.89,502.962 361.08,514.232 346,530.102 C329.89,547.052 310.01,521.062 294,538.102 C248.53,586.512 257.86,671.692 267.23,717.452 " fill="none" id="ActividadRequisitos-backto-DetallarCasoUso" style="stroke:#181818;stroke-width:1.0;"/><polygon fill="none" points="346.37,356.142,342.1785,374.6469,354.1197,373.4608,346.37,356.142" style="stroke:#181818;stroke-width:1.0;"/></g><!--link DetallarCasoUso to EspecificadorCasosUso--><g id="link_DetallarCasoUso_EspecificadorCasosUso"><path codeLine="52" d="M240.6,781.692 C198.17,823.702 136.86,899.042 182,948.602 C244.67,1017.412 508.6,965.452 599,987.602 C604.67,988.992 604.7949,988.8139 610.5449,990.7539 " fill="none" id="DetallarCasoUso-to-EspecificadorCasosUso" style="stroke:#181818;stroke-width:1.0;"/><polygon fill="#181818" points="616.23,992.672,608.981,986.0047,611.4924,991.0736,606.4235,993.5849,616.23,992.672" style="stroke:#181818;stroke-width:1.0;"/></g><!--link DetallarCasoUso to EstructurarModeloCasosUso--><g id="link_DetallarCasoUso_EstructurarModeloCasosUso"><path codeLine="53" d="M273.22,781.892 C271.9,805.262 270.4412,831.0617 269.1112,854.4117 " fill="none" id="DetallarCasoUso-to-EstructurarModeloCasosUso" style="stroke:#181818;stroke-width:1.0;"/><polygon fill="#181818" points="268.77,860.402,273.2753,851.644,269.0543,855.4101,265.2883,851.1891,268.77,860.402" style="stroke:#181818;stroke-width:1.0;"/><text fill="#000000" font-family="sans-serif" font-size="13" lengthAdjust="spacing" textLength="55" x="272" y="826.499">siguiente</text></g><!--link DetallarCasoUso to PrototiparInterfaz--><g id="link_DetallarCasoUso_PrototiparInterfaz"><path codeLine="54" d="M304.89,781.872 C313.94,791.392 323.9,801.902 333,811.602 C348.01,827.612 360.5419,841.1217 374.2119,855.9417 " fill="none" id="DetallarCasoUso-to-PrototiparInterfaz" style="stroke:#181818;stroke-width:1.0;"/><polygon fill="#181818" points="378.28,860.352,375.1181,851.0245,374.8899,856.6767,369.2377,856.4486,378.28,860.352" style="stroke:#181818;stroke-width:1.0;"/><text fill="#000000" font-family="sans-serif" font-size="13" lengthAdjust="spacing" textLength="55" x="350" y="826.499">siguiente</text></g><!--reverse link ActividadRequisitos to EstructurarModeloCasosUso--><g id="link_ActividadRequisitos_EstructurarModeloCasosUso"><path codeLine="56" d="M281.0465,341.4147 C230.0865,356.9947 171,385.512 171,448.102 C171,448.102 171,448.102 171,750.602 C171,794.132 202.65,834.162 229.61,860.362 " fill="none" id="ActividadRequisitos-backto-EstructurarModeloCasosUso" style="stroke:#181818;stroke-width:1.0;"/><polygon fill="none" points="298.26,336.152,279.2923,335.6768,282.8007,347.1525,298.26,336.152" style="stroke:#181818;stroke-width:1.0;"/></g><!--link EstructurarModeloCasosUso to AnalistaSistemas--><g id="link_EstructurarModeloCasosUso_AnalistaSistemas"><path codeLine="57" d="M311.91,924.862 C324.85,933.162 339.2,941.722 353,948.602 C401.93,973.012 455.8361,991.9815 494.6361,1004.4115 " fill="none" id="EstructurarModeloCasosUso-to-AnalistaSistemas" style="stroke:#181818;stroke-width:1.0;"/><polygon fill="#181818" points="500.35,1006.242,492.9994,999.6869,495.5884,1004.7165,490.5587,1007.3055,500.35,1006.242" style="stroke:#181818;stroke-width:1.0;"/></g><!--reverse link ActividadRequisitos to PrototiparInterfaz--><g id="link_ActividadRequisitos_PrototiparInterfaz"><path codeLine="59" d="M401.5791,367.192 C428.1991,389.332 443,410.402 443,448.102 C443,448.102 443,448.102 443,750.602 C443,789.382 430.06,832.352 419.69,860.542 " fill="none" id="ActividadRequisitos-backto-PrototiparInterfaz" style="stroke:#181818;stroke-width:1.0;"/><polygon fill="none" points="387.74,355.682,397.7424,371.805,405.4157,362.579,387.74,355.682" style="stroke:#181818;stroke-width:1.0;"/></g><!--link PrototiparInterfaz to Dise?adorInterfaz--><g id="link_PrototiparInterfaz_Dise&#241;adorInterfaz"><path codeLine="60" d="M441.78,924.912 C457.31,937.142 476.48,950.022 496,957.602 C602.38,998.892 641.27,956.272 751,987.602 C756.84,989.272 757.2571,989.1539 763.0971,991.5139 " fill="none" id="PrototiparInterfaz-to-Dise&#241;adorInterfaz" style="stroke:#181818;stroke-width:1.0;"/><polygon fill="#181818" points="768.66,993.762,761.8143,986.6813,764.0242,991.8886,758.8169,994.0986,768.66,993.762" style="stroke:#181818;stroke-width:1.0;"/></g><!--reverse link RolRequisitos to AnalistaSistemas--><g id="link_RolRequisitos_AnalistaSistemas"><path codeLine="62" d="M628.3691,937.1016 C607.9091,956.1916 594.98,968.252 574.51,987.342 " fill="none" id="RolRequisitos-backto-AnalistaSistemas" style="stroke:#181818;stroke-width:1.0;"/><polygon fill="none" points="641.53,924.822,624.2759,932.7147,632.4623,941.4886,641.53,924.822" style="stroke:#181818;stroke-width:1.0;"/></g><!--reverse link RolRequisitos to EspecificadorCasosUso--><g id="link_RolRequisitos_EspecificadorCasosUso"><path codeLine="63" d="M675,942.822 C675,961.912 675,968.252 675,987.342 " fill="none" id="RolRequisitos-backto-EspecificadorCasosUso" style="stroke:#181818;stroke-width:1.0;"/><polygon fill="none" points="675,924.822,669,942.822,681,942.822,675,924.822" style="stroke:#181818;stroke-width:1.0;"/></g><!--reverse link RolRequisitos to Arquitecto--><g id="link_RolRequisitos_Arquitecto"><path codeLine="64" d="M729.6046,916.6593 C771.6746,934.6193 824.67,958.052 883,987.602 C888.77,990.522 894.8,993.742 900.67,996.972 " fill="none" id="RolRequisitos-backto-Arquitecto" style="stroke:#181818;stroke-width:1.0;"/><polygon fill="none" points="713.05,909.592,727.2488,922.1774,731.9603,911.1411,713.05,909.592" style="stroke:#181818;stroke-width:1.0;"/></g><!--reverse link RolRequisitos to Dise?adorInterfaz--><g id="link_RolRequisitos_Dise&#241;adorInterfaz"><path codeLine="65" d="M723.9793,936.7174 C745.6593,955.8074 759.8,968.252 781.49,987.342 " fill="none" id="RolRequisitos-backto-Dise&#241;adorInterfaz" style="stroke:#181818;stroke-width:1.0;"/><polygon fill="none" points="710.47,924.822,720.0141,941.2204,727.9444,932.2143,710.47,924.822" style="stroke:#181818;stroke-width:1.0;"/></g><!--SRC=[ZLFTQjqm3BxNKvXpKoYSFK0PWyFQmM25qjAxt7YEJYUQsfdj37hQFjIUOIysn_bnOYkbDo6Hz7tweayw4uVE6tiXRgmvVX8_EdBY6rejTOqdW5zKer1aLOF3k_DeqVZd5W5QgHxb0ugQdAAs8IsTU07LIEV4vHmh0hVuEtGXRvm8W5rAY1ehdR8xU4izfFBqXsfPO-fnc6BvTzPXZXSD1joLLaPxAsqeD1RTL-cCktScWkUa6BELVXQn8h29K3Mnt5WobaxIhk1pjD8Sw1AzR9e1Cq6cs83805VEsqxvBWYwDZKsPYqsPSMGheAF6tADDvvQQR_huEbHdaQzKxZIKs9bH3-zrimUN1C-_RHc_BerJNhBN0YHZVaVj6p8UNaN7lWaHzF6OCHCcJI55XKTISdQs6m2Yqp4SZz_i463ns1esaxyzxV7hAQHmf5gDP35tfxlzryMsxXCVNxTxzdT1_OW8jFkVCVjCa1Qv4ZBrN0t44ades1y6QAzOT0x4mbNfW7B5Uks3WOsBoaEABDvkpgMb_TquUYX8mmclAEjW4595DMa5IWBOaL-cnzgdu4W9-c9sUqjAiVIhNDVg66Hp7r_w0SsEyAs5jRTzopAfG6ZDbfGd6NSrfomwCtKy4FdoD9YCDbIqNy0]--></g></svg>