<?xml version="1.0" encoding="us-ascii" standalone="no"?><svg xmlns="http://www.w3.org/2000/svg" xmlns:xlink="http://www.w3.org/1999/xlink" contentStyleType="text/css" height="393px" preserveAspectRatio="none" style="width:498px;height:393px;background:#FFFFFF;" version="1.1" viewBox="0 0 498 393" width="498px" zoomAndPan="magnify"><defs/><g><!--entity Player--><g id="elem_Player"><ellipse cx="26.5" cy="171.5" fill="#F1F1F1" rx="8" ry="8" style="stroke:#181818;stroke-width:0.5;"/><path d="M26.5,179.5 L26.5,206.5 M13.5,187.5 L39.5,187.5 M26.5,206.5 L13.5,221.5 M26.5,206.5 L39.5,221.5 " fill="none" style="stroke:#181818;stroke-width:0.5;"/><text fill="#000000" font-family="sans-serif" font-size="14" lengthAdjust="spacing" textLength="41" x="6" y="237.9659">Player</text></g><g id="elem_Login"><ellipse cx="181.1781" cy="22.6892" fill="#F1F1F1" rx="38.1781" ry="16.6892" style="stroke:#181818;stroke-width:0.5;"/><text fill="#000000" font-family="sans-serif" font-size="14" lengthAdjust="spacing" textLength="37" x="159.6781" y="27.4222">Login</text></g><g id="elem_CreateGame"><ellipse cx="180.9592" cy="91.5418" fill="#F1F1F1" rx="72.9592" ry="17.0418" style="stroke:#181818;stroke-width:0.5;"/><text fill="#000000" font-family="sans-serif" font-size="14" lengthAdjust="spacing" textLength="83" x="136.4592" y="96.2748">CreateGame</text></g><g id="elem_OpenGame"><ellipse cx="181.1639" cy="160.5114" fill="#F1F1F1" rx="67.6639" ry="17.0114" style="stroke:#181818;stroke-width:0.5;"/><text fill="#000000" font-family="sans-serif" font-size="14" lengthAdjust="spacing" textLength="76" x="140.1639" y="165.2444">OpenGame</text></g><g id="elem_PlacePiece"><ellipse cx="181.1255" cy="229.4813" fill="#F1F1F1" rx="63.1255" ry="16.9813" style="stroke:#181818;stroke-width:0.5;"/><text fill="#000000" font-family="sans-serif" font-size="14" lengthAdjust="spacing" textLength="70" x="143.1255" y="234.2143">PlacePiece</text></g><g id="elem_SaveGame"><ellipse cx="181.1255" cy="298.4813" fill="#F1F1F1" rx="63.1255" ry="16.9813" style="stroke:#181818;stroke-width:0.5;"/><text fill="#000000" font-family="sans-serif" font-size="14" lengthAdjust="spacing" textLength="70" x="143.1255" y="303.2143">SaveGame</text></g><g id="elem_Logout"><ellipse cx="425.9784" cy="356.3007" fill="#F1F1F1" rx="44.9784" ry="16.8007" style="stroke:#181818;stroke-width:0.5;"/><text fill="#000000" font-family="sans-serif" font-size="14" lengthAdjust="spacing" textLength="46" x="399.9784" y="361.0337">Logout</text></g><g id="elem_ShowGame"><ellipse cx="425.9075" cy="150.5067" fill="#F1F1F1" rx="66.9075" ry="17.0067" style="stroke:#181818;stroke-width:0.5;"/><text fill="#000000" font-family="sans-serif" font-size="14" lengthAdjust="spacing" textLength="75" x="385.4075" y="155.2397">ShowGame</text></g><!--link Player to Login--><g id="link_Player_Login"><path d="M41.46,162.78 C54.45,130.64 76.56,86.02 108,56.5 C119.69,45.52 129.9898,39.7147 143.8598,34.2347 " fill="none" id="Player-to-Login" style="stroke:#181818;stroke-width:1.0;"/><polygon fill="#181818" points="149.44,32.03,139.5998,31.6169,144.7898,33.8673,142.5395,39.0573,149.44,32.03" style="stroke:#181818;stroke-width:1.0;"/></g><!--link Player to CreateGame--><g id="link_Player_CreateGame"><path d="M47.06,180.24 C62.45,163.67 85.05,141.27 108,125.5 C118.82,118.06 126.0752,113.959 137.7752,108.599 " fill="none" id="Player-to-CreateGame" style="stroke:#181818;stroke-width:1.0;"/><polygon fill="#181818" points="143.23,106.1,133.3818,106.2119,138.6843,108.1825,136.7137,113.485,143.23,106.1" style="stroke:#181818;stroke-width:1.0;"/></g><!--link Player to OpenGame--><g id="link_Player_OpenGame"><path d="M47.12,197.09 C69.17,191.02 99.885,182.562 129.065,174.532 " fill="none" id="Player-to-OpenGame" style="stroke:#181818;stroke-width:1.0;"/><polygon fill="#181818" points="134.85,172.94,125.1113,171.4713,130.0292,174.2666,127.2339,179.1846,134.85,172.94" style="stroke:#181818;stroke-width:1.0;"/></g><!--link Player to PlacePiece--><g id="link_Player_PlacePiece"><path d="M47.12,205.97 C67.48,209.58 94.2522,214.3124 122.1122,219.2524 " fill="none" id="Player-to-PlacePiece" style="stroke:#181818;stroke-width:1.0;"/><polygon fill="#181818" points="128.02,220.3,119.8566,214.7901,123.0968,219.427,118.4599,222.6672,128.02,220.3" style="stroke:#181818;stroke-width:1.0;"/></g><!--link Player to SaveGame--><g id="link_Player_SaveGame"><path d="M47.23,219.19 C63.07,232.15 86.18,250.11 108,263.5 C120.32,271.06 129.0799,275.6977 141.5899,281.5777 " fill="none" id="Player-to-SaveGame" style="stroke:#181818;stroke-width:1.0;"/><polygon fill="#181818" points="147.02,284.13,140.5764,276.6815,142.4949,282.0031,137.1733,283.9217,147.02,284.13" style="stroke:#181818;stroke-width:1.0;"/></g><!--link Player to Logout--><g id="link_Player_Logout"><path d="M40.93,242.29 C53.34,272.44 74.92,312.06 108,332.5 C195.09,386.32 316.4896,375.714 380.0096,365.264 " fill="none" id="Player-to-Logout" style="stroke:#181818;stroke-width:1.0;"/><polygon fill="#181818" points="385.93,364.29,376.4,361.8041,380.9963,365.1017,377.6987,369.6979,385.93,364.29" style="stroke:#181818;stroke-width:1.0;"/></g><!--link Login to ShowGame--><g id="link_Login_ShowGame"><path d="M209.05,33.8 C238.92,46.55 288.19,68.42 329,90.5 C354.41,104.25 377.2809,118.6872 396.4209,131.3072 " fill="none" id="Login-to-ShowGame" style="stroke:#181818;stroke-width:1.0;stroke-dasharray:7.0,7.0;"/><polygon fill="#181818" points="401.43,134.61,396.1181,126.3164,397.2557,131.8577,391.7144,132.9952,401.43,134.61" style="stroke:#181818;stroke-width:1.0;"/><text fill="#000000" font-family="sans-serif" font-size="13" lengthAdjust="spacing" textLength="43" x="285" y="64.397">include</text></g><!--link CreateGame to ShowGame--><g id="link_CreateGame_ShowGame"><path d="M232.06,103.65 C274.57,113.98 329.3493,127.2748 371.2493,137.4448 " fill="none" id="CreateGame-to-ShowGame" style="stroke:#181818;stroke-width:1.0;stroke-dasharray:7.0,7.0;"/><polygon fill="#181818" points="377.08,138.86,369.2774,132.85,372.2211,137.6806,367.3905,140.6243,377.08,138.86" style="stroke:#181818;stroke-width:1.0;"/><text fill="#000000" font-family="sans-serif" font-size="13" lengthAdjust="spacing" textLength="43" x="285" y="113.397">include</text></g><!--link OpenGame to ShowGame--><g id="link_OpenGame_ShowGame"><path d="M247.76,157.79 C282.48,156.36 318.9551,154.8673 353.6151,153.4373 " fill="none" id="OpenGame-to-ShowGame" style="stroke:#181818;stroke-width:1.0;stroke-dasharray:7.0,7.0;"/><polygon fill="#181818" points="359.61,153.19,350.4528,149.5644,354.6143,153.3961,350.7825,157.5576,359.61,153.19" style="stroke:#181818;stroke-width:1.0;"/><text fill="#000000" font-family="sans-serif" font-size="13" lengthAdjust="spacing" textLength="43" x="285" y="151.397">include</text></g><!--link PlacePiece to ShowGame--><g id="link_PlacePiece_ShowGame"><path d="M223.6,216.82 C253.09,207.75 293.56,195.13 329,183.5 C347.75,177.34 362.8015,172.2267 380.1815,166.1967 " fill="none" id="PlacePiece-to-ShowGame" style="stroke:#181818;stroke-width:1.0;stroke-dasharray:7.0,7.0;"/><polygon fill="#181818" points="385.85,164.23,376.0361,163.401,381.1262,165.8689,378.6584,170.9591,385.85,164.23" style="stroke:#181818;stroke-width:1.0;"/><text fill="#000000" font-family="sans-serif" font-size="13" lengthAdjust="spacing" textLength="43" x="285" y="179.397">include</text></g><!--link SaveGame to ShowGame--><g id="link_SaveGame_ShowGame"><path d="M212.89,283.62 C225.64,277.45 240.55,270.17 254,263.5 C287.47,246.89 297.46,245.54 329,225.5 C357.38,207.46 382.9764,186.7953 401.7564,170.7653 " fill="none" id="SaveGame-to-ShowGame" style="stroke:#181818;stroke-width:1.0;stroke-dasharray:7.0,7.0;"/><polygon fill="#181818" points="406.32,166.87,396.8777,169.6706,402.517,170.1161,402.0715,175.7554,406.32,166.87" style="stroke:#181818;stroke-width:1.0;"/><text fill="#000000" font-family="sans-serif" font-size="13" lengthAdjust="spacing" textLength="43" x="285" y="221.397">include</text></g><!--reverse link SaveGame to Logout--><g id="link_SaveGame_Logout"><path d="M226.129,313.6466 C245.109,319.8966 262.74,325.23 284,330.5 C317.34,338.77 355.71,345.68 384,350.29 " fill="none" id="SaveGame-backto-Logout" style="stroke:#181818;stroke-width:1.0;stroke-dasharray:7.0,7.0;"/><polygon fill="#181818" points="220.43,311.77,227.7274,318.3843,225.1791,313.3339,230.2295,310.7856,220.43,311.77" style="stroke:#181818;stroke-width:1.0;"/><text fill="#000000" font-family="sans-serif" font-size="13" lengthAdjust="spacing" textLength="42" x="285.5" y="326.397">extend</text></g><!--SRC=[XOvD3e8m44RtFSLSW1w063Okt9X8uWcQyWbDi3Lb4BszYD2V1N7PDzDvhyUDYHrvqtPCZV7GR9mLGcbsdkfUlU75E42h0NHshR7XTVHGZ9Ew8w3B0pO3ym6Dsa17T5NF_DDyrOqSvvsRbhdusQaegjMSW4IUqE1FM9AGq52HIxuXYukah48AbSRgVcmWedPdOIlO6SUOdOMjwz_u8ENQIoLU3Dk83m00]--></g></svg>