<?xml version="1.0" encoding="us-ascii" standalone="no"?><svg xmlns="http://www.w3.org/2000/svg" xmlns:xlink="http://www.w3.org/1999/xlink" contentStyleType="text/css" height="390px" preserveAspectRatio="none" style="width:258px;height:390px;background:#FFFFFF;" version="1.1" viewBox="0 0 258 390" width="258px" zoomAndPan="magnify"><defs/><g><!--entity Player--><g id="elem_Player"><ellipse cx="26.5" cy="164.5" fill="#F1F1F1" rx="8" ry="8" style="stroke:#181818;stroke-width:0.5;"/><path d="M26.5,172.5 L26.5,199.5 M13.5,180.5 L39.5,180.5 M26.5,199.5 L13.5,214.5 M26.5,199.5 L39.5,214.5 " fill="none" style="stroke:#181818;stroke-width:0.5;"/><text fill="#000000" font-family="sans-serif" font-size="14" lengthAdjust="spacing" textLength="41" x="6" y="230.9659">Player</text></g><g id="elem_Login"><ellipse cx="180.1781" cy="22.6892" fill="#F1F1F1" rx="38.1781" ry="16.6892" style="stroke:#181818;stroke-width:0.5;"/><text fill="#000000" font-family="sans-serif" font-size="14" lengthAdjust="spacing" textLength="37" x="158.6781" y="27.4222">Login</text></g><g id="elem_CreateGame"><ellipse cx="179.9592" cy="91.5418" fill="#F1F1F1" rx="72.9592" ry="17.0418" style="stroke:#181818;stroke-width:0.5;"/><text fill="#000000" font-family="sans-serif" font-size="14" lengthAdjust="spacing" textLength="83" x="135.4592" y="96.2748">CreateGame</text></g><g id="elem_OpenGame"><ellipse cx="180.1639" cy="160.5114" fill="#F1F1F1" rx="67.6639" ry="17.0114" style="stroke:#181818;stroke-width:0.5;"/><text fill="#000000" font-family="sans-serif" font-size="14" lengthAdjust="spacing" textLength="76" x="139.1639" y="165.2444">OpenGame</text></g><g id="elem_PlacePiece"><ellipse cx="180.1255" cy="229.4813" fill="#F1F1F1" rx="63.1255" ry="16.9813" style="stroke:#181818;stroke-width:0.5;"/><text fill="#000000" font-family="sans-serif" font-size="14" lengthAdjust="spacing" textLength="70" x="142.1255" y="234.2143">PlacePiece</text></g><g id="elem_SaveGame"><ellipse cx="180.1255" cy="298.4813" fill="#F1F1F1" rx="63.1255" ry="16.9813" style="stroke:#181818;stroke-width:0.5;"/><text fill="#000000" font-family="sans-serif" font-size="14" lengthAdjust="spacing" textLength="70" x="142.1255" y="303.2143">SaveGame</text></g><g id="elem_Logout"><ellipse cx="179.9784" cy="367.3007" fill="#F1F1F1" rx="44.9784" ry="16.8007" style="stroke:#181818;stroke-width:0.5;"/><text fill="#000000" font-family="sans-serif" font-size="14" lengthAdjust="spacing" textLength="46" x="153.9784" y="372.0337">Logout</text></g><!--link Player to Login--><g id="link_Player_Login"><path d="M42.41,155.83 C55.53,125.39 77.2,84.05 107,56.5 C118.88,45.52 129.3592,39.6735 143.2892,34.1735 " fill="none" id="Player-to-Login" style="stroke:#181818;stroke-width:1.0;"/><polygon fill="#181818" points="148.87,31.97,139.0299,31.5547,144.2194,33.8062,141.9678,38.9957,148.87,31.97" style="stroke:#181818;stroke-width:1.0;"/></g><!--link Player to CreateGame--><g id="link_Player_CreateGame"><path d="M47.13,175.38 C62.48,160.38 84.87,140.05 107,125.5 C118.09,118.21 125.5367,114.1123 137.3267,108.7023 " fill="none" id="Player-to-CreateGame" style="stroke:#181818;stroke-width:1.0;"/><polygon fill="#181818" points="142.78,106.2,132.9318,106.3179,138.2356,108.2853,136.2683,113.589,142.78,106.2" style="stroke:#181818;stroke-width:1.0;"/></g><!--link Player to OpenGame--><g id="link_Player_OpenGame"><path d="M47.31,190.92 C68.08,186.13 95.6941,179.7513 123.6841,173.2813 " fill="none" id="Player-to-OpenGame" style="stroke:#181818;stroke-width:1.0;"/><polygon fill="#181818" points="129.53,171.93,119.8604,170.0597,124.6585,173.0561,121.6621,177.8542,129.53,171.93" style="stroke:#181818;stroke-width:1.0;"/></g><!--link Player to PlacePiece--><g id="link_Player_PlacePiece"><path d="M47.31,199.94 C68.48,204.7 96.9755,211.0968 125.2855,217.4468 " fill="none" id="Player-to-PlacePiece" style="stroke:#181818;stroke-width:1.0;"/><polygon fill="#181818" points="131.14,218.76,123.2337,212.8872,126.2612,217.6657,121.4827,220.6932,131.14,218.76" style="stroke:#181818;stroke-width:1.0;"/></g><!--link Player to SaveGame--><g id="link_Player_SaveGame"><path d="M47.27,214.93 C62.7,229.44 85.12,249.17 107,263.5 C118.86,271.27 127.2649,275.8584 139.6249,281.6384 " fill="none" id="Player-to-SaveGame" style="stroke:#181818;stroke-width:1.0;"/><polygon fill="#181818" points="145.06,284.18,138.6018,276.7441,140.5308,282.062,135.213,283.9909,145.06,284.18" style="stroke:#181818;stroke-width:1.0;"/></g><!--link Player to Logout--><g id="link_Player_Logout"><path d="M42.9,235.12 C56.16,265.01 77.79,305.36 107,332.5 C118.1,342.81 127.2813,348.3356 140.5013,353.9756 " fill="none" id="Player-to-Logout" style="stroke:#181818;stroke-width:1.0;"/><polygon fill="#181818" points="146.02,356.33,139.3115,349.1192,141.421,354.368,136.1722,356.4775,146.02,356.33" style="stroke:#181818;stroke-width:1.0;"/></g><!--SRC=[LSr12i9038NXVKwH2_GARbou4InuWZ0-Qw1E94q5Rsz56JFB_93tpRW6Xx7hT0k-gAE4MYMI4kOyplA2qxgWo08-sgIrNNk710voHqkd1seNje62KL7-wIpF_cbRjJM8lXWFm-u7fP2iL1kNMX9JRMYFVDmt]--></g></svg>