<?xml version="1.0" encoding="us-ascii" standalone="no"?><svg xmlns="http://www.w3.org/2000/svg" xmlns:xlink="http://www.w3.org/1999/xlink" contentStyleType="text/css" height="1099px" preserveAspectRatio="none" style="width:679px;height:1099px;" version="1.1" viewBox="0 0 679 1099" width="679px" zoomAndPan="magnify"><defs><filter height="1" id="b147ve5k9tswlh0" width="1" x="0" y="0"><feFlood flood-color="#D3D3D3" result="flood"/><feComposite in="SourceGraphic" in2="flood" operator="over"/></filter><filter height="1" id="b147ve5k9tswlh1" width="1" x="0" y="0"><feFlood flood-color="#ADD8E6" result="flood"/><feComposite in="SourceGraphic" in2="flood" operator="over"/></filter></defs><g><ellipse cx="378" cy="21" fill="#FFFFFF" rx="10" ry="10" style="stroke:#000000;stroke-width:1.0;"/><rect fill="#D3D3D3" height="36.3441" rx="12.5" ry="12.5" style="stroke:#000000;stroke-width:1.0;" width="122" x="317" y="71"/><text fill="#000000" font-family="Verdana" font-size="12" lengthAdjust="spacing" textLength="102" x="327" y="93.8281">Inicio del Proyecto</text><rect fill="#D3D3D3" height="36.3441" rx="12.5" ry="12.5" style="stroke:#000000;stroke-width:1.0;" width="121" x="317.5" y="147"/><text fill="#000000" font-family="Verdana" font-size="12" lengthAdjust="spacing" textLength="101" x="327.5" y="169.8281">Exploraci&#243;n Inicial</text><rect fill="#ADD8E6" height="36.3441" rx="12.5" ry="12.5" style="stroke:#000000;stroke-width:1.0;" width="164" x="215" y="223"/><text fill="#000000" font-family="Verdana" font-size="12" lengthAdjust="spacing" textLength="144" x="225" y="245.8281">Diagrama de Clases Base</text><rect fill="#D3D3D3" height="36.3441" rx="12.5" ry="12.5" style="stroke:#000000;stroke-width:1.0;" width="179" x="288.5" y="299"/><text fill="#000000" font-family="Verdana" font-size="12" lengthAdjust="spacing" textLength="159" x="298.5" y="321.8281">Elaboraci&#243;n y Estructuraci&#243;n</text><rect fill="#ADD8E6" height="36.3441" rx="12.5" ry="12.5" style="stroke:#000000;stroke-width:1.0;" width="120" x="399" y="223"/><text fill="#000000" font-family="Verdana" font-size="12" lengthAdjust="spacing" textLength="100" x="409" y="245.8281">Inicio del Glosario</text><rect fill="#ADD8E6" height="36.3441" rx="12.5" ry="12.5" style="stroke:#000000;stroke-width:1.0;" width="173" x="206.5" y="375"/><text fill="#000000" font-family="Verdana" font-size="12" lengthAdjust="spacing" textLength="153" x="216.5" y="397.8281">Diagrama de Clases B&#225;sico</text><rect fill="#ADD8E6" height="36.3441" rx="12.5" ry="12.5" style="stroke:#000000;stroke-width:1.0;" width="128" x="400" y="375"/><text fill="#000000" font-family="Verdana" font-size="12" lengthAdjust="spacing" textLength="108" x="410" y="397.8281">Glosario Expandido</text><rect fill="#D3D3D3" height="36.3441" rx="12.5" ry="12.5" style="stroke:#000000;stroke-width:1.0;" width="146" x="305" y="451"/><text fill="#000000" font-family="Verdana" font-size="12" lengthAdjust="spacing" textLength="126" x="315" y="473.8281">Refinamiento y Detalle</text><rect fill="#ADD8E6" height="36.3441" rx="12.5" ry="12.5" style="stroke:#000000;stroke-width:1.0;" width="190" x="12" y="527"/><text fill="#000000" font-family="Verdana" font-size="12" lengthAdjust="spacing" textLength="170" x="22" y="549.8281">Diagrama de Clases Detallado</text><rect fill="#ADD8E6" height="36.3441" rx="12.5" ry="12.5" style="stroke:#000000;stroke-width:1.0;" width="145" x="222.5" y="527"/><text fill="#000000" font-family="Verdana" font-size="12" lengthAdjust="spacing" textLength="125" x="232.5" y="549.8281">Diagramas de Objetos</text><rect fill="#ADD8E6" height="36.3441" rx="12.5" ry="12.5" style="stroke:#000000;stroke-width:1.0;" width="146" x="388" y="527"/><text fill="#000000" font-family="Verdana" font-size="12" lengthAdjust="spacing" textLength="126" x="398" y="549.8281">Diagramas de Estados</text><rect fill="#ADD8E6" height="36.3441" rx="12.5" ry="12.5" style="stroke:#000000;stroke-width:1.0;" width="119" x="554.5" y="527"/><text fill="#000000" font-family="Verdana" font-size="12" lengthAdjust="spacing" textLength="99" x="564.5" y="549.8281">Glosario Refinado</text><rect fill="#D3D3D3" height="36.3441" rx="12.5" ry="12.5" style="stroke:#000000;stroke-width:1.0;" width="169" x="293.5" y="603"/><text fill="#000000" font-family="Verdana" font-size="12" lengthAdjust="spacing" textLength="149" x="303.5" y="625.8281">Profundizaci&#243;n y Extensi&#243;n</text><rect fill="#ADD8E6" height="36.3441" rx="12.5" ry="12.5" style="stroke:#000000;stroke-width:1.0;" width="191" x="78.5" y="679"/><text fill="#000000" font-family="Verdana" font-size="12" lengthAdjust="spacing" textLength="171" x="88.5" y="701.8281">Diagrama de Clases Extendido</text><rect fill="#ADD8E6" height="36.3441" rx="12.5" ry="12.5" style="stroke:#000000;stroke-width:1.0;" width="176" x="290" y="679"/><text fill="#000000" font-family="Verdana" font-size="12" lengthAdjust="spacing" textLength="156" x="300" y="701.8281">Diagramas de Colaboraci&#243;n</text><rect fill="#ADD8E6" height="36.3441" rx="12.5" ry="12.5" style="stroke:#000000;stroke-width:1.0;" width="96" x="486" y="679"/><text fill="#000000" font-family="Verdana" font-size="12" lengthAdjust="spacing" textLength="76" x="496" y="701.8281">Glosario Final</text><rect fill="#D3D3D3" height="36.3441" rx="12.5" ry="12.5" style="stroke:#000000;stroke-width:1.0;" width="153" x="301.5" y="755"/><text fill="#000000" font-family="Verdana" font-size="12" lengthAdjust="spacing" textLength="133" x="311.5" y="777.8281">Integraci&#243;n y Validaci&#243;n</text><rect fill="#ADD8E6" height="36.3441" rx="12.5" ry="12.5" style="stroke:#000000;stroke-width:1.0;" width="189" x="283.5" y="831"/><text fill="#000000" font-family="Verdana" font-size="12" lengthAdjust="spacing" textLength="169" x="293.5" y="853.8281">Modelo del Dominio Completo</text><rect fill="#D3D3D3" height="36.3441" rx="12.5" ry="12.5" style="stroke:#000000;stroke-width:1.0;" width="199" x="278.5" y="907"/><text fill="#000000" font-family="Verdana" font-size="12" lengthAdjust="spacing" textLength="179" x="288.5" y="929.8281">Documentaci&#243;n y Comunicaci&#243;n</text><ellipse cx="378" cy="994" fill="none" rx="11" ry="11" style="stroke:#000000;stroke-width:1.0;"/><ellipse cx="378" cy="994" fill="#FFFFFF" rx="6" ry="6" style="stroke:#000000;stroke-width:1.0;"/><!--link start to Inicio del Proyecto--><g id="link_start_Inicio del Proyecto"><path d="M378,31.18 C378,41.38 378,52.08 378,64.75 " fill="none" id="start-to-Inicio del Proyecto" style="stroke:#000000;stroke-width:1.0;"/><polygon fill="#000000" points="378,70.75,382,61.75,378,65.75,374,61.75,378,70.75" style="stroke:#000000;stroke-width:1.0;"/></g><!--link Inicio del Proyecto to Exploraci?n Inicial--><g id="link_Inicio del Proyecto_Exploraci&#243;n Inicial"><path d="M378,107.16 C378,119.12 378,129 378,140.93 " fill="none" id="Inicio del Proyecto-to-Exploraci&#243;n Inicial" style="stroke:#000000;stroke-width:1.0;"/><polygon fill="#000000" points="378,146.93,382,137.93,378,141.93,374,137.93,378,146.93" style="stroke:#000000;stroke-width:1.0;"/></g><!--link Exploraci?n Inicial to Diagrama de Clases Base--><g id="link_Exploraci&#243;n Inicial_Diagrama de Clases Base"><path d="M359.21,183.16 C346.13,195.12 333.1815,206.955 320.1115,218.885 " fill="none" id="Exploraci&#243;n Inicial-to-Diagrama de Clases Base" style="stroke:#000000;stroke-width:1.0;"/><polygon fill="#000000" points="315.68,222.93,325.0239,219.8169,319.3729,219.5592,319.6306,213.9082,315.68,222.93" style="stroke:#000000;stroke-width:1.0;"/></g><!--link Diagrama de Clases Base to Elaboraci?n y Estructuraci?n--><g id="link_Diagrama de Clases Base_Elaboraci&#243;n y Estructuraci&#243;n"><path d="M315.79,259.16 C328.87,271.12 341.8185,282.955 354.8885,294.885 " fill="none" id="Diagrama de Clases Base-to-Elaboraci&#243;n y Estructuraci&#243;n" style="stroke:#000000;stroke-width:1.0;"/><polygon fill="#000000" points="359.32,298.93,355.3694,289.9082,355.6271,295.5592,349.9761,295.8169,359.32,298.93" style="stroke:#000000;stroke-width:1.0;"/></g><!--link Exploraci?n Inicial to Inicio del Glosario--><g id="link_Exploraci&#243;n Inicial_Inicio del Glosario"><path d="M396.79,183.16 C409.87,195.12 422.8185,206.955 435.8885,218.885 " fill="none" id="Exploraci&#243;n Inicial-to-Inicio del Glosario" style="stroke:#000000;stroke-width:1.0;"/><polygon fill="#000000" points="440.32,222.93,436.3694,213.9082,436.6271,219.5592,430.9761,219.8169,440.32,222.93" style="stroke:#000000;stroke-width:1.0;"/></g><!--link Inicio del Glosario to Elaboraci?n y Estructuraci?n--><g id="link_Inicio del Glosario_Elaboraci&#243;n y Estructuraci&#243;n"><path d="M440.21,259.16 C427.13,271.12 414.1815,282.955 401.1115,294.885 " fill="none" id="Inicio del Glosario-to-Elaboraci&#243;n y Estructuraci&#243;n" style="stroke:#000000;stroke-width:1.0;"/><polygon fill="#000000" points="396.68,298.93,406.0239,295.8169,400.3729,295.5592,400.6306,289.9082,396.68,298.93" style="stroke:#000000;stroke-width:1.0;"/></g><!--link Elaboraci?n y Estructuraci?n to Diagrama de Clases B?sico--><g id="link_Elaboraci&#243;n y Estructuraci&#243;n_Diagrama de Clases B&#225;sico"><path d="M358.29,335.16 C344.55,347.12 330.8463,359.0614 317.1363,370.9914 " fill="none" id="Elaboraci&#243;n y Estructuraci&#243;n-to-Diagrama de Clases B&#225;sico" style="stroke:#000000;stroke-width:1.0;"/><polygon fill="#000000" points="312.61,374.93,322.0252,372.0396,316.3819,371.6478,316.7737,366.0045,312.61,374.93" style="stroke:#000000;stroke-width:1.0;"/></g><!--link Elaboraci?n y Estructuraci?n to Glosario Expandido--><g id="link_Elaboraci&#243;n y Estructuraci&#243;n_Glosario Expandido"><path d="M397.95,335.16 C411.84,347.12 425.7412,359.0874 439.6112,371.0174 " fill="none" id="Elaboraci&#243;n y Estructuraci&#243;n-to-Glosario Expandido" style="stroke:#000000;stroke-width:1.0;"/><polygon fill="#000000" points="444.16,374.93,439.9452,366.0286,440.3693,371.6695,434.7284,372.0937,444.16,374.93" style="stroke:#000000;stroke-width:1.0;"/></g><!--link Diagrama de Clases B?sico to Refinamiento y Detalle--><g id="link_Diagrama de Clases B&#225;sico_Refinamiento y Detalle"><path d="M312.71,411.16 C326.45,423.12 340.1537,435.0614 353.8637,446.9914 " fill="none" id="Diagrama de Clases B&#225;sico-to-Refinamiento y Detalle" style="stroke:#000000;stroke-width:1.0;"/><polygon fill="#000000" points="358.39,450.93,354.2263,442.0045,354.6181,447.6478,348.9748,448.0396,358.39,450.93" style="stroke:#000000;stroke-width:1.0;"/></g><!--link Glosario Expandido to Refinamiento y Detalle--><g id="link_Glosario Expandido_Refinamiento y Detalle"><path d="M444.05,411.16 C430.16,423.12 416.2588,435.0874 402.3888,447.0174 " fill="none" id="Glosario Expandido-to-Refinamiento y Detalle" style="stroke:#000000;stroke-width:1.0;"/><polygon fill="#000000" points="397.84,450.93,407.2716,448.0937,401.6307,447.6695,402.0548,442.0286,397.84,450.93" style="stroke:#000000;stroke-width:1.0;"/></g><!--link Refinamiento y Detalle to Diagrama de Clases Detallado--><g id="link_Refinamiento y Detalle_Diagrama de Clases Detallado"><path d="M315.49,487.07 C271.72,499.02 219.2581,513.3495 175.4581,525.3095 " fill="none" id="Refinamiento y Detalle-to-Diagrama de Clases Detallado" style="stroke:#000000;stroke-width:1.0;"/><polygon fill="#000000" points="169.67,526.89,179.4058,528.378,174.4934,525.5729,177.2985,520.6605,169.67,526.89" style="stroke:#000000;stroke-width:1.0;"/></g><!--link Refinamiento y Detalle to Diagramas de Objetos--><g id="link_Refinamiento y Detalle_Diagramas de Objetos"><path d="M358.75,487.16 C345.34,499.12 332.0084,511.007 318.6284,522.937 " fill="none" id="Refinamiento y Detalle-to-Diagramas de Objetos" style="stroke:#000000;stroke-width:1.0;"/><polygon fill="#000000" points="314.15,526.93,323.5296,523.926,317.882,523.6025,318.2055,517.9549,314.15,526.93" style="stroke:#000000;stroke-width:1.0;"/></g><!--link Refinamiento y Detalle to Diagramas de Estados--><g id="link_Refinamiento y Detalle_Diagramas de Estados"><path d="M397.25,487.16 C410.66,499.12 423.9916,511.007 437.3716,522.937 " fill="none" id="Refinamiento y Detalle-to-Diagramas de Estados" style="stroke:#000000;stroke-width:1.0;"/><polygon fill="#000000" points="441.85,526.93,437.7945,517.9549,438.118,523.6025,432.4704,523.926,441.85,526.93" style="stroke:#000000;stroke-width:1.0;"/></g><!--link Refinamiento y Detalle to Glosario Refinado--><g id="link_Refinamiento y Detalle_Glosario Refinado"><path d="M432.44,487.07 C470.55,499.02 515.5548,513.1351 553.7048,525.0951 " fill="none" id="Refinamiento y Detalle-to-Glosario Refinado" style="stroke:#000000;stroke-width:1.0;"/><polygon fill="#000000" points="559.43,526.89,552.0387,520.3809,554.659,525.3943,549.6456,528.0145,559.43,526.89" style="stroke:#000000;stroke-width:1.0;"/></g><!--link Diagrama de Clases Detallado to Profundizaci?n y Extensi?n--><g id="link_Diagrama de Clases Detallado_Profundizaci&#243;n y Extensi&#243;n"><path d="M169.51,563.07 C213.28,575.02 265.7419,589.3495 309.5419,601.3095 " fill="none" id="Diagrama de Clases Detallado-to-Profundizaci&#243;n y Extensi&#243;n" style="stroke:#000000;stroke-width:1.0;"/><polygon fill="#000000" points="315.33,602.89,307.7015,596.6605,310.5066,601.5729,305.5942,604.378,315.33,602.89" style="stroke:#000000;stroke-width:1.0;"/></g><!--link Diagramas de Objetos to Profundizaci?n y Extensi?n--><g id="link_Diagramas de Objetos_Profundizaci&#243;n y Extensi&#243;n"><path d="M314.25,563.16 C327.66,575.12 340.9916,587.007 354.3716,598.937 " fill="none" id="Diagramas de Objetos-to-Profundizaci&#243;n y Extensi&#243;n" style="stroke:#000000;stroke-width:1.0;"/><polygon fill="#000000" points="358.85,602.93,354.7945,593.9549,355.118,599.6025,349.4704,599.926,358.85,602.93" style="stroke:#000000;stroke-width:1.0;"/></g><!--link Diagramas de Estados to Profundizaci?n y Extensi?n--><g id="link_Diagramas de Estados_Profundizaci&#243;n y Extensi&#243;n"><path d="M441.75,563.16 C428.34,575.12 415.0084,587.007 401.6284,598.937 " fill="none" id="Diagramas de Estados-to-Profundizaci&#243;n y Extensi&#243;n" style="stroke:#000000;stroke-width:1.0;"/><polygon fill="#000000" points="397.15,602.93,406.5296,599.926,400.882,599.6025,401.2055,593.9549,397.15,602.93" style="stroke:#000000;stroke-width:1.0;"/></g><!--link Glosario Refinado to Profundizaci?n y Extensi?n--><g id="link_Glosario Refinado_Profundizaci&#243;n y Extensi&#243;n"><path d="M559.56,563.07 C521.45,575.02 476.4452,589.1351 438.2952,601.0951 " fill="none" id="Glosario Refinado-to-Profundizaci&#243;n y Extensi&#243;n" style="stroke:#000000;stroke-width:1.0;"/><polygon fill="#000000" points="432.57,602.89,442.3544,604.0145,437.341,601.3943,439.9613,596.3809,432.57,602.89" style="stroke:#000000;stroke-width:1.0;"/></g><!--link Profundizaci?n y Extensi?n to Diagrama de Clases Extendido--><g id="link_Profundizaci&#243;n y Extensi&#243;n_Diagrama de Clases Extendido"><path d="M330.94,639.07 C298,651.02 259.7906,664.8845 226.8106,676.8445 " fill="none" id="Profundizaci&#243;n y Extensi&#243;n-to-Diagrama de Clases Extendido" style="stroke:#000000;stroke-width:1.0;"/><polygon fill="#000000" points="221.17,678.89,230.9945,679.5821,225.8705,677.1854,228.2672,672.0614,221.17,678.89" style="stroke:#000000;stroke-width:1.0;"/></g><!--link Profundizaci?n y Extensi?n to Diagramas de Colaboraci?n--><g id="link_Profundizaci&#243;n y Extensi&#243;n_Diagramas de Colaboraci&#243;n"><path d="M378,639.16 C378,651.12 378,661 378,672.93 " fill="none" id="Profundizaci&#243;n y Extensi&#243;n-to-Diagramas de Colaboraci&#243;n" style="stroke:#000000;stroke-width:1.0;"/><polygon fill="#000000" points="378,678.93,382,669.93,378,673.93,374,669.93,378,678.93" style="stroke:#000000;stroke-width:1.0;"/></g><!--link Profundizaci?n y Extensi?n to Glosario Final--><g id="link_Profundizaci&#243;n y Extensi&#243;n_Glosario Final"><path d="M414.18,639.16 C439.38,651.12 467.439,664.4285 492.589,676.3585 " fill="none" id="Profundizaci&#243;n y Extensi&#243;n-to-Glosario Final" style="stroke:#000000;stroke-width:1.0;"/><polygon fill="#000000" points="498.01,678.93,491.5928,671.4588,493.4925,676.7871,488.1641,678.6868,498.01,678.93" style="stroke:#000000;stroke-width:1.0;"/></g><!--link Diagrama de Clases Extendido to Integraci?n y Validaci?n--><g id="link_Diagrama de Clases Extendido_Integraci&#243;n y Validaci&#243;n"><path d="M221.06,715.07 C254,727.02 292.2094,740.8845 325.1894,752.8445 " fill="none" id="Diagrama de Clases Extendido-to-Integraci&#243;n y Validaci&#243;n" style="stroke:#000000;stroke-width:1.0;"/><polygon fill="#000000" points="330.83,754.89,323.7328,748.0614,326.1295,753.1854,321.0055,755.5821,330.83,754.89" style="stroke:#000000;stroke-width:1.0;"/></g><!--link Diagramas de Colaboraci?n to Integraci?n y Validaci?n--><g id="link_Diagramas de Colaboraci&#243;n_Integraci&#243;n y Validaci&#243;n"><path d="M378,715.16 C378,727.12 378,737 378,748.93 " fill="none" id="Diagramas de Colaboraci&#243;n-to-Integraci&#243;n y Validaci&#243;n" style="stroke:#000000;stroke-width:1.0;"/><polygon fill="#000000" points="378,754.93,382,745.93,378,749.93,374,745.93,378,754.93" style="stroke:#000000;stroke-width:1.0;"/></g><!--link Glosario Final to Integraci?n y Validaci?n--><g id="link_Glosario Final_Integraci&#243;n y Validaci&#243;n"><path d="M497.82,715.16 C472.62,727.12 444.561,740.4285 419.411,752.3585 " fill="none" id="Glosario Final-to-Integraci&#243;n y Validaci&#243;n" style="stroke:#000000;stroke-width:1.0;"/><polygon fill="#000000" points="413.99,754.93,423.8359,754.6868,418.5075,752.7871,420.4072,747.4588,413.99,754.93" style="stroke:#000000;stroke-width:1.0;"/></g><!--link Integraci?n y Validaci?n to Modelo del Dominio Completo--><g id="link_Integraci&#243;n y Validaci&#243;n_Modelo del Dominio Completo"><path d="M378,791.16 C378,803.12 378,813 378,824.93 " fill="none" id="Integraci&#243;n y Validaci&#243;n-to-Modelo del Dominio Completo" style="stroke:#000000;stroke-width:1.0;"/><polygon fill="#000000" points="378,830.93,382,821.93,378,825.93,374,821.93,378,830.93" style="stroke:#000000;stroke-width:1.0;"/></g><!--link Modelo del Dominio Completo to Documentaci?n y Comunicaci?n--><g id="link_Modelo del Dominio Completo_Documentaci&#243;n y Comunicaci&#243;n"><path d="M378,867.16 C378,879.12 378,889 378,900.93 " fill="none" id="Modelo del Dominio Completo-to-Documentaci&#243;n y Comunicaci&#243;n" style="stroke:#000000;stroke-width:1.0;"/><polygon fill="#000000" points="378,906.93,382,897.93,378,901.93,374,897.93,378,906.93" style="stroke:#000000;stroke-width:1.0;"/></g><!--link Documentaci?n y Comunicaci?n to end--><g id="link_Documentaci&#243;n y Comunicaci&#243;n_end"><path d="M378,943.25 C378,955.82 378,966.4 378,976.89 " fill="none" id="Documentaci&#243;n y Comunicaci&#243;n-to-end" style="stroke:#000000;stroke-width:1.0;"/><polygon fill="#000000" points="378,982.89,382,973.89,378,977.89,374,973.89,378,982.89" style="stroke:#000000;stroke-width:1.0;"/></g><rect fill="none" height="71.2038" id="_legend" rx="7.5" ry="7.5" style="stroke:#000000;stroke-width:1.0;" width="172" x="488.5" y="1015"/><text fill="#000000" font-family="Verdana" font-size="14" lengthAdjust="spacing" textLength="35" x="493.5" y="1036.9659">Color</text><text fill="#000000" font-family="Verdana" font-size="14" lengthAdjust="spacing" textLength="75" x="532.5" y="1036.9659">Significado</text><text fill="#000000" filter="url(#b147ve5k9tswlh0)" font-family="Verdana" font-size="14" lengthAdjust="spacing" textLength="12" x="493.5" y="1056.0339">&#160;&#160;&#160;</text><text fill="#000000" font-family="Verdana" font-size="14" lengthAdjust="spacing" textLength="119" x="532.5" y="1056.0339">Etapa del Proceso</text><text fill="#000000" filter="url(#b147ve5k9tswlh1)" font-family="Verdana" font-size="14" lengthAdjust="spacing" textLength="12" x="493.5" y="1075.1018">&#160;&#160;&#160;</text><text fill="#000000" font-family="Verdana" font-size="14" lengthAdjust="spacing" textLength="61" x="532.5" y="1075.1018">Artefacto</text><line style="stroke:#000000;stroke-width:1.0;" x1="493.5" x2="655.5" y1="1022" y2="1022"/><line style="stroke:#000000;stroke-width:1.0;" x1="493.5" x2="655.5" y1="1041.0679" y2="1041.0679"/><line style="stroke:#000000;stroke-width:1.0;" x1="493.5" x2="655.5" y1="1060.1358" y2="1060.1358"/><line style="stroke:#000000;stroke-width:1.0;" x1="493.5" x2="655.5" y1="1079.2038" y2="1079.2038"/><line style="stroke:#000000;stroke-width:1.0;" x1="493.5" x2="493.5" y1="1022" y2="1079.2038"/><line style="stroke:#000000;stroke-width:1.0;" x1="528.5" x2="528.5" y1="1022" y2="1079.2038"/><line style="stroke:#000000;stroke-width:1.0;" x1="655.5" x2="655.5" y1="1022" y2="1079.2038"/><!--SRC=[fLNBRjim4BppApOvjG62tWj3GFre4215YmR8VItHoZOKAP1K4HV-cNn3FY4_bYLjouebMKfwqO6QcPtXO_VCtyj2GgcGj70Ff4kqMC0IquVScafdCwEC1MzHE_ubjHSD6AQU_f9VJz_29vE5nnAJ16uel_TN5jTZID-ibol-Q_R4gQga49ykFiFbPGBdrvfICf191R-iMKj6daDTIqJCuh5aBKpfvLb39A1gWUQ4EJj1beAPGYSTJFaRS0qFEq65orfm3GldRPNwQhVIb1OznO-zNodZq98vBjUD6MCYb1wmsPlxvSbHslOoIc_l4ZWuweoobeuuMJEA_9OhqbWGNot3bURIerAokR6TTKvnkMoVQjy-R07OJZ1EoGMfdyi_qXlt7mgypMpXdGhrxcnH8m-X4JYgy8jQyLEaVuSpV_HIk-DRtXDvM4FqH1t3x8WuWYO6GlNTXOZfkitlqOiXkR4Tdj57rEhWtpcs6dMm3VUxpkDbVdZ9TwWeQpUlaxw7T4JBvo13dFGLwJyCTy9jEvoRWZIhpqnHAkbDPwUUcxGg-8NKaeokkAMsmmOuJnKXbCnvhy26OIC0Dd4GRU2MSaqhPcO6Dc5z4kRXrtgO9G0m-HBMaWr4qVrGIgLhKy8OUqEfhJEKwszTY5S0]--></g></svg>