<?xml version="1.0" encoding="us-ascii" standalone="no"?><svg xmlns="http://www.w3.org/2000/svg" xmlns:xlink="http://www.w3.org/1999/xlink" contentStyleType="text/css" height="1020px" preserveAspectRatio="none" style="width:742px;height:1020px;background:#FFFFFF;" version="1.1" viewBox="0 0 742 1020" width="742px" zoomAndPan="magnify"><defs/><g><!--class Juego--><g id="elem_Juego"><rect codeLine="2" fill="#F1F1F1" height="124.2717" id="Juego" rx="2.5" ry="2.5" style="stroke:#181818;stroke-width:0.5;" width="70" x="495.5" y="7"/><ellipse cx="510.5" cy="23" fill="#ADD1B2" rx="11" ry="11" style="stroke:#181818;stroke-width:1.0;"/><path d="M513.4688,28.6406 Q512.8906,28.9375 512.25,29.0781 Q511.6094,29.2344 510.9063,29.2344 Q508.4063,29.2344 507.0781,27.5938 Q505.7656,25.9375 505.7656,22.8125 Q505.7656,19.6875 507.0781,18.0313 Q508.4063,16.375 510.9063,16.375 Q511.6094,16.375 512.25,16.5313 Q512.9063,16.6875 513.4688,16.9844 L513.4688,19.7031 Q512.8438,19.125 512.25,18.8594 Q511.6563,18.5781 511.0313,18.5781 Q509.6875,18.5781 509,19.6563 Q508.3125,20.7188 508.3125,22.8125 Q508.3125,24.9063 509,25.9844 Q509.6875,27.0469 511.0313,27.0469 Q511.6563,27.0469 512.25,26.7813 Q512.8438,26.5 513.4688,25.9219 L513.4688,28.6406 Z " fill="#000000"/><text fill="#000000" font-family="sans-serif" font-size="14" lengthAdjust="spacing" textLength="38" x="524.5" y="28.432">Juego</text><line style="stroke:#181818;stroke-width:0.5;" x1="496.5" x2="564.5" y1="39" y2="39"/><text fill="#000000" font-family="sans-serif" font-size="14" lengthAdjust="spacing" textLength="52" x="501.5" y="57.9659">puntaje</text><text fill="#000000" font-family="sans-serif" font-size="14" lengthAdjust="spacing" textLength="35" x="501.5" y="77.0339">vidas</text><text fill="#000000" font-family="sans-serif" font-size="14" lengthAdjust="spacing" textLength="32" x="501.5" y="96.1018">nivel</text><text fill="#000000" font-family="sans-serif" font-size="14" lengthAdjust="spacing" textLength="45" x="501.5" y="115.1697">estado</text><line style="stroke:#181818;stroke-width:0.5;" x1="496.5" x2="564.5" y1="123.2717" y2="123.2717"/></g><!--class Laberinto--><g id="elem_Laberinto"><rect codeLine="9" fill="#F1F1F1" height="86.1358" id="Laberinto" rx="2.5" ry="2.5" style="stroke:#181818;stroke-width:0.5;" width="96" x="291.5" y="200.5"/><ellipse cx="306.5" cy="216.5" fill="#ADD1B2" rx="11" ry="11" style="stroke:#181818;stroke-width:1.0;"/><path d="M309.4688,222.1406 Q308.8906,222.4375 308.25,222.5781 Q307.6094,222.7344 306.9063,222.7344 Q304.4063,222.7344 303.0781,221.0938 Q301.7656,219.4375 301.7656,216.3125 Q301.7656,213.1875 303.0781,211.5313 Q304.4063,209.875 306.9063,209.875 Q307.6094,209.875 308.25,210.0313 Q308.9063,210.1875 309.4688,210.4844 L309.4688,213.2031 Q308.8438,212.625 308.25,212.3594 Q307.6563,212.0781 307.0313,212.0781 Q305.6875,212.0781 305,213.1563 Q304.3125,214.2188 304.3125,216.3125 Q304.3125,218.4063 305,219.4844 Q305.6875,220.5469 307.0313,220.5469 Q307.6563,220.5469 308.25,220.2813 Q308.8438,220 309.4688,219.4219 L309.4688,222.1406 Z " fill="#000000"/><text fill="#000000" font-family="sans-serif" font-size="14" lengthAdjust="spacing" textLength="64" x="320.5" y="221.932">Laberinto</text><line style="stroke:#181818;stroke-width:0.5;" x1="292.5" x2="386.5" y1="232.5" y2="232.5"/><text fill="#000000" font-family="sans-serif" font-size="14" lengthAdjust="spacing" textLength="41" x="297.5" y="251.4659">ancho</text><text fill="#000000" font-family="sans-serif" font-size="14" lengthAdjust="spacing" textLength="25" x="297.5" y="270.5339">alto</text><line style="stroke:#181818;stroke-width:0.5;" x1="292.5" x2="386.5" y1="278.6358" y2="278.6358"/></g><!--class Casilla--><g id="elem_Casilla"><rect codeLine="14" fill="#F1F1F1" height="105.2038" id="Casilla" rx="2.5" ry="2.5" style="stroke:#181818;stroke-width:0.5;" width="85" x="241" y="356"/><ellipse cx="260.05" cy="372" fill="#ADD1B2" rx="11" ry="11" style="stroke:#181818;stroke-width:1.0;"/><path d="M263.0188,377.6406 Q262.4406,377.9375 261.8,378.0781 Q261.1594,378.2344 260.4563,378.2344 Q257.9563,378.2344 256.6281,376.5938 Q255.3156,374.9375 255.3156,371.8125 Q255.3156,368.6875 256.6281,367.0313 Q257.9563,365.375 260.4563,365.375 Q261.1594,365.375 261.8,365.5313 Q262.4563,365.6875 263.0188,365.9844 L263.0188,368.7031 Q262.3938,368.125 261.8,367.8594 Q261.2063,367.5781 260.5813,367.5781 Q259.2375,367.5781 258.55,368.6563 Q257.8625,369.7188 257.8625,371.8125 Q257.8625,373.9063 258.55,374.9844 Q259.2375,376.0469 260.5813,376.0469 Q261.2063,376.0469 261.8,375.7813 Q262.3938,375.5 263.0188,374.9219 L263.0188,377.6406 Z " fill="#000000"/><text fill="#000000" font-family="sans-serif" font-size="14" lengthAdjust="spacing" textLength="44" x="274.95" y="377.432">Casilla</text><line style="stroke:#181818;stroke-width:0.5;" x1="242" x2="325" y1="388" y2="388"/><text fill="#000000" font-family="sans-serif" font-size="14" lengthAdjust="spacing" textLength="56" x="247" y="406.9659">posici&#243;n</text><text fill="#000000" font-family="sans-serif" font-size="14" lengthAdjust="spacing" textLength="26" x="247" y="426.0339">tipo</text><text fill="#000000" font-family="sans-serif" font-size="14" lengthAdjust="spacing" textLength="73" x="247" y="445.1018">transitable</text><line style="stroke:#181818;stroke-width:0.5;" x1="242" x2="325" y1="453.2038" y2="453.2038"/></g><!--class Pacman--><g id="elem_Pacman"><rect codeLine="20" fill="#F1F1F1" height="105.2038" id="Pacman" rx="2.5" ry="2.5" style="stroke:#181818;stroke-width:0.5;" width="85" x="290" y="724"/><ellipse cx="305" cy="740" fill="#ADD1B2" rx="11" ry="11" style="stroke:#181818;stroke-width:1.0;"/><path d="M307.9688,745.6406 Q307.3906,745.9375 306.75,746.0781 Q306.1094,746.2344 305.4063,746.2344 Q302.9063,746.2344 301.5781,744.5938 Q300.2656,742.9375 300.2656,739.8125 Q300.2656,736.6875 301.5781,735.0313 Q302.9063,733.375 305.4063,733.375 Q306.1094,733.375 306.75,733.5313 Q307.4063,733.6875 307.9688,733.9844 L307.9688,736.7031 Q307.3438,736.125 306.75,735.8594 Q306.1563,735.5781 305.5313,735.5781 Q304.1875,735.5781 303.5,736.6563 Q302.8125,737.7188 302.8125,739.8125 Q302.8125,741.9063 303.5,742.9844 Q304.1875,744.0469 305.5313,744.0469 Q306.1563,744.0469 306.75,743.7813 Q307.3438,743.5 307.9688,742.9219 L307.9688,745.6406 Z " fill="#000000"/><text fill="#000000" font-family="sans-serif" font-size="14" lengthAdjust="spacing" textLength="53" x="319" y="745.432">Pacman</text><line style="stroke:#181818;stroke-width:0.5;" x1="291" x2="374" y1="756" y2="756"/><text fill="#000000" font-family="sans-serif" font-size="14" lengthAdjust="spacing" textLength="62" x="296" y="774.9659">direcci&#243;n</text><text fill="#000000" font-family="sans-serif" font-size="14" lengthAdjust="spacing" textLength="64" x="296" y="794.0339">velocidad</text><text fill="#000000" font-family="sans-serif" font-size="14" lengthAdjust="spacing" textLength="45" x="296" y="813.1018">estado</text><line style="stroke:#181818;stroke-width:0.5;" x1="291" x2="374" y1="821.2038" y2="821.2038"/></g><!--class Fantasma--><g id="elem_Fantasma"><rect codeLine="26" fill="#F1F1F1" height="143.3396" id="Fantasma" rx="2.5" ry="2.5" style="stroke:#181818;stroke-width:0.5;" width="97" x="549" y="521"/><ellipse cx="564" cy="537" fill="#ADD1B2" rx="11" ry="11" style="stroke:#181818;stroke-width:1.0;"/><path d="M566.9688,542.6406 Q566.3906,542.9375 565.75,543.0781 Q565.1094,543.2344 564.4063,543.2344 Q561.9063,543.2344 560.5781,541.5938 Q559.2656,539.9375 559.2656,536.8125 Q559.2656,533.6875 560.5781,532.0313 Q561.9063,530.375 564.4063,530.375 Q565.1094,530.375 565.75,530.5313 Q566.4063,530.6875 566.9688,530.9844 L566.9688,533.7031 Q566.3438,533.125 565.75,532.8594 Q565.1563,532.5781 564.5313,532.5781 Q563.1875,532.5781 562.5,533.6563 Q561.8125,534.7188 561.8125,536.8125 Q561.8125,538.9063 562.5,539.9844 Q563.1875,541.0469 564.5313,541.0469 Q565.1563,541.0469 565.75,540.7813 Q566.3438,540.5 566.9688,539.9219 L566.9688,542.6406 Z " fill="#000000"/><text fill="#000000" font-family="sans-serif" font-size="14" lengthAdjust="spacing" textLength="65" x="578" y="542.432">Fantasma</text><line style="stroke:#181818;stroke-width:0.5;" x1="550" x2="645" y1="553" y2="553"/><text fill="#000000" font-family="sans-serif" font-size="14" lengthAdjust="spacing" textLength="53" x="555" y="571.9659">nombre</text><text fill="#000000" font-family="sans-serif" font-size="14" lengthAdjust="spacing" textLength="33" x="555" y="591.0339">color</text><text fill="#000000" font-family="sans-serif" font-size="14" lengthAdjust="spacing" textLength="62" x="555" y="610.1018">direcci&#243;n</text><text fill="#000000" font-family="sans-serif" font-size="14" lengthAdjust="spacing" textLength="64" x="555" y="629.1697">velocidad</text><text fill="#000000" font-family="sans-serif" font-size="14" lengthAdjust="spacing" textLength="38" x="555" y="648.2376">modo</text><line style="stroke:#181818;stroke-width:0.5;" x1="550" x2="645" y1="656.3396" y2="656.3396"/></g><!--class Punto--><g id="elem_Punto"><rect codeLine="34" fill="#F1F1F1" height="67.0679" id="Punto" rx="2.5" ry="2.5" style="stroke:#181818;stroke-width:0.5;" width="71" x="7" y="917.5"/><ellipse cx="22" cy="933.5" fill="#ADD1B2" rx="11" ry="11" style="stroke:#181818;stroke-width:1.0;"/><path d="M24.9688,939.1406 Q24.3906,939.4375 23.75,939.5781 Q23.1094,939.7344 22.4063,939.7344 Q19.9063,939.7344 18.5781,938.0938 Q17.2656,936.4375 17.2656,933.3125 Q17.2656,930.1875 18.5781,928.5313 Q19.9063,926.875 22.4063,926.875 Q23.1094,926.875 23.75,927.0313 Q24.4063,927.1875 24.9688,927.4844 L24.9688,930.2031 Q24.3438,929.625 23.75,929.3594 Q23.1563,929.0781 22.5313,929.0781 Q21.1875,929.0781 20.5,930.1563 Q19.8125,931.2188 19.8125,933.3125 Q19.8125,935.4063 20.5,936.4844 Q21.1875,937.5469 22.5313,937.5469 Q23.1563,937.5469 23.75,937.2813 Q24.3438,937 24.9688,936.4219 L24.9688,939.1406 Z " fill="#000000"/><text fill="#000000" font-family="sans-serif" font-size="14" lengthAdjust="spacing" textLength="39" x="36" y="938.932">Punto</text><line style="stroke:#181818;stroke-width:0.5;" x1="8" x2="77" y1="949.5" y2="949.5"/><text fill="#000000" font-family="sans-serif" font-size="14" lengthAdjust="spacing" textLength="33" x="13" y="968.4659">valor</text><line style="stroke:#181818;stroke-width:0.5;" x1="8" x2="77" y1="976.5679" y2="976.5679"/></g><!--class PastillaEspecial--><g id="elem_PastillaEspecial"><rect codeLine="38" fill="#F1F1F1" height="86.1358" id="PastillaEspecial" rx="2.5" ry="2.5" style="stroke:#181818;stroke-width:0.5;" width="142" x="113.5" y="908"/><ellipse cx="131.65" cy="924" fill="#ADD1B2" rx="11" ry="11" style="stroke:#181818;stroke-width:1.0;"/><path d="M134.6188,929.6406 Q134.0406,929.9375 133.4,930.0781 Q132.7594,930.2344 132.0563,930.2344 Q129.5563,930.2344 128.2281,928.5938 Q126.9156,926.9375 126.9156,923.8125 Q126.9156,920.6875 128.2281,919.0313 Q129.5563,917.375 132.0563,917.375 Q132.7594,917.375 133.4,917.5313 Q134.0563,917.6875 134.6188,917.9844 L134.6188,920.7031 Q133.9938,920.125 133.4,919.8594 Q132.8063,919.5781 132.1813,919.5781 Q130.8375,919.5781 130.15,920.6563 Q129.4625,921.7188 129.4625,923.8125 Q129.4625,925.9063 130.15,926.9844 Q130.8375,928.0469 132.1813,928.0469 Q132.8063,928.0469 133.4,927.7813 Q133.9938,927.5 134.6188,926.9219 L134.6188,929.6406 Z " fill="#000000"/><text fill="#000000" font-family="sans-serif" font-size="14" lengthAdjust="spacing" textLength="103" x="146.35" y="929.432">PastillaEspecial</text><line style="stroke:#181818;stroke-width:0.5;" x1="114.5" x2="254.5" y1="940" y2="940"/><text fill="#000000" font-family="sans-serif" font-size="14" lengthAdjust="spacing" textLength="33" x="119.5" y="958.9659">valor</text><text fill="#000000" font-family="sans-serif" font-size="14" lengthAdjust="spacing" textLength="130" x="119.5" y="978.0339">duraci&#243;n del efecto</text><line style="stroke:#181818;stroke-width:0.5;" x1="114.5" x2="254.5" y1="986.1358" y2="986.1358"/></g><!--class Fruta--><g id="elem_Fruta"><rect codeLine="43" fill="#F1F1F1" height="86.1358" id="Fruta" rx="2.5" ry="2.5" style="stroke:#181818;stroke-width:0.5;" width="67" x="291" y="908"/><ellipse cx="306" cy="924" fill="#ADD1B2" rx="11" ry="11" style="stroke:#181818;stroke-width:1.0;"/><path d="M308.9688,929.6406 Q308.3906,929.9375 307.75,930.0781 Q307.1094,930.2344 306.4063,930.2344 Q303.9063,930.2344 302.5781,928.5938 Q301.2656,926.9375 301.2656,923.8125 Q301.2656,920.6875 302.5781,919.0313 Q303.9063,917.375 306.4063,917.375 Q307.1094,917.375 307.75,917.5313 Q308.4063,917.6875 308.9688,917.9844 L308.9688,920.7031 Q308.3438,920.125 307.75,919.8594 Q307.1563,919.5781 306.5313,919.5781 Q305.1875,919.5781 304.5,920.6563 Q303.8125,921.7188 303.8125,923.8125 Q303.8125,925.9063 304.5,926.9844 Q305.1875,928.0469 306.5313,928.0469 Q307.1563,928.0469 307.75,927.7813 Q308.3438,927.5 308.9688,926.9219 L308.9688,929.6406 Z " fill="#000000"/><text fill="#000000" font-family="sans-serif" font-size="14" lengthAdjust="spacing" textLength="35" x="320" y="929.432">Fruta</text><line style="stroke:#181818;stroke-width:0.5;" x1="292" x2="357" y1="940" y2="940"/><text fill="#000000" font-family="sans-serif" font-size="14" lengthAdjust="spacing" textLength="26" x="297" y="958.9659">tipo</text><text fill="#000000" font-family="sans-serif" font-size="14" lengthAdjust="spacing" textLength="33" x="297" y="978.0339">valor</text><line style="stroke:#181818;stroke-width:0.5;" x1="292" x2="357" y1="986.1358" y2="986.1358"/></g><!--class EstadoJuego--><g id="elem_EstadoJuego"><rect codeLine="48" fill="#F1F1F1" height="105.2038" id="EstadoJuego" rx="2.5" ry="2.5" style="stroke:#181818;stroke-width:0.5;" width="115" x="620" y="191"/><ellipse cx="635" cy="207" fill="#EB937F" rx="11" ry="11" style="stroke:#181818;stroke-width:1.0;"/><path d="M639.1094,213 L631.3906,213 L631.3906,200.6094 L639.1094,200.6094 L639.1094,202.7656 L633.8438,202.7656 L633.8438,205.4375 L638.6094,205.4375 L638.6094,207.5938 L633.8438,207.5938 L633.8438,210.8438 L639.1094,210.8438 L639.1094,213 Z " fill="#000000"/><text fill="#000000" font-family="sans-serif" font-size="14" lengthAdjust="spacing" textLength="83" x="649" y="212.432">EstadoJuego</text><line style="stroke:#181818;stroke-width:0.5;" x1="621" x2="734" y1="223" y2="223"/><text fill="#000000" font-family="sans-serif" font-size="14" lengthAdjust="spacing" textLength="72" x="626" y="241.9659">EN_CURSO</text><text fill="#000000" font-family="sans-serif" font-size="14" lengthAdjust="spacing" textLength="65" x="626" y="261.0339">PAUSADO</text><text fill="#000000" font-family="sans-serif" font-size="14" lengthAdjust="spacing" textLength="84" x="626" y="280.1018">TERMINADO</text><line style="stroke:#181818;stroke-width:0.5;" x1="621" x2="734" y1="288.2038" y2="288.2038"/></g><!--class TipoCasilla--><g id="elem_TipoCasilla"><rect codeLine="54" fill="#F1F1F1" height="105.2038" id="TipoCasilla" rx="2.5" ry="2.5" style="stroke:#181818;stroke-width:0.5;" width="105" x="337" y="540"/><ellipse cx="352" cy="556" fill="#EB937F" rx="11" ry="11" style="stroke:#181818;stroke-width:1.0;"/><path d="M356.1094,562 L348.3906,562 L348.3906,549.6094 L356.1094,549.6094 L356.1094,551.7656 L350.8438,551.7656 L350.8438,554.4375 L355.6094,554.4375 L355.6094,556.5938 L350.8438,556.5938 L350.8438,559.8438 L356.1094,559.8438 L356.1094,562 Z " fill="#000000"/><text fill="#000000" font-family="sans-serif" font-size="14" lengthAdjust="spacing" textLength="73" x="366" y="561.432">TipoCasilla</text><line style="stroke:#181818;stroke-width:0.5;" x1="338" x2="441" y1="572" y2="572"/><text fill="#000000" font-family="sans-serif" font-size="14" lengthAdjust="spacing" textLength="40" x="343" y="590.9659">VACIA</text><text fill="#000000" font-family="sans-serif" font-size="14" lengthAdjust="spacing" textLength="43" x="343" y="610.0339">MURO</text><text fill="#000000" font-family="sans-serif" font-size="14" lengthAdjust="spacing" textLength="44" x="343" y="629.1018">TUNEL</text><line style="stroke:#181818;stroke-width:0.5;" x1="338" x2="441" y1="637.2038" y2="637.2038"/></g><!--class EstadoPacman--><g id="elem_EstadoPacman"><rect codeLine="60" fill="#F1F1F1" height="105.2038" id="EstadoPacman" rx="2.5" ry="2.5" style="stroke:#181818;stroke-width:0.5;" width="130" x="393.5" y="898.5"/><ellipse cx="408.5" cy="914.5" fill="#EB937F" rx="11" ry="11" style="stroke:#181818;stroke-width:1.0;"/><path d="M412.6094,920.5 L404.8906,920.5 L404.8906,908.1094 L412.6094,908.1094 L412.6094,910.2656 L407.3438,910.2656 L407.3438,912.9375 L412.1094,912.9375 L412.1094,915.0938 L407.3438,915.0938 L407.3438,918.3438 L412.6094,918.3438 L412.6094,920.5 Z " fill="#000000"/><text fill="#000000" font-family="sans-serif" font-size="14" lengthAdjust="spacing" textLength="98" x="422.5" y="919.932">EstadoPacman</text><line style="stroke:#181818;stroke-width:0.5;" x1="394.5" x2="522.5" y1="930.5" y2="930.5"/><text fill="#000000" font-family="sans-serif" font-size="14" lengthAdjust="spacing" textLength="60" x="399.5" y="949.4659">NORMAL</text><text fill="#000000" font-family="sans-serif" font-size="14" lengthAdjust="spacing" textLength="81" x="399.5" y="968.5339">INVENCIBLE</text><text fill="#000000" font-family="sans-serif" font-size="14" lengthAdjust="spacing" textLength="59" x="399.5" y="987.6018">MUERTO</text><line style="stroke:#181818;stroke-width:0.5;" x1="394.5" x2="522.5" y1="995.7038" y2="995.7038"/></g><!--class ModoFantasma--><g id="elem_ModoFantasma"><rect codeLine="66" fill="#F1F1F1" height="105.2038" id="ModoFantasma" rx="2.5" ry="2.5" style="stroke:#181818;stroke-width:0.5;" width="135" x="418" y="724"/><ellipse cx="433" cy="740" fill="#EB937F" rx="11" ry="11" style="stroke:#181818;stroke-width:1.0;"/><path d="M437.1094,746 L429.3906,746 L429.3906,733.6094 L437.1094,733.6094 L437.1094,735.7656 L431.8438,735.7656 L431.8438,738.4375 L436.6094,738.4375 L436.6094,740.5938 L431.8438,740.5938 L431.8438,743.8438 L437.1094,743.8438 L437.1094,746 Z " fill="#000000"/><text fill="#000000" font-family="sans-serif" font-size="14" lengthAdjust="spacing" textLength="103" x="447" y="745.432">ModoFantasma</text><line style="stroke:#181818;stroke-width:0.5;" x1="419" x2="552" y1="756" y2="756"/><text fill="#000000" font-family="sans-serif" font-size="14" lengthAdjust="spacing" textLength="75" x="424" y="774.9659">PERSEGUIR</text><text fill="#000000" font-family="sans-serif" font-size="14" lengthAdjust="spacing" textLength="86" x="424" y="794.0339">VULNERABLE</text><text fill="#000000" font-family="sans-serif" font-size="14" lengthAdjust="spacing" textLength="68" x="424" y="813.1018">HUYENDO</text><line style="stroke:#181818;stroke-width:0.5;" x1="419" x2="552" y1="821.2038" y2="821.2038"/></g><!--class Direcci?n--><g id="elem_Direcci&#243;n"><rect codeLine="72" fill="#F1F1F1" height="124.2717" id="Direcci&#243;n" rx="2.5" ry="2.5" style="stroke:#181818;stroke-width:0.5;" width="95" x="559" y="889"/><ellipse cx="574" cy="905" fill="#EB937F" rx="11" ry="11" style="stroke:#181818;stroke-width:1.0;"/><path d="M578.1094,911 L570.3906,911 L570.3906,898.6094 L578.1094,898.6094 L578.1094,900.7656 L572.8438,900.7656 L572.8438,903.4375 L577.6094,903.4375 L577.6094,905.5938 L572.8438,905.5938 L572.8438,908.8438 L578.1094,908.8438 L578.1094,911 Z " fill="#000000"/><text fill="#000000" font-family="sans-serif" font-size="14" lengthAdjust="spacing" textLength="63" x="588" y="910.432">Direcci&#243;n</text><line style="stroke:#181818;stroke-width:0.5;" x1="560" x2="653" y1="921" y2="921"/><text fill="#000000" font-family="sans-serif" font-size="14" lengthAdjust="spacing" textLength="50" x="565" y="939.9659">ARRIBA</text><text fill="#000000" font-family="sans-serif" font-size="14" lengthAdjust="spacing" textLength="42" x="565" y="959.0339">ABAJO</text><text fill="#000000" font-family="sans-serif" font-size="14" lengthAdjust="spacing" textLength="75" x="565" y="978.1018">IZQUIERDA</text><text fill="#000000" font-family="sans-serif" font-size="14" lengthAdjust="spacing" textLength="63" x="565" y="997.1697">DERECHA</text><line style="stroke:#181818;stroke-width:0.5;" x1="560" x2="653" y1="1005.2717" y2="1005.2717"/></g><!--reverse link Juego to Laberinto--><g id="link_Juego_Laberinto"><path codeLine="79" d="M486.5635,109.682 C455.8635,137.402 419.93,169.86 386.19,200.33 " fill="none" id="Juego-backto-Laberinto" style="stroke:#181818;stroke-width:1.0;"/><polygon fill="#181818" points="495.47,101.64,488.3361,102.6922,486.5635,109.682,493.6974,108.6298,495.47,101.64" style="stroke:#181818;stroke-width:1.0;"/></g><!--reverse link Juego to Pacman--><g id="link_Juego_Pacman"><path codeLine="80" d="M528.2545,143.1221 C523.4445,275.5621 507.7,572.45 459.5,664 C449.32,683.34 407.96,717.94 375.18,743.48 " fill="none" id="Juego-backto-Pacman" style="stroke:#181818;stroke-width:1.0;"/><polygon fill="#181818" points="528.69,131.13,524.4749,136.9809,528.2545,143.1221,532.4696,137.2712,528.69,131.13" style="stroke:#181818;stroke-width:1.0;"/></g><!--reverse link Juego to Fantasma--><g id="link_Juego_Fantasma"><path codeLine="81" d="M539.8789,143.0022 C552.3689,240.2322 575.18,417.78 588.41,520.75 " fill="none" id="Juego-backto-Fantasma" style="stroke:#181818;stroke-width:1.0;"/><polygon fill="#181818" points="538.35,131.1,535.1471,137.5607,539.8789,143.0022,543.0819,136.5415,538.35,131.1" style="stroke:#181818;stroke-width:1.0;"/></g><!--reverse link Laberinto to Casilla--><g id="link_Laberinto_Casilla"><path codeLine="82" d="M321.0351,298.2503 C313.8151,319.2903 308.91,333.53 301.29,355.71 " fill="none" id="Laberinto-backto-Casilla" style="stroke:#181818;stroke-width:1.0;"/><polygon fill="#181818" points="324.93,286.9,319.1991,291.2768,321.0351,298.2503,326.766,293.8735,324.93,286.9" style="stroke:#181818;stroke-width:1.0;"/></g><!--link Casilla to Pacman--><g id="link_Casilla_Pacman"><path codeLine="83" d="M290.42,461.16 C299.74,530.82 316.25,654.13 325.58,723.8 " fill="none" id="Casilla-Pacman" style="stroke:#181818;stroke-width:1.0;"/></g><!--link Casilla to Fantasma--><g id="link_Casilla_Fantasma"><path codeLine="84" d="M326.17,434.23 C384.28,467.91 488,528.03 548.99,563.38 " fill="none" id="Casilla-Fantasma" style="stroke:#181818;stroke-width:1.0;"/></g><!--reverse link Casilla to Punto--><g id="link_Casilla_Punto"><path codeLine="85" d="M243.1778,471.4333 C231.6978,489.9133 225.58,500.94 215.5,521 C143.59,664.17 78.69,844.73 53.55,917.46 " fill="none" id="Casilla-backto-Punto" style="stroke:#181818;stroke-width:1.0;"/><polygon fill="none" points="249.51,461.24,242.9461,464.2259,243.1778,471.4333,249.7417,468.4474,249.51,461.24" style="stroke:#181818;stroke-width:1.0;"/></g><!--reverse link Casilla to PastillaEspecial--><g id="link_Casilla_PastillaEspecial"><path codeLine="86" d="M263.1763,472.5102 C257.4763,491.2402 254.93,501.2 250.5,521 C219.1,661.27 197.85,830.69 189.06,907.93 " fill="none" id="Casilla-backto-PastillaEspecial" style="stroke:#181818;stroke-width:1.0;"/><polygon fill="none" points="266.67,461.03,261.0964,465.6055,263.1763,472.5102,268.7499,467.9346,266.67,461.03" style="stroke:#181818;stroke-width:1.0;"/></g><!--reverse link Casilla to Fruta--><g id="link_Casilla_Fruta"><path codeLine="87" d="M272.8908,473.0474 C260.9208,552.8874 245.7,698.77 272.5,829 C278.15,856.43 290.29,885.32 301.43,907.98 " fill="none" id="Casilla-backto-Fruta" style="stroke:#181818;stroke-width:1.0;"/><polygon fill="none" points="274.67,461.18,269.8246,466.5206,272.8908,473.0474,277.7362,467.7068,274.67,461.18" style="stroke:#181818;stroke-width:1.0;"/></g><!--link Pacman to Punto--><g id="link_Pacman_Punto"><path codeLine="88" d="M289.78,791.47 C239.95,809.1 156.61,842.78 95.5,889 C84.98,896.96 75.04,907.29 66.68,917.19 " fill="none" id="Pacman-Punto" style="stroke:#181818;stroke-width:1.0;"/></g><!--link Pacman to PastillaEspecial--><g id="link_Pacman_PastillaEspecial"><path codeLine="89" d="M289.69,827.39 C267.84,852.87 241.54,883.52 220.7,907.8 " fill="none" id="Pacman-PastillaEspecial" style="stroke:#181818;stroke-width:1.0;"/></g><!--link Pacman to Fruta--><g id="link_Pacman_Fruta"><path codeLine="90" d="M330.1,829.26 C328.94,854.36 327.55,884.14 326.46,907.84 " fill="none" id="Pacman-Fruta" style="stroke:#181818;stroke-width:1.0;"/></g><!--link Fantasma to Pacman--><g id="link_Fantasma_Pacman"><path codeLine="91" d="M548.95,642.31 C540.17,650.02 530.83,657.56 521.5,664 C472.1,698.1 451.54,692.41 400.5,724 C392.06,729.22 383.38,735.24 375.17,741.28 " fill="none" id="Fantasma-Pacman" style="stroke:#181818;stroke-width:1.0;"/></g><!--link Juego to EstadoJuego--><g id="link_Juego_EstadoJuego"><path codeLine="93" d="M565.71,111.32 C586.01,135.14 611.72,165.31 633.36,190.7 " fill="none" id="Juego-EstadoJuego" style="stroke:#181818;stroke-width:1.0;stroke-dasharray:7.0,7.0;"/></g><!--link Casilla to TipoCasilla--><g id="link_Casilla_TipoCasilla"><path codeLine="94" d="M313.59,461.17 C327.91,485.76 345,515.1 359.33,539.7 " fill="none" id="Casilla-TipoCasilla" style="stroke:#181818;stroke-width:1.0;stroke-dasharray:7.0,7.0;"/></g><!--link Pacman to EstadoPacman--><g id="link_Pacman_EstadoPacman"><path codeLine="95" d="M370.3,829.26 C386.25,851.09 404.78,876.45 420.72,898.28 " fill="none" id="Pacman-EstadoPacman" style="stroke:#181818;stroke-width:1.0;stroke-dasharray:7.0,7.0;"/></g><!--link Pacman to Direcci?n--><g id="link_Pacman_Direcci&#243;n"><path codeLine="96" d="M375.3,812.4 C383.43,818.3 392.04,824.1 400.5,829 C459.42,863.15 484.46,851.79 541.5,889 C547.33,892.8 553.12,897.16 558.71,901.75 " fill="none" id="Pacman-Direcci&#243;n" style="stroke:#181818;stroke-width:1.0;stroke-dasharray:7.0,7.0;"/></g><!--link Fantasma to ModoFantasma--><g id="link_Fantasma_ModoFantasma"><path codeLine="97" d="M554.04,664.13 C541.8,684.01 528.72,705.26 517.31,723.82 " fill="none" id="Fantasma-ModoFantasma" style="stroke:#181818;stroke-width:1.0;stroke-dasharray:7.0,7.0;"/></g><!--link Fantasma to Direcci?n--><g id="link_Fantasma_Direcci&#243;n"><path codeLine="98" d="M599.29,664.36 C600.94,729.95 603.38,826.46 604.95,888.78 " fill="none" id="Fantasma-Direcci&#243;n" style="stroke:#181818;stroke-width:1.0;stroke-dasharray:7.0,7.0;"/></g><!--SRC=[XL9BReCm5Dnp2jQLaZiuu3HKG58dH6etbMFSrfMn8soogNgg7g4NAzWO6rIfh9w7Ds_cVGZ7IiKF7NsJyMSKzz-r4nf_K1FVM8sLYGIxKMuYgZIkPVGLHSHmStoXBHFQyR4Wxz96N0Tv2LQCS-nKf6A4_NmByzBiQYcwnK8nZI-SUkO1amQBaLYpbXBFx5r9qhki__IsnNqlgd6YGZQNrdP699Vj_mKR6POxTBxD6nuA11wL7jg3wae9mtoMPMIw5XkLkAOyfg-KXCFPjfrsBgTXJ19KT4qCJM_Xfc3vabJek3UF0wYE8BNn2Q8YAuUN8v_wclC5d46I0HCL5HffLGdpXTvizkKU5I0tOLQUOPbacnoEDI0wURcY7zjYzWU8Zl2-of1Lh_8I8k3ek-e9be7TTDh9o0O8PHjh5sp0W_MRFJzM6KIfnLE8OB83GmqxfBlLoXzdWDcM0i0vZVmf3_0uhyZDpLC3PE8wJ0vfmvtCaSLvp7wQvKVZf2Twy5wI_IzBdKRjBOxjhTVXtKogFHnSXAit9OyrFEptuRLwE5ppx4UG_mi0]--></g></svg>