<?xml version="1.0" encoding="us-ascii" standalone="no"?><svg xmlns="http://www.w3.org/2000/svg" xmlns:xlink="http://www.w3.org/1999/xlink" contentStyleType="text/css" height="777px" preserveAspectRatio="none" style="width:435px;height:777px;background:#FFFFFF;" version="1.1" viewBox="0 0 435 777" width="435px" zoomAndPan="magnify"><defs/><g><!--cluster alcance--><g id="cluster_alcance"><path d="M8.5,486 L60.5,486 A3.75,3.75 0 0 1 63,488.5 L70,511.0679 L149.5,511.0679 A2.5,2.5 0 0 1 152,513.5679 L152,678.5 A2.5,2.5 0 0 1 149.5,681 L8.5,681 A2.5,2.5 0 0 1 6,678.5 L6,488.5 A2.5,2.5 0 0 1 8.5,486 " fill="none" style="stroke:#000000;stroke-width:1.5;"/><line style="stroke:#000000;stroke-width:1.5;" x1="6" x2="70" y1="511.0679" y2="511.0679"/><text fill="#000000" font-family="sans-serif" font-size="14" font-weight="bold" lengthAdjust="spacing" textLength="51" x="10" y="502.9659">alcance</text></g><!--cluster tiempo--><g id="cluster_tiempo"><path d="M178.5,104 L229.5,104 A3.75,3.75 0 0 1 232,106.5 L239,129.0679 L301.5,129.0679 A2.5,2.5 0 0 1 304,131.5679 L304,589.5 A2.5,2.5 0 0 1 301.5,592 L178.5,592 A2.5,2.5 0 0 1 176,589.5 L176,106.5 A2.5,2.5 0 0 1 178.5,104 " fill="none" style="stroke:#000000;stroke-width:1.5;"/><line style="stroke:#000000;stroke-width:1.5;" x1="176" x2="239" y1="129.0679" y2="129.0679"/><text fill="#000000" font-family="sans-serif" font-size="14" font-weight="bold" lengthAdjust="spacing" textLength="50" x="180" y="120.9659">tiempo</text></g><!--cluster costos--><g id="cluster_costos"><path d="M330.5,486 L376.5,486 A3.75,3.75 0 0 1 379,488.5 L386,511.0679 L425.5,511.0679 A2.5,2.5 0 0 1 428,513.5679 L428,767.5 A2.5,2.5 0 0 1 425.5,770 L330.5,770 A2.5,2.5 0 0 1 328,767.5 L328,488.5 A2.5,2.5 0 0 1 330.5,486 " fill="none" style="stroke:#000000;stroke-width:1.5;"/><line style="stroke:#000000;stroke-width:1.5;" x1="328" x2="386" y1="511.0679" y2="511.0679"/><text fill="#000000" font-family="sans-serif" font-size="14" font-weight="bold" lengthAdjust="spacing" textLength="45" x="332" y="502.9659">costos</text></g><!--class Requerimientos--><g id="elem_Requerimientos"><rect codeLine="12" fill="#F1F1F1" height="29.0679" id="Requerimientos" rx="2.5" ry="2.5" style="stroke:#181818;stroke-width:0.5;" width="113" x="22.5" y="524"/><text fill="#000000" font-family="sans-serif" font-size="14" lengthAdjust="spacing" textLength="107" x="25.5" y="543.9659">Requerimientos</text></g><!--class CasoDeUso--><g id="elem_CasoDeUso"><rect codeLine="13" fill="#F1F1F1" height="29.0679" id="CasoDeUso" rx="2.5" ry="2.5" style="stroke:#181818;stroke-width:0.5;" width="81" x="46.5" y="636"/><text fill="#000000" font-family="sans-serif" font-size="14" lengthAdjust="spacing" textLength="75" x="49.5" y="655.9659">CasoDeUso</text></g><!--class Fase--><g id="elem_Fase"><rect codeLine="17" fill="#F1F1F1" height="75.2038" id="Fase" rx="2.5" ry="2.5" style="stroke:#181818;stroke-width:0.5;" width="95" x="192.5" y="142"/><text fill="#000000" font-family="sans-serif" font-size="14" lengthAdjust="spacing" textLength="30" x="225" y="161.9659">Fase</text><line style="stroke:#181818;stroke-width:0.5;" x1="193.5" x2="286.5" y1="171.0679" y2="171.0679"/><text fill="#000000" font-family="sans-serif" font-size="14" lengthAdjust="spacing" textLength="83" x="198.5" y="190.0339">inicio: Fecha</text><text fill="#000000" font-family="sans-serif" font-size="14" lengthAdjust="spacing" textLength="65" x="198.5" y="209.1018">fin: Fecha</text></g><!--class Iteracion--><g id="elem_Iteracion"><rect codeLine="21" fill="#F1F1F1" height="75.2038" id="Iteracion" rx="2.5" ry="2.5" style="stroke:#181818;stroke-width:0.5;" width="95" x="192.5" y="277"/><text fill="#000000" font-family="sans-serif" font-size="14" lengthAdjust="spacing" textLength="60" x="210" y="296.9659">Iteracion</text><line style="stroke:#181818;stroke-width:0.5;" x1="193.5" x2="286.5" y1="306.0679" y2="306.0679"/><text fill="#000000" font-family="sans-serif" font-size="14" lengthAdjust="spacing" textLength="83" x="198.5" y="325.0339">inicio: Fecha</text><text fill="#000000" font-family="sans-serif" font-size="14" lengthAdjust="spacing" textLength="65" x="198.5" y="344.1018">fin: Fecha</text></g><!--class Disciplina--><g id="elem_Disciplina"><rect codeLine="25" fill="#F1F1F1" height="29.0679" id="Disciplina" rx="2.5" ry="2.5" style="stroke:#181818;stroke-width:0.5;" width="72" x="204" y="412"/><text fill="#000000" font-family="sans-serif" font-size="14" lengthAdjust="spacing" textLength="66" x="207" y="431.9659">Disciplina</text></g><!--class Actividad--><g id="elem_Actividad"><rect codeLine="26" fill="#F1F1F1" height="75.2038" id="Actividad" rx="2.5" ry="2.5" style="stroke:#181818;stroke-width:0.5;" width="88" x="196" y="501"/><text fill="#000000" font-family="sans-serif" font-size="14" lengthAdjust="spacing" textLength="62" x="209" y="520.9659">Actividad</text><line style="stroke:#181818;stroke-width:0.5;" x1="197" x2="283" y1="530.0679" y2="530.0679"/><text fill="#000000" font-family="sans-serif" font-size="14" lengthAdjust="spacing" textLength="76" x="202" y="549.0339">inicio: Hora</text><text fill="#000000" font-family="sans-serif" font-size="14" lengthAdjust="spacing" textLength="58" x="202" y="568.1018">fin: Hora</text></g><!--class Equipo--><g id="elem_Equipo"><rect codeLine="33" fill="#F1F1F1" height="29.0679" id="Equipo" rx="2.5" ry="2.5" style="stroke:#181818;stroke-width:0.5;" width="53" x="347.5" y="524"/><text fill="#000000" font-family="sans-serif" font-size="14" lengthAdjust="spacing" textLength="47" x="350.5" y="543.9659">Equipo</text></g><!--class Miembro--><g id="elem_Miembro"><rect codeLine="34" fill="#F1F1F1" height="29.0679" id="Miembro" rx="2.5" ry="2.5" style="stroke:#181818;stroke-width:0.5;" width="67" x="344.5" y="636"/><text fill="#000000" font-family="sans-serif" font-size="14" lengthAdjust="spacing" textLength="61" x="347.5" y="655.9659">Miembro</text></g><!--class Rol--><g id="elem_Rol"><rect codeLine="35" fill="#F1F1F1" height="29.0679" id="Rol" rx="2.5" ry="2.5" style="stroke:#181818;stroke-width:0.5;" width="27" x="364.5" y="725"/><text fill="#000000" font-family="sans-serif" font-size="14" lengthAdjust="spacing" textLength="21" x="367.5" y="744.9659">Rol</text></g><!--class Proyecto--><g id="elem_Proyecto"><rect codeLine="6" fill="#F1F1F1" height="75.2038" id="Proyecto" rx="2.5" ry="2.5" style="stroke:#181818;stroke-width:0.5;" width="95" x="192.5" y="7"/><text fill="#000000" font-family="sans-serif" font-size="14" lengthAdjust="spacing" textLength="57" x="211.5" y="26.9659">Proyecto</text><line style="stroke:#181818;stroke-width:0.5;" x1="193.5" x2="286.5" y1="36.0679" y2="36.0679"/><text fill="#000000" font-family="sans-serif" font-size="14" lengthAdjust="spacing" textLength="83" x="198.5" y="55.0339">inicio: Fecha</text><text fill="#000000" font-family="sans-serif" font-size="14" lengthAdjust="spacing" textLength="65" x="198.5" y="74.1018">fin: Fecha</text></g><!--link Proyecto to Requerimientos--><g id="link_Proyecto_Requerimientos"><path codeLine="38" d="M183.4107,85.0907 C177.2507,90.8307 180.36,89.04 176,96 C83.74,243.32 78.4818,460.2301 78.7518,517.6301 " fill="none" id="Proyecto-Requerimientos" style="stroke:#181818;stroke-width:1.0;"/><polygon fill="#181818" points="192.19,76.91,185.0734,78.0739,183.4107,85.0907,190.5273,83.9268,192.19,76.91" style="stroke:#181818;stroke-width:1.0;"/><polygon fill="#181818" points="78.78,523.63,82.7376,514.6113,78.7565,518.6301,74.7377,514.6489,78.78,523.63" style="stroke:#181818;stroke-width:1.0;"/></g><!--link Proyecto to Fase--><g id="link_Proyecto_Fase"><path codeLine="39" d="M240,94.19 C240,112.8 240,117.33 240,135.92 " fill="none" id="Proyecto-Fase" style="stroke:#181818;stroke-width:1.0;"/><polygon fill="#181818" points="240,82.19,236,88.19,240,94.19,244,88.19,240,82.19" style="stroke:#181818;stroke-width:1.0;"/><polygon fill="#181818" points="240,141.92,244,132.92,240,136.92,236,132.92,240,141.92" style="stroke:#181818;stroke-width:1.0;"/><text fill="#000000" font-family="sans-serif" font-size="13" lengthAdjust="spacing" textLength="7" x="232.3328" y="130.0809">4</text></g><!--link Proyecto to Equipo--><g id="link_Proyecto_Equipo"><path codeLine="40" d="M296.3337,84.266 C302.6937,90.186 299.71,88.67 304,96 C390.9,244.32 380.3079,460.5191 375.7379,517.7091 " fill="none" id="Proyecto-Equipo" style="stroke:#181818;stroke-width:1.0;"/><polygon fill="#181818" points="287.55,76.09,289.2165,83.1059,296.3337,84.266,294.6672,77.2501,287.55,76.09" style="stroke:#181818;stroke-width:1.0;"/><polygon fill="#181818" points="375.26,523.69,379.9642,515.0372,375.6583,518.7059,371.9896,514.4,375.26,523.69" style="stroke:#181818;stroke-width:1.0;"/></g><!--link Requerimientos to CasoDeUso--><g id="link_Requerimientos_CasoDeUso"><path codeLine="42" d="M80.881,565.3983 C82.421,586.5583 84.023,608.6059 85.563,629.6959 " fill="none" id="Requerimientos-CasoDeUso" style="stroke:#181818;stroke-width:1.0;"/><polygon fill="#181818" points="80.01,553.43,76.4561,559.7045,80.881,565.3983,84.435,559.1238,80.01,553.43" style="stroke:#181818;stroke-width:1.0;"/><polygon fill="#181818" points="86,635.68,89.3339,626.4126,85.6359,630.6933,81.3552,626.9952,86,635.68" style="stroke:#181818;stroke-width:1.0;"/><text fill="#000000" font-family="sans-serif" font-size="13" lengthAdjust="spacing" textLength="7" x="77.3406" y="624.0954">*</text></g><!--link Fase to Iteracion--><g id="link_Fase_Iteracion"><path codeLine="44" d="M240,229.19 C240,247.8 240,252.33 240,270.92 " fill="none" id="Fase-Iteracion" style="stroke:#181818;stroke-width:1.0;"/><polygon fill="#181818" points="240,217.19,236,223.19,240,229.19,244,223.19,240,217.19" style="stroke:#181818;stroke-width:1.0;"/><polygon fill="#181818" points="240,276.92,244,267.92,240,271.92,236,267.92,240,276.92" style="stroke:#181818;stroke-width:1.0;"/><text fill="#000000" font-family="sans-serif" font-size="13" lengthAdjust="spacing" textLength="7" x="232.3328" y="265.0809">+</text></g><!--link Iteracion to Disciplina--><g id="link_Iteracion_Disciplina"><path codeLine="45" d="M240,364.13 C240,384.63 240,390.97 240,405.83 " fill="none" id="Iteracion-Disciplina" style="stroke:#181818;stroke-width:1.0;"/><polygon fill="#181818" points="240,352.13,236,358.13,240,364.13,244,358.13,240,352.13" style="stroke:#181818;stroke-width:1.0;"/><polygon fill="#181818" points="240,411.83,244,402.83,240,406.83,236,402.83,240,411.83" style="stroke:#181818;stroke-width:1.0;"/><text fill="#000000" font-family="sans-serif" font-size="13" lengthAdjust="spacing" textLength="7" x="231.7094" y="400.3007">6</text></g><!--link Disciplina to Actividad--><g id="link_Disciplina_Actividad"><path codeLine="46" d="M240,453.43 C240,468.23 240,474.25 240,494.57 " fill="none" id="Disciplina-Actividad" style="stroke:#181818;stroke-width:1.0;"/><polygon fill="#181818" points="240,441.43,236,447.43,240,453.43,244,447.43,240,441.43" style="stroke:#181818;stroke-width:1.0;"/><polygon fill="#181818" points="240,500.57,244,491.57,240,495.57,236,491.57,240,500.57" style="stroke:#181818;stroke-width:1.0;"/><text fill="#000000" font-family="sans-serif" font-size="13" lengthAdjust="spacing" textLength="20" x="218.2188" y="489.2414">4..7</text></g><!--link Equipo to Miembro--><g id="link_Equipo_Miembro"><path codeLine="48" d="M374.9464,565.4221 C375.7164,586.5821 376.5111,608.594 377.2811,629.684 " fill="none" id="Equipo-Miembro" style="stroke:#181818;stroke-width:1.0;"/><polygon fill="#181818" points="374.51,553.43,370.7308,559.5715,374.9464,565.4221,378.7255,559.2806,374.51,553.43" style="stroke:#181818;stroke-width:1.0;"/><polygon fill="#181818" points="377.5,635.68,381.169,626.54,377.3176,630.6833,373.1743,626.8319,377.5,635.68" style="stroke:#181818;stroke-width:1.0;"/><text fill="#000000" font-family="sans-serif" font-size="13" lengthAdjust="spacing" textLength="7" x="369.025" y="624.0954">*</text></g><!--link Miembro to Rol--><g id="link_Miembro_Rol"><path codeLine="49" d="M378,665.09 C378,681.34 378,702.38 378,718.71 " fill="none" id="Miembro-to-Rol" style="stroke:#181818;stroke-width:1.0;"/><polygon fill="#181818" points="378,724.71,382,715.71,378,719.71,374,715.71,378,724.71" style="stroke:#181818;stroke-width:1.0;"/></g><!--link Actividad to Miembro--><g id="link_Actividad_Miembro"><path codeLine="50" d="M284.04,574.61 C310.23,595.48 337.2683,617.0299 356.3483,632.2399 " fill="none" id="Actividad-to-Miembro" style="stroke:#181818;stroke-width:1.0;"/><polygon fill="#181818" points="361.04,635.98,356.4959,627.2421,357.1303,632.8633,351.5091,633.4977,361.04,635.98" style="stroke:#181818;stroke-width:1.0;"/></g><!--link Actividad to CasoDeUso--><g id="link_Actividad_CasoDeUso"><path codeLine="51" d="M195.75,571.32 C165.92,592.76 132.9517,616.4677 110.6817,632.4777 " fill="none" id="Actividad-to-CasoDeUso" style="stroke:#181818;stroke-width:1.0;"/><polygon fill="#181818" points="105.81,635.98,115.4525,633.9744,109.8698,633.0614,110.7827,627.4787,105.81,635.98" style="stroke:#181818;stroke-width:1.0;"/></g><!--SRC=[ZL31IWCn4BtFLuGSA-r953m8OYrw4AJW1wIpepkuczacgR18_ztiRj9iUn1FcRnvZtdlrLoHGdRO4DJ3x0Cvaj1twKzj5thLKhiZvm6mCTwhDoSzOH3r0smPMUxKXh0syC4sZqU0pk2N-IHb6ZGMAR8d-PRs1tBSCjaWFe6FnikQthtCbO7ZVScwZV7qzyc9zn8pc4Yn_o6lsIDt3LkJW0SC_CsLgMRgPt59F4x7kKSK7rESmZtj3zn9-hn6_pkNVrjf1k6flSLoUNzPnlbIN-inzGMSRi2vDaaMUjObZ9rDYojTce7IqRIyqVCcofXzh5QtkbG3C5ae9tFIzAenMinRsXoGp3f7YzrV]--></g></svg>