<?xml version="1.0" encoding="us-ascii" standalone="no"?><svg xmlns="http://www.w3.org/2000/svg" xmlns:xlink="http://www.w3.org/1999/xlink" contentStyleType="text/css" height="253px" preserveAspectRatio="none" style="width:764px;height:253px;background:#FFFFFF;" version="1.1" viewBox="0 0 764 253" width="764px" zoomAndPan="magnify"><defs/><g><!--class Arquitectura--><g id="elem_Arquitectura"><rect codeLine="6" fill="#F1F1F1" height="132.4075" id="Arquitectura" rx="2.5" ry="2.5" style="stroke:#181818;stroke-width:0.5;" width="161" x="329.5" y="7"/><text fill="#000000" font-family="sans-serif" font-size="14" lengthAdjust="spacing" textLength="85" x="367.5" y="26.9659">Arquitectura</text><line style="stroke:#181818;stroke-width:0.5;" x1="330.5" x2="489.5" y1="36.0679" y2="36.0679"/><ellipse cx="340.5" cy="51.1019" fill="none" rx="3" ry="3" style="stroke:#038048;stroke-width:1.0;"/><text fill="#000000" font-family="sans-serif" font-size="14" lengthAdjust="spacing" textLength="135" x="349.5" y="55.0339">artefacto primordial</text><ellipse cx="340.5" cy="70.1698" fill="none" rx="3" ry="3" style="stroke:#038048;stroke-width:1.0;"/><text fill="#000000" font-family="sans-serif" font-size="14" lengthAdjust="spacing" textLength="121" x="349.5" y="74.1018">conceptualizaci&#243;n</text><ellipse cx="340.5" cy="89.2377" fill="none" rx="3" ry="3" style="stroke:#038048;stroke-width:1.0;"/><text fill="#000000" font-family="sans-serif" font-size="14" lengthAdjust="spacing" textLength="86" x="349.5" y="93.1697">construcci&#243;n</text><ellipse cx="340.5" cy="108.3056" fill="none" rx="3" ry="3" style="stroke:#038048;stroke-width:1.0;"/><text fill="#000000" font-family="sans-serif" font-size="14" lengthAdjust="spacing" textLength="50" x="349.5" y="112.2376">gesti&#243;n</text><ellipse cx="340.5" cy="127.3735" fill="none" rx="3" ry="3" style="stroke:#038048;stroke-width:1.0;"/><text fill="#000000" font-family="sans-serif" font-size="14" lengthAdjust="spacing" textLength="64" x="349.5" y="131.3055">evoluci&#243;n</text></g><!--class DisciplinaAnalisis--><g id="elem_DisciplinaAnalisis"><rect codeLine="13" fill="#F1F1F1" height="29.0679" id="DisciplinaAnalisis" rx="2.5" ry="2.5" style="stroke:#181818;stroke-width:0.5;" width="124" x="7" y="218"/><text fill="#000000" font-family="sans-serif" font-size="14" lengthAdjust="spacing" textLength="118" x="10" y="237.9659">DisciplinaAnalisis</text></g><!--class DisciplinaDise?o--><g id="elem_DisciplinaDise&#241;o"><rect codeLine="14" fill="#F1F1F1" height="29.0679" id="DisciplinaDise&#241;o" rx="2.5" ry="2.5" style="stroke:#181818;stroke-width:0.5;" width="118" x="166" y="218"/><text fill="#000000" font-family="sans-serif" font-size="14" lengthAdjust="spacing" textLength="112" x="169" y="237.9659">DisciplinaDise&#241;o</text></g><!--class DisciplinaImplementacion--><g id="elem_DisciplinaImplementacion"><rect codeLine="15" fill="#F1F1F1" height="29.0679" id="DisciplinaImplementacion" rx="2.5" ry="2.5" style="stroke:#181818;stroke-width:0.5;" width="182" x="319" y="218"/><text fill="#000000" font-family="sans-serif" font-size="14" lengthAdjust="spacing" textLength="176" x="322" y="237.9659">DisciplinaImplementacion</text></g><!--class DisciplinaPruebas--><g id="elem_DisciplinaPruebas"><rect codeLine="16" fill="#F1F1F1" height="29.0679" id="DisciplinaPruebas" rx="2.5" ry="2.5" style="stroke:#181818;stroke-width:0.5;" width="127" x="536.5" y="218"/><text fill="#000000" font-family="sans-serif" font-size="14" lengthAdjust="spacing" textLength="121" x="539.5" y="237.9659">DisciplinaPruebas</text></g><!--class Sistema--><g id="elem_Sistema"><rect codeLine="17" fill="#F1F1F1" height="29.0679" id="Sistema" rx="2.5" ry="2.5" style="stroke:#181818;stroke-width:0.5;" width="59" x="698.5" y="218"/><text fill="#000000" font-family="sans-serif" font-size="14" lengthAdjust="spacing" textLength="53" x="701.5" y="237.9659">Sistema</text></g><g id="elem_GMN13"><path d="M526,32.5 L526,69 L490.86,73 L526,77 L526,113.3241 A0,0 0 0 0 526,113.3241 L744,113.3241 A0,0 0 0 0 744,113.3241 L744,42.5 L734,32.5 L526,32.5 A0,0 0 0 0 526,32.5 " fill="#FEFFDD" style="stroke:#181818;stroke-width:0.5;"/><path d="M734,32.5 L734,42.5 L744,42.5 L734,32.5 " fill="#FEFFDD" style="stroke:#181818;stroke-width:0.5;"/><text fill="#000000" font-family="sans-serif" font-size="13" lengthAdjust="spacing" textLength="197" x="532" y="51.397">Usada como artefacto primordial</text><text fill="#000000" font-family="sans-serif" font-size="13" lengthAdjust="spacing" textLength="153" x="532" y="69.103">para la conceptualizaci&#243;n,</text><text fill="#000000" font-family="sans-serif" font-size="13" lengthAdjust="spacing" textLength="138" x="532" y="86.809">construcci&#243;n, gesti&#243;n y</text><text fill="#000000" font-family="sans-serif" font-size="13" lengthAdjust="spacing" textLength="128" x="532" y="104.5151">evoluci&#243;n del sistema</text></g><!--link Arquitectura to DisciplinaAnalisis--><g id="link_Arquitectura_DisciplinaAnalisis"><path codeLine="19" d="M329.19,111.33 C254.94,145.62 154.4073,192.0547 103.6873,215.4747 " fill="none" id="Arquitectura-to-DisciplinaAnalisis" style="stroke:#181818;stroke-width:1.0;"/><polygon fill="#181818" points="98.24,217.99,108.0878,217.8486,102.7794,215.8939,104.7341,210.5855,98.24,217.99" style="stroke:#181818;stroke-width:1.0;"/><text fill="#000000" font-family="sans-serif" font-size="13" lengthAdjust="spacing" textLength="42" x="200" y="183.897">incluye</text></g><!--link Arquitectura to DisciplinaDise?o--><g id="link_Arquitectura_DisciplinaDise&#241;o"><path codeLine="20" d="M333.42,139.2 C299.02,168.48 266.1686,196.4506 245.5186,214.0306 " fill="none" id="Arquitectura-to-DisciplinaDise&#241;o" style="stroke:#181818;stroke-width:1.0;"/><polygon fill="#181818" points="240.95,217.92,250.3959,215.1316,244.7572,214.6788,245.21,209.0401,240.95,217.92" style="stroke:#181818;stroke-width:1.0;"/><text fill="#000000" font-family="sans-serif" font-size="13" lengthAdjust="spacing" textLength="42" x="297" y="183.897">incluye</text></g><!--link Arquitectura to DisciplinaImplementacion--><g id="link_Arquitectura_DisciplinaImplementacion"><path codeLine="21" d="M410,139.43 C410,168.67 410,194.44 410,211.96 " fill="none" id="Arquitectura-to-DisciplinaImplementacion" style="stroke:#181818;stroke-width:1.0;"/><polygon fill="#181818" points="410,217.96,414,208.96,410,212.96,406,208.96,410,217.96" style="stroke:#181818;stroke-width:1.0;"/><text fill="#000000" font-family="sans-serif" font-size="13" lengthAdjust="spacing" textLength="42" x="411" y="183.897">incluye</text></g><!--link Arquitectura to DisciplinaPruebas--><g id="link_Arquitectura_DisciplinaPruebas"><path codeLine="22" d="M488.65,139.2 C523.98,168.48 557.7905,196.5111 579.0005,214.0911 " fill="none" id="Arquitectura-to-DisciplinaPruebas" style="stroke:#181818;stroke-width:1.0;"/><polygon fill="#181818" points="583.62,217.92,579.2434,209.097,579.7704,214.7293,574.1382,215.2563,583.62,217.92" style="stroke:#181818;stroke-width:1.0;"/><text fill="#000000" font-family="sans-serif" font-size="13" lengthAdjust="spacing" textLength="42" x="545" y="183.897">incluye</text></g><!--link Arquitectura to Sistema--><g id="link_Arquitectura_Sistema"><path codeLine="23" d="M490.6,129.74 C496.39,133.04 502.23,136.16 508,139 C545.08,157.24 557.71,153.47 596,169 C633.36,184.16 669.8744,201.8848 696.2444,215.2048 " fill="none" id="Arquitectura-to-Sistema" style="stroke:#181818;stroke-width:1.0;"/><polygon fill="#181818" points="701.6,217.91,695.3701,210.2818,697.137,215.6557,691.7632,217.4226,701.6,217.91" style="stroke:#181818;stroke-width:1.0;"/><text fill="#000000" font-family="sans-serif" font-size="13" lengthAdjust="spacing" textLength="37" x="638" y="183.897">define</text></g><!--SRC=[ZL5BJaCn3Dpx5DxJNe05KYKsx90G1t3z_5fB-P4uI0_4eH17wCN84odeqQhgpXbFx1dFNWT1rinEO3_NnIHBj2drj_Xa4thnMya5W1sLWflyKjM4hMR2Tq2yeMmo4bl4bDN7F2Yv6USOM99LSlf6h8UlqD5YkV8li9DYnrfUewi_dO- -xruBQt8QQ1FQfABbfD4gENp64_p19oTUWhNjCPoq7tELBHt7FMcpxmbWON2zlZkZ06zH0xiwoILsbtKTUQdrkZ_Tm2LoTzKeWumQ12144yowsnl6SP4cF1SQ23dwY6SpJTIckfdnFzWLB69TuJ5KdE0lqwR1OUbtbZ3Wh0M-0G00]--></g></svg>