<?xml version="1.0" encoding="us-ascii" standalone="no"?><svg xmlns="http://www.w3.org/2000/svg" xmlns:xlink="http://www.w3.org/1999/xlink" contentStyleType="text/css" height="372px" preserveAspectRatio="none" style="width:576px;height:372px;background:#FFFFFF;" version="1.1" viewBox="0 0 576 372" width="576px" zoomAndPan="magnify"><defs/><g><!--class Sistema--><g id="elem_Sistema"><rect codeLine="6" fill="#F1F1F1" height="29.0679" id="Sistema" rx="2.5" ry="2.5" style="stroke:#181818;stroke-width:0.5;" width="59" x="74.5" y="7"/><text fill="#000000" font-family="sans-serif" font-size="14" lengthAdjust="spacing" textLength="53" x="77.5" y="26.9659">Sistema</text></g><!--class Componente--><g id="elem_Componente"><rect codeLine="7" fill="#F1F1F1" height="132.4075" id="Componente" rx="2.5" ry="2.5" style="stroke:#181818;stroke-width:0.5;" width="194" x="7" y="97"/><text fill="#000000" font-family="sans-serif" font-size="14" lengthAdjust="spacing" textLength="86" x="61" y="116.9659">Componente</text><line style="stroke:#181818;stroke-width:0.5;" x1="8" x2="200" y1="126.0679" y2="126.0679"/><ellipse cx="18" cy="141.1019" fill="none" rx="3" ry="3" style="stroke:#038048;stroke-width:1.0;"/><text fill="#000000" font-family="sans-serif" font-size="14" lengthAdjust="spacing" textLength="168" x="27" y="145.0339">interfaces bien definidas</text><ellipse cx="18" cy="160.1698" fill="none" rx="3" ry="3" style="stroke:#038048;stroke-width:1.0;"/><text fill="#000000" font-family="sans-serif" font-size="14" lengthAdjust="spacing" textLength="76" x="27" y="164.1018">reutilizable</text><ellipse cx="18" cy="179.2377" fill="none" rx="3" ry="3" style="stroke:#038048;stroke-width:1.0;"/><text fill="#000000" font-family="sans-serif" font-size="14" lengthAdjust="spacing" textLength="86" x="27" y="183.1697">encapsulado</text><ellipse cx="18" cy="198.3056" fill="none" rx="3" ry="3" style="stroke:#038048;stroke-width:1.0;"/><text fill="#000000" font-family="sans-serif" font-size="14" lengthAdjust="spacing" textLength="71" x="27" y="202.2376">manejable</text><ellipse cx="18" cy="217.3735" fill="none" rx="3" ry="3" style="stroke:#038048;stroke-width:1.0;"/><text fill="#000000" font-family="sans-serif" font-size="14" lengthAdjust="spacing" textLength="57" x="27" y="221.3055">modular</text></g><!--class Interfaz--><g id="elem_Interfaz"><rect codeLine="14" fill="#F1F1F1" height="75.2038" id="Interfaz" rx="2.5" ry="2.5" style="stroke:#181818;stroke-width:0.5;" width="121" x="43.5" y="290"/><text fill="#000000" font-family="sans-serif" font-size="14" lengthAdjust="spacing" textLength="53" x="77.5" y="309.9659">Interfaz</text><line style="stroke:#181818;stroke-width:0.5;" x1="44.5" x2="163.5" y1="319.0679" y2="319.0679"/><ellipse cx="54.5" cy="334.1019" fill="none" rx="3" ry="3" style="stroke:#038048;stroke-width:1.0;"/><text fill="#000000" font-family="sans-serif" font-size="14" lengthAdjust="spacing" textLength="95" x="63.5" y="338.0339">especificacion</text><ellipse cx="54.5" cy="353.1698" fill="none" rx="3" ry="3" style="stroke:#038048;stroke-width:1.0;"/><text fill="#000000" font-family="sans-serif" font-size="14" lengthAdjust="spacing" textLength="56" x="63.5" y="357.1018">contrato</text></g><g id="elem_GMN8"><path d="M313,113.5 L313,159 L201.08,163 L313,167 L313,212.0301 A0,0 0 0 0 313,212.0301 L569,212.0301 A0,0 0 0 0 569,212.0301 L569,123.5 L559,113.5 L313,113.5 A0,0 0 0 0 313,113.5 " fill="#FEFFDD" style="stroke:#181818;stroke-width:0.5;"/><path d="M559,113.5 L559,123.5 L569,123.5 L559,113.5 " fill="#FEFFDD" style="stroke:#181818;stroke-width:0.5;"/><text fill="#000000" font-family="sans-serif" font-size="13" lengthAdjust="spacing" textLength="235" x="319" y="132.397">Pieza de software peque&#241;a y manejable</text><text fill="#000000" font-family="sans-serif" font-size="13" lengthAdjust="spacing" textLength="82" x="319" y="150.103">- Reutilizaci&#243;n</text><text fill="#000000" font-family="sans-serif" font-size="13" lengthAdjust="spacing" textLength="160" x="319" y="167.809">- Gesti&#243;n de la complejidad</text><text fill="#000000" font-family="sans-serif" font-size="13" lengthAdjust="spacing" textLength="84" x="319" y="185.5151">- Modularidad</text><text fill="#000000" font-family="sans-serif" font-size="13" lengthAdjust="spacing" textLength="92" x="319" y="203.2211">- Encapsulaci&#243;n</text></g><!--link Sistema to Componente--><g id="link_Sistema_Componente"><path codeLine="19" d="M104,48.13 C104,62.46 104,68.06 104,90.98 " fill="none" id="Sistema-Componente" style="stroke:#181818;stroke-width:1.0;"/><polygon fill="#181818" points="104,36.13,100,42.13,104,48.13,108,42.13,104,36.13" style="stroke:#181818;stroke-width:1.0;"/><polygon fill="#181818" points="104,96.98,108,87.98,104,91.98,100,87.98,104,96.98" style="stroke:#181818;stroke-width:1.0;"/><text fill="#000000" font-family="sans-serif" font-size="13" lengthAdjust="spacing" textLength="7" x="96.5953" y="85.2779">*</text></g><!--link Componente to Interfaz--><g id="link_Componente_Interfaz"><path codeLine="20" d="M104,229.16 C104,249.82 104,265.93 104,283.85 " fill="none" id="Componente-to-Interfaz" style="stroke:#181818;stroke-width:1.0;"/><polygon fill="#181818" points="104,289.85,108,280.85,104,284.85,100,280.85,104,289.85" style="stroke:#181818;stroke-width:1.0;"/><text fill="#000000" font-family="sans-serif" font-size="13" lengthAdjust="spacing" textLength="7" x="96.3547" y="278.2844">*</text></g><!--link Componente to Componente--><g id="link_Componente_Componente"><path codeLine="21" d="M201.28,145.63 C221.48,147.46 236,153.25 236,163 C236,172.75 227.4555,177.9987 207.2555,179.8287 " fill="none" id="Componente-to-Componente" style="stroke:#181818;stroke-width:1.0;stroke-dasharray:7.0,7.0;"/><polygon fill="#181818" points="201.28,180.37,210.6042,183.5417,206.2596,179.9189,209.8824,175.5743,201.28,180.37" style="stroke:#181818;stroke-width:1.0;"/><text fill="#000000" font-family="sans-serif" font-size="13" lengthAdjust="spacing" textLength="47" x="242" y="168.397">reutiliza</text></g><!--SRC=[JL3BJiCm4BpxArOz5hKVmA4NX10790HViB4dP2k_i1sX1l5HY4_eZs4hIPNRpixkxEmCOa1QahPGGwjpGK8ebxXWk5WkvE0wfAoKjfmplKiTSxoWX-1YyF05zAs8xgHMgMUDJ9t0aq4lNWpdHYQCHQnCtDMB5SDhZdcqR4A3ZZtEA-U2gKHIFykXvrbuciyWHsZfHREMu5j71ryIbr0Nr6AHzeV3YNRxtSQbsXXUsLLwonsFf-rlztJphfGFjPFaOoWK-gtsgs1YQa66ldnn0aLyZhZ-CjKORzyTw6qLqtBzyxNnX5nQsPOjawwQ5kUQcwdaonp5WXxNqEPTU4FDaFe7]--></g></svg>