<?xml version="1.0" encoding="us-ascii" standalone="no"?><svg xmlns="http://www.w3.org/2000/svg" xmlns:xlink="http://www.w3.org/1999/xlink" contentStyleType="text/css" height="508px" preserveAspectRatio="none" style="width:680px;height:508px;background:#FFFFFF;" version="1.1" viewBox="0 0 680 508" width="680px" zoomAndPan="magnify"><defs/><g><!--class Iteracion1--><g id="elem_Iteracion1"><rect codeLine="6" fill="#F1F1F1" height="56.1358" id="Iteracion1" rx="2.5" ry="2.5" style="stroke:#181818;stroke-width:0.5;" width="222" x="317" y="130"/><text fill="#000000" font-family="sans-serif" font-size="14" lengthAdjust="spacing" textLength="68" x="394" y="149.9659">Iteracion1</text><line style="stroke:#181818;stroke-width:0.5;" x1="318" x2="538" y1="159.0679" y2="159.0679"/><ellipse cx="328" cy="174.1019" fill="none" rx="3" ry="3" style="stroke:#038048;stroke-width:1.0;"/><text fill="#000000" font-family="sans-serif" font-size="14" lengthAdjust="spacing" textLength="196" x="337" y="178.0339">flujo de entregas ejecutables</text></g><!--class Iteracion2--><g id="elem_Iteracion2"><rect codeLine="9" fill="#F1F1F1" height="56.1358" id="Iteracion2" rx="2.5" ry="2.5" style="stroke:#181818;stroke-width:0.5;" width="222" x="47" y="130"/><text fill="#000000" font-family="sans-serif" font-size="14" lengthAdjust="spacing" textLength="68" x="124" y="149.9659">Iteracion2</text><line style="stroke:#181818;stroke-width:0.5;" x1="48" x2="268" y1="159.0679" y2="159.0679"/><ellipse cx="58" cy="174.1019" fill="none" rx="3" ry="3" style="stroke:#038048;stroke-width:1.0;"/><text fill="#000000" font-family="sans-serif" font-size="14" lengthAdjust="spacing" textLength="196" x="67" y="178.0339">flujo de entregas ejecutables</text></g><!--class IteracionN--><g id="elem_IteracionN"><rect codeLine="12" fill="#F1F1F1" height="56.1358" id="IteracionN" rx="2.5" ry="2.5" style="stroke:#181818;stroke-width:0.5;" width="222" x="7" y="284"/><text fill="#000000" font-family="sans-serif" font-size="14" lengthAdjust="spacing" textLength="71" x="82.5" y="303.9659">IteracionN</text><line style="stroke:#181818;stroke-width:0.5;" x1="8" x2="228" y1="313.0679" y2="313.0679"/><ellipse cx="18" cy="328.1019" fill="none" rx="3" ry="3" style="stroke:#038048;stroke-width:1.0;"/><text fill="#000000" font-family="sans-serif" font-size="14" lengthAdjust="spacing" textLength="196" x="27" y="332.0339">flujo de entregas ejecutables</text></g><!--class EntregaEjecutable--><g id="elem_EntregaEjecutable"><rect codeLine="15" fill="#F1F1F1" height="94.2717" id="EntregaEjecutable" rx="2.5" ry="2.5" style="stroke:#181818;stroke-width:0.5;" width="188" x="334" y="265"/><text fill="#000000" font-family="sans-serif" font-size="14" lengthAdjust="spacing" textLength="123" x="366.5" y="284.9659">EntregaEjecutable</text><line style="stroke:#181818;stroke-width:0.5;" x1="335" x2="521" y1="294.0679" y2="294.0679"/><ellipse cx="345" cy="309.1019" fill="none" rx="3" ry="3" style="stroke:#038048;stroke-width:1.0;"/><text fill="#000000" font-family="sans-serif" font-size="14" lengthAdjust="spacing" textLength="126" x="354" y="313.0339">sistema ejecutable</text><ellipse cx="345" cy="328.1698" fill="none" rx="3" ry="3" style="stroke:#038048;stroke-width:1.0;"/><text fill="#000000" font-family="sans-serif" font-size="14" lengthAdjust="spacing" textLength="162" x="354" y="332.1018">incompleto inicialmente</text><ellipse cx="345" cy="347.2377" fill="none" rx="3" ry="3" style="stroke:#038048;stroke-width:1.0;"/><text fill="#000000" font-family="sans-serif" font-size="14" lengthAdjust="spacing" textLength="150" x="354" y="351.1697">calidad de producci&#243;n</text></g><!--class SistemaFinal--><g id="elem_SistemaFinal"><rect codeLine="20" fill="#F1F1F1" height="56.1358" id="SistemaFinal" rx="2.5" ry="2.5" style="stroke:#181818;stroke-width:0.5;" width="169" x="221.5" y="441.5"/><text fill="#000000" font-family="sans-serif" font-size="14" lengthAdjust="spacing" textLength="85" x="263.5" y="461.4659">SistemaFinal</text><line style="stroke:#181818;stroke-width:0.5;" x1="222.5" x2="389.5" y1="470.5679" y2="470.5679"/><ellipse cx="232.5" cy="485.6019" fill="none" rx="3" ry="3" style="stroke:#038048;stroke-width:1.0;"/><text fill="#000000" font-family="sans-serif" font-size="14" lengthAdjust="spacing" textLength="143" x="241.5" y="489.5339">listo para producci&#243;n</text></g><g id="elem_GMN13"><path d="M425,438 L425,501.118 A0,0 0 0 0 425,501.118 L673,501.118 A0,0 0 0 0 673,501.118 L673,448 L663,438 L529.2,438 L463.98,359.23 L521.2,438 L425,438 A0,0 0 0 0 425,438 " fill="#FEFFDD" style="stroke:#181818;stroke-width:0.5;"/><path d="M663,438 L663,448 L673,448 L663,438 " fill="#FEFFDD" style="stroke:#181818;stroke-width:0.5;"/><text fill="#000000" font-family="sans-serif" font-size="13" lengthAdjust="spacing" textLength="227" x="431" y="456.897">Iterativo: flujo de entregas ejecutables</text><text fill="#000000" font-family="sans-serif" font-size="13" lengthAdjust="spacing" textLength="202" x="431" y="474.603">Incremental: integraci&#243;n continua</text><text fill="#000000" font-family="sans-serif" font-size="13" lengthAdjust="spacing" textLength="164" x="431" y="492.309">que aumenta funcionalidad</text></g><g id="elem_GMN16"><path d="M329,6 L329,69.118 A0,0 0 0 0 329,69.118 L424,69.118 L428,129.82 L432,69.118 L527,69.118 A0,0 0 0 0 527,69.118 L527,16 L517,6 L329,6 A0,0 0 0 0 329,6 " fill="#FEFFDD" style="stroke:#181818;stroke-width:0.5;"/><path d="M517,6 L517,16 L527,16 L517,6 " fill="#FEFFDD" style="stroke:#181818;stroke-width:0.5;"/><text fill="#000000" font-family="sans-serif" font-size="13" lengthAdjust="spacing" textLength="172" x="335" y="24.897">Retroalimentaci&#243;n temprana</text><text fill="#000000" font-family="sans-serif" font-size="13" lengthAdjust="spacing" textLength="141" x="335" y="42.603">"S&#237;... pero" estructurado</text><text fill="#000000" font-family="sans-serif" font-size="13" lengthAdjust="spacing" textLength="177" x="335" y="60.309">Gesti&#243;n de riesgos progresiva</text></g><!--link Iteracion1 to EntregaEjecutable--><g id="link_Iteracion1_EntregaEjecutable"><path codeLine="24" d="M428,186.17 C428,208.03 428,233.24 428,258.98 " fill="none" id="Iteracion1-to-EntregaEjecutable" style="stroke:#181818;stroke-width:1.0;"/><polygon fill="#181818" points="428,264.98,432,255.98,428,259.98,424,255.98,428,264.98" style="stroke:#181818;stroke-width:1.0;"/><text fill="#000000" font-family="sans-serif" font-size="13" lengthAdjust="spacing" textLength="50" x="429" y="230.897">produce</text></g><!--link Iteracion2 to EntregaEjecutable--><g id="link_Iteracion2_EntregaEjecutable"><path codeLine="25" d="M206.27,186.17 C245.1,208.03 295.3014,236.297 341.0314,262.037 " fill="none" id="Iteracion2-to-EntregaEjecutable" style="stroke:#181818;stroke-width:1.0;"/><polygon fill="#181818" points="346.26,264.98,340.3791,257.0797,341.9028,262.5275,336.455,264.0512,346.26,264.98" style="stroke:#181818;stroke-width:1.0;"/><text fill="#000000" font-family="sans-serif" font-size="13" lengthAdjust="spacing" textLength="68" x="294" y="230.897">incrementa</text></g><!--link IteracionN to EntregaEjecutable--><g id="link_IteracionN_EntregaEjecutable"><path codeLine="26" d="M229.04,312 C263.35,312 294.8,312 327.85,312 " fill="none" id="IteracionN-to-EntregaEjecutable" style="stroke:#181818;stroke-width:1.0;"/><polygon fill="#181818" points="333.85,312,324.85,308,328.85,312,324.85,316,333.85,312" style="stroke:#181818;stroke-width:1.0;"/><text fill="#000000" font-family="sans-serif" font-size="13" lengthAdjust="spacing" textLength="68" x="247.5" y="304.897">incrementa</text></g><!--link Iteracion2 to IteracionN--><!--link EntregaEjecutable to EntregaEjecutable--><g id="link_EntregaEjecutable_EntregaEjecutable"><path codeLine="28" d="M522.21,296.37 C542.39,297.93 557,303.14 557,312 C557,320.86 548.3722,325.6076 528.1922,327.1676 " fill="none" id="EntregaEjecutable-to-EntregaEjecutable" style="stroke:#181818;stroke-width:1.0;"/><polygon fill="#181818" points="522.21,327.63,531.4915,330.9244,527.1951,327.2446,530.8749,322.9482,522.21,327.63" style="stroke:#181818;stroke-width:1.0;"/><text fill="#000000" font-family="sans-serif" font-size="13" lengthAdjust="spacing" textLength="65" x="563" y="317.397">evoluciona</text></g><!--link EntregaEjecutable to SistemaFinal--><g id="link_EntregaEjecutable_SistemaFinal"><path codeLine="29" d="M391.73,359.23 C370.8,385.91 348.894,413.8298 331.144,436.4498 " fill="none" id="EntregaEjecutable-to-SistemaFinal" style="stroke:#181818;stroke-width:1.0;"/><polygon fill="#181818" points="327.44,441.17,336.1428,436.559,330.5266,437.2365,329.8492,431.6203,327.44,441.17" style="stroke:#181818;stroke-width:1.0;"/><text fill="#000000" font-family="sans-serif" font-size="13" lengthAdjust="spacing" textLength="56" x="368" y="403.897">converge</text></g><!--SRC=[dL6xJWCn4Epz5IjQT96WJ44NK1eAKYAAZRsvEF9vZxKTAK9y4XMVa1_3lekI8m-aqFanCpipkxI6G5lHZjIod4Ca8OwRTdUdfeqRQAYPamIbjCCGO9f1g2txE_XG0BSBbrOC1UsZK8q1Q4KwHPmx2khpc7N_BzRpDQn9_pdPV_NaO7E-1WUKycgzvgPr51cijzgYQx9uzwNHMOEcp6k5JTBQRh_zVioirtkq7bq_mUKNXXO5ZmXgK5fbgeSp5iSx2gb1LPLSm6RNGiKega57Ly6p-clUiY7_Pgf1q-fKeBeWIsjsgP3m7Ada_DNH63JxDKbDIdcE17EEaHlWnQbwxpFQDO_XxwrFzzbS2HgfBa5oxsLQj3wXUay4c3eCB9Bl77UhLUGD52ixGv7RukQmBVL2KJY3Et8lcmErWZdppMpxDHgDe2NX6w0G9UcO10shftphmDcrM0erXxBVMYZODHx6_W00]--></g></svg>