<?xml version="1.0" encoding="us-ascii" standalone="no"?><svg xmlns="http://www.w3.org/2000/svg" xmlns:xlink="http://www.w3.org/1999/xlink" contentStyleType="text/css" height="373px" preserveAspectRatio="none" style="width:726px;height:373px;background:#FFFFFF;" version="1.1" viewBox="0 0 726 373" width="726px" zoomAndPan="magnify"><defs/><g><!--entity Usuario--><g id="elem_Usuario"><ellipse cx="264.5" cy="24.5" fill="#F1F1F1" rx="8" ry="8" style="stroke:#181818;stroke-width:0.5;"/><path d="M264.5,32.5 L264.5,59.5 M251.5,40.5 L277.5,40.5 M264.5,59.5 L251.5,74.5 M264.5,59.5 L277.5,74.5 " fill="none" style="stroke:#181818;stroke-width:0.5;"/><text fill="#000000" font-family="sans-serif" font-size="14" lengthAdjust="spacing" textLength="52" x="238.5" y="90.9659">Usuario</text></g><!--class CasoDeUso--><g id="elem_CasoDeUso"><rect codeLine="9" fill="#F1F1F1" height="75.2038" id="CasoDeUso" rx="2.5" ry="2.5" style="stroke:#181818;stroke-width:0.5;" width="198" x="249.5" y="184"/><text fill="#000000" font-family="sans-serif" font-size="14" lengthAdjust="spacing" textLength="75" x="311" y="203.9659">CasoDeUso</text><line style="stroke:#181818;stroke-width:0.5;" x1="250.5" x2="446.5" y1="213.0679" y2="213.0679"/><ellipse cx="260.5" cy="228.1019" fill="none" rx="3" ry="3" style="stroke:#038048;stroke-width:1.0;"/><text fill="#000000" font-family="sans-serif" font-size="14" lengthAdjust="spacing" textLength="172" x="269.5" y="232.0339">comportamiento deseado</text><ellipse cx="260.5" cy="247.1698" fill="none" rx="3" ry="3" style="stroke:#038048;stroke-width:1.0;"/><text fill="#000000" font-family="sans-serif" font-size="14" lengthAdjust="spacing" textLength="149" x="269.5" y="251.1018">requisitos funcionales</text></g><!--class Requisito--><g id="elem_Requisito"><rect codeLine="13" fill="#F1F1F1" height="29.0679" id="Requisito" rx="2.5" ry="2.5" style="stroke:#181818;stroke-width:0.5;" width="69" x="7" y="338"/><text fill="#000000" font-family="sans-serif" font-size="14" lengthAdjust="spacing" textLength="63" x="10" y="357.9659">Requisito</text></g><!--class Analisis--><g id="elem_Analisis"><rect codeLine="14" fill="#F1F1F1" height="29.0679" id="Analisis" rx="2.5" ry="2.5" style="stroke:#181818;stroke-width:0.5;" width="58" x="111.5" y="338"/><text fill="#000000" font-family="sans-serif" font-size="14" lengthAdjust="spacing" textLength="52" x="114.5" y="357.9659">Analisis</text></g><!--class Dise?o--><g id="elem_Dise&#241;o"><rect codeLine="15" fill="#F1F1F1" height="29.0679" id="Dise&#241;o" rx="2.5" ry="2.5" style="stroke:#181818;stroke-width:0.5;" width="52" x="253.5" y="338"/><text fill="#000000" font-family="sans-serif" font-size="14" lengthAdjust="spacing" textLength="46" x="256.5" y="357.9659">Dise&#241;o</text></g><!--class Implementacion--><g id="elem_Implementacion"><rect codeLine="16" fill="#F1F1F1" height="29.0679" id="Implementacion" rx="2.5" ry="2.5" style="stroke:#181818;stroke-width:0.5;" width="116" x="360.5" y="338"/><text fill="#000000" font-family="sans-serif" font-size="14" lengthAdjust="spacing" textLength="110" x="363.5" y="357.9659">Implementacion</text></g><!--class Pruebas--><g id="elem_Pruebas"><rect codeLine="17" fill="#F1F1F1" height="29.0679" id="Pruebas" rx="2.5" ry="2.5" style="stroke:#181818;stroke-width:0.5;" width="61" x="527" y="338"/><text fill="#000000" font-family="sans-serif" font-size="14" lengthAdjust="spacing" textLength="55" x="530" y="357.9659">Pruebas</text></g><!--class Arquitectura--><g id="elem_Arquitectura"><rect codeLine="18" fill="#F1F1F1" height="29.0679" id="Arquitectura" rx="2.5" ry="2.5" style="stroke:#181818;stroke-width:0.5;" width="91" x="623" y="338"/><text fill="#000000" font-family="sans-serif" font-size="14" lengthAdjust="spacing" textLength="85" x="626" y="357.9659">Arquitectura</text></g><g id="elem_GMN17"><path d="M325.5,6 L325.5,104.5301 A0,0 0 0 0 325.5,104.5301 L403.52,104.5301 L367.24,183.91 L411.52,104.5301 L539.5,104.5301 A0,0 0 0 0 539.5,104.5301 L539.5,16 L529.5,6 L325.5,6 A0,0 0 0 0 325.5,6 " fill="#FEFFDD" style="stroke:#181818;stroke-width:0.5;"/><path d="M529.5,6 L529.5,16 L539.5,16 L529.5,6 " fill="#FEFFDD" style="stroke:#181818;stroke-width:0.5;"/><text fill="#000000" font-family="sans-serif" font-size="13" lengthAdjust="spacing" textLength="153" x="331.5" y="24.897">Artefacto primordial para:</text><text fill="#000000" font-family="sans-serif" font-size="13" lengthAdjust="spacing" textLength="173" x="331.5" y="42.603">- Establecer comportamiento</text><text fill="#000000" font-family="sans-serif" font-size="13" lengthAdjust="spacing" textLength="174" x="331.5" y="60.309">- Comunicar entre implicados</text><text fill="#000000" font-family="sans-serif" font-size="13" lengthAdjust="spacing" textLength="193" x="331.5" y="78.0151">- Capturar requisitos funcionales</text><text fill="#000000" font-family="sans-serif" font-size="13" lengthAdjust="spacing" textLength="126" x="331.5" y="95.7211">- Facilitar trazabilidad</text></g><!--link Usuario to CasoDeUso--><g id="link_Usuario_CasoDeUso"><path codeLine="20" d="M284.41,95.37 C298.14,122.17 313.5357,152.2293 327.0057,178.5393 " fill="none" id="Usuario-to-CasoDeUso" style="stroke:#181818;stroke-width:1.0;"/><polygon fill="#181818" points="329.74,183.88,329.199,174.046,327.4614,179.4294,322.078,177.6918,329.74,183.88" style="stroke:#181818;stroke-width:1.0;"/><text fill="#000000" font-family="sans-serif" font-size="13" lengthAdjust="spacing" textLength="37" x="315.5" y="149.897">define</text></g><!--link CasoDeUso to Requisito--><g id="link_CasoDeUso_Requisito"><path codeLine="21" d="M249.39,235.12 C200.94,244.57 143.34,260.92 97.5,289 C77.13,301.48 63.2547,318.6659 53.4847,332.9659 " fill="none" id="CasoDeUso-to-Requisito" style="stroke:#181818;stroke-width:1.0;"/><polygon fill="#181818" points="50.1,337.92,58.4799,332.7453,52.9206,333.7916,51.8744,328.2323,50.1,337.92" style="stroke:#181818;stroke-width:1.0;"/><text fill="#000000" font-family="sans-serif" font-size="13" lengthAdjust="spacing" textLength="46" x="98.5" y="303.897">captura</text></g><!--link CasoDeUso to Analisis--><g id="link_CasoDeUso_Analisis"><path codeLine="22" d="M249.3,241.97 C219.39,251.9 188.45,266.78 165.5,289 C151.82,302.25 146.6112,318.0894 143.7712,332.1094 " fill="none" id="CasoDeUso-to-Analisis" style="stroke:#181818;stroke-width:1.0;"/><polygon fill="#181818" points="142.58,337.99,148.2872,329.9633,143.5727,333.0895,140.4464,328.375,142.58,337.99" style="stroke:#181818;stroke-width:1.0;"/><text fill="#000000" font-family="sans-serif" font-size="13" lengthAdjust="spacing" textLength="97" x="166.5" y="303.897">primera entrada</text></g><!--link CasoDeUso to Dise?o--><g id="link_CasoDeUso_Dise&#241;o"><path codeLine="23" d="M297.63,259.15 C289.04,267.89 281.34,277.93 276.5,289 C269.62,304.72 270.9799,319.0133 274.0999,332.1133 " fill="none" id="CasoDeUso-to-Dise&#241;o" style="stroke:#181818;stroke-width:1.0;"/><polygon fill="#181818" points="275.49,337.95,277.296,328.2681,274.3316,333.086,269.5137,330.1216,275.49,337.95" style="stroke:#181818;stroke-width:1.0;"/><text fill="#000000" font-family="sans-serif" font-size="13" lengthAdjust="spacing" textLength="97" x="277.5" y="303.897">primera entrada</text></g><!--link CasoDeUso to Implementacion--><g id="link_CasoDeUso_Implementacion"><path codeLine="24" d="M368.37,259.12 C382.6,285.34 398.1,313.8955 408.18,332.4855 " fill="none" id="CasoDeUso-to-Implementacion" style="stroke:#181818;stroke-width:1.0;"/><polygon fill="#181818" points="411.04,337.76,410.2664,327.9416,408.6567,333.3646,403.2337,331.7549,411.04,337.76" style="stroke:#181818;stroke-width:1.0;"/><text fill="#000000" font-family="sans-serif" font-size="13" lengthAdjust="spacing" textLength="97" x="394.5" y="303.897">primera entrada</text></g><!--link CasoDeUso to Pruebas--><g id="link_CasoDeUso_Pruebas"><path codeLine="25" d="M447.87,258.77 C466.13,267.4 484.46,277.51 500.5,289 C519.72,302.77 533.7,319.1475 544.11,332.9675 " fill="none" id="CasoDeUso-to-Pruebas" style="stroke:#181818;stroke-width:1.0;"/><polygon fill="#181818" points="547.72,337.76,545.5,328.1646,544.7117,333.7663,539.11,332.9779,547.72,337.76" style="stroke:#181818;stroke-width:1.0;"/><text fill="#000000" font-family="sans-serif" font-size="13" lengthAdjust="spacing" textLength="42" x="521.5" y="303.897">verifica</text></g><!--link CasoDeUso to Arquitectura--><g id="link_CasoDeUso_Arquitectura"><path codeLine="26" d="M447.77,245.36 C487.5,256.19 533.1,270.79 572.5,289 C601.75,302.51 627.6181,320.3525 646.1981,334.2725 " fill="none" id="CasoDeUso-to-Arquitectura" style="stroke:#181818;stroke-width:1.0;"/><polygon fill="#181818" points="651,337.87,646.1956,329.2725,646.9984,334.8721,641.3989,335.675,651,337.87" style="stroke:#181818;stroke-width:1.0;"/><text fill="#000000" font-family="sans-serif" font-size="13" lengthAdjust="spacing" textLength="112" x="606.5" y="303.897">crea/verifica/valida</text></g><!--SRC=[XP91JiCm44NtFiNiKTHz5qXL2n8xXDGrcjeJ6CdsXB5JA8X3SGOkngHDQ0j2x3p-tp_lsy4OvVa-yGld1-SUEH1uLX_fi2wLbAJkkd6crDKT94eRqk8S-YeAwzAZiZWViHHOOf4LhOl0cmEuy98wqOg9ALU1G8KmoA0eFVLSk4g1ji-U9MEaujx7dBj97kU5oJQNSLnneS-FIRn9NQHaNy0XPzoyrPusE1rOgELLyhLNT6vaXgQvF26U6r_BcTnnQp1yevZ1OxTFE7TCS6Reb1CfWi4eXf_64VjVttcXV-rZLVDjIRbb_mlmfFtGGWbdatMsDNYBT5agGPKEf3rUYbjefNPuwJs3Q62CqA7Yt3LmLIfk8dbIE7zfqvQI-cpvkeScOEjaOv0oY8TxLFZZDsZWsgf7hcQnng-uuG4oECe11b3t1G00]--></g></svg>