<?xml version="1.0" encoding="us-ascii" standalone="no"?><svg xmlns="http://www.w3.org/2000/svg" xmlns:xlink="http://www.w3.org/1999/xlink" contentStyleType="text/css" height="1679px" preserveAspectRatio="none" style="width:938px;height:1679px;background:#FFFFFF;" version="1.1" viewBox="0 0 938 1679" width="938px" zoomAndPan="magnify"><defs/><g><!--cluster Disciplina de Requisitos--><g id="cluster_Disciplina de Requisitos"><path d="M8.5,58 L172.5,58 A3.75,3.75 0 0 1 175,60.5 L182,83.0679 L310.5,83.0679 A2.5,2.5 0 0 1 313,85.5679 L313,481.5 A2.5,2.5 0 0 1 310.5,484 L8.5,484 A2.5,2.5 0 0 1 6,481.5 L6,60.5 A2.5,2.5 0 0 1 8.5,58 " fill="none" style="stroke:#000000;stroke-width:1.5;"/><line style="stroke:#000000;stroke-width:1.5;" x1="6" x2="182" y1="83.0679" y2="83.0679"/><text fill="#000000" font-family="sans-serif" font-size="14" font-weight="bold" lengthAdjust="spacing" textLength="163" x="10" y="74.9659">Disciplina de Requisitos</text></g><!--cluster Disciplina de An?lisis--><g id="cluster_Disciplina de An&#225;lisis"><path d="M339.5,382 L484.5,382 A3.75,3.75 0 0 1 487,384.5 L494,407.0679 L494.5,407.0679 A2.5,2.5 0 0 1 497,409.5679 L497,823.5 A2.5,2.5 0 0 1 494.5,826 L339.5,826 A2.5,2.5 0 0 1 337,823.5 L337,384.5 A2.5,2.5 0 0 1 339.5,382 " fill="none" style="stroke:#000000;stroke-width:1.5;"/><line style="stroke:#000000;stroke-width:1.5;" x1="337" x2="494" y1="407.0679" y2="407.0679"/><text fill="#000000" font-family="sans-serif" font-size="14" font-weight="bold" lengthAdjust="spacing" textLength="144" x="341" y="398.9659">Disciplina de An&#225;lisis</text></g><!--cluster Disciplina de Dise?o--><g id="cluster_Disciplina de Dise&#241;o"><path d="M523.5,508 L662.5,508 A3.75,3.75 0 0 1 665,510.5 L672,533.0679 L672.5,533.0679 A2.5,2.5 0 0 1 675,535.5679 L675,949.5 A2.5,2.5 0 0 1 672.5,952 L523.5,952 A2.5,2.5 0 0 1 521,949.5 L521,510.5 A2.5,2.5 0 0 1 523.5,508 " fill="none" style="stroke:#000000;stroke-width:1.5;"/><line style="stroke:#000000;stroke-width:1.5;" x1="521" x2="672" y1="533.0679" y2="533.0679"/><text fill="#000000" font-family="sans-serif" font-size="14" font-weight="bold" lengthAdjust="spacing" textLength="138" x="525" y="524.9659">Disciplina de Dise&#241;o</text></g><!--cluster Disciplina de Implementaci?n--><g id="cluster_Disciplina de Implementaci&#243;n"><path d="M712.5,850 L918.5,850 A3.75,3.75 0 0 1 921,852.5 L928,875.0679 L928.5,875.0679 A2.5,2.5 0 0 1 931,877.5679 L931,1381.5 A2.5,2.5 0 0 1 928.5,1384 L712.5,1384 A2.5,2.5 0 0 1 710,1381.5 L710,852.5 A2.5,2.5 0 0 1 712.5,850 " fill="none" style="stroke:#000000;stroke-width:1.5;"/><line style="stroke:#000000;stroke-width:1.5;" x1="710" x2="928" y1="875.0679" y2="875.0679"/><text fill="#000000" font-family="sans-serif" font-size="14" font-weight="bold" lengthAdjust="spacing" textLength="205" x="714" y="866.9659">Disciplina de Implementaci&#243;n</text></g><!--cluster Disciplina de Pruebas--><g id="cluster_Disciplina de Pruebas"><path d="M355.5,1066 L503.5,1066 A3.75,3.75 0 0 1 506,1068.5 L513,1091.0679 L683.5,1091.0679 A2.5,2.5 0 0 1 686,1093.5679 L686,1597.5 A2.5,2.5 0 0 1 683.5,1600 L355.5,1600 A2.5,2.5 0 0 1 353,1597.5 L353,1068.5 A2.5,2.5 0 0 1 355.5,1066 " fill="none" style="stroke:#000000;stroke-width:1.5;"/><line style="stroke:#000000;stroke-width:1.5;" x1="353" x2="513" y1="1091.0679" y2="1091.0679"/><text fill="#000000" font-family="sans-serif" font-size="14" font-weight="bold" lengthAdjust="spacing" textLength="147" x="357" y="1082.9659">Disciplina de Pruebas</text></g><!--class Encontrar--><g id="elem_Encontrar"><rect codeLine="9" fill="#F1F1F1" height="48.1358" id="Encontrar" rx="2.5" ry="2.5" style="stroke:#181818;stroke-width:0.5;" width="126" x="167" y="96"/><text fill="#000000" font-family="sans-serif" font-size="14" lengthAdjust="spacing" textLength="120" x="170" y="115.9659">Encontrar Actores</text><text fill="#000000" font-family="sans-serif" font-size="14" lengthAdjust="spacing" textLength="100" x="182" y="135.0339">y Casos de Uso</text></g><!--class Priorizar--><g id="elem_Priorizar"><rect codeLine="10" fill="#F1F1F1" height="48.1358" id="Priorizar" rx="2.5" ry="2.5" style="stroke:#181818;stroke-width:0.5;" width="95" x="182.5" y="204"/><text fill="#000000" font-family="sans-serif" font-size="14" lengthAdjust="spacing" textLength="57" x="199.5" y="223.9659">Priorizar</text><text fill="#000000" font-family="sans-serif" font-size="14" lengthAdjust="spacing" textLength="89" x="185.5" y="243.0339">Casos de Uso</text></g><!--class Especificar--><g id="elem_Especificar"><rect codeLine="11" fill="#F1F1F1" height="48.1358" id="Especificar" rx="2.5" ry="2.5" style="stroke:#181818;stroke-width:0.5;" width="117" x="168.5" y="312"/><text fill="#000000" font-family="sans-serif" font-size="14" lengthAdjust="spacing" textLength="53" x="200.5" y="331.9659">Detallar</text><text fill="#000000" font-family="sans-serif" font-size="14" lengthAdjust="spacing" textLength="107" x="175.5" y="351.0339">de  Caso de Uso</text></g><!--class Prototipar--><g id="elem_Prototipar"><rect codeLine="12" fill="#F1F1F1" height="48.1358" id="Prototipar" rx="2.5" ry="2.5" style="stroke:#181818;stroke-width:0.5;" width="140" x="157" y="420"/><text fill="#000000" font-family="sans-serif" font-size="14" lengthAdjust="spacing" textLength="83" x="185.5" y="439.9659">Prototipar la</text><text fill="#000000" font-family="sans-serif" font-size="14" lengthAdjust="spacing" textLength="130" x="164" y="459.0339">Interfaz de Usuario</text></g><!--class Estructurar--><g id="elem_Estructurar"><rect codeLine="13" fill="#F1F1F1" height="48.1358" id="Estructurar" rx="2.5" ry="2.5" style="stroke:#181818;stroke-width:0.5;" width="99" x="22.5" y="420"/><text fill="#000000" font-family="sans-serif" font-size="14" lengthAdjust="spacing" textLength="76" x="32" y="439.9659">Estructurar</text><text fill="#000000" font-family="sans-serif" font-size="14" lengthAdjust="spacing" textLength="89" x="29.5" y="459.0339">Casos de Uso</text></g><!--class Analisis--><g id="elem_Analisis"><rect codeLine="17" fill="#F1F1F1" height="48.1358" id="Analisis" rx="2.5" ry="2.5" style="stroke:#181818;stroke-width:0.5;" width="95" x="385.5" y="420"/><text fill="#000000" font-family="sans-serif" font-size="14" lengthAdjust="spacing" textLength="89" x="388.5" y="439.9659">An&#225;lisis de la</text><text fill="#000000" font-family="sans-serif" font-size="14" lengthAdjust="spacing" textLength="85" x="392.5" y="459.0339">Arquitectura</text></g><!--class AnalisisCasoUso--><g id="elem_AnalisisCasoUso"><rect codeLine="18" fill="#F1F1F1" height="48.1358" id="AnalisisCasoUso" rx="2.5" ry="2.5" style="stroke:#181818;stroke-width:0.5;" width="92" x="387" y="546"/><text fill="#000000" font-family="sans-serif" font-size="14" lengthAdjust="spacing" textLength="73" x="396.5" y="565.9659">An&#225;lisis de</text><text fill="#000000" font-family="sans-serif" font-size="14" lengthAdjust="spacing" textLength="82" x="394" y="585.0339">Caso de Uso</text></g><!--class AnalisisClase--><g id="elem_AnalisisClase"><rect codeLine="19" fill="#F1F1F1" height="48.1358" id="AnalisisClase" rx="2.5" ry="2.5" style="stroke:#181818;stroke-width:0.5;" width="63" x="408.5" y="654"/><text fill="#000000" font-family="sans-serif" font-size="14" lengthAdjust="spacing" textLength="52" x="412" y="673.9659">An&#225;lisis</text><text fill="#000000" font-family="sans-serif" font-size="14" lengthAdjust="spacing" textLength="57" x="411.5" y="693.0339">de Clase</text></g><!--class AnalisisPaquete--><g id="elem_AnalisisPaquete"><rect codeLine="20" fill="#F1F1F1" height="48.1358" id="AnalisisPaquete" rx="2.5" ry="2.5" style="stroke:#181818;stroke-width:0.5;" width="82" x="399" y="762"/><text fill="#000000" font-family="sans-serif" font-size="14" lengthAdjust="spacing" textLength="52" x="412" y="781.9659">An&#225;lisis</text><text fill="#000000" font-family="sans-serif" font-size="14" lengthAdjust="spacing" textLength="76" x="402" y="801.0339">de Paquete</text></g><!--class Dise?oArquitectura--><g id="elem_Dise&#241;oArquitectura"><rect codeLine="24" fill="#F1F1F1" height="48.1358" id="Dise&#241;oArquitectura" rx="2.5" ry="2.5" style="stroke:#181818;stroke-width:0.5;" width="95" x="537.5" y="546"/><text fill="#000000" font-family="sans-serif" font-size="14" lengthAdjust="spacing" textLength="83" x="543.5" y="565.9659">Dise&#241;o de la</text><text fill="#000000" font-family="sans-serif" font-size="14" lengthAdjust="spacing" textLength="85" x="544.5" y="585.0339">Arquitectura</text></g><!--class Dise?oCasoUso--><g id="elem_Dise&#241;oCasoUso"><rect codeLine="25" fill="#F1F1F1" height="48.1358" id="Dise&#241;oCasoUso" rx="2.5" ry="2.5" style="stroke:#181818;stroke-width:0.5;" width="92" x="537" y="654"/><text fill="#000000" font-family="sans-serif" font-size="14" lengthAdjust="spacing" textLength="67" x="549.5" y="673.9659">Dise&#241;o de</text><text fill="#000000" font-family="sans-serif" font-size="14" lengthAdjust="spacing" textLength="82" x="544" y="693.0339">Caso de Uso</text></g><!--class Dise?oClase--><g id="elem_Dise&#241;oClase"><rect codeLine="26" fill="#F1F1F1" height="48.1358" id="Dise&#241;oClase" rx="2.5" ry="2.5" style="stroke:#181818;stroke-width:0.5;" width="63" x="550.5" y="762"/><text fill="#000000" font-family="sans-serif" font-size="14" lengthAdjust="spacing" textLength="46" x="557" y="781.9659">Dise&#241;o</text><text fill="#000000" font-family="sans-serif" font-size="14" lengthAdjust="spacing" textLength="57" x="553.5" y="801.0339">de Clase</text></g><!--class Dise?arSubsistema--><g id="elem_Dise&#241;arSubsistema"><rect codeLine="27" fill="#F1F1F1" height="48.1358" id="Dise&#241;arSubsistema" rx="2.5" ry="2.5" style="stroke:#181818;stroke-width:0.5;" width="88" x="537" y="888"/><text fill="#000000" font-family="sans-serif" font-size="14" lengthAdjust="spacing" textLength="52" x="555" y="907.9659">Dise&#241;ar</text><text fill="#000000" font-family="sans-serif" font-size="14" lengthAdjust="spacing" textLength="78" x="544" y="927.0339">Subsistema</text></g><!--class ImplementarArquitectura--><g id="elem_ImplementarArquitectura"><rect codeLine="31" fill="#F1F1F1" height="48.1358" id="ImplementarArquitectura" rx="2.5" ry="2.5" style="stroke:#181818;stroke-width:0.5;" width="111" x="731.5" y="888"/><text fill="#000000" font-family="sans-serif" font-size="14" lengthAdjust="spacing" textLength="88" x="743" y="907.9659">Implementar</text><text fill="#000000" font-family="sans-serif" font-size="14" lengthAdjust="spacing" textLength="101" x="738.5" y="927.0339">la Arquitectura</text></g><!--class IntegrarSistemas--><g id="elem_IntegrarSistemas"><rect codeLine="32" fill="#F1F1F1" height="48.1358" id="IntegrarSistemas" rx="2.5" ry="2.5" style="stroke:#181818;stroke-width:0.5;" width="70" x="733" y="996"/><text fill="#000000" font-family="sans-serif" font-size="14" lengthAdjust="spacing" textLength="56" x="740" y="1015.9659">Integrar</text><text fill="#000000" font-family="sans-serif" font-size="14" lengthAdjust="spacing" textLength="60" x="740" y="1035.0339">Sistemas</text></g><!--class ImplementarSubsistema--><g id="elem_ImplementarSubsistema"><rect codeLine="33" fill="#F1F1F1" height="48.1358" id="ImplementarSubsistema" rx="2.5" ry="2.5" style="stroke:#181818;stroke-width:0.5;" width="98" x="730" y="1104"/><text fill="#000000" font-family="sans-serif" font-size="14" lengthAdjust="spacing" textLength="88" x="733" y="1123.9659">Implementar</text><text fill="#000000" font-family="sans-serif" font-size="14" lengthAdjust="spacing" textLength="78" x="740" y="1143.0339">Subsistema</text></g><!--class ImplementarClase--><g id="elem_ImplementarClase"><rect codeLine="34" fill="#F1F1F1" height="48.1358" id="ImplementarClase" rx="2.5" ry="2.5" style="stroke:#181818;stroke-width:0.5;" width="94" x="734" y="1212"/><text fill="#000000" font-family="sans-serif" font-size="14" lengthAdjust="spacing" textLength="88" x="737" y="1231.9659">Implementar</text><text fill="#000000" font-family="sans-serif" font-size="14" lengthAdjust="spacing" textLength="36" x="765" y="1251.0339">Clase</text></g><!--class ImplementarPruebaUnitaria--><g id="elem_ImplementarPruebaUnitaria"><rect codeLine="35" fill="#F1F1F1" height="48.1358" id="ImplementarPruebaUnitaria" rx="2.5" ry="2.5" style="stroke:#181818;stroke-width:0.5;" width="116" x="726" y="1320"/><text fill="#000000" font-family="sans-serif" font-size="14" lengthAdjust="spacing" textLength="88" x="740" y="1339.9659">Implementar</text><text fill="#000000" font-family="sans-serif" font-size="14" lengthAdjust="spacing" textLength="106" x="733" y="1359.0339">Prueba Unitaria</text></g><!--class PlanificarPruebas--><g id="elem_PlanificarPruebas"><rect codeLine="39" fill="#F1F1F1" height="48.1358" id="PlanificarPruebas" rx="2.5" ry="2.5" style="stroke:#181818;stroke-width:0.5;" width="69" x="381.5" y="1104"/><text fill="#000000" font-family="sans-serif" font-size="14" lengthAdjust="spacing" textLength="63" x="384.5" y="1123.9659">Planificar</text><text fill="#000000" font-family="sans-serif" font-size="14" lengthAdjust="spacing" textLength="55" x="390.5" y="1143.0339">Pruebas</text></g><!--class Dise?arPruebas--><g id="elem_Dise&#241;arPruebas"><rect codeLine="40" fill="#F1F1F1" height="48.1358" id="Dise&#241;arPruebas" rx="2.5" ry="2.5" style="stroke:#181818;stroke-width:0.5;" width="62" x="391" y="1212"/><text fill="#000000" font-family="sans-serif" font-size="14" lengthAdjust="spacing" textLength="52" x="394" y="1231.9659">Dise&#241;ar</text><text fill="#000000" font-family="sans-serif" font-size="14" lengthAdjust="spacing" textLength="56" x="394" y="1251.0339">pruebas</text></g><!--class ImplementarPruebas--><g id="elem_ImplementarPruebas"><rect codeLine="41" fill="#F1F1F1" height="48.1358" id="ImplementarPruebas" rx="2.5" ry="2.5" style="stroke:#181818;stroke-width:0.5;" width="94" x="382" y="1320"/><text fill="#000000" font-family="sans-serif" font-size="14" lengthAdjust="spacing" textLength="88" x="385" y="1339.9659">Implementar</text><text fill="#000000" font-family="sans-serif" font-size="14" lengthAdjust="spacing" textLength="55" x="403.5" y="1359.0339">Pruebas</text></g><!--class RealizarPruebasIntegracion--><g id="elem_RealizarPruebasIntegracion"><rect codeLine="42" fill="#F1F1F1" height="48.1358" id="RealizarPruebasIntegracion" rx="2.5" ry="2.5" style="stroke:#181818;stroke-width:0.5;" width="119" x="369.5" y="1428"/><text fill="#000000" font-family="sans-serif" font-size="14" lengthAdjust="spacing" textLength="113" x="372.5" y="1447.9659">Realizar Pruebas</text><text fill="#000000" font-family="sans-serif" font-size="14" lengthAdjust="spacing" textLength="99" x="381.5" y="1467.0339">de Integraci&#243;n</text></g><!--class RealizarPruebasSistemas--><g id="elem_RealizarPruebasSistemas"><rect codeLine="43" fill="#F1F1F1" height="48.1358" id="RealizarPruebasSistemas" rx="2.5" ry="2.5" style="stroke:#181818;stroke-width:0.5;" width="146" x="524" y="1428"/><text fill="#000000" font-family="sans-serif" font-size="14" lengthAdjust="spacing" textLength="54" x="568" y="1447.9659">Realizar</text><text fill="#000000" font-family="sans-serif" font-size="14" lengthAdjust="spacing" textLength="140" x="527" y="1467.0339">Pruebas de Sistemas</text></g><!--class EvaluarPruebas--><g id="elem_EvaluarPruebas"><rect codeLine="44" fill="#F1F1F1" height="48.1358" id="EvaluarPruebas" rx="2.5" ry="2.5" style="stroke:#181818;stroke-width:0.5;" width="65" x="480.5" y="1536"/><text fill="#000000" font-family="sans-serif" font-size="14" lengthAdjust="spacing" textLength="50" x="488" y="1555.9659">Evaluar</text><text fill="#000000" font-family="sans-serif" font-size="14" lengthAdjust="spacing" textLength="55" x="487.5" y="1575.0339">Pruebas</text></g><!--class Inicio--><g id="elem_Inicio"><rect codeLine="5" fill="#F1F1F1" height="29.0679" id="Inicio" rx="2.5" ry="2.5" style="stroke:#181818;stroke-width:0.5;" width="43" x="208.5" y="7"/><text fill="#000000" font-family="sans-serif" font-size="14" lengthAdjust="spacing" textLength="37" x="211.5" y="26.9659">Inicio</text></g><!--class Fin--><g id="elem_Fin"><rect codeLine="6" fill="#F1F1F1" height="29.0679" id="Fin" rx="2.5" ry="2.5" style="stroke:#181818;stroke-width:0.5;" width="26" x="500" y="1644"/><text fill="#000000" font-family="sans-serif" font-size="14" lengthAdjust="spacing" textLength="20" x="503" y="1663.9659">Fin</text></g><!--link Inicio to Encontrar--><g id="link_Inicio_Encontrar"><path codeLine="47" d="M230,36.33 C230,51.86 230,71.32 230,89.88 " fill="none" id="Inicio-to-Encontrar" style="stroke:#181818;stroke-width:1.0;"/><polygon fill="#181818" points="230,95.88,234,86.88,230,90.88,226,86.88,230,95.88" style="stroke:#181818;stroke-width:1.0;"/></g><!--link Encontrar to Priorizar--><g id="link_Encontrar_Priorizar"><path codeLine="48" d="M230,144 C230,161.66 230,179.94 230,197.68 " fill="none" id="Encontrar-to-Priorizar" style="stroke:#181818;stroke-width:1.0;"/><polygon fill="#181818" points="230,203.68,234,194.68,230,198.68,226,194.68,230,203.68" style="stroke:#181818;stroke-width:1.0;"/></g><!--link Priorizar to Especificar--><g id="link_Priorizar_Especificar"><path codeLine="49" d="M229.35,252 C228.85,269.66 228.329,287.9424 227.829,305.6824 " fill="none" id="Priorizar-to-Especificar" style="stroke:#181818;stroke-width:1.0;"/><polygon fill="#181818" points="227.66,311.68,231.912,302.7963,227.8009,306.682,223.9152,302.5709,227.66,311.68" style="stroke:#181818;stroke-width:1.0;"/></g><!--link Especificar to Prototipar--><g id="link_Especificar_Prototipar"><path codeLine="50" d="M227,360 C227,377.66 227,395.94 227,413.68 " fill="none" id="Especificar-to-Prototipar" style="stroke:#181818;stroke-width:1.0;"/><polygon fill="#181818" points="227,419.68,231,410.68,227,414.68,223,410.68,227,419.68" style="stroke:#181818;stroke-width:1.0;"/></g><!--link Especificar to Estructurar--><g id="link_Especificar_Estructurar"><path codeLine="51" d="M168.46,357.7 C158.26,362.39 148.03,367.83 139,374 C120.38,386.71 106.6627,400.6341 94.1727,415.2841 " fill="none" id="Especificar-to-Estructurar" style="stroke:#181818;stroke-width:1.0;"/><polygon fill="#181818" points="90.28,419.85,99.1629,415.5963,93.5239,416.0451,93.0751,410.4061,90.28,419.85" style="stroke:#181818;stroke-width:1.0;"/></g><!--link Priorizar to Analisis--><g id="link_Priorizar_Analisis"><path codeLine="52" d="M252.11,252.31 C291.16,293.47 367.7605,374.2272 406.7905,415.3672 " fill="none" id="Priorizar-to-Analisis" style="stroke:#181818;stroke-width:1.0;"/><polygon fill="#181818" points="410.92,419.72,407.6275,410.4378,407.4787,416.0927,401.8238,415.9438,410.92,419.72" style="stroke:#181818;stroke-width:1.0;"/></g><!--link Analisis to AnalisisCasoUso--><g id="link_Analisis_AnalisisCasoUso"><path codeLine="53" d="M433,468.03 C433,490.17 433,517.44 433,539.67 " fill="none" id="Analisis-to-AnalisisCasoUso" style="stroke:#181818;stroke-width:1.0;"/><polygon fill="#181818" points="433,545.67,437,536.67,433,540.67,429,536.67,433,545.67" style="stroke:#181818;stroke-width:1.0;"/></g><!--link Prototipar to AnalisisCasoUso--><g id="link_Prototipar_AnalisisCasoUso"><path codeLine="54" d="M265.26,468.03 C302.15,490.24 352.5195,520.5557 389.4495,542.7857 " fill="none" id="Prototipar-to-AnalisisCasoUso" style="stroke:#181818;stroke-width:1.0;"/><polygon fill="#181818" points="394.59,545.88,388.9421,537.8115,390.3062,543.3014,384.8163,544.6655,394.59,545.88" style="stroke:#181818;stroke-width:1.0;"/></g><!--link Estructurar to AnalisisCasoUso--><g id="link_Estructurar_AnalisisCasoUso"><path codeLine="55" d="M98.24,468.07 C109.94,477.06 124.37,486.51 139,492 C170.39,503.78 181.18,493.15 214,500 C274.88,512.7 337.2399,533.5032 381.0799,549.4132 " fill="none" id="Estructurar-to-AnalisisCasoUso" style="stroke:#181818;stroke-width:1.0;"/><polygon fill="#181818" points="386.72,551.46,379.6245,544.6297,382.0199,549.7543,376.8953,552.1498,386.72,551.46" style="stroke:#181818;stroke-width:1.0;"/></g><!--link Estructurar to PlanificarPruebas--><g id="link_Estructurar_PlanificarPruebas"><path codeLine="56" d="M92.74,468.12 C126.1,507.81 188,592.79 188,677 C188,677 188,677 188,913 C188,1017.78 312.075,1083.8368 375.855,1111.1668 " fill="none" id="Estructurar-to-PlanificarPruebas" style="stroke:#181818;stroke-width:1.0;"/><polygon fill="#181818" points="381.37,1113.53,374.673,1106.3085,376.7742,1111.5607,371.522,1113.6619,381.37,1113.53" style="stroke:#181818;stroke-width:1.0;"/></g><!--link Analisis to Dise?oArquitectura--><g id="link_Analisis_Dise&#241;oArquitectura"><path codeLine="57" d="M461.23,468.03 C488.45,490.24 524.7608,519.8573 552.0108,542.0873 " fill="none" id="Analisis-to-Dise&#241;oArquitectura" style="stroke:#181818;stroke-width:1.0;"/><polygon fill="#181818" points="556.66,545.88,552.2147,537.0914,552.7857,542.7194,547.1577,543.2904,556.66,545.88" style="stroke:#181818;stroke-width:1.0;"/></g><!--link Dise?oArquitectura to Dise?oCasoUso--><g id="link_Dise&#241;oArquitectura_Dise&#241;oCasoUso"><path codeLine="58" d="M584.57,594 C584.23,611.66 583.8816,629.941 583.5516,647.681 " fill="none" id="Dise&#241;oArquitectura-to-Dise&#241;oCasoUso" style="stroke:#181818;stroke-width:1.0;"/><polygon fill="#181818" points="583.44,653.68,587.6067,644.756,583.533,648.6809,579.6081,644.6072,583.44,653.68" style="stroke:#181818;stroke-width:1.0;"/></g><!--link AnalisisCasoUso to Dise?oCasoUso--><g id="link_AnalisisCasoUso_Dise&#241;oCasoUso"><path codeLine="59" d="M465.55,594 C490.62,611.72 520.2292,632.6484 545.3592,650.3984 " fill="none" id="AnalisisCasoUso-to-Dise&#241;oCasoUso" style="stroke:#181818;stroke-width:1.0;"/><polygon fill="#181818" points="550.26,653.86,545.2165,645.4005,546.176,650.9754,540.6011,651.9349,550.26,653.86" style="stroke:#181818;stroke-width:1.0;"/></g><!--link AnalisisCasoUso to AnalisisClase--><g id="link_AnalisisCasoUso_AnalisisClase"><path codeLine="60" d="M434.52,594 C435.68,611.66 436.8951,629.953 438.0651,647.693 " fill="none" id="AnalisisCasoUso-to-AnalisisClase" style="stroke:#181818;stroke-width:1.0;"/><polygon fill="#181818" points="438.46,653.68,441.859,644.4363,438.131,648.6908,433.8764,644.9627,438.46,653.68" style="stroke:#181818;stroke-width:1.0;"/></g><!--link Dise?oCasoUso to Dise?oClase--><g id="link_Dise&#241;oCasoUso_Dise&#241;oClase"><path codeLine="61" d="M582.78,702 C582.62,719.66 582.4475,737.9403 582.2775,755.6803 " fill="none" id="Dise&#241;oCasoUso-to-Dise&#241;oClase" style="stroke:#181818;stroke-width:1.0;"/><polygon fill="#181818" points="582.22,761.68,586.3061,752.7187,582.2679,756.6802,578.3064,752.6421,582.22,761.68" style="stroke:#181818;stroke-width:1.0;"/></g><!--link AnalisisClase to Dise?oClase--><g id="link_AnalisisClase_Dise&#241;oClase"><path codeLine="62" d="M470.81,702 C494.47,719.66 522.1922,740.3504 545.9522,758.0904 " fill="none" id="AnalisisClase-to-Dise&#241;oClase" style="stroke:#181818;stroke-width:1.0;"/><polygon fill="#181818" points="550.76,761.68,545.9414,753.0904,546.7535,758.6886,541.1553,759.5007,550.76,761.68" style="stroke:#181818;stroke-width:1.0;"/></g><!--link AnalisisClase to AnalisisPaquete--><g id="link_AnalisisClase_AnalisisPaquete"><path codeLine="63" d="M440,702 C440,719.66 440,737.94 440,755.68 " fill="none" id="AnalisisClase-to-AnalisisPaquete" style="stroke:#181818;stroke-width:1.0;"/><polygon fill="#181818" points="440,761.68,444,752.68,440,756.68,436,752.68,440,761.68" style="stroke:#181818;stroke-width:1.0;"/></g><!--link Dise?oArquitectura to ImplementarArquitectura--><g id="link_Dise&#241;oArquitectura_ImplementarArquitectura"><path codeLine="64" d="M603.83,594.33 C616.63,610.62 633.6,633.11 647,654 C700.21,736.98 750.5262,836.3939 773.0562,882.2939 " fill="none" id="Dise&#241;oArquitectura-to-ImplementarArquitectura" style="stroke:#181818;stroke-width:1.0;"/><polygon fill="#181818" points="775.7,887.68,775.3251,877.8383,773.4968,883.1916,768.1436,881.3633,775.7,887.68" style="stroke:#181818;stroke-width:1.0;"/></g><!--link ImplementarArquitectura to IntegrarSistemas--><g id="link_ImplementarArquitectura_IntegrarSistemas"><path codeLine="65" d="M782.88,936 C779.71,953.66 776.4187,972.0341 773.2387,989.7741 " fill="none" id="ImplementarArquitectura-to-IntegrarSistemas" style="stroke:#181818;stroke-width:1.0;"/><polygon fill="#181818" points="772.18,995.68,777.7052,987.527,773.0622,990.7584,769.8307,986.1154,772.18,995.68" style="stroke:#181818;stroke-width:1.0;"/></g><!--link Dise?oClase to Dise?arSubsistema--><g id="link_Dise&#241;oClase_Dise&#241;arSubsistema"><path codeLine="66" d="M581.81,810.03 C581.64,832.17 581.4186,859.4402 581.2386,881.6702 " fill="none" id="Dise&#241;oClase-to-Dise&#241;arSubsistema" style="stroke:#181818;stroke-width:1.0;"/><polygon fill="#181818" points="581.19,887.67,585.2627,878.7027,581.2305,882.6702,577.263,878.6379,581.19,887.67" style="stroke:#181818;stroke-width:1.0;"/></g><!--link Dise?oClase to IntegrarSistemas--><g id="link_Dise&#241;oClase_IntegrarSistemas"><path codeLine="67" d="M611,810.04 C621.73,819.33 633.57,830.56 643,842 C681.93,889.23 677.38,910.96 714,960 C723.31,972.46 730.6662,980.9612 740.6662,991.4812 " fill="none" id="Dise&#241;oClase-to-IntegrarSistemas" style="stroke:#181818;stroke-width:1.0;"/><polygon fill="#181818" points="744.8,995.83,741.4985,986.551,741.3552,992.206,735.7001,992.0627,744.8,995.83" style="stroke:#181818;stroke-width:1.0;"/></g><!--link AnalisisPaquete to Dise?arSubsistema--><g id="link_AnalisisPaquete_Dise&#241;arSubsistema"><path codeLine="68" d="M466.19,810.03 C491.36,832.17 524.6843,861.4779 549.9643,883.7079 " fill="none" id="AnalisisPaquete-to-Dise&#241;arSubsistema" style="stroke:#181818;stroke-width:1.0;"/><polygon fill="#181818" points="554.47,887.67,550.3528,878.723,550.7152,884.3682,545.07,884.7306,554.47,887.67" style="stroke:#181818;stroke-width:1.0;"/></g><!--link PlanificarPruebas to Dise?arPruebas--><g id="link_PlanificarPruebas_Dise&#241;arPruebas"><path codeLine="69" d="M417.3,1152 C418.3,1169.66 419.3423,1187.9495 420.3423,1205.6895 " fill="none" id="PlanificarPruebas-to-Dise&#241;arPruebas" style="stroke:#181818;stroke-width:1.0;"/><polygon fill="#181818" points="420.68,1211.68,424.1671,1202.4691,420.3986,1206.6879,416.1798,1202.9194,420.68,1211.68" style="stroke:#181818;stroke-width:1.0;"/></g><!--link Dise?arSubsistema to IntegrarSistemas--><g id="link_Dise&#241;arSubsistema_IntegrarSistemas"><path codeLine="70" d="M614.09,936.04 C625.87,943.93 639.36,952.63 652,960 C678.55,975.47 704.2314,988.5418 727.5314,999.8418 " fill="none" id="Dise&#241;arSubsistema-to-IntegrarSistemas" style="stroke:#181818;stroke-width:1.0;"/><polygon fill="#181818" points="732.93,1002.46,726.5776,994.9336,728.4312,1000.2782,723.0866,1002.1318,732.93,1002.46" style="stroke:#181818;stroke-width:1.0;"/></g><!--link IntegrarSistemas to ImplementarSubsistema--><g id="link_IntegrarSistemas_ImplementarSubsistema"><path codeLine="71" d="M770.39,1044 C772.22,1061.66 774.121,1079.972 775.961,1097.712 " fill="none" id="IntegrarSistemas-to-ImplementarSubsistema" style="stroke:#181818;stroke-width:1.0;"/><polygon fill="#181818" points="776.58,1103.68,779.6302,1094.3154,776.0642,1098.7067,771.6728,1095.1407,776.58,1103.68" style="stroke:#181818;stroke-width:1.0;"/></g><!--link ImplementarSubsistema to ImplementarClase--><g id="link_ImplementarSubsistema_ImplementarClase"><path codeLine="72" d="M779.43,1152 C779.77,1169.66 780.1184,1187.941 780.4484,1205.681 " fill="none" id="ImplementarSubsistema-to-ImplementarClase" style="stroke:#181818;stroke-width:1.0;"/><polygon fill="#181818" points="780.56,1211.68,784.3919,1202.6072,780.467,1206.6809,776.3933,1202.756,780.56,1211.68" style="stroke:#181818;stroke-width:1.0;"/></g><!--link ImplementarClase to ImplementarPruebaUnitaria--><g id="link_ImplementarClase_ImplementarPruebaUnitaria"><path codeLine="73" d="M781.65,1260 C782.15,1277.66 782.671,1295.9424 783.171,1313.6824 " fill="none" id="ImplementarClase-to-ImplementarPruebaUnitaria" style="stroke:#181818;stroke-width:1.0;"/><polygon fill="#181818" points="783.34,1319.68,787.0848,1310.5709,783.1991,1314.682,779.088,1310.7963,783.34,1319.68" style="stroke:#181818;stroke-width:1.0;"/></g><!--link ImplementarPruebaUnitaria to RealizarPruebasIntegracion--><g id="link_ImplementarPruebaUnitaria_RealizarPruebasIntegracion"><path codeLine="74" d="M741.55,1368.21 C724.65,1376.68 704.79,1385.71 686,1392 C609.04,1417.74 585.77,1408.51 507,1428 C501.11,1429.46 500.774,1429.4844 494.684,1431.1644 " fill="none" id="ImplementarPruebaUnitaria-to-RealizarPruebasIntegracion" style="stroke:#181818;stroke-width:1.0;"/><polygon fill="#181818" points="488.9,1432.76,498.6396,1434.2226,493.72,1431.4304,496.5122,1426.5107,488.9,1432.76" style="stroke:#181818;stroke-width:1.0;"/></g><!--link ImplementarPruebaUnitaria to RealizarPruebasSistemas--><g id="link_ImplementarPruebaUnitaria_RealizarPruebasSistemas"><path codeLine="75" d="M743.42,1368 C712.17,1385.72 674.36,1407.1517 643.04,1424.9017 " fill="none" id="ImplementarPruebaUnitaria-to-RealizarPruebasSistemas" style="stroke:#181818;stroke-width:1.0;"/><polygon fill="#181818" points="637.82,1427.86,647.6222,1426.9025,642.17,1425.3947,643.6778,1419.9425,637.82,1427.86" style="stroke:#181818;stroke-width:1.0;"/></g><!--link Dise?arPruebas to ImplementarPruebas--><g id="link_Dise&#241;arPruebas_ImplementarPruebas"><path codeLine="76" d="M423.52,1260 C424.68,1277.66 425.8951,1295.953 427.0651,1313.693 " fill="none" id="Dise&#241;arPruebas-to-ImplementarPruebas" style="stroke:#181818;stroke-width:1.0;"/><polygon fill="#181818" points="427.46,1319.68,430.859,1310.4363,427.131,1314.6908,422.8764,1310.9627,427.46,1319.68" style="stroke:#181818;stroke-width:1.0;"/></g><!--link ImplementarPruebas to RealizarPruebasSistemas--><g id="link_ImplementarPruebas_RealizarPruebasSistemas"><path codeLine="77" d="M465.45,1368 C493.54,1385.72 527.1152,1406.909 555.2552,1424.659 " fill="none" id="ImplementarPruebas-to-RealizarPruebasSistemas" style="stroke:#181818;stroke-width:1.0;"/><polygon fill="#181818" points="560.33,1427.86,554.8519,1419.6753,556.101,1425.1925,550.5838,1426.4416,560.33,1427.86" style="stroke:#181818;stroke-width:1.0;"/></g><!--link ImplementarPruebas to RealizarPruebasIntegracion--><g id="link_ImplementarPruebas_RealizarPruebasIntegracion"><path codeLine="78" d="M429,1368 C429,1385.66 429,1403.94 429,1421.68 " fill="none" id="ImplementarPruebas-to-RealizarPruebasIntegracion" style="stroke:#181818;stroke-width:1.0;"/><polygon fill="#181818" points="429,1427.68,433,1418.68,429,1422.68,425,1418.68,429,1427.68" style="stroke:#181818;stroke-width:1.0;"/></g><!--link RealizarPruebasIntegracion to EvaluarPruebas--><g id="link_RealizarPruebasIntegracion_EvaluarPruebas"><path codeLine="79" d="M447.23,1476 C461.22,1493.66 476.7332,1513.2378 490.7932,1530.9778 " fill="none" id="RealizarPruebasIntegracion-to-EvaluarPruebas" style="stroke:#181818;stroke-width:1.0;"/><polygon fill="#181818" points="494.52,1535.68,492.0646,1526.1421,491.4143,1531.7615,485.795,1531.1112,494.52,1535.68" style="stroke:#181818;stroke-width:1.0;"/></g><!--link RealizarPruebasSistemas to EvaluarPruebas--><g id="link_RealizarPruebasSistemas_EvaluarPruebas"><path codeLine="80" d="M578.77,1476 C564.78,1493.66 549.2668,1513.2378 535.2068,1530.9778 " fill="none" id="RealizarPruebasSistemas-to-EvaluarPruebas" style="stroke:#181818;stroke-width:1.0;"/><polygon fill="#181818" points="531.48,1535.68,540.205,1531.1112,534.5857,1531.7615,533.9354,1526.1421,531.48,1535.68" style="stroke:#181818;stroke-width:1.0;"/></g><!--link EvaluarPruebas to Fin--><g id="link_EvaluarPruebas_Fin"><path codeLine="81" d="M513,1584.36 C513,1602.99 513,1622.44 513,1637.88 " fill="none" id="EvaluarPruebas-to-Fin" style="stroke:#181818;stroke-width:1.0;"/><polygon fill="#181818" points="513,1643.88,517,1634.88,513,1638.88,509,1634.88,513,1643.88" style="stroke:#181818;stroke-width:1.0;"/></g><!--SRC=[bLPBRjim5Dph58JtkK818qa1xumKsNb3iqn2b28LaWgG53rCZr3a2BvO-9Nu-17SdJHlvlr8ZVt2Vb94nycyev6EPwhqyE8WmXJXT1W8nrgZWs24oVZodObXc33vXPyfsjqnJTZ4cS38oXxewymqCrBlqEy1eQ3OtGiYXL5OeJqnKb5z4kWTtM8jjLCzQhb3MAE5jYgFYad5Fgpo92h-4bpvTzHWph6o1IpHbm0Lz4G9Us84rf166ZRP8XnRuK4OgfxmHn3Es5Q9vH8lcqmRDHCpAzzXOwGrFlpfhcqlBd-vtHlSse8wYkzih-nw3VNvVFgzm9xH5iM6ydwImE4MQ-bEml9lBKgXmY5T_X6_pjH0HSGsvhPlzF9FWgaZrfyv4dAyfMuC7uFLx4bKJ9xeSF20-XlsOpxRCGqTyyQmMk6DqG_ZnEb8XS64NJu5MC4QSrKuhdUGCTfxS7VuMOKkGoyw22EUm6PHkuXYj2oOJTTfUDrWXXTRX8gZckaPeqV1x3khIePmYcuiDH3XLtJaM8GlVYaKLh468bgViLt4b2aINF5Rq-Zs59dgWThln5bRZ0JFYYSKRuLDaMYHjSIbQAGwYKXpgS395sdg2t3_XlbS3H3HrBpTVVWnG3SttpB3NXtUuQinh_xj-PdzPizHixXh6SfD52PS_2yz03Hzw9d1jyAvXryJhoyEgDxofmQMSrEbelAr56ZHK01o-3XWNnCk_RmtJC-KEdZGb7wKzv8r1todubHPYfPxYQgJ1CHqkhMmNRG47Ajjd4sqt64uZX8eMOKtTYDUjs4b_oKiJWkkhs5vDRIPzJfwtdq_50m4cbYdReiANpt3_V_z0W00]--></g></svg>