<?xml version="1.0" encoding="us-ascii" standalone="no"?><svg xmlns="http://www.w3.org/2000/svg" xmlns:xlink="http://www.w3.org/1999/xlink" contentStyleType="text/css" height="1785px" preserveAspectRatio="none" style="width:490px;height:1785px;background:#FFFFFF;" version="1.1" viewBox="0 0 490 1785" width="490px" zoomAndPan="magnify"><defs/><g><ellipse cx="313.5" cy="16" fill="#222222" rx="10" ry="10" style="stroke:#222222;stroke-width:1.0;"/><g id="Encontrar"><rect fill="#F1F1F1" height="58.1358" rx="12.5" ry="12.5" style="stroke:#181818;stroke-width:0.5;" width="140" x="243.5" y="86"/><line style="stroke:#181818;stroke-width:0.5;" x1="243.5" x2="383.5" y1="134.1358" y2="134.1358"/><text fill="#000000" font-family="sans-serif" font-size="14" lengthAdjust="spacing" textLength="120" x="253.5" y="105.9659">Encontrar Actores</text><text fill="#000000" font-family="sans-serif" font-size="14" lengthAdjust="spacing" textLength="100" x="265.5" y="125.0339">y Casos de Uso</text></g><g id="Priorizar"><rect fill="#F1F1F1" height="58.1358" rx="12.5" ry="12.5" style="stroke:#181818;stroke-width:0.5;" width="109" x="259" y="204"/><line style="stroke:#181818;stroke-width:0.5;" x1="259" x2="368" y1="252.1358" y2="252.1358"/><text fill="#000000" font-family="sans-serif" font-size="14" lengthAdjust="spacing" textLength="57" x="283" y="223.9659">Priorizar</text><text fill="#000000" font-family="sans-serif" font-size="14" lengthAdjust="spacing" textLength="89" x="269" y="243.0339">Casos de Uso</text></g><g id="Especificar"><rect fill="#F1F1F1" height="58.1358" rx="12.5" ry="12.5" style="stroke:#181818;stroke-width:0.5;" width="131" x="189" y="322"/><line style="stroke:#181818;stroke-width:0.5;" x1="189" x2="320" y1="370.1358" y2="370.1358"/><text fill="#000000" font-family="sans-serif" font-size="14" lengthAdjust="spacing" textLength="73" x="218" y="341.9659">Especificar</text><text fill="#000000" font-family="sans-serif" font-size="14" lengthAdjust="spacing" textLength="107" x="203" y="361.0339">de  Caso de Uso</text></g><g id="Prototipar"><rect fill="#F1F1F1" height="58.1358" rx="12.5" ry="12.5" style="stroke:#181818;stroke-width:0.5;" width="154" x="177.5" y="449.5"/><line style="stroke:#181818;stroke-width:0.5;" x1="177.5" x2="331.5" y1="497.6358" y2="497.6358"/><text fill="#000000" font-family="sans-serif" font-size="14" lengthAdjust="spacing" textLength="83" x="213" y="469.4659">Prototipar la</text><text fill="#000000" font-family="sans-serif" font-size="14" lengthAdjust="spacing" textLength="130" x="191.5" y="488.5339">Interfaz de Usuario</text></g><g id="Estructurar"><rect fill="#F1F1F1" height="77.2038" rx="12.5" ry="12.5" style="stroke:#181818;stroke-width:0.5;" width="135" x="7" y="440"/><line style="stroke:#181818;stroke-width:0.5;" x1="7" x2="142" y1="507.2038" y2="507.2038"/><text fill="#000000" font-family="sans-serif" font-size="14" lengthAdjust="spacing" textLength="76" x="34.5" y="459.9659">Estructurar</text><text fill="#000000" font-family="sans-serif" font-size="14" lengthAdjust="spacing" textLength="111" x="17" y="479.0339">la Especificaci&#243;n</text><text fill="#000000" font-family="sans-serif" font-size="14" lengthAdjust="spacing" textLength="110" x="19.5" y="498.1018">de Casos de Uso</text></g><g id="Analisis"><rect fill="#F1F1F1" height="58.1358" rx="12.5" ry="12.5" style="stroke:#181818;stroke-width:0.5;" width="109" x="367" y="449.5"/><line style="stroke:#181818;stroke-width:0.5;" x1="367" x2="476" y1="497.6358" y2="497.6358"/><text fill="#000000" font-family="sans-serif" font-size="14" lengthAdjust="spacing" textLength="89" x="377" y="469.4659">An&#225;lisis de la</text><text fill="#000000" font-family="sans-serif" font-size="14" lengthAdjust="spacing" textLength="85" x="381" y="488.5339">Arquitectura</text></g><g id="AnalisisCasoUso"><rect fill="#F1F1F1" height="58.1358" rx="12.5" ry="12.5" style="stroke:#181818;stroke-width:0.5;" width="106" x="201.5" y="577"/><line style="stroke:#181818;stroke-width:0.5;" x1="201.5" x2="307.5" y1="625.1358" y2="625.1358"/><text fill="#000000" font-family="sans-serif" font-size="14" lengthAdjust="spacing" textLength="73" x="218" y="596.9659">An&#225;lisis de</text><text fill="#000000" font-family="sans-serif" font-size="14" lengthAdjust="spacing" textLength="82" x="215.5" y="616.0339">Caso de Uso</text></g><g id="AnalisisClase"><rect fill="#F1F1F1" height="58.1358" rx="12.5" ry="12.5" style="stroke:#181818;stroke-width:0.5;" width="77" x="147" y="695"/><line style="stroke:#181818;stroke-width:0.5;" x1="147" x2="224" y1="743.1358" y2="743.1358"/><text fill="#000000" font-family="sans-serif" font-size="14" lengthAdjust="spacing" textLength="52" x="157.5" y="714.9659">An&#225;lisis</text><text fill="#000000" font-family="sans-serif" font-size="14" lengthAdjust="spacing" textLength="57" x="157" y="734.0339">de Clase</text></g><g id="AnalisisPaquete"><rect fill="#F1F1F1" height="58.1358" rx="12.5" ry="12.5" style="stroke:#181818;stroke-width:0.5;" width="96" x="136.5" y="813"/><line style="stroke:#181818;stroke-width:0.5;" x1="136.5" x2="232.5" y1="861.1358" y2="861.1358"/><text fill="#000000" font-family="sans-serif" font-size="14" lengthAdjust="spacing" textLength="52" x="156.5" y="832.9659">An&#225;lisis</text><text fill="#000000" font-family="sans-serif" font-size="14" lengthAdjust="spacing" textLength="76" x="146.5" y="852.0339">de Paquete</text></g><g id="Dise&#241;oArquitectura"><rect fill="#F1F1F1" height="58.1358" rx="12.5" ry="12.5" style="stroke:#181818;stroke-width:0.5;" width="109" x="366" y="577"/><line style="stroke:#181818;stroke-width:0.5;" x1="366" x2="475" y1="625.1358" y2="625.1358"/><text fill="#000000" font-family="sans-serif" font-size="14" lengthAdjust="spacing" textLength="83" x="379" y="596.9659">Dise&#241;o de la</text><text fill="#000000" font-family="sans-serif" font-size="14" lengthAdjust="spacing" textLength="85" x="380" y="616.0339">Arquitectura</text></g><g id="Dise&#241;oCasoUso"><rect fill="#F1F1F1" height="58.1358" rx="12.5" ry="12.5" style="stroke:#181818;stroke-width:0.5;" width="106" x="259.5" y="695"/><line style="stroke:#181818;stroke-width:0.5;" x1="259.5" x2="365.5" y1="743.1358" y2="743.1358"/><text fill="#000000" font-family="sans-serif" font-size="14" lengthAdjust="spacing" textLength="67" x="279" y="714.9659">Dise&#241;o de</text><text fill="#000000" font-family="sans-serif" font-size="14" lengthAdjust="spacing" textLength="82" x="273.5" y="734.0339">Caso de Uso</text></g><g id="Dise&#241;oClase"><rect fill="#F1F1F1" height="58.1358" rx="12.5" ry="12.5" style="stroke:#181818;stroke-width:0.5;" width="77" x="268" y="813"/><line style="stroke:#181818;stroke-width:0.5;" x1="268" x2="345" y1="861.1358" y2="861.1358"/><text fill="#000000" font-family="sans-serif" font-size="14" lengthAdjust="spacing" textLength="46" x="281.5" y="832.9659">Dise&#241;o</text><text fill="#000000" font-family="sans-serif" font-size="14" lengthAdjust="spacing" textLength="57" x="278" y="852.0339">de Clase</text></g><g id="Dise&#241;arSubsistema"><rect fill="#F1F1F1" height="58.1358" rx="12.5" ry="12.5" style="stroke:#181818;stroke-width:0.5;" width="102" x="149.5" y="931"/><line style="stroke:#181818;stroke-width:0.5;" x1="149.5" x2="251.5" y1="979.1358" y2="979.1358"/><text fill="#000000" font-family="sans-serif" font-size="14" lengthAdjust="spacing" textLength="52" x="174.5" y="950.9659">Dise&#241;ar</text><text fill="#000000" font-family="sans-serif" font-size="14" lengthAdjust="spacing" textLength="78" x="163.5" y="970.0339">Subsistema</text></g><g id="ImplementarArquitectura"><rect fill="#F1F1F1" height="58.1358" rx="12.5" ry="12.5" style="stroke:#181818;stroke-width:0.5;" width="125" x="358" y="931"/><line style="stroke:#181818;stroke-width:0.5;" x1="358" x2="483" y1="979.1358" y2="979.1358"/><text fill="#000000" font-family="sans-serif" font-size="14" lengthAdjust="spacing" textLength="88" x="376.5" y="950.9659">Implementar</text><text fill="#000000" font-family="sans-serif" font-size="14" lengthAdjust="spacing" textLength="101" x="372" y="970.0339">la Arquitectura</text></g><g id="IntegrarSistemas"><rect fill="#F1F1F1" height="58.1358" rx="12.5" ry="12.5" style="stroke:#181818;stroke-width:0.5;" width="84" x="260.5" y="1049"/><line style="stroke:#181818;stroke-width:0.5;" x1="260.5" x2="344.5" y1="1097.1358" y2="1097.1358"/><text fill="#000000" font-family="sans-serif" font-size="14" lengthAdjust="spacing" textLength="56" x="274.5" y="1068.9659">Integrar</text><text fill="#000000" font-family="sans-serif" font-size="14" lengthAdjust="spacing" textLength="60" x="274.5" y="1088.0339">Sistemas</text></g><g id="ImplementarSubsistema"><rect fill="#F1F1F1" height="58.1358" rx="12.5" ry="12.5" style="stroke:#181818;stroke-width:0.5;" width="112" x="242.5" y="1167"/><line style="stroke:#181818;stroke-width:0.5;" x1="242.5" x2="354.5" y1="1215.1358" y2="1215.1358"/><text fill="#000000" font-family="sans-serif" font-size="14" lengthAdjust="spacing" textLength="88" x="252.5" y="1186.9659">Implementar</text><text fill="#000000" font-family="sans-serif" font-size="14" lengthAdjust="spacing" textLength="78" x="259.5" y="1206.0339">Subsistema</text></g><g id="ImplementarClase"><rect fill="#F1F1F1" height="58.1358" rx="12.5" ry="12.5" style="stroke:#181818;stroke-width:0.5;" width="108" x="243.5" y="1285"/><line style="stroke:#181818;stroke-width:0.5;" x1="243.5" x2="351.5" y1="1333.1358" y2="1333.1358"/><text fill="#000000" font-family="sans-serif" font-size="14" lengthAdjust="spacing" textLength="88" x="253.5" y="1304.9659">Implementar</text><text fill="#000000" font-family="sans-serif" font-size="14" lengthAdjust="spacing" textLength="36" x="281.5" y="1324.0339">Clase</text></g><g id="ImplementarPruebaUnitaria"><rect fill="#F1F1F1" height="58.1358" rx="12.5" ry="12.5" style="stroke:#181818;stroke-width:0.5;" width="130" x="230.5" y="1403"/><line style="stroke:#181818;stroke-width:0.5;" x1="230.5" x2="360.5" y1="1451.1358" y2="1451.1358"/><text fill="#000000" font-family="sans-serif" font-size="14" lengthAdjust="spacing" textLength="88" x="251.5" y="1422.9659">Implementar</text><text fill="#000000" font-family="sans-serif" font-size="14" lengthAdjust="spacing" textLength="106" x="244.5" y="1442.0339">Prueba Unitaria</text></g><g id="PlanificarPruebas"><rect fill="#F1F1F1" height="58.1358" rx="12.5" ry="12.5" style="stroke:#181818;stroke-width:0.5;" width="83" x="57" y="1049"/><line style="stroke:#181818;stroke-width:0.5;" x1="57" x2="140" y1="1097.1358" y2="1097.1358"/><text fill="#000000" font-family="sans-serif" font-size="14" lengthAdjust="spacing" textLength="63" x="67" y="1068.9659">Planificar</text><text fill="#000000" font-family="sans-serif" font-size="14" lengthAdjust="spacing" textLength="55" x="73" y="1088.0339">Pruebas</text></g><g id="Dise&#241;arPruebas"><rect fill="#F1F1F1" height="58.1358" rx="12.5" ry="12.5" style="stroke:#181818;stroke-width:0.5;" width="76" x="69.5" y="1167"/><line style="stroke:#181818;stroke-width:0.5;" x1="69.5" x2="145.5" y1="1215.1358" y2="1215.1358"/><text fill="#000000" font-family="sans-serif" font-size="14" lengthAdjust="spacing" textLength="52" x="79.5" y="1186.9659">Dise&#241;ar</text><text fill="#000000" font-family="sans-serif" font-size="14" lengthAdjust="spacing" textLength="56" x="79.5" y="1206.0339">pruebas</text></g><g id="ImplementarPruebas"><rect fill="#F1F1F1" height="58.1358" rx="12.5" ry="12.5" style="stroke:#181818;stroke-width:0.5;" width="108" x="59.5" y="1403"/><line style="stroke:#181818;stroke-width:0.5;" x1="59.5" x2="167.5" y1="1451.1358" y2="1451.1358"/><text fill="#000000" font-family="sans-serif" font-size="14" lengthAdjust="spacing" textLength="88" x="69.5" y="1422.9659">Implementar</text><text fill="#000000" font-family="sans-serif" font-size="14" lengthAdjust="spacing" textLength="55" x="88" y="1442.0339">Pruebas</text></g><g id="RealizarPruebasIntegracion"><rect fill="#F1F1F1" height="58.1358" rx="12.5" ry="12.5" style="stroke:#181818;stroke-width:0.5;" width="133" x="47" y="1521"/><line style="stroke:#181818;stroke-width:0.5;" x1="47" x2="180" y1="1569.1358" y2="1569.1358"/><text fill="#000000" font-family="sans-serif" font-size="14" lengthAdjust="spacing" textLength="113" x="57" y="1540.9659">Realizar Pruebas</text><text fill="#000000" font-family="sans-serif" font-size="14" lengthAdjust="spacing" textLength="99" x="66" y="1560.0339">de Integraci&#243;n</text></g><g id="RealizarPruebasSistemas"><rect fill="#F1F1F1" height="58.1358" rx="12.5" ry="12.5" style="stroke:#181818;stroke-width:0.5;" width="160" x="215.5" y="1521"/><line style="stroke:#181818;stroke-width:0.5;" x1="215.5" x2="375.5" y1="1569.1358" y2="1569.1358"/><text fill="#000000" font-family="sans-serif" font-size="14" lengthAdjust="spacing" textLength="54" x="266.5" y="1540.9659">Realizar</text><text fill="#000000" font-family="sans-serif" font-size="14" lengthAdjust="spacing" textLength="140" x="225.5" y="1560.0339">Pruebas de Sistemas</text></g><g id="EvaluarPruebas"><rect fill="#F1F1F1" height="58.1358" rx="12.5" ry="12.5" style="stroke:#181818;stroke-width:0.5;" width="79" x="165" y="1639"/><line style="stroke:#181818;stroke-width:0.5;" x1="165" x2="244" y1="1687.1358" y2="1687.1358"/><text fill="#000000" font-family="sans-serif" font-size="14" lengthAdjust="spacing" textLength="50" x="179.5" y="1658.9659">Evaluar</text><text fill="#000000" font-family="sans-serif" font-size="14" lengthAdjust="spacing" textLength="55" x="179" y="1678.0339">Pruebas</text></g><ellipse cx="204.5" cy="1768" fill="none" rx="11" ry="11" style="stroke:#222222;stroke-width:1.0;"/><ellipse cx="204.5" cy="1768" fill="#222222" rx="6" ry="6" style="stroke:#222222;stroke-width:1.0;"/><!--link *start* to Encontrar--><g id="link_*start*_Encontrar"><path d="M313.5,26.3 C313.5,39.86 313.5,59.64 313.5,79.75 " fill="none" id="*start*-to-Encontrar" style="stroke:#181818;stroke-width:1.0;"/><polygon fill="#181818" points="313.5,85.75,317.5,76.75,313.5,80.75,309.5,76.75,313.5,85.75" style="stroke:#181818;stroke-width:1.0;"/></g><!--link Encontrar to Priorizar--><g id="link_Encontrar_Priorizar"><path d="M313.5,144.08 C313.5,162.18 313.5,179.64 313.5,197.78 " fill="none" id="Encontrar-to-Priorizar" style="stroke:#181818;stroke-width:1.0;"/><polygon fill="#181818" points="313.5,203.78,317.5,194.78,313.5,198.78,309.5,194.78,313.5,203.78" style="stroke:#181818;stroke-width:1.0;"/></g><!--link Priorizar to Especificar--><g id="link_Priorizar_Especificar"><path d="M299.22,262.08 C290.01,280.18 280.7986,298.2912 271.5786,316.4312 " fill="none" id="Priorizar-to-Especificar" style="stroke:#181818;stroke-width:1.0;"/><polygon fill="#181818" points="268.86,321.78,276.5037,315.5693,271.1255,317.3227,269.3721,311.9445,268.86,321.78" style="stroke:#181818;stroke-width:1.0;"/></g><!--link Especificar to Prototipar--><g id="link_Especificar_Prototipar"><path d="M254.5,380.16 C254.5,400.83 254.5,422.78 254.5,443.43 " fill="none" id="Especificar-to-Prototipar" style="stroke:#181818;stroke-width:1.0;"/><polygon fill="#181818" points="254.5,449.43,258.5,440.43,254.5,444.43,250.5,440.43,254.5,449.43" style="stroke:#181818;stroke-width:1.0;"/></g><!--link Especificar to Estructurar--><g id="link_Especificar_Estructurar"><path d="M214.1,380.16 C188.81,397.8 160.8413,417.2976 133.3413,436.4776 " fill="none" id="Especificar-to-Estructurar" style="stroke:#181818;stroke-width:1.0;"/><polygon fill="#181818" points="128.42,439.91,138.0901,438.0423,132.5211,437.0497,133.5137,431.4806,128.42,439.91" style="stroke:#181818;stroke-width:1.0;"/></g><!--link Priorizar to Analisis--><g id="link_Priorizar_Analisis"><path d="M326.1,262.41 C346.91,309.33 385.7871,396.9854 406.5471,443.7854 " fill="none" id="Priorizar-to-Analisis" style="stroke:#181818;stroke-width:1.0;"/><polygon fill="#181818" points="408.98,449.27,408.987,439.4211,406.9526,444.6995,401.6742,442.665,408.98,449.27" style="stroke:#181818;stroke-width:1.0;"/></g><!--link Analisis to AnalisisCasoUso--><g id="link_Analisis_AnalisisCasoUso"><path d="M384.02,507.66 C356.52,528.33 324.1266,552.6755 296.6466,573.3255 " fill="none" id="Analisis-to-AnalisisCasoUso" style="stroke:#181818;stroke-width:1.0;"/><polygon fill="#181818" points="291.85,576.93,301.4479,574.7211,295.8472,573.9263,296.642,568.3255,291.85,576.93" style="stroke:#181818;stroke-width:1.0;"/></g><!--link Prototipar to AnalisisCasoUso--><g id="link_Prototipar_AnalisisCasoUso"><path d="M254.5,507.66 C254.5,528.33 254.5,550.28 254.5,570.93 " fill="none" id="Prototipar-to-AnalisisCasoUso" style="stroke:#181818;stroke-width:1.0;"/><polygon fill="#181818" points="254.5,576.93,258.5,567.93,254.5,571.93,250.5,567.93,254.5,576.93" style="stroke:#181818;stroke-width:1.0;"/></g><!--link Estructurar to AnalisisCasoUso--><g id="link_Estructurar_AnalisisCasoUso"><path d="M128.51,517.15 C156.05,536.36 184.0579,555.8888 209.3479,573.5188 " fill="none" id="Estructurar-to-AnalisisCasoUso" style="stroke:#181818;stroke-width:1.0;"/><polygon fill="#181818" points="214.27,576.95,209.1744,568.5218,210.1683,574.0906,204.5994,575.0845,214.27,576.95" style="stroke:#181818;stroke-width:1.0;"/></g><!--link Estructurar to PlanificarPruebas--><g id="link_Estructurar_PlanificarPruebas"><path d="M76,517.04 C77.78,564.85 80.5,650.05 80.5,723 C80.5,723 80.5,723 80.5,843 C80.5,917.56 88.9882,999.1424 94.2282,1043.0024 " fill="none" id="Estructurar-to-PlanificarPruebas" style="stroke:#181818;stroke-width:1.0;"/><polygon fill="#181818" points="94.94,1048.96,97.8441,1039.549,94.3469,1043.9953,89.9006,1040.4981,94.94,1048.96" style="stroke:#181818;stroke-width:1.0;"/></g><!--link Analisis to Dise?oArquitectura--><g id="link_Analisis_Dise&#241;oArquitectura"><path d="M421.28,507.66 C421.11,528.33 420.9394,550.2802 420.7694,570.9302 " fill="none" id="Analisis-to-Dise&#241;oArquitectura" style="stroke:#181818;stroke-width:1.0;"/><polygon fill="#181818" points="420.72,576.93,424.794,567.9632,420.7612,571.9302,416.7942,567.8974,420.72,576.93" style="stroke:#181818;stroke-width:1.0;"/></g><!--link Dise?oArquitectura to Dise?oCasoUso--><g id="link_Dise&#241;oArquitectura_Dise&#241;oCasoUso"><path d="M394.36,635.08 C377.5,653.18 359.7473,672.2476 342.8673,690.3876 " fill="none" id="Dise&#241;oArquitectura-to-Dise&#241;oCasoUso" style="stroke:#181818;stroke-width:1.0;"/><polygon fill="#181818" points="338.78,694.78,347.8393,690.9162,342.1861,691.1196,341.9827,685.4664,338.78,694.78" style="stroke:#181818;stroke-width:1.0;"/></g><!--link AnalisisCasoUso to Dise?oCasoUso--><g id="link_AnalisisCasoUso_Dise&#241;oCasoUso"><path d="M268.54,635.08 C277.59,653.18 286.6367,671.2734 295.7067,689.4134 " fill="none" id="AnalisisCasoUso-to-Dise&#241;oCasoUso" style="stroke:#181818;stroke-width:1.0;"/><polygon fill="#181818" points="298.39,694.78,297.9428,684.9413,296.1539,690.3079,290.7874,688.519,298.39,694.78" style="stroke:#181818;stroke-width:1.0;"/></g><!--link AnalisisCasoUso to AnalisisClase--><g id="link_AnalisisCasoUso_AnalisisClase"><path d="M237.8,635.08 C227.03,653.18 216.1352,671.482 205.3552,689.622 " fill="none" id="AnalisisCasoUso-to-AnalisisClase" style="stroke:#181818;stroke-width:1.0;"/><polygon fill="#181818" points="202.29,694.78,210.3264,689.0865,204.8443,690.4817,203.4492,684.9996,202.29,694.78" style="stroke:#181818;stroke-width:1.0;"/></g><!--link Dise?oCasoUso to Dise?oClase--><g id="link_Dise&#241;oCasoUso_Dise&#241;oClase"><path d="M311.05,753.08 C310.11,771.18 309.2105,788.648 308.2705,806.788 " fill="none" id="Dise&#241;oCasoUso-to-Dise&#241;oClase" style="stroke:#181818;stroke-width:1.0;"/><polygon fill="#181818" points="307.96,812.78,312.4204,803.9991,308.2187,807.7867,304.4311,803.5851,307.96,812.78" style="stroke:#181818;stroke-width:1.0;"/></g><!--link AnalisisClase to Dise?oClase--><g id="link_AnalisisClase_Dise&#241;oClase"><path d="M214.79,753.08 C233.68,771.18 253.8201,790.4864 272.7301,808.6264 " fill="none" id="AnalisisClase-to-Dise&#241;oClase" style="stroke:#181818;stroke-width:1.0;"/><polygon fill="#181818" points="277.06,812.78,273.3342,803.6631,273.4518,809.3187,267.7961,809.4362,277.06,812.78" style="stroke:#181818;stroke-width:1.0;"/></g><!--link AnalisisClase to AnalisisPaquete--><g id="link_AnalisisClase_AnalisisPaquete"><path d="M185.26,753.08 C185.1,771.18 184.9529,788.6402 184.7929,806.7802 " fill="none" id="AnalisisClase-to-AnalisisPaquete" style="stroke:#181818;stroke-width:1.0;"/><polygon fill="#181818" points="184.74,812.78,188.8192,803.8156,184.7841,807.7802,180.8195,803.7451,184.74,812.78" style="stroke:#181818;stroke-width:1.0;"/></g><!--link Dise?oArquitectura to ImplementarArquitectura--><g id="link_Dise&#241;oArquitectura_ImplementarArquitectura"><path d="M420.5,635.21 C420.5,701.12 420.5,858.61 420.5,924.66 " fill="none" id="Dise&#241;oArquitectura-to-ImplementarArquitectura" style="stroke:#181818;stroke-width:1.0;"/><polygon fill="#181818" points="420.5,930.66,424.5,921.66,420.5,925.66,416.5,921.66,420.5,930.66" style="stroke:#181818;stroke-width:1.0;"/></g><!--link ImplementarArquitectura to IntegrarSistemas--><g id="link_ImplementarArquitectura_IntegrarSistemas"><path d="M391.94,989.08 C373.52,1007.18 353.9384,1026.4335 335.4884,1044.5735 " fill="none" id="ImplementarArquitectura-to-IntegrarSistemas" style="stroke:#181818;stroke-width:1.0;"/><polygon fill="#181818" points="331.21,1048.78,340.432,1045.3225,334.7754,1045.2745,334.8233,1039.6179,331.21,1048.78" style="stroke:#181818;stroke-width:1.0;"/></g><!--link Dise?oClase to Dise?arSubsistema--><g id="link_Dise&#241;oClase_Dise&#241;arSubsistema"><path d="M280.84,871.08 C264.3,889.18 246.9066,908.21 230.3366,926.35 " fill="none" id="Dise&#241;oClase-to-Dise&#241;arSubsistema" style="stroke:#181818;stroke-width:1.0;"/><polygon fill="#181818" points="226.29,930.78,235.3132,926.8327,229.6622,927.0883,229.4066,921.4372,226.29,930.78" style="stroke:#181818;stroke-width:1.0;"/></g><!--link Dise?oClase to IntegrarSistemas--><g id="link_Dise&#241;oClase_IntegrarSistemas"><path d="M306.02,871.23 C305.25,916.2 303.8526,997.6409 303.0826,1042.6709 " fill="none" id="Dise&#241;oClase-to-IntegrarSistemas" style="stroke:#181818;stroke-width:1.0;"/><polygon fill="#181818" points="302.98,1048.67,307.1333,1039.7397,303.0655,1043.6707,299.1345,1039.6029,302.98,1048.67" style="stroke:#181818;stroke-width:1.0;"/></g><!--link AnalisisPaquete to Dise?arSubsistema--><g id="link_AnalisisPaquete_Dise&#241;arSubsistema"><path d="M188.37,871.08 C190.87,889.18 193.2908,906.6962 195.7908,924.8362 " fill="none" id="AnalisisPaquete-to-Dise&#241;arSubsistema" style="stroke:#181818;stroke-width:1.0;"/><polygon fill="#181818" points="196.61,930.78,199.3438,921.3182,195.9274,925.8268,191.4187,922.4104,196.61,930.78" style="stroke:#181818;stroke-width:1.0;"/></g><!--link PlanificarPruebas to Dise?arPruebas--><g id="link_PlanificarPruebas_Dise&#241;arPruebas"><path d="M100.68,1107.08 C102.08,1125.18 103.435,1142.658 104.845,1160.798 " fill="none" id="PlanificarPruebas-to-Dise&#241;arPruebas" style="stroke:#181818;stroke-width:1.0;"/><polygon fill="#181818" points="105.31,1166.78,108.6005,1157.4971,104.9225,1161.795,100.6246,1158.117,105.31,1166.78" style="stroke:#181818;stroke-width:1.0;"/></g><!--link Dise?arSubsistema to IntegrarSistemas--><g id="link_Dise&#241;arSubsistema_IntegrarSistemas"><path d="M225.19,989.08 C241.11,1007.18 257.7795,1026.1329 273.7195,1044.2729 " fill="none" id="Dise&#241;arSubsistema-to-IntegrarSistemas" style="stroke:#181818;stroke-width:1.0;"/><polygon fill="#181818" points="277.68,1048.78,274.744,1039.3789,274.3796,1045.0241,268.7345,1044.6596,277.68,1048.78" style="stroke:#181818;stroke-width:1.0;"/></g><!--link IntegrarSistemas to ImplementarSubsistema--><g id="link_IntegrarSistemas_ImplementarSubsistema"><path d="M301.53,1107.08 C300.91,1125.18 300.3083,1142.6436 299.6783,1160.7836 " fill="none" id="IntegrarSistemas-to-ImplementarSubsistema" style="stroke:#181818;stroke-width:1.0;"/><polygon fill="#181818" points="299.47,1166.78,303.78,1157.9243,299.6435,1161.783,295.7848,1157.6466,299.47,1166.78" style="stroke:#181818;stroke-width:1.0;"/></g><!--link ImplementarSubsistema to ImplementarClase--><g id="link_ImplementarSubsistema_ImplementarClase"><path d="M298.26,1225.08 C298.1,1243.18 297.9529,1260.6402 297.7929,1278.7802 " fill="none" id="ImplementarSubsistema-to-ImplementarClase" style="stroke:#181818;stroke-width:1.0;"/><polygon fill="#181818" points="297.74,1284.78,301.8192,1275.8156,297.7841,1279.7802,293.8195,1275.7451,297.74,1284.78" style="stroke:#181818;stroke-width:1.0;"/></g><!--link ImplementarClase to ImplementarPruebaUnitaria--><g id="link_ImplementarClase_ImplementarPruebaUnitaria"><path d="M297.02,1343.08 C296.7,1361.18 296.4025,1378.6409 296.0925,1396.7809 " fill="none" id="ImplementarClase-to-ImplementarPruebaUnitaria" style="stroke:#181818;stroke-width:1.0;"/><polygon fill="#181818" points="295.99,1402.78,300.1432,1393.8497,296.0754,1397.7807,292.1444,1393.713,295.99,1402.78" style="stroke:#181818;stroke-width:1.0;"/></g><!--link ImplementarPruebaUnitaria to RealizarPruebasIntegracion--><g id="link_ImplementarPruebaUnitaria_RealizarPruebasIntegracion"><path d="M251.44,1461.08 C222.93,1479.25 191.0196,1499.595 162.5296,1517.755 " fill="none" id="ImplementarPruebaUnitaria-to-RealizarPruebasIntegracion" style="stroke:#181818;stroke-width:1.0;"/><polygon fill="#181818" points="157.47,1520.98,167.2094,1519.5155,161.6863,1518.2925,162.9093,1512.7694,157.47,1520.98" style="stroke:#181818;stroke-width:1.0;"/></g><!--link ImplementarPruebaUnitaria to RealizarPruebasSistemas--><g id="link_ImplementarPruebaUnitaria_RealizarPruebasSistemas"><path d="M295.5,1461.08 C295.5,1479.18 295.5,1496.64 295.5,1514.78 " fill="none" id="ImplementarPruebaUnitaria-to-RealizarPruebasSistemas" style="stroke:#181818;stroke-width:1.0;"/><polygon fill="#181818" points="295.5,1520.78,299.5,1511.78,295.5,1515.78,291.5,1511.78,295.5,1520.78" style="stroke:#181818;stroke-width:1.0;"/></g><!--link Dise?arPruebas to ImplementarPruebas--><g id="link_Dise&#241;arPruebas_ImplementarPruebas"><path d="M108.22,1225.23 C109.38,1270.2 111.4668,1351.642 112.6168,1396.672 " fill="none" id="Dise&#241;arPruebas-to-ImplementarPruebas" style="stroke:#181818;stroke-width:1.0;"/><polygon fill="#181818" points="112.77,1402.67,116.5389,1393.5708,112.6423,1397.6716,108.5415,1393.7751,112.77,1402.67" style="stroke:#181818;stroke-width:1.0;"/></g><!--link ImplementarPruebas to RealizarPruebasSistemas--><g id="link_ImplementarPruebas_RealizarPruebasSistemas"><path d="M157.56,1461.08 C186.07,1479.25 217.9804,1499.595 246.4704,1517.755 " fill="none" id="ImplementarPruebas-to-RealizarPruebasSistemas" style="stroke:#181818;stroke-width:1.0;"/><polygon fill="#181818" points="251.53,1520.98,246.0907,1512.7694,247.3137,1518.2925,241.7906,1519.5155,251.53,1520.98" style="stroke:#181818;stroke-width:1.0;"/></g><!--link ImplementarPruebas to RealizarPruebasIntegracion--><g id="link_ImplementarPruebas_RealizarPruebasIntegracion"><path d="M113.5,1461.08 C113.5,1479.18 113.5,1496.64 113.5,1514.78 " fill="none" id="ImplementarPruebas-to-RealizarPruebasIntegracion" style="stroke:#181818;stroke-width:1.0;"/><polygon fill="#181818" points="113.5,1520.78,117.5,1511.78,113.5,1515.78,109.5,1511.78,113.5,1520.78" style="stroke:#181818;stroke-width:1.0;"/></g><!--link RealizarPruebasIntegracion to EvaluarPruebas--><g id="link_RealizarPruebasIntegracion_EvaluarPruebas"><path d="M135.53,1579.08 C149.73,1597.18 164.4267,1615.9192 178.6567,1634.0592 " fill="none" id="RealizarPruebasIntegracion-to-EvaluarPruebas" style="stroke:#181818;stroke-width:1.0;"/><polygon fill="#181818" points="182.36,1638.78,179.9523,1629.23,179.274,1634.846,173.6579,1634.1676,182.36,1638.78" style="stroke:#181818;stroke-width:1.0;"/></g><!--link RealizarPruebasSistemas to EvaluarPruebas--><g id="link_RealizarPruebasSistemas_EvaluarPruebas"><path d="M273.47,1579.08 C259.27,1597.18 244.5733,1615.9192 230.3433,1634.0592 " fill="none" id="RealizarPruebasSistemas-to-EvaluarPruebas" style="stroke:#181818;stroke-width:1.0;"/><polygon fill="#181818" points="226.64,1638.78,235.3421,1634.1676,229.726,1634.846,229.0477,1629.23,226.64,1638.78" style="stroke:#181818;stroke-width:1.0;"/></g><!--link EvaluarPruebas to *end*--><g id="link_EvaluarPruebas_*end*"><path d="M204.5,1697.08 C204.5,1716.99 204.5,1736.57 204.5,1750.62 " fill="none" id="EvaluarPruebas-to-*end*" style="stroke:#181818;stroke-width:1.0;"/><polygon fill="#181818" points="204.5,1756.62,208.5,1747.62,204.5,1751.62,200.5,1747.62,204.5,1756.62" style="stroke:#181818;stroke-width:1.0;"/></g><!--SRC=[bPPBYXin48RtEeMOJI0mEK0m1fCuC925IPXLd8NSbXD1M_98wi3uDZb2o15yiPJrQ9LUnbbErV_NGr9_upTqDLcbtzEDLeTtzFCa3Ft4jMHopy-4_1HxJetbcYlxUkA4V7lxdJu-BkbQ3afQpJGnbbbE7-O0NGrGa9kjfA_q0pFAKAZnRDG3PIRvw6B1biletcYXj3X3U2ihJqfcdhKvyK4SnC0qz0AzwvOrIugodRBAYXF4HmRc9mah7jZPcoS63KFdMLUqjdeQxAJTm2D3dGPn-IiX29NgvP4jgxUIbz-ZCCAftKGh_J89ovtOULUIUSLYiMiRmLKUG3HTun3hUVsq8pCyTrqZDpqRzZ9ncxj2BFTz58PV_gZ-Ua60ur1XQ5Lex1cIQSs6iLWoMiAEbS4zgg_J3ZQo_8Y7P3g5S-VJyJJo8vVMcU5PL6iYHR7g7fM1r_X3-m5y6-FD8Hw3XIkLXbsBoL4o6txV6puT58h7m-gwDdhYEqQVfO2_HTNQfsCsBxGPcPm_PY_qMwT4Y8AFrxS5Ev-GAuQRdjRGfZriuVp2uP5VIHIo7ZpXOjodxyf4ML3DUIKxvROojeDosQKNfT3TephhNsoSgcL2D5-4909VEJwpbIJAEhudT1ACKU-9LAnIY715mOW7CeCCHyENIn1mMsaCq7lorTl9kpUWGreWGjhOgIJhdP8ChQJ05gxXyZc8xqWN3Eukqy4GwU79UGhwa8oWQJXCc5fJLId_RNGArHJ0mdYx3K0tcrOa1LKJaQGDpk8C_NLKe2nKEVr8dujNNvyW_sSiRYi_lffsf070MrNla-FfRw3H0IHZ5kdHho4jQ4UT1dwk_WC0]--></g></svg>