<?xml version="1.0" encoding="us-ascii" standalone="no"?><svg xmlns="http://www.w3.org/2000/svg" xmlns:xlink="http://www.w3.org/1999/xlink" contentStyleType="text/css" height="252px" preserveAspectRatio="none" style="width:1348px;height:252px;background:#FFFFFF;" version="1.1" viewBox="0 0 1348 252" width="1348px" zoomAndPan="magnify"><defs/><g><!--class Inicio--><g id="elem_Inicio"><rect codeLine="6" fill="#F1F1F1" height="113.3396" id="Inicio" rx="2.5" ry="2.5" style="stroke:#181818;stroke-width:0.5;" width="246" x="7" y="16.5"/><text fill="#000000" font-family="sans-serif" font-size="14" lengthAdjust="spacing" textLength="37" x="111.5" y="36.4659">Inicio</text><line style="stroke:#181818;stroke-width:0.5;" x1="8" x2="252" y1="45.5679" y2="45.5679"/><ellipse cx="18" cy="60.6019" fill="none" rx="3" ry="3" style="stroke:#038048;stroke-width:1.0;"/><text fill="#000000" font-family="sans-serif" font-size="14" lengthAdjust="spacing" textLength="194" x="27" y="64.5339">Delimitar &#225;mbito del sistema</text><ellipse cx="18" cy="79.6698" fill="none" rx="3" ry="3" style="stroke:#038048;stroke-width:1.0;"/><text fill="#000000" font-family="sans-serif" font-size="14" lengthAdjust="spacing" textLength="141" x="27" y="83.6018">Demostrar viabilidad</text><ellipse cx="18" cy="98.7377" fill="none" rx="3" ry="3" style="stroke:#038048;stroke-width:1.0;"/><text fill="#000000" font-family="sans-serif" font-size="14" lengthAdjust="spacing" textLength="220" x="27" y="102.6697">Describir arquitectura candidata</text><ellipse cx="18" cy="117.8056" fill="none" rx="3" ry="3" style="stroke:#038048;stroke-width:1.0;"/><text fill="#000000" font-family="sans-serif" font-size="14" lengthAdjust="spacing" textLength="175" x="27" y="121.7376">Identificar riesgos cr&#237;ticos</text></g><!--class Elaboracion--><g id="elem_Elaboracion"><rect codeLine="13" fill="#F1F1F1" height="132.4075" id="Elaboracion" rx="2.5" ry="2.5" style="stroke:#181818;stroke-width:0.5;" width="241" x="344.5" y="7"/><text fill="#000000" font-family="sans-serif" font-size="14" lengthAdjust="spacing" textLength="79" x="425.5" y="26.9659">Elaboracion</text><line style="stroke:#181818;stroke-width:0.5;" x1="345.5" x2="584.5" y1="36.0679" y2="36.0679"/><ellipse cx="355.5" cy="51.1019" fill="none" rx="3" ry="3" style="stroke:#038048;stroke-width:1.0;"/><text fill="#000000" font-family="sans-serif" font-size="14" lengthAdjust="spacing" textLength="215" x="364.5" y="55.0339">Identificar riesgos significativos</text><ellipse cx="355.5" cy="70.1698" fill="none" rx="3" ry="3" style="stroke:#038048;stroke-width:1.0;"/><text fill="#000000" font-family="sans-serif" font-size="14" lengthAdjust="spacing" textLength="211" x="364.5" y="74.1018">Crear l&#237;nea base arquitect&#243;nica</text><ellipse cx="355.5" cy="89.2377" fill="none" rx="3" ry="3" style="stroke:#038048;stroke-width:1.0;"/><text fill="#000000" font-family="sans-serif" font-size="14" lengthAdjust="spacing" textLength="198" x="364.5" y="93.1697">Especificar niveles de calidad</text><ellipse cx="355.5" cy="108.3056" fill="none" rx="3" ry="3" style="stroke:#038048;stroke-width:1.0;"/><text fill="#000000" font-family="sans-serif" font-size="14" lengthAdjust="spacing" textLength="190" x="364.5" y="112.2376">Capturar ~80% casos de uso</text><ellipse cx="355.5" cy="127.3735" fill="none" rx="3" ry="3" style="stroke:#038048;stroke-width:1.0;"/><text fill="#000000" font-family="sans-serif" font-size="14" lengthAdjust="spacing" textLength="170" x="364.5" y="131.3055">Preparar oferta detallada</text></g><!--class Construccion--><g id="elem_Construccion"><rect codeLine="21" fill="#F1F1F1" height="113.3396" id="Construccion" rx="2.5" ry="2.5" style="stroke:#181818;stroke-width:0.5;" width="321" x="677.5" y="16.5"/><text fill="#000000" font-family="sans-serif" font-size="14" lengthAdjust="spacing" textLength="88" x="794" y="36.4659">Construccion</text><line style="stroke:#181818;stroke-width:0.5;" x1="678.5" x2="997.5" y1="45.5679" y2="45.5679"/><ellipse cx="688.5" cy="60.6019" fill="none" rx="3" ry="3" style="stroke:#038048;stroke-width:1.0;"/><text fill="#000000" font-family="sans-serif" font-size="14" lengthAdjust="spacing" textLength="223" x="697.5" y="64.5339">Extender casos de uso completos</text><ellipse cx="688.5" cy="79.6698" fill="none" rx="3" ry="3" style="stroke:#038048;stroke-width:1.0;"/><text fill="#000000" font-family="sans-serif" font-size="14" lengthAdjust="spacing" textLength="295" x="697.5" y="83.6018">Completar an&#225;lisis, dise&#241;o, implementaci&#243;n</text><ellipse cx="688.5" cy="98.7377" fill="none" rx="3" ry="3" style="stroke:#038048;stroke-width:1.0;"/><text fill="#000000" font-family="sans-serif" font-size="14" lengthAdjust="spacing" textLength="242" x="697.5" y="102.6697">Mantener integridad arquitect&#243;nica</text><ellipse cx="688.5" cy="117.8056" fill="none" rx="3" ry="3" style="stroke:#038048;stroke-width:1.0;"/><text fill="#000000" font-family="sans-serif" font-size="14" lengthAdjust="spacing" textLength="195" x="697.5" y="121.7376">Monitorizar y mitigar riesgos</text></g><!--class Transicion--><g id="elem_Transicion"><rect codeLine="28" fill="#F1F1F1" height="132.4075" id="Transicion" rx="2.5" ry="2.5" style="stroke:#181818;stroke-width:0.5;" width="251" x="1090.5" y="7"/><text fill="#000000" font-family="sans-serif" font-size="14" lengthAdjust="spacing" textLength="70" x="1181" y="26.9659">Transicion</text><line style="stroke:#181818;stroke-width:0.5;" x1="1091.5" x2="1340.5" y1="36.0679" y2="36.0679"/><ellipse cx="1101.5" cy="51.1019" fill="none" rx="3" ry="3" style="stroke:#038048;stroke-width:1.0;"/><text fill="#000000" font-family="sans-serif" font-size="14" lengthAdjust="spacing" textLength="138" x="1110.5" y="55.0339">Preparar despliegue</text><ellipse cx="1101.5" cy="70.1698" fill="none" rx="3" ry="3" style="stroke:#038048;stroke-width:1.0;"/><text fill="#000000" font-family="sans-serif" font-size="14" lengthAdjust="spacing" textLength="208" x="1110.5" y="74.1018">Asesorar actualizaci&#243;n entorno</text><ellipse cx="1101.5" cy="89.2377" fill="none" rx="3" ry="3" style="stroke:#038048;stroke-width:1.0;"/><text fill="#000000" font-family="sans-serif" font-size="14" lengthAdjust="spacing" textLength="225" x="1110.5" y="93.1697">Elaborar manuales y documentos</text><ellipse cx="1101.5" cy="108.3056" fill="none" rx="3" ry="3" style="stroke:#038048;stroke-width:1.0;"/><text fill="#000000" font-family="sans-serif" font-size="14" lengthAdjust="spacing" textLength="170" x="1110.5" y="112.2376">Ajustar para entorno real</text><ellipse cx="1101.5" cy="127.3735" fill="none" rx="3" ry="3" style="stroke:#038048;stroke-width:1.0;"/><text fill="#000000" font-family="sans-serif" font-size="14" lengthAdjust="spacing" textLength="151" x="1110.5" y="131.3055">Corregir defectos beta</text></g><g id="elem_GMN9"><path d="M23,200 L23,245.412 A0,0 0 0 0 23,245.412 L237,245.412 A0,0 0 0 0 237,245.412 L237,210 L227,200 L134,200 L130,129.76 L126,200 L23,200 A0,0 0 0 0 23,200 " fill="#FEFFDD" style="stroke:#181818;stroke-width:0.5;"/><path d="M227,200 L227,210 L237,210 L227,200 " fill="#FEFFDD" style="stroke:#181818;stroke-width:0.5;"/><text fill="#000000" font-family="sans-serif" font-size="13" font-weight="bold" lengthAdjust="spacing" textLength="173" x="29" y="218.897">10% duraci&#243;n, 5% esfuerzo</text><text fill="#000000" font-family="sans-serif" font-size="13" lengthAdjust="spacing" textLength="193" x="29" y="236.603">Idea inicial &#8594; fundamento s&#243;lido</text></g><g id="elem_GMN12"><path d="M364.5,200 L364.5,245.412 A0,0 0 0 0 364.5,245.412 L565.5,245.412 A0,0 0 0 0 565.5,245.412 L565.5,210 L555.5,200 L469,200 L465,139.13 L461,200 L364.5,200 A0,0 0 0 0 364.5,200 " fill="#FEFFDD" style="stroke:#181818;stroke-width:0.5;"/><path d="M555.5,200 L555.5,210 L565.5,210 L555.5,200 " fill="#FEFFDD" style="stroke:#181818;stroke-width:0.5;"/><text fill="#000000" font-family="sans-serif" font-size="13" font-weight="bold" lengthAdjust="spacing" textLength="180" x="370.5" y="218.897">30% duraci&#243;n, 20% esfuerzo</text><text fill="#000000" font-family="sans-serif" font-size="13" lengthAdjust="spacing" textLength="116" x="370.5" y="236.603">Definir arquitectura</text></g><g id="elem_GMN15"><path d="M737.5,200 L737.5,245.412 A0,0 0 0 0 737.5,245.412 L938.5,245.412 A0,0 0 0 0 938.5,245.412 L938.5,210 L928.5,200 L842,200 L838,129.76 L834,200 L737.5,200 A0,0 0 0 0 737.5,200 " fill="#FEFFDD" style="stroke:#181818;stroke-width:0.5;"/><path d="M928.5,200 L928.5,210 L938.5,210 L928.5,200 " fill="#FEFFDD" style="stroke:#181818;stroke-width:0.5;"/><text fill="#000000" font-family="sans-serif" font-size="13" font-weight="bold" lengthAdjust="spacing" textLength="180" x="743.5" y="218.897">50% duraci&#243;n, 65% esfuerzo</text><text fill="#000000" font-family="sans-serif" font-size="13" lengthAdjust="spacing" textLength="139" x="743.5" y="236.603">Software a completitud</text></g><g id="elem_GMN18"><path d="M1115.5,200 L1115.5,245.412 A0,0 0 0 0 1115.5,245.412 L1316.5,245.412 A0,0 0 0 0 1316.5,245.412 L1316.5,210 L1306.5,200 L1220,200 L1216,139.13 L1212,200 L1115.5,200 A0,0 0 0 0 1115.5,200 " fill="#FEFFDD" style="stroke:#181818;stroke-width:0.5;"/><path d="M1306.5,200 L1306.5,210 L1316.5,210 L1306.5,200 " fill="#FEFFDD" style="stroke:#181818;stroke-width:0.5;"/><text fill="#000000" font-family="sans-serif" font-size="13" font-weight="bold" lengthAdjust="spacing" textLength="180" x="1121.5" y="218.897">10% duraci&#243;n, 10% esfuerzo</text><text fill="#000000" font-family="sans-serif" font-size="13" lengthAdjust="spacing" textLength="131" x="1121.5" y="236.603">En manos de usuarios</text></g><!--link Inicio to Elaboracion--><g id="link_Inicio_Elaboracion"><path codeLine="36" d="M253.31,73 C283.07,73 308.83,73 338.46,73 " fill="none" id="Inicio-to-Elaboracion" style="stroke:#181818;stroke-width:1.0;"/><polygon fill="#181818" points="344.46,73,335.46,69,339.46,73,335.46,77,344.46,73" style="stroke:#181818;stroke-width:1.0;"/><text fill="#000000" font-family="sans-serif" font-size="13" lengthAdjust="spacing" textLength="55" x="271.25" y="65.897">siguiente</text></g><!--link Elaboracion to Construccion--><g id="link_Elaboracion_Construccion"><path codeLine="37" d="M585.59,73 C614.85,73 640.61,73 671.4,73 " fill="none" id="Elaboracion-to-Construccion" style="stroke:#181818;stroke-width:1.0;"/><polygon fill="#181818" points="677.4,73,668.4,69,672.4,73,668.4,77,677.4,73" style="stroke:#181818;stroke-width:1.0;"/><text fill="#000000" font-family="sans-serif" font-size="13" lengthAdjust="spacing" textLength="55" x="604" y="65.897">siguiente</text></g><!--link Construccion to Transicion--><g id="link_Construccion_Transicion"><path codeLine="38" d="M998.58,73 C1029.24,73 1054.93,73 1084.31,73 " fill="none" id="Construccion-to-Transicion" style="stroke:#181818;stroke-width:1.0;"/><polygon fill="#181818" points="1090.31,73,1081.31,69,1085.31,73,1081.31,77,1090.31,73" style="stroke:#181818;stroke-width:1.0;"/><text fill="#000000" font-family="sans-serif" font-size="13" lengthAdjust="spacing" textLength="55" x="1017" y="65.897">siguiente</text></g><!--SRC=[TLDBRjH04Dtx5BN9PaYa11I4M215oIooY8G45oXtboU5sjsckdjWWc390RX13f05oX5y4qv2jJqp7Yl9QiRrUVNUg-fRjWI6nJYgRil_c4Wef4st_QQsInjegQr9ObKPXp72jMV30NvK0A-ko77B2GNw-xRc5C2IWyWArE9Oq8QOH0lMZ3KxjcZ7U3J2DGkWVCsSoAGi20QzrP8qz5vRyeaRDjejJ74L8XZf7nAR4AkVEpvBXtKGL4v-9FLSN-IL7qA9rzgiLPT2cdVzWoU46YDDJFf7bJXGMCQEp1RAyveSHIYUuLx89NQ5kS2lTwT7ceXXgCWnbEn7eGvBDZGa2JMJq3cqED6_35uDocRYl_oUo5kI6HgOq7QEqfRy-A70wFjxn-huCLYErFyDny0bsQe9QefgAGqtw1LKCLb_LrBOFwVt9dXTel2T8klYEV5gCd7Y_5dGHvuOxsLQYfrZMcKguOj8CPGmwdRLihkH3oYp87umQBiyWHQzbgYz6x31vC9-b7hn9SSYj0pOTOBkpeq-YD2Ao-16XQXRjRfIY6wlz4HEFimkv7qvXSmAHDLXV2YSxUAmSfOOIWyiE2oiV4W4TKWfjBhqxMEf5eiplGwRPNJW6CwFW6AJIUx2Ob7fnQ9kHalHmR_VVw39tkBW0SJ-KOyjL7eIKC2VZ3XGeNFUpEUyFfqDkg96nymVtSl8XweL-dmE_NQkuLDeqZSKVKQxK-MKxSlWau5FtJcRirxwSXwxfv1HM4zZ3_mV]--></g></svg>