<?xml version="1.0" encoding="us-ascii" standalone="no"?><svg xmlns="http://www.w3.org/2000/svg" xmlns:xlink="http://www.w3.org/1999/xlink" contentStyleType="text/css" height="1573px" preserveAspectRatio="none" style="width:1349px;height:1573px;background:#FFFFFF;" version="1.1" viewBox="0 0 1349 1573" width="1349px" zoomAndPan="magnify"><defs/><g><!--cluster phases--><g id="cluster_phases"><path d="M1131.5,6.602 L1180.5,6.602 A3.75,3.75 0 0 1 1183,9.102 L1190,31.6699 L1339.5,31.6699 A2.5,2.5 0 0 1 1342,34.1699 L1342,766.102 A2.5,2.5 0 0 1 1339.5,768.602 L1131.5,768.602 A2.5,2.5 0 0 1 1129,766.102 L1129,9.102 A2.5,2.5 0 0 1 1131.5,6.602 " fill="none" style="stroke:#000000;stroke-width:1.5;"/><line style="stroke:#000000;stroke-width:1.5;" x1="1129" x2="1190" y1="31.6699" y2="31.6699"/><text fill="#000000" font-family="sans-serif" font-size="14" font-weight="bold" lengthAdjust="spacing" textLength="48" x="1133" y="23.5679">phases</text></g><!--cluster disciplines--><g id="cluster_disciplines"><path d="M833.5,311.602 L906.5,311.602 A3.75,3.75 0 0 1 909,314.102 L916,336.6699 L1102.5,336.6699 A2.5,2.5 0 0 1 1105,339.1699 L1105,1259.602 A2.5,2.5 0 0 1 1102.5,1262.102 L833.5,1262.102 A2.5,2.5 0 0 1 831,1259.602 L831,314.102 A2.5,2.5 0 0 1 833.5,311.602 " fill="none" style="stroke:#000000;stroke-width:1.5;"/><line style="stroke:#000000;stroke-width:1.5;" x1="831" x2="916" y1="336.6699" y2="336.6699"/><text fill="#000000" font-family="sans-serif" font-size="14" font-weight="bold" lengthAdjust="spacing" textLength="72" x="835" y="328.5679">disciplines</text></g><!--cluster activities--><g id="cluster_activities"><path d="M535.5,485.102 L598.5,485.102 A3.75,3.75 0 0 1 601,487.602 L608,510.1699 L804.5,510.1699 A2.5,2.5 0 0 1 807,512.6699 L807,1420.602 A2.5,2.5 0 0 1 804.5,1423.102 L535.5,1423.102 A2.5,2.5 0 0 1 533,1420.602 L533,487.602 A2.5,2.5 0 0 1 535.5,485.102 " fill="none" style="stroke:#000000;stroke-width:1.5;"/><line style="stroke:#000000;stroke-width:1.5;" x1="533" x2="608" y1="510.1699" y2="510.1699"/><text fill="#000000" font-family="sans-serif" font-size="14" font-weight="bold" lengthAdjust="spacing" textLength="62" x="537" y="502.0679">activities</text></g><!--cluster team--><g id="cluster_team"><path d="M8.5,1137.602 L45.5,1137.602 A3.75,3.75 0 0 1 48,1140.102 L55,1162.6699 L506.5,1162.6699 A2.5,2.5 0 0 1 509,1165.1699 L509,1563.602 A2.5,2.5 0 0 1 506.5,1566.102 L8.5,1566.102 A2.5,2.5 0 0 1 6,1563.602 L6,1140.102 A2.5,2.5 0 0 1 8.5,1137.602 " fill="none" style="stroke:#000000;stroke-width:1.5;"/><line style="stroke:#000000;stroke-width:1.5;" x1="6" x2="55" y1="1162.6699" y2="1162.6699"/><text fill="#000000" font-family="sans-serif" font-size="14" font-weight="bold" lengthAdjust="spacing" textLength="36" x="10" y="1154.5679">team</text></g><!--class Phase--><g id="elem_Phase"><rect codeLine="7" fill="#F1F1F1" height="61.412" id="Phase" rx="2.5" ry="2.5" style="stroke:#181818;stroke-width:0.5;" width="51" x="1225.5" y="44.602"/><text fill="#000000" font-family="sans-serif" font-size="12" font-style="italic" lengthAdjust="spacing" textLength="49" x="1226.5" y="62.4301">&#171;phases&#187;</text><text fill="#000000" font-family="sans-serif" font-size="14" lengthAdjust="spacing" textLength="40" x="1231" y="80.912">Phase</text><line style="stroke:#181818;stroke-width:0.5;" x1="1226.5" x2="1275.5" y1="90.014" y2="90.014"/><line style="stroke:#181818;stroke-width:0.5;" x1="1226.5" x2="1275.5" y1="98.014" y2="98.014"/></g><!--class Inception--><g id="elem_Inception"><rect codeLine="8" fill="#F1F1F1" height="80.4799" id="Inception" rx="2.5" ry="2.5" style="stroke:#181818;stroke-width:0.5;" width="70" x="1145" y="166.602"/><text fill="#000000" font-family="sans-serif" font-size="12" font-style="italic" lengthAdjust="spacing" textLength="49" x="1155.5" y="184.4301">&#171;phases&#187;</text><text fill="#000000" font-family="sans-serif" font-size="14" lengthAdjust="spacing" textLength="64" x="1148" y="202.912">Inception</text><text fill="#000000" font-family="sans-serif" font-size="14" lengthAdjust="spacing" textLength="40" x="1160" y="221.9799">Phase</text><line style="stroke:#181818;stroke-width:0.5;" x1="1146" x2="1214" y1="231.0819" y2="231.0819"/><line style="stroke:#181818;stroke-width:0.5;" x1="1146" x2="1214" y1="239.0819" y2="239.0819"/></g><!--class Elaboration--><g id="elem_Elaboration"><rect codeLine="9" fill="#F1F1F1" height="80.4799" id="Elaboration" rx="2.5" ry="2.5" style="stroke:#181818;stroke-width:0.5;" width="83" x="1168.5" y="340.102"/><text fill="#000000" font-family="sans-serif" font-size="12" font-style="italic" lengthAdjust="spacing" textLength="49" x="1185.5" y="357.9301">&#171;phases&#187;</text><text fill="#000000" font-family="sans-serif" font-size="14" lengthAdjust="spacing" textLength="77" x="1171.5" y="376.412">Elaboration</text><text fill="#000000" font-family="sans-serif" font-size="14" lengthAdjust="spacing" textLength="40" x="1190" y="395.4799">Phase</text><line style="stroke:#181818;stroke-width:0.5;" x1="1169.5" x2="1250.5" y1="404.5819" y2="404.5819"/><line style="stroke:#181818;stroke-width:0.5;" x1="1169.5" x2="1250.5" y1="412.5819" y2="412.5819"/></g><!--class Construction--><g id="elem_Construction"><rect codeLine="10" fill="#F1F1F1" height="80.4799" id="Construction" rx="2.5" ry="2.5" style="stroke:#181818;stroke-width:0.5;" width="92" x="1197" y="513.602"/><text fill="#000000" font-family="sans-serif" font-size="12" font-style="italic" lengthAdjust="spacing" textLength="49" x="1218.5" y="531.4301">&#171;phases&#187;</text><text fill="#000000" font-family="sans-serif" font-size="14" lengthAdjust="spacing" textLength="86" x="1200" y="549.912">Construction</text><text fill="#000000" font-family="sans-serif" font-size="14" lengthAdjust="spacing" textLength="40" x="1223" y="568.9799">Phase</text><line style="stroke:#181818;stroke-width:0.5;" x1="1198" x2="1288" y1="578.0819" y2="578.0819"/><line style="stroke:#181818;stroke-width:0.5;" x1="1198" x2="1288" y1="586.0819" y2="586.0819"/></g><!--class Transition--><g id="elem_Transition"><rect codeLine="11" fill="#F1F1F1" height="80.4799" id="Transition" rx="2.5" ry="2.5" style="stroke:#181818;stroke-width:0.5;" width="74" x="1240" y="672.602"/><text fill="#000000" font-family="sans-serif" font-size="12" font-style="italic" lengthAdjust="spacing" textLength="49" x="1252.5" y="690.4301">&#171;phases&#187;</text><text fill="#000000" font-family="sans-serif" font-size="14" lengthAdjust="spacing" textLength="68" x="1243" y="708.912">Transition</text><text fill="#000000" font-family="sans-serif" font-size="14" lengthAdjust="spacing" textLength="40" x="1257" y="727.9799">Phase</text><line style="stroke:#181818;stroke-width:0.5;" x1="1241" x2="1313" y1="737.0819" y2="737.0819"/><line style="stroke:#181818;stroke-width:0.5;" x1="1241" x2="1313" y1="745.0819" y2="745.0819"/></g><!--class Discipline--><g id="elem_Discipline"><rect codeLine="17" fill="#F1F1F1" height="61.412" id="Discipline" rx="2.5" ry="2.5" style="stroke:#181818;stroke-width:0.5;" width="72" x="978" y="349.602"/><text fill="#000000" font-family="sans-serif" font-size="12" font-style="italic" lengthAdjust="spacing" textLength="66" x="981" y="367.4301">&#171;disciplines&#187;</text><text fill="#000000" font-family="sans-serif" font-size="14" lengthAdjust="spacing" textLength="66" x="981" y="385.912">Discipline</text><line style="stroke:#181818;stroke-width:0.5;" x1="979" x2="1049" y1="395.014" y2="395.014"/><line style="stroke:#181818;stroke-width:0.5;" x1="979" x2="1049" y1="403.014" y2="403.014"/></g><!--class RequirementDiscipline--><g id="elem_RequirementDiscipline"><rect codeLine="18" fill="#F1F1F1" height="80.4799" id="RequirementDiscipline" rx="2.5" ry="2.5" style="stroke:#181818;stroke-width:0.5;" width="94" x="847" y="513.602"/><text fill="#000000" font-family="sans-serif" font-size="12" font-style="italic" lengthAdjust="spacing" textLength="66" x="861" y="531.4301">&#171;disciplines&#187;</text><text fill="#000000" font-family="sans-serif" font-size="14" lengthAdjust="spacing" textLength="88" x="850" y="549.912">Requirement</text><text fill="#000000" font-family="sans-serif" font-size="14" lengthAdjust="spacing" textLength="66" x="861" y="568.9799">Discipline</text><line style="stroke:#181818;stroke-width:0.5;" x1="848" x2="940" y1="578.0819" y2="578.0819"/><line style="stroke:#181818;stroke-width:0.5;" x1="848" x2="940" y1="586.0819" y2="586.0819"/></g><!--class AnalysisDiscipline--><g id="elem_AnalysisDiscipline"><rect codeLine="19" fill="#F1F1F1" height="80.4799" id="AnalysisDiscipline" rx="2.5" ry="2.5" style="stroke:#181818;stroke-width:0.5;" width="72" x="859" y="672.602"/><text fill="#000000" font-family="sans-serif" font-size="12" font-style="italic" lengthAdjust="spacing" textLength="66" x="862" y="690.4301">&#171;disciplines&#187;</text><text fill="#000000" font-family="sans-serif" font-size="14" lengthAdjust="spacing" textLength="55" x="867.5" y="708.912">Analysis</text><text fill="#000000" font-family="sans-serif" font-size="14" lengthAdjust="spacing" textLength="66" x="862" y="727.9799">Discipline</text><line style="stroke:#181818;stroke-width:0.5;" x1="860" x2="930" y1="737.0819" y2="737.0819"/><line style="stroke:#181818;stroke-width:0.5;" x1="860" x2="930" y1="745.0819" y2="745.0819"/></g><!--class DesignDiscipline--><g id="elem_DesignDiscipline"><rect codeLine="20" fill="#F1F1F1" height="80.4799" id="DesignDiscipline" rx="2.5" ry="2.5" style="stroke:#181818;stroke-width:0.5;" width="72" x="861" y="833.602"/><text fill="#000000" font-family="sans-serif" font-size="12" font-style="italic" lengthAdjust="spacing" textLength="66" x="864" y="851.4301">&#171;disciplines&#187;</text><text fill="#000000" font-family="sans-serif" font-size="14" lengthAdjust="spacing" textLength="47" x="873.5" y="869.912">Design</text><text fill="#000000" font-family="sans-serif" font-size="14" lengthAdjust="spacing" textLength="66" x="864" y="888.9799">Discipline</text><line style="stroke:#181818;stroke-width:0.5;" x1="862" x2="932" y1="898.0819" y2="898.0819"/><line style="stroke:#181818;stroke-width:0.5;" x1="862" x2="932" y1="906.0819" y2="906.0819"/></g><!--class ImplementationDiscipline--><g id="elem_ImplementationDiscipline"><rect codeLine="21" fill="#F1F1F1" height="80.4799" id="ImplementationDiscipline" rx="2.5" ry="2.5" style="stroke:#181818;stroke-width:0.5;" width="114" x="847" y="992.602"/><text fill="#000000" font-family="sans-serif" font-size="12" font-style="italic" lengthAdjust="spacing" textLength="66" x="871" y="1010.4301">&#171;disciplines&#187;</text><text fill="#000000" font-family="sans-serif" font-size="14" lengthAdjust="spacing" textLength="108" x="850" y="1028.912">Implementation</text><text fill="#000000" font-family="sans-serif" font-size="14" lengthAdjust="spacing" textLength="66" x="871" y="1047.9799">Discipline</text><line style="stroke:#181818;stroke-width:0.5;" x1="848" x2="960" y1="1057.0819" y2="1057.0819"/><line style="stroke:#181818;stroke-width:0.5;" x1="848" x2="960" y1="1065.0819" y2="1065.0819"/></g><!--class TestDiscipline--><g id="elem_TestDiscipline"><rect codeLine="22" fill="#F1F1F1" height="80.4799" id="TestDiscipline" rx="2.5" ry="2.5" style="stroke:#181818;stroke-width:0.5;" width="72" x="868" y="1166.102"/><text fill="#000000" font-family="sans-serif" font-size="12" font-style="italic" lengthAdjust="spacing" textLength="66" x="871" y="1183.9301">&#171;disciplines&#187;</text><text fill="#000000" font-family="sans-serif" font-size="14" lengthAdjust="spacing" textLength="28" x="890" y="1202.412">Test</text><text fill="#000000" font-family="sans-serif" font-size="14" lengthAdjust="spacing" textLength="66" x="871" y="1221.4799">Discipline</text><line style="stroke:#181818;stroke-width:0.5;" x1="869" x2="939" y1="1230.5819" y2="1230.5819"/><line style="stroke:#181818;stroke-width:0.5;" x1="869" x2="939" y1="1238.5819" y2="1238.5819"/></g><!--class Activity--><g id="elem_Activity"><rect codeLine="26" fill="#F1F1F1" height="61.412" id="Activity" rx="2.5" ry="2.5" style="stroke:#181818;stroke-width:0.5;" width="60" x="686" y="523.102"/><text fill="#000000" font-family="sans-serif" font-size="12" font-style="italic" lengthAdjust="spacing" textLength="58" x="687" y="540.9301">&#171;activities&#187;</text><text fill="#000000" font-family="sans-serif" font-size="14" lengthAdjust="spacing" textLength="48" x="692" y="559.412">Activity</text><line style="stroke:#181818;stroke-width:0.5;" x1="687" x2="745" y1="568.514" y2="568.514"/><line style="stroke:#181818;stroke-width:0.5;" x1="687" x2="745" y1="576.514" y2="576.514"/></g><!--class RequirementActivity--><g id="elem_RequirementActivity"><rect codeLine="27" fill="#F1F1F1" height="80.4799" id="RequirementActivity" rx="2.5" ry="2.5" style="stroke:#181818;stroke-width:0.5;" width="94" x="549" y="672.602"/><text fill="#000000" font-family="sans-serif" font-size="12" font-style="italic" lengthAdjust="spacing" textLength="58" x="567" y="690.4301">&#171;activities&#187;</text><text fill="#000000" font-family="sans-serif" font-size="14" lengthAdjust="spacing" textLength="88" x="552" y="708.912">Requirement</text><text fill="#000000" font-family="sans-serif" font-size="14" lengthAdjust="spacing" textLength="48" x="572" y="727.9799">Activity</text><line style="stroke:#181818;stroke-width:0.5;" x1="550" x2="642" y1="737.0819" y2="737.0819"/><line style="stroke:#181818;stroke-width:0.5;" x1="550" x2="642" y1="745.0819" y2="745.0819"/></g><!--class AnalysisActivity--><g id="elem_AnalysisActivity"><rect codeLine="28" fill="#F1F1F1" height="80.4799" id="AnalysisActivity" rx="2.5" ry="2.5" style="stroke:#181818;stroke-width:0.5;" width="61" x="618.5" y="833.602"/><text fill="#000000" font-family="sans-serif" font-size="12" font-style="italic" lengthAdjust="spacing" textLength="58" x="620" y="851.4301">&#171;activities&#187;</text><text fill="#000000" font-family="sans-serif" font-size="14" lengthAdjust="spacing" textLength="55" x="621.5" y="869.912">Analysis</text><text fill="#000000" font-family="sans-serif" font-size="14" lengthAdjust="spacing" textLength="48" x="625" y="888.9799">Activity</text><line style="stroke:#181818;stroke-width:0.5;" x1="619.5" x2="678.5" y1="898.0819" y2="898.0819"/><line style="stroke:#181818;stroke-width:0.5;" x1="619.5" x2="678.5" y1="906.0819" y2="906.0819"/></g><!--class DesignActivity--><g id="elem_DesignActivity"><rect codeLine="29" fill="#F1F1F1" height="80.4799" id="DesignActivity" rx="2.5" ry="2.5" style="stroke:#181818;stroke-width:0.5;" width="60" x="657" y="992.602"/><text fill="#000000" font-family="sans-serif" font-size="12" font-style="italic" lengthAdjust="spacing" textLength="58" x="658" y="1010.4301">&#171;activities&#187;</text><text fill="#000000" font-family="sans-serif" font-size="14" lengthAdjust="spacing" textLength="47" x="663.5" y="1028.912">Design</text><text fill="#000000" font-family="sans-serif" font-size="14" lengthAdjust="spacing" textLength="48" x="663" y="1047.9799">Activity</text><line style="stroke:#181818;stroke-width:0.5;" x1="658" x2="716" y1="1057.0819" y2="1057.0819"/><line style="stroke:#181818;stroke-width:0.5;" x1="658" x2="716" y1="1065.0819" y2="1065.0819"/></g><!--class ImplementationActivity--><g id="elem_ImplementationActivity"><rect codeLine="30" fill="#F1F1F1" height="80.4799" id="ImplementationActivity" rx="2.5" ry="2.5" style="stroke:#181818;stroke-width:0.5;" width="114" x="640" y="1166.102"/><text fill="#000000" font-family="sans-serif" font-size="12" font-style="italic" lengthAdjust="spacing" textLength="58" x="668" y="1183.9301">&#171;activities&#187;</text><text fill="#000000" font-family="sans-serif" font-size="14" lengthAdjust="spacing" textLength="108" x="643" y="1202.412">Implementation</text><text fill="#000000" font-family="sans-serif" font-size="14" lengthAdjust="spacing" textLength="48" x="673" y="1221.4799">Activity</text><line style="stroke:#181818;stroke-width:0.5;" x1="641" x2="753" y1="1230.5819" y2="1230.5819"/><line style="stroke:#181818;stroke-width:0.5;" x1="641" x2="753" y1="1238.5819" y2="1238.5819"/></g><!--class TestActivity--><g id="elem_TestActivity"><rect codeLine="31" fill="#F1F1F1" height="80.4799" id="TestActivity" rx="2.5" ry="2.5" style="stroke:#181818;stroke-width:0.5;" width="60" x="715" y="1327.102"/><text fill="#000000" font-family="sans-serif" font-size="12" font-style="italic" lengthAdjust="spacing" textLength="58" x="716" y="1344.9301">&#171;activities&#187;</text><text fill="#000000" font-family="sans-serif" font-size="14" lengthAdjust="spacing" textLength="28" x="731" y="1363.412">Test</text><text fill="#000000" font-family="sans-serif" font-size="14" lengthAdjust="spacing" textLength="48" x="721" y="1382.4799">Activity</text><line style="stroke:#181818;stroke-width:0.5;" x1="716" x2="774" y1="1391.5819" y2="1391.5819"/><line style="stroke:#181818;stroke-width:0.5;" x1="716" x2="774" y1="1399.5819" y2="1399.5819"/></g><!--class Member--><g id="elem_Member"><rect codeLine="35" fill="#F1F1F1" height="61.412" id="Member" rx="2.5" ry="2.5" style="stroke:#181818;stroke-width:0.5;" width="63" x="248.5" y="1175.602"/><text fill="#000000" font-family="sans-serif" font-size="12" font-style="italic" lengthAdjust="spacing" textLength="40" x="260" y="1193.4301">&#171;team&#187;</text><text fill="#000000" font-family="sans-serif" font-size="14" lengthAdjust="spacing" textLength="57" x="251.5" y="1211.912">Member</text><line style="stroke:#181818;stroke-width:0.5;" x1="249.5" x2="310.5" y1="1221.014" y2="1221.014"/><line style="stroke:#181818;stroke-width:0.5;" x1="249.5" x2="310.5" y1="1229.014" y2="1229.014"/></g><!--class Role--><g id="elem_Role"><rect codeLine="36" fill="#F1F1F1" height="61.412" id="Role" rx="2.5" ry="2.5" style="stroke:#181818;stroke-width:0.5;" width="42" x="254" y="1336.602"/><text fill="#000000" font-family="sans-serif" font-size="12" font-style="italic" lengthAdjust="spacing" textLength="40" x="255" y="1354.4301">&#171;team&#187;</text><text fill="#000000" font-family="sans-serif" font-size="14" lengthAdjust="spacing" textLength="29" x="260.5" y="1372.912">Role</text><line style="stroke:#181818;stroke-width:0.5;" x1="255" x2="295" y1="1382.014" y2="1382.014"/><line style="stroke:#181818;stroke-width:0.5;" x1="255" x2="295" y1="1390.014" y2="1390.014"/></g><!--class RequirementRole--><g id="elem_RequirementRole"><rect codeLine="37" fill="#F1F1F1" height="80.4799" id="RequirementRole" rx="2.5" ry="2.5" style="stroke:#181818;stroke-width:0.5;" width="94" x="22" y="1470.102"/><text fill="#000000" font-family="sans-serif" font-size="12" font-style="italic" lengthAdjust="spacing" textLength="40" x="49" y="1487.9301">&#171;team&#187;</text><text fill="#000000" font-family="sans-serif" font-size="14" lengthAdjust="spacing" textLength="88" x="25" y="1506.412">Requirement</text><text fill="#000000" font-family="sans-serif" font-size="14" lengthAdjust="spacing" textLength="29" x="54.5" y="1525.4799">Role</text><line style="stroke:#181818;stroke-width:0.5;" x1="23" x2="115" y1="1534.5819" y2="1534.5819"/><line style="stroke:#181818;stroke-width:0.5;" x1="23" x2="115" y1="1542.5819" y2="1542.5819"/></g><!--class AnalysisRole--><g id="elem_AnalysisRole"><rect codeLine="38" fill="#F1F1F1" height="80.4799" id="AnalysisRole" rx="2.5" ry="2.5" style="stroke:#181818;stroke-width:0.5;" width="61" x="151.5" y="1470.102"/><text fill="#000000" font-family="sans-serif" font-size="12" font-style="italic" lengthAdjust="spacing" textLength="40" x="162" y="1487.9301">&#171;team&#187;</text><text fill="#000000" font-family="sans-serif" font-size="14" lengthAdjust="spacing" textLength="55" x="154.5" y="1506.412">Analysis</text><text fill="#000000" font-family="sans-serif" font-size="14" lengthAdjust="spacing" textLength="29" x="167.5" y="1525.4799">Role</text><line style="stroke:#181818;stroke-width:0.5;" x1="152.5" x2="211.5" y1="1534.5819" y2="1534.5819"/><line style="stroke:#181818;stroke-width:0.5;" x1="152.5" x2="211.5" y1="1542.5819" y2="1542.5819"/></g><!--class DesignRole--><g id="elem_DesignRole"><rect codeLine="39" fill="#F1F1F1" height="80.4799" id="DesignRole" rx="2.5" ry="2.5" style="stroke:#181818;stroke-width:0.5;" width="53" x="247.5" y="1470.102"/><text fill="#000000" font-family="sans-serif" font-size="12" font-style="italic" lengthAdjust="spacing" textLength="40" x="254" y="1487.9301">&#171;team&#187;</text><text fill="#000000" font-family="sans-serif" font-size="14" lengthAdjust="spacing" textLength="47" x="250.5" y="1506.412">Design</text><text fill="#000000" font-family="sans-serif" font-size="14" lengthAdjust="spacing" textLength="29" x="259.5" y="1525.4799">Role</text><line style="stroke:#181818;stroke-width:0.5;" x1="248.5" x2="299.5" y1="1534.5819" y2="1534.5819"/><line style="stroke:#181818;stroke-width:0.5;" x1="248.5" x2="299.5" y1="1542.5819" y2="1542.5819"/></g><!--class ImplementRole--><g id="elem_ImplementRole"><rect codeLine="40" fill="#F1F1F1" height="80.4799" id="ImplementRole" rx="2.5" ry="2.5" style="stroke:#181818;stroke-width:0.5;" width="80" x="336" y="1470.102"/><text fill="#000000" font-family="sans-serif" font-size="12" font-style="italic" lengthAdjust="spacing" textLength="40" x="356" y="1487.9301">&#171;team&#187;</text><text fill="#000000" font-family="sans-serif" font-size="14" lengthAdjust="spacing" textLength="74" x="339" y="1506.412">Implement</text><text fill="#000000" font-family="sans-serif" font-size="14" lengthAdjust="spacing" textLength="29" x="361.5" y="1525.4799">Role</text><line style="stroke:#181818;stroke-width:0.5;" x1="337" x2="415" y1="1534.5819" y2="1534.5819"/><line style="stroke:#181818;stroke-width:0.5;" x1="337" x2="415" y1="1542.5819" y2="1542.5819"/></g><!--class TestRole--><g id="elem_TestRole"><rect codeLine="41" fill="#F1F1F1" height="80.4799" id="TestRole" rx="2.5" ry="2.5" style="stroke:#181818;stroke-width:0.5;" width="42" x="451" y="1470.102"/><text fill="#000000" font-family="sans-serif" font-size="12" font-style="italic" lengthAdjust="spacing" textLength="40" x="452" y="1487.9301">&#171;team&#187;</text><text fill="#000000" font-family="sans-serif" font-size="14" lengthAdjust="spacing" textLength="28" x="458" y="1506.412">Test</text><text fill="#000000" font-family="sans-serif" font-size="14" lengthAdjust="spacing" textLength="29" x="457.5" y="1525.4799">Role</text><line style="stroke:#181818;stroke-width:0.5;" x1="452" x2="492" y1="1534.5819" y2="1534.5819"/><line style="stroke:#181818;stroke-width:0.5;" x1="452" x2="492" y1="1542.5819" y2="1542.5819"/></g><!--class Iteration--><g id="elem_Iteration"><rect codeLine="14" fill="#F1F1F1" height="61.412" id="Iteration" rx="2.5" ry="2.5" style="stroke:#181818;stroke-width:0.5;" width="64" x="987" y="176.102"/><text fill="#000000" font-family="sans-serif" font-size="12" font-style="italic" lengthAdjust="spacing" textLength="58" x="990" y="193.9301">&#171;iteration&#187;</text><text fill="#000000" font-family="sans-serif" font-size="14" lengthAdjust="spacing" textLength="58" x="990" y="212.412">Iteration</text><line style="stroke:#181818;stroke-width:0.5;" x1="988" x2="1050" y1="221.514" y2="221.514"/><line style="stroke:#181818;stroke-width:0.5;" x1="988" x2="1050" y1="229.514" y2="229.514"/></g><!--link Phase to Iteration--><g id="link_Phase_Iteration"><path codeLine="44" d="M1214.8126,96.302 C1172.2226,120.082 1102.8493,158.798 1056.3693,184.738 " fill="none" id="Phase-Iteration" style="stroke:#181818;stroke-width:1.0;"/><polygon fill="#181818" points="1225.29,90.452,1218.1013,89.8845,1214.8126,96.302,1222.0013,96.8695,1225.29,90.452" style="stroke:#181818;stroke-width:1.0;"/><polygon fill="#181818" points="1051.13,187.662,1060.9383,186.7689,1055.4961,185.2253,1057.0396,179.7831,1051.13,187.662" style="stroke:#181818;stroke-width:1.0;"/></g><!--reverse link Phase to Inception--><g id="link_Phase_Inception"><path codeLine="45" d="M1226.0598,121.5972 C1216.2398,139.5172 1212.25,146.782 1201.6,166.212 " fill="none" id="Phase-backto-Inception" style="stroke:#181818;stroke-width:1.0;"/><polygon fill="none" points="1234.71,105.812,1220.7981,118.7138,1231.3216,124.4806,1234.71,105.812" style="stroke:#181818;stroke-width:1.0;"/></g><!--link Inception to Elaboration--><g id="link_Inception_Elaboration"><path codeLine="46" d="M1186.88,246.952 C1191.76,274.832 1197.2465,306.1817 1202.1165,334.0317 " fill="none" id="Inception-to-Elaboration" style="stroke:#181818;stroke-width:1.0;"/><polygon fill="#181818" points="1203.15,339.942,1205.5399,330.3875,1202.2887,335.0167,1197.6595,331.7655,1203.15,339.942" style="stroke:#181818;stroke-width:1.0;"/><text fill="#000000" font-family="sans-serif" font-size="13" lengthAdjust="spacing" textLength="27" x="1196" y="291.499">next</text></g><!--reverse link Phase to Elaboration--><g id="link_Phase_Elaboration"><path codeLine="47" d="M1249.3058,123.757 C1247.5758,166.137 1243.68,228.332 1232,295.602 C1229.46,310.222 1225.59,326.022 1221.81,339.902 " fill="none" id="Phase-backto-Elaboration" style="stroke:#181818;stroke-width:1.0;"/><polygon fill="none" points="1250.04,105.772,1243.3108,123.5123,1255.3008,124.0017,1250.04,105.772" style="stroke:#181818;stroke-width:1.0;"/></g><!--link Elaboration to Construction--><g id="link_Elaboration_Construction"><path codeLine="48" d="M1217.57,420.452 C1222.94,448.332 1228.9781,479.6997 1234.3281,507.5497 " fill="none" id="Elaboration-to-Construction" style="stroke:#181818;stroke-width:1.0;"/><polygon fill="#181818" points="1235.46,513.442,1237.6903,503.849,1234.5167,508.5318,1229.834,505.3582,1235.46,513.442" style="stroke:#181818;stroke-width:1.0;"/><text fill="#000000" font-family="sans-serif" font-size="13" lengthAdjust="spacing" textLength="27" x="1227" y="464.999">next</text></g><!--reverse link Phase to Construction--><g id="link_Phase_Construction"><path codeLine="49" d="M1258.9024,123.7741 C1269.2824,189.8741 1287.11,335.422 1263,469.102 C1260.38,483.622 1256.8,499.402 1253.38,513.292 " fill="none" id="Phase-backto-Construction" style="stroke:#181818;stroke-width:1.0;"/><polygon fill="none" points="1256.11,105.992,1252.975,124.7049,1264.8298,122.8433,1256.11,105.992" style="stroke:#181818;stroke-width:1.0;"/></g><!--link Construction to Transition--><g id="link_Construction_Transition"><path codeLine="50" d="M1251.49,593.812 C1256.68,617.792 1262.0285,642.4983 1267.2285,666.4783 " fill="none" id="Construction-to-Transition" style="stroke:#181818;stroke-width:1.0;"/><polygon fill="#181818" points="1268.5,672.342,1270.5018,662.6987,1267.4404,667.4555,1262.6836,664.3941,1268.5,672.342" style="stroke:#181818;stroke-width:1.0;"/><text fill="#000000" font-family="sans-serif" font-size="13" lengthAdjust="spacing" textLength="27" x="1263" y="638.499">next</text></g><!--reverse link Phase to Transition--><g id="link_Phase_Transition"><path codeLine="51" d="M1288.686,115.9894 C1310.026,140.5494 1325,165.722 1325,205.602 C1325,205.602 1325,205.602 1325,554.602 C1325,596.212 1309.39,641.432 1295.97,672.602 " fill="none" id="Phase-backto-Transition" style="stroke:#181818;stroke-width:1.0;"/><polygon fill="none" points="1276.88,102.402,1284.1569,119.9247,1293.2152,112.0541,1276.88,102.402" style="stroke:#181818;stroke-width:1.0;"/></g><!--link Iteration to Discipline--><g id="link_Iteration_Discipline"><path codeLine="53" d="M1017.7795,249.4669 C1016.8595,280.9469 1015.9441,312.2245 1015.0341,343.5745 " fill="none" id="Iteration-Discipline" style="stroke:#181818;stroke-width:1.0;"/><polygon fill="#181818" points="1018.13,237.472,1013.9564,243.3526,1017.7795,249.4669,1021.953,243.5863,1018.13,237.472" style="stroke:#181818;stroke-width:1.0;"/><polygon fill="#181818" points="1014.86,349.572,1019.1194,340.6918,1015.0051,344.5741,1011.1228,340.4597,1014.86,349.572" style="stroke:#181818;stroke-width:1.0;"/></g><!--link Iteration to Iteration--><g id="link_Iteration_Iteration"><path codeLine="54" d="M1051.06,194.152 C1069.2,191.722 1086,195.872 1086,206.602 C1086,217.332 1075.1469,222.2786 1057.0069,219.8486 " fill="none" id="Iteration-to-Iteration" style="stroke:#181818;stroke-width:1.0;"/><polygon fill="#181818" points="1051.06,219.052,1059.4492,224.2115,1056.0157,219.7158,1060.5114,216.2823,1051.06,219.052" style="stroke:#181818;stroke-width:1.0;"/><text fill="#000000" font-family="sans-serif" font-size="13" lengthAdjust="spacing" textLength="27" x="1092" y="211.999">next</text></g><!--link Discipline to Activity--><g id="link_Discipline_Activity"><path codeLine="56" d="M966.9219,404.1786 C929.5819,422.7186 880.78,447.802 831,477.102 C801.57,494.432 774.0857,512.5695 751.1857,528.1995 " fill="none" id="Discipline-Activity" style="stroke:#181818;stroke-width:1.0;"/><polygon fill="#181818" points="977.67,398.842,970.5171,397.9276,966.9219,404.1786,974.0748,405.093,977.67,398.842" style="stroke:#181818;stroke-width:1.0;"/><polygon fill="#181818" points="746.23,531.582,755.9185,529.8121,750.3598,528.7633,751.4086,523.2045,746.23,531.582" style="stroke:#181818;stroke-width:1.0;"/></g><!--reverse link Discipline to RequirementDiscipline--><g id="link_Discipline_RequirementDiscipline"><path codeLine="57" d="M982.7801,425.7199 C962.9001,454.1299 943.21,482.282 921.42,513.422 " fill="none" id="Discipline-backto-RequirementDiscipline" style="stroke:#181818;stroke-width:1.0;"/><polygon fill="none" points="993.1,410.972,977.8642,422.2799,987.6961,429.1598,993.1,410.972" style="stroke:#181818;stroke-width:1.0;"/></g><!--link RequirementDiscipline to RequirementActivity--><g id="link_RequirementDiscipline_RequirementActivity"><path codeLine="58" d="M836.1634,585.0756 C780.5334,614.3856 704.5484,654.4154 648.7984,683.7854 " fill="none" id="RequirementDiscipline-RequirementActivity" style="stroke:#181818;stroke-width:1.0;"/><polygon fill="#181818" points="846.78,579.482,839.6072,578.7399,836.1634,585.0756,843.3362,585.8176,846.78,579.482" style="stroke:#181818;stroke-width:1.0;"/><polygon fill="#181818" points="643.49,686.582,653.317,685.9261,647.9137,684.2515,649.5882,678.8482,643.49,686.582" style="stroke:#181818;stroke-width:1.0;"/><text fill="#000000" font-family="sans-serif" font-size="13" lengthAdjust="spacing" textLength="7" x="650.9792" y="678.4255">*</text></g><!--link RequirementDiscipline to AnalysisDiscipline--><g id="link_RequirementDiscipline_AnalysisDiscipline"><path codeLine="59" d="M894.25,593.812 C894.4,617.792 894.5625,642.3621 894.7125,666.3421 " fill="none" id="RequirementDiscipline-to-AnalysisDiscipline" style="stroke:#181818;stroke-width:1.0;"/><polygon fill="#181818" points="894.75,672.342,898.6936,663.3171,894.7187,667.3421,890.6938,663.3672,894.75,672.342" style="stroke:#181818;stroke-width:1.0;"/><text fill="#000000" font-family="sans-serif" font-size="13" lengthAdjust="spacing" textLength="27" x="895" y="638.499">next</text></g><!--reverse link Discipline to AnalysisDiscipline--><g id="link_Discipline_AnalysisDiscipline"><path codeLine="60" d="M1005.3343,428.3607 C997.3443,470.0807 983.85,530.482 959,593.602 C948.24,620.922 932.57,649.942 919.43,672.352 " fill="none" id="Discipline-backto-AnalysisDiscipline" style="stroke:#181818;stroke-width:1.0;"/><polygon fill="none" points="1008.72,410.682,999.4414,427.2321,1011.2272,429.4893,1008.72,410.682" style="stroke:#181818;stroke-width:1.0;"/></g><!--link AnalysisDiscipline to AnalysisActivity--><g id="link_AnalysisDiscipline_AnalysisActivity"><path codeLine="61" d="M848.899,747.6416 C833.209,759.0316 824.25,765.212 807,776.602 C763.61,805.252 717.0409,833.0657 684.8909,851.8457 " fill="none" id="AnalysisDiscipline-AnalysisActivity" style="stroke:#181818;stroke-width:1.0;"/><polygon fill="#181818" points="858.61,740.592,851.4046,740.8798,848.899,747.6416,856.1044,747.3538,858.61,740.592" style="stroke:#181818;stroke-width:1.0;"/><polygon fill="#181818" points="679.71,854.872,689.4988,853.7864,684.0274,852.35,685.4637,846.8786,679.71,854.872" style="stroke:#181818;stroke-width:1.0;"/><text fill="#000000" font-family="sans-serif" font-size="13" lengthAdjust="spacing" textLength="7" x="687.6211" y="845.4982">*</text></g><!--link AnalysisDiscipline to DesignDiscipline--><g id="link_AnalysisDiscipline_DesignDiscipline"><path codeLine="62" d="M895.49,752.902 C895.8,777.462 896.1241,802.9525 896.4341,827.4725 " fill="none" id="AnalysisDiscipline-to-DesignDiscipline" style="stroke:#181818;stroke-width:1.0;"/><polygon fill="#181818" points="896.51,833.472,900.3959,824.4221,896.4468,828.4724,892.3965,824.5233,896.51,833.472" style="stroke:#181818;stroke-width:1.0;"/><text fill="#000000" font-family="sans-serif" font-size="13" lengthAdjust="spacing" textLength="27" x="897" y="799.499">next</text></g><!--reverse link Discipline to DesignDiscipline--><g id="link_Discipline_DesignDiscipline"><path codeLine="63" d="M1011.8498,428.7774 C1008.3398,495.8874 996.11,645.652 949,776.602 C942.01,796.042 931.54,816.332 921.83,833.222 " fill="none" id="Discipline-backto-DesignDiscipline" style="stroke:#181818;stroke-width:1.0;"/><polygon fill="none" points="1012.79,410.802,1005.858,428.464,1017.8417,429.0908,1012.79,410.802" style="stroke:#181818;stroke-width:1.0;"/></g><!--link DesignDiscipline to DesignActivity--><g id="link_DesignDiscipline_DesignActivity"><path codeLine="64" d="M851.2881,908.7761 C810.7081,939.1061 759.9752,977.0389 721.9952,1005.4389 " fill="none" id="DesignDiscipline-DesignActivity" style="stroke:#181818;stroke-width:1.0;"/><polygon fill="#181818" points="860.9,901.592,853.6993,901.98,851.2881,908.7761,858.4887,908.388,860.9,901.592" style="stroke:#181818;stroke-width:1.0;"/><polygon fill="#181818" points="717.19,1009.032,726.7931,1006.8457,721.1943,1006.0377,722.0023,1000.4389,717.19,1009.032" style="stroke:#181818;stroke-width:1.0;"/><text fill="#000000" font-family="sans-serif" font-size="13" lengthAdjust="spacing" textLength="7" x="724.9808" y="998.5389">*</text></g><!--link DesignDiscipline to ImplementationDiscipline--><g id="link_DesignDiscipline_ImplementationDiscipline"><path codeLine="65" d="M898.75,913.812 C899.82,937.792 900.9125,962.3679 901.9825,986.3479 " fill="none" id="DesignDiscipline-to-ImplementationDiscipline" style="stroke:#181818;stroke-width:1.0;"/><polygon fill="#181818" points="902.25,992.342,905.8448,983.1726,902.0271,987.347,897.8528,983.5292,902.25,992.342" style="stroke:#181818;stroke-width:1.0;"/><text fill="#000000" font-family="sans-serif" font-size="13" lengthAdjust="spacing" textLength="27" x="901" y="958.499">next</text></g><!--reverse link Discipline to ImplementationDiscipline--><g id="link_Discipline_ImplementationDiscipline"><path codeLine="66" d="M1029.944,427.8602 C1040.884,461.7202 1051,501.892 1051,552.602 C1051,552.602 1051,552.602 1051,874.602 C1051,929.492 1002.53,973.112 961.25,1000.302 " fill="none" id="Discipline-backto-ImplementationDiscipline" style="stroke:#181818;stroke-width:1.0;"/><polygon fill="none" points="1024.41,410.732,1024.2346,429.7048,1035.6534,426.0155,1024.41,410.732" style="stroke:#181818;stroke-width:1.0;"/></g><!--link ImplementationDiscipline to ImplementationActivity--><g id="link_ImplementationDiscipline_ImplementationActivity"><path codeLine="67" d="M847.5295,1080.388 C813.8795,1108.268 782.6899,1134.1036 749.0099,1162.0136 " fill="none" id="ImplementationDiscipline-ImplementationActivity" style="stroke:#181818;stroke-width:1.0;"/><polygon fill="#181818" points="856.77,1072.732,849.5978,1073.4798,847.5295,1080.388,854.7018,1079.6401,856.77,1072.732" style="stroke:#181818;stroke-width:1.0;"/><polygon fill="#181818" points="744.39,1165.842,753.8721,1163.1793,748.2399,1162.6516,748.7675,1157.0194,744.39,1165.842" style="stroke:#181818;stroke-width:1.0;"/><text fill="#000000" font-family="sans-serif" font-size="13" lengthAdjust="spacing" textLength="7" x="744.9336" y="1154.3778">*</text></g><!--link ImplementationDiscipline to TestDiscipline--><g id="link_ImplementationDiscipline_TestDiscipline"><path codeLine="68" d="M904,1072.952 C904,1100.832 904,1132.092 904,1159.942 " fill="none" id="ImplementationDiscipline-to-TestDiscipline" style="stroke:#181818;stroke-width:1.0;"/><polygon fill="#181818" points="904,1165.942,908,1156.942,904,1160.942,900,1156.942,904,1165.942" style="stroke:#181818;stroke-width:1.0;"/><text fill="#000000" font-family="sans-serif" font-size="13" lengthAdjust="spacing" textLength="27" x="905" y="1117.499">next</text></g><!--reverse link Discipline to TestDiscipline--><g id="link_Discipline_TestDiscipline"><path codeLine="69" d="M1045.5488,425.7227 C1067.3888,458.6527 1088,499.262 1088,552.602 C1088,552.602 1088,552.602 1088,1033.602 C1088,1113.512 993.98,1166.812 940.35,1190.712 " fill="none" id="Discipline-backto-TestDiscipline" style="stroke:#181818;stroke-width:1.0;"/><polygon fill="none" points="1035.6,410.722,1040.5486,429.039,1050.5491,422.4064,1035.6,410.722" style="stroke:#181818;stroke-width:1.0;"/></g><!--link TestDiscipline to TestActivity--><g id="link_TestDiscipline_TestActivity"><path codeLine="70" d="M859.4347,1251.6673 C831.3947,1279.7073 805.6926,1305.4093 779.3126,1331.7893 " fill="none" id="TestDiscipline-TestActivity" style="stroke:#181818;stroke-width:1.0;"/><polygon fill="#181818" points="867.92,1243.182,860.8489,1244.5962,859.4347,1251.6673,866.5058,1250.253,867.92,1243.182" style="stroke:#181818;stroke-width:1.0;"/><polygon fill="#181818" points="775.07,1336.032,784.2624,1332.4964,778.6055,1332.4964,778.6055,1326.8396,775.07,1336.032" style="stroke:#181818;stroke-width:1.0;"/><text fill="#000000" font-family="sans-serif" font-size="13" lengthAdjust="spacing" textLength="7" x="782.8331" y="1323.8046">*</text></g><!--reverse link Activity to RequirementActivity--><g id="link_Activity_RequirementActivity"><path codeLine="72" d="M682.4985,598.4324 C663.4185,623.3924 646.87,645.052 625.95,672.412 " fill="none" id="Activity-backto-RequirementActivity" style="stroke:#181818;stroke-width:1.0;"/><polygon fill="none" points="693.43,584.132,677.7317,594.7885,687.2652,602.0762,693.43,584.132" style="stroke:#181818;stroke-width:1.0;"/></g><!--link RequirementActivity to AnalysisActivity--><g id="link_RequirementActivity_AnalysisActivity"><path codeLine="73" d="M609.1,752.902 C617.29,777.462 625.8812,803.2603 634.0612,827.7803 " fill="none" id="RequirementActivity-to-AnalysisActivity" style="stroke:#181818;stroke-width:1.0;"/><polygon fill="#181818" points="635.96,833.472,636.9063,823.6687,634.3777,828.729,629.3174,826.2004,635.96,833.472" style="stroke:#181818;stroke-width:1.0;"/><text fill="#000000" font-family="sans-serif" font-size="13" lengthAdjust="spacing" textLength="27" x="627" y="799.499">next</text></g><!--reverse link Activity to AnalysisActivity--><g id="link_Activity_AnalysisActivity"><path codeLine="74" d="M706.0472,601.8449 C693.9072,659.4349 670.86,768.852 657.27,833.352 " fill="none" id="Activity-backto-AnalysisActivity" style="stroke:#181818;stroke-width:1.0;"/><polygon fill="none" points="709.76,584.232,700.1762,600.6073,711.9182,603.0825,709.76,584.232" style="stroke:#181818;stroke-width:1.0;"/></g><!--link AnalysisActivity to DesignActivity--><g id="link_AnalysisActivity_DesignActivity"><path codeLine="75" d="M658.49,913.812 C664.29,937.792 670.2772,962.5307 676.0872,986.5107 " fill="none" id="AnalysisActivity-to-DesignActivity" style="stroke:#181818;stroke-width:1.0;"/><polygon fill="#181818" points="677.5,992.342,679.2683,982.6532,676.3226,987.4826,671.4932,984.5369,677.5,992.342" style="stroke:#181818;stroke-width:1.0;"/><text fill="#000000" font-family="sans-serif" font-size="13" lengthAdjust="spacing" textLength="27" x="672" y="958.499">next</text></g><!--reverse link Activity to DesignActivity--><g id="link_Activity_DesignActivity"><path codeLine="76" d="M719.3584,602.254 C723.7584,669.894 730.26,822.492 708,962.602 C706.45,972.372 703.85,982.682 701.01,992.272 " fill="none" id="Activity-backto-DesignActivity" style="stroke:#181818;stroke-width:1.0;"/><polygon fill="none" points="718.19,584.292,713.3711,602.6435,725.3458,601.8645,718.19,584.292" style="stroke:#181818;stroke-width:1.0;"/></g><!--link DesignActivity to ImplementationActivity--><g id="link_DesignActivity_ImplementationActivity"><path codeLine="77" d="M689.29,1072.952 C690.92,1100.832 692.7394,1132.1022 694.3694,1159.9522 " fill="none" id="DesignActivity-to-ImplementationActivity" style="stroke:#181818;stroke-width:1.0;"/><polygon fill="#181818" points="694.72,1165.942,698.1873,1156.7236,694.4279,1160.9505,690.201,1157.1911,694.72,1165.942" style="stroke:#181818;stroke-width:1.0;"/><text fill="#000000" font-family="sans-serif" font-size="13" lengthAdjust="spacing" textLength="27" x="693" y="1117.499">next</text></g><!--reverse link Activity to ImplementationActivity--><g id="link_Activity_ImplementationActivity"><path codeLine="78" d="M733.2269,601.2082 C744.1069,632.4082 753,666.232 753,711.602 C753,711.602 753,711.602 753,1033.602 C753,1080.902 733.52,1132.062 717.53,1166.082 " fill="none" id="Activity-backto-ImplementationActivity" style="stroke:#181818;stroke-width:1.0;"/><polygon fill="none" points="727.3,584.212,727.5615,603.1838,738.8923,599.2326,727.3,584.212" style="stroke:#181818;stroke-width:1.0;"/></g><!--link ImplementationActivity to TestActivity--><g id="link_ImplementationActivity_TestActivity"><path codeLine="79" d="M708.87,1246.402 C716.28,1270.962 724.0565,1296.7079 731.4565,1321.2279 " fill="none" id="ImplementationActivity-to-TestActivity" style="stroke:#181818;stroke-width:1.0;"/><polygon fill="#181818" points="733.19,1326.972,734.4191,1317.2001,731.7454,1322.1852,726.7603,1319.5115,733.19,1326.972" style="stroke:#181818;stroke-width:1.0;"/><text fill="#000000" font-family="sans-serif" font-size="13" lengthAdjust="spacing" textLength="27" x="725" y="1292.999">next</text></g><!--reverse link Activity to TestActivity--><g id="link_Activity_TestActivity"><path codeLine="80" d="M750.1075,598.8512 C771.7575,629.0512 790,663.542 790,711.602 C790,711.602 790,711.602 790,1207.102 C790,1249.132 775.26,1295.122 762.66,1326.782 " fill="none" id="Activity-backto-TestActivity" style="stroke:#181818;stroke-width:1.0;"/><polygon fill="none" points="739.62,584.222,745.2311,602.347,754.9839,595.3553,739.62,584.222" style="stroke:#181818;stroke-width:1.0;"/></g><!--link Activity to Member--><g id="link_Activity_Member"><path codeLine="82" d="M685.94,559.192 C590.09,574.672 298,628.652 298,711.602 C298,711.602 298,711.602 298,1033.602 C298,1083.602 291.2663,1135.4239 285.9363,1169.5339 " fill="none" id="Activity-to-Member" style="stroke:#181818;stroke-width:1.0;"/><polygon fill="#181818" points="285.01,1175.462,290.3515,1167.1874,285.7819,1170.5219,282.4474,1165.9523,285.01,1175.462" style="stroke:#181818;stroke-width:1.0;"/></g><!--link Member to Role--><g id="link_Member_Role"><path codeLine="83" d="M278.6951,1248.6261 C277.8051,1277.0961 277.0194,1301.955 276.1194,1330.455 " fill="none" id="Member-Role" style="stroke:#181818;stroke-width:1.0;"/><polygon fill="#181818" points="279.07,1236.632,274.8845,1242.5041,278.6951,1248.6261,282.8806,1242.754,279.07,1236.632" style="stroke:#181818;stroke-width:1.0;"/><polygon fill="#181818" points="275.93,1336.452,280.2121,1327.5827,276.0878,1331.4545,272.2161,1327.3302,275.93,1336.452" style="stroke:#181818;stroke-width:1.0;"/></g><!--reverse link Role to RequirementRole--><g id="link_Role_RequirementRole"><path codeLine="84" d="M238.8753,1392.8274 C206.5953,1414.9174 159.29,1447.302 116.03,1476.912 " fill="none" id="Role-backto-RequirementRole" style="stroke:#181818;stroke-width:1.0;"/><polygon fill="none" points="253.73,1382.662,235.4868,1387.8759,242.2637,1397.779,253.73,1382.662" style="stroke:#181818;stroke-width:1.0;"/></g><!--reverse link Role to AnalysisRole--><g id="link_Role_AnalysisRole"><path codeLine="85" d="M245.5915,1412.6894 C231.7515,1433.6794 222.92,1447.062 207.83,1469.942 " fill="none" id="Role-backto-AnalysisRole" style="stroke:#181818;stroke-width:1.0;"/><polygon fill="none" points="255.5,1397.662,240.5824,1409.3865,250.6006,1415.9922,255.5,1397.662" style="stroke:#181818;stroke-width:1.0;"/></g><!--reverse link Role to DesignRole--><g id="link_Role_DesignRole"><path codeLine="86" d="M274.6614,1415.6615 C274.5114,1436.6515 274.44,1447.062 274.28,1469.942 " fill="none" id="Role-backto-DesignRole" style="stroke:#181818;stroke-width:1.0;"/><polygon fill="none" points="274.79,1397.662,268.6615,1415.6186,280.6612,1415.7044,274.79,1397.662" style="stroke:#181818;stroke-width:1.0;"/></g><!--reverse link Role to ImplementRole--><g id="link_Role_ImplementRole"><path codeLine="87" d="M306.654,1412.2936 C321.694,1433.2836 331.56,1447.062 347.95,1469.942 " fill="none" id="Role-backto-ImplementRole" style="stroke:#181818;stroke-width:1.0;"/><polygon fill="none" points="296.17,1397.662,301.7768,1415.7883,311.5313,1408.7989,296.17,1397.662" style="stroke:#181818;stroke-width:1.0;"/></g><!--reverse link Role to TestRole--><g id="link_Role_TestRole"><path codeLine="88" d="M311.8157,1388.7044 C343.0657,1406.4344 387.15,1433.072 433,1470.102 C439.11,1475.032 445.31,1480.812 450.91,1486.382 " fill="none" id="Role-backto-TestRole" style="stroke:#181818;stroke-width:1.0;"/><polygon fill="none" points="296.16,1379.822,308.8549,1393.923,314.7766,1383.4858,296.16,1379.822" style="stroke:#181818;stroke-width:1.0;"/></g><!--link RequirementActivity to RequirementRole--><g id="link_RequirementActivity_RequirementRole"><path codeLine="90" d="M548.87,726.392 C486.96,746.382 386,791.432 386,872.602 C386,872.602 386,872.602 386,1368.102 C386,1468.642 155.49,1461.582 134,1470.102 C128.01,1472.482 127.2223,1472.5638 121.3123,1475.6938 " fill="none" id="RequirementActivity-to-RequirementRole" style="stroke:#181818;stroke-width:1.0;"/><polygon fill="#181818" points="116.01,1478.502,125.8355,1477.8246,120.4286,1476.1619,122.0913,1470.7549,116.01,1478.502" style="stroke:#181818;stroke-width:1.0;"/><text fill="#000000" font-family="sans-serif" font-size="13" lengthAdjust="spacing" textLength="7" x="124.06" y="1469.0261">*</text></g><!--link AnalysisActivity to AnalysisRole--><g id="link_AnalysisActivity_AnalysisRole"><path codeLine="91" d="M618.13,885.032 C566.2,904.742 467,952.732 467,1031.602 C467,1031.602 467,1031.602 467,1368.102 C467,1482.772 334.57,1423.042 230,1470.102 C224.03,1472.792 223.034,1472.8851 217.584,1476.8451 " fill="none" id="AnalysisActivity-to-AnalysisRole" style="stroke:#181818;stroke-width:1.0;"/><polygon fill="#181818" points="212.73,1480.372,222.3622,1478.3176,216.775,1477.4329,217.6597,1471.8456,212.73,1480.372" style="stroke:#181818;stroke-width:1.0;"/><text fill="#000000" font-family="sans-serif" font-size="13" lengthAdjust="spacing" textLength="7" x="220.6457" y="1468.4544">*</text></g><!--link DesignActivity to DesignRole--><g id="link_DesignActivity_DesignRole"><path codeLine="92" d="M657.94,1072.642 C645.99,1089.652 632.51,1110.112 622,1129.602 C551.08,1261.142 609.81,1346.902 493,1440.102 C431.31,1489.312 389.14,1435.952 318,1470.102 C311.93,1473.022 310.7231,1473.2463 305.3631,1477.5863 " fill="none" id="DesignActivity-to-DesignRole" style="stroke:#181818;stroke-width:1.0;"/><polygon fill="#181818" points="300.7,1481.362,310.2117,1478.8072,304.5859,1478.2156,305.1775,1472.5897,300.7,1481.362" style="stroke:#181818;stroke-width:1.0;"/><text fill="#000000" font-family="sans-serif" font-size="13" lengthAdjust="spacing" textLength="7" x="308.4387" y="1468.7452">*</text></g><!--link ImplementationActivity to ImplementRole--><g id="link_ImplementationActivity_ImplementRole"><path codeLine="93" d="M686.13,1246.412 C669.49,1298.982 632.53,1391.202 567,1440.102 C518.09,1476.602 488.97,1445.762 433,1470.102 C427.28,1472.592 426.6759,1472.57 421.1459,1475.91 " fill="none" id="ImplementationActivity-to-ImplementRole" style="stroke:#181818;stroke-width:1.0;"/><polygon fill="#181818" points="416.01,1479.012,425.7819,1477.783,420.2899,1476.427,421.6459,1470.9351,416.01,1479.012" style="stroke:#181818;stroke-width:1.0;"/><text fill="#000000" font-family="sans-serif" font-size="13" lengthAdjust="spacing" textLength="7" x="424.0322" y="1468.6304">*</text></g><!--link TestActivity to TestRole--><g id="link_TestActivity_TestRole"><path codeLine="94" d="M714.97,1390.942 C694.3,1406.042 665.83,1425.642 639,1440.102 C588.74,1467.182 531.2042,1488.6528 498.8642,1499.9528 " fill="none" id="TestActivity-to-TestRole" style="stroke:#181818;stroke-width:1.0;"/><polygon fill="#181818" points="493.2,1501.932,503.0157,1502.7394,497.9202,1500.2827,500.3769,1495.1872,493.2,1501.932" style="stroke:#181818;stroke-width:1.0;"/><text fill="#000000" font-family="sans-serif" font-size="13" lengthAdjust="spacing" textLength="7" x="501.0731" y="1493.5515">*</text></g><!--SRC=[ZLL1Rjim4BplAmXT2WHm7s0O1eoc1GAqG53ac0iZimaHcL95kQZRvkyLboQvN96nJxPsPuRKB3Ny87R7gH_NudxiVtmKNu_QYYzgDDBirH-05xrNejLZsod_tqvgLFrq6XJ08DjN-Qp4y2AjicApyN-sM_4NsavQA-vTWJJEvJlJgc7IlH7IYYO-FHh4Dql2vqu-zQEC5F9S9ttgZPt6OnjPj52dFOpIM1r9wR54UOFmIhClVd-RZGx_Pq0qQQzjguTE6tIAF16xRcELGyw0x-hdKO_geCn4i6wRfFDeKg-f2EsCx4vMMwOIohb4HUDMMVric88lNhE5kyFGuNxHAYQJDw-HUr2MU-9AxrFVqdpaV2n-pNF6yQG7CfsTBvvOVpcQ25mC9dIQiaQmFnD8Cxd0zjPdt32D2ypSxKo13-A2ahCyu_iPL5ba09EIXxdjVeZftzJXIOqYDeBRVQUMnMGrzXVsksh3MS7VI4c6UpmdU5CZF7XS58_sHNYiL1ZEi0ZsxZ7Sx9dFrPlLQfk2vrpS_5kjKi12Ybe7fZcw5aRzdYYBT84YaPgbwPfJQHSoA99fg2wugGUGOXHVBdsxf9EzzLaEoAUFp73YQ0DNAqOeb8CLbPgRflHnLoYuzZ9S_IxvNfP0A73ZBdWybC3e6W_cykeS1WjUN3cFbYKGHrBBy_BgDJXKTU9kod5L9peUknxAUyf1m3XnVHfo0EbQOCUhT58Yc9wJMFIxoWMhGy-aMFQNX8epp4Ggrq19xAeHPEBPpL2IhBZgkFuIWFDTW7DmcGYOaznsrg7nJiefn4anIsjI3vaCrL6oa41mSL3qEqPKOGxfYqF4EwPcNmE2CvlfWNNT_m00]--></g></svg>