<?xml version="1.0" encoding="us-ascii" standalone="no"?><svg xmlns="http://www.w3.org/2000/svg" xmlns:xlink="http://www.w3.org/1999/xlink" contentStyleType="text/css" height="1413px" preserveAspectRatio="none" style="width:1375px;height:1413px;background:#FFFFFF;" version="1.1" viewBox="0 0 1375 1413" width="1375px" zoomAndPan="magnify"><defs/><g><!--cluster fases--><g id="cluster_fases"><path d="M1169.5,6.602 L1205.5,6.602 A3.75,3.75 0 0 1 1208,9.102 L1215,31.6699 L1365.5,31.6699 A2.5,2.5 0 0 1 1368,34.1699 L1368,686.102 A2.5,2.5 0 0 1 1365.5,688.602 L1169.5,688.602 A2.5,2.5 0 0 1 1167,686.102 L1167,9.102 A2.5,2.5 0 0 1 1169.5,6.602 " fill="none" style="stroke:#000000;stroke-width:1.5;"/><line style="stroke:#000000;stroke-width:1.5;" x1="1167" x2="1215" y1="31.6699" y2="31.6699"/><text fill="#000000" font-family="sans-serif" font-size="14" font-weight="bold" lengthAdjust="spacing" textLength="35" x="1171" y="23.5679">fases</text></g><!--cluster disciplinas--><g id="cluster_disciplinas"><path d="M861.5,279.602 L934.5,279.602 A3.75,3.75 0 0 1 937,282.102 L944,304.6699 L1129.5,304.6699 A2.5,2.5 0 0 1 1132,307.1699 L1132,1131.602 A2.5,2.5 0 0 1 1129.5,1134.102 L861.5,1134.102 A2.5,2.5 0 0 1 859,1131.602 L859,282.102 A2.5,2.5 0 0 1 861.5,279.602 " fill="none" style="stroke:#000000;stroke-width:1.5;"/><line style="stroke:#000000;stroke-width:1.5;" x1="859" x2="944" y1="304.6699" y2="304.6699"/><text fill="#000000" font-family="sans-serif" font-size="14" font-weight="bold" lengthAdjust="spacing" textLength="72" x="863" y="296.5679">disciplinas</text></g><!--cluster actividades--><g id="cluster_actividades"><path d="M568.5,437.102 L647.5,437.102 A3.75,3.75 0 0 1 650,439.602 L657,462.1699 L832.5,462.1699 A2.5,2.5 0 0 1 835,464.6699 L835,1276.602 A2.5,2.5 0 0 1 832.5,1279.102 L568.5,1279.102 A2.5,2.5 0 0 1 566,1276.602 L566,439.602 A2.5,2.5 0 0 1 568.5,437.102 " fill="none" style="stroke:#000000;stroke-width:1.5;"/><line style="stroke:#000000;stroke-width:1.5;" x1="566" x2="657" y1="462.1699" y2="462.1699"/><text fill="#000000" font-family="sans-serif" font-size="14" font-weight="bold" lengthAdjust="spacing" textLength="78" x="570" y="454.0679">actividades</text></g><!--cluster equipo--><g id="cluster_equipo"><path d="M8.5,1025.602 L57.5,1025.602 A3.75,3.75 0 0 1 60,1028.102 L67,1050.6699 L539.5,1050.6699 A2.5,2.5 0 0 1 542,1053.1699 L542,1403.602 A2.5,2.5 0 0 1 539.5,1406.102 L8.5,1406.102 A2.5,2.5 0 0 1 6,1403.602 L6,1028.102 A2.5,2.5 0 0 1 8.5,1025.602 " fill="none" style="stroke:#000000;stroke-width:1.5;"/><line style="stroke:#000000;stroke-width:1.5;" x1="6" x2="67" y1="1050.6699" y2="1050.6699"/><text fill="#000000" font-family="sans-serif" font-size="14" font-weight="bold" lengthAdjust="spacing" textLength="48" x="10" y="1042.5679">equipo</text></g><!--class Fase--><g id="elem_Fase"><rect codeLine="7" fill="#F1F1F1" height="45.0679" id="Fase" rx="2.5" ry="2.5" style="stroke:#181818;stroke-width:0.5;" width="36" x="1259" y="44.602"/><text fill="#000000" font-family="sans-serif" font-size="14" lengthAdjust="spacing" textLength="30" x="1262" y="64.5679">Fase</text><line style="stroke:#181818;stroke-width:0.5;" x1="1260" x2="1294" y1="73.6699" y2="73.6699"/><line style="stroke:#181818;stroke-width:0.5;" x1="1260" x2="1294" y1="81.6699" y2="81.6699"/></g><!--class Inicio--><g id="elem_Inicio"><rect codeLine="8" fill="#F1F1F1" height="64.1358" id="Inicio" rx="2.5" ry="2.5" style="stroke:#181818;stroke-width:0.5;" width="57" x="1183.5" y="150.602"/><text fill="#000000" font-family="sans-serif" font-size="14" lengthAdjust="spacing" textLength="51" x="1186.5" y="170.5679">Fase de</text><text fill="#000000" font-family="sans-serif" font-size="14" lengthAdjust="spacing" textLength="37" x="1193.5" y="189.6358">Inicio</text><line style="stroke:#181818;stroke-width:0.5;" x1="1184.5" x2="1239.5" y1="198.7378" y2="198.7378"/><line style="stroke:#181818;stroke-width:0.5;" x1="1184.5" x2="1239.5" y1="206.7378" y2="206.7378"/></g><!--class Elaboracion--><g id="elem_Elaboracion"><rect codeLine="9" fill="#F1F1F1" height="64.1358" id="Elaboracion" rx="2.5" ry="2.5" style="stroke:#181818;stroke-width:0.5;" width="85" x="1192.5" y="308.102"/><text fill="#000000" font-family="sans-serif" font-size="14" lengthAdjust="spacing" textLength="51" x="1209.5" y="328.0679">Fase de</text><text fill="#000000" font-family="sans-serif" font-size="14" lengthAdjust="spacing" textLength="79" x="1195.5" y="347.1358">Elaboraci&#243;n</text><line style="stroke:#181818;stroke-width:0.5;" x1="1193.5" x2="1276.5" y1="356.2378" y2="356.2378"/><line style="stroke:#181818;stroke-width:0.5;" x1="1193.5" x2="1276.5" y1="364.2378" y2="364.2378"/></g><!--class Construccion--><g id="elem_Construccion"><rect codeLine="10" fill="#F1F1F1" height="64.1358" id="Construccion" rx="2.5" ry="2.5" style="stroke:#181818;stroke-width:0.5;" width="94" x="1221" y="465.602"/><text fill="#000000" font-family="sans-serif" font-size="14" lengthAdjust="spacing" textLength="51" x="1242.5" y="485.5679">Fase de</text><text fill="#000000" font-family="sans-serif" font-size="14" lengthAdjust="spacing" textLength="88" x="1224" y="504.6358">Construcci&#243;n</text><line style="stroke:#181818;stroke-width:0.5;" x1="1222" x2="1314" y1="513.7378" y2="513.7378"/><line style="stroke:#181818;stroke-width:0.5;" x1="1222" x2="1314" y1="521.7378" y2="521.7378"/></g><!--class Transicion--><g id="elem_Transicion"><rect codeLine="11" fill="#F1F1F1" height="64.1358" id="Transicion" rx="2.5" ry="2.5" style="stroke:#181818;stroke-width:0.5;" width="76" x="1263" y="608.602"/><text fill="#000000" font-family="sans-serif" font-size="14" lengthAdjust="spacing" textLength="51" x="1275.5" y="628.5679">Fase de</text><text fill="#000000" font-family="sans-serif" font-size="14" lengthAdjust="spacing" textLength="70" x="1266" y="647.6358">Transici&#243;n</text><line style="stroke:#181818;stroke-width:0.5;" x1="1264" x2="1338" y1="656.7378" y2="656.7378"/><line style="stroke:#181818;stroke-width:0.5;" x1="1264" x2="1338" y1="664.7378" y2="664.7378"/></g><!--class Disciplina--><g id="elem_Disciplina"><rect codeLine="17" fill="#F1F1F1" height="45.0679" id="Disciplina" rx="2.5" ry="2.5" style="stroke:#181818;stroke-width:0.5;" width="72" x="994" y="317.602"/><text fill="#000000" font-family="sans-serif" font-size="14" lengthAdjust="spacing" textLength="66" x="997" y="337.5679">Disciplina</text><line style="stroke:#181818;stroke-width:0.5;" x1="995" x2="1065" y1="346.6699" y2="346.6699"/><line style="stroke:#181818;stroke-width:0.5;" x1="995" x2="1065" y1="354.6699" y2="354.6699"/></g><!--class DisciplinaRequisitos--><g id="elem_DisciplinaRequisitos"><rect codeLine="18" fill="#F1F1F1" height="64.1358" id="DisciplinaRequisitos" rx="2.5" ry="2.5" style="stroke:#181818;stroke-width:0.5;" width="93" x="874.5" y="465.602"/><text fill="#000000" font-family="sans-serif" font-size="14" lengthAdjust="spacing" textLength="87" x="877.5" y="485.5679">Disciplina de</text><text fill="#000000" font-family="sans-serif" font-size="14" lengthAdjust="spacing" textLength="70" x="886" y="504.6358">Requisitos</text><line style="stroke:#181818;stroke-width:0.5;" x1="875.5" x2="966.5" y1="513.7378" y2="513.7378"/><line style="stroke:#181818;stroke-width:0.5;" x1="875.5" x2="966.5" y1="521.7378" y2="521.7378"/></g><!--class DisciplinaAnalisis--><g id="elem_DisciplinaAnalisis"><rect codeLine="19" fill="#F1F1F1" height="64.1358" id="DisciplinaAnalisis" rx="2.5" ry="2.5" style="stroke:#181818;stroke-width:0.5;" width="93" x="875.5" y="608.602"/><text fill="#000000" font-family="sans-serif" font-size="14" lengthAdjust="spacing" textLength="87" x="878.5" y="628.5679">Disciplina de</text><text fill="#000000" font-family="sans-serif" font-size="14" lengthAdjust="spacing" textLength="52" x="896" y="647.6358">An&#225;lisis</text><line style="stroke:#181818;stroke-width:0.5;" x1="876.5" x2="967.5" y1="656.7378" y2="656.7378"/><line style="stroke:#181818;stroke-width:0.5;" x1="876.5" x2="967.5" y1="664.7378" y2="664.7378"/></g><!--class DisciplinaDise?o--><g id="elem_DisciplinaDise&#241;o"><rect codeLine="20" fill="#F1F1F1" height="64.1358" id="DisciplinaDise&#241;o" rx="2.5" ry="2.5" style="stroke:#181818;stroke-width:0.5;" width="93" x="882.5" y="753.602"/><text fill="#000000" font-family="sans-serif" font-size="14" lengthAdjust="spacing" textLength="87" x="885.5" y="773.5679">Disciplina de</text><text fill="#000000" font-family="sans-serif" font-size="14" lengthAdjust="spacing" textLength="46" x="906" y="792.6358">Dise&#241;o</text><line style="stroke:#181818;stroke-width:0.5;" x1="883.5" x2="974.5" y1="801.7378" y2="801.7378"/><line style="stroke:#181818;stroke-width:0.5;" x1="883.5" x2="974.5" y1="809.7378" y2="809.7378"/></g><!--class DisciplinaImplementacion--><g id="elem_DisciplinaImplementacion"><rect codeLine="21" fill="#F1F1F1" height="64.1358" id="DisciplinaImplementacion" rx="2.5" ry="2.5" style="stroke:#181818;stroke-width:0.5;" width="116" x="875" y="896.602"/><text fill="#000000" font-family="sans-serif" font-size="14" lengthAdjust="spacing" textLength="87" x="889.5" y="916.5679">Disciplina de</text><text fill="#000000" font-family="sans-serif" font-size="14" lengthAdjust="spacing" textLength="110" x="878" y="935.6358">Implementaci&#243;n</text><line style="stroke:#181818;stroke-width:0.5;" x1="876" x2="990" y1="944.7378" y2="944.7378"/><line style="stroke:#181818;stroke-width:0.5;" x1="876" x2="990" y1="952.7378" y2="952.7378"/></g><!--class DisciplinaPruebas--><g id="elem_DisciplinaPruebas"><rect codeLine="22" fill="#F1F1F1" height="64.1358" id="DisciplinaPruebas" rx="2.5" ry="2.5" style="stroke:#181818;stroke-width:0.5;" width="93" x="886.5" y="1054.102"/><text fill="#000000" font-family="sans-serif" font-size="14" lengthAdjust="spacing" textLength="87" x="889.5" y="1074.0679">Disciplina de</text><text fill="#000000" font-family="sans-serif" font-size="14" lengthAdjust="spacing" textLength="55" x="905.5" y="1093.1358">Pruebas</text><line style="stroke:#181818;stroke-width:0.5;" x1="887.5" x2="978.5" y1="1102.2378" y2="1102.2378"/><line style="stroke:#181818;stroke-width:0.5;" x1="887.5" x2="978.5" y1="1110.2378" y2="1110.2378"/></g><!--class Actividad--><g id="elem_Actividad"><rect codeLine="26" fill="#F1F1F1" height="45.0679" id="Actividad" rx="2.5" ry="2.5" style="stroke:#181818;stroke-width:0.5;" width="68" x="710" y="475.102"/><text fill="#000000" font-family="sans-serif" font-size="14" lengthAdjust="spacing" textLength="62" x="713" y="495.0679">Actividad</text><line style="stroke:#181818;stroke-width:0.5;" x1="711" x2="777" y1="504.1699" y2="504.1699"/><line style="stroke:#181818;stroke-width:0.5;" x1="711" x2="777" y1="512.1699" y2="512.1699"/></g><!--class ActividadRequisitos--><g id="elem_ActividadRequisitos"><rect codeLine="27" fill="#F1F1F1" height="64.1358" id="ActividadRequisitos" rx="2.5" ry="2.5" style="stroke:#181818;stroke-width:0.5;" width="89" x="581.5" y="608.602"/><text fill="#000000" font-family="sans-serif" font-size="14" lengthAdjust="spacing" textLength="83" x="584.5" y="628.5679">Actividad de</text><text fill="#000000" font-family="sans-serif" font-size="14" lengthAdjust="spacing" textLength="70" x="591" y="647.6358">Requisitos</text><line style="stroke:#181818;stroke-width:0.5;" x1="582.5" x2="669.5" y1="656.7378" y2="656.7378"/><line style="stroke:#181818;stroke-width:0.5;" x1="582.5" x2="669.5" y1="664.7378" y2="664.7378"/></g><!--class ActividadAnalisis--><g id="elem_ActividadAnalisis"><rect codeLine="28" fill="#F1F1F1" height="64.1358" id="ActividadAnalisis" rx="2.5" ry="2.5" style="stroke:#181818;stroke-width:0.5;" width="89" x="618.5" y="753.602"/><text fill="#000000" font-family="sans-serif" font-size="14" lengthAdjust="spacing" textLength="83" x="621.5" y="773.5679">Actividad de</text><text fill="#000000" font-family="sans-serif" font-size="14" lengthAdjust="spacing" textLength="52" x="637" y="792.6358">An&#225;lisis</text><line style="stroke:#181818;stroke-width:0.5;" x1="619.5" x2="706.5" y1="801.7378" y2="801.7378"/><line style="stroke:#181818;stroke-width:0.5;" x1="619.5" x2="706.5" y1="809.7378" y2="809.7378"/></g><!--class ActividadDise?o--><g id="elem_ActividadDise&#241;o"><rect codeLine="29" fill="#F1F1F1" height="64.1358" id="ActividadDise&#241;o" rx="2.5" ry="2.5" style="stroke:#181818;stroke-width:0.5;" width="89" x="655.5" y="896.602"/><text fill="#000000" font-family="sans-serif" font-size="14" lengthAdjust="spacing" textLength="83" x="658.5" y="916.5679">Actividad de</text><text fill="#000000" font-family="sans-serif" font-size="14" lengthAdjust="spacing" textLength="46" x="677" y="935.6358">Dise&#241;o</text><line style="stroke:#181818;stroke-width:0.5;" x1="656.5" x2="743.5" y1="944.7378" y2="944.7378"/><line style="stroke:#181818;stroke-width:0.5;" x1="656.5" x2="743.5" y1="952.7378" y2="952.7378"/></g><!--class ActividadImplementacion--><g id="elem_ActividadImplementacion"><rect codeLine="30" fill="#F1F1F1" height="64.1358" id="ActividadImplementacion" rx="2.5" ry="2.5" style="stroke:#181818;stroke-width:0.5;" width="116" x="666" y="1054.102"/><text fill="#000000" font-family="sans-serif" font-size="14" lengthAdjust="spacing" textLength="83" x="682.5" y="1074.0679">Actividad de</text><text fill="#000000" font-family="sans-serif" font-size="14" lengthAdjust="spacing" textLength="110" x="669" y="1093.1358">Implementaci&#243;n</text><line style="stroke:#181818;stroke-width:0.5;" x1="667" x2="781" y1="1102.2378" y2="1102.2378"/><line style="stroke:#181818;stroke-width:0.5;" x1="667" x2="781" y1="1110.2378" y2="1110.2378"/></g><!--class ActividadPruebas--><g id="elem_ActividadPruebas"><rect codeLine="31" fill="#F1F1F1" height="64.1358" id="ActividadPruebas" rx="2.5" ry="2.5" style="stroke:#181818;stroke-width:0.5;" width="89" x="717.5" y="1199.102"/><text fill="#000000" font-family="sans-serif" font-size="14" lengthAdjust="spacing" textLength="83" x="720.5" y="1219.0679">Actividad de</text><text fill="#000000" font-family="sans-serif" font-size="14" lengthAdjust="spacing" textLength="55" x="734.5" y="1238.1358">Pruebas</text><line style="stroke:#181818;stroke-width:0.5;" x1="718.5" x2="805.5" y1="1247.2378" y2="1247.2378"/><line style="stroke:#181818;stroke-width:0.5;" x1="718.5" x2="805.5" y1="1255.2378" y2="1255.2378"/></g><!--class Miembro--><g id="elem_Miembro"><rect codeLine="35" fill="#F1F1F1" height="45.0679" id="Miembro" rx="2.5" ry="2.5" style="stroke:#181818;stroke-width:0.5;" width="67" x="253.5" y="1063.602"/><text fill="#000000" font-family="sans-serif" font-size="14" lengthAdjust="spacing" textLength="61" x="256.5" y="1083.5679">Miembro</text><line style="stroke:#181818;stroke-width:0.5;" x1="254.5" x2="319.5" y1="1092.6699" y2="1092.6699"/><line style="stroke:#181818;stroke-width:0.5;" x1="254.5" x2="319.5" y1="1100.6699" y2="1100.6699"/></g><!--class Rol--><g id="elem_Rol"><rect codeLine="36" fill="#F1F1F1" height="45.0679" id="Rol" rx="2.5" ry="2.5" style="stroke:#181818;stroke-width:0.5;" width="27" x="259.5" y="1208.602"/><text fill="#000000" font-family="sans-serif" font-size="14" lengthAdjust="spacing" textLength="21" x="262.5" y="1228.5679">Rol</text><line style="stroke:#181818;stroke-width:0.5;" x1="260.5" x2="285.5" y1="1237.6699" y2="1237.6699"/><line style="stroke:#181818;stroke-width:0.5;" x1="260.5" x2="285.5" y1="1245.6699" y2="1245.6699"/></g><!--class RolRequisitos--><g id="elem_RolRequisitos"><rect codeLine="37" fill="#F1F1F1" height="64.1358" id="RolRequisitos" rx="2.5" ry="2.5" style="stroke:#181818;stroke-width:0.5;" width="76" x="22" y="1326.102"/><text fill="#000000" font-family="sans-serif" font-size="14" lengthAdjust="spacing" textLength="42" x="39" y="1346.0679">Rol de</text><text fill="#000000" font-family="sans-serif" font-size="14" lengthAdjust="spacing" textLength="70" x="25" y="1365.1358">Requisitos</text><line style="stroke:#181818;stroke-width:0.5;" x1="23" x2="97" y1="1374.2378" y2="1374.2378"/><line style="stroke:#181818;stroke-width:0.5;" x1="23" x2="97" y1="1382.2378" y2="1382.2378"/></g><!--class RolAnalisis--><g id="elem_RolAnalisis"><rect codeLine="38" fill="#F1F1F1" height="64.1358" id="RolAnalisis" rx="2.5" ry="2.5" style="stroke:#181818;stroke-width:0.5;" width="58" x="133" y="1326.102"/><text fill="#000000" font-family="sans-serif" font-size="14" lengthAdjust="spacing" textLength="42" x="141" y="1346.0679">Rol de</text><text fill="#000000" font-family="sans-serif" font-size="14" lengthAdjust="spacing" textLength="52" x="136" y="1365.1358">An&#225;lisis</text><line style="stroke:#181818;stroke-width:0.5;" x1="134" x2="190" y1="1374.2378" y2="1374.2378"/><line style="stroke:#181818;stroke-width:0.5;" x1="134" x2="190" y1="1382.2378" y2="1382.2378"/></g><!--class RolDise?o--><g id="elem_RolDise&#241;o"><rect codeLine="39" fill="#F1F1F1" height="64.1358" id="RolDise&#241;o" rx="2.5" ry="2.5" style="stroke:#181818;stroke-width:0.5;" width="52" x="226" y="1326.102"/><text fill="#000000" font-family="sans-serif" font-size="14" lengthAdjust="spacing" textLength="42" x="231" y="1346.0679">Rol de</text><text fill="#000000" font-family="sans-serif" font-size="14" lengthAdjust="spacing" textLength="46" x="229" y="1365.1358">Dise&#241;o</text><line style="stroke:#181818;stroke-width:0.5;" x1="227" x2="277" y1="1374.2378" y2="1374.2378"/><line style="stroke:#181818;stroke-width:0.5;" x1="227" x2="277" y1="1382.2378" y2="1382.2378"/></g><!--class RolImplementacion--><g id="elem_RolImplementacion"><rect codeLine="40" fill="#F1F1F1" height="64.1358" id="RolImplementacion" rx="2.5" ry="2.5" style="stroke:#181818;stroke-width:0.5;" width="116" x="313" y="1326.102"/><text fill="#000000" font-family="sans-serif" font-size="14" lengthAdjust="spacing" textLength="42" x="350" y="1346.0679">Rol de</text><text fill="#000000" font-family="sans-serif" font-size="14" lengthAdjust="spacing" textLength="110" x="316" y="1365.1358">Implementaci&#243;n</text><line style="stroke:#181818;stroke-width:0.5;" x1="314" x2="428" y1="1374.2378" y2="1374.2378"/><line style="stroke:#181818;stroke-width:0.5;" x1="314" x2="428" y1="1382.2378" y2="1382.2378"/></g><!--class RolPruebas--><g id="elem_RolPruebas"><rect codeLine="41" fill="#F1F1F1" height="64.1358" id="RolPruebas" rx="2.5" ry="2.5" style="stroke:#181818;stroke-width:0.5;" width="61" x="464.5" y="1326.102"/><text fill="#000000" font-family="sans-serif" font-size="14" lengthAdjust="spacing" textLength="42" x="474" y="1346.0679">Rol de</text><text fill="#000000" font-family="sans-serif" font-size="14" lengthAdjust="spacing" textLength="55" x="467.5" y="1365.1358">Pruebas</text><line style="stroke:#181818;stroke-width:0.5;" x1="465.5" x2="524.5" y1="1374.2378" y2="1374.2378"/><line style="stroke:#181818;stroke-width:0.5;" x1="465.5" x2="524.5" y1="1382.2378" y2="1382.2378"/></g><!--class Iteracion--><g id="elem_Iteracion"><rect codeLine="14" fill="#F1F1F1" height="45.0679" id="Iteracion" rx="2.5" ry="2.5" style="stroke:#181818;stroke-width:0.5;" width="66" x="997" y="160.102"/><text fill="#000000" font-family="sans-serif" font-size="14" lengthAdjust="spacing" textLength="60" x="1000" y="180.0679">Iteracion</text><line style="stroke:#181818;stroke-width:0.5;" x1="998" x2="1062" y1="189.1699" y2="189.1699"/><line style="stroke:#181818;stroke-width:0.5;" x1="998" x2="1062" y1="197.1699" y2="197.1699"/></g><!--link Fase to Iteracion--><g id="link_Fase_Iteracion"><path codeLine="44" d="M1247.9355,81.4611 C1206.5955,100.4511 1121.372,139.6169 1068.552,163.8869 " fill="none" id="Fase-Iteracion" style="stroke:#181818;stroke-width:1.0;"/><polygon fill="#181818" points="1258.84,76.452,1251.718,75.3217,1247.9355,81.4611,1255.0574,82.5914,1258.84,76.452" style="stroke:#181818;stroke-width:1.0;"/><polygon fill="#181818" points="1063.1,166.392,1072.9481,166.269,1067.6433,164.3044,1069.6079,158.9996,1063.1,166.392" style="stroke:#181818;stroke-width:1.0;"/></g><!--reverse link Fase to Inicio--><g id="link_Fase_Inicio"><path codeLine="45" d="M1255.6698,105.3391 C1245.8698,122.4391 1241,130.962 1229.98,150.202 " fill="none" id="Fase-backto-Inicio" style="stroke:#181818;stroke-width:1.0;"/><polygon fill="none" points="1264.62,89.722,1250.4641,102.3557,1260.8755,108.3225,1264.62,89.722" style="stroke:#181818;stroke-width:1.0;"/></g><!--link Inicio to Elaboracion--><g id="link_Inicio_Elaboracion"><path codeLine="46" d="M1211.57,214.902 C1211.78,229.732 1212.62,247.652 1215,263.602 C1217.2,278.352 1219.5639,288.6022 1223.4039,302.0622 " fill="none" id="Inicio-to-Elaboracion" style="stroke:#181818;stroke-width:1.0;"/><polygon fill="#181818" points="1225.05,307.832,1226.4274,298.0799,1223.6783,303.0238,1218.7344,300.2747,1225.05,307.832" style="stroke:#181818;stroke-width:1.0;"/><text fill="#000000" font-family="sans-serif" font-size="13" lengthAdjust="spacing" textLength="55" x="1216" y="259.499">siguiente</text></g><!--reverse link Fase to Elaboracion--><g id="link_Fase_Elaboracion"><path codeLine="47" d="M1282.5979,107.4995 C1287.3779,143.9895 1291.78,202.122 1276,263.602 C1272.03,279.062 1264.22,294.782 1256.47,307.852 " fill="none" id="Fase-backto-Elaboracion" style="stroke:#181818;stroke-width:1.0;"/><polygon fill="none" points="1280.26,89.652,1276.6488,108.2788,1288.5471,106.7202,1280.26,89.652" style="stroke:#181818;stroke-width:1.0;"/></g><!--link Elaboracion to Construccion--><g id="link_Elaboracion_Construccion"><path codeLine="48" d="M1239.36,372.392 C1241.61,387.212 1244.6,405.142 1248,421.102 C1251.14,435.822 1253.7198,446.1866 1257.4498,459.7566 " fill="none" id="Elaboracion-to-Construccion" style="stroke:#181818;stroke-width:1.0;"/><polygon fill="#181818" points="1259.04,465.542,1260.5116,455.8037,1257.7148,460.7208,1252.7977,457.924,1259.04,465.542" style="stroke:#181818;stroke-width:1.0;"/><text fill="#000000" font-family="sans-serif" font-size="13" lengthAdjust="spacing" textLength="55" x="1249" y="416.999">siguiente</text></g><!--reverse link Fase to Construccion--><g id="link_Fase_Construccion"><path codeLine="49" d="M1289.1838,107.2294 C1306.0338,163.2594 1340.06,298.832 1309,421.102 C1305.07,436.572 1297.26,452.302 1289.51,465.362 " fill="none" id="Fase-backto-Construccion" style="stroke:#181818;stroke-width:1.0;"/><polygon fill="none" points="1284,89.992,1283.438,108.9573,1294.9296,105.5014,1284,89.992" style="stroke:#181818;stroke-width:1.0;"/></g><!--link Construccion to Transicion--><g id="link_Construccion_Transicion"><path codeLine="50" d="M1274.28,529.832 C1277.35,544.652 1281.2,562.572 1285,578.602 C1287.3,588.292 1288.4675,592.9984 1290.9675,602.5284 " fill="none" id="Construccion-to-Transicion" style="stroke:#181818;stroke-width:1.0;"/><polygon fill="#181818" points="1292.49,608.332,1294.0754,598.6116,1291.2213,603.4956,1286.3372,600.6415,1292.49,608.332" style="stroke:#181818;stroke-width:1.0;"/><text fill="#000000" font-family="sans-serif" font-size="13" lengthAdjust="spacing" textLength="55" x="1286" y="574.499">siguiente</text></g><!--reverse link Fase to Transicion--><g id="link_Fase_Transicion"><path codeLine="51" d="M1308.5688,95.474 C1330.4888,115.534 1351,140.912 1351,181.602 C1351,181.602 1351,181.602 1351,498.602 C1351,534.222 1358.18,545.122 1346,578.602 C1342.17,589.112 1335.93,599.372 1329.29,608.382 " fill="none" id="Fase-backto-Transicion" style="stroke:#181818;stroke-width:1.0;"/><polygon fill="none" points="1295.29,83.322,1304.5181,99.9003,1312.6195,91.0478,1295.29,83.322" style="stroke:#181818;stroke-width:1.0;"/></g><!--link Iteracion to Disciplina--><g id="link_Iteracion_Disciplina"><path codeLine="53" d="M1030,217.222 C1030,246.852 1030,281.752 1030,311.412 " fill="none" id="Iteracion-Disciplina" style="stroke:#181818;stroke-width:1.0;"/><polygon fill="#181818" points="1030,205.222,1026,211.222,1030,217.222,1034,211.222,1030,205.222" style="stroke:#181818;stroke-width:1.0;"/><polygon fill="#181818" points="1030,317.412,1034,308.412,1030,312.412,1026,308.412,1030,317.412" style="stroke:#181818;stroke-width:1.0;"/></g><!--link Iteracion to Iteracion--><g id="link_Iteracion_Iteracion"><path codeLine="54" d="M1063.24,171.492 C1081.38,169.512 1098,173.222 1098,182.602 C1098,191.982 1087.3446,196.343 1069.2046,194.363 " fill="none" id="Iteracion-to-Iteracion" style="stroke:#181818;stroke-width:1.0;"/><polygon fill="#181818" points="1063.24,193.712,1071.7528,198.6649,1068.2105,194.2545,1072.6209,190.7122,1063.24,193.712" style="stroke:#181818;stroke-width:1.0;"/><text fill="#000000" font-family="sans-serif" font-size="13" lengthAdjust="spacing" textLength="55" x="1104" y="187.999">siguiente</text></g><!--link Disciplina to Actividad--><g id="link_Disciplina_Actividad"><path codeLine="56" d="M983.2632,364.2611 C948.4432,381.6411 905.07,403.752 859,429.102 C831.52,444.222 806.0578,459.1697 783.3278,472.7797 " fill="none" id="Disciplina-Actividad" style="stroke:#181818;stroke-width:1.0;"/><polygon fill="#181818" points="994,358.902,986.8452,358.0026,983.2632,364.2611,990.418,365.1605,994,358.902" style="stroke:#181818;stroke-width:1.0;"/><polygon fill="#181818" points="778.18,475.862,787.9565,474.6704,782.4698,473.2934,783.8468,467.8067,778.18,475.862" style="stroke:#181818;stroke-width:1.0;"/></g><!--reverse link Disciplina to DisciplinaRequisitos--><g id="link_Disciplina_DisciplinaRequisitos"><path codeLine="57" d="M1004.5129,377.4648 C985.8029,404.1748 964.15,435.052 942.8,465.512 " fill="none" id="Disciplina-backto-DisciplinaRequisitos" style="stroke:#181818;stroke-width:1.0;"/><polygon fill="none" points="1014.84,362.722,999.5986,374.0224,1009.4271,380.9072,1014.84,362.722" style="stroke:#181818;stroke-width:1.0;"/></g><!--link DisciplinaRequisitos to ActividadRequisitos--><g id="link_DisciplinaRequisitos_ActividadRequisitos"><path codeLine="58" d="M863.4329,526.1163 C807.5429,552.8263 730.9234,589.4545 676.0034,615.7045 " fill="none" id="DisciplinaRequisitos-ActividadRequisitos" style="stroke:#181818;stroke-width:1.0;"/><polygon fill="#181818" points="874.26,520.942,867.1217,519.9201,863.4329,526.1163,870.5712,527.1382,874.26,520.942" style="stroke:#181818;stroke-width:1.0;"/><polygon fill="#181818" points="670.59,618.292,680.4351,618.0198,675.1012,616.1358,676.9852,610.8019,670.59,618.292" style="stroke:#181818;stroke-width:1.0;"/><text fill="#000000" font-family="sans-serif" font-size="13" lengthAdjust="spacing" textLength="7" x="678.5549" y="610.1333">*</text></g><!--link DisciplinaRequisitos to DisciplinaAnalisis--><g id="link_DisciplinaRequisitos_DisciplinaAnalisis"><path codeLine="59" d="M921.22,529.892 C921.39,553.262 921.5663,579.0521 921.7363,602.4021 " fill="none" id="DisciplinaRequisitos-to-DisciplinaAnalisis" style="stroke:#181818;stroke-width:1.0;"/><polygon fill="#181818" points="921.78,608.402,925.7144,599.3731,921.7436,603.4021,917.7146,599.4313,921.78,608.402" style="stroke:#181818;stroke-width:1.0;"/><text fill="#000000" font-family="sans-serif" font-size="13" lengthAdjust="spacing" textLength="55" x="922" y="574.499">siguiente</text></g><!--reverse link Disciplina to DisciplinaAnalisis--><g id="link_Disciplina_DisciplinaAnalisis"><path codeLine="60" d="M1030.231,380.8817 C1029.991,424.5317 1024.94,506.692 986,578.602 C980.08,589.532 971.5,599.652 962.53,608.382 " fill="none" id="Disciplina-backto-DisciplinaAnalisis" style="stroke:#181818;stroke-width:1.0;"/><polygon fill="none" points="1030.33,362.882,1024.2311,380.8487,1036.2309,380.9147,1030.33,362.882" style="stroke:#181818;stroke-width:1.0;"/></g><!--link DisciplinaAnalisis to ActividadAnalisis--><g id="link_DisciplinaAnalisis_ActividadAnalisis"><path codeLine="61" d="M864.9256,678.7723 C852.0756,686.8923 848.19,689.072 835,696.602 C792.61,720.782 748.2279,743.2618 713.1679,760.4418 " fill="none" id="DisciplinaAnalisis-ActividadAnalisis" style="stroke:#181818;stroke-width:1.0;"/><polygon fill="#181818" points="875.07,672.362,867.8611,672.1857,864.9256,678.7723,872.1346,678.9486,875.07,672.362" style="stroke:#181818;stroke-width:1.0;"/><polygon fill="#181818" points="707.78,763.082,717.622,762.7137,712.2699,760.8818,714.1017,755.5298,707.78,763.082" style="stroke:#181818;stroke-width:1.0;"/><text fill="#000000" font-family="sans-serif" font-size="13" lengthAdjust="spacing" textLength="7" x="715.4746" y="755.0806">*</text></g><!--link DisciplinaAnalisis to DisciplinaDise?o--><g id="link_DisciplinaAnalisis_DisciplinaDise&#241;o"><path codeLine="62" d="M923.52,672.632 C924.68,696.452 925.997,723.2191 927.167,747.1491 " fill="none" id="DisciplinaAnalisis-to-DisciplinaDise&#241;o" style="stroke:#181818;stroke-width:1.0;"/><polygon fill="#181818" points="927.46,753.142,931.0157,743.9574,927.2158,748.1479,923.0253,744.3481,927.46,753.142" style="stroke:#181818;stroke-width:1.0;"/><text fill="#000000" font-family="sans-serif" font-size="13" lengthAdjust="spacing" textLength="55" x="926" y="719.499">siguiente</text></g><!--reverse link Disciplina to DisciplinaDise?o--><g id="link_Disciplina_DisciplinaDise&#241;o"><path codeLine="63" d="M1035.215,380.8501 C1042.655,441.9701 1054.53,600.242 990,723.602 C984.31,734.482 976,744.652 967.34,753.452 " fill="none" id="Disciplina-backto-DisciplinaDise&#241;o" style="stroke:#181818;stroke-width:1.0;"/><polygon fill="none" points="1033.04,362.982,1029.259,381.5751,1041.1711,380.1251,1033.04,362.982" style="stroke:#181818;stroke-width:1.0;"/></g><!--link DisciplinaDise?o to ActividadDise?o--><g id="link_DisciplinaDise&#241;o_ActividadDise&#241;o"><path codeLine="64" d="M872.1615,821.5934 C831.8815,846.3934 789.3987,872.5554 749.7187,896.9954 " fill="none" id="DisciplinaDise&#241;o-ActividadDise&#241;o" style="stroke:#181818;stroke-width:1.0;"/><polygon fill="#181818" points="882.38,815.302,875.1736,815.0415,872.1615,821.5934,879.3679,821.8539,882.38,815.302" style="stroke:#181818;stroke-width:1.0;"/><polygon fill="#181818" points="744.61,900.142,754.3708,898.8279,748.8673,897.5198,750.1753,892.0163,744.61,900.142" style="stroke:#181818;stroke-width:1.0;"/><text fill="#000000" font-family="sans-serif" font-size="13" lengthAdjust="spacing" textLength="7" x="752.5782" y="890.9647">*</text></g><!--link DisciplinaDise?o to DisciplinaImplementacion--><g id="link_DisciplinaDise&#241;o_DisciplinaImplementacion"><path codeLine="65" d="M929.89,817.892 C930.55,841.262 931.2805,867.0544 931.9405,890.4044 " fill="none" id="DisciplinaDise&#241;o-to-DisciplinaImplementacion" style="stroke:#181818;stroke-width:1.0;"/><polygon fill="#181818" points="932.11,896.402,935.8541,887.2926,931.9687,891.404,927.8573,887.5186,932.11,896.402" style="stroke:#181818;stroke-width:1.0;"/><text fill="#000000" font-family="sans-serif" font-size="13" lengthAdjust="spacing" textLength="55" x="932" y="862.499">siguiente</text></g><!--reverse link Disciplina to DisciplinaImplementacion--><g id="link_Disciplina_DisciplinaImplementacion"><path codeLine="66" d="M1049.0569,379.0709 C1063.2469,408.5509 1078,447.022 1078,496.602 C1078,496.602 1078,496.602 1078,786.602 C1078,837.512 1031.48,875.992 991.14,899.782 " fill="none" id="Disciplina-backto-DisciplinaImplementacion" style="stroke:#181818;stroke-width:1.0;"/><polygon fill="none" points="1041.25,362.852,1043.6506,381.6732,1054.4632,376.4686,1041.25,362.852" style="stroke:#181818;stroke-width:1.0;"/></g><!--link DisciplinaImplementacion to ActividadImplementacion--><g id="link_DisciplinaImplementacion_ActividadImplementacion"><path codeLine="67" d="M881.5825,967.8552 C845.1325,994.9752 806.9634,1023.37 770.5334,1050.48 " fill="none" id="DisciplinaImplementacion-ActividadImplementacion" style="stroke:#181818;stroke-width:1.0;"/><polygon fill="#181818" points="891.21,960.692,884.0085,961.0644,881.5825,967.8552,888.784,967.4827,891.21,960.692" style="stroke:#181818;stroke-width:1.0;"/><polygon fill="#181818" points="765.72,1054.062,775.3282,1051.8979,769.7312,1051.077,770.5522,1045.48,765.72,1054.062" style="stroke:#181818;stroke-width:1.0;"/><text fill="#000000" font-family="sans-serif" font-size="13" lengthAdjust="spacing" textLength="7" x="767.0806" y="1042.1532">*</text></g><!--link DisciplinaImplementacion to DisciplinaPruebas--><g id="link_DisciplinaImplementacion_DisciplinaPruebas"><path codeLine="68" d="M933,960.692 C933,987.812 933,1020.952 933,1048.062 " fill="none" id="DisciplinaImplementacion-to-DisciplinaPruebas" style="stroke:#181818;stroke-width:1.0;"/><polygon fill="#181818" points="933,1054.062,937,1045.062,933,1049.062,929,1045.062,933,1054.062" style="stroke:#181818;stroke-width:1.0;"/><text fill="#000000" font-family="sans-serif" font-size="13" lengthAdjust="spacing" textLength="55" x="934" y="1005.499">siguiente</text></g><!--reverse link Disciplina to DisciplinaPruebas--><g id="link_Disciplina_DisciplinaPruebas"><path codeLine="69" d="M1062.9677,376.2061 C1088.1377,404.5261 1115,443.372 1115,496.602 C1115,496.602 1115,496.602 1115,929.602 C1115,1000.672 1033.79,1046.172 979.87,1068.562 " fill="none" id="Disciplina-backto-DisciplinaPruebas" style="stroke:#181818;stroke-width:1.0;"/><polygon fill="none" points="1051.01,362.752,1058.4829,380.192,1067.4524,372.2202,1051.01,362.752" style="stroke:#181818;stroke-width:1.0;"/></g><!--link DisciplinaPruebas to ActividadPruebas--><g id="link_DisciplinaPruebas_ActividadPruebas"><path codeLine="70" d="M886.6932,1125.8284 C858.1032,1149.7284 832.5719,1171.082 803.9319,1195.042 " fill="none" id="DisciplinaPruebas-ActividadPruebas" style="stroke:#181818;stroke-width:1.0;"/><polygon fill="#181818" points="895.9,1118.132,888.7311,1118.9113,886.6932,1125.8284,893.8621,1125.0491,895.9,1118.132" style="stroke:#181818;stroke-width:1.0;"/><polygon fill="#181818" points="799.33,1198.892,808.7995,1196.185,803.165,1195.6837,803.6663,1190.0491,799.33,1198.892" style="stroke:#181818;stroke-width:1.0;"/><text fill="#000000" font-family="sans-serif" font-size="13" lengthAdjust="spacing" textLength="7" x="799.3074" y="1187.4514">*</text></g><!--reverse link Actividad to ActividadRequisitos--><g id="link_Actividad_ActividadRequisitos"><path codeLine="72" d="M714.2667,534.125 C694.5467,557.685 674.45,581.702 652.09,608.432 " fill="none" id="Actividad-backto-ActividadRequisitos" style="stroke:#181818;stroke-width:1.0;"/><polygon fill="none" points="725.82,520.322,709.6657,530.2739,718.8677,537.976,725.82,520.322" style="stroke:#181818;stroke-width:1.0;"/></g><!--link ActividadRequisitos to ActividadAnalisis--><g id="link_ActividadRequisitos_ActividadAnalisis"><path codeLine="73" d="M630.44,672.632 C632.96,688.082 636.51,706.972 641,723.602 C643.67,733.492 645.1634,738.4255 648.6334,747.9355 " fill="none" id="ActividadRequisitos-to-ActividadAnalisis" style="stroke:#181818;stroke-width:1.0;"/><polygon fill="#181818" points="650.69,753.572,651.3627,743.7461,648.9761,748.8749,643.8474,746.4883,650.69,753.572" style="stroke:#181818;stroke-width:1.0;"/><text fill="#000000" font-family="sans-serif" font-size="13" lengthAdjust="spacing" textLength="55" x="642" y="719.499">siguiente</text></g><!--reverse link Actividad to ActividadAnalisis--><g id="link_Actividad_ActividadAnalisis"><path codeLine="74" d="M737.4894,538.1102 C728.7594,590.8302 709.45,704.752 702,723.602 C697.93,733.892 692.05,744.312 686.09,753.562 " fill="none" id="Actividad-backto-ActividadAnalisis" style="stroke:#181818;stroke-width:1.0;"/><polygon fill="none" points="740.43,520.352,731.57,537.13,743.4088,539.0904,740.43,520.352" style="stroke:#181818;stroke-width:1.0;"/></g><!--link ActividadAnalisis to ActividadDise?o--><g id="link_ActividadAnalisis_ActividadDise&#241;o"><path codeLine="75" d="M667.62,817.632 C670.15,832.572 673.66,850.652 678,866.602 C680.69,876.492 682.1934,881.4155 685.6634,890.9255 " fill="none" id="ActividadAnalisis-to-ActividadDise&#241;o" style="stroke:#181818;stroke-width:1.0;"/><polygon fill="#181818" points="687.72,896.562,688.3927,886.7361,686.0061,891.8649,680.8774,889.4783,687.72,896.562" style="stroke:#181818;stroke-width:1.0;"/><text fill="#000000" font-family="sans-serif" font-size="13" lengthAdjust="spacing" textLength="55" x="679" y="862.499">siguiente</text></g><!--reverse link Actividad to ActividadDise?o--><g id="link_Actividad_ActividadDise&#241;o"><path codeLine="76" d="M750.5667,538.1618 C759.7067,596.0618 776.88,740.212 739,866.602 C735.9,876.952 730.48,887.242 724.65,896.332 " fill="none" id="Actividad-backto-ActividadDise&#241;o" style="stroke:#181818;stroke-width:1.0;"/><polygon fill="none" points="747.76,520.382,744.6401,539.0974,756.4933,537.2262,747.76,520.382" style="stroke:#181818;stroke-width:1.0;"/></g><!--link ActividadDise?o to ActividadImplementacion--><g id="link_ActividadDise&#241;o_ActividadImplementacion"><path codeLine="77" d="M704.8,960.692 C708.98,987.812 714.1157,1021.0221 718.2957,1048.1321 " fill="none" id="ActividadDise&#241;o-to-ActividadImplementacion" style="stroke:#181818;stroke-width:1.0;"/><polygon fill="#181818" points="719.21,1054.062,721.7918,1044.5575,718.4481,1049.1204,713.8852,1045.7766,719.21,1054.062" style="stroke:#181818;stroke-width:1.0;"/><text fill="#000000" font-family="sans-serif" font-size="13" lengthAdjust="spacing" textLength="55" x="713" y="1005.499">siguiente</text></g><!--reverse link Actividad to ActividadImplementacion--><g id="link_Actividad_ActividadImplementacion"><path codeLine="78" d="M760.0546,536.8227 C771.0146,564.0827 781,596.072 781,639.602 C781,639.602 781,639.602 781,929.602 C781,965.222 787.64,975.932 776,1009.602 C770.54,1025.392 760.81,1040.932 751.23,1053.772 " fill="none" id="Actividad-backto-ActividadImplementacion" style="stroke:#181818;stroke-width:1.0;"/><polygon fill="none" points="753.34,520.122,754.4877,539.0609,765.6215,534.5845,753.34,520.122" style="stroke:#181818;stroke-width:1.0;"/></g><!--link ActividadImplementacion to ActividadPruebas--><g id="link_ActividadImplementacion_ActividadPruebas"><path codeLine="79" d="M732.25,1118.132 C738.58,1141.952 745.7389,1168.9133 752.0989,1192.8433 " fill="none" id="ActividadImplementacion-to-ActividadPruebas" style="stroke:#181818;stroke-width:1.0;"/><polygon fill="#181818" points="753.64,1198.642,755.1941,1188.9165,752.3557,1193.8097,747.4625,1190.9714,753.64,1198.642" style="stroke:#181818;stroke-width:1.0;"/><text fill="#000000" font-family="sans-serif" font-size="13" lengthAdjust="spacing" textLength="55" x="747" y="1164.999">siguiente</text></g><!--reverse link Actividad to ActividadPruebas--><g id="link_Actividad_ActividadPruebas"><path codeLine="80" d="M775.3802,534.0075 C797.3002,560.2075 818,592.882 818,639.602 C818,639.602 818,639.602 818,1087.102 C818,1123.682 824.6,1135.152 811,1169.102 C806.76,1179.692 800.02,1189.902 792.89,1198.842 " fill="none" id="Actividad-backto-ActividadPruebas" style="stroke:#181818;stroke-width:1.0;"/><polygon fill="none" points="763.83,520.202,770.7784,537.8576,779.9821,530.1574,763.83,520.202" style="stroke:#181818;stroke-width:1.0;"/></g><!--link Actividad to Miembro--><g id="link_Actividad_Miembro"><path codeLine="82" d="M709.66,502.282 C607.25,514.192 311,555.902 311,639.602 C311,639.602 311,639.602 311,929.602 C311,977.812 300.9721,1027.6233 293.8921,1057.5333 " fill="none" id="Actividad-to-Miembro" style="stroke:#181818;stroke-width:1.0;"/><polygon fill="#181818" points="292.51,1063.372,298.4755,1055.5354,293.6617,1058.5064,290.6907,1053.6926,292.51,1063.372" style="stroke:#181818;stroke-width:1.0;"/></g><!--link Miembro to Rol--><g id="link_Miembro_Rol"><path codeLine="83" d="M283.7015,1120.765 C281.0715,1147.645 278.3745,1175.2405 275.7345,1202.2105 " fill="none" id="Miembro-Rol" style="stroke:#181818;stroke-width:1.0;"/><polygon fill="#181818" points="284.87,1108.822,280.3047,1114.404,283.7015,1120.765,288.2667,1115.183,284.87,1108.822" style="stroke:#181818;stroke-width:1.0;"/><polygon fill="#181818" points="275.15,1208.182,280.0078,1199.6145,275.6371,1203.2058,272.0458,1198.8351,275.15,1208.182" style="stroke:#181818;stroke-width:1.0;"/></g><!--reverse link Rol to RolRequisitos--><g id="link_Rol_RolRequisitos"><path codeLine="84" d="M243.8273,1249.225 C211.7873,1268.035 146.32,1306.442 98.01,1334.802 " fill="none" id="Rol-backto-RolRequisitos" style="stroke:#181818;stroke-width:1.0;"/><polygon fill="none" points="259.35,1240.112,240.7897,1244.0508,246.865,1254.3992,259.35,1240.112" style="stroke:#181818;stroke-width:1.0;"/></g><!--reverse link Rol to RolAnalisis--><g id="link_Rol_RolAnalisis"><path codeLine="85" d="M247.437,1260.8903 C230.127,1280.3803 211.77,1301.052 189.55,1326.072 " fill="none" id="Rol-backto-RolAnalisis" style="stroke:#181818;stroke-width:1.0;"/><polygon fill="none" points="259.39,1247.432,242.9509,1256.906,251.9231,1264.8746,259.39,1247.432" style="stroke:#181818;stroke-width:1.0;"/></g><!--reverse link Rol to RolDise?o--><g id="link_Rol_RolDise&#241;o"><path codeLine="86" d="M266.3562,1271.623 C263.0162,1291.493 261.03,1303.332 257.27,1325.742 " fill="none" id="Rol-backto-RolDise&#241;o" style="stroke:#181818;stroke-width:1.0;"/><polygon fill="none" points="269.34,1253.872,260.4392,1270.6283,272.2732,1272.6176,269.34,1253.872" style="stroke:#181818;stroke-width:1.0;"/></g><!--reverse link Rol to RolImplementacion--><g id="link_Rol_RolImplementacion"><path codeLine="87" d="M297.7356,1263.6477 C313.1956,1283.3677 327.61,1301.762 346.55,1325.912 " fill="none" id="Rol-backto-RolImplementacion" style="stroke:#181818;stroke-width:1.0;"/><polygon fill="none" points="286.63,1249.482,293.0137,1267.3495,302.4574,1259.9458,286.63,1249.482" style="stroke:#181818;stroke-width:1.0;"/></g><!--reverse link Rol to RolPruebas--><g id="link_Rol_RolPruebas"><path codeLine="88" d="M302.6162,1247.3848 C332.0462,1262.6148 387.64,1291.832 446,1326.102 C451.99,1329.622 458.31,1333.492 464.35,1337.272 " fill="none" id="Rol-backto-RolPruebas" style="stroke:#181818;stroke-width:1.0;"/><polygon fill="none" points="286.63,1239.112,299.8586,1252.7136,305.3739,1242.0561,286.63,1239.112" style="stroke:#181818;stroke-width:1.0;"/></g><!--link ActividadRequisitos to RolRequisitos--><g id="link_ActividadRequisitos_RolRequisitos"><path codeLine="90" d="M581.28,649.692 C516.7,664.242 405,701.432 405,784.602 C405,784.602 405,784.602 405,1232.102 C405,1298.082 165.32,1307.252 115,1326.102 C109.35,1328.212 108.9453,1328.1266 103.3753,1330.9666 " fill="none" id="ActividadRequisitos-to-RolRequisitos" style="stroke:#181818;stroke-width:1.0;"/><polygon fill="#181818" points="98.03,1333.692,107.8649,1333.1674,102.4844,1331.4208,104.231,1326.0403,98.03,1333.692" style="stroke:#181818;stroke-width:1.0;"/><text fill="#000000" font-family="sans-serif" font-size="13" lengthAdjust="spacing" textLength="7" x="105.9467" y="1324.3699">*</text></g><!--link ActividadAnalisis to RolAnalisis--><g id="link_ActividadAnalisis_RolAnalisis"><path codeLine="91" d="M618.08,802.432 C568.92,822.962 497,863.892 497,927.602 C497,927.602 497,927.602 497,1232.102 C497,1360.212 261.26,1305.852 208,1326.102 C202.24,1328.292 201.5886,1328.1753 196.1986,1331.4953 " fill="none" id="ActividadAnalisis-to-RolAnalisis" style="stroke:#181818;stroke-width:1.0;"/><polygon fill="#181818" points="191.09,1334.642,200.8508,1333.3277,195.3472,1332.0197,196.6552,1326.5162,191.09,1334.642" style="stroke:#181818;stroke-width:1.0;"/><text fill="#000000" font-family="sans-serif" font-size="13" lengthAdjust="spacing" textLength="7" x="199.0338" y="1323.8182">*</text></g><!--link ActividadDise?o to RolDise?o--><g id="link_ActividadDise&#241;o_RolDise&#241;o"><path codeLine="92" d="M680.36,960.892 C670.23,977.492 657.96,998.372 648,1017.602 C585.61,1138.082 631.83,1215.092 523,1296.102 C441.01,1357.132 390,1288.402 295,1326.102 C289.18,1328.412 288.4109,1328.3516 283.0909,1331.9016 " fill="none" id="ActividadDise&#241;o-to-RolDise&#241;o" style="stroke:#181818;stroke-width:1.0;"/><polygon fill="#181818" points="278.1,1335.232,287.8065,1333.5637,282.259,1332.4567,283.366,1326.9092,278.1,1335.232" style="stroke:#181818;stroke-width:1.0;"/><text fill="#000000" font-family="sans-serif" font-size="13" lengthAdjust="spacing" textLength="7" x="286.055" y="1323.7749">*</text></g><!--link ActividadImplementacion to RolImplementacion--><g id="link_ActividadImplementacion_RolImplementacion"><path codeLine="93" d="M714.48,1118.292 C698.56,1164.862 661.92,1251.812 599,1296.102 C542.69,1335.732 512.96,1306.342 447,1326.102 C441.13,1327.862 440.7282,1327.85 434.7382,1330.03 " fill="none" id="ActividadImplementacion-to-RolImplementacion" style="stroke:#181818;stroke-width:1.0;"/><polygon fill="#181818" points="429.1,1332.082,438.9253,1332.7628,433.7985,1330.372,436.1893,1325.2452,429.1,1332.082" style="stroke:#181818;stroke-width:1.0;"/><text fill="#000000" font-family="sans-serif" font-size="13" lengthAdjust="spacing" textLength="7" x="436.9925" y="1324.5926">*</text></g><!--link ActividadPruebas to RolPruebas--><g id="link_ActividadPruebas_RolPruebas"><path codeLine="94" d="M723.73,1263.392 C708.57,1274.752 690.59,1287.022 673,1296.102 C623.95,1321.442 567.8902,1338.3666 531.5102,1347.9966 " fill="none" id="ActividadPruebas-to-RolPruebas" style="stroke:#181818;stroke-width:1.0;"/><polygon fill="#181818" points="525.71,1349.532,535.4339,1351.0958,530.5435,1348.2525,533.3868,1343.3621,525.71,1349.532" style="stroke:#181818;stroke-width:1.0;"/><text fill="#000000" font-family="sans-serif" font-size="13" lengthAdjust="spacing" textLength="7" x="533.6211" y="1342.5475">*</text></g><!--SRC=[ZLLBYjmm4Dth5CARm43d0CqGQFA1WGI68SjirBPc8kAMF98ToEymEKB84VfYaTNwL5cbq2lRzTuhbLv9vHVyiCp6xlczDOyl-Vj5EVvEMYtq8BypzbaDalVAzgEylBjPMcdcRvDaR1Bz5_4a-QDmql4Vh1-5ysh_5L_ljEgLuSBnRetoGNxIbrWN6Mz7SJHM-8Z6j0oS_-f4Vcsqc-tIr-o20Ff7AxHJDJd50_KNIxNwZOKwohu6vNerZKgBihitELO57kIpTq_DneNr2X1MBMXNAGzQZ1uZTGTz_Xt0MkRVvFcFeLGHgZLtfscK9wddulb62Xd0pSAwjuiy2hBO20LRaukYdzLNDOW1d953Ycs_DnxcUCF2Z2C7iQeoCCFGFwpPs9T1mZqiR9YNIT0xhAIiM_SxcUpQ1oLFHslYruCPozl6DnzfEEOHv5LYLYvv0FgJU1jdV9Zm994RRdWO-f3Oq85mMMzskrVWNeROxS_TBiuL5iVBoe9pPC-TUbgKNrO23M0mo0voD5dsb1mo6AA7173OaFg2CvQtTDaX62a5GLk7AHcuSa5UxX90mfhKQ6Bal0g9kfkEkeYq0XUUZnGej5rDOZCYGLt9_zYuYdHUhoeYabajhqjeSt41cwjmLHrOmvh9wggkLU8QqysxghX8PhMyBYTnMPbh8HjrfAXvZyuoTQ1QUVC1gTKe9t4yMYbJmoijIjXkTollfcMjJ6WLec6jz4GBrbJfln6VbzwjluzryeOCw0-2mjbS64psmDXcQn2gozgqVJr7k0IwbP5NDnos9vAg5X8UHsghAybvG8sXVm00]--></g></svg>