<?xml version="1.0" encoding="us-ascii" standalone="no"?><svg xmlns="http://www.w3.org/2000/svg" xmlns:xlink="http://www.w3.org/1999/xlink" contentStyleType="text/css" height="307px" preserveAspectRatio="none" style="width:1266px;height:307px;background:#FFFFFF;" version="1.1" viewBox="0 0 1266 307" width="1266px" zoomAndPan="magnify"><defs/><g><!--class Rol--><g id="elem_Rol"><rect codeLine="6" fill="#F1F1F1" height="45.0679" id="Rol" rx="2.5" ry="2.5" style="stroke:#181818;stroke-width:0.5;" width="27" x="562" y="7"/><text fill="#000000" font-family="sans-serif" font-size="14" lengthAdjust="spacing" textLength="21" x="565" y="26.9659">Rol</text><line style="stroke:#181818;stroke-width:0.5;" x1="563" x2="588" y1="36.0679" y2="36.0679"/><line style="stroke:#181818;stroke-width:0.5;" x1="563" x2="588" y1="44.0679" y2="44.0679"/></g><!--class RolRequisitos--><g id="elem_RolRequisitos"><rect codeLine="7" fill="#F1F1F1" height="64.1358" id="RolRequisitos" rx="2.5" ry="2.5" style="stroke:#181818;stroke-width:0.5;" width="76" x="285.5" y="112"/><text fill="#000000" font-family="sans-serif" font-size="14" lengthAdjust="spacing" textLength="42" x="302.5" y="131.9659">Rol de</text><text fill="#000000" font-family="sans-serif" font-size="14" lengthAdjust="spacing" textLength="70" x="288.5" y="151.0339">Requisitos</text><line style="stroke:#181818;stroke-width:0.5;" x1="286.5" x2="360.5" y1="160.1358" y2="160.1358"/><line style="stroke:#181818;stroke-width:0.5;" x1="286.5" x2="360.5" y1="168.1358" y2="168.1358"/></g><!--class RolAnalisis--><g id="elem_RolAnalisis"><rect codeLine="8" fill="#F1F1F1" height="64.1358" id="RolAnalisis" rx="2.5" ry="2.5" style="stroke:#181818;stroke-width:0.5;" width="58" x="546.5" y="112"/><text fill="#000000" font-family="sans-serif" font-size="14" lengthAdjust="spacing" textLength="42" x="554.5" y="131.9659">Rol de</text><text fill="#000000" font-family="sans-serif" font-size="14" lengthAdjust="spacing" textLength="52" x="549.5" y="151.0339">An&#225;lisis</text><line style="stroke:#181818;stroke-width:0.5;" x1="547.5" x2="603.5" y1="160.1358" y2="160.1358"/><line style="stroke:#181818;stroke-width:0.5;" x1="547.5" x2="603.5" y1="168.1358" y2="168.1358"/></g><!--class RolDise?o--><g id="elem_RolDise&#241;o"><rect codeLine="9" fill="#F1F1F1" height="64.1358" id="RolDise&#241;o" rx="2.5" ry="2.5" style="stroke:#181818;stroke-width:0.5;" width="52" x="459.5" y="112"/><text fill="#000000" font-family="sans-serif" font-size="14" lengthAdjust="spacing" textLength="42" x="464.5" y="131.9659">Rol de</text><text fill="#000000" font-family="sans-serif" font-size="14" lengthAdjust="spacing" textLength="46" x="462.5" y="151.0339">Dise&#241;o</text><line style="stroke:#181818;stroke-width:0.5;" x1="460.5" x2="510.5" y1="160.1358" y2="160.1358"/><line style="stroke:#181818;stroke-width:0.5;" x1="460.5" x2="510.5" y1="168.1358" y2="168.1358"/></g><!--class RolImplementacion--><g id="elem_RolImplementacion"><rect codeLine="10" fill="#F1F1F1" height="64.1358" id="RolImplementacion" rx="2.5" ry="2.5" style="stroke:#181818;stroke-width:0.5;" width="116" x="639.5" y="112"/><text fill="#000000" font-family="sans-serif" font-size="14" lengthAdjust="spacing" textLength="42" x="676.5" y="131.9659">Rol de</text><text fill="#000000" font-family="sans-serif" font-size="14" lengthAdjust="spacing" textLength="110" x="642.5" y="151.0339">Implementaci&#243;n</text><line style="stroke:#181818;stroke-width:0.5;" x1="640.5" x2="754.5" y1="160.1358" y2="160.1358"/><line style="stroke:#181818;stroke-width:0.5;" x1="640.5" x2="754.5" y1="168.1358" y2="168.1358"/></g><!--class RolPruebas--><g id="elem_RolPruebas"><rect codeLine="11" fill="#F1F1F1" height="64.1358" id="RolPruebas" rx="2.5" ry="2.5" style="stroke:#181818;stroke-width:0.5;" width="61" x="934" y="112"/><text fill="#000000" font-family="sans-serif" font-size="14" lengthAdjust="spacing" textLength="42" x="943.5" y="131.9659">Rol de</text><text fill="#000000" font-family="sans-serif" font-size="14" lengthAdjust="spacing" textLength="55" x="937" y="151.0339">Pruebas</text><line style="stroke:#181818;stroke-width:0.5;" x1="935" x2="994" y1="160.1358" y2="160.1358"/><line style="stroke:#181818;stroke-width:0.5;" x1="935" x2="994" y1="168.1358" y2="168.1358"/></g><!--class AnalistaSistemas--><g id="elem_AnalistaSistemas"><rect codeLine="13" fill="#F1F1F1" height="64.1358" id="AnalistaSistemas" rx="2.5" ry="2.5" style="stroke:#181818;stroke-width:0.5;" width="81" x="7" y="236"/><text fill="#000000" font-family="sans-serif" font-size="14" lengthAdjust="spacing" textLength="75" x="10" y="255.9659">Analista de</text><text fill="#000000" font-family="sans-serif" font-size="14" lengthAdjust="spacing" textLength="60" x="17.5" y="275.0339">Sistemas</text><line style="stroke:#181818;stroke-width:0.5;" x1="8" x2="87" y1="284.1358" y2="284.1358"/><line style="stroke:#181818;stroke-width:0.5;" x1="8" x2="87" y1="292.1358" y2="292.1358"/></g><!--class EspecificadorCasosUso--><g id="elem_EspecificadorCasosUso"><rect codeLine="14" fill="#F1F1F1" height="64.1358" id="EspecificadorCasosUso" rx="2.5" ry="2.5" style="stroke:#181818;stroke-width:0.5;" width="117" x="123" y="236"/><text fill="#000000" font-family="sans-serif" font-size="14" lengthAdjust="spacing" textLength="111" x="126" y="255.9659">Especificador de</text><text fill="#000000" font-family="sans-serif" font-size="14" lengthAdjust="spacing" textLength="89" x="137" y="275.0339">Casos de Uso</text><line style="stroke:#181818;stroke-width:0.5;" x1="124" x2="239" y1="284.1358" y2="284.1358"/><line style="stroke:#181818;stroke-width:0.5;" x1="124" x2="239" y1="292.1358" y2="292.1358"/></g><!--class Dise?adorInterfaz--><g id="elem_Dise&#241;adorInterfaz"><rect codeLine="15" fill="#F1F1F1" height="64.1358" id="Dise&#241;adorInterfaz" rx="2.5" ry="2.5" style="stroke:#181818;stroke-width:0.5;" width="96" x="275.5" y="236"/><text fill="#000000" font-family="sans-serif" font-size="14" lengthAdjust="spacing" textLength="90" x="278.5" y="255.9659">Dise&#241;ador de</text><text fill="#000000" font-family="sans-serif" font-size="14" lengthAdjust="spacing" textLength="53" x="297" y="275.0339">Interfaz</text><line style="stroke:#181818;stroke-width:0.5;" x1="276.5" x2="370.5" y1="284.1358" y2="284.1358"/><line style="stroke:#181818;stroke-width:0.5;" x1="276.5" x2="370.5" y1="292.1358" y2="292.1358"/></g><!--class IngenieuroCasosUso--><g id="elem_IngenieuroCasosUso"><rect codeLine="16" fill="#F1F1F1" height="64.1358" id="IngenieuroCasosUso" rx="2.5" ry="2.5" style="stroke:#181818;stroke-width:0.5;" width="95" x="518" y="236"/><text fill="#000000" font-family="sans-serif" font-size="14" lengthAdjust="spacing" textLength="87" x="522" y="255.9659">Ingeniero de</text><text fill="#000000" font-family="sans-serif" font-size="14" lengthAdjust="spacing" textLength="89" x="521" y="275.0339">Casos de Uso</text><line style="stroke:#181818;stroke-width:0.5;" x1="519" x2="612" y1="284.1358" y2="284.1358"/><line style="stroke:#181818;stroke-width:0.5;" x1="519" x2="612" y1="292.1358" y2="292.1358"/></g><!--class Arquitecto--><g id="elem_Arquitecto"><rect codeLine="17" fill="#F1F1F1" height="45.0679" id="Arquitecto" rx="2.5" ry="2.5" style="stroke:#181818;stroke-width:0.5;" width="76" x="406.5" y="245.5"/><text fill="#000000" font-family="sans-serif" font-size="14" lengthAdjust="spacing" textLength="70" x="409.5" y="265.4659">Arquitecto</text><line style="stroke:#181818;stroke-width:0.5;" x1="407.5" x2="481.5" y1="274.5679" y2="274.5679"/><line style="stroke:#181818;stroke-width:0.5;" x1="407.5" x2="481.5" y1="282.5679" y2="282.5679"/></g><!--class IngenieroComponentes--><g id="elem_IngenieroComponentes"><rect codeLine="18" fill="#F1F1F1" height="64.1358" id="IngenieroComponentes" rx="2.5" ry="2.5" style="stroke:#181818;stroke-width:0.5;" width="99" x="648" y="236"/><text fill="#000000" font-family="sans-serif" font-size="14" lengthAdjust="spacing" textLength="87" x="654" y="255.9659">Ingeniero de</text><text fill="#000000" font-family="sans-serif" font-size="14" lengthAdjust="spacing" textLength="93" x="651" y="275.0339">Componentes</text><line style="stroke:#181818;stroke-width:0.5;" x1="649" x2="746" y1="284.1358" y2="284.1358"/><line style="stroke:#181818;stroke-width:0.5;" x1="649" x2="746" y1="292.1358" y2="292.1358"/></g><!--class IntegradorSistemas--><g id="elem_IntegradorSistemas"><rect codeLine="19" fill="#F1F1F1" height="64.1358" id="IntegradorSistemas" rx="2.5" ry="2.5" style="stroke:#181818;stroke-width:0.5;" width="100" x="782.5" y="236"/><text fill="#000000" font-family="sans-serif" font-size="14" lengthAdjust="spacing" textLength="94" x="785.5" y="255.9659">Integrador de</text><text fill="#000000" font-family="sans-serif" font-size="14" lengthAdjust="spacing" textLength="60" x="802.5" y="275.0339">Sistemas</text><line style="stroke:#181818;stroke-width:0.5;" x1="783.5" x2="881.5" y1="284.1358" y2="284.1358"/><line style="stroke:#181818;stroke-width:0.5;" x1="783.5" x2="881.5" y1="292.1358" y2="292.1358"/></g><!--class IngenieuroPruebas--><g id="elem_IngenieuroPruebas"><rect codeLine="20" fill="#F1F1F1" height="64.1358" id="IngenieuroPruebas" rx="2.5" ry="2.5" style="stroke:#181818;stroke-width:0.5;" width="93" x="918" y="236"/><text fill="#000000" font-family="sans-serif" font-size="14" lengthAdjust="spacing" textLength="87" x="921" y="255.9659">Ingeniero de</text><text fill="#000000" font-family="sans-serif" font-size="14" lengthAdjust="spacing" textLength="55" x="937" y="275.0339">Pruebas</text><line style="stroke:#181818;stroke-width:0.5;" x1="919" x2="1010" y1="284.1358" y2="284.1358"/><line style="stroke:#181818;stroke-width:0.5;" x1="919" x2="1010" y1="292.1358" y2="292.1358"/></g><!--class ProbadorSistemas--><g id="elem_ProbadorSistemas"><rect codeLine="21" fill="#F1F1F1" height="64.1358" id="ProbadorSistemas" rx="2.5" ry="2.5" style="stroke:#181818;stroke-width:0.5;" width="89" x="1046" y="236"/><text fill="#000000" font-family="sans-serif" font-size="14" lengthAdjust="spacing" textLength="83" x="1049" y="255.9659">Probador de</text><text fill="#000000" font-family="sans-serif" font-size="14" lengthAdjust="spacing" textLength="60" x="1060.5" y="275.0339">Sistemas</text><line style="stroke:#181818;stroke-width:0.5;" x1="1047" x2="1134" y1="284.1358" y2="284.1358"/><line style="stroke:#181818;stroke-width:0.5;" x1="1047" x2="1134" y1="292.1358" y2="292.1358"/></g><!--class ProbadorIntegracion--><g id="elem_ProbadorIntegracion"><rect codeLine="22" fill="#F1F1F1" height="64.1358" id="ProbadorIntegracion" rx="2.5" ry="2.5" style="stroke:#181818;stroke-width:0.5;" width="89" x="1170" y="236"/><text fill="#000000" font-family="sans-serif" font-size="14" lengthAdjust="spacing" textLength="83" x="1173" y="255.9659">Probador de</text><text fill="#000000" font-family="sans-serif" font-size="14" lengthAdjust="spacing" textLength="78" x="1175.5" y="275.0339">Integraci&#243;n</text><line style="stroke:#181818;stroke-width:0.5;" x1="1171" x2="1258" y1="284.1358" y2="284.1358"/><line style="stroke:#181818;stroke-width:0.5;" x1="1171" x2="1258" y1="292.1358" y2="292.1358"/></g><!--reverse link Rol to RolRequisitos--><g id="link_Rol_RolRequisitos"><path codeLine="24" d="M545.5141,43.8891 C508.2041,60.5491 419.34,100.21 361.95,125.83 " fill="none" id="Rol-backto-RolRequisitos" style="stroke:#181818;stroke-width:1.0;"/><polygon fill="none" points="561.95,36.55,543.0678,38.4105,547.9605,49.3677,561.95,36.55" style="stroke:#181818;stroke-width:1.0;"/></g><!--reverse link Rol to RolAnalisis--><g id="link_Rol_RolAnalisis"><path codeLine="25" d="M575.5,70.19 C575.5,87.05 575.5,92.66 575.5,111.59 " fill="none" id="Rol-backto-RolAnalisis" style="stroke:#181818;stroke-width:1.0;"/><polygon fill="none" points="575.5,52.19,569.5,70.19,581.5,70.19,575.5,52.19" style="stroke:#181818;stroke-width:1.0;"/></g><!--reverse link Rol to RolDise?o--><g id="link_Rol_RolDise&#241;o"><path codeLine="26" d="M550.5845,61.6448 C537.0145,78.6048 527.14,90.95 510.55,111.69 " fill="none" id="Rol-backto-RolDise&#241;o" style="stroke:#181818;stroke-width:1.0;"/><polygon fill="none" points="561.83,47.59,545.8995,57.8963,555.2694,65.3933,561.83,47.59" style="stroke:#181818;stroke-width:1.0;"/></g><!--reverse link Rol to RolImplementacion--><g id="link_Rol_RolImplementacion"><path codeLine="27" d="M602.2521,55.1729 C620.1221,71.6529 638.98,89.04 663.64,111.77 " fill="none" id="Rol-backto-RolImplementacion" style="stroke:#181818;stroke-width:1.0;"/><polygon fill="none" points="589.02,42.97,598.1845,59.5836,606.3198,50.7622,589.02,42.97" style="stroke:#181818;stroke-width:1.0;"/></g><!--reverse link Rol to RolPruebas--><g id="link_Rol_RolPruebas"><path codeLine="28" d="M606.6311,39.5018 C662.4611,55.6518 854.56,111.2 933.83,134.13 " fill="none" id="Rol-backto-RolPruebas" style="stroke:#181818;stroke-width:1.0;"/><polygon fill="none" points="589.34,34.5,604.9638,45.2655,608.2984,33.7381,589.34,34.5" style="stroke:#181818;stroke-width:1.0;"/></g><!--reverse link RolRequisitos to AnalistaSistemas--><g id="link_RolRequisitos_AnalistaSistemas"><path codeLine="30" d="M268.4443,166.2506 C224.5243,183.4106 167.37,206.63 105.5,236 C99.83,238.69 93.91,241.66 88.13,244.66 " fill="none" id="RolRequisitos-backto-AnalistaSistemas" style="stroke:#181818;stroke-width:1.0;"/><polygon fill="none" points="285.21,159.7,266.2607,160.662,270.6278,171.8391,285.21,159.7" style="stroke:#181818;stroke-width:1.0;"/></g><!--reverse link RolRequisitos to EspecificadorCasosUso--><g id="link_RolRequisitos_EspecificadorCasosUso"><path codeLine="31" d="M273.6496,187.8332 C252.2896,206.1932 238.99,217.61 217.63,235.96 " fill="none" id="RolRequisitos-backto-EspecificadorCasosUso" style="stroke:#181818;stroke-width:1.0;"/><polygon fill="none" points="287.3,176.1,269.7386,183.2831,277.5607,192.3833,287.3,176.1" style="stroke:#181818;stroke-width:1.0;"/></g><!--reverse link RolRequisitos to Arquitecto--><g id="link_RolRequisitos_Arquitecto"><path codeLine="32" d="M367.0246,188.8811 C388.4446,210.4811 403.79,225.95 422.87,245.19 " fill="none" id="RolRequisitos-backto-Arquitecto" style="stroke:#181818;stroke-width:1.0;"/><polygon fill="none" points="354.35,176.1,362.7642,193.1059,371.2849,184.6562,354.35,176.1" style="stroke:#181818;stroke-width:1.0;"/></g><!--reverse link RolRequisitos to Dise?adorInterfaz--><g id="link_RolRequisitos_Dise&#241;adorInterfaz"><path codeLine="33" d="M323.5,194.1 C323.5,212.46 323.5,217.61 323.5,235.96 " fill="none" id="RolRequisitos-backto-Dise&#241;adorInterfaz" style="stroke:#181818;stroke-width:1.0;"/><polygon fill="none" points="323.5,176.1,317.5,194.1,329.5,194.1,323.5,176.1" style="stroke:#181818;stroke-width:1.0;"/></g><!--reverse link RolAnalisis to Arquitecto--><g id="link_RolAnalisis_Arquitecto"><path codeLine="35" d="M533.2566,184.3463 C509.5866,206.3863 489.78,224.83 467.82,245.28 " fill="none" id="RolAnalisis-backto-Arquitecto" style="stroke:#181818;stroke-width:1.0;"/><polygon fill="none" points="546.43,172.08,529.1678,179.9551,537.3453,188.7374,546.43,172.08" style="stroke:#181818;stroke-width:1.0;"/></g><!--reverse link RolAnalisis to IngenieuroCasosUso--><g id="link_RolAnalisis_IngenieuroCasosUso"><path codeLine="36" d="M571.4843,194.0402 C569.9843,212.4002 569.55,217.61 568.04,235.96 " fill="none" id="RolAnalisis-backto-IngenieuroCasosUso" style="stroke:#181818;stroke-width:1.0;"/><polygon fill="none" points="572.95,176.1,565.5042,193.5517,577.4644,194.5288,572.95,176.1" style="stroke:#181818;stroke-width:1.0;"/></g><!--reverse link RolAnalisis to IngenieroComponentes--><g id="link_RolAnalisis_IngenieroComponentes"><path codeLine="37" d="M617.4479,186.9479 C636.0579,205.5579 647.42,216.92 666.38,235.88 " fill="none" id="RolAnalisis-backto-IngenieroComponentes" style="stroke:#181818;stroke-width:1.0;"/><polygon fill="none" points="604.72,174.22,613.2053,191.1906,621.6906,182.7053,604.72,174.22" style="stroke:#181818;stroke-width:1.0;"/></g><!--reverse link RolImplementacion to Arquitecto--><g id="link_RolImplementacion_Arquitecto"><path codeLine="39" d="M622.7783,177.9283 C583.2883,195.5883 546.54,212.66 500.5,236 C494.65,238.96 488.53,242.21 482.56,245.45 " fill="none" id="RolImplementacion-backto-Arquitecto" style="stroke:#181818;stroke-width:1.0;"/><polygon fill="none" points="639.21,170.58,620.3288,172.4511,625.2277,183.4056,639.21,170.58" style="stroke:#181818;stroke-width:1.0;"/></g><!--reverse link RolImplementacion to IntegradorSistemas--><g id="link_RolImplementacion_IntegradorSistemas"><path codeLine="40" d="M745.2728,188.1708 C765.5828,206.5308 777.85,217.61 798.15,235.96 " fill="none" id="RolImplementacion-backto-IntegradorSistemas" style="stroke:#181818;stroke-width:1.0;"/><polygon fill="none" points="731.92,176.1,741.2492,192.6217,749.2964,183.7198,731.92,176.1" style="stroke:#181818;stroke-width:1.0;"/></g><!--reverse link RolImplementacion to IngenieroComponentes--><g id="link_RolImplementacion_IngenieroComponentes"><path codeLine="41" d="M697.5,194.1 C697.5,212.46 697.5,217.61 697.5,235.96 " fill="none" id="RolImplementacion-backto-IngenieroComponentes" style="stroke:#181818;stroke-width:1.0;"/><polygon fill="none" points="697.5,176.1,691.5,194.1,703.5,194.1,697.5,176.1" style="stroke:#181818;stroke-width:1.0;"/></g><!--reverse link RolPruebas to IngenieuroPruebas--><g id="link_RolPruebas_IngenieuroPruebas"><path codeLine="43" d="M964.5,194.1 C964.5,212.46 964.5,217.61 964.5,235.96 " fill="none" id="RolPruebas-backto-IngenieuroPruebas" style="stroke:#181818;stroke-width:1.0;"/><polygon fill="none" points="964.5,176.1,958.5,194.1,970.5,194.1,964.5,176.1" style="stroke:#181818;stroke-width:1.0;"/></g><!--reverse link RolPruebas to ProbadorSistemas--><g id="link_RolPruebas_ProbadorSistemas"><path codeLine="44" d="M1007.9296,187.053 C1027.0096,205.533 1038.64,216.79 1058.08,235.61 " fill="none" id="RolPruebas-backto-ProbadorSistemas" style="stroke:#181818;stroke-width:1.0;"/><polygon fill="none" points="995,174.53,1003.7553,191.3629,1012.1039,182.7431,995,174.53" style="stroke:#181818;stroke-width:1.0;"/></g><!--reverse link RolPruebas to ProbadorIntegracion--><g id="link_RolPruebas_ProbadorIntegracion"><path codeLine="45" d="M1011.3965,167.491 C1048.6565,185.381 1097.19,208.79 1152.5,236 C1158.12,238.76 1164.01,241.68 1169.83,244.58 " fill="none" id="RolPruebas-backto-ProbadorIntegracion" style="stroke:#181818;stroke-width:1.0;"/><polygon fill="none" points="995.17,159.7,1008.7995,172.8998,1013.9935,162.0822,995.17,159.7" style="stroke:#181818;stroke-width:1.0;"/></g><!--reverse link RolPruebas to IngenieroComponentes--><g id="link_RolPruebas_IngenieroComponentes"><path codeLine="46" d="M917.5838,166.2474 C878.3338,184.0274 824.48,208.48 764.5,236 C758.91,238.57 753.06,241.26 747.24,243.94 " fill="none" id="RolPruebas-backto-IngenieroComponentes" style="stroke:#181818;stroke-width:1.0;"/><polygon fill="none" points="933.98,158.82,915.108,160.782,920.0596,171.7127,933.98,158.82" style="stroke:#181818;stroke-width:1.0;"/></g><!--reverse link RolDise?o to Arquitecto--><g id="link_RolDise&#241;o_Arquitecto"><path codeLine="48" d="M469.3153,193.162 C462.0553,214.762 458.29,225.95 451.83,245.19 " fill="none" id="RolDise&#241;o-backto-Arquitecto" style="stroke:#181818;stroke-width:1.0;"/><polygon fill="none" points="475.05,176.1,463.6279,191.2504,475.0026,195.0736,475.05,176.1" style="stroke:#181818;stroke-width:1.0;"/></g><!--reverse link RolDise?o to IngenieuroCasosUso--><g id="link_RolDise&#241;o_IngenieuroCasosUso"><path codeLine="49" d="M515.7608,191.1522 C527.8008,209.5122 533.11,217.61 545.14,235.96 " fill="none" id="RolDise&#241;o-backto-IngenieuroCasosUso" style="stroke:#181818;stroke-width:1.0;"/><polygon fill="none" points="505.89,176.1,510.7434,194.4424,520.7782,187.8619,505.89,176.1" style="stroke:#181818;stroke-width:1.0;"/></g><!--reverse link RolDise?o to IngenieroComponentes--><g id="link_RolDise&#241;o_IngenieroComponentes"><path codeLine="50" d="M526.1759,174.992 C531.6959,178.912 522.88,172.48 528.5,176 C567.48,200.4 613.54,224.94 647.73,242.37 " fill="none" id="RolDise&#241;o-backto-IngenieroComponentes" style="stroke:#181818;stroke-width:1.0;"/><polygon fill="none" points="511.5,164.57,522.7019,179.884,529.6499,170.1,511.5,164.57" style="stroke:#181818;stroke-width:1.0;"/></g><!--SRC=[TLHBJiCm4Dtd55OthCe149k8ZrI9HLN4ZesRJ8kbn1DiPq75PJW2uWYv6AvZnvx4sRJHUs_cpTWlkM5bRr3TiRt2qorxwOLcpw0abpLSYk93rC0geQe6ncTjG06QhmwAecgurko03UEQRUp_9a87-BIjX44TI5R3kunmeYqbRon8bQKSVXoQ21-5Xk4NYSvZYMhNTWsq80sl14eYJgdXJoP5UzN3aTCHFBO9cuvp6lvgVw3ruW2wYi24na-wWqgSHCLhL0zSetxJu_Y4SRMEja_CIaBzkDnLifFsu4_yueeZF6xbkL2rasUG0dg5nDB32bVjIcLlnq1ba7QoZR3jKDg30vth5TauWu6pkev8JYl2sVEAawVtGSscMnbBR6wF2vi0Paq2wMUPGaAA9jB5fBX6ulvxkwNH9d18CG5zEWb6yqaelvlpIzuWHy_JbzDayvPj5cywmovZvoQQtjDC2yej4xYg8TboDhFtDsEMKom3jwvSCGwPcwqGBcMkc2TlLP04RSrcEKpurcNM9rJ-g7CIul4F]--></g></svg>