<?xml version="1.0" encoding="us-ascii" standalone="no"?><svg xmlns="http://www.w3.org/2000/svg" xmlns:xlink="http://www.w3.org/1999/xlink" contentStyleType="text/css" height="339px" preserveAspectRatio="none" style="width:1107px;height:339px;background:#FFFFFF;" version="1.1" viewBox="0 0 1107 339" width="1107px" zoomAndPan="magnify"><defs/><g><!--class Role--><g id="elem_Role"><rect codeLine="6" fill="#F1F1F1" height="45.0679" id="Role" rx="2.5" ry="2.5" style="stroke:#181818;stroke-width:0.5;" width="35" x="473" y="7"/><text fill="#000000" font-family="sans-serif" font-size="14" lengthAdjust="spacing" textLength="29" x="476" y="26.9659">Role</text><line style="stroke:#181818;stroke-width:0.5;" x1="474" x2="507" y1="36.0679" y2="36.0679"/><line style="stroke:#181818;stroke-width:0.5;" x1="474" x2="507" y1="44.0679" y2="44.0679"/></g><!--class RequirementRole--><g id="elem_RequirementRole"><rect codeLine="7" fill="#F1F1F1" height="80.4799" id="RequirementRole" rx="2.5" ry="2.5" style="stroke:#181818;stroke-width:0.5;" width="94" x="232.5" y="112"/><text fill="#000000" font-family="sans-serif" font-size="12" font-style="italic" lengthAdjust="spacing" textLength="79" x="240" y="129.8281">&#171;requirement&#187;</text><text fill="#000000" font-family="sans-serif" font-size="14" lengthAdjust="spacing" textLength="88" x="235.5" y="148.31">Requirement</text><text fill="#000000" font-family="sans-serif" font-size="14" lengthAdjust="spacing" textLength="29" x="265" y="167.378">Role</text><line style="stroke:#181818;stroke-width:0.5;" x1="233.5" x2="325.5" y1="176.4799" y2="176.4799"/><line style="stroke:#181818;stroke-width:0.5;" x1="233.5" x2="325.5" y1="184.4799" y2="184.4799"/></g><!--class AnalysisRole--><g id="elem_AnalysisRole"><rect codeLine="8" fill="#F1F1F1" height="80.4799" id="AnalysisRole" rx="2.5" ry="2.5" style="stroke:#181818;stroke-width:0.5;" width="61" x="460" y="112"/><text fill="#000000" font-family="sans-serif" font-size="12" font-style="italic" lengthAdjust="spacing" textLength="55" x="463" y="129.8281">&#171;analysis&#187;</text><text fill="#000000" font-family="sans-serif" font-size="14" lengthAdjust="spacing" textLength="55" x="463" y="148.31">Analysis</text><text fill="#000000" font-family="sans-serif" font-size="14" lengthAdjust="spacing" textLength="29" x="476" y="167.378">Role</text><line style="stroke:#181818;stroke-width:0.5;" x1="461" x2="520" y1="176.4799" y2="176.4799"/><line style="stroke:#181818;stroke-width:0.5;" x1="461" x2="520" y1="184.4799" y2="184.4799"/></g><!--class DesignRole--><g id="elem_DesignRole"><rect codeLine="9" fill="#F1F1F1" height="80.4799" id="DesignRole" rx="2.5" ry="2.5" style="stroke:#181818;stroke-width:0.5;" width="53" x="372" y="112"/><text fill="#000000" font-family="sans-serif" font-size="12" font-style="italic" lengthAdjust="spacing" textLength="47" x="375" y="129.8281">&#171;design&#187;</text><text fill="#000000" font-family="sans-serif" font-size="14" lengthAdjust="spacing" textLength="47" x="375" y="148.31">Design</text><text fill="#000000" font-family="sans-serif" font-size="14" lengthAdjust="spacing" textLength="29" x="384" y="167.378">Role</text><line style="stroke:#181818;stroke-width:0.5;" x1="373" x2="424" y1="176.4799" y2="176.4799"/><line style="stroke:#181818;stroke-width:0.5;" x1="373" x2="424" y1="184.4799" y2="184.4799"/></g><!--class ImplementRole--><g id="elem_ImplementRole"><rect codeLine="10" fill="#F1F1F1" height="80.4799" id="ImplementRole" rx="2.5" ry="2.5" style="stroke:#181818;stroke-width:0.5;" width="114" x="556.5" y="112"/><text fill="#000000" font-family="sans-serif" font-size="12" font-style="italic" lengthAdjust="spacing" textLength="98" x="564.5" y="129.8281">&#171;implementation&#187;</text><text fill="#000000" font-family="sans-serif" font-size="14" lengthAdjust="spacing" textLength="108" x="559.5" y="148.31">Implementation</text><text fill="#000000" font-family="sans-serif" font-size="14" lengthAdjust="spacing" textLength="29" x="599" y="167.378">Role</text><line style="stroke:#181818;stroke-width:0.5;" x1="557.5" x2="669.5" y1="176.4799" y2="176.4799"/><line style="stroke:#181818;stroke-width:0.5;" x1="557.5" x2="669.5" y1="184.4799" y2="184.4799"/></g><!--class TestRole--><g id="elem_TestRole"><rect codeLine="11" fill="#F1F1F1" height="80.4799" id="TestRole" rx="2.5" ry="2.5" style="stroke:#181818;stroke-width:0.5;" width="35" x="830" y="112"/><text fill="#000000" font-family="sans-serif" font-size="12" font-style="italic" lengthAdjust="spacing" textLength="31" x="832" y="129.8281">&#171;test&#187;</text><text fill="#000000" font-family="sans-serif" font-size="14" lengthAdjust="spacing" textLength="28" x="833.5" y="148.31">Test</text><text fill="#000000" font-family="sans-serif" font-size="14" lengthAdjust="spacing" textLength="29" x="833" y="167.378">Role</text><line style="stroke:#181818;stroke-width:0.5;" x1="831" x2="864" y1="176.4799" y2="176.4799"/><line style="stroke:#181818;stroke-width:0.5;" x1="831" x2="864" y1="184.4799" y2="184.4799"/></g><!--class SystemsAnalyst--><g id="elem_SystemsAnalyst"><rect codeLine="13" fill="#F1F1F1" height="80.4799" id="SystemsAnalyst" rx="2.5" ry="2.5" style="stroke:#181818;stroke-width:0.5;" width="81" x="7" y="252"/><text fill="#000000" font-family="sans-serif" font-size="12" font-style="italic" lengthAdjust="spacing" textLength="79" x="8" y="269.8281">&#171;requirement&#187;</text><text fill="#000000" font-family="sans-serif" font-size="14" lengthAdjust="spacing" textLength="55" x="20" y="288.31">Systems</text><text fill="#000000" font-family="sans-serif" font-size="14" lengthAdjust="spacing" textLength="49" x="23" y="307.378">Analyst</text><line style="stroke:#181818;stroke-width:0.5;" x1="8" x2="87" y1="316.4799" y2="316.4799"/><line style="stroke:#181818;stroke-width:0.5;" x1="8" x2="87" y1="324.4799" y2="324.4799"/></g><!--class UseCaseSpecifier--><g id="elem_UseCaseSpecifier"><rect codeLine="14" fill="#F1F1F1" height="80.4799" id="UseCaseSpecifier" rx="2.5" ry="2.5" style="stroke:#181818;stroke-width:0.5;" width="81" x="123" y="252"/><text fill="#000000" font-family="sans-serif" font-size="12" font-style="italic" lengthAdjust="spacing" textLength="79" x="124" y="269.8281">&#171;requirement&#187;</text><text fill="#000000" font-family="sans-serif" font-size="14" lengthAdjust="spacing" textLength="61" x="133" y="288.31">Use Case</text><text fill="#000000" font-family="sans-serif" font-size="14" lengthAdjust="spacing" textLength="59" x="134" y="307.378">Specifier</text><line style="stroke:#181818;stroke-width:0.5;" x1="124" x2="203" y1="316.4799" y2="316.4799"/><line style="stroke:#181818;stroke-width:0.5;" x1="124" x2="203" y1="324.4799" y2="324.4799"/></g><!--class InterfaceDesigner--><g id="elem_InterfaceDesigner"><rect codeLine="15" fill="#F1F1F1" height="80.4799" id="InterfaceDesigner" rx="2.5" ry="2.5" style="stroke:#181818;stroke-width:0.5;" width="81" x="239" y="252"/><text fill="#000000" font-family="sans-serif" font-size="12" font-style="italic" lengthAdjust="spacing" textLength="79" x="240" y="269.8281">&#171;requirement&#187;</text><text fill="#000000" font-family="sans-serif" font-size="14" lengthAdjust="spacing" textLength="61" x="249" y="288.31">Interface</text><text fill="#000000" font-family="sans-serif" font-size="14" lengthAdjust="spacing" textLength="61" x="249" y="307.378">Designer</text><line style="stroke:#181818;stroke-width:0.5;" x1="240" x2="319" y1="316.4799" y2="316.4799"/><line style="stroke:#181818;stroke-width:0.5;" x1="240" x2="319" y1="324.4799" y2="324.4799"/></g><!--class UseCaseEngineer--><g id="elem_UseCaseEngineer"><rect codeLine="16" fill="#F1F1F1" height="80.4799" id="UseCaseEngineer" rx="2.5" ry="2.5" style="stroke:#181818;stroke-width:0.5;" width="67" x="457" y="252"/><text fill="#000000" font-family="sans-serif" font-size="12" font-style="italic" lengthAdjust="spacing" textLength="50" x="465.5" y="269.8281">&#171;several&#187;</text><text fill="#000000" font-family="sans-serif" font-size="14" lengthAdjust="spacing" textLength="61" x="460" y="288.31">Use Case</text><text fill="#000000" font-family="sans-serif" font-size="14" lengthAdjust="spacing" textLength="61" x="460" y="307.378">Engineer</text><line style="stroke:#181818;stroke-width:0.5;" x1="458" x2="523" y1="316.4799" y2="316.4799"/><line style="stroke:#181818;stroke-width:0.5;" x1="458" x2="523" y1="324.4799" y2="324.4799"/></g><!--class Architect--><g id="elem_Architect"><rect codeLine="17" fill="#F1F1F1" height="61.412" id="Architect" rx="2.5" ry="2.5" style="stroke:#181818;stroke-width:0.5;" width="66" x="355.5" y="261.5"/><text fill="#000000" font-family="sans-serif" font-size="12" font-style="italic" lengthAdjust="spacing" textLength="50" x="363.5" y="279.3281">&#171;several&#187;</text><text fill="#000000" font-family="sans-serif" font-size="14" lengthAdjust="spacing" textLength="60" x="358.5" y="297.81">Architect</text><line style="stroke:#181818;stroke-width:0.5;" x1="356.5" x2="420.5" y1="306.912" y2="306.912"/><line style="stroke:#181818;stroke-width:0.5;" x1="356.5" x2="420.5" y1="314.912" y2="314.912"/></g><!--class ComponentEngineer--><g id="elem_ComponentEngineer"><rect codeLine="18" fill="#F1F1F1" height="80.4799" id="ComponentEngineer" rx="2.5" ry="2.5" style="stroke:#181818;stroke-width:0.5;" width="84" x="559.5" y="252"/><text fill="#000000" font-family="sans-serif" font-size="12" font-style="italic" lengthAdjust="spacing" textLength="50" x="576.5" y="269.8281">&#171;several&#187;</text><text fill="#000000" font-family="sans-serif" font-size="14" lengthAdjust="spacing" textLength="78" x="562.5" y="288.31">Component</text><text fill="#000000" font-family="sans-serif" font-size="14" lengthAdjust="spacing" textLength="61" x="571" y="307.378">Engineer</text><line style="stroke:#181818;stroke-width:0.5;" x1="560.5" x2="642.5" y1="316.4799" y2="316.4799"/><line style="stroke:#181818;stroke-width:0.5;" x1="560.5" x2="642.5" y1="324.4799" y2="324.4799"/></g><!--class SystemIntegrator--><g id="elem_SystemIntegrator"><rect codeLine="19" fill="#F1F1F1" height="80.4799" id="SystemIntegrator" rx="2.5" ry="2.5" style="stroke:#181818;stroke-width:0.5;" width="100" x="678.5" y="252"/><text fill="#000000" font-family="sans-serif" font-size="12" font-style="italic" lengthAdjust="spacing" textLength="98" x="679.5" y="269.8281">&#171;implementation&#187;</text><text fill="#000000" font-family="sans-serif" font-size="14" lengthAdjust="spacing" textLength="48" x="704.5" y="288.31">System</text><text fill="#000000" font-family="sans-serif" font-size="14" lengthAdjust="spacing" textLength="69" x="694" y="307.378">Integrator</text><line style="stroke:#181818;stroke-width:0.5;" x1="679.5" x2="777.5" y1="316.4799" y2="316.4799"/><line style="stroke:#181818;stroke-width:0.5;" x1="679.5" x2="777.5" y1="324.4799" y2="324.4799"/></g><!--class TestEngineer--><g id="elem_TestEngineer"><rect codeLine="20" fill="#F1F1F1" height="80.4799" id="TestEngineer" rx="2.5" ry="2.5" style="stroke:#181818;stroke-width:0.5;" width="67" x="814" y="252"/><text fill="#000000" font-family="sans-serif" font-size="12" font-style="italic" lengthAdjust="spacing" textLength="31" x="832" y="269.8281">&#171;test&#187;</text><text fill="#000000" font-family="sans-serif" font-size="14" lengthAdjust="spacing" textLength="28" x="833.5" y="288.31">Test</text><text fill="#000000" font-family="sans-serif" font-size="14" lengthAdjust="spacing" textLength="61" x="817" y="307.378">Engineer</text><line style="stroke:#181818;stroke-width:0.5;" x1="815" x2="880" y1="316.4799" y2="316.4799"/><line style="stroke:#181818;stroke-width:0.5;" x1="815" x2="880" y1="324.4799" y2="324.4799"/></g><!--class SystemTester--><g id="elem_SystemTester"><rect codeLine="21" fill="#F1F1F1" height="80.4799" id="SystemTester" rx="2.5" ry="2.5" style="stroke:#181818;stroke-width:0.5;" width="67" x="916" y="252"/><text fill="#000000" font-family="sans-serif" font-size="12" font-style="italic" lengthAdjust="spacing" textLength="31" x="934" y="269.8281">&#171;test&#187;</text><text fill="#000000" font-family="sans-serif" font-size="14" lengthAdjust="spacing" textLength="48" x="925.5" y="288.31">System</text><text fill="#000000" font-family="sans-serif" font-size="14" lengthAdjust="spacing" textLength="61" x="919" y="307.378">Engineer</text><line style="stroke:#181818;stroke-width:0.5;" x1="917" x2="982" y1="316.4799" y2="316.4799"/><line style="stroke:#181818;stroke-width:0.5;" x1="917" x2="982" y1="324.4799" y2="324.4799"/></g><!--class IntegrationTester--><g id="elem_IntegrationTester"><rect codeLine="22" fill="#F1F1F1" height="80.4799" id="IntegrationTester" rx="2.5" ry="2.5" style="stroke:#181818;stroke-width:0.5;" width="82" x="1018.5" y="252"/><text fill="#000000" font-family="sans-serif" font-size="12" font-style="italic" lengthAdjust="spacing" textLength="31" x="1044" y="269.8281">&#171;test&#187;</text><text fill="#000000" font-family="sans-serif" font-size="14" lengthAdjust="spacing" textLength="76" x="1021.5" y="288.31">Integration</text><text fill="#000000" font-family="sans-serif" font-size="14" lengthAdjust="spacing" textLength="42" x="1038.5" y="307.378">Tester</text><line style="stroke:#181818;stroke-width:0.5;" x1="1019.5" x2="1099.5" y1="316.4799" y2="316.4799"/><line style="stroke:#181818;stroke-width:0.5;" x1="1019.5" x2="1099.5" y1="324.4799" y2="324.4799"/></g><!--reverse link Role to RequirementRole--><g id="link_Role_RequirementRole"><path codeLine="24" d="M457.2383,49.4947 C425.4483,67.6447 373.14,97.52 326.88,123.94 " fill="none" id="Role-backto-RequirementRole" style="stroke:#181818;stroke-width:1.0;"/><polygon fill="none" points="472.87,40.57,454.2634,44.2841,460.2132,54.7052,472.87,40.57" style="stroke:#181818;stroke-width:1.0;"/></g><!--reverse link Role to AnalysisRole--><g id="link_Role_AnalysisRole"><path codeLine="25" d="M490.5,70.04 C490.5,86.56 490.5,91.81 490.5,111.62 " fill="none" id="Role-backto-AnalysisRole" style="stroke:#181818;stroke-width:1.0;"/><polygon fill="none" points="490.5,52.04,484.5,70.04,496.5,70.04,490.5,52.04" style="stroke:#181818;stroke-width:1.0;"/></g><!--reverse link Role to DesignRole--><g id="link_Role_DesignRole"><path codeLine="26" d="M463.1291,66.3485 C449.5891,84.0885 441.04,95.28 425.26,115.95 " fill="none" id="Role-backto-DesignRole" style="stroke:#181818;stroke-width:1.0;"/><polygon fill="none" points="474.05,52.04,458.3596,62.7082,467.8986,69.9888,474.05,52.04" style="stroke:#181818;stroke-width:1.0;"/></g><!--reverse link Role to ImplementRole--><g id="link_Role_ImplementRole"><path codeLine="27" d="M520.9795,60.3549 C537.9895,77.0149 551.47,90.23 573.57,111.88 " fill="none" id="Role-backto-ImplementRole" style="stroke:#181818;stroke-width:1.0;"/><polygon fill="none" points="508.12,47.76,516.7812,64.6414,525.1778,56.0684,508.12,47.76" style="stroke:#181818;stroke-width:1.0;"/></g><!--reverse link Role to TestRole--><g id="link_Role_TestRole"><path codeLine="28" d="M525.2551,42.2352 C586.0351,62.7452 768.75,124.42 829.69,144.99 " fill="none" id="Role-backto-TestRole" style="stroke:#181818;stroke-width:1.0;"/><polygon fill="none" points="508.2,36.48,523.3367,47.9202,527.1735,36.5502,508.2,36.48" style="stroke:#181818;stroke-width:1.0;"/></g><!--reverse link RequirementRole to SystemsAnalyst--><g id="link_RequirementRole_SystemsAnalyst"><path codeLine="30" d="M216.6535,187.2243 C181.3235,206.6843 147.75,225.83 105.5,252 C99.83,255.51 93.91,259.32 88.13,263.13 " fill="none" id="RequirementRole-backto-SystemsAnalyst" style="stroke:#181818;stroke-width:1.0;"/><polygon fill="none" points="232.42,178.54,213.7587,181.9688,219.5483,192.4798,232.42,178.54" style="stroke:#181818;stroke-width:1.0;"/></g><!--reverse link RequirementRole to UseCaseSpecifier--><g id="link_RequirementRole_UseCaseSpecifier"><path codeLine="31" d="M234.9872,205.9582 C219.3172,224.5982 212.2,233.07 196.51,251.73 " fill="none" id="RequirementRole-backto-UseCaseSpecifier" style="stroke:#181818;stroke-width:1.0;"/><polygon fill="none" points="246.57,192.18,230.3944,202.0972,239.5799,209.8191,246.57,192.18" style="stroke:#181818;stroke-width:1.0;"/></g><!--reverse link RequirementRole to Architect--><g id="link_RequirementRole_Architect"><path codeLine="32" d="M321.5973,206.3049 C338.9673,228.2949 349.14,241.17 365.11,261.38 " fill="none" id="RequirementRole-backto-Architect" style="stroke:#181818;stroke-width:1.0;"/><polygon fill="none" points="310.44,192.18,316.889,210.024,326.3057,202.5858,310.44,192.18" style="stroke:#181818;stroke-width:1.0;"/></g><!--reverse link RequirementRole to InterfaceDesigner--><g id="link_RequirementRole_InterfaceDesigner"><path codeLine="33" d="M279.5,210.18 C279.5,228.82 279.5,233.07 279.5,251.73 " fill="none" id="RequirementRole-backto-InterfaceDesigner" style="stroke:#181818;stroke-width:1.0;"/><polygon fill="none" points="279.5,192.18,273.5,210.18,285.5,210.18,279.5,192.18" style="stroke:#181818;stroke-width:1.0;"/></g><!--reverse link AnalysisRole to Architect--><g id="link_AnalysisRole_Architect"><path codeLine="35" d="M450.8424,206.6563 C434.5924,228.6463 425.33,241.17 410.39,261.38 " fill="none" id="AnalysisRole-backto-Architect" style="stroke:#181818;stroke-width:1.0;"/><polygon fill="none" points="461.54,192.18,446.017,203.0904,455.6679,210.2221,461.54,192.18" style="stroke:#181818;stroke-width:1.0;"/></g><!--reverse link AnalysisRole to UseCaseEngineer--><g id="link_AnalysisRole_UseCaseEngineer"><path codeLine="36" d="M490.5,210.18 C490.5,228.82 490.5,233.07 490.5,251.73 " fill="none" id="AnalysisRole-backto-UseCaseEngineer" style="stroke:#181818;stroke-width:1.0;"/><polygon fill="none" points="490.5,192.18,484.5,210.18,496.5,210.18,490.5,192.18" style="stroke:#181818;stroke-width:1.0;"/></g><!--reverse link AnalysisRole to ComponentEngineer--><g id="link_AnalysisRole_ComponentEngineer"><path codeLine="37" d="M532.409,205.098 C547.549,223.928 554.53,232.6 569.81,251.61 " fill="none" id="AnalysisRole-backto-ComponentEngineer" style="stroke:#181818;stroke-width:1.0;"/><polygon fill="none" points="521.13,191.07,527.733,208.8576,537.085,201.3383,521.13,191.07" style="stroke:#181818;stroke-width:1.0;"/></g><!--reverse link ImplementRole to Architect--><g id="link_ImplementRole_Architect"><path codeLine="39" d="M540.4869,191.5708 C505.9669,210.2908 477.31,226.95 439.5,252 C433.65,255.88 427.58,260.21 421.77,264.54 " fill="none" id="ImplementRole-backto-Architect" style="stroke:#181818;stroke-width:1.0;"/><polygon fill="none" points="556.31,182.99,537.6266,186.2964,543.3472,196.8451,556.31,182.99" style="stroke:#181818;stroke-width:1.0;"/></g><!--reverse link ImplementRole to SystemIntegrator--><g id="link_ImplementRole_SystemIntegrator"><path codeLine="40" d="M657.6762,206.0056 C673.2162,224.6456 680.22,233.07 695.77,251.73 " fill="none" id="ImplementRole-backto-SystemIntegrator" style="stroke:#181818;stroke-width:1.0;"/><polygon fill="none" points="646.15,192.18,653.0677,209.8476,662.2848,202.1635,646.15,192.18" style="stroke:#181818;stroke-width:1.0;"/></g><!--reverse link ImplementRole to ComponentEngineer--><g id="link_ImplementRole_ComponentEngineer"><path codeLine="41" d="M608.5315,210.1124 C606.9115,228.7524 606.54,233.07 604.92,251.73 " fill="none" id="ImplementRole-backto-ComponentEngineer" style="stroke:#181818;stroke-width:1.0;"/><polygon fill="none" points="610.09,192.18,602.554,209.5929,614.509,210.6319,610.09,192.18" style="stroke:#181818;stroke-width:1.0;"/></g><!--reverse link TestRole to TestEngineer--><g id="link_TestRole_TestEngineer"><path codeLine="43" d="M847.5,210.18 C847.5,228.82 847.5,233.07 847.5,251.73 " fill="none" id="TestRole-backto-TestEngineer" style="stroke:#181818;stroke-width:1.0;"/><polygon fill="none" points="847.5,192.18,841.5,210.18,853.5,210.18,847.5,192.18" style="stroke:#181818;stroke-width:1.0;"/></g><!--reverse link TestRole to SystemTester--><g id="link_TestRole_SystemTester"><path codeLine="44" d="M875.7288,191.1953 C890.9988,211.8553 902.73,227.72 920.64,251.95 " fill="none" id="TestRole-backto-SystemTester" style="stroke:#181818;stroke-width:1.0;"/><polygon fill="none" points="865.03,176.72,870.9037,194.7616,880.5539,187.629,865.03,176.72" style="stroke:#181818;stroke-width:1.0;"/></g><!--reverse link TestRole to IntegrationTester--><g id="link_TestRole_IntegrationTester"><path codeLine="45" d="M880.5809,174.2642 C909.2009,192.6642 951.78,220.14 1000.5,252 C1006.25,255.76 1012.31,259.75 1018.27,263.67 " fill="none" id="TestRole-backto-IntegrationTester" style="stroke:#181818;stroke-width:1.0;"/><polygon fill="none" points="865.44,164.53,877.3361,179.3111,883.8256,169.2172,865.44,164.53" style="stroke:#181818;stroke-width:1.0;"/></g><!--reverse link TestRole to ComponentEngineer--><g id="link_TestRole_ComponentEngineer"><path codeLine="46" d="M813.7772,169.553 C780.2672,186.083 721.31,215.92 660.5,252 C655.01,255.26 649.31,258.8 643.73,262.38 " fill="none" id="TestRole-backto-ComponentEngineer" style="stroke:#181818;stroke-width:1.0;"/><polygon fill="none" points="829.92,161.59,811.1228,164.1721,816.4315,174.934,829.92,161.59" style="stroke:#181818;stroke-width:1.0;"/></g><!--reverse link DesignRole to Architect--><g id="link_DesignRole_Architect"><path codeLine="48" d="M394.3619,210.1331 C392.7719,232.1231 392.11,241.17 390.65,261.38 " fill="none" id="DesignRole-backto-Architect" style="stroke:#181818;stroke-width:1.0;"/><polygon fill="none" points="395.66,192.18,388.3775,209.7004,400.3463,210.5658,395.66,192.18" style="stroke:#181818;stroke-width:1.0;"/></g><!--reverse link DesignRole to UseCaseEngineer--><g id="link_DesignRole_UseCaseEngineer"><path codeLine="49" d="M434.6065,207.1557 C447.0365,225.7957 451.88,233.07 464.32,251.73 " fill="none" id="DesignRole-backto-UseCaseEngineer" style="stroke:#181818;stroke-width:1.0;"/><polygon fill="none" points="424.62,192.18,429.6146,210.4845,439.5983,203.8268,424.62,192.18" style="stroke:#181818;stroke-width:1.0;"/></g><!--reverse link DesignRole to ComponentEngineer--><g id="link_DesignRole_ComponentEngineer"><path codeLine="50" d="M438.9257,189.915 C444.4557,194.705 436.75,187.76 442.5,192 C483.92,222.52 497.93,224.64 541.5,252 C547.29,255.63 553.36,259.51 559.32,263.35 " fill="none" id="DesignRole-backto-ComponentEngineer" style="stroke:#181818;stroke-width:1.0;"/><polygon fill="none" points="425.32,178.13,434.9973,194.4502,442.854,185.3798,425.32,178.13" style="stroke:#181818;stroke-width:1.0;"/></g><!--SRC=[XLH1RiCW4Bpp2fHBJ-a3gYXIbBPIf1wgfhtvWiWcGRB11L8fLHzVi34icBGtCxEp0ylWExgvMAKVwAjMntlwSX66FeEMJ1xWcv2pE03bGlCMnczZGOEornu8uIqpXhufnuLF-Bm83Hr8wr7A35qWh94UNT3LIYTmlGxYZMJjrGWJbHEGP2mWKVC8HfnaL8pBL7yOrh5wr_Ljlhc8C2iK4eeCZmtUmIIjNoI5TIjN5mhtLpUdpemdi4DvW1ePm5jZ-32mPGRsFN1n5A07iGEfHniPyLlwdNGtT6GSnc641X5jv8J_iu4dUH8IPluJxDK6la2pDjsWvcTXWTiAjrLThwJpoVf6zE_6u-py6KwQkRIYWJOomV_SNEOytXus3JU87NqHv6ut5TCsd2kI8RG9E4xB4ARLpt9PFXt4u7U1u1Hz16O9H_WKNETOFD61pkDQhobpMQ-A4QZJit0IaZtxeiUSAy9PgPW5ZP3ytHSU5RACMwscOXF_3d7aaSif7Aw2cgMeu2ksw1zO7Araok6L_ApvBm00]--></g></svg>