<?xml version="1.0" encoding="us-ascii" standalone="no"?><svg xmlns="http://www.w3.org/2000/svg" xmlns:xlink="http://www.w3.org/1999/xlink" contentStyleType="text/css" height="443px" preserveAspectRatio="none" style="width:865px;height:443px;background:#FFFFFF;" version="1.1" viewBox="0 0 865 443" width="865px" zoomAndPan="magnify"><defs/><g><!--class Jugador--><g id="elem_Jugador"><rect fill="#F1F1F1" height="48" id="Jugador" rx="2.5" ry="2.5" style="stroke:#181818;stroke-width:0.5;" width="85" x="177" y="134"/><ellipse cx="192" cy="150" fill="#ADD1B2" rx="11" ry="11" style="stroke:#181818;stroke-width:1.0;"/><path d="M191.4688,156.9219 Q189.7188,156.9219 188.5781,156.1875 Q187.4531,155.4375 186.8906,154.0938 Q186.3438,152.7344 186.3438,150.9375 Q186.3438,148.9063 187,147.4531 Q187.6563,146 188.9375,145.2188 Q190.2188,144.4375 192.0938,144.4375 Q192.9844,144.4375 193.6563,144.625 Q194.3281,144.7969 195.0156,145.1406 L194.2031,147.1563 Q193.5781,146.8438 193.0313,146.7188 Q192.5,146.5938 192.0156,146.5938 Q190.8438,146.5938 190.1406,147.125 Q189.4375,147.6563 189.1406,148.6094 Q188.8438,149.5625 188.8438,150.8281 Q188.8438,152.8438 189.5625,153.8125 Q190.2813,154.7656 191.875,154.7656 Q192.4688,154.7656 193.0938,154.6094 Q193.7188,154.4531 194.5469,154.0781 L194.5469,156.2969 Q193.8125,156.6094 193.0156,156.7656 Q192.2344,156.9219 191.4688,156.9219 Z " fill="#000000"/><text fill="#000000" font-family="sans-serif" font-size="14" lengthAdjust="spacing" textLength="53" x="206" y="155.432">Jugador</text><line style="stroke:#181818;stroke-width:0.5;" x1="178" x2="261" y1="166" y2="166"/><line style="stroke:#181818;stroke-width:0.5;" x1="178" x2="261" y1="174" y2="174"/></g><!--class Objeto--><g id="elem_Objeto"><rect fill="#F1F1F1" height="48" id="Objeto" rx="2.5" ry="2.5" style="stroke:#181818;stroke-width:0.5;" width="77" x="408" y="261"/><ellipse cx="423" cy="277" fill="#ADD1B2" rx="11" ry="11" style="stroke:#181818;stroke-width:1.0;"/><path d="M422.4688,283.9219 Q420.7188,283.9219 419.5781,283.1875 Q418.4531,282.4375 417.8906,281.0938 Q417.3438,279.7344 417.3438,277.9375 Q417.3438,275.9063 418,274.4531 Q418.6563,273 419.9375,272.2188 Q421.2188,271.4375 423.0938,271.4375 Q423.9844,271.4375 424.6563,271.625 Q425.3281,271.7969 426.0156,272.1406 L425.2031,274.1563 Q424.5781,273.8438 424.0313,273.7188 Q423.5,273.5938 423.0156,273.5938 Q421.8438,273.5938 421.1406,274.125 Q420.4375,274.6563 420.1406,275.6094 Q419.8438,276.5625 419.8438,277.8281 Q419.8438,279.8438 420.5625,280.8125 Q421.2813,281.7656 422.875,281.7656 Q423.4688,281.7656 424.0938,281.6094 Q424.7188,281.4531 425.5469,281.0781 L425.5469,283.2969 Q424.8125,283.6094 424.0156,283.7656 Q423.2344,283.9219 422.4688,283.9219 Z " fill="#000000"/><text fill="#000000" font-family="sans-serif" font-size="14" lengthAdjust="spacing" textLength="45" x="437" y="282.432">Objeto</text><line style="stroke:#181818;stroke-width:0.5;" x1="409" x2="484" y1="293" y2="293"/><line style="stroke:#181818;stroke-width:0.5;" x1="409" x2="484" y1="301" y2="301"/></g><!--class Mision--><g id="elem_Mision"><rect fill="#F1F1F1" height="48" id="Mision" rx="2.5" ry="2.5" style="stroke:#181818;stroke-width:0.5;" width="77" x="7" y="261"/><ellipse cx="22" cy="277" fill="#ADD1B2" rx="11" ry="11" style="stroke:#181818;stroke-width:1.0;"/><path d="M21.4688,283.9219 Q19.7188,283.9219 18.5781,283.1875 Q17.4531,282.4375 16.8906,281.0938 Q16.3438,279.7344 16.3438,277.9375 Q16.3438,275.9063 17,274.4531 Q17.6563,273 18.9375,272.2188 Q20.2188,271.4375 22.0938,271.4375 Q22.9844,271.4375 23.6563,271.625 Q24.3281,271.7969 25.0156,272.1406 L24.2031,274.1563 Q23.5781,273.8438 23.0313,273.7188 Q22.5,273.5938 22.0156,273.5938 Q20.8438,273.5938 20.1406,274.125 Q19.4375,274.6563 19.1406,275.6094 Q18.8438,276.5625 18.8438,277.8281 Q18.8438,279.8438 19.5625,280.8125 Q20.2813,281.7656 21.875,281.7656 Q22.4688,281.7656 23.0938,281.6094 Q23.7188,281.4531 24.5469,281.0781 L24.5469,283.2969 Q23.8125,283.6094 23.0156,283.7656 Q22.2344,283.9219 21.4688,283.9219 Z " fill="#000000"/><text fill="#000000" font-family="sans-serif" font-size="14" lengthAdjust="spacing" textLength="45" x="36" y="282.432">Mision</text><line style="stroke:#181818;stroke-width:0.5;" x1="8" x2="83" y1="293" y2="293"/><line style="stroke:#181818;stroke-width:0.5;" x1="8" x2="83" y1="301" y2="301"/></g><!--class Reliquia--><g id="elem_Reliquia"><rect fill="#F1F1F1" height="48" id="Reliquia" rx="2.5" ry="2.5" style="stroke:#181818;stroke-width:0.5;" width="87" x="119" y="261"/><ellipse cx="134" cy="277" fill="#ADD1B2" rx="11" ry="11" style="stroke:#181818;stroke-width:1.0;"/><path d="M133.4688,283.9219 Q131.7188,283.9219 130.5781,283.1875 Q129.4531,282.4375 128.8906,281.0938 Q128.3438,279.7344 128.3438,277.9375 Q128.3438,275.9063 129,274.4531 Q129.6563,273 130.9375,272.2188 Q132.2188,271.4375 134.0938,271.4375 Q134.9844,271.4375 135.6563,271.625 Q136.3281,271.7969 137.0156,272.1406 L136.2031,274.1563 Q135.5781,273.8438 135.0313,273.7188 Q134.5,273.5938 134.0156,273.5938 Q132.8438,273.5938 132.1406,274.125 Q131.4375,274.6563 131.1406,275.6094 Q130.8438,276.5625 130.8438,277.8281 Q130.8438,279.8438 131.5625,280.8125 Q132.2813,281.7656 133.875,281.7656 Q134.4688,281.7656 135.0938,281.6094 Q135.7188,281.4531 136.5469,281.0781 L136.5469,283.2969 Q135.8125,283.6094 135.0156,283.7656 Q134.2344,283.9219 133.4688,283.9219 Z " fill="#000000"/><text fill="#000000" font-family="sans-serif" font-size="14" lengthAdjust="spacing" textLength="55" x="148" y="282.432">Reliquia</text><line style="stroke:#181818;stroke-width:0.5;" x1="120" x2="205" y1="293" y2="293"/><line style="stroke:#181818;stroke-width:0.5;" x1="120" x2="205" y1="301" y2="301"/></g><!--class Personaje--><g id="elem_Personaje"><rect fill="#F1F1F1" height="48" id="Personaje" rx="2.5" ry="2.5" style="stroke:#181818;stroke-width:0.5;" width="98" x="660.5" y="261"/><ellipse cx="675.5" cy="277" fill="#ADD1B2" rx="11" ry="11" style="stroke:#181818;stroke-width:1.0;"/><path d="M674.9688,283.9219 Q673.2188,283.9219 672.0781,283.1875 Q670.9531,282.4375 670.3906,281.0938 Q669.8438,279.7344 669.8438,277.9375 Q669.8438,275.9063 670.5,274.4531 Q671.1563,273 672.4375,272.2188 Q673.7188,271.4375 675.5938,271.4375 Q676.4844,271.4375 677.1563,271.625 Q677.8281,271.7969 678.5156,272.1406 L677.7031,274.1563 Q677.0781,273.8438 676.5313,273.7188 Q676,273.5938 675.5156,273.5938 Q674.3438,273.5938 673.6406,274.125 Q672.9375,274.6563 672.6406,275.6094 Q672.3438,276.5625 672.3438,277.8281 Q672.3438,279.8438 673.0625,280.8125 Q673.7813,281.7656 675.375,281.7656 Q675.9688,281.7656 676.5938,281.6094 Q677.2188,281.4531 678.0469,281.0781 L678.0469,283.2969 Q677.3125,283.6094 676.5156,283.7656 Q675.7344,283.9219 674.9688,283.9219 Z " fill="#000000"/><text fill="#000000" font-family="sans-serif" font-size="14" lengthAdjust="spacing" textLength="66" x="689.5" y="282.432">Personaje</text><line style="stroke:#181818;stroke-width:0.5;" x1="661.5" x2="757.5" y1="293" y2="293"/><line style="stroke:#181818;stroke-width:0.5;" x1="661.5" x2="757.5" y1="301" y2="301"/></g><!--class Enemigo--><g id="elem_Enemigo"><rect fill="#F1F1F1" height="48" id="Enemigo" rx="2.5" ry="2.5" style="stroke:#181818;stroke-width:0.5;" width="91" x="664" y="388"/><ellipse cx="679" cy="404" fill="#ADD1B2" rx="11" ry="11" style="stroke:#181818;stroke-width:1.0;"/><path d="M678.4688,410.9219 Q676.7188,410.9219 675.5781,410.1875 Q674.4531,409.4375 673.8906,408.0938 Q673.3438,406.7344 673.3438,404.9375 Q673.3438,402.9063 674,401.4531 Q674.6563,400 675.9375,399.2188 Q677.2188,398.4375 679.0938,398.4375 Q679.9844,398.4375 680.6563,398.625 Q681.3281,398.7969 682.0156,399.1406 L681.2031,401.1563 Q680.5781,400.8438 680.0313,400.7188 Q679.5,400.5938 679.0156,400.5938 Q677.8438,400.5938 677.1406,401.125 Q676.4375,401.6563 676.1406,402.6094 Q675.8438,403.5625 675.8438,404.8281 Q675.8438,406.8438 676.5625,407.8125 Q677.2813,408.7656 678.875,408.7656 Q679.4688,408.7656 680.0938,408.6094 Q680.7188,408.4531 681.5469,408.0781 L681.5469,410.2969 Q680.8125,410.6094 680.0156,410.7656 Q679.2344,410.9219 678.4688,410.9219 Z " fill="#000000"/><text fill="#000000" font-family="sans-serif" font-size="14" lengthAdjust="spacing" textLength="59" x="693" y="409.432">Enemigo</text><line style="stroke:#181818;stroke-width:0.5;" x1="665" x2="754" y1="420" y2="420"/><line style="stroke:#181818;stroke-width:0.5;" x1="665" x2="754" y1="428" y2="428"/></g><!--class Arma--><g id="elem_Arma"><rect fill="#F1F1F1" height="48" id="Arma" rx="2.5" ry="2.5" style="stroke:#181818;stroke-width:0.5;" width="68" x="531.5" y="388"/><ellipse cx="546.5" cy="404" fill="#ADD1B2" rx="11" ry="11" style="stroke:#181818;stroke-width:1.0;"/><path d="M545.9688,410.9219 Q544.2188,410.9219 543.0781,410.1875 Q541.9531,409.4375 541.3906,408.0938 Q540.8438,406.7344 540.8438,404.9375 Q540.8438,402.9063 541.5,401.4531 Q542.1563,400 543.4375,399.2188 Q544.7188,398.4375 546.5938,398.4375 Q547.4844,398.4375 548.1563,398.625 Q548.8281,398.7969 549.5156,399.1406 L548.7031,401.1563 Q548.0781,400.8438 547.5313,400.7188 Q547,400.5938 546.5156,400.5938 Q545.3438,400.5938 544.6406,401.125 Q543.9375,401.6563 543.6406,402.6094 Q543.3438,403.5625 543.3438,404.8281 Q543.3438,406.8438 544.0625,407.8125 Q544.7813,408.7656 546.375,408.7656 Q546.9688,408.7656 547.5938,408.6094 Q548.2188,408.4531 549.0469,408.0781 L549.0469,410.2969 Q548.3125,410.6094 547.5156,410.7656 Q546.7344,410.9219 545.9688,410.9219 Z " fill="#000000"/><text fill="#000000" font-family="sans-serif" font-size="14" lengthAdjust="spacing" textLength="36" x="560.5" y="409.432">Arma</text><line style="stroke:#181818;stroke-width:0.5;" x1="532.5" x2="598.5" y1="420" y2="420"/><line style="stroke:#181818;stroke-width:0.5;" x1="532.5" x2="598.5" y1="428" y2="428"/></g><!--class Armadura--><g id="elem_Armadura"><rect fill="#F1F1F1" height="48" id="Armadura" rx="2.5" ry="2.5" style="stroke:#181818;stroke-width:0.5;" width="100" x="396.5" y="388"/><ellipse cx="411.5" cy="404" fill="#ADD1B2" rx="11" ry="11" style="stroke:#181818;stroke-width:1.0;"/><path d="M410.9688,410.9219 Q409.2188,410.9219 408.0781,410.1875 Q406.9531,409.4375 406.3906,408.0938 Q405.8438,406.7344 405.8438,404.9375 Q405.8438,402.9063 406.5,401.4531 Q407.1563,400 408.4375,399.2188 Q409.7188,398.4375 411.5938,398.4375 Q412.4844,398.4375 413.1563,398.625 Q413.8281,398.7969 414.5156,399.1406 L413.7031,401.1563 Q413.0781,400.8438 412.5313,400.7188 Q412,400.5938 411.5156,400.5938 Q410.3438,400.5938 409.6406,401.125 Q408.9375,401.6563 408.6406,402.6094 Q408.3438,403.5625 408.3438,404.8281 Q408.3438,406.8438 409.0625,407.8125 Q409.7813,408.7656 411.375,408.7656 Q411.9688,408.7656 412.5938,408.6094 Q413.2188,408.4531 414.0469,408.0781 L414.0469,410.2969 Q413.3125,410.6094 412.5156,410.7656 Q411.7344,410.9219 410.9688,410.9219 Z " fill="#000000"/><text fill="#000000" font-family="sans-serif" font-size="14" lengthAdjust="spacing" textLength="68" x="425.5" y="409.432">Armadura</text><line style="stroke:#181818;stroke-width:0.5;" x1="397.5" x2="495.5" y1="420" y2="420"/><line style="stroke:#181818;stroke-width:0.5;" x1="397.5" x2="495.5" y1="428" y2="428"/></g><!--class Ingrediente--><g id="elem_Ingrediente"><rect fill="#F1F1F1" height="48" id="Ingrediente" rx="2.5" ry="2.5" style="stroke:#181818;stroke-width:0.5;" width="112" x="249.5" y="388"/><ellipse cx="264.5" cy="404" fill="#ADD1B2" rx="11" ry="11" style="stroke:#181818;stroke-width:1.0;"/><path d="M263.9688,410.9219 Q262.2188,410.9219 261.0781,410.1875 Q259.9531,409.4375 259.3906,408.0938 Q258.8438,406.7344 258.8438,404.9375 Q258.8438,402.9063 259.5,401.4531 Q260.1563,400 261.4375,399.2188 Q262.7188,398.4375 264.5938,398.4375 Q265.4844,398.4375 266.1563,398.625 Q266.8281,398.7969 267.5156,399.1406 L266.7031,401.1563 Q266.0781,400.8438 265.5313,400.7188 Q265,400.5938 264.5156,400.5938 Q263.3438,400.5938 262.6406,401.125 Q261.9375,401.6563 261.6406,402.6094 Q261.3438,403.5625 261.3438,404.8281 Q261.3438,406.8438 262.0625,407.8125 Q262.7813,408.7656 264.375,408.7656 Q264.9688,408.7656 265.5938,408.6094 Q266.2188,408.4531 267.0469,408.0781 L267.0469,410.2969 Q266.3125,410.6094 265.5156,410.7656 Q264.7344,410.9219 263.9688,410.9219 Z " fill="#000000"/><text fill="#000000" font-family="sans-serif" font-size="14" lengthAdjust="spacing" textLength="80" x="278.5" y="409.432">Ingrediente</text><line style="stroke:#181818;stroke-width:0.5;" x1="250.5" x2="360.5" y1="420" y2="420"/><line style="stroke:#181818;stroke-width:0.5;" x1="250.5" x2="360.5" y1="428" y2="428"/></g><!--class Ubicacion--><g id="elem_Ubicacion"><rect fill="#F1F1F1" height="48" id="Ubicacion" rx="2.5" ry="2.5" style="stroke:#181818;stroke-width:0.5;" width="98" x="558.5" y="134"/><ellipse cx="573.5" cy="150" fill="#ADD1B2" rx="11" ry="11" style="stroke:#181818;stroke-width:1.0;"/><path d="M572.9688,156.9219 Q571.2188,156.9219 570.0781,156.1875 Q568.9531,155.4375 568.3906,154.0938 Q567.8438,152.7344 567.8438,150.9375 Q567.8438,148.9063 568.5,147.4531 Q569.1563,146 570.4375,145.2188 Q571.7188,144.4375 573.5938,144.4375 Q574.4844,144.4375 575.1563,144.625 Q575.8281,144.7969 576.5156,145.1406 L575.7031,147.1563 Q575.0781,146.8438 574.5313,146.7188 Q574,146.5938 573.5156,146.5938 Q572.3438,146.5938 571.6406,147.125 Q570.9375,147.6563 570.6406,148.6094 Q570.3438,149.5625 570.3438,150.8281 Q570.3438,152.8438 571.0625,153.8125 Q571.7813,154.7656 573.375,154.7656 Q573.9688,154.7656 574.5938,154.6094 Q575.2188,154.4531 576.0469,154.0781 L576.0469,156.2969 Q575.3125,156.6094 574.5156,156.7656 Q573.7344,156.9219 572.9688,156.9219 Z " fill="#000000"/><text fill="#000000" font-family="sans-serif" font-size="14" lengthAdjust="spacing" textLength="66" x="587.5" y="155.432">Ubicacion</text><line style="stroke:#181818;stroke-width:0.5;" x1="559.5" x2="655.5" y1="166" y2="166"/><line style="stroke:#181818;stroke-width:0.5;" x1="559.5" x2="655.5" y1="174" y2="174"/></g><!--class BestiaDivina--><g id="elem_BestiaDivina"><rect fill="#F1F1F1" height="48" id="BestiaDivina" rx="2.5" ry="2.5" style="stroke:#181818;stroke-width:0.5;" width="115" x="635" y="7"/><ellipse cx="650" cy="23" fill="#ADD1B2" rx="11" ry="11" style="stroke:#181818;stroke-width:1.0;"/><path d="M649.4688,29.9219 Q647.7188,29.9219 646.5781,29.1875 Q645.4531,28.4375 644.8906,27.0938 Q644.3438,25.7344 644.3438,23.9375 Q644.3438,21.9063 645,20.4531 Q645.6563,19 646.9375,18.2188 Q648.2188,17.4375 650.0938,17.4375 Q650.9844,17.4375 651.6563,17.625 Q652.3281,17.7969 653.0156,18.1406 L652.2031,20.1563 Q651.5781,19.8438 651.0313,19.7188 Q650.5,19.5938 650.0156,19.5938 Q648.8438,19.5938 648.1406,20.125 Q647.4375,20.6563 647.1406,21.6094 Q646.8438,22.5625 646.8438,23.8281 Q646.8438,25.8438 647.5625,26.8125 Q648.2813,27.7656 649.875,27.7656 Q650.4688,27.7656 651.0938,27.6094 Q651.7188,27.4531 652.5469,27.0781 L652.5469,29.2969 Q651.8125,29.6094 651.0156,29.7656 Q650.2344,29.9219 649.4688,29.9219 Z " fill="#000000"/><text fill="#000000" font-family="sans-serif" font-size="14" lengthAdjust="spacing" textLength="83" x="664" y="28.432">BestiaDivina</text><line style="stroke:#181818;stroke-width:0.5;" x1="636" x2="749" y1="39" y2="39"/><line style="stroke:#181818;stroke-width:0.5;" x1="636" x2="749" y1="47" y2="47"/></g><!--class SistemaCocina--><g id="elem_SistemaCocina"><rect fill="#F1F1F1" height="48" id="SistemaCocina" rx="2.5" ry="2.5" style="stroke:#181818;stroke-width:0.5;" width="130" x="241.5" y="261"/><ellipse cx="256.5" cy="277" fill="#ADD1B2" rx="11" ry="11" style="stroke:#181818;stroke-width:1.0;"/><path d="M255.9688,283.9219 Q254.2188,283.9219 253.0781,283.1875 Q251.9531,282.4375 251.3906,281.0938 Q250.8438,279.7344 250.8438,277.9375 Q250.8438,275.9063 251.5,274.4531 Q252.1563,273 253.4375,272.2188 Q254.7188,271.4375 256.5938,271.4375 Q257.4844,271.4375 258.1563,271.625 Q258.8281,271.7969 259.5156,272.1406 L258.7031,274.1563 Q258.0781,273.8438 257.5313,273.7188 Q257,273.5938 256.5156,273.5938 Q255.3438,273.5938 254.6406,274.125 Q253.9375,274.6563 253.6406,275.6094 Q253.3438,276.5625 253.3438,277.8281 Q253.3438,279.8438 254.0625,280.8125 Q254.7813,281.7656 256.375,281.7656 Q256.9688,281.7656 257.5938,281.6094 Q258.2188,281.4531 259.0469,281.0781 L259.0469,283.2969 Q258.3125,283.6094 257.5156,283.7656 Q256.7344,283.9219 255.9688,283.9219 Z " fill="#000000"/><text fill="#000000" font-family="sans-serif" font-size="14" lengthAdjust="spacing" textLength="98" x="270.5" y="282.432">SistemaCocina</text><line style="stroke:#181818;stroke-width:0.5;" x1="242.5" x2="370.5" y1="293" y2="293"/><line style="stroke:#181818;stroke-width:0.5;" x1="242.5" x2="370.5" y1="301" y2="301"/></g><!--link Jugador to Objeto--><g id="link_Jugador_Objeto"><path codeLine="2" d="M261.4,182.07 C303.29,205.14 367.18,240.32 407.87,262.73 " fill="none" id="Jugador-Objeto" style="stroke:#181818;stroke-width:1.0;"/><polygon fill="#000000" points="355.8798,224.2649,349.3744,217.3273,346.539,222.4761,355.8798,224.2649" style="stroke:#000000;stroke-width:1.0;"/><text fill="#000000" font-family="sans-serif" font-size="13" lengthAdjust="spacing" textLength="36" x="360.5" y="226.897">posee</text><text fill="#000000" font-family="sans-serif" font-size="13" lengthAdjust="spacing" textLength="7" x="263.76" y="203.992">1</text><text fill="#000000" font-family="sans-serif" font-size="13" lengthAdjust="spacing" textLength="20" x="380.1196" y="254.7793">0..*</text></g><!--link Jugador to Mision--><g id="link_Jugador_Mision"><path codeLine="3" d="M176.91,175.49 C156.13,184.61 131.4,197.11 111.5,212 C92.9,225.92 75.31,245.56 62.97,260.81 " fill="none" id="Jugador-Mision" style="stroke:#181818;stroke-width:1.0;"/><polygon fill="#000000" points="112.4977,224.85,121.4995,221.7809,117.9763,217.0759,112.4977,224.85" style="stroke:#000000;stroke-width:1.0;"/><text fill="#000000" font-family="sans-serif" font-size="13" lengthAdjust="spacing" textLength="38" x="125.5" y="226.897">realiza</text><text fill="#000000" font-family="sans-serif" font-size="13" lengthAdjust="spacing" textLength="7" x="161.9883" y="173.9928">1</text><text fill="#000000" font-family="sans-serif" font-size="13" lengthAdjust="spacing" textLength="20" x="44.9776" y="249.0164">0..*</text></g><!--link Jugador to Reliquia--><g id="link_Jugador_Reliquia"><path codeLine="4" d="M198.71,182.17 C191.72,190.99 184.45,201.46 179.5,212 C172.24,227.46 167.93,246.29 165.47,260.82 " fill="none" id="Jugador-Reliquia" style="stroke:#181818;stroke-width:1.0;"/><polygon fill="#000000" points="182.5535,226.4586,188.7818,219.2711,183.3676,216.9829,182.5535,226.4586" style="stroke:#000000;stroke-width:1.0;"/><text fill="#000000" font-family="sans-serif" font-size="13" lengthAdjust="spacing" textLength="50" x="193.5" y="226.897">controla</text><text fill="#000000" font-family="sans-serif" font-size="13" lengthAdjust="spacing" textLength="7" x="186.0929" y="203.7036">1</text><text fill="#000000" font-family="sans-serif" font-size="13" lengthAdjust="spacing" textLength="20" x="143.5807" y="249.0291">0..*</text></g><!--reverse link Personaje to Enemigo--><g id="link_Personaje_Enemigo"><path codeLine="6" d="M709.5,327.22 C709.5,349.67 709.5,365.5 709.5,387.91 " fill="none" id="Personaje-backto-Enemigo" style="stroke:#181818;stroke-width:1.0;"/><polygon fill="none" points="709.5,309.22,703.5,327.22,715.5,327.22,709.5,309.22" style="stroke:#181818;stroke-width:1.0;"/></g><!--reverse link Objeto to Arma--><g id="link_Objeto_Arma"><path codeLine="8" d="M481.0135,322.2548 C502.3935,344.7048 522.18,365.5 543.51,387.91 " fill="none" id="Objeto-backto-Arma" style="stroke:#181818;stroke-width:1.0;"/><polygon fill="none" points="468.6,309.22,476.6686,326.3926,485.3584,318.1169,468.6,309.22" style="stroke:#181818;stroke-width:1.0;"/></g><!--reverse link Objeto to Armadura--><g id="link_Objeto_Armadura"><path codeLine="9" d="M446.5,327.22 C446.5,349.67 446.5,365.5 446.5,387.91 " fill="none" id="Objeto-backto-Armadura" style="stroke:#181818;stroke-width:1.0;"/><polygon fill="none" points="446.5,309.22,440.5,327.22,452.5,327.22,446.5,309.22" style="stroke:#181818;stroke-width:1.0;"/></g><!--reverse link Objeto to Ingrediente--><g id="link_Objeto_Ingrediente"><path codeLine="10" d="M406.8393,321.1591 C381.5093,343.6091 356.83,365.5 331.55,387.91 " fill="none" id="Objeto-backto-Ingrediente" style="stroke:#181818;stroke-width:1.0;"/><polygon fill="none" points="420.31,309.22,402.8596,316.6688,410.819,325.6493,420.31,309.22" style="stroke:#181818;stroke-width:1.0;"/></g><!--link Ubicacion to Personaje--><g id="link_Ubicacion_Personaje"><path codeLine="12" d="M626.45,182.22 C644.77,204.67 672.37,238.5 690.66,260.91 " fill="none" id="Ubicacion-Personaje" style="stroke:#181818;stroke-width:1.0;"/><polygon fill="#000000" points="672.6611,225.727,669.2197,216.8609,664.6656,220.577,672.6611,225.727" style="stroke:#000000;stroke-width:1.0;"/><text fill="#000000" font-family="sans-serif" font-size="13" lengthAdjust="spacing" textLength="52" x="678.5" y="226.897">contiene</text><text fill="#000000" font-family="sans-serif" font-size="13" lengthAdjust="spacing" textLength="7" x="623.0228" y="203.7651">1</text><text fill="#000000" font-family="sans-serif" font-size="13" lengthAdjust="spacing" textLength="20" x="662.9092" y="249.1433">0..*</text></g><!--link Ubicacion to Enemigo--><g id="link_Ubicacion_Enemigo"><path codeLine="13" d="M597.72,182.03 C586.32,212.54 571.34,267.33 590.5,309 C606.25,343.24 639.79,370.29 667.26,387.9 " fill="none" id="Ubicacion-Enemigo" style="stroke:#181818;stroke-width:1.0;"/><polygon fill="#000000" points="597.1001,290.0901,596.9899,280.5801,591.4211,282.4612,597.1001,290.0901" style="stroke:#000000;stroke-width:1.0;"/><text fill="#000000" font-family="sans-serif" font-size="13" lengthAdjust="spacing" textLength="38" x="604.5" y="290.397">habita</text><text fill="#000000" font-family="sans-serif" font-size="13" lengthAdjust="spacing" textLength="7" x="587.483" y="203.9422">1</text><text fill="#000000" font-family="sans-serif" font-size="13" lengthAdjust="spacing" textLength="20" x="635.8325" y="377.743">0..*</text></g><!--link Ubicacion to Objeto--><g id="link_Ubicacion_Objeto"><path codeLine="14" d="M558.26,170.04 C532.18,178.01 501.15,191.14 479.5,212 C465.74,225.26 457.19,245.35 452.25,260.94 " fill="none" id="Ubicacion-Objeto" style="stroke:#181818;stroke-width:1.0;"/><polygon fill="#000000" points="480.7043,225.1077,489.4838,221.451,485.6577,216.9889,480.7043,225.1077" style="stroke:#000000;stroke-width:1.0;"/><text fill="#000000" font-family="sans-serif" font-size="13" lengthAdjust="spacing" textLength="52" x="493.5" y="226.897">contiene</text><text fill="#000000" font-family="sans-serif" font-size="13" lengthAdjust="spacing" textLength="7" x="543.5138" y="167.5088">1</text><text fill="#000000" font-family="sans-serif" font-size="13" lengthAdjust="spacing" textLength="20" x="431.1078" y="249.1814">0..*</text></g><!--link BestiaDivina to Enemigo--><g id="link_BestiaDivina_Enemigo"><path codeLine="16" d="M717.67,55.08 C725.76,63.73 734.03,74.12 739.5,85 C784.87,175.13 805.41,212.33 776.5,309 C767.52,339.04 746.53,368.44 730.42,387.9 " fill="none" id="BestiaDivina-Enemigo" style="stroke:#181818;stroke-width:1.0;"/><polygon fill="#000000" points="794.6914,226.8493,797.2819,217.6984,791.4084,217.9234,794.6914,226.8493" style="stroke:#000000;stroke-width:1.0;"/><text fill="#000000" font-family="sans-serif" font-size="13" lengthAdjust="spacing" textLength="54" x="803.5" y="226.897">tiene jefe</text><text fill="#000000" font-family="sans-serif" font-size="13" lengthAdjust="spacing" textLength="7" x="715.9521" y="77.0044">1</text><text fill="#000000" font-family="sans-serif" font-size="13" lengthAdjust="spacing" textLength="7" x="728.1016" y="376.1306">1</text></g><!--link BestiaDivina to Ubicacion--><g id="link_BestiaDivina_Ubicacion"><path codeLine="17" d="M676.71,55.22 C661.44,77.67 638.44,111.5 623.2,133.91 " fill="none" id="BestiaDivina-Ubicacion" style="stroke:#181818;stroke-width:1.0;"/><polygon fill="#000000" points="656.6884,98.9876,664.2049,93.1606,659.3444,89.8554,656.6884,98.9876" style="stroke:#000000;stroke-width:1.0;"/><text fill="#000000" font-family="sans-serif" font-size="13" lengthAdjust="spacing" textLength="62" x="668.5" y="99.897">situada en</text><text fill="#000000" font-family="sans-serif" font-size="13" lengthAdjust="spacing" textLength="7" x="665.2492" y="76.7651">1</text><text fill="#000000" font-family="sans-serif" font-size="13" lengthAdjust="spacing" textLength="7" x="619.4788" y="122.1433">1</text></g><!--link Jugador to SistemaCocina--><g id="link_Jugador_SistemaCocina"><path codeLine="19" d="M235.66,182.22 C251.29,204.67 274.83,238.5 290.43,260.91 " fill="none" id="Jugador-SistemaCocina" style="stroke:#181818;stroke-width:1.0;"/><polygon fill="#000000" points="276.3563,225.9568,273.6013,216.854,268.777,220.2119,276.3563,225.9568" style="stroke:#000000;stroke-width:1.0;"/><text fill="#000000" font-family="sans-serif" font-size="13" lengthAdjust="spacing" textLength="21" x="282.5" y="226.897">usa</text><text fill="#000000" font-family="sans-serif" font-size="13" lengthAdjust="spacing" textLength="7" x="231.5876" y="203.7651">1</text><text fill="#000000" font-family="sans-serif" font-size="13" lengthAdjust="spacing" textLength="7" x="278.1706" y="249.1433">1</text></g><!--link SistemaCocina to Ingrediente--><g id="link_SistemaCocina_Ingrediente"><path codeLine="20" d="M306.31,309.22 C306.13,331.67 305.86,365.5 305.68,387.91 " fill="none" id="SistemaCocina-Ingrediente" style="stroke:#181818;stroke-width:1.0;"/><polygon fill="#000000" points="310.46,353.8528,313.4712,344.8316,307.5936,344.7845,310.46,353.8528" style="stroke:#000000;stroke-width:1.0;"/><text fill="#000000" font-family="sans-serif" font-size="13" lengthAdjust="spacing" textLength="35" x="319.5" y="353.897">utiliza</text><text fill="#000000" font-family="sans-serif" font-size="13" lengthAdjust="spacing" textLength="7" x="298.4567" y="330.7651">1</text><text fill="#000000" font-family="sans-serif" font-size="13" lengthAdjust="spacing" textLength="20" x="283.0409" y="376.1433">0..*</text></g><!--SRC=[VP7DQiCm48JlUeh5nq12SnMbaBOv911IKle0QtlhhB6rYNvoA7tuIZWnZblt91W-PaQpsr1XAHQoPGRpEMGFYyKiWtrUanSD9t54yAIsVr8xTYn6WoLi-0idkGCrV0wC6WentagJKFL6red1ck3nEx9hGorNebINtOahs-8leGpsNjoOobB9P3mfzP5pWKNiDIhHntKj8fq-DaLVssWuOiuU_o5lKmrCrJCvp_ZA5pROuyk1QqVMz9dmARfFrE3O1omHo2JxyShnUMVdgSKNAQA9Xk1IvJjnL7kmMSGzNm_u0m00]--></g></svg>