<?xml version="1.0" encoding="us-ascii" standalone="no"?><svg xmlns="http://www.w3.org/2000/svg" xmlns:xlink="http://www.w3.org/1999/xlink" contentStyleType="text/css" height="309px" preserveAspectRatio="none" style="width:923px;height:309px;background:#FFFFFF;" version="1.1" viewBox="0 0 923 309" width="923px" zoomAndPan="magnify"><defs/><g><!--class Jugador--><g id="elem_Jugador"><rect fill="#F1F1F1" height="29.0679" id="Jugador" rx="2.5" ry="2.5" style="stroke:#181818;stroke-width:0.5;" width="59" x="228" y="96"/><text fill="#000000" font-family="sans-serif" font-size="14" lengthAdjust="spacing" textLength="53" x="231" y="115.9659">Jugador</text></g><!--class Arma--><g id="elem_Arma"><rect fill="#F1F1F1" height="29.0679" id="Arma" rx="2.5" ry="2.5" style="stroke:#181818;stroke-width:0.5;" width="42" x="400.5" y="185"/><text fill="#000000" font-family="sans-serif" font-size="14" lengthAdjust="spacing" textLength="36" x="403.5" y="204.9659">Arma</text></g><!--class Armadura--><g id="elem_Armadura"><rect fill="#F1F1F1" height="29.0679" id="Armadura" rx="2.5" ry="2.5" style="stroke:#181818;stroke-width:0.5;" width="74" x="477.5" y="185"/><text fill="#000000" font-family="sans-serif" font-size="14" lengthAdjust="spacing" textLength="68" x="480.5" y="204.9659">Armadura</text></g><!--class Ingrediente--><g id="elem_Ingrediente"><rect fill="#F1F1F1" height="29.0679" id="Ingrediente" rx="2.5" ry="2.5" style="stroke:#181818;stroke-width:0.5;" width="86" x="270.5" y="274"/><text fill="#000000" font-family="sans-serif" font-size="14" lengthAdjust="spacing" textLength="80" x="273.5" y="293.9659">Ingrediente</text></g><!--class Mision--><g id="elem_Mision"><rect fill="#F1F1F1" height="29.0679" id="Mision" rx="2.5" ry="2.5" style="stroke:#181818;stroke-width:0.5;" width="51" x="175" y="185"/><text fill="#000000" font-family="sans-serif" font-size="14" lengthAdjust="spacing" textLength="45" x="178" y="204.9659">Mision</text></g><!--class Reliquia--><g id="elem_Reliquia"><rect fill="#F1F1F1" height="29.0679" id="Reliquia" rx="2.5" ry="2.5" style="stroke:#181818;stroke-width:0.5;" width="61" x="7" y="185"/><text fill="#000000" font-family="sans-serif" font-size="14" lengthAdjust="spacing" textLength="55" x="10" y="204.9659">Reliquia</text></g><!--class Ubicacion--><g id="elem_Ubicacion"><rect fill="#F1F1F1" height="29.0679" id="Ubicacion" rx="2.5" ry="2.5" style="stroke:#181818;stroke-width:0.5;" width="72" x="657.5" y="96"/><text fill="#000000" font-family="sans-serif" font-size="14" lengthAdjust="spacing" textLength="66" x="660.5" y="115.9659">Ubicacion</text></g><!--class Personaje--><g id="elem_Personaje"><rect fill="#F1F1F1" height="29.0679" id="Personaje" rx="2.5" ry="2.5" style="stroke:#181818;stroke-width:0.5;" width="72" x="657.5" y="185"/><text fill="#000000" font-family="sans-serif" font-size="14" lengthAdjust="spacing" textLength="66" x="660.5" y="204.9659">Personaje</text></g><!--class Enemigo--><g id="elem_Enemigo"><rect fill="#F1F1F1" height="29.0679" id="Enemigo" rx="2.5" ry="2.5" style="stroke:#181818;stroke-width:0.5;" width="65" x="851" y="185"/><text fill="#000000" font-family="sans-serif" font-size="14" lengthAdjust="spacing" textLength="59" x="854" y="204.9659">Enemigo</text></g><!--class Objeto--><g id="elem_Objeto"><rect fill="#F1F1F1" height="29.0679" id="Objeto" rx="2.5" ry="2.5" style="stroke:#181818;stroke-width:0.5;" width="51" x="765" y="185"/><text fill="#000000" font-family="sans-serif" font-size="14" lengthAdjust="spacing" textLength="45" x="768" y="204.9659">Objeto</text></g><!--class BestiaDivina--><g id="elem_BestiaDivina"><rect fill="#F1F1F1" height="29.0679" id="BestiaDivina" rx="2.5" ry="2.5" style="stroke:#181818;stroke-width:0.5;" width="89" x="693" y="7"/><text fill="#000000" font-family="sans-serif" font-size="14" lengthAdjust="spacing" textLength="83" x="696" y="26.9659">BestiaDivina</text></g><!--class SistemaCocina--><g id="elem_SistemaCocina"><rect fill="#F1F1F1" height="29.0679" id="SistemaCocina" rx="2.5" ry="2.5" style="stroke:#181818;stroke-width:0.5;" width="104" x="261.5" y="185"/><text fill="#000000" font-family="sans-serif" font-size="14" lengthAdjust="spacing" textLength="98" x="264.5" y="204.9659">SistemaCocina</text></g><!--link Jugador to Arma--><g id="link_Jugador_Arma"><path codeLine="5" d="M283.12,125.09 C315.47,142.25 370.49,171.44 400.48,187.35 " fill="none" id="Jugador-Arma" style="stroke:#181818;stroke-width:1.0;"/></g><!--link Jugador to Armadura--><g id="link_Jugador_Armadura"><path codeLine="6" d="M287.23,121.56 C334.27,137.49 425.77,168.46 477.16,185.86 " fill="none" id="Jugador-Armadura" style="stroke:#181818;stroke-width:1.0;"/></g><!--link Jugador to Ingrediente--><g id="link_Jugador_Ingrediente"><path codeLine="7" d="M227.76,124.29 C190.44,142.26 134,176.95 157.5,214 C182.12,252.81 233.3,271.5 270.34,280.25 " fill="none" id="Jugador-Ingrediente" style="stroke:#181818;stroke-width:1.0;"/></g><!--link Jugador to Mision--><g id="link_Jugador_Mision"><path codeLine="8" d="M248.59,125.09 C237.95,141.34 220.23,168.38 209.53,184.71 " fill="none" id="Jugador-Mision" style="stroke:#181818;stroke-width:1.0;"/></g><!--link Jugador to Reliquia--><g id="link_Jugador_Reliquia"><path codeLine="9" d="M227.83,123.23 C186.08,139.74 110.37,169.68 68.11,186.39 " fill="none" id="Jugador-Reliquia" style="stroke:#181818;stroke-width:1.0;"/></g><!--link Ubicacion to Arma--><g id="link_Ubicacion_Arma"><path codeLine="11" d="M657.29,122.42 C611.19,136.43 529.16,161.7 459.5,185 C454.06,186.82 448.2,188.86 442.76,190.79 " fill="none" id="Ubicacion-Arma" style="stroke:#181818;stroke-width:1.0;"/></g><!--link Ubicacion to Armadura--><g id="link_Ubicacion_Armadura"><path codeLine="12" d="M665.53,125.09 C632,141.39 576.14,168.54 542.57,184.86 " fill="none" id="Ubicacion-Armadura" style="stroke:#181818;stroke-width:1.0;"/></g><!--link Ubicacion to Ingrediente--><g id="link_Ubicacion_Ingrediente"><path codeLine="13" d="M680.59,125.21 C659.27,147.08 614.46,189.85 568.5,214 C498.96,250.53 408.94,271.01 356.56,280.61 " fill="none" id="Ubicacion-Ingrediente" style="stroke:#181818;stroke-width:1.0;"/></g><!--link Ubicacion to Personaje--><g id="link_Ubicacion_Personaje"><path codeLine="15" d="M693.5,125.09 C693.5,141.34 693.5,168.38 693.5,184.71 " fill="none" id="Ubicacion-Personaje" style="stroke:#181818;stroke-width:1.0;"/></g><!--link Ubicacion to Enemigo--><g id="link_Ubicacion_Enemigo"><path codeLine="16" d="M723.19,125.09 C758.78,141.39 818.07,168.54 853.71,184.86 " fill="none" id="Ubicacion-Enemigo" style="stroke:#181818;stroke-width:1.0;"/></g><!--link Ubicacion to Objeto--><g id="link_Ubicacion_Objeto"><path codeLine="17" d="M708.66,125.09 C726.77,141.34 756.92,168.38 775.13,184.71 " fill="none" id="Ubicacion-Objeto" style="stroke:#181818;stroke-width:1.0;"/></g><!--link BestiaDivina to Enemigo--><g id="link_BestiaDivina_Enemigo"><path codeLine="19" d="M748.71,36.02 C775.82,68.7 844.69,151.72 872.05,184.69 " fill="none" id="BestiaDivina-Enemigo" style="stroke:#181818;stroke-width:1.0;"/></g><!--link BestiaDivina to Ubicacion--><g id="link_BestiaDivina_Ubicacion"><path codeLine="20" d="M730.62,36.09 C722.41,52.34 708.73,79.38 700.47,95.71 " fill="none" id="BestiaDivina-Ubicacion" style="stroke:#181818;stroke-width:1.0;"/></g><!--link Jugador to SistemaCocina--><g id="link_Jugador_SistemaCocina"><path codeLine="22" d="M266.25,125.09 C276.71,141.34 294.11,168.38 304.63,184.71 " fill="none" id="Jugador-SistemaCocina" style="stroke:#181818;stroke-width:1.0;"/></g><!--link SistemaCocina to Ingrediente--><g id="link_SistemaCocina_Ingrediente"><path codeLine="23" d="M313.5,214.09 C313.5,230.34 313.5,257.38 313.5,273.71 " fill="none" id="SistemaCocina-Ingrediente" style="stroke:#181818;stroke-width:1.0;"/></g><!--SRC=[PP1B3i8m34JtFaKkm27uBK128107S9DHwwf984cHk3s5HHMNdUVDM6Ev4mTZ9Ta1r7rd-4Tv6m_V86MYuzYoYyciLcQTF2-r6vDYXz0cE44egF59iiHGaoi6UOx2HFT6BDl9dZl-oAz5qRf7EvVfx1YuXyRx02zjrF3Sz2YHQ8DSX7Voai1rUCddPVKNSvDSu7aRxPGZfPQtVW00]--></g></svg>