<?xml version="1.0" encoding="us-ascii" standalone="no"?><svg xmlns="http://www.w3.org/2000/svg" xmlns:xlink="http://www.w3.org/1999/xlink" contentStyleType="text/css" height="773px" preserveAspectRatio="none" style="width:1329px;height:773px;background:#FFFFFF;" version="1.1" viewBox="0 0 1329 773" width="1329px" zoomAndPan="magnify"><defs/><g><!--class Jugador--><g id="elem_Jugador"><rect codeLine="5" fill="#F1F1F1" height="159.4754" id="Jugador" rx="2.5" ry="2.5" style="stroke:#181818;stroke-width:0.5;" width="175" x="263.5" y="207"/><text fill="#000000" font-family="sans-serif" font-size="14" lengthAdjust="spacing" textLength="53" x="324.5" y="226.9659">Jugador</text><line style="stroke:#181818;stroke-width:0.5;" x1="264.5" x2="437.5" y1="236.0679" y2="236.0679"/><rect fill="none" height="6" style="stroke:#C82930;stroke-width:1.0;" width="6" x="271.5" y="248.1019"/><text fill="#000000" font-family="sans-serif" font-size="14" lengthAdjust="spacing" textLength="102" x="283.5" y="255.0339">nombre: String</text><rect fill="none" height="6" style="stroke:#C82930;stroke-width:1.0;" width="6" x="271.5" y="267.1698"/><text fill="#000000" font-family="sans-serif" font-size="14" lengthAdjust="spacing" textLength="63" x="283.5" y="274.1018">salud: int</text><rect fill="none" height="6" style="stroke:#C82930;stroke-width:1.0;" width="6" x="271.5" y="286.2377"/><text fill="#000000" font-family="sans-serif" font-size="14" lengthAdjust="spacing" textLength="99" x="283.5" y="293.1697">resistencia: int</text><line style="stroke:#181818;stroke-width:0.5;" x1="264.5" x2="437.5" y1="301.2717" y2="301.2717"/><ellipse cx="274.5" cy="316.3056" fill="#84BE84" rx="3" ry="3" style="stroke:#038048;stroke-width:1.0;"/><text fill="#000000" font-family="sans-serif" font-size="14" lengthAdjust="spacing" textLength="128" x="283.5" y="320.2376">usarObjeto(Objeto)</text><ellipse cx="274.5" cy="335.3735" fill="#84BE84" rx="3" ry="3" style="stroke:#038048;stroke-width:1.0;"/><text fill="#000000" font-family="sans-serif" font-size="14" lengthAdjust="spacing" textLength="149" x="283.5" y="339.3055">interactuar(Personaje)</text><ellipse cx="274.5" cy="354.4415" fill="#84BE84" rx="3" ry="3" style="stroke:#038048;stroke-width:1.0;"/><text fill="#000000" font-family="sans-serif" font-size="14" lengthAdjust="spacing" textLength="130" x="283.5" y="358.3734">explorar(Ubicacion)</text></g><!--class Personaje--><g id="elem_Personaje"><rect codeLine="14" fill="#F1F1F1" height="102.2717" id="Personaje" rx="2.5" ry="2.5" style="stroke:#181818;stroke-width:0.5;" width="128" x="1088" y="454.5"/><text fill="#000000" font-family="sans-serif" font-size="14" lengthAdjust="spacing" textLength="66" x="1119" y="474.4659">Personaje</text><line style="stroke:#181818;stroke-width:0.5;" x1="1089" x2="1215" y1="483.5679" y2="483.5679"/><rect fill="none" height="6" style="stroke:#C82930;stroke-width:1.0;" width="6" x="1096" y="495.6019"/><text fill="#000000" font-family="sans-serif" font-size="14" lengthAdjust="spacing" textLength="102" x="1108" y="502.5339">nombre: String</text><rect fill="none" height="6" style="stroke:#C82930;stroke-width:1.0;" width="6" x="1096" y="514.6698"/><text fill="#000000" font-family="sans-serif" font-size="14" lengthAdjust="spacing" textLength="99" x="1108" y="521.6018">dialogo: String</text><line style="stroke:#181818;stroke-width:0.5;" x1="1089" x2="1215" y1="529.7038" y2="529.7038"/><ellipse cx="1099" cy="544.7377" fill="#84BE84" rx="3" ry="3" style="stroke:#038048;stroke-width:1.0;"/><text fill="#000000" font-family="sans-serif" font-size="14" lengthAdjust="spacing" textLength="76" x="1108" y="548.6697">darMision()</text></g><!--class Enemigo--><g id="elem_Enemigo"><rect codeLine="20" fill="#F1F1F1" height="121.3396" id="Enemigo" rx="2.5" ry="2.5" style="stroke:#181818;stroke-width:0.5;" width="148" x="1078" y="645"/><text fill="#000000" font-family="sans-serif" font-size="14" lengthAdjust="spacing" textLength="59" x="1122.5" y="664.9659">Enemigo</text><line style="stroke:#181818;stroke-width:0.5;" x1="1079" x2="1225" y1="674.0679" y2="674.0679"/><rect fill="none" height="6" style="stroke:#C82930;stroke-width:1.0;" width="6" x="1086" y="686.1019"/><text fill="#000000" font-family="sans-serif" font-size="14" lengthAdjust="spacing" textLength="75" x="1098" y="693.0339">tipo: String</text><rect fill="none" height="6" style="stroke:#C82930;stroke-width:1.0;" width="6" x="1086" y="705.1698"/><text fill="#000000" font-family="sans-serif" font-size="14" lengthAdjust="spacing" textLength="69" x="1098" y="712.1018">fuerza: int</text><rect fill="none" height="6" style="stroke:#C82930;stroke-width:1.0;" width="6" x="1086" y="724.2377"/><text fill="#000000" font-family="sans-serif" font-size="14" lengthAdjust="spacing" textLength="122" x="1098" y="731.1697">dropeable: Objeto</text><line style="stroke:#181818;stroke-width:0.5;" x1="1079" x2="1225" y1="739.2717" y2="739.2717"/><ellipse cx="1089" cy="754.3056" fill="#84BE84" rx="3" ry="3" style="stroke:#038048;stroke-width:1.0;"/><text fill="#000000" font-family="sans-serif" font-size="14" lengthAdjust="spacing" textLength="103" x="1098" y="758.2376">atacar(Jugador)</text></g><!--class Objeto--><g id="elem_Objeto"><rect codeLine="27" fill="#F1F1F1" height="94.2717" id="Objeto" rx="2.5" ry="2.5" style="stroke:#181818;stroke-width:0.5;" width="153" x="699.5" y="458.5"/><text fill="#000000" font-family="sans-serif" font-size="14" lengthAdjust="spacing" textLength="45" x="753.5" y="478.4659">Objeto</text><line style="stroke:#181818;stroke-width:0.5;" x1="700.5" x2="851.5" y1="487.5679" y2="487.5679"/><rect fill="none" height="6" style="stroke:#C82930;stroke-width:1.0;" width="6" x="707.5" y="499.6019"/><text fill="#000000" font-family="sans-serif" font-size="14" lengthAdjust="spacing" textLength="102" x="719.5" y="506.5339">nombre: String</text><rect fill="none" height="6" style="stroke:#C82930;stroke-width:1.0;" width="6" x="707.5" y="518.6698"/><text fill="#000000" font-family="sans-serif" font-size="14" lengthAdjust="spacing" textLength="127" x="719.5" y="525.6018">descripcion: String</text><rect fill="none" height="6" style="stroke:#C82930;stroke-width:1.0;" width="6" x="707.5" y="537.7377"/><text fill="#000000" font-family="sans-serif" font-size="14" lengthAdjust="spacing" textLength="90" x="719.5" y="544.6697">efecto: String</text></g><!--class Arma--><g id="elem_Arma"><rect codeLine="33" fill="#F1F1F1" height="75.2038" id="Arma" rx="2.5" ry="2.5" style="stroke:#181818;stroke-width:0.5;" width="131" x="902.5" y="668"/><text fill="#000000" font-family="sans-serif" font-size="14" lengthAdjust="spacing" textLength="36" x="950" y="687.9659">Arma</text><line style="stroke:#181818;stroke-width:0.5;" x1="903.5" x2="1032.5" y1="697.0679" y2="697.0679"/><rect fill="none" height="6" style="stroke:#C82930;stroke-width:1.0;" width="6" x="910.5" y="709.1019"/><text fill="#000000" font-family="sans-serif" font-size="14" lengthAdjust="spacing" textLength="60" x="922.5" y="716.0339">da&#241;o: int</text><rect fill="none" height="6" style="stroke:#C82930;stroke-width:1.0;" width="6" x="910.5" y="728.1698"/><text fill="#000000" font-family="sans-serif" font-size="14" lengthAdjust="spacing" textLength="105" x="922.5" y="735.1018">durabilidad: int</text></g><!--class Armadura--><g id="elem_Armadura"><rect codeLine="38" fill="#F1F1F1" height="75.2038" id="Armadura" rx="2.5" ry="2.5" style="stroke:#181818;stroke-width:0.5;" width="215" x="652.5" y="668"/><text fill="#000000" font-family="sans-serif" font-size="14" lengthAdjust="spacing" textLength="68" x="726" y="687.9659">Armadura</text><line style="stroke:#181818;stroke-width:0.5;" x1="653.5" x2="866.5" y1="697.0679" y2="697.0679"/><rect fill="none" height="6" style="stroke:#C82930;stroke-width:1.0;" width="6" x="660.5" y="709.1019"/><text fill="#000000" font-family="sans-serif" font-size="14" lengthAdjust="spacing" textLength="80" x="672.5" y="716.0339">defensa: int</text><rect fill="none" height="6" style="stroke:#C82930;stroke-width:1.0;" width="6" x="660.5" y="728.1698"/><text fill="#000000" font-family="sans-serif" font-size="14" lengthAdjust="spacing" textLength="189" x="672.5" y="735.1018">resistenciaElemental: String</text></g><!--class Ingrediente--><g id="elem_Ingrediente"><rect codeLine="43" fill="#F1F1F1" height="56.1358" id="Ingrediente" rx="2.5" ry="2.5" style="stroke:#181818;stroke-width:0.5;" width="161" x="456.5" y="677.5"/><text fill="#000000" font-family="sans-serif" font-size="14" lengthAdjust="spacing" textLength="80" x="497" y="697.4659">Ingrediente</text><line style="stroke:#181818;stroke-width:0.5;" x1="457.5" x2="616.5" y1="706.5679" y2="706.5679"/><rect fill="none" height="6" style="stroke:#C82930;stroke-width:1.0;" width="6" x="464.5" y="718.6019"/><text fill="#000000" font-family="sans-serif" font-size="14" lengthAdjust="spacing" textLength="135" x="476.5" y="725.5339">efectoCocina: String</text></g><!--class Ubicacion--><g id="elem_Ubicacion"><rect codeLine="47" fill="#F1F1F1" height="94.2717" id="Ubicacion" rx="2.5" ry="2.5" style="stroke:#181818;stroke-width:0.5;" width="137" x="973.5" y="239.5"/><text fill="#000000" font-family="sans-serif" font-size="14" lengthAdjust="spacing" textLength="66" x="1009" y="259.4659">Ubicacion</text><line style="stroke:#181818;stroke-width:0.5;" x1="974.5" x2="1109.5" y1="268.5679" y2="268.5679"/><rect fill="none" height="6" style="stroke:#C82930;stroke-width:1.0;" width="6" x="981.5" y="280.6019"/><text fill="#000000" font-family="sans-serif" font-size="14" lengthAdjust="spacing" textLength="102" x="993.5" y="287.5339">nombre: String</text><rect fill="none" height="6" style="stroke:#C82930;stroke-width:1.0;" width="6" x="981.5" y="299.6698"/><text fill="#000000" font-family="sans-serif" font-size="14" lengthAdjust="spacing" textLength="85" x="993.5" y="306.6018">clima: String</text><rect fill="none" height="6" style="stroke:#C82930;stroke-width:1.0;" width="6" x="981.5" y="318.7377"/><text fill="#000000" font-family="sans-serif" font-size="14" lengthAdjust="spacing" textLength="111" x="993.5" y="325.6697">peligrosidad: int</text></g><!--class Mision--><g id="elem_Mision"><rect codeLine="53" fill="#F1F1F1" height="121.3396" id="Mision" rx="2.5" ry="2.5" style="stroke:#181818;stroke-width:0.5;" width="162" x="7" y="445"/><text fill="#000000" font-family="sans-serif" font-size="14" lengthAdjust="spacing" textLength="45" x="65.5" y="464.9659">Mision</text><line style="stroke:#181818;stroke-width:0.5;" x1="8" x2="168" y1="474.0679" y2="474.0679"/><rect fill="none" height="6" style="stroke:#C82930;stroke-width:1.0;" width="6" x="15" y="486.1019"/><text fill="#000000" font-family="sans-serif" font-size="14" lengthAdjust="spacing" textLength="84" x="27" y="493.0339">titulo: String</text><rect fill="none" height="6" style="stroke:#C82930;stroke-width:1.0;" width="6" x="15" y="505.1698"/><text fill="#000000" font-family="sans-serif" font-size="14" lengthAdjust="spacing" textLength="127" x="27" y="512.1018">descripcion: String</text><rect fill="none" height="6" style="stroke:#C82930;stroke-width:1.0;" width="6" x="15" y="524.2377"/><text fill="#000000" font-family="sans-serif" font-size="14" lengthAdjust="spacing" textLength="136" x="27" y="531.1697">recompensa: Objeto</text><line style="stroke:#181818;stroke-width:0.5;" x1="8" x2="168" y1="539.2717" y2="539.2717"/><ellipse cx="18" cy="554.3056" fill="#84BE84" rx="3" ry="3" style="stroke:#038048;stroke-width:1.0;"/><text fill="#000000" font-family="sans-serif" font-size="14" lengthAdjust="spacing" textLength="76" x="27" y="558.2376">completar()</text></g><!--class BestiaDivina--><g id="elem_BestiaDivina"><rect codeLine="60" fill="#F1F1F1" height="121.3396" id="BestiaDivina" rx="2.5" ry="2.5" style="stroke:#181818;stroke-width:0.5;" width="150" x="1060" y="7"/><text fill="#000000" font-family="sans-serif" font-size="14" lengthAdjust="spacing" textLength="83" x="1093.5" y="26.9659">BestiaDivina</text><line style="stroke:#181818;stroke-width:0.5;" x1="1061" x2="1209" y1="36.0679" y2="36.0679"/><rect fill="none" height="6" style="stroke:#C82930;stroke-width:1.0;" width="6" x="1068" y="48.1019"/><text fill="#000000" font-family="sans-serif" font-size="14" lengthAdjust="spacing" textLength="102" x="1080" y="55.0339">nombre: String</text><rect fill="none" height="6" style="stroke:#C82930;stroke-width:1.0;" width="6" x="1068" y="67.1698"/><text fill="#000000" font-family="sans-serif" font-size="14" lengthAdjust="spacing" textLength="93" x="1080" y="74.1018">region: String</text><rect fill="none" height="6" style="stroke:#C82930;stroke-width:1.0;" width="6" x="1068" y="86.2377"/><text fill="#000000" font-family="sans-serif" font-size="14" lengthAdjust="spacing" textLength="124" x="1080" y="93.1697">jefeFinal: Enemigo</text><line style="stroke:#181818;stroke-width:0.5;" x1="1061" x2="1209" y1="101.2717" y2="101.2717"/><ellipse cx="1071" cy="116.3056" fill="#84BE84" rx="3" ry="3" style="stroke:#038048;stroke-width:1.0;"/><text fill="#000000" font-family="sans-serif" font-size="14" lengthAdjust="spacing" textLength="53" x="1080" y="120.2376">liberar()</text></g><!--class Reliquia--><g id="elem_Reliquia"><rect codeLine="67" fill="#F1F1F1" height="102.2717" id="Reliquia" rx="2.5" ry="2.5" style="stroke:#181818;stroke-width:0.5;" width="170" x="204" y="454.5"/><text fill="#000000" font-family="sans-serif" font-size="14" lengthAdjust="spacing" textLength="55" x="261.5" y="474.4659">Reliquia</text><line style="stroke:#181818;stroke-width:0.5;" x1="205" x2="373" y1="483.5679" y2="483.5679"/><rect fill="none" height="6" style="stroke:#C82930;stroke-width:1.0;" width="6" x="212" y="495.6019"/><text fill="#000000" font-family="sans-serif" font-size="14" lengthAdjust="spacing" textLength="102" x="224" y="502.5339">nombre: String</text><rect fill="none" height="6" style="stroke:#C82930;stroke-width:1.0;" width="6" x="212" y="514.6698"/><text fill="#000000" font-family="sans-serif" font-size="14" lengthAdjust="spacing" textLength="144" x="224" y="521.6018">poderEspecial: String</text><line style="stroke:#181818;stroke-width:0.5;" x1="205" x2="373" y1="529.7038" y2="529.7038"/><ellipse cx="215" cy="544.7377" fill="#84BE84" rx="3" ry="3" style="stroke:#038048;stroke-width:1.0;"/><text fill="#000000" font-family="sans-serif" font-size="14" lengthAdjust="spacing" textLength="53" x="224" y="548.6697">activar()</text></g><!--class SistemaCocina--><g id="elem_SistemaCocina"><rect codeLine="73" fill="#F1F1F1" height="56.1358" id="SistemaCocina" rx="2.5" ry="2.5" style="stroke:#181818;stroke-width:0.5;" width="255" x="409.5" y="477.5"/><text fill="#000000" font-family="sans-serif" font-size="14" lengthAdjust="spacing" textLength="98" x="488" y="497.4659">SistemaCocina</text><line style="stroke:#181818;stroke-width:0.5;" x1="410.5" x2="663.5" y1="506.5679" y2="506.5679"/><ellipse cx="420.5" cy="521.6019" fill="#84BE84" rx="3" ry="3" style="stroke:#038048;stroke-width:1.0;"/><text fill="#000000" font-family="sans-serif" font-size="14" lengthAdjust="spacing" textLength="229" x="429.5" y="525.5339">cocinar(List&lt;Ingrediente&gt;): Objeto</text></g><!--link Jugador to Objeto--><g id="link_Jugador_Objeto"><path codeLine="77" d="M438.5,325.67 C506.08,355.96 601.35,400.5 682,445 C689.61,449.2 697.45,453.76 705.2,458.43 " fill="none" id="Jugador-Objeto" style="stroke:#181818;stroke-width:1.0;"/><polygon fill="#000000" points="629.4761,408.0812,622.6884,401.4194,620.0691,406.6814,629.4761,408.0812" style="stroke:#000000;stroke-width:1.0;"/><text fill="#000000" font-family="sans-serif" font-size="13" lengthAdjust="spacing" textLength="36" x="634" y="410.897">posee</text><text fill="#000000" font-family="sans-serif" font-size="13" lengthAdjust="spacing" textLength="7" x="446.6047" y="325.3088">1</text><text fill="#000000" font-family="sans-serif" font-size="13" lengthAdjust="spacing" textLength="20" x="672.8275" y="446.8511">0..*</text></g><!--link Jugador to Mision--><g id="link_Jugador_Mision"><path codeLine="78" d="M263.42,359.76 C229.95,387.38 192.19,418.53 160.3,444.84 " fill="none" id="Jugador-Mision" style="stroke:#181818;stroke-width:1.0;"/><polygon fill="#000000" points="221.1432,409.0351,229.9905,405.5456,226.2498,401.0117,221.1432,409.0351" style="stroke:#000000;stroke-width:1.0;"/><text fill="#000000" font-family="sans-serif" font-size="13" lengthAdjust="spacing" textLength="38" x="234" y="410.897">realiza</text><text fill="#000000" font-family="sans-serif" font-size="13" lengthAdjust="spacing" textLength="7" x="248.5928" y="362.2322">1</text><text fill="#000000" font-family="sans-serif" font-size="13" lengthAdjust="spacing" textLength="20" x="147.8928" y="433.3305">0..*</text></g><!--link Jugador to Reliquia--><g id="link_Jugador_Reliquia"><path codeLine="79" d="M328.53,366.15 C320.11,395.62 310.78,428.28 303.3,454.47 " fill="none" id="Jugador-Reliquia" style="stroke:#181818;stroke-width:1.0;"/><polygon fill="#000000" points="323.6266,410.6607,328.937,402.7708,323.2852,401.1563,323.6266,410.6607" style="stroke:#000000;stroke-width:1.0;"/><text fill="#000000" font-family="sans-serif" font-size="13" lengthAdjust="spacing" textLength="50" x="334" y="410.897">controla</text><text fill="#000000" font-family="sans-serif" font-size="13" lengthAdjust="spacing" textLength="7" x="319.0547" y="388.4598">1</text><text fill="#000000" font-family="sans-serif" font-size="13" lengthAdjust="spacing" textLength="20" x="283.9316" y="442.6554">0..*</text></g><!--reverse link Personaje to Enemigo--><g id="link_Personaje_Enemigo"><path codeLine="81" d="M1152,574.72 C1152,601.53 1152,616.7 1152,644.82 " fill="none" id="Personaje-backto-Enemigo" style="stroke:#181818;stroke-width:1.0;"/><polygon fill="none" points="1152,556.72,1146,574.72,1158,574.72,1152,556.72" style="stroke:#181818;stroke-width:1.0;"/></g><!--reverse link Objeto to Arma--><g id="link_Objeto_Arma"><path codeLine="83" d="M833.3012,565.5916 C867.3212,600.6716 900.95,635.35 932.45,667.84 " fill="none" id="Objeto-backto-Arma" style="stroke:#181818;stroke-width:1.0;"/><polygon fill="none" points="820.77,552.67,828.994,569.7687,837.6084,561.4146,820.77,552.67" style="stroke:#181818;stroke-width:1.0;"/></g><!--reverse link Objeto to Armadura--><g id="link_Objeto_Armadura"><path codeLine="84" d="M770.8175,570.6113 C767.9775,605.6913 765.59,635.35 762.96,667.84 " fill="none" id="Objeto-backto-Armadura" style="stroke:#181818;stroke-width:1.0;"/><polygon fill="none" points="772.27,552.67,764.8371,570.1271,776.7979,571.0955,772.27,552.67" style="stroke:#181818;stroke-width:1.0;"/></g><!--reverse link Objeto to Ingrediente--><g id="link_Objeto_Ingrediente"><path codeLine="85" d="M706.409,564.1536 C659.649,602.8936 608.33,645.41 569.62,677.48 " fill="none" id="Objeto-backto-Ingrediente" style="stroke:#181818;stroke-width:1.0;"/><polygon fill="none" points="720.27,552.67,702.5812,559.5333,710.2369,568.7739,720.27,552.67" style="stroke:#181818;stroke-width:1.0;"/></g><!--link Ubicacion to Personaje--><g id="link_Ubicacion_Personaje"><path codeLine="87" d="M1065.33,333.52 C1083.3,368.98 1108.12,417.94 1126.6,454.38 " fill="none" id="Ubicacion-Personaje" style="stroke:#181818;stroke-width:1.0;"/><polygon fill="#000000" points="1110.2608,410.3127,1108.7923,400.9162,1103.5496,403.5739,1110.2608,410.3127" style="stroke:#000000;stroke-width:1.0;"/><text fill="#000000" font-family="sans-serif" font-size="13" lengthAdjust="spacing" textLength="52" x="1117" y="410.897">contiene</text><text fill="#000000" font-family="sans-serif" font-size="13" lengthAdjust="spacing" textLength="7" x="1061.2425" y="355.6034">1</text><text fill="#000000" font-family="sans-serif" font-size="13" lengthAdjust="spacing" textLength="20" x="1101.4006" y="442.5522">0..*</text></g><!--link Ubicacion to Enemigo--><g id="link_Ubicacion_Enemigo"><path codeLine="88" d="M1025.53,333.78 C1008.04,390.65 986.88,489.07 1018,566 C1030.61,597.17 1053.97,625.21 1077.7,647.78 " fill="none" id="Ubicacion-Enemigo" style="stroke:#181818;stroke-width:1.0;"/><polygon fill="#000000" points="1023.8195,510.7854,1025.2362,501.3809,1019.4378,502.3443,1023.8195,510.7854" style="stroke:#000000;stroke-width:1.0;"/><text fill="#000000" font-family="sans-serif" font-size="13" lengthAdjust="spacing" textLength="38" x="1032" y="510.897">habita</text><text fill="#000000" font-family="sans-serif" font-size="13" lengthAdjust="spacing" textLength="7" x="1015.7217" y="355.5516">1</text><text fill="#000000" font-family="sans-serif" font-size="13" lengthAdjust="spacing" textLength="20" x="1049.9286" y="638.5892">0..*</text></g><!--link Ubicacion to Objeto--><g id="link_Ubicacion_Objeto"><path codeLine="89" d="M984.37,333.51 C960.38,352.74 932.28,375.38 907,396 C882.06,416.35 854.61,439.04 831.31,458.39 " fill="none" id="Ubicacion-Objeto" style="stroke:#181818;stroke-width:1.0;"/><polygon fill="#000000" points="908.1259,409.0139,916.9922,405.573,913.2763,401.0187,908.1259,409.0139" style="stroke:#000000;stroke-width:1.0;"/><text fill="#000000" font-family="sans-serif" font-size="13" lengthAdjust="spacing" textLength="52" x="921" y="410.897">contiene</text><text fill="#000000" font-family="sans-serif" font-size="13" lengthAdjust="spacing" textLength="7" x="968.3915" y="355.5919">1</text><text fill="#000000" font-family="sans-serif" font-size="13" lengthAdjust="spacing" textLength="20" x="818.2481" y="446.805">0..*</text></g><!--link BestiaDivina to Enemigo--><g id="link_BestiaDivina_Enemigo"><path codeLine="91" d="M1167.08,128.23 C1171.53,138 1175.7,148.15 1179,158 C1237.1,331.5 1282.32,389.52 1234,566 C1226.4,593.76 1211.64,621.6 1196.71,644.97 " fill="none" id="BestiaDivina-Enemigo" style="stroke:#181818;stroke-width:1.0;"/><polygon fill="#000000" points="1258.2862,410.8448,1260.7025,401.6463,1254.8343,401.9828,1258.2862,410.8448" style="stroke:#000000;stroke-width:1.0;"/><text fill="#000000" font-family="sans-serif" font-size="13" lengthAdjust="spacing" textLength="54" x="1267" y="410.897">tiene jefe</text><text fill="#000000" font-family="sans-serif" font-size="13" lengthAdjust="spacing" textLength="7" x="1163.3846" y="150.1529">1</text><text fill="#000000" font-family="sans-serif" font-size="13" lengthAdjust="spacing" textLength="7" x="1194.99" y="633.046">1</text></g><!--link BestiaDivina to Ubicacion--><g id="link_BestiaDivina_Ubicacion"><path codeLine="92" d="M1109.46,128.08 C1094.41,163.21 1075.64,207 1061.73,239.47 " fill="none" id="BestiaDivina-Ubicacion" style="stroke:#181818;stroke-width:1.0;"/><polygon fill="#000000" points="1097.0307,172.4489,1103.2946,165.2924,1097.8918,162.9774,1097.0307,172.4489" style="stroke:#000000;stroke-width:1.0;"/><text fill="#000000" font-family="sans-serif" font-size="13" lengthAdjust="spacing" textLength="62" x="1108" y="172.897">situada en</text><text fill="#000000" font-family="sans-serif" font-size="13" lengthAdjust="spacing" textLength="7" x="1098.9208" y="150.4185">1</text><text fill="#000000" font-family="sans-serif" font-size="13" lengthAdjust="spacing" textLength="7" x="1057.3167" y="227.5515">1</text></g><!--link Jugador to SistemaCocina--><g id="link_Jugador_SistemaCocina"><path codeLine="94" d="M418.41,366.15 C451.79,405.08 489.93,449.58 513.74,477.36 " fill="none" id="Jugador-SistemaCocina" style="stroke:#181818;stroke-width:1.0;"/><polygon fill="#000000" points="464.2541,409.6492,460.5987,400.8691,456.1361,404.6946,464.2541,409.6492" style="stroke:#000000;stroke-width:1.0;"/><text fill="#000000" font-family="sans-serif" font-size="13" lengthAdjust="spacing" textLength="21" x="470" y="410.897">usa</text><text fill="#000000" font-family="sans-serif" font-size="13" lengthAdjust="spacing" textLength="7" x="417.5014" y="388.4598">1</text><text fill="#000000" font-family="sans-serif" font-size="13" lengthAdjust="spacing" textLength="7" x="500.5518" y="465.8499">1</text></g><!--link SistemaCocina to Ingrediente--><g id="link_SistemaCocina_Ingrediente"><path codeLine="95" d="M537,533.62 C537,571.43 537,639.59 537,677.39 " fill="none" id="SistemaCocina-Ingrediente" style="stroke:#181818;stroke-width:1.0;"/><polygon fill="#000000" points="542,610.853,544.9389,601.8079,539.0611,601.8079,542,610.853" style="stroke:#000000;stroke-width:1.0;"/><text fill="#000000" font-family="sans-serif" font-size="13" lengthAdjust="spacing" textLength="35" x="551" y="610.897">utiliza</text><text fill="#000000" font-family="sans-serif" font-size="13" lengthAdjust="spacing" textLength="7" x="529.2344" y="555.59">1</text><text fill="#000000" font-family="sans-serif" font-size="13" lengthAdjust="spacing" textLength="20" x="514.6875" y="665.8869">0..*</text></g><!--SRC=[ZLJRZjGm37tlLqJpDCDgLknhjLg9oo21G21MV82RUZiUfKbnqXKiy55y0p-6CsaxwSuMyTJMFZa-ntQwfngL9jO6YtrynxOBtrMBRONiYq8Ry5wzwnke7QiVXL9RwzgAiLItWSasCUB1z7Mfo8RunUZ91xIQO8nTz1xuOtN0uDRfiObHIIA33Ztm-fEKSnOEUCpWjyuubl2NYZHeSdPJ_1hLJD0bFJM1SOtBGXSry0VomhFEY7OMMsfSeWdKvIUsTptom-HWMxFh42eZXPA3o0e1j8WSsfCn9yYYFlIQgOksyZ3UeGud3HFP2suXKTNmvxSxIUePAZ9Kmz3ysOcO7Ku9iVNmr81s1bkq0SnvrRUsOQn9iaEVaxnNJfE5S_Wqg2NJsb0BUQ13Gmqx_uJ-DAfnBg4txZ_QnwXTsoMdfn75cC4WKyh6yn9z87XDzs9bIIzZywZ0GJhmHav8iuRDYGKCoKsPqtyMPrzxMgJkN8syyntA14o-fN8Nw7xETHj7rK9g-v5GBCLtNh-Nr7KsfflDP5oEZtTsTRLIswrQFR-yVBOQygNgd4TKDmkerFzICOAX1rZ4ZKPBfPqDx4o45gVxUVrJi6ElYk5I78DnGyy2SMLdmSnSKPmsR2vYAfTK23eQMq8FQagrbxiJu1_8iLKPQJ5Rd15-bR4cPDmKWI-XfugbyhBTK8D26-aVTraUi_cNIdwa0fmlnLnsrZE11ne6-1S0]--></g></svg>