<?xml version="1.0" encoding="us-ascii" standalone="no"?><svg xmlns="http://www.w3.org/2000/svg" xmlns:xlink="http://www.w3.org/1999/xlink" contentStyleType="text/css" height="309px" preserveAspectRatio="none" style="width:618px;height:309px;background:#FFFFFF;" version="1.1" viewBox="0 0 618 309" width="618px" zoomAndPan="magnify"><defs/><g><!--class Jugador--><g id="elem_Jugador"><rect fill="#F1F1F1" height="29.0679" id="Jugador" rx="2.5" ry="2.5" style="stroke:#181818;stroke-width:0.5;" width="59" x="156" y="96"/><text fill="#000000" font-family="sans-serif" font-size="14" lengthAdjust="spacing" textLength="53" x="159" y="115.9659">Jugador</text></g><!--class Objeto--><g id="elem_Objeto"><rect fill="#F1F1F1" height="29.0679" id="Objeto" rx="2.5" ry="2.5" style="stroke:#181818;stroke-width:0.5;" width="51" x="329" y="185"/><text fill="#000000" font-family="sans-serif" font-size="14" lengthAdjust="spacing" textLength="45" x="332" y="204.9659">Objeto</text></g><!--class Mision--><g id="elem_Mision"><rect fill="#F1F1F1" height="29.0679" id="Mision" rx="2.5" ry="2.5" style="stroke:#181818;stroke-width:0.5;" width="51" x="103" y="185"/><text fill="#000000" font-family="sans-serif" font-size="14" lengthAdjust="spacing" textLength="45" x="106" y="204.9659">Mision</text></g><!--class Reliquia--><g id="elem_Reliquia"><rect fill="#F1F1F1" height="29.0679" id="Reliquia" rx="2.5" ry="2.5" style="stroke:#181818;stroke-width:0.5;" width="61" x="7" y="185"/><text fill="#000000" font-family="sans-serif" font-size="14" lengthAdjust="spacing" textLength="55" x="10" y="204.9659">Reliquia</text></g><!--class Personaje--><g id="elem_Personaje"><rect fill="#F1F1F1" height="29.0679" id="Personaje" rx="2.5" ry="2.5" style="stroke:#181818;stroke-width:0.5;" width="72" x="415.5" y="185"/><text fill="#000000" font-family="sans-serif" font-size="14" lengthAdjust="spacing" textLength="66" x="418.5" y="204.9659">Personaje</text></g><!--class Enemigo--><g id="elem_Enemigo"><rect fill="#F1F1F1" height="29.0679" id="Enemigo" rx="2.5" ry="2.5" style="stroke:#181818;stroke-width:0.5;" width="65" x="508" y="274"/><text fill="#000000" font-family="sans-serif" font-size="14" lengthAdjust="spacing" textLength="59" x="511" y="293.9659">Enemigo</text></g><!--class Arma--><g id="elem_Arma"><rect fill="#F1F1F1" height="29.0679" id="Arma" rx="2.5" ry="2.5" style="stroke:#181818;stroke-width:0.5;" width="42" x="321.5" y="274"/><text fill="#000000" font-family="sans-serif" font-size="14" lengthAdjust="spacing" textLength="36" x="324.5" y="293.9659">Arma</text></g><!--class Armadura--><g id="elem_Armadura"><rect fill="#F1F1F1" height="29.0679" id="Armadura" rx="2.5" ry="2.5" style="stroke:#181818;stroke-width:0.5;" width="74" x="398.5" y="274"/><text fill="#000000" font-family="sans-serif" font-size="14" lengthAdjust="spacing" textLength="68" x="401.5" y="293.9659">Armadura</text></g><!--class Ingrediente--><g id="elem_Ingrediente"><rect fill="#F1F1F1" height="29.0679" id="Ingrediente" rx="2.5" ry="2.5" style="stroke:#181818;stroke-width:0.5;" width="86" x="199.5" y="274"/><text fill="#000000" font-family="sans-serif" font-size="14" lengthAdjust="spacing" textLength="80" x="202.5" y="293.9659">Ingrediente</text></g><!--class Ubicacion--><g id="elem_Ubicacion"><rect fill="#F1F1F1" height="29.0679" id="Ubicacion" rx="2.5" ry="2.5" style="stroke:#181818;stroke-width:0.5;" width="72" x="450.5" y="96"/><text fill="#000000" font-family="sans-serif" font-size="14" lengthAdjust="spacing" textLength="66" x="453.5" y="115.9659">Ubicacion</text></g><!--class BestiaDivina--><g id="elem_BestiaDivina"><rect fill="#F1F1F1" height="29.0679" id="BestiaDivina" rx="2.5" ry="2.5" style="stroke:#181818;stroke-width:0.5;" width="89" x="522" y="7"/><text fill="#000000" font-family="sans-serif" font-size="14" lengthAdjust="spacing" textLength="83" x="525" y="26.9659">BestiaDivina</text></g><!--class SistemaCocina--><g id="elem_SistemaCocina"><rect fill="#F1F1F1" height="29.0679" id="SistemaCocina" rx="2.5" ry="2.5" style="stroke:#181818;stroke-width:0.5;" width="104" x="189.5" y="185"/><text fill="#000000" font-family="sans-serif" font-size="14" lengthAdjust="spacing" textLength="98" x="192.5" y="204.9659">SistemaCocina</text></g><!--link Jugador to Objeto--><g id="link_Jugador_Objeto"><path codeLine="5" d="M211.91,125.09 C243.84,141.53 297.23,169.02 328.83,185.29 " fill="none" id="Jugador-Objeto" style="stroke:#181818;stroke-width:1.0;"/></g><!--link Jugador to Mision--><g id="link_Jugador_Mision"><path codeLine="6" d="M176.59,125.09 C165.95,141.34 148.23,168.38 137.53,184.71 " fill="none" id="Jugador-Mision" style="stroke:#181818;stroke-width:1.0;"/></g><!--link Jugador to Reliquia--><g id="link_Jugador_Reliquia"><path codeLine="7" d="M162.38,125.09 C134.73,141.34 88.74,168.38 60.95,184.71 " fill="none" id="Jugador-Reliquia" style="stroke:#181818;stroke-width:1.0;"/></g><!--reverse link Personaje to Enemigo--><g id="link_Personaje_Enemigo"><path codeLine="9" d="M478.2804,226.6739 C494.9004,242.9239 509.69,257.38 526.4,273.71 " fill="none" id="Personaje-backto-Enemigo" style="stroke:#181818;stroke-width:1.0;"/><polygon fill="none" points="465.41,214.09,474.0858,230.964,482.475,222.3837,465.41,214.09" style="stroke:#181818;stroke-width:1.0;"/></g><!--reverse link Objeto to Arma--><g id="link_Objeto_Arma"><path codeLine="11" d="M350.162,231.9214 C347.922,248.1714 346.65,257.38 344.4,273.71 " fill="none" id="Objeto-backto-Arma" style="stroke:#181818;stroke-width:1.0;"/><polygon fill="none" points="352.62,214.09,344.2182,231.1021,356.1058,232.7407,352.62,214.09" style="stroke:#181818;stroke-width:1.0;"/></g><!--reverse link Objeto to Armadura--><g id="link_Objeto_Armadura"><path codeLine="12" d="M379.4215,227.2679 C394.5415,243.5179 407.46,257.38 422.67,273.71 " fill="none" id="Objeto-backto-Armadura" style="stroke:#181818;stroke-width:1.0;"/><polygon fill="none" points="367.16,214.09,375.0289,231.355,383.8141,223.1807,367.16,214.09" style="stroke:#181818;stroke-width:1.0;"/></g><!--reverse link Objeto to Ingrediente--><g id="link_Objeto_Ingrediente"><path codeLine="13" d="M322.7847,225.132 C301.8647,241.382 281.27,257.38 260.25,273.71 " fill="none" id="Objeto-backto-Ingrediente" style="stroke:#181818;stroke-width:1.0;"/><polygon fill="none" points="337,214.09,319.104,220.3936,326.4654,229.8704,337,214.09" style="stroke:#181818;stroke-width:1.0;"/></g><!--link Ubicacion to Personaje--><g id="link_Ubicacion_Personaje"><path codeLine="15" d="M481.03,125.09 C474.49,141.34 463.62,168.38 457.05,184.71 " fill="none" id="Ubicacion-Personaje" style="stroke:#181818;stroke-width:1.0;"/></g><!--link Ubicacion to Enemigo--><g id="link_Ubicacion_Enemigo"><path codeLine="16" d="M490.65,125.02 C500.67,157.7 526.15,240.72 536.26,273.69 " fill="none" id="Ubicacion-Enemigo" style="stroke:#181818;stroke-width:1.0;"/></g><!--link Ubicacion to Objeto--><g id="link_Ubicacion_Objeto"><path codeLine="17" d="M465.88,125.09 C441.22,141.34 400.2,168.38 375.42,184.71 " fill="none" id="Ubicacion-Objeto" style="stroke:#181818;stroke-width:1.0;"/></g><!--link BestiaDivina to Enemigo--><g id="link_BestiaDivina_Enemigo"><path codeLine="19" d="M565.17,36.01 C560.73,81.36 546.35,227.92 541.85,273.7 " fill="none" id="BestiaDivina-Enemigo" style="stroke:#181818;stroke-width:1.0;"/></g><!--link BestiaDivina to Ubicacion--><g id="link_BestiaDivina_Ubicacion"><path codeLine="20" d="M554,36.09 C539.06,52.34 514.2,79.38 499.18,95.71 " fill="none" id="BestiaDivina-Ubicacion" style="stroke:#181818;stroke-width:1.0;"/></g><!--link Jugador to SistemaCocina--><g id="link_Jugador_SistemaCocina"><path codeLine="22" d="M194.25,125.09 C204.71,141.34 222.11,168.38 232.63,184.71 " fill="none" id="Jugador-SistemaCocina" style="stroke:#181818;stroke-width:1.0;"/></g><!--link SistemaCocina to Ingrediente--><g id="link_SistemaCocina_Ingrediente"><path codeLine="23" d="M241.66,214.09 C241.84,230.34 242.15,257.38 242.34,273.71 " fill="none" id="SistemaCocina-Ingrediente" style="stroke:#181818;stroke-width:1.0;"/></g><!--SRC=[PP1B3i8m34JtFeKlq1kmuRS02O507C1DhDPLaz0aHKBYyAGgL4tPsSyUpyYrQ4ObNhKCzL2pUSGN6ZOb-m1mx2lIpcDHuBbiEBevEKaGP-VaogrqlH309ScTfOPnzKw3lMKZbGCOhunmxGtz0Ttx71vivLaBsyW0zr8KgUGwk4qUEVvvPV2R7ZOSej1Edc9flhpaapZx0TuaH3QqTIhjGTRX8ki7]--></g></svg>