<?xml version="1.0" encoding="us-ascii" standalone="no"?><svg xmlns="http://www.w3.org/2000/svg" xmlns:xlink="http://www.w3.org/1999/xlink" contentStyleType="text/css" height="773px" preserveAspectRatio="none" style="width:1003px;height:773px;background:#FFFFFF;" version="1.1" viewBox="0 0 1003 773" width="1003px" zoomAndPan="magnify"><defs/><g><!--class Jugador--><g id="elem_Jugador"><rect codeLine="5" fill="#F1F1F1" height="159.4754" id="Jugador" rx="2.5" ry="2.5" style="stroke:#181818;stroke-width:0.5;" width="161" x="163" y="207"/><text fill="#000000" font-family="sans-serif" font-size="14" lengthAdjust="spacing" textLength="53" x="217" y="226.9659">Jugador</text><line style="stroke:#181818;stroke-width:0.5;" x1="164" x2="323" y1="236.0679" y2="236.0679"/><text fill="#000000" font-family="sans-serif" font-size="14" lengthAdjust="spacing" textLength="53" x="169" y="255.0339">nombre</text><text fill="#000000" font-family="sans-serif" font-size="14" lengthAdjust="spacing" textLength="37" x="169" y="274.1018">salud</text><text fill="#000000" font-family="sans-serif" font-size="14" lengthAdjust="spacing" textLength="73" x="169" y="293.1697">resistencia</text><line style="stroke:#181818;stroke-width:0.5;" x1="164" x2="323" y1="301.2717" y2="301.2717"/><text fill="#000000" font-family="sans-serif" font-size="14" lengthAdjust="spacing" textLength="128" x="169" y="320.2376">usarObjeto(Objeto)</text><text fill="#000000" font-family="sans-serif" font-size="14" lengthAdjust="spacing" textLength="149" x="169" y="339.3055">interactuar(Personaje)</text><text fill="#000000" font-family="sans-serif" font-size="14" lengthAdjust="spacing" textLength="130" x="169" y="358.3734">explorar(Ubicacion)</text></g><!--class Personaje--><g id="elem_Personaje"><rect codeLine="14" fill="#F1F1F1" height="102.2717" id="Personaje" rx="2.5" ry="2.5" style="stroke:#181818;stroke-width:0.5;" width="88" x="800.5" y="454.5"/><text fill="#000000" font-family="sans-serif" font-size="14" lengthAdjust="spacing" textLength="66" x="811.5" y="474.4659">Personaje</text><line style="stroke:#181818;stroke-width:0.5;" x1="801.5" x2="887.5" y1="483.5679" y2="483.5679"/><text fill="#000000" font-family="sans-serif" font-size="14" lengthAdjust="spacing" textLength="53" x="806.5" y="502.5339">nombre</text><text fill="#000000" font-family="sans-serif" font-size="14" lengthAdjust="spacing" textLength="50" x="806.5" y="521.6018">dialogo</text><line style="stroke:#181818;stroke-width:0.5;" x1="801.5" x2="887.5" y1="529.7038" y2="529.7038"/><text fill="#000000" font-family="sans-serif" font-size="14" lengthAdjust="spacing" textLength="76" x="806.5" y="548.6697">darMision()</text></g><!--class Enemigo--><g id="elem_Enemigo"><rect codeLine="20" fill="#F1F1F1" height="121.3396" id="Enemigo" rx="2.5" ry="2.5" style="stroke:#181818;stroke-width:0.5;" width="115" x="787" y="645"/><text fill="#000000" font-family="sans-serif" font-size="14" lengthAdjust="spacing" textLength="59" x="815" y="664.9659">Enemigo</text><line style="stroke:#181818;stroke-width:0.5;" x1="788" x2="901" y1="674.0679" y2="674.0679"/><text fill="#000000" font-family="sans-serif" font-size="14" lengthAdjust="spacing" textLength="26" x="793" y="693.0339">tipo</text><text fill="#000000" font-family="sans-serif" font-size="14" lengthAdjust="spacing" textLength="43" x="793" y="712.1018">fuerza</text><text fill="#000000" font-family="sans-serif" font-size="14" lengthAdjust="spacing" textLength="69" x="793" y="731.1697">dropeable</text><line style="stroke:#181818;stroke-width:0.5;" x1="788" x2="901" y1="739.2717" y2="739.2717"/><text fill="#000000" font-family="sans-serif" font-size="14" lengthAdjust="spacing" textLength="103" x="793" y="758.2376">atacar(Jugador)</text></g><!--class Objeto--><g id="elem_Objeto"><rect codeLine="27" fill="#F1F1F1" height="94.2717" id="Objeto" rx="2.5" ry="2.5" style="stroke:#181818;stroke-width:0.5;" width="90" x="501.5" y="458.5"/><text fill="#000000" font-family="sans-serif" font-size="14" lengthAdjust="spacing" textLength="45" x="524" y="478.4659">Objeto</text><line style="stroke:#181818;stroke-width:0.5;" x1="502.5" x2="590.5" y1="487.5679" y2="487.5679"/><text fill="#000000" font-family="sans-serif" font-size="14" lengthAdjust="spacing" textLength="53" x="507.5" y="506.5339">nombre</text><text fill="#000000" font-family="sans-serif" font-size="14" lengthAdjust="spacing" textLength="78" x="507.5" y="525.6018">descripcion</text><text fill="#000000" font-family="sans-serif" font-size="14" lengthAdjust="spacing" textLength="41" x="507.5" y="544.6697">efecto</text></g><!--class Arma--><g id="elem_Arma"><rect codeLine="33" fill="#F1F1F1" height="75.2038" id="Arma" rx="2.5" ry="2.5" style="stroke:#181818;stroke-width:0.5;" width="91" x="644" y="668"/><text fill="#000000" font-family="sans-serif" font-size="14" lengthAdjust="spacing" textLength="36" x="671.5" y="687.9659">Arma</text><line style="stroke:#181818;stroke-width:0.5;" x1="645" x2="734" y1="697.0679" y2="697.0679"/><text fill="#000000" font-family="sans-serif" font-size="14" lengthAdjust="spacing" textLength="34" x="650" y="716.0339">da&#241;o</text><text fill="#000000" font-family="sans-serif" font-size="14" lengthAdjust="spacing" textLength="79" x="650" y="735.1018">durabilidad</text></g><!--class Armadura--><g id="elem_Armadura"><rect codeLine="38" fill="#F1F1F1" height="75.2038" id="Armadura" rx="2.5" ry="2.5" style="stroke:#181818;stroke-width:0.5;" width="152" x="456.5" y="668"/><text fill="#000000" font-family="sans-serif" font-size="14" lengthAdjust="spacing" textLength="68" x="498.5" y="687.9659">Armadura</text><line style="stroke:#181818;stroke-width:0.5;" x1="457.5" x2="607.5" y1="697.0679" y2="697.0679"/><text fill="#000000" font-family="sans-serif" font-size="14" lengthAdjust="spacing" textLength="54" x="462.5" y="716.0339">defensa</text><text fill="#000000" font-family="sans-serif" font-size="14" lengthAdjust="spacing" textLength="140" x="462.5" y="735.1018">resistenciaElemental</text></g><!--class Ingrediente--><g id="elem_Ingrediente"><rect codeLine="43" fill="#F1F1F1" height="56.1358" id="Ingrediente" rx="2.5" ry="2.5" style="stroke:#181818;stroke-width:0.5;" width="98" x="323.5" y="677.5"/><text fill="#000000" font-family="sans-serif" font-size="14" lengthAdjust="spacing" textLength="80" x="332.5" y="697.4659">Ingrediente</text><line style="stroke:#181818;stroke-width:0.5;" x1="324.5" x2="420.5" y1="706.5679" y2="706.5679"/><text fill="#000000" font-family="sans-serif" font-size="14" lengthAdjust="spacing" textLength="86" x="329.5" y="725.5339">efectoCocina</text></g><!--class Ubicacion--><g id="elem_Ubicacion"><rect codeLine="47" fill="#F1F1F1" height="94.2717" id="Ubicacion" rx="2.5" ry="2.5" style="stroke:#181818;stroke-width:0.5;" width="97" x="696" y="239.5"/><text fill="#000000" font-family="sans-serif" font-size="14" lengthAdjust="spacing" textLength="66" x="711.5" y="259.4659">Ubicacion</text><line style="stroke:#181818;stroke-width:0.5;" x1="697" x2="792" y1="268.5679" y2="268.5679"/><text fill="#000000" font-family="sans-serif" font-size="14" lengthAdjust="spacing" textLength="53" x="702" y="287.5339">nombre</text><text fill="#000000" font-family="sans-serif" font-size="14" lengthAdjust="spacing" textLength="36" x="702" y="306.6018">clima</text><text fill="#000000" font-family="sans-serif" font-size="14" lengthAdjust="spacing" textLength="85" x="702" y="325.6697">peligrosidad</text></g><!--class Mision--><g id="elem_Mision"><rect codeLine="53" fill="#F1F1F1" height="121.3396" id="Mision" rx="2.5" ry="2.5" style="stroke:#181818;stroke-width:0.5;" width="95" x="7" y="445"/><text fill="#000000" font-family="sans-serif" font-size="14" lengthAdjust="spacing" textLength="45" x="32" y="464.9659">Mision</text><line style="stroke:#181818;stroke-width:0.5;" x1="8" x2="101" y1="474.0679" y2="474.0679"/><text fill="#000000" font-family="sans-serif" font-size="14" lengthAdjust="spacing" textLength="35" x="13" y="493.0339">titulo</text><text fill="#000000" font-family="sans-serif" font-size="14" lengthAdjust="spacing" textLength="78" x="13" y="512.1018">descripcion</text><text fill="#000000" font-family="sans-serif" font-size="14" lengthAdjust="spacing" textLength="83" x="13" y="531.1697">recompensa</text><line style="stroke:#181818;stroke-width:0.5;" x1="8" x2="101" y1="539.2717" y2="539.2717"/><text fill="#000000" font-family="sans-serif" font-size="14" lengthAdjust="spacing" textLength="76" x="13" y="558.2376">completar()</text></g><!--class BestiaDivina--><g id="elem_BestiaDivina"><rect codeLine="60" fill="#F1F1F1" height="121.3396" id="BestiaDivina" rx="2.5" ry="2.5" style="stroke:#181818;stroke-width:0.5;" width="89" x="783" y="7"/><text fill="#000000" font-family="sans-serif" font-size="14" lengthAdjust="spacing" textLength="83" x="786" y="26.9659">BestiaDivina</text><line style="stroke:#181818;stroke-width:0.5;" x1="784" x2="871" y1="36.0679" y2="36.0679"/><text fill="#000000" font-family="sans-serif" font-size="14" lengthAdjust="spacing" textLength="53" x="789" y="55.0339">nombre</text><text fill="#000000" font-family="sans-serif" font-size="14" lengthAdjust="spacing" textLength="44" x="789" y="74.1018">region</text><text fill="#000000" font-family="sans-serif" font-size="14" lengthAdjust="spacing" textLength="57" x="789" y="93.1697">jefeFinal</text><line style="stroke:#181818;stroke-width:0.5;" x1="784" x2="871" y1="101.2717" y2="101.2717"/><text fill="#000000" font-family="sans-serif" font-size="14" lengthAdjust="spacing" textLength="53" x="789" y="120.2376">liberar()</text></g><!--class Reliquia--><g id="elem_Reliquia"><rect codeLine="67" fill="#F1F1F1" height="102.2717" id="Reliquia" rx="2.5" ry="2.5" style="stroke:#181818;stroke-width:0.5;" width="107" x="137" y="454.5"/><text fill="#000000" font-family="sans-serif" font-size="14" lengthAdjust="spacing" textLength="55" x="163" y="474.4659">Reliquia</text><line style="stroke:#181818;stroke-width:0.5;" x1="138" x2="243" y1="483.5679" y2="483.5679"/><text fill="#000000" font-family="sans-serif" font-size="14" lengthAdjust="spacing" textLength="53" x="143" y="502.5339">nombre</text><text fill="#000000" font-family="sans-serif" font-size="14" lengthAdjust="spacing" textLength="95" x="143" y="521.6018">poderEspecial</text><line style="stroke:#181818;stroke-width:0.5;" x1="138" x2="243" y1="529.7038" y2="529.7038"/><text fill="#000000" font-family="sans-serif" font-size="14" lengthAdjust="spacing" textLength="53" x="143" y="548.6697">activar()</text></g><!--class SistemaCocina--><g id="elem_SistemaCocina"><rect codeLine="73" fill="#F1F1F1" height="56.1358" id="SistemaCocina" rx="2.5" ry="2.5" style="stroke:#181818;stroke-width:0.5;" width="187" x="279" y="477.5"/><text fill="#000000" font-family="sans-serif" font-size="14" lengthAdjust="spacing" textLength="98" x="323.5" y="497.4659">SistemaCocina</text><line style="stroke:#181818;stroke-width:0.5;" x1="280" x2="465" y1="506.5679" y2="506.5679"/><text fill="#000000" font-family="sans-serif" font-size="14" lengthAdjust="spacing" textLength="175" x="285" y="525.5339">cocinar(ListaIngredientes)</text></g><!--link Jugador to Objeto--><g id="link_Jugador_Objeto"><path codeLine="77" d="M324.02,335.38 C371.81,364.99 432.77,404.91 483.5,445 C489.4,449.66 495.4,454.78 501.24,459.98 " fill="none" id="Jugador-Objeto" style="stroke:#181818;stroke-width:1.0;"/><polygon fill="#000000" points="448.5902,408.7288,442.8813,401.1223,439.5006,405.9306,448.5902,408.7288" style="stroke:#000000;stroke-width:1.0;"/><text fill="#000000" font-family="sans-serif" font-size="13" lengthAdjust="spacing" textLength="36" x="453.5" y="410.897">posee</text></g><!--link Jugador to Mision--><g id="link_Jugador_Mision"><path codeLine="78" d="M175,366.15 C150.81,393.92 124.15,424.53 102.07,449.88 " fill="none" id="Jugador-Mision" style="stroke:#181818;stroke-width:1.0;"/><polygon fill="#000000" points="151.216,409.6233,159.373,404.733,154.9407,400.8725,151.216,409.6233" style="stroke:#000000;stroke-width:1.0;"/><text fill="#000000" font-family="sans-serif" font-size="13" lengthAdjust="spacing" textLength="38" x="163.5" y="410.897">realiza</text></g><!--link Jugador to Reliquia--><g id="link_Jugador_Reliquia"><path codeLine="79" d="M224.29,366.15 C217.09,395.62 209.12,428.28 202.72,454.47 " fill="none" id="Jugador-Reliquia" style="stroke:#181818;stroke-width:1.0;"/><polygon fill="#000000" points="221.3137,410.7102,226.3147,402.6207,220.6047,401.2262,221.3137,410.7102" style="stroke:#000000;stroke-width:1.0;"/><text fill="#000000" font-family="sans-serif" font-size="13" lengthAdjust="spacing" textLength="50" x="231.5" y="410.897">controla</text></g><!--reverse link Personaje to Enemigo--><g id="link_Personaje_Enemigo"><path codeLine="81" d="M844.5,574.72 C844.5,601.53 844.5,616.7 844.5,644.82 " fill="none" id="Personaje-backto-Enemigo" style="stroke:#181818;stroke-width:1.0;"/><polygon fill="none" points="844.5,556.72,838.5,574.72,850.5,574.72,844.5,556.72" style="stroke:#181818;stroke-width:1.0;"/></g><!--reverse link Objeto to Arma--><g id="link_Objeto_Arma"><path codeLine="83" d="M590.3873,567.2633 C615.7173,602.3433 639.56,635.35 663.03,667.84 " fill="none" id="Objeto-backto-Arma" style="stroke:#181818;stroke-width:1.0;"/><polygon fill="none" points="579.85,552.67,585.5229,570.7758,595.2518,563.7509,579.85,552.67" style="stroke:#181818;stroke-width:1.0;"/></g><!--reverse link Objeto to Armadura--><g id="link_Objeto_Armadura"><path codeLine="84" d="M541.9656,570.6248 C539.4756,605.7048 537.39,635.35 535.09,667.84 " fill="none" id="Objeto-backto-Armadura" style="stroke:#181818;stroke-width:1.0;"/><polygon fill="none" points="543.24,552.67,535.9806,570.2,547.9505,571.0496,543.24,552.67" style="stroke:#181818;stroke-width:1.0;"/></g><!--reverse link Objeto to Ingrediente--><g id="link_Objeto_Ingrediente"><path codeLine="85" d="M494.0388,566.1917 C459.9988,604.9317 424.43,645.41 396.24,677.48 " fill="none" id="Objeto-backto-Ingrediente" style="stroke:#181818;stroke-width:1.0;"/><polygon fill="none" points="505.92,552.67,489.5315,562.2313,498.546,570.1521,505.92,552.67" style="stroke:#181818;stroke-width:1.0;"/></g><!--link Ubicacion to Personaje--><g id="link_Ubicacion_Personaje"><path codeLine="87" d="M765.71,333.52 C782.05,368.98 804.61,417.94 821.4,454.38 " fill="none" id="Ubicacion-Personaje" style="stroke:#181818;stroke-width:1.0;"/><polygon fill="#000000" points="806.5925,410.3941,805.4764,400.9493,800.138,403.4091,806.5925,410.3941" style="stroke:#000000;stroke-width:1.0;"/><text fill="#000000" font-family="sans-serif" font-size="13" lengthAdjust="spacing" textLength="52" x="813.5" y="410.897">contiene</text></g><!--link Ubicacion to Enemigo--><g id="link_Ubicacion_Enemigo"><path codeLine="88" d="M731.53,333.95 C718.1,390.56 702.64,488.3 730.5,566 C742.06,598.25 764.74,628.35 786.84,652.2 " fill="none" id="Ubicacion-Enemigo" style="stroke:#181818;stroke-width:1.0;"/><polygon fill="#000000" points="736.3561,510.7792,737.7029,501.3644,731.9118,502.3709,736.3561,510.7792" style="stroke:#000000;stroke-width:1.0;"/><text fill="#000000" font-family="sans-serif" font-size="13" lengthAdjust="spacing" textLength="38" x="744.5" y="510.897">habita</text></g><!--link Ubicacion to Objeto--><g id="link_Ubicacion_Objeto"><path codeLine="89" d="M695.79,324.71 C671.48,344.5 642.44,370.06 619.5,396 C602.58,415.13 586.43,438.4 573.65,458.48 " fill="none" id="Ubicacion-Objeto" style="stroke:#181818;stroke-width:1.0;"/><polygon fill="#000000" points="621.1286,409.5454,629.3978,404.8474,625.0572,400.8841,621.1286,409.5454" style="stroke:#000000;stroke-width:1.0;"/><text fill="#000000" font-family="sans-serif" font-size="13" lengthAdjust="spacing" textLength="52" x="633.5" y="410.897">contiene</text></g><!--link BestiaDivina to Enemigo--><g id="link_BestiaDivina_Enemigo"><path codeLine="91" d="M863.57,128.27 C868.22,137.95 872.43,148.06 875.5,158 C929.23,331.74 944.49,388.16 906.5,566 C900.75,592.92 889.36,620.94 877.9,644.68 " fill="none" id="BestiaDivina-Enemigo" style="stroke:#181818;stroke-width:1.0;"/><polygon fill="#000000" points="932.6387,410.8511,935.3256,401.728,929.45,401.891,932.6387,410.8511" style="stroke:#000000;stroke-width:1.0;"/><text fill="#000000" font-family="sans-serif" font-size="13" lengthAdjust="spacing" textLength="54" x="941.5" y="410.897">tiene jefe</text></g><!--link BestiaDivina to Ubicacion--><g id="link_BestiaDivina_Ubicacion"><path codeLine="92" d="M804.71,128.08 C791.27,163.21 774.53,207 762.11,239.47 " fill="none" id="BestiaDivina-Ubicacion" style="stroke:#181818;stroke-width:1.0;"/><polygon fill="#000000" points="793.714,172.5231,799.69,165.1246,794.1999,163.025,793.714,172.5231" style="stroke:#000000;stroke-width:1.0;"/><text fill="#000000" font-family="sans-serif" font-size="13" lengthAdjust="spacing" textLength="62" x="804.5" y="172.897">situada en</text></g><!--link Jugador to SistemaCocina--><g id="link_Jugador_SistemaCocina"><path codeLine="94" d="M290.25,366.15 C313.4,405.08 339.85,449.58 356.37,477.36 " fill="none" id="Jugador-SistemaCocina" style="stroke:#181818;stroke-width:1.0;"/><polygon fill="#000000" points="324.0552,410.1508,321.9589,400.8741,316.9066,403.878,324.0552,410.1508" style="stroke:#000000;stroke-width:1.0;"/><text fill="#000000" font-family="sans-serif" font-size="13" lengthAdjust="spacing" textLength="21" x="330.5" y="410.897">usa</text></g><!--link SistemaCocina to Ingrediente--><g id="link_SistemaCocina_Ingrediente"><path codeLine="95" d="M372.5,533.62 C372.5,571.43 372.5,639.59 372.5,677.39 " fill="none" id="SistemaCocina-Ingrediente" style="stroke:#181818;stroke-width:1.0;"/><polygon fill="#000000" points="377.5,610.853,380.4389,601.8079,374.5611,601.8079,377.5,610.853" style="stroke:#000000;stroke-width:1.0;"/><text fill="#000000" font-family="sans-serif" font-size="13" lengthAdjust="spacing" textLength="35" x="386.5" y="610.897">utiliza</text></g><!--SRC=[PLHRZjim3FpNAVoP_TWB64M1FbAWYovQjEW1Q8dhCD33IycBTjiUgcVenKfQJc9blyoGGyveIEH03ZjBR3sQWyOOflAp2nW6v6oCzP1pTpUFu19tlqpNnHG6HWao-Dd9bp5JBXWjWVoQC_3duOWbxUhdHf8K2pBOCWFlliZS5E68Mi0VaqyisUy3MR2KuetvSs8z8rjUH-3Jc3G2lgSiJRjDrpvYe34jFOKcnJtCoCygpd6Q40QlOw205UBrQPi1LVOL9sRBDAb0LVs0jgHBnniEiE0T_Fkx29iP1lBamBKeBLIap8WPMlls7WF60lxIz36EZ8uaMrserE-IfGWNrDczLhNr59HYGayZfzpggTQjFfNPfnVlPBGfJAjE3JqMiMpZrLlCXU0zFOcSbfjnh4EE8lc3bBt4dkIgsWbVHTlZJ5VTKtB8-poXkAADSZlqr3P-KzS2L2kMRhk4lFia5TWObvUkqmtVtguRxeKb8tQljwLgIY_omTCpjCMJrbweOk7ajMukP_hgju3M-pDclQCbgRj_aT1ZQ98RpSPSTYgLCqUb5eZgRY0hRzyTvFGAN9TFRzwqcsPxsn4LePiJs3NgFBRlijmDEEWmwhYDKyroUlrJ442xiVQzWYcqEluV]--></g></svg>