<?xml version="1.0" encoding="us-ascii" standalone="no"?><svg xmlns="http://www.w3.org/2000/svg" xmlns:xlink="http://www.w3.org/1999/xlink" contentStyleType="text/css" height="473px" preserveAspectRatio="none" style="width:690px;height:473px;background:#FFFFFF;" version="1.1" viewBox="0 0 690 473" width="690px" zoomAndPan="magnify"><defs/><g><!--cluster Gesti?n de Entidades--><g id="cluster_Gesti&#243;n de Entidades"><rect fill="none" height="460" rx="2.5" ry="2.5" style="stroke:#181818;stroke-width:1.0;" width="212" x="150" y="7"/><text fill="#000000" font-family="sans-serif" font-size="14" font-weight="bold" lengthAdjust="spacing" textLength="146" x="183" y="23.9659">Gesti&#243;n de Entidades</text></g><g id="elem_UC1"><ellipse cx="255.942" cy="65.8884" fill="#F1F1F1" rx="89.942" ry="20.3884" style="stroke:#181818;stroke-width:0.5;"/><text fill="#000000" font-family="sans-serif" font-size="14" lengthAdjust="spacing" textLength="130" x="187.942" y="70.6214">eliminarPrograma()</text></g><g id="elem_UC2"><ellipse cx="255.845" cy="139.869" fill="#F1F1F1" rx="79.845" ry="18.369" style="stroke:#181818;stroke-width:0.5;"/><text fill="#000000" font-family="sans-serif" font-size="14" lengthAdjust="spacing" textLength="103" x="201.345" y="144.602">eliminarCurso()</text></g><g id="elem_UC3"><ellipse cx="256.0897" cy="213.1179" fill="#F1F1F1" rx="86.0897" ry="19.6179" style="stroke:#181818;stroke-width:0.5;"/><text fill="#000000" font-family="sans-serif" font-size="14" lengthAdjust="spacing" textLength="120" x="193.0897" y="217.8509">eliminarProfesor()</text></g><g id="elem_UC4"><ellipse cx="255.9683" cy="287.0937" fill="#F1F1F1" rx="83.4683" ry="19.0937" style="stroke:#181818;stroke-width:0.5;"/><text fill="#000000" font-family="sans-serif" font-size="14" lengthAdjust="spacing" textLength="113" x="196.4683" y="291.8266">eliminarEdificio()</text></g><g id="elem_UC5"><ellipse cx="256.2218" cy="359.2444" fill="#F1F1F1" rx="76.7218" ry="17.7444" style="stroke:#181818;stroke-width:0.5;"/><text fill="#000000" font-family="sans-serif" font-size="14" lengthAdjust="spacing" textLength="94" x="206.2218" y="363.9773">eliminarAula()</text></g><g id="elem_UC6"><ellipse cx="255.8341" cy="430.9668" fill="#F1F1F1" rx="85.3341" ry="19.4668" style="stroke:#181818;stroke-width:0.5;"/><text fill="#000000" font-family="sans-serif" font-size="14" lengthAdjust="spacing" textLength="118" x="193.8341" y="435.6998">eliminarRecurso()</text></g><!--entity Administrador--><g id="elem_Administrador"><ellipse cx="54.5" cy="228" fill="#F1F1F1" rx="8" ry="8" style="stroke:#181818;stroke-width:0.5;"/><path d="M54.5,236 L54.5,263 M41.5,244 L67.5,244 M54.5,263 L41.5,278 M54.5,263 L67.5,278 " fill="none" style="stroke:#181818;stroke-width:0.5;"/><text fill="#000000" font-family="sans-serif" font-size="14" lengthAdjust="spacing" textLength="97" x="6" y="294.4659">Administrador</text></g><g id="elem_UC_Include"><ellipse cx="575.9933" cy="249.7984" fill="#F1F1F1" rx="108.9933" ry="27.7984" style="stroke:#181818;stroke-width:0.5;"/><text fill="#000000" font-family="sans-serif" font-size="14" font-style="italic" lengthAdjust="spacing" textLength="66" x="534.9763" y="242.5">&#171;abstract&#187;</text><text fill="#000000" font-family="sans-serif" font-size="14" lengthAdjust="spacing" textLength="151" x="492.4763" y="261.5679">solicitarConfirmacion()</text></g><!--link Administrador to UC1--><g id="link_Administrador_UC1"><path d="M68.37,219.23 C81.61,184.25 105.49,134.32 142,104 C155.22,93.02 166.0655,87.1195 182.3655,81.5195 " fill="none" id="Administrador-to-UC1" style="stroke:#181818;stroke-width:1.0;"/><polygon fill="#181818" points="188.04,79.57,178.2286,78.7113,183.3113,81.1946,180.828,86.2772,188.04,79.57" style="stroke:#181818;stroke-width:1.0;"/></g><!--link Administrador to UC2--><g id="link_Administrador_UC2"><path d="M89.43,219.37 C104.27,204.06 122.68,187.49 142,176 C158.99,165.9 173.3814,160.0287 191.9114,154.4887 " fill="none" id="Administrador-to-UC2" style="stroke:#181818;stroke-width:1.0;"/><polygon fill="#181818" points="197.66,152.77,187.8913,151.5156,192.8695,154.2022,190.1829,159.1804,197.66,152.77" style="stroke:#181818;stroke-width:1.0;"/></g><!--link Administrador to UC3--><g id="link_Administrador_UC3"><path d="M103.03,248.04 C130.58,241.69 159.6732,234.977 189.1032,228.197 " fill="none" id="Administrador-to-UC3" style="stroke:#181818;stroke-width:1.0;"/><polygon fill="#181818" points="194.95,226.85,185.2817,224.9726,190.0776,227.9725,187.0777,232.7684,194.95,226.85" style="stroke:#181818;stroke-width:1.0;"/></g><!--link Administrador to UC4--><g id="link_Administrador_UC4"><path d="M103.03,265.67 C127.35,269.08 151.4881,272.4772 178.4581,276.2572 " fill="none" id="Administrador-to-UC4" style="stroke:#181818;stroke-width:1.0;"/><polygon fill="#181818" points="184.4,277.09,176.0423,271.8795,179.4484,276.396,174.9319,279.8021,184.4,277.09" style="stroke:#181818;stroke-width:1.0;"/></g><!--link Administrador to UC5--><g id="link_Administrador_UC5"><path d="M103.07,298.51 C115.26,307.39 128.69,316.2 142,323 C161.06,332.75 177.5342,338.8257 197.2042,344.6157 " fill="none" id="Administrador-to-UC5" style="stroke:#181818;stroke-width:1.0;"/><polygon fill="#181818" points="202.96,346.31,195.4558,339.9314,198.1635,344.8981,193.1968,347.6058,202.96,346.31" style="stroke:#181818;stroke-width:1.0;"/></g><!--link Administrador to UC6--><g id="link_Administrador_UC6"><path d="M71.89,298.58 C86.25,328.71 109.86,369.12 142,394 C156.2,404.99 168.0897,410.948 185.1397,416.448 " fill="none" id="Administrador-to-UC6" style="stroke:#181818;stroke-width:1.0;"/><polygon fill="#181818" points="190.85,418.29,183.5126,411.7201,186.0915,416.755,181.0566,419.3338,190.85,418.29" style="stroke:#181818;stroke-width:1.0;"/></g><!--link UC1 to UC_Include--><g id="link_UC1_UC_Include"><path d="M314.37,81.68 C332.62,87.61 352.58,95.11 370,104 C436.17,137.75 500.2376,187.2347 538.9176,219.2447 " fill="none" id="UC1-to-UC_Include" style="stroke:#181818;stroke-width:1.0;stroke-dasharray:7.0,7.0;"/><polygon fill="#181818" points="543.54,223.07,539.1566,214.2504,539.688,219.8822,534.0561,220.4136,543.54,223.07" style="stroke:#181818;stroke-width:1.0;"/><text fill="#000000" font-family="sans-serif" font-size="13" lengthAdjust="spacing" textLength="57" x="379" y="106.897">&#171;include&#187;</text></g><!--link UC2 to UC_Include--><g id="link_UC2_UC_Include"><path d="M304.69,154.75 C324.89,161.11 348.65,168.75 370,176 C418.37,192.43 467.0989,210.0387 507.6889,224.9687 " fill="none" id="UC2-to-UC_Include" style="stroke:#181818;stroke-width:1.0;stroke-dasharray:7.0,7.0;"/><polygon fill="#181818" points="513.32,227.04,506.2541,220.179,508.6274,225.3139,503.4924,227.6872,513.32,227.04" style="stroke:#181818;stroke-width:1.0;"/><text fill="#000000" font-family="sans-serif" font-size="13" lengthAdjust="spacing" textLength="57" x="379" y="175.897">&#171;include&#187;</text></g><!--link UC3 to UC_Include--><g id="link_UC3_UC_Include"><path d="M332.76,221.82 C375.75,226.82 424.0803,232.436 470.3703,237.826 " fill="none" id="UC3-to-UC_Include" style="stroke:#181818;stroke-width:1.0;stroke-dasharray:7.0,7.0;"/><polygon fill="#181818" points="476.33,238.52,467.853,233.5059,471.3636,237.9417,466.9278,241.4522,476.33,238.52" style="stroke:#181818;stroke-width:1.0;"/><text fill="#000000" font-family="sans-serif" font-size="13" lengthAdjust="spacing" textLength="57" x="379" y="223.897">&#171;include&#187;</text></g><!--link UC4 to UC_Include--><g id="link_UC4_UC_Include"><path d="M330.75,278.42 C374.06,273.38 423.3702,267.6435 470.3802,262.1735 " fill="none" id="UC4-to-UC_Include" style="stroke:#181818;stroke-width:1.0;stroke-dasharray:7.0,7.0;"/><polygon fill="#181818" points="476.34,261.48,466.938,258.547,471.3735,262.0579,467.8626,266.4934,476.34,261.48" style="stroke:#181818;stroke-width:1.0;"/><text fill="#000000" font-family="sans-serif" font-size="13" lengthAdjust="spacing" textLength="57" x="379" y="262.897">&#171;include&#187;</text></g><!--link UC5 to UC_Include--><g id="link_UC5_UC_Include"><path d="M301.89,344.95 C322.65,338.39 347.62,330.41 370,323 C418.24,307.04 466.7424,289.7536 507.2624,274.9936 " fill="none" id="UC5-to-UC_Include" style="stroke:#181818;stroke-width:1.0;stroke-dasharray:7.0,7.0;"/><polygon fill="#181818" points="512.9,272.94,503.0745,272.262,508.202,274.6513,505.8126,279.7788,512.9,272.94" style="stroke:#181818;stroke-width:1.0;"/><text fill="#000000" font-family="sans-serif" font-size="13" lengthAdjust="spacing" textLength="57" x="379" y="297.897">&#171;include&#187;</text></g><!--link UC6 to UC_Include--><g id="link_UC6_UC_Include"><path d="M312.61,416.37 C331.32,410.52 352,403.01 370,394 C435.92,361 499.7732,312.3656 538.5332,280.7056 " fill="none" id="UC6-to-UC_Include" style="stroke:#181818;stroke-width:1.0;stroke-dasharray:7.0,7.0;"/><polygon fill="#181818" points="543.18,276.91,533.6793,279.5056,539.3076,280.073,538.7402,285.7014,543.18,276.91" style="stroke:#181818;stroke-width:1.0;"/><text fill="#000000" font-family="sans-serif" font-size="13" lengthAdjust="spacing" textLength="57" x="379" y="352.897">&#171;include&#187;</text></g><!--SRC=[XP3DIWCn58NtzoakNUcY1Ji_2oa3fHHn9u9hkIQPyK8cWPixA_6fV0HVp5HXQY4wkt3o9UVZUDShQaJXuLNHiZYZ70C06Os2UpjouAH2DWh0wPR2u1skxbnI_lm8Q1qUWx8bwz8Atm1nIivGoeppd9-JF4WSX4QwkbuX9Nmwt9IemoGfpiZsZuzwbwBCL5MYZfPxDdp-govH-ycVXPeIyUZCXL8Bxm0pbQBF9PgzO-XPHigDOMQVxuFnKzvcjwENqtv6kmxWOazShxllCKhfjfXMnRGkfaqnRG5o9MustM_Bs-p9F-UicTkNW6e9g9U0PWbe_mU-0000]--></g></svg>