<?xml version="1.0" encoding="us-ascii" standalone="no"?><svg xmlns="http://www.w3.org/2000/svg" xmlns:xlink="http://www.w3.org/1999/xlink" contentStyleType="text/css" height="1297px" preserveAspectRatio="none" style="width:888px;height:1297px;background:#FFFFFF;" version="1.1" viewBox="0 0 888 1297" width="888px" zoomAndPan="magnify"><defs/><g><g id="elem_Solicitante"><rect fill="#F1F1F1" height="39.0679" style="stroke:#181818;stroke-width:0.5;" width="84" x="7" y="610.19"/><text fill="#000000" font-family="sans-serif" font-size="14" lengthAdjust="spacing" textLength="70" x="14" y="627.1559">Solicitante</text><line style="stroke:#181818;stroke-width:0.5;" x1="8" x2="90" y1="633.2579" y2="633.2579"/></g><g id="elem_Sistema"><rect fill="#F1F1F1" height="39.0679" style="stroke:#181818;stroke-width:0.5;" width="67" x="367" y="610.19"/><text fill="#000000" font-family="sans-serif" font-size="14" lengthAdjust="spacing" textLength="53" x="374" y="627.1559">Sistema</text><line style="stroke:#181818;stroke-width:0.5;" x1="368" x2="433" y1="633.2579" y2="633.2579"/></g><g id="elem_ValidadorFormato"><rect fill="#F1F1F1" height="39.0679" style="stroke:#181818;stroke-width:0.5;" width="133" x="734.5" y="79.19"/><text fill="#000000" font-family="sans-serif" font-size="14" lengthAdjust="spacing" textLength="119" x="741.5" y="96.1559">ValidadorFormato</text><line style="stroke:#181818;stroke-width:0.5;" x1="735.5" x2="866.5" y1="102.2579" y2="102.2579"/></g><g id="elem_ValidadorContenido"><rect fill="#F1F1F1" height="39.0679" style="stroke:#181818;stroke-width:0.5;" width="147" x="727.5" y="256.19"/><text fill="#000000" font-family="sans-serif" font-size="14" lengthAdjust="spacing" textLength="133" x="734.5" y="273.1559">ValidadorContenido</text><line style="stroke:#181818;stroke-width:0.5;" x1="728.5" x2="873.5" y1="279.2579" y2="279.2579"/></g><g id="elem_ValidadorAutorizacion"><rect fill="#F1F1F1" height="39.0679" style="stroke:#181818;stroke-width:0.5;" width="162" x="720" y="433.19"/><text fill="#000000" font-family="sans-serif" font-size="14" lengthAdjust="spacing" textLength="148" x="727" y="450.1559">ValidadorAutorizacion</text><line style="stroke:#181818;stroke-width:0.5;" x1="721" x2="881" y1="456.2579" y2="456.2579"/></g><g id="elem_Supervisor"><rect fill="#F1F1F1" height="39.0679" style="stroke:#181818;stroke-width:0.5;" width="86" x="758" y="639.19"/><text fill="#000000" font-family="sans-serif" font-size="14" lengthAdjust="spacing" textLength="72" x="765" y="656.1559">Supervisor</text><line style="stroke:#181818;stroke-width:0.5;" x1="759" x2="843" y1="662.2579" y2="662.2579"/></g><g id="elem_Gerencia"><rect fill="#F1F1F1" height="39.0679" style="stroke:#181818;stroke-width:0.5;" width="74" x="764" y="875.19"/><text fill="#000000" font-family="sans-serif" font-size="14" lengthAdjust="spacing" textLength="60" x="771" y="892.1559">Gerencia</text><line style="stroke:#181818;stroke-width:0.5;" x1="765" x2="837" y1="898.2579" y2="898.2579"/></g><g id="elem_Timer"><rect fill="#F1F1F1" height="39.0679" style="stroke:#181818;stroke-width:0.5;" width="53" x="774.5" y="1111.19"/><text fill="#000000" font-family="sans-serif" font-size="14" lengthAdjust="spacing" textLength="39" x="781.5" y="1128.1559">Timer</text><line style="stroke:#181818;stroke-width:0.5;" x1="775.5" x2="826.5" y1="1134.2579" y2="1134.2579"/></g><!--link Solicitante to Sistema--><g id="link_Solicitante_Sistema"><path codeLine="12" d="M50.22,610 C51.89,568.81 62.25,473.97 121,432.69 C199.55,377.5 259.53,375.99 337,432.69 C394.19,474.54 400.3663,563.0701 400.1863,604.0901 " fill="none" id="Solicitante-to-Sistema" style="stroke:#181818;stroke-width:1.0;"/><polygon fill="#181818" points="400.16,610.09,404.1995,601.1076,400.1819,605.09,396.1995,601.0725,400.16,610.09" style="stroke:#181818;stroke-width:1.0;"/><text fill="#000000" font-family="sans-serif" font-size="13" lengthAdjust="spacing" textLength="90" x="184" y="387.587">Enviar solicitud</text></g><!--link Sistema to Solicitante--><g id="link_Sistema_Solicitante"><path codeLine="17" d="M366.75,631.56 C357.16,632.03 346.67,632.46 337,632.69 C241.03,634.99 216.98,634.72 121,632.69 C111.38,632.49 107.0249,632.3762 97.2849,631.9762 " fill="none" id="Sistema-to-Solicitante" style="stroke:#181818;stroke-width:1.0;"/><polygon fill="#181818" points="91.29,631.73,100.1183,636.0959,96.2858,631.9352,100.4466,628.1027,91.29,631.73" style="stroke:#181818;stroke-width:1.0;"/><text fill="#000000" font-family="sans-serif" font-size="13" lengthAdjust="spacing" textLength="214" x="122" y="628.587">Notificar error [si error y intentos&lt;3]</text></g><!--link Solicitante to Sistema--><g id="link_Solicitante_Sistema"><path codeLine="18" d="M53.48,609.98 C60.22,578.49 78.33,517.72 121,491.69 C161.98,466.69 296.66,465.68 337,491.69 C378,518.13 391.4885,572.7796 396.3085,604.1396 " fill="none" id="Solicitante-to-Sistema-1" style="stroke:#181818;stroke-width:1.0;"/><polygon fill="#181818" points="397.22,610.07,399.8063,600.5668,396.4604,605.128,391.8992,601.7821,397.22,610.07" style="stroke:#181818;stroke-width:1.0;"/><text fill="#000000" font-family="sans-serif" font-size="13" lengthAdjust="spacing" textLength="182" x="138" y="468.587">Reenviar [si error y intentos&lt;3]</text></g><!--link Sistema to Solicitante--><g id="link_Sistema_Solicitante"><path codeLine="23" d="M368.52,649.2 C358.8,654.3 347.78,659.09 337,661.69 C243.67,684.19 214.86,681.87 121,661.69 C108.97,659.11 101.9659,656.8384 90.9159,651.7284 " fill="none" id="Sistema-to-Solicitante-1" style="stroke:#181818;stroke-width:1.0;"/><polygon fill="#181818" points="85.47,649.21,91.9599,656.6182,90.0082,651.3087,95.3178,649.357,85.47,649.21" style="stroke:#181818;stroke-width:1.0;"/><text fill="#000000" font-family="sans-serif" font-size="13" lengthAdjust="spacing" textLength="214" x="122" y="657.587">Notificar error [si error y intentos&lt;3]</text></g><!--link Solicitante to Sistema--><g id="link_Solicitante_Sistema"><path codeLine="24" d="M60.87,610.12 C72.79,590.91 93.88,562.78 121,550.69 C208.68,511.6 250.59,508.87 337,550.69 C362.19,562.88 377.5118,585.3772 387.5618,604.5272 " fill="none" id="Solicitante-to-Sistema-2" style="stroke:#181818;stroke-width:1.0;"/><polygon fill="#181818" points="390.35,609.84,389.7096,600.012,388.0265,605.4127,382.6258,603.7296,390.35,609.84" style="stroke:#181818;stroke-width:1.0;"/><text fill="#000000" font-family="sans-serif" font-size="13" lengthAdjust="spacing" textLength="182" x="138" y="516.587">Reenviar [si error y intentos&lt;3]</text></g><!--link Sistema to Solicitante--><g id="link_Sistema_Solicitante"><path codeLine="29" d="M389.76,649.51 C379.49,667.92 361.41,694.16 337,705.69 C250.2,746.69 209.06,743.93 121,705.69 C94.67,694.26 76.9562,672.7235 64.8062,654.2435 " fill="none" id="Sistema-to-Solicitante-2" style="stroke:#181818;stroke-width:1.0;"/><polygon fill="#181818" points="61.51,649.23,63.112,658.9477,64.2568,653.4079,69.7966,654.5528,61.51,649.23" style="stroke:#181818;stroke-width:1.0;"/><text fill="#000000" font-family="sans-serif" font-size="13" lengthAdjust="spacing" textLength="214" x="122" y="701.587">Notificar error [si error y intentos&lt;3]</text></g><!--link Solicitante to Sistema--><g id="link_Solicitante_Sistema"><path codeLine="30" d="M91.27,616.01 C100.92,613.39 111.23,611.04 121,609.69 C216.1,596.55 242.15,594.89 337,609.69 C346.91,611.24 351.6813,612.2332 361.1713,615.3032 " fill="none" id="Solicitante-to-Sistema-3" style="stroke:#181818;stroke-width:1.0;"/><polygon fill="#181818" points="366.88,617.15,359.5481,610.574,362.1227,615.611,357.0857,618.1857,366.88,617.15" style="stroke:#181818;stroke-width:1.0;"/><text fill="#000000" font-family="sans-serif" font-size="13" lengthAdjust="spacing" textLength="182" x="138" y="595.587">Reenviar [si error y intentos&lt;3]</text></g><!--link Sistema to Solicitante--><g id="link_Sistema_Solicitante"><path codeLine="46" d="M396.85,649.36 C391.58,679.83 376.63,737.53 337,762.69 C255.96,814.15 203.33,812.07 121,762.69 C79.7,737.92 62.4647,685.8904 55.2647,655.3004 " fill="none" id="Sistema-to-Solicitante-3" style="stroke:#181818;stroke-width:1.0;"/><polygon fill="#181818" points="53.89,649.46,52.0584,659.137,55.0356,654.327,59.8456,657.3042,53.89,649.46" style="stroke:#181818;stroke-width:1.0;"/><text fill="#000000" font-family="sans-serif" font-size="13" lengthAdjust="spacing" textLength="59" x="199.5" y="758.587">Aprobada</text></g><!--link Sistema to Solicitante--><g id="link_Sistema_Solicitante"><path codeLine="47" d="M400.2,649.39 C400.44,690.61 394.42,785.6 337,827.69 C259.57,884.44 199.51,882.94 121,827.69 C62.02,786.18 52.0218,696.8655 50.4218,655.4755 " fill="none" id="Sistema-to-Solicitante-4" style="stroke:#181818;stroke-width:1.0;"/><polygon fill="#181818" points="50.19,649.48,46.5406,658.6278,50.3831,654.4763,54.5347,658.3188,50.19,649.48" style="stroke:#181818;stroke-width:1.0;"/><text fill="#000000" font-family="sans-serif" font-size="13" lengthAdjust="spacing" textLength="180" x="139" y="823.587">Rechazada [m&#250;ltiples razones]</text></g><!--link Sistema to ValidadorFormato--><g id="link_Sistema_ValidadorFormato"><path codeLine="14" d="M402.21,609.95 C405.82,515.72 423.47,114.88 464,78.69 C545.4,6 681.2939,47.7207 751.8639,76.8507 " fill="none" id="Sistema-to-ValidadorFormato" style="stroke:#181818;stroke-width:1.0;"/><polygon fill="#181818" points="757.41,79.14,750.6171,72.0086,752.7883,77.2322,747.5647,79.4034,757.41,79.14" style="stroke:#181818;stroke-width:1.0;"/><text fill="#000000" font-family="sans-serif" font-size="13" lengthAdjust="spacing" textLength="177" x="488.5" y="35.587">Validar formato [loop hasta 3]</text></g><!--link ValidadorFormato to Sistema--><g id="link_ValidadorFormato_Sistema"><path codeLine="15" d="M734.39,104.23 C639.32,112.55 473.5,128.3 464,137.69 C429.72,171.6 407.9232,516.8698 402.9232,604.1498 " fill="none" id="ValidadorFormato-to-Sistema" style="stroke:#181818;stroke-width:1.0;"/><polygon fill="#181818" points="402.58,610.14,407.0882,601.3835,402.866,605.1482,399.1013,600.926,402.58,610.14" style="stroke:#181818;stroke-width:1.0;"/><text fill="#000000" font-family="sans-serif" font-size="13" lengthAdjust="spacing" textLength="18" x="568" y="104.587">OK</text></g><!--link ValidadorFormato to Sistema--><g id="link_ValidadorFormato_Sistema"><path codeLine="16" d="M773.3,118.22 C751.8,133.05 720.28,152.85 690,164.69 C594.45,202.05 534.46,137.12 464,211.69 C408.75,270.16 402.3469,529.0803 401.6369,603.9403 " fill="none" id="ValidadorFormato-to-Sistema-1" style="stroke:#181818;stroke-width:1.0;"/><polygon fill="#181818" points="401.58,609.94,405.6652,600.9783,401.6274,604.9402,397.6655,600.9025,401.58,609.94" style="stroke:#181818;stroke-width:1.0;"/><text fill="#000000" font-family="sans-serif" font-size="13" lengthAdjust="spacing" textLength="30" x="562" y="160.587">Error</text></g><!--link Sistema to ValidadorContenido--><g id="link_Sistema_ValidadorContenido"><path codeLine="20" d="M401.61,610 C402.45,539.57 409.36,301.95 464,255.69 C502.3,223.26 634.5485,242.2142 721.3285,258.9442 " fill="none" id="Sistema-to-ValidadorContenido" style="stroke:#181818;stroke-width:1.0;"/><polygon fill="#181818" points="727.22,260.08,719.1399,254.4486,722.3104,259.1335,717.6255,262.304,727.22,260.08" style="stroke:#181818;stroke-width:1.0;"/><text fill="#000000" font-family="sans-serif" font-size="13" lengthAdjust="spacing" textLength="189" x="482.5" y="234.587">Validar contenido [loop hasta 3]</text></g><!--link ValidadorContenido to Sistema--><g id="link_ValidadorContenido_Sistema"><path codeLine="21" d="M727.3,281.95 C631.4,290.52 473.58,305.86 464,314.69 C420.26,355.05 406.3473,541.1895 402.8173,603.8795 " fill="none" id="ValidadorContenido-to-Sistema" style="stroke:#181818;stroke-width:1.0;"/><polygon fill="#181818" points="402.48,609.87,406.9797,601.1091,402.7611,604.8779,398.9923,600.6594,402.48,609.87" style="stroke:#181818;stroke-width:1.0;"/><text fill="#000000" font-family="sans-serif" font-size="13" lengthAdjust="spacing" textLength="18" x="568" y="282.587">OK</text></g><!--link ValidadorContenido to Sistema--><g id="link_ValidadorContenido_Sistema"><path codeLine="22" d="M773.94,295.45 C752.55,310.62 720.86,330.76 690,341.69 C594.38,375.57 539.19,305.59 464,373.69 C428.65,405.71 410.0676,549.425 404.1576,603.865 " fill="none" id="ValidadorContenido-to-Sistema-1" style="stroke:#181818;stroke-width:1.0;"/><polygon fill="#181818" points="403.51,609.83,408.458,601.3143,404.0496,604.8592,400.5047,600.4509,403.51,609.83" style="stroke:#181818;stroke-width:1.0;"/><text fill="#000000" font-family="sans-serif" font-size="13" lengthAdjust="spacing" textLength="30" x="562" y="337.587">Error</text></g><!--link Sistema to ValidadorAutorizacion--><g id="link_Sistema_ValidadorAutorizacion"><path codeLine="26" d="M400.84,610.09 C400.66,569.07 406.81,474.54 464,432.69 C550.06,369.71 678.5676,404.5685 748.4876,430.9985 " fill="none" id="Sistema-to-ValidadorAutorizacion" style="stroke:#181818;stroke-width:1.0;"/><polygon fill="#181818" points="754.1,433.12,747.0957,426.1961,749.423,431.3521,744.267,433.6793,754.1,433.12" style="stroke:#181818;stroke-width:1.0;"/><text fill="#000000" font-family="sans-serif" font-size="13" lengthAdjust="spacing" textLength="202" x="476" y="394.587">Validar autorizaci&#243;n [loop hasta 3]</text></g><!--link ValidadorAutorizacion to Sistema--><g id="link_ValidadorAutorizacion_Sistema"><path codeLine="27" d="M719.77,457.87 C626.96,464.5 484.25,476.91 464,491.69 C424.91,520.22 410.7766,573.122 405.3166,603.942 " fill="none" id="ValidadorAutorizacion-to-Sistema" style="stroke:#181818;stroke-width:1.0;"/><polygon fill="#181818" points="404.27,609.85,409.7786,601.6858,405.1422,604.9267,401.9013,600.2902,404.27,609.85" style="stroke:#181818;stroke-width:1.0;"/><text fill="#000000" font-family="sans-serif" font-size="13" lengthAdjust="spacing" textLength="18" x="568" y="457.587">OK</text></g><!--link ValidadorAutorizacion to Sistema--><g id="link_ValidadorAutorizacion_Sistema"><path codeLine="28" d="M772.8,472.38 C751.28,487.1 719.98,506.68 690,518.69 C594.42,557 554.69,520.92 464,569.69 C445.45,579.67 432.426,592.1427 420.866,605.5027 " fill="none" id="ValidadorAutorizacion-to-Sistema-1" style="stroke:#181818;stroke-width:1.0;"/><polygon fill="#181818" points="416.94,610.04,425.8538,605.8514,420.2116,606.2589,419.8041,600.6168,416.94,610.04" style="stroke:#181818;stroke-width:1.0;"/><text fill="#000000" font-family="sans-serif" font-size="13" lengthAdjust="spacing" textLength="30" x="562" y="514.587">Error</text></g><!--link Sistema to Supervisor--><g id="link_Sistema_Supervisor"><path codeLine="32" d="M434.12,617.15 C443.61,614.08 454.09,611.24 464,609.69 C563.24,594.2 591.75,588.8 690,609.69 C716.79,615.39 739.6421,625.3115 760.7721,636.3515 " fill="none" id="Sistema-to-Supervisor" style="stroke:#181818;stroke-width:1.0;"/><polygon fill="#181818" points="766.09,639.13,759.9655,631.417,761.6584,636.8146,756.2608,638.5075,766.09,639.13" style="stroke:#181818;stroke-width:1.0;"/><text fill="#000000" font-family="sans-serif" font-size="13" lengthAdjust="spacing" textLength="177" x="488.5" y="592.587">Solicitar aprobaci&#243;n [si v&#225;lido]</text></g><!--link Sistema to Supervisor--><g id="link_Sistema_Supervisor"><path codeLine="35" d="M434.23,633.65 C443.82,634.73 454.32,635.83 464,636.69 C569.54,646.05 688.0683,652.8741 751.7883,656.2341 " fill="none" id="Sistema-to-Supervisor-1" style="stroke:#181818;stroke-width:1.0;"/><polygon fill="#181818" points="757.78,656.55,749.0031,652.0816,752.7869,656.2867,748.5819,660.0705,757.78,656.55" style="stroke:#181818;stroke-width:1.0;"/><text fill="#000000" font-family="sans-serif" font-size="13" lengthAdjust="spacing" textLength="168" x="493" y="632.587">Recordatorio [cada timeout]</text></g><!--link Supervisor to Sistema--><g id="link_Supervisor_Sistema"><path codeLine="36" d="M757.97,671.55 C692.91,689.22 564.79,715.05 464,679.69 C446.69,673.62 434.9089,664.7158 423.3889,653.4458 " fill="none" id="Supervisor-to-Sistema" style="stroke:#181818;stroke-width:1.0;"/><polygon fill="#181818" points="419.1,649.25,422.7362,658.4031,422.6741,652.7465,428.3306,652.6845,419.1,649.25" style="stroke:#181818;stroke-width:1.0;"/><text fill="#000000" font-family="sans-serif" font-size="13" lengthAdjust="spacing" textLength="49" x="552.5" y="675.587">Aprobar</text></g><!--link Supervisor to Sistema--><g id="link_Supervisor_Sistema"><path codeLine="37" d="M776.02,678.36 C754.86,694.37 722.41,715.71 690,724.69 C593.2,751.5 552.41,772.36 464,724.69 C434.46,708.77 418.7193,677.7095 410.0493,654.8695 " fill="none" id="Supervisor-to-Sistema-1" style="stroke:#181818;stroke-width:1.0;"/><polygon fill="#181818" points="407.92,649.26,407.3744,659.0937,409.6944,653.9345,414.8536,656.2546,407.92,649.26" style="stroke:#181818;stroke-width:1.0;"/><text fill="#000000" font-family="sans-serif" font-size="13" lengthAdjust="spacing" textLength="54" x="550" y="720.587">Rechazar</text></g><!--link Sistema to Timer--><g id="link_Sistema_Timer"><path codeLine="33" d="M401.68,649.34 C402.77,722.56 410.42,978.26 464,1034.69 C534.64,1109.1 592.36,1050.19 690,1081.69 C719.84,1091.32 747.109,1103.8155 769.019,1114.7255 " fill="none" id="Sistema-to-Timer" style="stroke:#181818;stroke-width:1.0;"/><polygon fill="#181818" points="774.39,1117.4,768.1165,1109.8077,769.9142,1115.1713,764.5506,1116.969,774.39,1117.4" style="stroke:#181818;stroke-width:1.0;"/><text fill="#000000" font-family="sans-serif" font-size="13" lengthAdjust="spacing" textLength="61" x="546.5" y="1030.587">Iniciar 24h</text></g><!--link Timer to Sistema--><g id="link_Timer_Sistema"><path codeLine="34" d="M774.26,1140.75 C752.27,1148.77 719.59,1159.35 690,1163.69 C590.62,1178.28 539.04,1230.46 464,1163.69 C424.73,1128.75 406.4323,747.8747 402.5423,655.4347 " fill="none" id="Timer-to-Sistema" style="stroke:#181818;stroke-width:1.0;"/><polygon fill="#181818" points="402.29,649.44,398.6719,658.6002,402.5002,654.4356,406.6649,658.2639,402.29,649.44" style="stroke:#181818;stroke-width:1.0;"/><text fill="#000000" font-family="sans-serif" font-size="13" lengthAdjust="spacing" textLength="114" x="520" y="1159.587">Timeout [cada 24h]</text></g><!--link Sistema to Timer--><g id="link_Sistema_Timer"><path codeLine="40" d="M402.61,649.34 C407.68,735.45 429.82,1076.64 464,1108.69 C508.51,1150.43 697.8697,1139.2163 768.4597,1133.4763 " fill="none" id="Sistema-to-Timer-1" style="stroke:#181818;stroke-width:1.0;"/><polygon fill="#181818" points="774.44,1132.99,765.1454,1129.7326,769.4564,1133.3952,765.7938,1137.7063,774.44,1132.99" style="stroke:#181818;stroke-width:1.0;"/><text fill="#000000" font-family="sans-serif" font-size="13" lengthAdjust="spacing" textLength="61" x="546.5" y="1104.587">Iniciar 24h</text></g><!--link Timer to Sistema--><g id="link_Timer_Sistema"><path codeLine="41" d="M784.27,1150.58 C764.91,1173.29 729.69,1209.16 690,1223.69 C595.68,1258.22 538.65,1290.9 464,1223.69 C420.27,1184.32 405.1273,753.7274 402.2173,655.3174 " fill="none" id="Timer-to-Sistema-1" style="stroke:#181818;stroke-width:1.0;"/><polygon fill="#181818" points="402.04,649.32,398.3078,658.4343,402.1878,654.3178,406.3043,658.1978,402.04,649.32" style="stroke:#181818;stroke-width:1.0;"/><text fill="#000000" font-family="sans-serif" font-size="13" lengthAdjust="spacing" textLength="114" x="520" y="1219.587">Timeout [cada 24h]</text></g><!--link Sistema to Gerencia--><g id="link_Sistema_Gerencia"><path codeLine="39" d="M404.09,649.24 C409.4,681.41 424.54,745.44 464,780.69 C541.94,850.33 591.8,809.9 690,845.69 C715.14,854.86 737.2085,864.5606 758.4285,874.5206 " fill="none" id="Sistema-to-Gerencia" style="stroke:#181818;stroke-width:1.0;"/><polygon fill="#181818" points="763.86,877.07,757.4124,869.625,759.3338,874.9455,754.0132,876.8669,763.86,877.07" style="stroke:#181818;stroke-width:1.0;"/><text fill="#000000" font-family="sans-serif" font-size="13" lengthAdjust="spacing" textLength="224" x="465" y="776.587">Solicitar aprobaci&#243;n [si monto&gt;10000]</text></g><!--link Sistema to Gerencia--><g id="link_Sistema_Gerencia"><path codeLine="42" d="M403.63,649.45 C409.76,702.11 429.21,843.85 464,872.69 C508.72,909.77 680.543,902.9343 757.823,897.8443 " fill="none" id="Sistema-to-Gerencia-1" style="stroke:#181818;stroke-width:1.0;"/><polygon fill="#181818" points="763.81,897.45,754.5666,894.0501,758.8208,897.7786,755.0923,902.0328,763.81,897.45" style="stroke:#181818;stroke-width:1.0;"/><text fill="#000000" font-family="sans-serif" font-size="13" lengthAdjust="spacing" textLength="168" x="493" y="868.587">Recordatorio [cada timeout]</text></g><!--link Gerencia to Sistema--><g id="link_Gerencia_Sistema"><path codeLine="43" d="M763.88,913.15 C696.68,944.6 551.36,998.63 464,927.69 C420.4,892.29 406.4745,716.3195 402.8745,655.4995 " fill="none" id="Gerencia-to-Sistema" style="stroke:#181818;stroke-width:1.0;"/><polygon fill="#181818" points="402.52,649.51,399.0588,658.7306,402.8154,654.5013,407.0448,658.2579,402.52,649.51" style="stroke:#181818;stroke-width:1.0;"/><text fill="#000000" font-family="sans-serif" font-size="13" lengthAdjust="spacing" textLength="49" x="552.5" y="923.587">Aprobar</text></g><!--link Gerencia to Sistema--><g id="link_Gerencia_Sistema"><path codeLine="44" d="M784.66,914.38 C765.43,937.31 730.06,973.91 690,988.69 C642.88,1006.08 502.44,1021.02 464,988.69 C411.59,944.61 403.2386,724.3288 401.8786,655.5488 " fill="none" id="Gerencia-to-Sistema-1" style="stroke:#181818;stroke-width:1.0;"/><polygon fill="#181818" points="401.76,649.55,397.9387,658.6273,401.8588,654.549,405.9371,658.4692,401.76,649.55" style="stroke:#181818;stroke-width:1.0;"/><text fill="#000000" font-family="sans-serif" font-size="13" lengthAdjust="spacing" textLength="54" x="550" y="984.587">Rechazar</text></g><!--SRC=[pLHBJiCm5Dpd5Bv09Nwh2bMgK4482QI2s4HTkBPB7ahyecUd4hqDPs37jXVZfVaqeNLO8JMhP3ppF3DnWijtexnunXGKU6czYR26m7cJoURnLQQWfKQwHSganmFy1bbiGH-kJ0kF11kf06qxlSWDhS4XDSYT8MCLj1k-G6OeYbApyiAZ87XBlD10l5REYJgMnMWqQVoAiPZPDKWIhY8KchdrMidx7OG55KHYLIDnYfYBH3elnUKYEb3qjtjw-8in8-ASNHDTysFnY1vMeDY1APaYTb3VVGWeM_Nehjb8EFBSc2fqI7gyWlQTTKfGBHQgOQyA5n7Yd6mLtKFQQKEsyFRB1XlfYSEb3D1EhPVzzydIPYZNaHCkcp9updhxoTbmqTFklboMtLjMiUZYAeaghE-enB3m8bPIovAr25kO6uMaPTaVrW9VoLcq9_OtcExSKfZ0KnEvOKPlu-PFD9WyumEEa_CpllubVSV4KFQMTZnvOFbuxlw9gqPeEK2fnx2VEDj-fnxor3X1SeFMkCKF]--></g></svg>