<?xml version="1.0" encoding="us-ascii" standalone="no"?><svg xmlns="http://www.w3.org/2000/svg" xmlns:xlink="http://www.w3.org/1999/xlink" contentStyleType="text/css" height="436px" preserveAspectRatio="none" style="width:443px;height:436px;background:#FFFFFF;" version="1.1" viewBox="0 0 443 436" width="443px" zoomAndPan="magnify"><defs/><g><ellipse cx="258" cy="20" fill="#222222" rx="10" ry="10" style="stroke:#222222;stroke-width:1.0;"/><rect fill="#F1F1F1" height="36.3441" rx="12.5" ry="12.5" style="stroke:#181818;stroke-width:0.5;" width="107" x="204.5" y="50"/><text fill="#000000" font-family="sans-serif" font-size="12" lengthAdjust="spacing" textLength="87" x="214.5" y="72.8281">Recibir solicitud</text><rect fill="#F1F1F1" height="36.3441" rx="12.5" ry="12.5" style="stroke:#181818;stroke-width:0.5;" width="107" x="204.5" y="106.3441"/><text fill="#000000" font-family="sans-serif" font-size="12" lengthAdjust="spacing" textLength="87" x="214.5" y="129.1722">Validar formato</text><polygon fill="#F1F1F1" points="213,162.6882,303,162.6882,315,174.6882,303,186.6882,213,186.6882,201,174.6882,213,162.6882" style="stroke:#181818;stroke-width:0.5;"/><text fill="#000000" font-family="sans-serif" font-size="11" lengthAdjust="spacing" textLength="90" x="213" y="178.9562">&#191;Formato v&#225;lido?</text><text fill="#000000" font-family="sans-serif" font-size="11" lengthAdjust="spacing" textLength="8" x="193" y="171.4653">s&#237;</text><text fill="#000000" font-family="sans-serif" font-size="11" lengthAdjust="spacing" textLength="14" x="315" y="171.4653">no</text><rect fill="#F1F1F1" height="36.3441" rx="12.5" ry="12.5" style="stroke:#181818;stroke-width:0.5;" width="147" x="71" y="196.6882"/><text fill="#000000" font-family="sans-serif" font-size="12" lengthAdjust="spacing" textLength="127" x="81" y="219.5163">Verificar disponibilidad</text><polygon fill="#F1F1F1" points="90.5,253.0323,198.5,253.0323,210.5,265.0323,198.5,277.0323,90.5,277.0323,78.5,265.0323,90.5,253.0323" style="stroke:#181818;stroke-width:0.5;"/><text fill="#000000" font-family="sans-serif" font-size="11" lengthAdjust="spacing" textLength="108" x="90.5" y="269.3003">&#191;Hay disponibilidad?</text><text fill="#000000" font-family="sans-serif" font-size="11" lengthAdjust="spacing" textLength="8" x="70.5" y="261.8094">s&#237;</text><text fill="#000000" font-family="sans-serif" font-size="11" lengthAdjust="spacing" textLength="14" x="210.5" y="261.8094">no</text><rect fill="#F1F1F1" height="36.3441" rx="12.5" ry="12.5" style="stroke:#181818;stroke-width:0.5;" width="115" x="11" y="287.0323"/><text fill="#000000" font-family="sans-serif" font-size="12" lengthAdjust="spacing" textLength="95" x="21" y="309.8604">Aprobar solicitud</text><rect fill="#F1F1F1" height="36.3441" rx="12.5" ry="12.5" style="stroke:#181818;stroke-width:0.5;" width="121" x="160" y="287.0323"/><text fill="#000000" font-family="sans-serif" font-size="12" lengthAdjust="spacing" textLength="101" x="170" y="309.8604">Rechazar solicitud</text><polygon fill="#F1F1F1" points="144.5,329.3765,156.5,341.3765,144.5,353.3765,132.5,341.3765,144.5,329.3765" style="stroke:#181818;stroke-width:0.5;"/><rect fill="#F1F1F1" height="36.3441" rx="12.5" ry="12.5" style="stroke:#181818;stroke-width:0.5;" width="121" x="311" y="196.6882"/><text fill="#000000" font-family="sans-serif" font-size="12" lengthAdjust="spacing" textLength="101" x="321" y="219.5163">Rechazar solicitud</text><polygon fill="#F1F1F1" points="258,359.3765,270,371.3765,258,383.3765,246,371.3765,258,359.3765" style="stroke:#181818;stroke-width:0.5;"/><ellipse cx="258" cy="414.3765" fill="none" rx="11" ry="11" style="stroke:#222222;stroke-width:1.0;"/><ellipse cx="258" cy="414.3765" fill="#222222" rx="6" ry="6" style="stroke:#222222;stroke-width:1.0;"/><line style="stroke:#181818;stroke-width:1.0;" x1="258" x2="258" y1="30" y2="50"/><polygon fill="#181818" points="254,40,258,50,262,40,258,44" style="stroke:#181818;stroke-width:1.0;"/><line style="stroke:#181818;stroke-width:1.0;" x1="258" x2="258" y1="86.3441" y2="106.3441"/><polygon fill="#181818" points="254,96.3441,258,106.3441,262,96.3441,258,100.3441" style="stroke:#181818;stroke-width:1.0;"/><line style="stroke:#181818;stroke-width:1.0;" x1="78.5" x2="68.5" y1="265.0323" y2="265.0323"/><line style="stroke:#181818;stroke-width:1.0;" x1="68.5" x2="68.5" y1="265.0323" y2="287.0323"/><polygon fill="#181818" points="64.5,277.0323,68.5,287.0323,72.5,277.0323,68.5,281.0323" style="stroke:#181818;stroke-width:1.0;"/><line style="stroke:#181818;stroke-width:1.0;" x1="210.5" x2="220.5" y1="265.0323" y2="265.0323"/><line style="stroke:#181818;stroke-width:1.0;" x1="220.5" x2="220.5" y1="265.0323" y2="287.0323"/><polygon fill="#181818" points="216.5,277.0323,220.5,287.0323,224.5,277.0323,220.5,281.0323" style="stroke:#181818;stroke-width:1.0;"/><line style="stroke:#181818;stroke-width:1.0;" x1="68.5" x2="68.5" y1="323.3765" y2="341.3765"/><line style="stroke:#181818;stroke-width:1.0;" x1="68.5" x2="132.5" y1="341.3765" y2="341.3765"/><polygon fill="#181818" points="122.5,337.3765,132.5,341.3765,122.5,345.3765,126.5,341.3765" style="stroke:#181818;stroke-width:1.0;"/><line style="stroke:#181818;stroke-width:1.0;" x1="220.5" x2="220.5" y1="323.3765" y2="341.3765"/><line style="stroke:#181818;stroke-width:1.0;" x1="220.5" x2="156.5" y1="341.3765" y2="341.3765"/><polygon fill="#181818" points="166.5,337.3765,156.5,341.3765,166.5,345.3765,162.5,341.3765" style="stroke:#181818;stroke-width:1.0;"/><line style="stroke:#181818;stroke-width:1.0;" x1="144.5" x2="144.5" y1="233.0323" y2="253.0323"/><polygon fill="#181818" points="140.5,243.0323,144.5,253.0323,148.5,243.0323,144.5,247.0323" style="stroke:#181818;stroke-width:1.0;"/><line style="stroke:#181818;stroke-width:1.0;" x1="201" x2="144.5" y1="174.6882" y2="174.6882"/><line style="stroke:#181818;stroke-width:1.0;" x1="144.5" x2="144.5" y1="174.6882" y2="196.6882"/><polygon fill="#181818" points="140.5,186.6882,144.5,196.6882,148.5,186.6882,144.5,190.6882" style="stroke:#181818;stroke-width:1.0;"/><line style="stroke:#181818;stroke-width:1.0;" x1="315" x2="371.5" y1="174.6882" y2="174.6882"/><line style="stroke:#181818;stroke-width:1.0;" x1="371.5" x2="371.5" y1="174.6882" y2="196.6882"/><polygon fill="#181818" points="367.5,186.6882,371.5,196.6882,375.5,186.6882,371.5,190.6882" style="stroke:#181818;stroke-width:1.0;"/><line style="stroke:#181818;stroke-width:1.0;" x1="144.5" x2="144.5" y1="353.3765" y2="371.3765"/><line style="stroke:#181818;stroke-width:1.0;" x1="144.5" x2="246" y1="371.3765" y2="371.3765"/><polygon fill="#181818" points="236,367.3765,246,371.3765,236,375.3765,240,371.3765" style="stroke:#181818;stroke-width:1.0;"/><line style="stroke:#181818;stroke-width:1.0;" x1="371.5" x2="371.5" y1="233.0323" y2="371.3765"/><line style="stroke:#181818;stroke-width:1.0;" x1="371.5" x2="270" y1="371.3765" y2="371.3765"/><polygon fill="#181818" points="280,367.3765,270,371.3765,280,375.3765,276,371.3765" style="stroke:#181818;stroke-width:1.0;"/><line style="stroke:#181818;stroke-width:1.0;" x1="258" x2="258" y1="142.6882" y2="162.6882"/><polygon fill="#181818" points="254,152.6882,258,162.6882,262,152.6882,258,156.6882" style="stroke:#181818;stroke-width:1.0;"/><line style="stroke:#181818;stroke-width:1.0;" x1="258" x2="258" y1="383.3765" y2="403.3765"/><polygon fill="#181818" points="254,393.3765,258,403.3765,262,393.3765,258,397.3765" style="stroke:#181818;stroke-width:1.0;"/><!--SRC=[ROwn3S8m54HxJt5bie9J81f4JP7-9xQLBmL_opP8P1i6O0OaiXX6eO10URftJvSonQpqmVRSSKIIaNlE9zCetTB8XYASn2DbQHGxL8_xReaupzVIowP67gn7bUPRhG3TsiYE-p8qd8BuudrvYX5O37kwhBgrf6Ys8Kf7Nuy0EoQBoikRAQy7cduWRzYfJ_Glk60fItW2]--></g></svg>