<?xml version="1.0" encoding="us-ascii" standalone="no"?><svg xmlns="http://www.w3.org/2000/svg" xmlns:xlink="http://www.w3.org/1999/xlink" contentStyleType="text/css" height="606px" preserveAspectRatio="none" style="width:510px;height:606px;background:#FFFFFF;" version="1.1" viewBox="0 0 510 606" width="510px" zoomAndPan="magnify"><defs/><g><rect fill="none" height="341.0239" style="stroke:#000000;stroke-width:1.5;" width="493" x="10" y="164.4799"/><rect fill="none" height="163.512" style="stroke:#000000;stroke-width:1.5;" width="473" x="20" y="254.598"/><line style="stroke:#181818;stroke-width:0.5;stroke-dasharray:5.0,5.0;" x1="68" x2="68" y1="84.0679" y2="522.5039"/><line style="stroke:#181818;stroke-width:0.5;stroke-dasharray:5.0,5.0;" x1="206.5" x2="206.5" y1="84.0679" y2="522.5039"/><line style="stroke:#181818;stroke-width:0.5;stroke-dasharray:5.0,5.0;" x1="347" x2="347" y1="84.0679" y2="522.5039"/><line style="stroke:#181818;stroke-width:0.5;stroke-dasharray:5.0,5.0;" x1="439" x2="439" y1="84.0679" y2="522.5039"/><text fill="#000000" font-family="sans-serif" font-size="14" lengthAdjust="spacing" textLength="70" x="30" y="79.9659">Solicitante</text><ellipse cx="68" cy="13.5" fill="#E2E2F0" rx="8" ry="8" style="stroke:#181818;stroke-width:0.5;"/><path d="M68,21.5 L68,48.5 M55,29.5 L81,29.5 M68,48.5 L55,63.5 M68,48.5 L81,63.5 " fill="none" style="stroke:#181818;stroke-width:0.5;"/><text fill="#000000" font-family="sans-serif" font-size="14" lengthAdjust="spacing" textLength="70" x="30" y="536.4698">Solicitante</text><ellipse cx="68" cy="549.0718" fill="#E2E2F0" rx="8" ry="8" style="stroke:#181818;stroke-width:0.5;"/><path d="M68,557.0718 L68,584.0718 M55,565.0718 L81,565.0718 M68,584.0718 L55,599.0718 M68,584.0718 L81,599.0718 " fill="none" style="stroke:#181818;stroke-width:0.5;"/><rect fill="#E2E2F0" height="33.0679" rx="2.5" ry="2.5" style="stroke:#181818;stroke-width:0.5;" width="67" x="173.5" y="50"/><text fill="#000000" font-family="sans-serif" font-size="14" lengthAdjust="spacing" textLength="53" x="180.5" y="71.9659">Sistema</text><rect fill="#E2E2F0" height="33.0679" rx="2.5" ry="2.5" style="stroke:#181818;stroke-width:0.5;" width="67" x="173.5" y="521.5039"/><text fill="#000000" font-family="sans-serif" font-size="14" lengthAdjust="spacing" textLength="53" x="180.5" y="543.4698">Sistema</text><rect fill="#E2E2F0" height="33.0679" rx="2.5" ry="2.5" style="stroke:#181818;stroke-width:0.5;" width="78" x="308" y="50"/><text fill="#000000" font-family="sans-serif" font-size="14" lengthAdjust="spacing" textLength="64" x="315" y="71.9659">Validador</text><rect fill="#E2E2F0" height="33.0679" rx="2.5" ry="2.5" style="stroke:#181818;stroke-width:0.5;" width="78" x="308" y="521.5039"/><text fill="#000000" font-family="sans-serif" font-size="14" lengthAdjust="spacing" textLength="64" x="315" y="543.4698">Validador</text><rect fill="#E2E2F0" height="33.0679" rx="2.5" ry="2.5" style="stroke:#181818;stroke-width:0.5;" width="87" x="396" y="50"/><text fill="#000000" font-family="sans-serif" font-size="14" lengthAdjust="spacing" textLength="73" x="403" y="71.9659">Verificador</text><rect fill="#E2E2F0" height="33.0679" rx="2.5" ry="2.5" style="stroke:#181818;stroke-width:0.5;" width="87" x="396" y="521.5039"/><text fill="#000000" font-family="sans-serif" font-size="14" lengthAdjust="spacing" textLength="73" x="403" y="543.4698">Verificador</text><polygon fill="#181818" points="195,113.7739,205,117.7739,195,121.7739,199,117.7739" style="stroke:#181818;stroke-width:1.0;"/><line style="stroke:#181818;stroke-width:1.0;" x1="68" x2="201" y1="117.7739" y2="117.7739"/><text fill="#000000" font-family="sans-serif" font-size="13" lengthAdjust="spacing" textLength="90" x="75" y="111.9649">Enviar solicitud</text><polygon fill="#181818" points="335,145.4799,345,149.4799,335,153.4799,339,149.4799" style="stroke:#181818;stroke-width:1.0;"/><line style="stroke:#181818;stroke-width:1.0;" x1="207" x2="341" y1="149.4799" y2="149.4799"/><text fill="#000000" font-family="sans-serif" font-size="13" lengthAdjust="spacing" textLength="93" x="214" y="143.6709">Validar formato</text><path d="M10,164.4799 L73,164.4799 L73,174.186 L63,184.186 L10,184.186 L10,164.4799 " fill="#EEEEEE" style="stroke:#000000;stroke-width:1.5;"/><rect fill="none" height="341.0239" style="stroke:#000000;stroke-width:1.5;" width="493" x="10" y="164.4799"/><text fill="#000000" font-family="sans-serif" font-size="13" font-weight="bold" lengthAdjust="spacing" textLength="18" x="25" y="179.377">alt</text><text fill="#000000" font-family="sans-serif" font-size="11" font-weight="bold" lengthAdjust="spacing" textLength="92" x="88" y="178.2389">[Formato v&#225;lido]</text><polygon fill="#181818" points="218,203.892,208,207.892,218,211.892,214,207.892" style="stroke:#181818;stroke-width:1.0;"/><line style="stroke:#181818;stroke-width:1.0;" x1="212" x2="346" y1="207.892" y2="207.892"/><text fill="#000000" font-family="sans-serif" font-size="13" lengthAdjust="spacing" textLength="73" x="224" y="202.083">Formato OK</text><polygon fill="#181818" points="427.5,235.598,437.5,239.598,427.5,243.598,431.5,239.598" style="stroke:#181818;stroke-width:1.0;"/><line style="stroke:#181818;stroke-width:1.0;" x1="207" x2="433.5" y1="239.598" y2="239.598"/><text fill="#000000" font-family="sans-serif" font-size="13" lengthAdjust="spacing" textLength="135" x="214" y="233.789">Verificar disponibilidad</text><path d="M20,254.598 L83,254.598 L83,264.304 L73,274.304 L20,274.304 L20,254.598 " fill="#EEEEEE" style="stroke:#000000;stroke-width:1.5;"/><rect fill="none" height="163.512" style="stroke:#000000;stroke-width:1.5;" width="473" x="20" y="254.598"/><text fill="#000000" font-family="sans-serif" font-size="13" font-weight="bold" lengthAdjust="spacing" textLength="18" x="35" y="269.495">alt</text><text fill="#000000" font-family="sans-serif" font-size="11" font-weight="bold" lengthAdjust="spacing" textLength="108" x="98" y="268.3569">[Hay disponibilidad]</text><polygon fill="#181818" points="218,294.01,208,298.01,218,302.01,214,298.01" style="stroke:#181818;stroke-width:1.0;"/><line style="stroke:#181818;stroke-width:1.0;" x1="212" x2="438.5" y1="298.01" y2="298.01"/><text fill="#000000" font-family="sans-serif" font-size="13" lengthAdjust="spacing" textLength="63" x="224" y="292.201">Disponible</text><polygon fill="#181818" points="79,325.716,69,329.716,79,333.716,75,329.716" style="stroke:#181818;stroke-width:1.0;"/><line style="stroke:#181818;stroke-width:1.0;" x1="73" x2="206" y1="329.716" y2="329.716"/><text fill="#000000" font-family="sans-serif" font-size="13" lengthAdjust="spacing" textLength="112" x="85" y="323.907">Solicitud aprobada</text><line style="stroke:#000000;stroke-width:1.0;stroke-dasharray:2.0,2.0;" x1="20" x2="493" y1="338.716" y2="338.716"/><text fill="#000000" font-family="sans-serif" font-size="11" font-weight="bold" lengthAdjust="spacing" textLength="126" x="25" y="350.475">[No hay disponibilidad]</text><polygon fill="#181818" points="218,374.404,208,378.404,218,382.404,214,378.404" style="stroke:#181818;stroke-width:1.0;"/><line style="stroke:#181818;stroke-width:1.0;" x1="212" x2="438.5" y1="378.404" y2="378.404"/><text fill="#000000" font-family="sans-serif" font-size="13" lengthAdjust="spacing" textLength="83" x="224" y="372.595">No disponible</text><polygon fill="#181818" points="79,406.11,69,410.11,79,414.11,75,410.11" style="stroke:#181818;stroke-width:1.0;"/><line style="stroke:#181818;stroke-width:1.0;" x1="73" x2="206" y1="410.11" y2="410.11"/><text fill="#000000" font-family="sans-serif" font-size="13" lengthAdjust="spacing" textLength="115" x="85" y="404.301">Solicitud rechazada</text><line style="stroke:#000000;stroke-width:1.0;stroke-dasharray:2.0,2.0;" x1="10" x2="503" y1="426.11" y2="426.11"/><text fill="#000000" font-family="sans-serif" font-size="11" font-weight="bold" lengthAdjust="spacing" textLength="102" x="15" y="437.8689">[Formato inv&#225;lido]</text><polygon fill="#181818" points="218,461.7979,208,465.7979,218,469.7979,214,465.7979" style="stroke:#181818;stroke-width:1.0;"/><line style="stroke:#181818;stroke-width:1.0;" x1="212" x2="346" y1="465.7979" y2="465.7979"/><text fill="#000000" font-family="sans-serif" font-size="13" lengthAdjust="spacing" textLength="116" x="224" y="459.9889">Formato incorrecto</text><polygon fill="#181818" points="79,493.5039,69,497.5039,79,501.5039,75,497.5039" style="stroke:#181818;stroke-width:1.0;"/><line style="stroke:#181818;stroke-width:1.0;" x1="73" x2="206" y1="497.5039" y2="497.5039"/><text fill="#000000" font-family="sans-serif" font-size="13" lengthAdjust="spacing" textLength="115" x="85" y="491.6949">Solicitud rechazada</text><!--SRC=[bP11QWCn34NtFiKd-rvW5bsrGo7GBWopLso721nha9r0UfkUfHUhuvb9ar9AwfNb9_wJHQw8mafanuLI2MOaBRKOQu6LvLp2dbQW37kB1ehioOisEFo0GNdBxXltnbn9yF08s-4v7PaKUG87R-mP31scRCLMT4z53CM2VhhZ-FbHeHZKCyn12tjRj-SffgyvynWAptcKn1jkGxUkS-WBdNv3BRkVmvzc7iE5DS7LVxgbE7ZGgB8XJwqvn1pmAjZTuQbj_dyg3Mv7xnTNygRvbcrm-cjNd9neJIXYxlTKnnS0]--></g></svg>