<?xml version="1.0" encoding="us-ascii" standalone="no"?><svg xmlns="http://www.w3.org/2000/svg" xmlns:xlink="http://www.w3.org/1999/xlink" contentStyleType="text/css" height="802px" preserveAspectRatio="none" style="width:647px;height:802px;background:#FFFFFF;" version="1.1" viewBox="0 0 647 802" width="647px" zoomAndPan="magnify"><defs/><g><rect fill="none" height="277.6119" style="stroke:#000000;stroke-width:1.5;" width="533" x="10" y="132.7739"/><rect fill="none" height="212.1999" style="stroke:#000000;stroke-width:1.5;" width="513" x="20" y="191.186"/><rect fill="none" height="277.6119" style="stroke:#000000;stroke-width:1.5;" width="630" x="10" y="424.3858"/><rect fill="none" height="163.512" style="stroke:#000000;stroke-width:1.5;" width="610" x="20" y="482.7979"/><line style="stroke:#181818;stroke-width:0.5;stroke-dasharray:5.0,5.0;" x1="68" x2="68" y1="84.0679" y2="718.9977"/><line style="stroke:#181818;stroke-width:0.5;stroke-dasharray:5.0,5.0;" x1="343.5" x2="343.5" y1="84.0679" y2="718.9977"/><line style="stroke:#181818;stroke-width:0.5;stroke-dasharray:5.0,5.0;" x1="484" x2="484" y1="84.0679" y2="718.9977"/><line style="stroke:#181818;stroke-width:0.5;stroke-dasharray:5.0,5.0;" x1="576" x2="576" y1="84.0679" y2="718.9977"/><text fill="#000000" font-family="sans-serif" font-size="14" lengthAdjust="spacing" textLength="70" x="30" y="79.9659">Solicitante</text><ellipse cx="68" cy="13.5" fill="#E2E2F0" rx="8" ry="8" style="stroke:#181818;stroke-width:0.5;"/><path d="M68,21.5 L68,48.5 M55,29.5 L81,29.5 M68,48.5 L55,63.5 M68,48.5 L81,63.5 " fill="none" style="stroke:#181818;stroke-width:0.5;"/><text fill="#000000" font-family="sans-serif" font-size="14" lengthAdjust="spacing" textLength="70" x="30" y="732.9637">Solicitante</text><ellipse cx="68" cy="745.5657" fill="#E2E2F0" rx="8" ry="8" style="stroke:#181818;stroke-width:0.5;"/><path d="M68,753.5657 L68,780.5657 M55,761.5657 L81,761.5657 M68,780.5657 L55,795.5657 M68,780.5657 L81,795.5657 " fill="none" style="stroke:#181818;stroke-width:0.5;"/><rect fill="#E2E2F0" height="33.0679" rx="2.5" ry="2.5" style="stroke:#181818;stroke-width:0.5;" width="67" x="310.5" y="50"/><text fill="#000000" font-family="sans-serif" font-size="14" lengthAdjust="spacing" textLength="53" x="317.5" y="71.9659">Sistema</text><rect fill="#E2E2F0" height="33.0679" rx="2.5" ry="2.5" style="stroke:#181818;stroke-width:0.5;" width="67" x="310.5" y="717.9977"/><text fill="#000000" font-family="sans-serif" font-size="14" lengthAdjust="spacing" textLength="53" x="317.5" y="739.9637">Sistema</text><rect fill="#E2E2F0" height="33.0679" rx="2.5" ry="2.5" style="stroke:#181818;stroke-width:0.5;" width="78" x="445" y="50"/><text fill="#000000" font-family="sans-serif" font-size="14" lengthAdjust="spacing" textLength="64" x="452" y="71.9659">Validador</text><rect fill="#E2E2F0" height="33.0679" rx="2.5" ry="2.5" style="stroke:#181818;stroke-width:0.5;" width="78" x="445" y="717.9977"/><text fill="#000000" font-family="sans-serif" font-size="14" lengthAdjust="spacing" textLength="64" x="452" y="739.9637">Validador</text><rect fill="#E2E2F0" height="33.0679" rx="2.5" ry="2.5" style="stroke:#181818;stroke-width:0.5;" width="87" x="533" y="50"/><text fill="#000000" font-family="sans-serif" font-size="14" lengthAdjust="spacing" textLength="73" x="540" y="71.9659">Verificador</text><rect fill="#E2E2F0" height="33.0679" rx="2.5" ry="2.5" style="stroke:#181818;stroke-width:0.5;" width="87" x="533" y="717.9977"/><text fill="#000000" font-family="sans-serif" font-size="14" lengthAdjust="spacing" textLength="73" x="540" y="739.9637">Verificador</text><polygon fill="#181818" points="332,113.7739,342,117.7739,332,121.7739,336,117.7739" style="stroke:#181818;stroke-width:1.0;"/><line style="stroke:#181818;stroke-width:1.0;" x1="68" x2="338" y1="117.7739" y2="117.7739"/><text fill="#000000" font-family="sans-serif" font-size="13" lengthAdjust="spacing" textLength="90" x="75" y="111.9649">Enviar solicitud</text><path d="M10,132.7739 L83,132.7739 L83,142.4799 L73,152.4799 L10,152.4799 L10,132.7739 " fill="#EEEEEE" style="stroke:#000000;stroke-width:1.5;"/><rect fill="none" height="277.6119" style="stroke:#000000;stroke-width:1.5;" width="533" x="10" y="132.7739"/><text fill="#000000" font-family="sans-serif" font-size="13" font-weight="bold" lengthAdjust="spacing" textLength="28" x="25" y="147.6709">loop</text><text fill="#000000" font-family="sans-serif" font-size="11" font-weight="bold" lengthAdjust="spacing" textLength="97" x="98" y="146.5328">[hasta 3 intentos]</text><polygon fill="#181818" points="472,172.186,482,176.186,472,180.186,476,176.186" style="stroke:#181818;stroke-width:1.0;"/><line style="stroke:#181818;stroke-width:1.0;" x1="344" x2="478" y1="176.186" y2="176.186"/><text fill="#000000" font-family="sans-serif" font-size="13" lengthAdjust="spacing" textLength="93" x="351" y="170.377">Validar formato</text><path d="M20,191.186 L83,191.186 L83,200.892 L73,210.892 L20,210.892 L20,191.186 " fill="#EEEEEE" style="stroke:#000000;stroke-width:1.5;"/><rect fill="none" height="212.1999" style="stroke:#000000;stroke-width:1.5;" width="513" x="20" y="191.186"/><text fill="#000000" font-family="sans-serif" font-size="13" font-weight="bold" lengthAdjust="spacing" textLength="18" x="35" y="206.083">alt</text><text fill="#000000" font-family="sans-serif" font-size="11" font-weight="bold" lengthAdjust="spacing" textLength="92" x="98" y="204.9449">[Formato v&#225;lido]</text><polygon fill="#181818" points="355,230.598,345,234.598,355,238.598,351,234.598" style="stroke:#181818;stroke-width:1.0;"/><line style="stroke:#181818;stroke-width:1.0;" x1="349" x2="483" y1="234.598" y2="234.598"/><text fill="#000000" font-family="sans-serif" font-size="13" lengthAdjust="spacing" textLength="73" x="361" y="228.789">Formato OK</text><line style="stroke:#000000;stroke-width:1.0;stroke-dasharray:2.0,2.0;" x1="20" x2="533" y1="243.598" y2="243.598"/><text fill="#000000" font-family="sans-serif" font-size="11" font-weight="bold" lengthAdjust="spacing" textLength="179" x="25" y="255.3569">[Formato inv&#225;lido e intentos &lt; 3]</text><polygon fill="#181818" points="355,279.2859,345,283.2859,355,287.2859,351,283.2859" style="stroke:#181818;stroke-width:1.0;"/><line style="stroke:#181818;stroke-width:1.0;" x1="349" x2="483" y1="283.2859" y2="283.2859"/><text fill="#000000" font-family="sans-serif" font-size="13" lengthAdjust="spacing" textLength="116" x="361" y="277.4769">Formato incorrecto</text><polygon fill="#181818" points="79,310.9919,69,314.9919,79,318.9919,75,314.9919" style="stroke:#181818;stroke-width:1.0;"/><line style="stroke:#181818;stroke-width:1.0;" x1="73" x2="343" y1="314.9919" y2="314.9919"/><text fill="#000000" font-family="sans-serif" font-size="13" lengthAdjust="spacing" textLength="112" x="85" y="309.1829">Solicitar correcci&#243;n</text><polygon fill="#181818" points="332,342.6979,342,346.6979,332,350.6979,336,346.6979" style="stroke:#181818;stroke-width:1.0;"/><line style="stroke:#181818;stroke-width:1.0;" x1="68" x2="338" y1="346.6979" y2="346.6979"/><text fill="#000000" font-family="sans-serif" font-size="13" lengthAdjust="spacing" textLength="105" x="75" y="340.8889">Reenviar solicitud</text><line style="stroke:#000000;stroke-width:1.0;stroke-dasharray:2.0,2.0;" x1="20" x2="533" y1="355.6979" y2="355.6979"/><text fill="#000000" font-family="sans-serif" font-size="11" font-weight="bold" lengthAdjust="spacing" textLength="179" x="25" y="367.4568">[Formato inv&#225;lido e intentos = 3]</text><polygon fill="#181818" points="355,391.3858,345,395.3858,355,399.3858,351,395.3858" style="stroke:#181818;stroke-width:1.0;"/><line style="stroke:#181818;stroke-width:1.0;" x1="349" x2="483" y1="395.3858" y2="395.3858"/><text fill="#000000" font-family="sans-serif" font-size="13" lengthAdjust="spacing" textLength="116" x="361" y="389.5768">Formato incorrecto</text><path d="M10,424.3858 L73,424.3858 L73,434.0919 L63,444.0919 L10,444.0919 L10,424.3858 " fill="#EEEEEE" style="stroke:#000000;stroke-width:1.5;"/><rect fill="none" height="277.6119" style="stroke:#000000;stroke-width:1.5;" width="630" x="10" y="424.3858"/><text fill="#000000" font-family="sans-serif" font-size="13" font-weight="bold" lengthAdjust="spacing" textLength="18" x="25" y="439.2829">alt</text><text fill="#000000" font-family="sans-serif" font-size="11" font-weight="bold" lengthAdjust="spacing" textLength="156" x="88" y="438.1448">[Formato finalmente v&#225;lido]</text><polygon fill="#181818" points="564.5,463.7979,574.5,467.7979,564.5,471.7979,568.5,467.7979" style="stroke:#181818;stroke-width:1.0;"/><line style="stroke:#181818;stroke-width:1.0;" x1="344" x2="570.5" y1="467.7979" y2="467.7979"/><text fill="#000000" font-family="sans-serif" font-size="13" lengthAdjust="spacing" textLength="135" x="351" y="461.9889">Verificar disponibilidad</text><path d="M20,482.7979 L83,482.7979 L83,492.5039 L73,502.5039 L20,502.5039 L20,482.7979 " fill="#EEEEEE" style="stroke:#000000;stroke-width:1.5;"/><rect fill="none" height="163.512" style="stroke:#000000;stroke-width:1.5;" width="610" x="20" y="482.7979"/><text fill="#000000" font-family="sans-serif" font-size="13" font-weight="bold" lengthAdjust="spacing" textLength="18" x="35" y="497.6949">alt</text><text fill="#000000" font-family="sans-serif" font-size="11" font-weight="bold" lengthAdjust="spacing" textLength="108" x="98" y="496.5568">[Hay disponibilidad]</text><polygon fill="#181818" points="355,522.2099,345,526.2099,355,530.2099,351,526.2099" style="stroke:#181818;stroke-width:1.0;"/><line style="stroke:#181818;stroke-width:1.0;" x1="349" x2="575.5" y1="526.2099" y2="526.2099"/><text fill="#000000" font-family="sans-serif" font-size="13" lengthAdjust="spacing" textLength="63" x="361" y="520.4009">Disponible</text><polygon fill="#181818" points="79,553.9159,69,557.9159,79,561.9159,75,557.9159" style="stroke:#181818;stroke-width:1.0;"/><line style="stroke:#181818;stroke-width:1.0;" x1="73" x2="343" y1="557.9159" y2="557.9159"/><text fill="#000000" font-family="sans-serif" font-size="13" lengthAdjust="spacing" textLength="112" x="85" y="552.1069">Solicitud aprobada</text><line style="stroke:#000000;stroke-width:1.0;stroke-dasharray:2.0,2.0;" x1="20" x2="630" y1="566.9159" y2="566.9159"/><text fill="#000000" font-family="sans-serif" font-size="11" font-weight="bold" lengthAdjust="spacing" textLength="126" x="25" y="578.6748">[No hay disponibilidad]</text><polygon fill="#181818" points="355,602.6038,345,606.6038,355,610.6038,351,606.6038" style="stroke:#181818;stroke-width:1.0;"/><line style="stroke:#181818;stroke-width:1.0;" x1="349" x2="575.5" y1="606.6038" y2="606.6038"/><text fill="#000000" font-family="sans-serif" font-size="13" lengthAdjust="spacing" textLength="83" x="361" y="600.7948">No disponible</text><polygon fill="#181818" points="79,634.3098,69,638.3098,79,642.3098,75,638.3098" style="stroke:#181818;stroke-width:1.0;"/><line style="stroke:#181818;stroke-width:1.0;" x1="73" x2="343" y1="638.3098" y2="638.3098"/><text fill="#000000" font-family="sans-serif" font-size="13" lengthAdjust="spacing" textLength="115" x="85" y="632.5008">Solicitud rechazada</text><line style="stroke:#000000;stroke-width:1.0;stroke-dasharray:2.0,2.0;" x1="10" x2="640" y1="654.3098" y2="654.3098"/><text fill="#000000" font-family="sans-serif" font-size="11" font-weight="bold" lengthAdjust="spacing" textLength="110" x="15" y="666.0688">[Intentos agotados]</text><polygon fill="#181818" points="79,689.9977,69,693.9977,79,697.9977,75,693.9977" style="stroke:#181818;stroke-width:1.0;"/><line style="stroke:#181818;stroke-width:1.0;" x1="73" x2="343" y1="693.9977" y2="693.9977"/><text fill="#000000" font-family="sans-serif" font-size="13" lengthAdjust="spacing" textLength="252" x="85" y="688.1887">Solicitud rechazada por intentos agotados</text><!--SRC=[bPF1JiCm38RlUGfhTqwxLS09AX0II5JgtMjIPYcDAoUR16_3C_08Up6IjclB1kg8r8FpE_wTBovMWGKAjbHHG1UCQb523DeOmAeW7qo3Aq0FnK-fH4iQDKidbYUY4QgfckHSgPa9NDr2aS6zsnCA-5xOQMMPMzYY3mXhe9Ze0di5SHNfI9b1xofGipGOkDFG1iZx6FQ7pvZGxwTL3bP7_UMfauprPjmZDvm2Cvh2DQp_B4AkOX5JXScdwszsmsmC1FhaYWvVRie_W_5gp2cEopgzkRnJuxHAtvnOJGvjOr8ZStWzy3mI7vvIG9DlsT66keSVqJ_W-szIrqu-z7CtwDOi4zjfm5PuWned0iySvsBP9wRf_rb5E5ly6BqIeEJtUAIBRnpY6C-cSAaGjF6FehFpiVGt]--></g></svg>