<?xml version="1.0" encoding="us-ascii" standalone="no"?><svg xmlns="http://www.w3.org/2000/svg" xmlns:xlink="http://www.w3.org/1999/xlink" contentStyleType="text/css" height="1124px" preserveAspectRatio="none" style="width:1412px;height:1124px;background:#FFFFFF;" version="1.1" viewBox="0 0 1412 1124" width="1412px" zoomAndPan="magnify"><defs/><g><ellipse cx="980" cy="16" fill="#222222" rx="10" ry="10" style="stroke:#222222;stroke-width:1.0;"/><g id="Recibida"><rect fill="#F1F1F1" height="50" rx="12.5" ry="12.5" style="stroke:#181818;stroke-width:0.5;" width="78" x="941" y="87"/><line style="stroke:#181818;stroke-width:0.5;" x1="941" x2="1019" y1="116.0679" y2="116.0679"/><text fill="#000000" font-family="sans-serif" font-size="14" lengthAdjust="spacing" textLength="58" x="951" y="106.9659">Recibida</text></g><g id="ValidandoFormato"><rect fill="#F1F1F1" height="50" rx="12.5" ry="12.5" style="stroke:#181818;stroke-width:0.5;" width="142" x="909" y="216"/><line style="stroke:#181818;stroke-width:0.5;" x1="909" x2="1051" y1="245.0679" y2="245.0679"/><text fill="#000000" font-family="sans-serif" font-size="14" lengthAdjust="spacing" textLength="122" x="919" y="235.9659">ValidandoFormato</text></g><g id="ValidandoContenido"><rect fill="#F1F1F1" height="50" rx="12.5" ry="12.5" style="stroke:#181818;stroke-width:0.5;" width="156" x="652" y="345"/><line style="stroke:#181818;stroke-width:0.5;" x1="652" x2="808" y1="374.0679" y2="374.0679"/><text fill="#000000" font-family="sans-serif" font-size="14" lengthAdjust="spacing" textLength="136" x="662" y="364.9659">ValidandoContenido</text></g><g id="RechazadaFormato"><rect fill="#F1F1F1" height="50" rx="12.5" ry="12.5" style="stroke:#181818;stroke-width:0.5;" width="148" x="1160" y="425"/><line style="stroke:#181818;stroke-width:0.5;" x1="1160" x2="1308" y1="454.0679" y2="454.0679"/><text fill="#000000" font-family="sans-serif" font-size="14" lengthAdjust="spacing" textLength="128" x="1170" y="444.9659">RechazadaFormato</text></g><g id="ValidandoAutorizacion"><rect fill="#F1F1F1" height="50" rx="12.5" ry="12.5" style="stroke:#181818;stroke-width:0.5;" width="171" x="644.5" y="505"/><line style="stroke:#181818;stroke-width:0.5;" x1="644.5" x2="815.5" y1="534.0679" y2="534.0679"/><text fill="#000000" font-family="sans-serif" font-size="14" lengthAdjust="spacing" textLength="151" x="654.5" y="524.9659">ValidandoAutorizacion</text></g><g id="RechazadaContenido"><rect fill="#F1F1F1" height="50" rx="12.5" ry="12.5" style="stroke:#181818;stroke-width:0.5;" width="162" x="249" y="585"/><line style="stroke:#181818;stroke-width:0.5;" x1="249" x2="411" y1="614.0679" y2="614.0679"/><text fill="#000000" font-family="sans-serif" font-size="14" lengthAdjust="spacing" textLength="142" x="259" y="604.9659">RechazadaContenido</text></g><g id="EsperandoSupervisor"><rect fill="#F1F1F1" height="50" rx="12.5" ry="12.5" style="stroke:#181818;stroke-width:0.5;" width="164" x="480" y="665"/><line style="stroke:#181818;stroke-width:0.5;" x1="480" x2="644" y1="694.0679" y2="694.0679"/><text fill="#000000" font-family="sans-serif" font-size="14" lengthAdjust="spacing" textLength="144" x="490" y="684.9659">EsperandoSupervisor</text></g><g id="RechazadaAutorizacion"><rect fill="#F1F1F1" height="50" rx="12.5" ry="12.5" style="stroke:#181818;stroke-width:0.5;" width="177" x="1004.5" y="745"/><line style="stroke:#181818;stroke-width:0.5;" x1="1004.5" x2="1181.5" y1="774.0679" y2="774.0679"/><text fill="#000000" font-family="sans-serif" font-size="14" lengthAdjust="spacing" textLength="157" x="1014.5" y="764.9659">RechazadaAutorizacion</text></g><g id="EsperandoGerencia"><rect fill="#F1F1F1" height="50" rx="12.5" ry="12.5" style="stroke:#181818;stroke-width:0.5;" width="152" x="59" y="825"/><line style="stroke:#181818;stroke-width:0.5;" x1="59" x2="211" y1="854.0679" y2="854.0679"/><text fill="#000000" font-family="sans-serif" font-size="14" lengthAdjust="spacing" textLength="132" x="69" y="844.9659">EsperandoGerencia</text></g><g id="Aprobada"><rect fill="#F1F1F1" height="50" rx="12.5" ry="12.5" style="stroke:#181818;stroke-width:0.5;" width="86" x="564" y="985"/><line style="stroke:#181818;stroke-width:0.5;" x1="564" x2="650" y1="1014.0679" y2="1014.0679"/><text fill="#000000" font-family="sans-serif" font-size="14" lengthAdjust="spacing" textLength="66" x="574" y="1004.9659">Aprobada</text></g><g id="RechazadaSupervisor"><rect fill="#F1F1F1" height="50" rx="12.5" ry="12.5" style="stroke:#181818;stroke-width:0.5;" width="165" x="730.5" y="905"/><line style="stroke:#181818;stroke-width:0.5;" x1="730.5" x2="895.5" y1="934.0679" y2="934.0679"/><text fill="#000000" font-family="sans-serif" font-size="14" lengthAdjust="spacing" textLength="145" x="740.5" y="924.9659">RechazadaSupervisor</text></g><g id="RechazadaGerencia"><rect fill="#F1F1F1" height="50" rx="12.5" ry="12.5" style="stroke:#181818;stroke-width:0.5;" width="153" x="241.5" y="985"/><line style="stroke:#181818;stroke-width:0.5;" x1="241.5" x2="394.5" y1="1014.0679" y2="1014.0679"/><text fill="#000000" font-family="sans-serif" font-size="14" lengthAdjust="spacing" textLength="133" x="251.5" y="1004.9659">RechazadaGerencia</text></g><ellipse cx="761" cy="1107" fill="none" rx="11" ry="11" style="stroke:#222222;stroke-width:1.0;"/><ellipse cx="761" cy="1107" fill="#222222" rx="6" ry="6" style="stroke:#222222;stroke-width:1.0;"/><!--link *start* to Recibida--><g id="link_*start*_Recibida"><path d="M980,26.01 C980,39.89 980,60.97 980,80.84 " fill="none" id="*start*-to-Recibida" style="stroke:#181818;stroke-width:1.0;"/><polygon fill="#181818" points="980,86.84,984,77.84,980,81.84,976,77.84,980,86.84" style="stroke:#181818;stroke-width:1.0;"/></g><!--link Recibida to ValidandoFormato--><g id="link_Recibida_ValidandoFormato"><path d="M980,137.19 C980,159.78 980,187.33 980,209.9 " fill="none" id="Recibida-to-ValidandoFormato" style="stroke:#181818;stroke-width:1.0;"/><polygon fill="#181818" points="980,215.9,984,206.9,980,210.9,976,206.9,980,215.9" style="stroke:#181818;stroke-width:1.0;"/><text fill="#000000" font-family="sans-serif" font-size="13" lengthAdjust="spacing" textLength="164" x="981" y="181.897">recibir / intentosFormato=0</text></g><!--link ValidandoFormato to ValidandoFormato--><g id="link_ValidandoFormato_ValidandoFormato"><path d="M1051.09,229.07 C1070.86,229.62 1086,233.59 1086,241 C1086,248.41 1076.8577,252.2131 1057.0877,252.7631 " fill="none" id="ValidandoFormato-to-ValidandoFormato" style="stroke:#181818;stroke-width:1.0;"/><polygon fill="#181818" points="1051.09,252.93,1060.1978,256.6782,1056.0881,252.791,1059.9753,248.6813,1051.09,252.93" style="stroke:#181818;stroke-width:1.0;"/><text fill="#000000" font-family="sans-serif" font-size="13" lengthAdjust="spacing" textLength="307" x="1092" y="246.397">formato_invalido [intentos&lt;3] / intentos++, notificar</text></g><!--link ValidandoFormato to ValidandoContenido--><g id="link_ValidandoFormato_ValidandoContenido"><path d="M932.68,266.04 C888.23,288.62 827.4191,319.5122 782.8991,342.1322 " fill="none" id="ValidandoFormato-to-ValidandoContenido" style="stroke:#181818;stroke-width:1.0;"/><polygon fill="#181818" points="777.55,344.85,787.3856,344.3394,782.0076,342.5851,783.7618,337.2072,777.55,344.85" style="stroke:#181818;stroke-width:1.0;"/><text fill="#000000" font-family="sans-serif" font-size="13" lengthAdjust="spacing" textLength="91" x="870" y="310.897">formato_valido</text></g><!--link ValidandoFormato to RechazadaFormato--><g id="link_ValidandoFormato_RechazadaFormato"><path d="M1046.94,266.12 C1087.64,283.32 1138.59,309.67 1175,345 C1198.54,367.84 1213.1939,396.5609 1222.7239,419.4509 " fill="none" id="ValidandoFormato-to-RechazadaFormato" style="stroke:#181818;stroke-width:1.0;"/><polygon fill="#181818" points="1225.03,424.99,1225.2635,415.1439,1223.1082,420.3741,1217.878,418.2188,1225.03,424.99" style="stroke:#181818;stroke-width:1.0;"/><text fill="#000000" font-family="sans-serif" font-size="13" lengthAdjust="spacing" textLength="177" x="1135" y="310.897">formato_invalido [intentos=3]</text></g><!--link ValidandoContenido to ValidandoContenido--><g id="link_ValidandoContenido_ValidandoContenido"><path d="M808.16,358.14 C828.06,358.92 843,362.88 843,370 C843,377.12 834.0554,380.845 814.1554,381.625 " fill="none" id="ValidandoContenido-to-ValidandoContenido" style="stroke:#181818;stroke-width:1.0;"/><polygon fill="#181818" points="808.16,381.86,817.3098,385.5044,813.1562,381.6642,816.9964,377.5106,808.16,381.86" style="stroke:#181818;stroke-width:1.0;"/><text fill="#000000" font-family="sans-serif" font-size="13" lengthAdjust="spacing" textLength="319" x="849" y="375.397">contenido_invalido [intentos&lt;3] / intentos++, notificar</text></g><!--link ValidandoContenido to ValidandoAutorizacion--><g id="link_ValidandoContenido_ValidandoAutorizacion"><path d="M730,395.34 C730,425.12 730,469.22 730,498.89 " fill="none" id="ValidandoContenido-to-ValidandoAutorizacion" style="stroke:#181818;stroke-width:1.0;"/><polygon fill="#181818" points="730,504.89,734,495.89,730,499.89,726,495.89,730,504.89" style="stroke:#181818;stroke-width:1.0;"/><text fill="#000000" font-family="sans-serif" font-size="13" lengthAdjust="spacing" textLength="103" x="731" y="455.397">contenido_valido</text></g><!--link ValidandoContenido to RechazadaContenido--><g id="link_ValidandoContenido_RechazadaContenido"><path d="M651.61,383.3 C613.56,391.46 568.16,404.55 531,425 C453.91,467.43 386.5918,540.748 353.4318,580.178 " fill="none" id="ValidandoContenido-to-RechazadaContenido" style="stroke:#181818;stroke-width:1.0;"/><polygon fill="#181818" points="349.57,584.77,358.424,580.4565,352.7882,580.9433,352.3014,575.3075,349.57,584.77" style="stroke:#181818;stroke-width:1.0;"/><text fill="#000000" font-family="sans-serif" font-size="13" lengthAdjust="spacing" textLength="189" x="532" y="455.397">contenido_invalido [intentos=3]</text></g><!--link ValidandoAutorizacion to ValidandoAutorizacion--><g id="link_ValidandoAutorizacion_ValidandoAutorizacion"><path d="M815.56,515.3 C835.67,516.51 850.5,521.41 850.5,530 C850.5,538.59 841.6592,543.1296 821.5492,544.3396 " fill="none" id="ValidandoAutorizacion-to-ValidandoAutorizacion" style="stroke:#181818;stroke-width:1.0;"/><polygon fill="#181818" points="815.56,544.7,824.784,548.1522,820.551,544.3997,824.3035,540.1667,815.56,544.7" style="stroke:#181818;stroke-width:1.0;"/><text fill="#000000" font-family="sans-serif" font-size="13" lengthAdjust="spacing" textLength="331" x="856.5" y="535.397">autorizacion_invalida [intentos&lt;3] / intentos++, notificar</text></g><!--link ValidandoAutorizacion to EsperandoSupervisor--><g id="link_ValidandoAutorizacion_EsperandoSupervisor"><path d="M704.12,555.34 C672.46,585.12 623.5609,631.1096 592.0109,660.7796 " fill="none" id="ValidandoAutorizacion-to-EsperandoSupervisor" style="stroke:#181818;stroke-width:1.0;"/><polygon fill="#181818" points="587.64,664.89,596.9366,661.6383,591.2824,661.4647,591.456,655.8105,587.64,664.89" style="stroke:#181818;stroke-width:1.0;"/><text fill="#000000" font-family="sans-serif" font-size="13" lengthAdjust="spacing" textLength="199" x="671" y="615.397">autorizacion_valida / iniciar_timer</text></g><!--link ValidandoAutorizacion to RechazadaAutorizacion--><g id="link_ValidandoAutorizacion_RechazadaAutorizacion"><path d="M809.53,555.1 C832.53,563.31 857.28,573.4 879,585 C959.39,627.92 1031.8847,701.1788 1067.7347,740.4488 " fill="none" id="ValidandoAutorizacion-to-RechazadaAutorizacion" style="stroke:#181818;stroke-width:1.0;"/><polygon fill="#181818" points="1071.78,744.88,1068.6662,735.5363,1068.4089,741.1873,1062.7579,740.9301,1071.78,744.88" style="stroke:#181818;stroke-width:1.0;"/><text fill="#000000" font-family="sans-serif" font-size="13" lengthAdjust="spacing" textLength="201" x="953" y="615.397">autorizacion_invalida [intentos=3]</text></g><!--link EsperandoSupervisor to EsperandoSupervisor--><g id="link_EsperandoSupervisor_EsperandoSupervisor"><path d="M644.01,675.23 C664.07,676.33 679,681.25 679,690 C679,698.75 670.061,703.3415 650.001,704.4415 " fill="none" id="EsperandoSupervisor-to-EsperandoSupervisor" style="stroke:#181818;stroke-width:1.0;"/><polygon fill="#181818" points="644.01,704.77,653.2155,708.2712,649.0025,704.4962,652.7775,700.2832,644.01,704.77" style="stroke:#181818;stroke-width:1.0;"/><text fill="#000000" font-family="sans-serif" font-size="13" lengthAdjust="spacing" textLength="296" x="685" y="695.397">timeout_24h / enviar_recordatorio, reiniciar_timer</text></g><!--link EsperandoSupervisor to EsperandoGerencia--><g id="link_EsperandoSupervisor_EsperandoGerencia"><path d="M479.98,697.58 C422.68,704.36 345.41,717.96 282,745 C235.7,764.74 194.0476,796.876 166.1276,820.906 " fill="none" id="EsperandoSupervisor-to-EsperandoGerencia" style="stroke:#181818;stroke-width:1.0;"/><polygon fill="#181818" points="161.58,824.82,171.0107,821.9807,165.3697,821.5583,165.7921,815.9173,161.58,824.82" style="stroke:#181818;stroke-width:1.0;"/><text fill="#000000" font-family="sans-serif" font-size="13" lengthAdjust="spacing" textLength="297" x="283" y="775.397">supervisor_aprueba [monto&gt;10000] / iniciar_timer</text></g><!--link EsperandoSupervisor to Aprobada--><g id="link_EsperandoSupervisor_Aprobada"><path d="M574.24,715.16 C578.34,724.29 582.5,734.91 585,745 C606.4,831.38 608.0827,932.0103 607.5927,978.9203 " fill="none" id="EsperandoSupervisor-to-Aprobada" style="stroke:#181818;stroke-width:1.0;"/><polygon fill="#181818" points="607.53,984.92,611.6238,975.9623,607.5822,979.9203,603.6242,975.8787,607.53,984.92" style="stroke:#181818;stroke-width:1.0;"/><text fill="#000000" font-family="sans-serif" font-size="13" lengthAdjust="spacing" textLength="220" x="604" y="855.397">supervisor_aprueba [monto&lt;=10000]</text></g><!--link EsperandoSupervisor to RechazadaSupervisor--><g id="link_EsperandoSupervisor_RechazadaSupervisor"><path d="M644.31,706.58 C709.07,723.63 795.12,758.01 837,825 C852.22,849.35 843.0414,877.0448 831.1914,899.2848 " fill="none" id="EsperandoSupervisor-to-RechazadaSupervisor" style="stroke:#181818;stroke-width:1.0;"/><polygon fill="#181818" points="828.37,904.58,836.1323,898.5181,830.7212,900.1673,829.072,894.7562,828.37,904.58" style="stroke:#181818;stroke-width:1.0;"/><text fill="#000000" font-family="sans-serif" font-size="13" lengthAdjust="spacing" textLength="115" x="812" y="775.397">supervisor_rechaza</text></g><!--link EsperandoGerencia to EsperandoGerencia--><g id="link_EsperandoGerencia_EsperandoGerencia"><path d="M211,835.14 C230.94,836.02 246,840.98 246,850 C246,859.02 236.9342,863.7155 216.9942,864.5955 " fill="none" id="EsperandoGerencia-to-EsperandoGerencia" style="stroke:#181818;stroke-width:1.0;"/><polygon fill="#181818" points="211,864.86,220.1676,868.4593,215.9951,864.6396,219.8149,860.4671,211,864.86" style="stroke:#181818;stroke-width:1.0;"/><text fill="#000000" font-family="sans-serif" font-size="13" lengthAdjust="spacing" textLength="296" x="252" y="855.397">timeout_24h / enviar_recordatorio, reiniciar_timer</text></g><!--link EsperandoGerencia to Aprobada--><g id="link_EsperandoGerencia_Aprobada"><path d="M211.14,864.41 C256.99,873.55 316.16,887.21 367,905 C415.79,922.07 424.65,934.28 472,955 C502.41,968.31 531.6077,980.016 558.2577,990.376 " fill="none" id="EsperandoGerencia-to-Aprobada" style="stroke:#181818;stroke-width:1.0;"/><polygon fill="#181818" points="563.85,992.55,556.9109,985.5608,559.1897,990.7384,554.0122,993.0172,563.85,992.55" style="stroke:#181818;stroke-width:1.0;"/><text fill="#000000" font-family="sans-serif" font-size="13" lengthAdjust="spacing" textLength="107" x="473" y="935.397">gerencia_aprueba</text></g><!--link EsperandoGerencia to RechazadaGerencia--><g id="link_EsperandoGerencia_RechazadaGerencia"><path d="M163.19,875.34 C197.68,905.12 251.1682,951.2993 285.5382,980.9693 " fill="none" id="EsperandoGerencia-to-RechazadaGerencia" style="stroke:#181818;stroke-width:1.0;"/><polygon fill="#181818" points="290.08,984.89,285.8811,975.9811,286.2952,981.6227,280.6535,982.0368,290.08,984.89" style="stroke:#181818;stroke-width:1.0;"/><text fill="#000000" font-family="sans-serif" font-size="13" lengthAdjust="spacing" textLength="103" x="255" y="935.397">gerencia_rechaza</text></g><!--link Aprobada to *end*--><g id="link_Aprobada_*end*"><path d="M646.26,1035.22 C681.9,1057.21 726.7839,1084.8892 746.9439,1097.3292 " fill="none" id="Aprobada-to-*end*" style="stroke:#181818;stroke-width:1.0;"/><polygon fill="#181818" points="752.05,1100.48,746.4914,1092.3497,747.7949,1097.8543,742.2903,1099.1579,752.05,1100.48" style="stroke:#181818;stroke-width:1.0;"/></g><!--link RechazadaFormato to *end*--><g id="link_RechazadaFormato_*end*"><path d="M1237.71,475.02 C1242.15,505.93 1249,561.33 1249,609 C1249,609 1249,609 1249,1011 C1249,1111.55 850.7487,1107.883 778.1087,1106.393 " fill="none" id="RechazadaFormato-to-*end*" style="stroke:#181818;stroke-width:1.0;"/><polygon fill="#181818" points="772.11,1106.27,781.0261,1110.4537,777.1089,1106.3725,781.1901,1102.4554,772.11,1106.27" style="stroke:#181818;stroke-width:1.0;"/></g><!--link RechazadaContenido to *end*--><g id="link_RechazadaContenido_*end*"><path d="M248.66,616.05 C152.68,626.94 6,661.2 6,769 C6,769 6,769 6,1011 C6,1089.52 651.191,1104.0208 744.041,1105.7108 " fill="none" id="RechazadaContenido-to-*end*" style="stroke:#181818;stroke-width:1.0;"/><polygon fill="#181818" points="750.04,1105.82,741.1143,1101.6569,745.0408,1105.729,740.9687,1109.6556,750.04,1105.82" style="stroke:#181818;stroke-width:1.0;"/></g><!--link RechazadaAutorizacion to *end*--><g id="link_RechazadaAutorizacion_*end*"><path d="M1069.52,795.22 C1035.26,830.51 969.5,898.06 913,955 C857.98,1010.45 795.216,1072.331 772.906,1094.291 " fill="none" id="RechazadaAutorizacion-to-*end*" style="stroke:#181818;stroke-width:1.0;"/><polygon fill="#181818" points="768.63,1098.5,777.8501,1095.0372,772.1934,1094.9925,772.2381,1089.3359,768.63,1098.5" style="stroke:#181818;stroke-width:1.0;"/></g><!--link RechazadaSupervisor to *end*--><g id="link_RechazadaSupervisor_*end*"><path d="M805.77,955.33 C794.16,994.4 773.5681,1063.6983 765.6181,1090.4683 " fill="none" id="RechazadaSupervisor-to-*end*" style="stroke:#181818;stroke-width:1.0;"/><polygon fill="#181818" points="763.91,1096.22,770.3067,1088.7312,765.3334,1091.4269,762.6377,1086.4537,763.91,1096.22" style="stroke:#181818;stroke-width:1.0;"/></g><!--link RechazadaGerencia to *end*--><g id="link_RechazadaGerencia_*end*"><path d="M394.66,1027.44 C505.6,1051.23 697.0032,1092.2826 744.5932,1102.4826 " fill="none" id="RechazadaGerencia-to-*end*" style="stroke:#181818;stroke-width:1.0;"/><polygon fill="#181818" points="750.46,1103.74,742.4981,1097.9427,745.571,1102.6921,740.8216,1105.765,750.46,1103.74" style="stroke:#181818;stroke-width:1.0;"/></g><!--SRC=[fLJ9Ri8m4BtdAtncKMdfgG8aLBMzjr8lA8g6n1HBnOCc3WU-lcD2Z4qmMpaDUPwtWJFhfABVduXFcQkvAY19ccdt-1j-UTG5lYEjmA1u4RJ3IJm8fOtK1iizDXuaIUjyX6HHJvdI6mkYc3Laes7gKNUxFQ7Hg8NAWIwmlw9TicG7_fhzz287NS8M2hZ6rdYOUkaEKb47UJFVcp6YCQqCajf2hb07CiTHmtqNzbgFOU10zPmVyBush71ZyfROMxcMP96lYeUDAf6EfVP2bblb2YWpQYNFSRf2RWkmg-MKdxXFwmGhapqzBzcVr1jhZsyHKW5M2tjyfqBR5mK-94dD2qnVkYCPhAcIStQxuXyM9uy3_gIjJcBaqpNXd0ivnpaQrwHH4bThK877H_K1hqIN9PRmFmK6v5x2d_tp9bzamyNnxBXL5yNnsfLP9qrQhvOM4DxE06hzLGFqgEy02wmpyWS0]--></g></svg>