<?xml version="1.0" encoding="us-ascii" standalone="no"?><svg xmlns="http://www.w3.org/2000/svg" xmlns:xlink="http://www.w3.org/1999/xlink" contentStyleType="text/css" height="644px" preserveAspectRatio="none" style="width:817px;height:644px;background:#FFFFFF;" version="1.1" viewBox="0 0 817 644" width="817px" zoomAndPan="magnify"><defs/><g><ellipse cx="409.81" cy="16" fill="#222222" rx="10" ry="10" style="stroke:#222222;stroke-width:1.0;"/><g id="Recibida"><rect fill="#F1F1F1" height="50" rx="12.5" ry="12.5" style="stroke:#181818;stroke-width:0.5;" width="78" x="370.81" y="87"/><line style="stroke:#181818;stroke-width:0.5;" x1="370.81" x2="448.81" y1="116.0679" y2="116.0679"/><text fill="#000000" font-family="sans-serif" font-size="14" lengthAdjust="spacing" textLength="58" x="380.81" y="106.9659">Recibida</text></g><g id="EnValidaci&#243;n"><rect fill="#F1F1F1" height="50" rx="12.5" ry="12.5" style="stroke:#181818;stroke-width:0.5;" width="106" x="356.81" y="216"/><line style="stroke:#181818;stroke-width:0.5;" x1="356.81" x2="462.81" y1="245.0679" y2="245.0679"/><text fill="#000000" font-family="sans-serif" font-size="14" lengthAdjust="spacing" textLength="86" x="366.81" y="235.9659">EnValidaci&#243;n</text></g><g id="EnVerificaci&#243;n"><rect fill="#F1F1F1" height="50" rx="12.5" ry="12.5" style="stroke:#181818;stroke-width:0.5;" width="115" x="193.31" y="345"/><line style="stroke:#181818;stroke-width:0.5;" x1="193.31" x2="308.31" y1="374.0679" y2="374.0679"/><text fill="#000000" font-family="sans-serif" font-size="14" lengthAdjust="spacing" textLength="95" x="203.31" y="364.9659">EnVerificaci&#243;n</text></g><g id="RechazadaPorIntentos"><rect fill="#F1F1F1" height="50" rx="12.5" ry="12.5" style="stroke:#181818;stroke-width:0.5;" width="171" x="484.31" y="425"/><line style="stroke:#181818;stroke-width:0.5;" x1="484.31" x2="655.31" y1="454.0679" y2="454.0679"/><text fill="#000000" font-family="sans-serif" font-size="14" lengthAdjust="spacing" textLength="151" x="494.31" y="444.9659">RechazadaPorIntentos</text></g><g id="Aprobada"><rect fill="#F1F1F1" height="50" rx="12.5" ry="12.5" style="stroke:#181818;stroke-width:0.5;" width="86" x="20.81" y="505"/><line style="stroke:#181818;stroke-width:0.5;" x1="20.81" x2="106.81" y1="534.0679" y2="534.0679"/><text fill="#000000" font-family="sans-serif" font-size="14" lengthAdjust="spacing" textLength="66" x="30.81" y="524.9659">Aprobada</text></g><g id="Rechazada"><rect fill="#F1F1F1" height="50" rx="12.5" ry="12.5" style="stroke:#181818;stroke-width:0.5;" width="93" x="204.31" y="505"/><line style="stroke:#181818;stroke-width:0.5;" x1="204.31" x2="297.31" y1="534.0679" y2="534.0679"/><text fill="#000000" font-family="sans-serif" font-size="14" lengthAdjust="spacing" textLength="73" x="214.31" y="524.9659">Rechazada</text></g><ellipse cx="250.81" cy="627" fill="none" rx="11" ry="11" style="stroke:#222222;stroke-width:1.0;"/><ellipse cx="250.81" cy="627" fill="#222222" rx="6" ry="6" style="stroke:#222222;stroke-width:1.0;"/><!--link *start* to Recibida--><g id="link_*start*_Recibida"><path d="M409.81,26.01 C409.81,39.89 409.81,60.97 409.81,80.84 " fill="none" id="*start*-to-Recibida" style="stroke:#181818;stroke-width:1.0;"/><polygon fill="#181818" points="409.81,86.84,413.81,77.84,409.81,81.84,405.81,77.84,409.81,86.84" style="stroke:#181818;stroke-width:1.0;"/></g><!--link Recibida to EnValidaci?n--><g id="link_Recibida_EnValidaci&#243;n"><path d="M409.81,137.19 C409.81,159.78 409.81,187.33 409.81,209.9 " fill="none" id="Recibida-to-EnValidaci&#243;n" style="stroke:#181818;stroke-width:1.0;"/><polygon fill="#181818" points="409.81,215.9,413.81,206.9,409.81,210.9,405.81,206.9,409.81,215.9" style="stroke:#181818;stroke-width:1.0;"/><text fill="#000000" font-family="sans-serif" font-size="13" lengthAdjust="spacing" textLength="171" x="410.81" y="181.897">recibir solicitud / intentos = 0</text></g><!--link EnValidaci?n to EnValidaci?n--><g id="link_EnValidaci&#243;n_EnValidaci&#243;n"><path d="M463.08,229.01 C482.21,228.75 497.81,232.75 497.81,241 C497.81,249.25 488.2094,253.3315 469.0794,253.0715 " fill="none" id="EnValidaci&#243;n-to-EnValidaci&#243;n" style="stroke:#181818;stroke-width:1.0;"/><polygon fill="#181818" points="463.08,252.99,472.0248,257.1119,468.0795,253.0579,472.1335,249.1127,463.08,252.99" style="stroke:#181818;stroke-width:1.0;"/><text fill="#000000" font-family="sans-serif" font-size="13" lengthAdjust="spacing" textLength="301" x="503.81" y="246.397">validar formato (inv&#225;lido, intentos &lt; 3) / intentos++</text></g><!--link EnValidaci?n to EnVerificaci?n--><g id="link_EnValidaci&#243;n_EnVerificaci&#243;n"><path d="M379.53,266.19 C351.24,288.78 313.9176,318.5849 285.6676,341.1549 " fill="none" id="EnValidaci&#243;n-to-EnVerificaci&#243;n" style="stroke:#181818;stroke-width:1.0;"/><polygon fill="#181818" points="280.98,344.9,290.5082,342.4074,284.8864,341.7791,285.5147,336.1572,280.98,344.9" style="stroke:#181818;stroke-width:1.0;"/><text fill="#000000" font-family="sans-serif" font-size="13" lengthAdjust="spacing" textLength="139" x="340.81" y="310.897">validar formato (v&#225;lido)</text></g><!--link EnValidaci?n to RechazadaPorIntentos--><g id="link_EnValidaci&#243;n_RechazadaPorIntentos"><path d="M453,266.06 C465.56,274.42 478.63,284.6 488.81,296 C523.95,335.34 546.8421,387.0438 559.1021,419.1938 " fill="none" id="EnValidaci&#243;n-to-RechazadaPorIntentos" style="stroke:#181818;stroke-width:1.0;"/><polygon fill="#181818" points="561.24,424.8,561.7707,414.9655,559.4585,420.1282,554.2957,417.8159,561.24,424.8" style="stroke:#181818;stroke-width:1.0;"/><text fill="#000000" font-family="sans-serif" font-size="13" lengthAdjust="spacing" textLength="226" x="503.81" y="310.897">validar formato (inv&#225;lido, intentos = 3)</text></g><!--link EnVerificaci?n to Aprobada--><g id="link_EnVerificaci&#243;n_Aprobada"><path d="M193.11,376.4 C131.88,383.46 41.05,398.22 19.81,425 C6,442.41 12.36,454.06 19.81,475 C23.7,485.94 26.9453,491.723 34.3753,500.353 " fill="none" id="EnVerificaci&#243;n-to-Aprobada" style="stroke:#181818;stroke-width:1.0;"/><polygon fill="#181818" points="38.29,504.9,35.4492,495.4697,35.0277,501.1109,29.3866,500.6894,38.29,504.9" style="stroke:#181818;stroke-width:1.0;"/><text fill="#000000" font-family="sans-serif" font-size="13" lengthAdjust="spacing" textLength="207" x="20.81" y="455.397">verificar disponibilidad (disponible)</text></g><!--link EnVerificaci?n to Rechazada--><g id="link_EnVerificaci&#243;n_Rechazada"><path d="M244.29,395 C242.08,404.3 239.9,415.07 238.81,425 C236.38,447.09 236.38,452.91 238.81,475 C239.9,484.93 240.6928,489.8626 242.9028,499.1626 " fill="none" id="EnVerificaci&#243;n-to-Rechazada" style="stroke:#181818;stroke-width:1.0;"/><polygon fill="#181818" points="244.29,505,246.1009,495.3191,243.134,500.1355,238.3176,497.1686,244.29,505" style="stroke:#181818;stroke-width:1.0;"/><text fill="#000000" font-family="sans-serif" font-size="13" lengthAdjust="spacing" textLength="226" x="239.81" y="455.397">verificar disponibilidad (no disponible)</text></g><!--link Aprobada to *end*--><g id="link_Aprobada_*end*"><path d="M107.18,553.03 C151.42,575.51 211.5602,606.0634 235.9002,618.4234 " fill="none" id="Aprobada-to-*end*" style="stroke:#181818;stroke-width:1.0;"/><polygon fill="#181818" points="241.25,621.14,235.0365,613.4985,236.7919,618.8761,231.4143,620.6315,241.25,621.14" style="stroke:#181818;stroke-width:1.0;"/></g><!--link Rechazada to *end*--><g id="link_Rechazada_*end*"><path d="M250.81,555.46 C250.81,575.04 250.81,595.49 250.81,609.8 " fill="none" id="Rechazada-to-*end*" style="stroke:#181818;stroke-width:1.0;"/><polygon fill="#181818" points="250.81,615.8,254.81,606.8,250.81,610.8,246.81,606.8,250.81,615.8" style="stroke:#181818;stroke-width:1.0;"/></g><!--link RechazadaPorIntentos to *end*--><g id="link_RechazadaPorIntentos_*end*"><path d="M525.79,475.15 C449.9,516.78 304.1001,596.7636 265.3201,618.0436 " fill="none" id="RechazadaPorIntentos-to-*end*" style="stroke:#181818;stroke-width:1.0;"/><polygon fill="#181818" points="260.06,620.93,269.8744,620.1071,264.4434,618.5247,266.0259,613.0937,260.06,620.93" style="stroke:#181818;stroke-width:1.0;"/></g><!--SRC=[ZT2z3e90303W_PwY8pyIJToCc3Wuk1a75y9mS4TiWbTo88DlupFu2BoO1-5FHUDsRTElxGLE29wtWQECCKB1MVTeiZjruga9OgmU2bQWcwA6d5ACiRWAc0EgGgg2Sl1XmLuRfeYoYJGaf2-y8B1GbTNTv6WsK6jOsYFQTQTXgJ71-3lTmlP4jpdpp6zSy0FfVJVsp-ryinrx7r-ZsqnJPCmQQeiQ1EOPAVDjjIp0wk9KJYFzPZyLHJ26-icr43WX6vIFpFZYjlW4]--></g></svg>