<?xml version="1.0" encoding="us-ascii" standalone="no"?><svg xmlns="http://www.w3.org/2000/svg" xmlns:xlink="http://www.w3.org/1999/xlink" contentStyleType="text/css" height="657px" preserveAspectRatio="none" style="width:568px;height:657px;background:#FFFFFF;" version="1.1" viewBox="0 0 568 657" width="568px" zoomAndPan="magnify"><defs/><g><ellipse cx="289.25" cy="20" fill="#222222" rx="10" ry="10" style="stroke:#222222;stroke-width:1.0;"/><rect fill="#F1F1F1" height="36.3441" rx="12.5" ry="12.5" style="stroke:#181818;stroke-width:0.5;" width="107" x="235.75" y="50"/><text fill="#000000" font-family="sans-serif" font-size="12" lengthAdjust="spacing" textLength="87" x="245.75" y="72.8281">Recibir solicitud</text><rect fill="#F1F1F1" height="36.3441" rx="12.5" ry="12.5" style="stroke:#181818;stroke-width:0.5;" width="195" x="191.75" y="106.3441"/><text fill="#000000" font-family="sans-serif" font-size="12" lengthAdjust="spacing" textLength="175" x="201.75" y="129.1722">Inicializar contador intentos = 0</text><rect fill="#F1F1F1" height="36.3441" rx="12.5" ry="12.5" style="stroke:#181818;stroke-width:0.5;" width="107" x="235.75" y="206.6882"/><text fill="#000000" font-family="sans-serif" font-size="12" lengthAdjust="spacing" textLength="87" x="245.75" y="229.5163">Validar formato</text><rect fill="#F1F1F1" height="36.3441" rx="12.5" ry="12.5" style="stroke:#181818;stroke-width:0.5;" width="143" x="217.75" y="270.5323"/><text fill="#000000" font-family="sans-serif" font-size="12" lengthAdjust="spacing" textLength="123" x="227.75" y="293.3604">Incrementar contador</text><polygon fill="#F1F1F1" points="289.25,162.6882,301.25,174.6882,289.25,186.6882,277.25,174.6882,289.25,162.6882" style="stroke:#181818;stroke-width:0.5;"/><polygon fill="#F1F1F1" points="244.25,326.8765,334.25,326.8765,346.25,338.8765,334.25,350.8765,244.25,350.8765,232.25,338.8765,244.25,326.8765" style="stroke:#181818;stroke-width:0.5;"/><text fill="#000000" font-family="sans-serif" font-size="11" lengthAdjust="spacing" textLength="87" x="293.25" y="362.6354">s&#237; o contador = 3</text><text fill="#000000" font-family="sans-serif" font-size="11" lengthAdjust="spacing" textLength="90" x="244.25" y="343.1444">&#191;Formato v&#225;lido?</text><text fill="#000000" font-family="sans-serif" font-size="11" lengthAdjust="spacing" textLength="92" x="346.25" y="335.6535">no y contador &lt; 3</text><polygon fill="#F1F1F1" points="244.25,384.1354,334.25,384.1354,346.25,396.1354,334.25,408.1354,244.25,408.1354,232.25,396.1354,244.25,384.1354" style="stroke:#181818;stroke-width:0.5;"/><text fill="#000000" font-family="sans-serif" font-size="11" lengthAdjust="spacing" textLength="90" x="244.25" y="400.4033">&#191;Formato v&#225;lido?</text><text fill="#000000" font-family="sans-serif" font-size="11" lengthAdjust="spacing" textLength="8" x="224.25" y="392.9124">s&#237;</text><text fill="#000000" font-family="sans-serif" font-size="11" lengthAdjust="spacing" textLength="14" x="346.25" y="392.9124">no</text><rect fill="#F1F1F1" height="36.3441" rx="12.5" ry="12.5" style="stroke:#181818;stroke-width:0.5;" width="147" x="71" y="418.1354"/><text fill="#000000" font-family="sans-serif" font-size="12" lengthAdjust="spacing" textLength="127" x="81" y="440.9635">Verificar disponibilidad</text><polygon fill="#F1F1F1" points="90.5,474.4795,198.5,474.4795,210.5,486.4795,198.5,498.4795,90.5,498.4795,78.5,486.4795,90.5,474.4795" style="stroke:#181818;stroke-width:0.5;"/><text fill="#000000" font-family="sans-serif" font-size="11" lengthAdjust="spacing" textLength="108" x="90.5" y="490.7475">&#191;Hay disponibilidad?</text><text fill="#000000" font-family="sans-serif" font-size="11" lengthAdjust="spacing" textLength="8" x="70.5" y="483.2565">s&#237;</text><text fill="#000000" font-family="sans-serif" font-size="11" lengthAdjust="spacing" textLength="14" x="210.5" y="483.2565">no</text><rect fill="#F1F1F1" height="36.3441" rx="12.5" ry="12.5" style="stroke:#181818;stroke-width:0.5;" width="115" x="11" y="508.4795"/><text fill="#000000" font-family="sans-serif" font-size="12" lengthAdjust="spacing" textLength="95" x="21" y="531.3076">Aprobar solicitud</text><rect fill="#F1F1F1" height="36.3441" rx="12.5" ry="12.5" style="stroke:#181818;stroke-width:0.5;" width="121" x="160" y="508.4795"/><text fill="#000000" font-family="sans-serif" font-size="12" lengthAdjust="spacing" textLength="101" x="170" y="531.3076">Rechazar solicitud</text><polygon fill="#F1F1F1" points="144.5,550.8236,156.5,562.8236,144.5,574.8236,132.5,562.8236,144.5,550.8236" style="stroke:#181818;stroke-width:0.5;"/><rect fill="#F1F1F1" height="36.3441" rx="12.5" ry="12.5" style="stroke:#181818;stroke-width:0.5;" width="246" x="311" y="418.1354"/><text fill="#000000" font-family="sans-serif" font-size="12" lengthAdjust="spacing" textLength="226" x="321" y="440.9635">Rechazar solicitud por intentos agotados</text><polygon fill="#F1F1F1" points="289.25,580.8236,301.25,592.8236,289.25,604.8236,277.25,592.8236,289.25,580.8236" style="stroke:#181818;stroke-width:0.5;"/><ellipse cx="289.25" cy="635.8236" fill="none" rx="11" ry="11" style="stroke:#222222;stroke-width:1.0;"/><ellipse cx="289.25" cy="635.8236" fill="#222222" rx="6" ry="6" style="stroke:#222222;stroke-width:1.0;"/><line style="stroke:#181818;stroke-width:1.0;" x1="289.25" x2="289.25" y1="30" y2="50"/><polygon fill="#181818" points="285.25,40,289.25,50,293.25,40,289.25,44" style="stroke:#181818;stroke-width:1.0;"/><line style="stroke:#181818;stroke-width:1.0;" x1="289.25" x2="289.25" y1="86.3441" y2="106.3441"/><polygon fill="#181818" points="285.25,96.3441,289.25,106.3441,293.25,96.3441,289.25,100.3441" style="stroke:#181818;stroke-width:1.0;"/><line style="stroke:#181818;stroke-width:1.0;" x1="289.25" x2="289.25" y1="243.0323" y2="270.5323"/><polygon fill="#181818" points="285.25,260.5323,289.25,270.5323,293.25,260.5323,289.25,264.5323" style="stroke:#181818;stroke-width:1.0;"/><line style="stroke:#181818;stroke-width:1.0;" x1="289.25" x2="289.25" y1="186.6882" y2="206.6882"/><polygon fill="#181818" points="285.25,196.6882,289.25,206.6882,293.25,196.6882,289.25,200.6882" style="stroke:#181818;stroke-width:1.0;"/><line style="stroke:#181818;stroke-width:1.0;" x1="346.25" x2="372.75" y1="338.8765" y2="338.8765"/><polygon fill="#181818" points="368.75,263.0323,372.75,253.0323,376.75,263.0323,372.75,259.0323" style="stroke:#181818;stroke-width:1.0;"/><line style="stroke:#181818;stroke-width:1.0;" x1="372.75" x2="372.75" y1="174.6882" y2="338.8765"/><line style="stroke:#181818;stroke-width:1.0;" x1="372.75" x2="301.25" y1="174.6882" y2="174.6882"/><polygon fill="#181818" points="311.25,170.6882,301.25,174.6882,311.25,178.6882,307.25,174.6882" style="stroke:#181818;stroke-width:1.0;"/><line style="stroke:#181818;stroke-width:1.0;" x1="289.25" x2="289.25" y1="306.8765" y2="326.8765"/><polygon fill="#181818" points="285.25,316.8765,289.25,326.8765,293.25,316.8765,289.25,320.8765" style="stroke:#181818;stroke-width:1.0;"/><line style="stroke:#181818;stroke-width:1.0;" x1="289.25" x2="289.25" y1="142.6882" y2="162.6882"/><polygon fill="#181818" points="285.25,152.6882,289.25,162.6882,293.25,152.6882,289.25,156.6882" style="stroke:#181818;stroke-width:1.0;"/><line style="stroke:#181818;stroke-width:1.0;" x1="78.5" x2="68.5" y1="486.4795" y2="486.4795"/><line style="stroke:#181818;stroke-width:1.0;" x1="68.5" x2="68.5" y1="486.4795" y2="508.4795"/><polygon fill="#181818" points="64.5,498.4795,68.5,508.4795,72.5,498.4795,68.5,502.4795" style="stroke:#181818;stroke-width:1.0;"/><line style="stroke:#181818;stroke-width:1.0;" x1="210.5" x2="220.5" y1="486.4795" y2="486.4795"/><line style="stroke:#181818;stroke-width:1.0;" x1="220.5" x2="220.5" y1="486.4795" y2="508.4795"/><polygon fill="#181818" points="216.5,498.4795,220.5,508.4795,224.5,498.4795,220.5,502.4795" style="stroke:#181818;stroke-width:1.0;"/><line style="stroke:#181818;stroke-width:1.0;" x1="68.5" x2="68.5" y1="544.8236" y2="562.8236"/><line style="stroke:#181818;stroke-width:1.0;" x1="68.5" x2="132.5" y1="562.8236" y2="562.8236"/><polygon fill="#181818" points="122.5,558.8236,132.5,562.8236,122.5,566.8236,126.5,562.8236" style="stroke:#181818;stroke-width:1.0;"/><line style="stroke:#181818;stroke-width:1.0;" x1="220.5" x2="220.5" y1="544.8236" y2="562.8236"/><line style="stroke:#181818;stroke-width:1.0;" x1="220.5" x2="156.5" y1="562.8236" y2="562.8236"/><polygon fill="#181818" points="166.5,558.8236,156.5,562.8236,166.5,566.8236,162.5,562.8236" style="stroke:#181818;stroke-width:1.0;"/><line style="stroke:#181818;stroke-width:1.0;" x1="144.5" x2="144.5" y1="454.4795" y2="474.4795"/><polygon fill="#181818" points="140.5,464.4795,144.5,474.4795,148.5,464.4795,144.5,468.4795" style="stroke:#181818;stroke-width:1.0;"/><line style="stroke:#181818;stroke-width:1.0;" x1="232.25" x2="144.5" y1="396.1354" y2="396.1354"/><line style="stroke:#181818;stroke-width:1.0;" x1="144.5" x2="144.5" y1="396.1354" y2="418.1354"/><polygon fill="#181818" points="140.5,408.1354,144.5,418.1354,148.5,408.1354,144.5,412.1354" style="stroke:#181818;stroke-width:1.0;"/><line style="stroke:#181818;stroke-width:1.0;" x1="346.25" x2="434" y1="396.1354" y2="396.1354"/><line style="stroke:#181818;stroke-width:1.0;" x1="434" x2="434" y1="396.1354" y2="418.1354"/><polygon fill="#181818" points="430,408.1354,434,418.1354,438,408.1354,434,412.1354" style="stroke:#181818;stroke-width:1.0;"/><line style="stroke:#181818;stroke-width:1.0;" x1="144.5" x2="144.5" y1="574.8236" y2="592.8236"/><line style="stroke:#181818;stroke-width:1.0;" x1="144.5" x2="277.25" y1="592.8236" y2="592.8236"/><polygon fill="#181818" points="267.25,588.8236,277.25,592.8236,267.25,596.8236,271.25,592.8236" style="stroke:#181818;stroke-width:1.0;"/><line style="stroke:#181818;stroke-width:1.0;" x1="434" x2="434" y1="454.4795" y2="592.8236"/><line style="stroke:#181818;stroke-width:1.0;" x1="434" x2="301.25" y1="592.8236" y2="592.8236"/><polygon fill="#181818" points="311.25,588.8236,301.25,592.8236,311.25,596.8236,307.25,592.8236" style="stroke:#181818;stroke-width:1.0;"/><line style="stroke:#181818;stroke-width:1.0;" x1="289.25" x2="289.25" y1="350.8765" y2="384.1354"/><polygon fill="#181818" points="285.25,374.1354,289.25,384.1354,293.25,374.1354,289.25,378.1354" style="stroke:#181818;stroke-width:1.0;"/><line style="stroke:#181818;stroke-width:1.0;" x1="289.25" x2="289.25" y1="604.8236" y2="624.8236"/><polygon fill="#181818" points="285.25,614.8236,289.25,624.8236,293.25,614.8236,289.25,618.8236" style="stroke:#181818;stroke-width:1.0;"/><!--SRC=[RP11JWCn34NtEOMNCpiaTZDKY0sYMnRiqyJ3M9hQKM90xMqu06T0eXV3wO0wbEuY-_sVxr_KPtNT8mRQK8OY4mNIbzYxRitsz1FjVOOWh3vA1c95LYcmWglUPKperG5qJmP60mV9Mw_IrzcQGyQjuGk3NmsyZJGXD5-VzxC2NW_lPY6tBL21XWLsfrzluBe55eMc73v0JekLBHmDbtrqH3ugscD2p3HGi2oHIXAsUslaMAFE3Wz-TxOxDp6RkvHbu_yq1O1JmPhvXx4sHx__1t6amItH2o2aPSd-MUgTfNUpkAYaRm00]--></g></svg>