<?xml version="1.0" encoding="us-ascii" standalone="no"?><svg xmlns="http://www.w3.org/2000/svg" xmlns:xlink="http://www.w3.org/1999/xlink" contentStyleType="text/css" height="288px" preserveAspectRatio="none" style="width:1097px;height:288px;background:#FFFFFF;" version="1.1" viewBox="0 0 1097 288" width="1097px" zoomAndPan="magnify"><defs/><g><g id="elem_Solicitante"><rect fill="#F1F1F1" height="39.0679" style="stroke:#181818;stroke-width:0.5;" width="84" x="503.97" y="7"/><text fill="#000000" font-family="sans-serif" font-size="14" lengthAdjust="spacing" textLength="70" x="510.97" y="23.9659">Solicitante</text><line style="stroke:#181818;stroke-width:0.5;" x1="504.97" x2="586.97" y1="30.0679" y2="30.0679"/></g><g id="elem_Sistema"><rect fill="#F1F1F1" height="39.0679" style="stroke:#181818;stroke-width:0.5;" width="67" x="512.47" y="125"/><text fill="#000000" font-family="sans-serif" font-size="14" lengthAdjust="spacing" textLength="53" x="519.47" y="141.9659">Sistema</text><line style="stroke:#181818;stroke-width:0.5;" x1="513.47" x2="578.47" y1="148.0679" y2="148.0679"/></g><g id="elem_Validador"><rect fill="#F1F1F1" height="39.0679" style="stroke:#181818;stroke-width:0.5;" width="78" x="312.97" y="243"/><text fill="#000000" font-family="sans-serif" font-size="14" lengthAdjust="spacing" textLength="64" x="319.97" y="259.9659">Validador</text><line style="stroke:#181818;stroke-width:0.5;" x1="313.97" x2="389.97" y1="266.0679" y2="266.0679"/></g><g id="elem_Verificador"><rect fill="#F1F1F1" height="39.0679" style="stroke:#181818;stroke-width:0.5;" width="87" x="857.47" y="243"/><text fill="#000000" font-family="sans-serif" font-size="14" lengthAdjust="spacing" textLength="73" x="864.47" y="259.9659">Verificador</text><line style="stroke:#181818;stroke-width:0.5;" x1="858.47" x2="943.47" y1="266.0679" y2="266.0679"/></g><!--link Solicitante to Sistema--><g id="link_Solicitante_Sistema"><path codeLine="6" d="M503.9,26.94 C376.32,25.95 6,28.67 65.97,95 C95.88,128.08 402.3124,139.5195 506.4224,142.4795 " fill="none" id="Solicitante-to-Sistema" style="stroke:#181818;stroke-width:1.0;"/><polygon fill="#181818" points="512.42,142.65,503.5373,138.3958,507.422,142.5079,503.31,146.3926,512.42,142.65" style="stroke:#181818;stroke-width:1.0;"/><text fill="#000000" font-family="sans-serif" font-size="13" lengthAdjust="spacing" textLength="90" x="66.97" y="90.897">Enviar solicitud</text></g><!--link Sistema to Solicitante--><g id="link_Sistema_Solicitante"><path codeLine="10" d="M512.34,138.27 C469.11,130.02 402.24,111.18 425.97,76 C443.24,50.38 470.7079,39.5224 497.8679,33.8224 " fill="none" id="Sistema-to-Solicitante" style="stroke:#181818;stroke-width:1.0;"/><polygon fill="#181818" points="503.74,32.59,494.1103,30.5238,498.8466,33.617,495.7535,38.3533,503.74,32.59" style="stroke:#181818;stroke-width:1.0;"/><text fill="#000000" font-family="sans-serif" font-size="13" lengthAdjust="spacing" textLength="193" x="426.97" y="90.897">Solicitar correcci&#243;n [intentos &lt; 3]</text></g><!--link Solicitante to Sistema--><g id="link_Solicitante_Sistema"><path codeLine="11" d="M503.79,27.4 C425.25,28.2 261.32,34.89 225.97,76 C220.46,82.4 220.46,88.6 225.97,95 C262.65,137.66 431.7401,143.227 506.2701,143.637 " fill="none" id="Solicitante-to-Sistema-1" style="stroke:#181818;stroke-width:1.0;"/><polygon fill="#181818" points="512.27,143.67,503.2921,139.6206,507.2701,143.6425,503.2481,147.6204,512.27,143.67" style="stroke:#181818;stroke-width:1.0;"/><text fill="#000000" font-family="sans-serif" font-size="13" lengthAdjust="spacing" textLength="186" x="226.97" y="90.897">Reenviar solicitud [intentos &lt; 3]</text></g><!--link Sistema to Solicitante--><g id="link_Sistema_Solicitante"><path codeLine="15" d="M579.54,132 C596.38,124.34 615.22,112.42 624.97,95 C637.21,73.12 618.2799,57.6948 593.4699,45.7948 " fill="none" id="Sistema-to-Solicitante-1" style="stroke:#181818;stroke-width:1.0;"/><polygon fill="#181818" points="588.06,43.2,594.4449,50.6988,592.5682,45.3624,597.9047,43.4856,588.06,43.2" style="stroke:#181818;stroke-width:1.0;"/><text fill="#000000" font-family="sans-serif" font-size="13" lengthAdjust="spacing" textLength="112" x="629.97" y="90.897">Solicitud aprobada</text></g><!--link Sistema to Solicitante--><g id="link_Sistema_Solicitante"><path codeLine="16" d="M579.59,143.64 C648.82,142.77 797.05,134.26 750.97,76 C731.06,50.83 648.0635,38.0406 594.0835,32.0606 " fill="none" id="Sistema-to-Solicitante-2" style="stroke:#181818;stroke-width:1.0;"/><polygon fill="#181818" points="588.12,31.4,596.6248,36.3667,593.0896,31.9505,597.5057,28.4153,588.12,31.4" style="stroke:#181818;stroke-width:1.0;"/><text fill="#000000" font-family="sans-serif" font-size="13" lengthAdjust="spacing" textLength="115" x="759.97" y="90.897">Solicitud rechazada</text></g><!--link Sistema to Solicitante--><g id="link_Sistema_Solicitante"><path codeLine="17" d="M579.77,142.3 C673.12,138.38 924.97,123.31 883.97,76 C846.16,32.38 676.26,27.0637 594.26,27.0137 " fill="none" id="Sistema-to-Solicitante-3" style="stroke:#181818;stroke-width:1.0;"/><polygon fill="#181818" points="588.26,27.01,597.2576,31.0155,593.26,27.013,597.2624,23.0155,588.26,27.01" style="stroke:#181818;stroke-width:1.0;"/><text fill="#000000" font-family="sans-serif" font-size="13" lengthAdjust="spacing" textLength="201" x="888.97" y="90.897">Rechazada por intentos agotados</text></g><!--link Sistema to Validador--><g id="link_Sistema_Validador"><path codeLine="7" d="M512.45,145.12 C436,145.05 252.35,149.6 213.97,194 C182.92,229.91 255.8327,247.5889 306.7627,255.5889 " fill="none" id="Sistema-to-Validador" style="stroke:#181818;stroke-width:1.0;"/><polygon fill="#181818" points="312.69,256.52,304.4197,251.1719,307.7506,255.7441,303.1783,259.075,312.69,256.52" style="stroke:#181818;stroke-width:1.0;"/><text fill="#000000" font-family="sans-serif" font-size="13" lengthAdjust="spacing" textLength="93" x="214.97" y="208.897">Validar formato</text></g><!--link Validador to Sistema--><g id="link_Validador_Sistema"><path codeLine="8" d="M345.1,242.89 C340.93,228.09 338.26,207.66 348.97,194 C368.9,168.56 455.5089,155.3524 506.3489,149.5324 " fill="none" id="Validador-to-Sistema" style="stroke:#181818;stroke-width:1.0;"/><polygon fill="#181818" points="512.31,148.85,502.9135,145.8996,507.3424,149.4187,503.8233,153.8477,512.31,148.85" style="stroke:#181818;stroke-width:1.0;"/><text fill="#000000" font-family="sans-serif" font-size="13" lengthAdjust="spacing" textLength="73" x="349.97" y="208.897">Formato OK</text></g><!--link Validador to Sistema--><g id="link_Validador_Sistema"><path codeLine="9" d="M382.82,242.81 C405.3,229.22 436.48,210.41 463.97,194 C480.58,184.08 493.9742,176.152 509.2242,167.142 " fill="none" id="Validador-to-Sistema-1" style="stroke:#181818;stroke-width:1.0;"/><polygon fill="#181818" points="514.39,164.09,504.6067,165.2242,510.0852,166.6334,508.676,172.1119,514.39,164.09" style="stroke:#181818;stroke-width:1.0;"/><text fill="#000000" font-family="sans-serif" font-size="13" lengthAdjust="spacing" textLength="116" x="464.97" y="208.897">Formato incorrecto</text></g><!--link Sistema to Verificador--><g id="link_Sistema_Verificador"><path codeLine="12" d="M561.44,164.1 C575.54,179.74 597.8,201.35 621.97,213 C699.02,250.15 794.2237,258.9904 851.1537,260.9804 " fill="none" id="Sistema-to-Verificador" style="stroke:#181818;stroke-width:1.0;"/><polygon fill="#181818" points="857.15,261.19,848.2952,256.878,852.1531,261.0153,848.0158,264.8732,857.15,261.19" style="stroke:#181818;stroke-width:1.0;"/><text fill="#000000" font-family="sans-serif" font-size="13" lengthAdjust="spacing" textLength="234" x="622.97" y="208.897">Verificar disponibilidad [formato v&#225;lido]</text></g><!--link Verificador to Sistema--><g id="link_Verificador_Sistema"><path codeLine="13" d="M895.29,242.88 C889.51,227.23 878.95,205.61 861.97,194 C816.43,162.88 657.1214,151.1703 585.4714,147.3403 " fill="none" id="Verificador-to-Sistema" style="stroke:#181818;stroke-width:1.0;"/><polygon fill="#181818" points="579.48,147.02,588.2537,151.4947,584.4729,147.2869,588.6807,143.5061,579.48,147.02" style="stroke:#181818;stroke-width:1.0;"/><text fill="#000000" font-family="sans-serif" font-size="13" lengthAdjust="spacing" textLength="63" x="879.97" y="208.897">Disponible</text></g><!--link Verificador to Sistema--><g id="link_Verificador_Sistema"><path codeLine="14" d="M930.15,242.84 C948.36,228.93 965.91,209.71 951.97,194 C927.34,166.26 678.313,151.7799 585.503,147.2899 " fill="none" id="Verificador-to-Sistema-1" style="stroke:#181818;stroke-width:1.0;"/><polygon fill="#181818" points="579.51,147,588.3062,151.4302,584.5042,147.2416,588.6928,143.4396,579.51,147" style="stroke:#181818;stroke-width:1.0;"/><text fill="#000000" font-family="sans-serif" font-size="13" lengthAdjust="spacing" textLength="83" x="957.97" y="208.897">No disponible</text></g><!--SRC=[ZP11RW8n34NtEOKlmAexLB6YR91Q2IGsY8Kd2TJL48-Sm8BRz0mz0XV3C3DX1gIXkzX-Zl__NFnucs399LbA698ttBGe9h_7jbnXIGuTIsvueItPMyjqzc4qchJBC8QFS2GKY3LmSAOTNR7ygOBrMs3BiiV4vZxhVpYhv_0rVubGi2oYOhbtjIjsd2k16hPq_Wkm9fs6n17UuMqpu6_X_OF3fzskuNjeLyjD9U0eLXoee9iXM3SXmF7ygntUcEvYNy2qMItz0FJ9-OHoByDG4rW95-ZmNx36zesdONhHCb2fl1mHxZYfu7W1]--></g></svg>