<?xml version="1.0" encoding="us-ascii" standalone="no"?><svg xmlns="http://www.w3.org/2000/svg" xmlns:xlink="http://www.w3.org/1999/xlink" contentStyleType="text/css" height="2198px" preserveAspectRatio="none" style="width:1130px;height:2198px;background:#FFFFFF;" version="1.1" viewBox="0 0 1130 2198" width="1130px" zoomAndPan="magnify"><defs/><g><rect fill="none" height="277.6119" style="stroke:#000000;stroke-width:1.5;" width="451.5" x="50" y="132.7739"/><rect fill="none" height="212.1999" style="stroke:#000000;stroke-width:1.5;" width="431.5" x="60" y="191.186"/><rect fill="none" height="1674.0017" style="stroke:#000000;stroke-width:1.5;" width="1113.5" x="10" y="424.3858"/><rect fill="none" height="277.6119" style="stroke:#000000;stroke-width:1.5;" width="608.5" x="50" y="451.0919"/><rect fill="none" height="212.1999" style="stroke:#000000;stroke-width:1.5;" width="588.5" x="60" y="509.5039"/><rect fill="none" height="1299.9958" style="stroke:#000000;stroke-width:1.5;" width="1093.5" x="20" y="742.7038"/><rect fill="none" height="277.6119" style="stroke:#000000;stroke-width:1.5;" width="780.5" x="50" y="769.4098"/><rect fill="none" height="212.1999" style="stroke:#000000;stroke-width:1.5;" width="760.5" x="60" y="827.8218"/><rect fill="none" height="925.99" style="stroke:#000000;stroke-width:1.5;" width="1073.5" x="30" y="1061.0217"/><rect fill="none" height="148.5301" style="stroke:#000000;stroke-width:1.5;" width="829" x="244.5" y="1151.1397"/><rect fill="none" height="114.8241" style="stroke:#000000;stroke-width:1.5;" width="809" x="254.5" y="1177.8458"/><rect fill="none" height="617.654" style="stroke:#000000;stroke-width:1.5;" width="1053.5" x="40" y="1313.6698"/><rect fill="none" height="471.848" style="stroke:#000000;stroke-width:1.5;" width="1033.5" x="50" y="1372.0819"/><rect fill="none" height="148.5301" style="stroke:#000000;stroke-width:1.5;" width="829" x="244.5" y="1462.1999"/><rect fill="none" height="114.8241" style="stroke:#000000;stroke-width:1.5;" width="809" x="254.5" y="1488.9059"/><rect fill="none" height="163.512" style="stroke:#000000;stroke-width:1.5;" width="940.5" x="60" y="1624.73"/><line style="stroke:#181818;stroke-width:0.5;stroke-dasharray:5.0,5.0;" x1="108" x2="108" y1="84.0679" y2="2115.3875"/><line style="stroke:#181818;stroke-width:0.5;stroke-dasharray:5.0,5.0;" x1="297.5" x2="297.5" y1="84.0679" y2="2115.3875"/><line style="stroke:#181818;stroke-width:0.5;stroke-dasharray:5.0,5.0;" x1="414.5" x2="414.5" y1="84.0679" y2="2115.3875"/><line style="stroke:#181818;stroke-width:0.5;stroke-dasharray:5.0,5.0;" x1="564.5" x2="564.5" y1="84.0679" y2="2115.3875"/><line style="stroke:#181818;stroke-width:0.5;stroke-dasharray:5.0,5.0;" x1="729.5" x2="729.5" y1="84.0679" y2="2115.3875"/><line style="stroke:#181818;stroke-width:0.5;stroke-dasharray:5.0,5.0;" x1="863.5" x2="863.5" y1="84.0679" y2="2115.3875"/><line style="stroke:#181818;stroke-width:0.5;stroke-dasharray:5.0,5.0;" x1="953.5" x2="953.5" y1="84.0679" y2="2115.3875"/><line style="stroke:#181818;stroke-width:0.5;stroke-dasharray:5.0,5.0;" x1="1026.5" x2="1026.5" y1="84.0679" y2="2115.3875"/><text fill="#000000" font-family="sans-serif" font-size="14" lengthAdjust="spacing" textLength="70" x="70" y="79.9659">Solicitante</text><ellipse cx="108" cy="13.5" fill="#E2E2F0" rx="8" ry="8" style="stroke:#181818;stroke-width:0.5;"/><path d="M108,21.5 L108,48.5 M95,29.5 L121,29.5 M108,48.5 L95,63.5 M108,48.5 L121,63.5 " fill="none" style="stroke:#181818;stroke-width:0.5;"/><text fill="#000000" font-family="sans-serif" font-size="14" lengthAdjust="spacing" textLength="70" x="70" y="2129.3534">Solicitante</text><ellipse cx="108" cy="2141.9554" fill="#E2E2F0" rx="8" ry="8" style="stroke:#181818;stroke-width:0.5;"/><path d="M108,2149.9554 L108,2176.9554 M95,2157.9554 L121,2157.9554 M108,2176.9554 L95,2191.9554 M108,2176.9554 L121,2191.9554 " fill="none" style="stroke:#181818;stroke-width:0.5;"/><rect fill="#E2E2F0" height="33.0679" rx="2.5" ry="2.5" style="stroke:#181818;stroke-width:0.5;" width="67" x="264.5" y="50"/><text fill="#000000" font-family="sans-serif" font-size="14" lengthAdjust="spacing" textLength="53" x="271.5" y="71.9659">Sistema</text><rect fill="#E2E2F0" height="33.0679" rx="2.5" ry="2.5" style="stroke:#181818;stroke-width:0.5;" width="67" x="264.5" y="2114.3875"/><text fill="#000000" font-family="sans-serif" font-size="14" lengthAdjust="spacing" textLength="53" x="271.5" y="2136.3534">Sistema</text><rect fill="#E2E2F0" height="33.0679" rx="2.5" ry="2.5" style="stroke:#181818;stroke-width:0.5;" width="133" x="348.5" y="50"/><text fill="#000000" font-family="sans-serif" font-size="14" lengthAdjust="spacing" textLength="119" x="355.5" y="71.9659">ValidadorFormato</text><rect fill="#E2E2F0" height="33.0679" rx="2.5" ry="2.5" style="stroke:#181818;stroke-width:0.5;" width="133" x="348.5" y="2114.3875"/><text fill="#000000" font-family="sans-serif" font-size="14" lengthAdjust="spacing" textLength="119" x="355.5" y="2136.3534">ValidadorFormato</text><rect fill="#E2E2F0" height="33.0679" rx="2.5" ry="2.5" style="stroke:#181818;stroke-width:0.5;" width="147" x="491.5" y="50"/><text fill="#000000" font-family="sans-serif" font-size="14" lengthAdjust="spacing" textLength="133" x="498.5" y="71.9659">ValidadorContenido</text><rect fill="#E2E2F0" height="33.0679" rx="2.5" ry="2.5" style="stroke:#181818;stroke-width:0.5;" width="147" x="491.5" y="2114.3875"/><text fill="#000000" font-family="sans-serif" font-size="14" lengthAdjust="spacing" textLength="133" x="498.5" y="2136.3534">ValidadorContenido</text><rect fill="#E2E2F0" height="33.0679" rx="2.5" ry="2.5" style="stroke:#181818;stroke-width:0.5;" width="162" x="648.5" y="50"/><text fill="#000000" font-family="sans-serif" font-size="14" lengthAdjust="spacing" textLength="148" x="655.5" y="71.9659">ValidadorAutorizacion</text><rect fill="#E2E2F0" height="33.0679" rx="2.5" ry="2.5" style="stroke:#181818;stroke-width:0.5;" width="162" x="648.5" y="2114.3875"/><text fill="#000000" font-family="sans-serif" font-size="14" lengthAdjust="spacing" textLength="148" x="655.5" y="2136.3534">ValidadorAutorizacion</text><rect fill="#E2E2F0" height="33.0679" rx="2.5" ry="2.5" style="stroke:#181818;stroke-width:0.5;" width="86" x="820.5" y="50"/><text fill="#000000" font-family="sans-serif" font-size="14" lengthAdjust="spacing" textLength="72" x="827.5" y="71.9659">Supervisor</text><rect fill="#E2E2F0" height="33.0679" rx="2.5" ry="2.5" style="stroke:#181818;stroke-width:0.5;" width="86" x="820.5" y="2114.3875"/><text fill="#000000" font-family="sans-serif" font-size="14" lengthAdjust="spacing" textLength="72" x="827.5" y="2136.3534">Supervisor</text><rect fill="#E2E2F0" height="33.0679" rx="2.5" ry="2.5" style="stroke:#181818;stroke-width:0.5;" width="74" x="916.5" y="50"/><text fill="#000000" font-family="sans-serif" font-size="14" lengthAdjust="spacing" textLength="60" x="923.5" y="71.9659">Gerencia</text><rect fill="#E2E2F0" height="33.0679" rx="2.5" ry="2.5" style="stroke:#181818;stroke-width:0.5;" width="74" x="916.5" y="2114.3875"/><text fill="#000000" font-family="sans-serif" font-size="14" lengthAdjust="spacing" textLength="60" x="923.5" y="2136.3534">Gerencia</text><rect fill="#E2E2F0" height="33.0679" rx="2.5" ry="2.5" style="stroke:#181818;stroke-width:0.5;" width="53" x="1000.5" y="50"/><text fill="#000000" font-family="sans-serif" font-size="14" lengthAdjust="spacing" textLength="39" x="1007.5" y="71.9659">Timer</text><rect fill="#E2E2F0" height="33.0679" rx="2.5" ry="2.5" style="stroke:#181818;stroke-width:0.5;" width="53" x="1000.5" y="2114.3875"/><text fill="#000000" font-family="sans-serif" font-size="14" lengthAdjust="spacing" textLength="39" x="1007.5" y="2136.3534">Timer</text><polygon fill="#181818" points="286,113.7739,296,117.7739,286,121.7739,290,117.7739" style="stroke:#181818;stroke-width:1.0;"/><line style="stroke:#181818;stroke-width:1.0;" x1="108" x2="292" y1="117.7739" y2="117.7739"/><text fill="#000000" font-family="sans-serif" font-size="13" lengthAdjust="spacing" textLength="90" x="115" y="111.9649">Enviar solicitud</text><path d="M50,132.7739 L123,132.7739 L123,142.4799 L113,152.4799 L50,152.4799 L50,132.7739 " fill="#EEEEEE" style="stroke:#000000;stroke-width:1.5;"/><rect fill="none" height="277.6119" style="stroke:#000000;stroke-width:1.5;" width="451.5" x="50" y="132.7739"/><text fill="#000000" font-family="sans-serif" font-size="13" font-weight="bold" lengthAdjust="spacing" textLength="28" x="65" y="147.6709">loop</text><text fill="#000000" font-family="sans-serif" font-size="11" font-weight="bold" lengthAdjust="spacing" textLength="146" x="138" y="146.5328">[hasta 3 intentos formato]</text><polygon fill="#181818" points="403,172.186,413,176.186,403,180.186,407,176.186" style="stroke:#181818;stroke-width:1.0;"/><line style="stroke:#181818;stroke-width:1.0;" x1="298" x2="409" y1="176.186" y2="176.186"/><text fill="#000000" font-family="sans-serif" font-size="13" lengthAdjust="spacing" textLength="93" x="305" y="170.377">Validar formato</text><path d="M60,191.186 L123,191.186 L123,200.892 L113,210.892 L60,210.892 L60,191.186 " fill="#EEEEEE" style="stroke:#000000;stroke-width:1.5;"/><rect fill="none" height="212.1999" style="stroke:#000000;stroke-width:1.5;" width="431.5" x="60" y="191.186"/><text fill="#000000" font-family="sans-serif" font-size="13" font-weight="bold" lengthAdjust="spacing" textLength="18" x="75" y="206.083">alt</text><text fill="#000000" font-family="sans-serif" font-size="11" font-weight="bold" lengthAdjust="spacing" textLength="90" x="138" y="204.9449">[formato v&#225;lido]</text><polygon fill="#181818" points="309,230.598,299,234.598,309,238.598,305,234.598" style="stroke:#181818;stroke-width:1.0;"/><line style="stroke:#181818;stroke-width:1.0;" x1="303" x2="414" y1="234.598" y2="234.598"/><text fill="#000000" font-family="sans-serif" font-size="13" lengthAdjust="spacing" textLength="18" x="315" y="228.789">OK</text><line style="stroke:#000000;stroke-width:1.0;stroke-dasharray:2.0,2.0;" x1="60" x2="491.5" y1="243.598" y2="243.598"/><text fill="#000000" font-family="sans-serif" font-size="11" font-weight="bold" lengthAdjust="spacing" textLength="167" x="65" y="255.3569">[formato inv&#225;lido &lt; 3 intentos]</text><polygon fill="#181818" points="309,279.2859,299,283.2859,309,287.2859,305,283.2859" style="stroke:#181818;stroke-width:1.0;"/><line style="stroke:#181818;stroke-width:1.0;" x1="303" x2="414" y1="283.2859" y2="283.2859"/><text fill="#000000" font-family="sans-serif" font-size="13" lengthAdjust="spacing" textLength="30" x="315" y="277.4769">Error</text><polygon fill="#181818" points="119,310.9919,109,314.9919,119,318.9919,115,314.9919" style="stroke:#181818;stroke-width:1.0;"/><line style="stroke:#181818;stroke-width:1.0;" x1="113" x2="297" y1="314.9919" y2="314.9919"/><text fill="#000000" font-family="sans-serif" font-size="13" lengthAdjust="spacing" textLength="84" x="125" y="309.1829">Notificar error</text><polygon fill="#181818" points="286,342.6979,296,346.6979,286,350.6979,290,346.6979" style="stroke:#181818;stroke-width:1.0;"/><line style="stroke:#181818;stroke-width:1.0;" x1="108" x2="292" y1="346.6979" y2="346.6979"/><text fill="#000000" font-family="sans-serif" font-size="13" lengthAdjust="spacing" textLength="111" x="115" y="340.8889">Corregir y reenviar</text><line style="stroke:#000000;stroke-width:1.0;stroke-dasharray:2.0,2.0;" x1="60" x2="491.5" y1="355.6979" y2="355.6979"/><text fill="#000000" font-family="sans-serif" font-size="11" font-weight="bold" lengthAdjust="spacing" textLength="167" x="65" y="367.4568">[formato inv&#225;lido = 3 intentos]</text><polygon fill="#181818" points="309,391.3858,299,395.3858,309,399.3858,305,395.3858" style="stroke:#181818;stroke-width:1.0;"/><line style="stroke:#181818;stroke-width:1.0;" x1="303" x2="414" y1="395.3858" y2="395.3858"/><text fill="#000000" font-family="sans-serif" font-size="13" lengthAdjust="spacing" textLength="58" x="315" y="389.5768">Error final</text><path d="M10,424.3858 L73,424.3858 L73,434.0919 L63,444.0919 L10,444.0919 L10,424.3858 " fill="#EEEEEE" style="stroke:#000000;stroke-width:1.5;"/><rect fill="none" height="1674.0017" style="stroke:#000000;stroke-width:1.5;" width="1113.5" x="10" y="424.3858"/><text fill="#000000" font-family="sans-serif" font-size="13" font-weight="bold" lengthAdjust="spacing" textLength="18" x="25" y="439.2829">alt</text><text fill="#000000" font-family="sans-serif" font-size="11" font-weight="bold" lengthAdjust="spacing" textLength="90" x="88" y="438.1448">[formato v&#225;lido]</text><path d="M50,451.0919 L123,451.0919 L123,460.7979 L113,470.7979 L50,470.7979 L50,451.0919 " fill="#EEEEEE" style="stroke:#000000;stroke-width:1.5;"/><rect fill="none" height="277.6119" style="stroke:#000000;stroke-width:1.5;" width="608.5" x="50" y="451.0919"/><text fill="#000000" font-family="sans-serif" font-size="13" font-weight="bold" lengthAdjust="spacing" textLength="28" x="65" y="465.9889">loop</text><text fill="#000000" font-family="sans-serif" font-size="11" font-weight="bold" lengthAdjust="spacing" textLength="156" x="138" y="464.8508">[hasta 3 intentos contenido]</text><polygon fill="#181818" points="553,490.5039,563,494.5039,553,498.5039,557,494.5039" style="stroke:#181818;stroke-width:1.0;"/><line style="stroke:#181818;stroke-width:1.0;" x1="298" x2="559" y1="494.5039" y2="494.5039"/><text fill="#000000" font-family="sans-serif" font-size="13" lengthAdjust="spacing" textLength="105" x="305" y="488.6949">Validar contenido</text><path d="M60,509.5039 L123,509.5039 L123,519.2099 L113,529.2099 L60,529.2099 L60,509.5039 " fill="#EEEEEE" style="stroke:#000000;stroke-width:1.5;"/><rect fill="none" height="212.1999" style="stroke:#000000;stroke-width:1.5;" width="588.5" x="60" y="509.5039"/><text fill="#000000" font-family="sans-serif" font-size="13" font-weight="bold" lengthAdjust="spacing" textLength="18" x="75" y="524.4009">alt</text><text fill="#000000" font-family="sans-serif" font-size="11" font-weight="bold" lengthAdjust="spacing" textLength="100" x="138" y="523.2628">[contenido v&#225;lido]</text><polygon fill="#181818" points="309,548.9159,299,552.9159,309,556.9159,305,552.9159" style="stroke:#181818;stroke-width:1.0;"/><line style="stroke:#181818;stroke-width:1.0;" x1="303" x2="564" y1="552.9159" y2="552.9159"/><text fill="#000000" font-family="sans-serif" font-size="13" lengthAdjust="spacing" textLength="18" x="315" y="547.1069">OK</text><line style="stroke:#000000;stroke-width:1.0;stroke-dasharray:2.0,2.0;" x1="60" x2="648.5" y1="561.9159" y2="561.9159"/><text fill="#000000" font-family="sans-serif" font-size="11" font-weight="bold" lengthAdjust="spacing" textLength="177" x="65" y="573.6748">[contenido inv&#225;lido &lt; 3 intentos]</text><polygon fill="#181818" points="309,597.6038,299,601.6038,309,605.6038,305,601.6038" style="stroke:#181818;stroke-width:1.0;"/><line style="stroke:#181818;stroke-width:1.0;" x1="303" x2="564" y1="601.6038" y2="601.6038"/><text fill="#000000" font-family="sans-serif" font-size="13" lengthAdjust="spacing" textLength="30" x="315" y="595.7948">Error</text><polygon fill="#181818" points="119,629.3098,109,633.3098,119,637.3098,115,633.3098" style="stroke:#181818;stroke-width:1.0;"/><line style="stroke:#181818;stroke-width:1.0;" x1="113" x2="297" y1="633.3098" y2="633.3098"/><text fill="#000000" font-family="sans-serif" font-size="13" lengthAdjust="spacing" textLength="84" x="125" y="627.5008">Notificar error</text><polygon fill="#181818" points="286,661.0159,296,665.0159,286,669.0159,290,665.0159" style="stroke:#181818;stroke-width:1.0;"/><line style="stroke:#181818;stroke-width:1.0;" x1="108" x2="292" y1="665.0159" y2="665.0159"/><text fill="#000000" font-family="sans-serif" font-size="13" lengthAdjust="spacing" textLength="111" x="115" y="659.2069">Corregir y reenviar</text><line style="stroke:#000000;stroke-width:1.0;stroke-dasharray:2.0,2.0;" x1="60" x2="648.5" y1="674.0159" y2="674.0159"/><text fill="#000000" font-family="sans-serif" font-size="11" font-weight="bold" lengthAdjust="spacing" textLength="177" x="65" y="685.7748">[contenido inv&#225;lido = 3 intentos]</text><polygon fill="#181818" points="309,709.7038,299,713.7038,309,717.7038,305,713.7038" style="stroke:#181818;stroke-width:1.0;"/><line style="stroke:#181818;stroke-width:1.0;" x1="303" x2="564" y1="713.7038" y2="713.7038"/><text fill="#000000" font-family="sans-serif" font-size="13" lengthAdjust="spacing" textLength="58" x="315" y="707.8948">Error final</text><path d="M20,742.7038 L83,742.7038 L83,752.4098 L73,762.4098 L20,762.4098 L20,742.7038 " fill="#EEEEEE" style="stroke:#000000;stroke-width:1.5;"/><rect fill="none" height="1299.9958" style="stroke:#000000;stroke-width:1.5;" width="1093.5" x="20" y="742.7038"/><text fill="#000000" font-family="sans-serif" font-size="13" font-weight="bold" lengthAdjust="spacing" textLength="18" x="35" y="757.6008">alt</text><text fill="#000000" font-family="sans-serif" font-size="11" font-weight="bold" lengthAdjust="spacing" textLength="100" x="98" y="756.4627">[contenido v&#225;lido]</text><path d="M50,769.4098 L123,769.4098 L123,779.1158 L113,789.1158 L50,789.1158 L50,769.4098 " fill="#EEEEEE" style="stroke:#000000;stroke-width:1.5;"/><rect fill="none" height="277.6119" style="stroke:#000000;stroke-width:1.5;" width="780.5" x="50" y="769.4098"/><text fill="#000000" font-family="sans-serif" font-size="13" font-weight="bold" lengthAdjust="spacing" textLength="28" x="65" y="784.3068">loop</text><text fill="#000000" font-family="sans-serif" font-size="11" font-weight="bold" lengthAdjust="spacing" textLength="169" x="138" y="783.1687">[hasta 3 intentos autorizaci&#243;n]</text><polygon fill="#181818" points="717.5,808.8218,727.5,812.8218,717.5,816.8218,721.5,812.8218" style="stroke:#181818;stroke-width:1.0;"/><line style="stroke:#181818;stroke-width:1.0;" x1="298" x2="723.5" y1="812.8218" y2="812.8218"/><text fill="#000000" font-family="sans-serif" font-size="13" lengthAdjust="spacing" textLength="118" x="305" y="807.0128">Validar autorizaci&#243;n</text><path d="M60,827.8218 L123,827.8218 L123,837.5278 L113,847.5278 L60,847.5278 L60,827.8218 " fill="#EEEEEE" style="stroke:#000000;stroke-width:1.5;"/><rect fill="none" height="212.1999" style="stroke:#000000;stroke-width:1.5;" width="760.5" x="60" y="827.8218"/><text fill="#000000" font-family="sans-serif" font-size="13" font-weight="bold" lengthAdjust="spacing" textLength="18" x="75" y="842.7188">alt</text><text fill="#000000" font-family="sans-serif" font-size="11" font-weight="bold" lengthAdjust="spacing" textLength="113" x="138" y="841.5807">[autorizaci&#243;n v&#225;lida]</text><polygon fill="#181818" points="309,867.2338,299,871.2338,309,875.2338,305,871.2338" style="stroke:#181818;stroke-width:1.0;"/><line style="stroke:#181818;stroke-width:1.0;" x1="303" x2="728.5" y1="871.2338" y2="871.2338"/><text fill="#000000" font-family="sans-serif" font-size="13" lengthAdjust="spacing" textLength="18" x="315" y="865.4248">OK</text><line style="stroke:#000000;stroke-width:1.0;stroke-dasharray:2.0,2.0;" x1="60" x2="820.5" y1="880.2338" y2="880.2338"/><text fill="#000000" font-family="sans-serif" font-size="11" font-weight="bold" lengthAdjust="spacing" textLength="190" x="65" y="891.9928">[autorizaci&#243;n inv&#225;lida &lt; 3 intentos]</text><polygon fill="#181818" points="309,915.9218,299,919.9218,309,923.9218,305,919.9218" style="stroke:#181818;stroke-width:1.0;"/><line style="stroke:#181818;stroke-width:1.0;" x1="303" x2="728.5" y1="919.9218" y2="919.9218"/><text fill="#000000" font-family="sans-serif" font-size="13" lengthAdjust="spacing" textLength="30" x="315" y="914.1127">Error</text><polygon fill="#181818" points="119,947.6278,109,951.6278,119,955.6278,115,951.6278" style="stroke:#181818;stroke-width:1.0;"/><line style="stroke:#181818;stroke-width:1.0;" x1="113" x2="297" y1="951.6278" y2="951.6278"/><text fill="#000000" font-family="sans-serif" font-size="13" lengthAdjust="spacing" textLength="84" x="125" y="945.8188">Notificar error</text><polygon fill="#181818" points="286,979.3338,296,983.3338,286,987.3338,290,983.3338" style="stroke:#181818;stroke-width:1.0;"/><line style="stroke:#181818;stroke-width:1.0;" x1="108" x2="292" y1="983.3338" y2="983.3338"/><text fill="#000000" font-family="sans-serif" font-size="13" lengthAdjust="spacing" textLength="111" x="115" y="977.5248">Corregir y reenviar</text><line style="stroke:#000000;stroke-width:1.0;stroke-dasharray:2.0,2.0;" x1="60" x2="820.5" y1="992.3338" y2="992.3338"/><text fill="#000000" font-family="sans-serif" font-size="11" font-weight="bold" lengthAdjust="spacing" textLength="190" x="65" y="1004.0927">[autorizaci&#243;n inv&#225;lida = 3 intentos]</text><polygon fill="#181818" points="309,1028.0217,299,1032.0217,309,1036.0217,305,1032.0217" style="stroke:#181818;stroke-width:1.0;"/><line style="stroke:#181818;stroke-width:1.0;" x1="303" x2="728.5" y1="1032.0217" y2="1032.0217"/><text fill="#000000" font-family="sans-serif" font-size="13" lengthAdjust="spacing" textLength="58" x="315" y="1026.2127">Error final</text><path d="M30,1061.0217 L93,1061.0217 L93,1070.7277 L83,1080.7277 L30,1080.7277 L30,1061.0217 " fill="#EEEEEE" style="stroke:#000000;stroke-width:1.5;"/><rect fill="none" height="925.99" style="stroke:#000000;stroke-width:1.5;" width="1073.5" x="30" y="1061.0217"/><text fill="#000000" font-family="sans-serif" font-size="13" font-weight="bold" lengthAdjust="spacing" textLength="18" x="45" y="1075.9187">alt</text><text fill="#000000" font-family="sans-serif" font-size="11" font-weight="bold" lengthAdjust="spacing" textLength="113" x="108" y="1074.7806">[autorizaci&#243;n v&#225;lida]</text><polygon fill="#181818" points="851.5,1100.4337,861.5,1104.4337,851.5,1108.4337,855.5,1104.4337" style="stroke:#181818;stroke-width:1.0;"/><line style="stroke:#181818;stroke-width:1.0;" x1="298" x2="857.5" y1="1104.4337" y2="1104.4337"/><text fill="#000000" font-family="sans-serif" font-size="13" lengthAdjust="spacing" textLength="118" x="305" y="1098.6247">Solicitar aprobaci&#243;n</text><polygon fill="#181818" points="1015,1132.1397,1025,1136.1397,1015,1140.1397,1019,1136.1397" style="stroke:#181818;stroke-width:1.0;"/><line style="stroke:#181818;stroke-width:1.0;" x1="298" x2="1021" y1="1136.1397" y2="1136.1397"/><text fill="#000000" font-family="sans-serif" font-size="13" lengthAdjust="spacing" textLength="146" x="305" y="1130.3307">Iniciar temporizador 24h</text><path d="M244.5,1151.1397 L317.5,1151.1397 L317.5,1160.8458 L307.5,1170.8458 L244.5,1170.8458 L244.5,1151.1397 " fill="#EEEEEE" style="stroke:#000000;stroke-width:1.5;"/><rect fill="none" height="148.5301" style="stroke:#000000;stroke-width:1.5;" width="829" x="244.5" y="1151.1397"/><text fill="#000000" font-family="sans-serif" font-size="13" font-weight="bold" lengthAdjust="spacing" textLength="28" x="259.5" y="1166.0368">loop</text><text fill="#000000" font-family="sans-serif" font-size="11" font-weight="bold" lengthAdjust="spacing" textLength="190" x="332.5" y="1164.8987">[mientras no responde supervisor]</text><path d="M254.5,1177.8458 L317.5,1177.8458 L317.5,1187.5518 L307.5,1197.5518 L254.5,1197.5518 L254.5,1177.8458 " fill="#EEEEEE" style="stroke:#000000;stroke-width:1.5;"/><rect fill="none" height="114.8241" style="stroke:#000000;stroke-width:1.5;" width="809" x="254.5" y="1177.8458"/><text fill="#000000" font-family="sans-serif" font-size="13" font-weight="bold" lengthAdjust="spacing" textLength="18" x="269.5" y="1192.7428">alt</text><text fill="#000000" font-family="sans-serif" font-size="11" font-weight="bold" lengthAdjust="spacing" textLength="75" x="332.5" y="1191.6047">[timeout 24h]</text><polygon fill="#181818" points="309,1217.2578,299,1221.2578,309,1225.2578,305,1221.2578" style="stroke:#181818;stroke-width:1.0;"/><line style="stroke:#181818;stroke-width:1.0;" x1="303" x2="1026" y1="1221.2578" y2="1221.2578"/><text fill="#000000" font-family="sans-serif" font-size="13" lengthAdjust="spacing" textLength="50" x="315" y="1215.4488">Timeout</text><polygon fill="#181818" points="851.5,1248.9638,861.5,1252.9638,851.5,1256.9638,855.5,1252.9638" style="stroke:#181818;stroke-width:1.0;"/><line style="stroke:#181818;stroke-width:1.0;" x1="298" x2="857.5" y1="1252.9638" y2="1252.9638"/><text fill="#000000" font-family="sans-serif" font-size="13" lengthAdjust="spacing" textLength="78" x="305" y="1247.1548">Recordatorio</text><polygon fill="#181818" points="1015,1280.6698,1025,1284.6698,1015,1288.6698,1019,1284.6698" style="stroke:#181818;stroke-width:1.0;"/><line style="stroke:#181818;stroke-width:1.0;" x1="298" x2="1021" y1="1284.6698" y2="1284.6698"/><text fill="#000000" font-family="sans-serif" font-size="13" lengthAdjust="spacing" textLength="50" x="305" y="1278.8608">Reiniciar</text><path d="M40,1313.6698 L103,1313.6698 L103,1323.3758 L93,1333.3758 L40,1333.3758 L40,1313.6698 " fill="#EEEEEE" style="stroke:#000000;stroke-width:1.5;"/><rect fill="none" height="617.654" style="stroke:#000000;stroke-width:1.5;" width="1053.5" x="40" y="1313.6698"/><text fill="#000000" font-family="sans-serif" font-size="13" font-weight="bold" lengthAdjust="spacing" textLength="18" x="55" y="1328.5668">alt</text><text fill="#000000" font-family="sans-serif" font-size="11" font-weight="bold" lengthAdjust="spacing" textLength="115" x="118" y="1327.4287">[supervisor aprueba]</text><polygon fill="#181818" points="309,1353.0819,299,1357.0819,309,1361.0819,305,1357.0819" style="stroke:#181818;stroke-width:1.0;"/><line style="stroke:#181818;stroke-width:1.0;" x1="303" x2="862.5" y1="1357.0819" y2="1357.0819"/><text fill="#000000" font-family="sans-serif" font-size="13" lengthAdjust="spacing" textLength="60" x="315" y="1351.2729">Aprobado</text><path d="M50,1372.0819 L113,1372.0819 L113,1381.7879 L103,1391.7879 L50,1391.7879 L50,1372.0819 " fill="#EEEEEE" style="stroke:#000000;stroke-width:1.5;"/><rect fill="none" height="471.848" style="stroke:#000000;stroke-width:1.5;" width="1033.5" x="50" y="1372.0819"/><text fill="#000000" font-family="sans-serif" font-size="13" font-weight="bold" lengthAdjust="spacing" textLength="18" x="65" y="1386.9789">alt</text><text fill="#000000" font-family="sans-serif" font-size="11" font-weight="bold" lengthAdjust="spacing" textLength="87" x="128" y="1385.8408">[monto &gt; 10000]</text><polygon fill="#181818" points="941.5,1411.4939,951.5,1415.4939,941.5,1419.4939,945.5,1415.4939" style="stroke:#181818;stroke-width:1.0;"/><line style="stroke:#181818;stroke-width:1.0;" x1="298" x2="947.5" y1="1415.4939" y2="1415.4939"/><text fill="#000000" font-family="sans-serif" font-size="13" lengthAdjust="spacing" textLength="118" x="305" y="1409.6849">Solicitar aprobaci&#243;n</text><polygon fill="#181818" points="1015,1443.1999,1025,1447.1999,1015,1451.1999,1019,1447.1999" style="stroke:#181818;stroke-width:1.0;"/><line style="stroke:#181818;stroke-width:1.0;" x1="298" x2="1021" y1="1447.1999" y2="1447.1999"/><text fill="#000000" font-family="sans-serif" font-size="13" lengthAdjust="spacing" textLength="146" x="305" y="1441.3909">Iniciar temporizador 24h</text><path d="M244.5,1462.1999 L317.5,1462.1999 L317.5,1471.9059 L307.5,1481.9059 L244.5,1481.9059 L244.5,1462.1999 " fill="#EEEEEE" style="stroke:#000000;stroke-width:1.5;"/><rect fill="none" height="148.5301" style="stroke:#000000;stroke-width:1.5;" width="829" x="244.5" y="1462.1999"/><text fill="#000000" font-family="sans-serif" font-size="13" font-weight="bold" lengthAdjust="spacing" textLength="28" x="259.5" y="1477.0969">loop</text><text fill="#000000" font-family="sans-serif" font-size="11" font-weight="bold" lengthAdjust="spacing" textLength="182" x="332.5" y="1475.9588">[mientras no responde gerencia]</text><path d="M254.5,1488.9059 L317.5,1488.9059 L317.5,1498.6119 L307.5,1508.6119 L254.5,1508.6119 L254.5,1488.9059 " fill="#EEEEEE" style="stroke:#000000;stroke-width:1.5;"/><rect fill="none" height="114.8241" style="stroke:#000000;stroke-width:1.5;" width="809" x="254.5" y="1488.9059"/><text fill="#000000" font-family="sans-serif" font-size="13" font-weight="bold" lengthAdjust="spacing" textLength="18" x="269.5" y="1503.8029">alt</text><text fill="#000000" font-family="sans-serif" font-size="11" font-weight="bold" lengthAdjust="spacing" textLength="75" x="332.5" y="1502.6648">[timeout 24h]</text><polygon fill="#181818" points="309,1528.318,299,1532.318,309,1536.318,305,1532.318" style="stroke:#181818;stroke-width:1.0;"/><line style="stroke:#181818;stroke-width:1.0;" x1="303" x2="1026" y1="1532.318" y2="1532.318"/><text fill="#000000" font-family="sans-serif" font-size="13" lengthAdjust="spacing" textLength="50" x="315" y="1526.509">Timeout</text><polygon fill="#181818" points="941.5,1560.024,951.5,1564.024,941.5,1568.024,945.5,1564.024" style="stroke:#181818;stroke-width:1.0;"/><line style="stroke:#181818;stroke-width:1.0;" x1="298" x2="947.5" y1="1564.024" y2="1564.024"/><text fill="#000000" font-family="sans-serif" font-size="13" lengthAdjust="spacing" textLength="78" x="305" y="1558.215">Recordatorio</text><polygon fill="#181818" points="1015,1591.73,1025,1595.73,1015,1599.73,1019,1595.73" style="stroke:#181818;stroke-width:1.0;"/><line style="stroke:#181818;stroke-width:1.0;" x1="298" x2="1021" y1="1595.73" y2="1595.73"/><text fill="#000000" font-family="sans-serif" font-size="13" lengthAdjust="spacing" textLength="50" x="305" y="1589.921">Reiniciar</text><path d="M60,1624.73 L123,1624.73 L123,1634.436 L113,1644.436 L60,1644.436 L60,1624.73 " fill="#EEEEEE" style="stroke:#000000;stroke-width:1.5;"/><rect fill="none" height="163.512" style="stroke:#000000;stroke-width:1.5;" width="940.5" x="60" y="1624.73"/><text fill="#000000" font-family="sans-serif" font-size="13" font-weight="bold" lengthAdjust="spacing" textLength="18" x="75" y="1639.627">alt</text><text fill="#000000" font-family="sans-serif" font-size="11" font-weight="bold" lengthAdjust="spacing" textLength="107" x="138" y="1638.4889">[gerencia aprueba]</text><polygon fill="#181818" points="309,1664.142,299,1668.142,309,1672.142,305,1668.142" style="stroke:#181818;stroke-width:1.0;"/><line style="stroke:#181818;stroke-width:1.0;" x1="303" x2="952.5" y1="1668.142" y2="1668.142"/><text fill="#000000" font-family="sans-serif" font-size="13" lengthAdjust="spacing" textLength="60" x="315" y="1662.333">Aprobado</text><polygon fill="#181818" points="119,1695.848,109,1699.848,119,1703.848,115,1699.848" style="stroke:#181818;stroke-width:1.0;"/><line style="stroke:#181818;stroke-width:1.0;" x1="113" x2="297" y1="1699.848" y2="1699.848"/><text fill="#000000" font-family="sans-serif" font-size="13" lengthAdjust="spacing" textLength="112" x="125" y="1694.039">Solicitud aprobada</text><line style="stroke:#000000;stroke-width:1.0;stroke-dasharray:2.0,2.0;" x1="60" x2="1000.5" y1="1708.848" y2="1708.848"/><text fill="#000000" font-family="sans-serif" font-size="11" font-weight="bold" lengthAdjust="spacing" textLength="104" x="65" y="1720.6069">[gerencia rechaza]</text><polygon fill="#181818" points="309,1744.5359,299,1748.5359,309,1752.5359,305,1748.5359" style="stroke:#181818;stroke-width:1.0;"/><line style="stroke:#181818;stroke-width:1.0;" x1="303" x2="952.5" y1="1748.5359" y2="1748.5359"/><text fill="#000000" font-family="sans-serif" font-size="13" lengthAdjust="spacing" textLength="65" x="315" y="1742.7269">Rechazado</text><polygon fill="#181818" points="119,1776.242,109,1780.242,119,1784.242,115,1780.242" style="stroke:#181818;stroke-width:1.0;"/><line style="stroke:#181818;stroke-width:1.0;" x1="113" x2="297" y1="1780.242" y2="1780.242"/><text fill="#000000" font-family="sans-serif" font-size="13" lengthAdjust="spacing" textLength="143" x="125" y="1774.433">Rechazado por gerencia</text><line style="stroke:#000000;stroke-width:1.0;stroke-dasharray:2.0,2.0;" x1="50" x2="1083.5" y1="1796.242" y2="1796.242"/><text fill="#000000" font-family="sans-serif" font-size="11" font-weight="bold" lengthAdjust="spacing" textLength="93" x="55" y="1808.0009">[monto &lt;= 10000]</text><polygon fill="#181818" points="119,1831.9299,109,1835.9299,119,1839.9299,115,1835.9299" style="stroke:#181818;stroke-width:1.0;"/><line style="stroke:#181818;stroke-width:1.0;" x1="113" x2="297" y1="1835.9299" y2="1835.9299"/><text fill="#000000" font-family="sans-serif" font-size="13" lengthAdjust="spacing" textLength="112" x="125" y="1830.1209">Solicitud aprobada</text><line style="stroke:#000000;stroke-width:1.0;stroke-dasharray:2.0,2.0;" x1="40" x2="1093.5" y1="1851.9299" y2="1851.9299"/><text fill="#000000" font-family="sans-serif" font-size="11" font-weight="bold" lengthAdjust="spacing" textLength="112" x="45" y="1863.6888">[supervisor rechaza]</text><polygon fill="#181818" points="309,1887.6178,299,1891.6178,309,1895.6178,305,1891.6178" style="stroke:#181818;stroke-width:1.0;"/><line style="stroke:#181818;stroke-width:1.0;" x1="303" x2="862.5" y1="1891.6178" y2="1891.6178"/><text fill="#000000" font-family="sans-serif" font-size="13" lengthAdjust="spacing" textLength="65" x="315" y="1885.8088">Rechazado</text><polygon fill="#181818" points="119,1919.3238,109,1923.3238,119,1927.3238,115,1923.3238" style="stroke:#181818;stroke-width:1.0;"/><line style="stroke:#181818;stroke-width:1.0;" x1="113" x2="297" y1="1923.3238" y2="1923.3238"/><text fill="#000000" font-family="sans-serif" font-size="13" lengthAdjust="spacing" textLength="155" x="125" y="1917.5148">Rechazado por supervisor</text><line style="stroke:#000000;stroke-width:1.0;stroke-dasharray:2.0,2.0;" x1="30" x2="1103.5" y1="1939.3238" y2="1939.3238"/><text fill="#000000" font-family="sans-serif" font-size="11" font-weight="bold" lengthAdjust="spacing" textLength="150" x="35" y="1951.0827">[autorizaci&#243;n inv&#225;lida final]</text><polygon fill="#181818" points="119,1975.0117,109,1979.0117,119,1983.0117,115,1979.0117" style="stroke:#181818;stroke-width:1.0;"/><line style="stroke:#181818;stroke-width:1.0;" x1="113" x2="297" y1="1979.0117" y2="1979.0117"/><text fill="#000000" font-family="sans-serif" font-size="13" lengthAdjust="spacing" textLength="166" x="125" y="1973.2027">Rechazado por autorizaci&#243;n</text><line style="stroke:#000000;stroke-width:1.0;stroke-dasharray:2.0,2.0;" x1="20" x2="1113.5" y1="1995.0117" y2="1995.0117"/><text fill="#000000" font-family="sans-serif" font-size="11" font-weight="bold" lengthAdjust="spacing" textLength="137" x="25" y="2006.7706">[contenido inv&#225;lido final]</text><polygon fill="#181818" points="119,2030.6996,109,2034.6996,119,2038.6996,115,2034.6996" style="stroke:#181818;stroke-width:1.0;"/><line style="stroke:#181818;stroke-width:1.0;" x1="113" x2="297" y1="2034.6996" y2="2034.6996"/><text fill="#000000" font-family="sans-serif" font-size="13" lengthAdjust="spacing" textLength="153" x="125" y="2028.8906">Rechazado por contenido</text><line style="stroke:#000000;stroke-width:1.0;stroke-dasharray:2.0,2.0;" x1="10" x2="1123.5" y1="2050.6996" y2="2050.6996"/><text fill="#000000" font-family="sans-serif" font-size="11" font-weight="bold" lengthAdjust="spacing" textLength="127" x="15" y="2062.4585">[formato inv&#225;lido final]</text><polygon fill="#181818" points="119,2086.3875,109,2090.3875,119,2094.3875,115,2090.3875" style="stroke:#181818;stroke-width:1.0;"/><line style="stroke:#181818;stroke-width:1.0;" x1="113" x2="297" y1="2090.3875" y2="2090.3875"/><text fill="#000000" font-family="sans-serif" font-size="13" lengthAdjust="spacing" textLength="141" x="125" y="2084.5785">Rechazado por formato</text><!--SRC=[hLTjYjim4FtlKym52ltwPJOBox8jfT12ilI_rbOs0bjZP3dGlKtFq2FinIf_I9OYoLQy5OH4icRcpPldaK8AYG8EMB62IS8bpHeYf9eqQW87rafQ4sVj5wbOIKeKNr3KH6BuuJqgNvoL213USDUfmEo550ov6xDhg3Yp5eMp_9KAoWlcOdbaDHLPPi67TxSQTGuF_Co8W7Pyt9LPLY4sS2Aj9F09M0zHOWl7AHDGOpBk_LnccayhmZ4WbTHpEB_-KHl6zNvSUd3G_Vm-xADLIuq3nYSNS6C1JFFt88JYJ6-ryh3eoU47IdPaXKg2kliZ7DwZ4FIP2VWDWjA1q2NOkssmuSWugKR7lCpwJnOZDbp3GWikn80loxcMlc4VsAnwDNKIccKUgAoXQNQsKjy4tswLjrHwIxKNKzcz9HMhyhhwzdUsNf2m7eZfBwz_UOolO3UQfH7tqIDodaweYBFBuS0E4LEBeTdrhQacSTMaXVB5irL0MqMqck7kFsHueIbRJvU_i-igQbDbpgdSCA4aqmXyMXRTS6Zby8qh4sMXbfiXgaeBFdu-EMREP11wpHGrWhJ0KR7RDiXB2kryPbvIrkSbLKJifETTZm6HG-FZQ17S7U5WJmiK9UaPn3MxYO8zPIC9tdwxHA6vzpBE3FGbwEYJ_oREO9rKxuQAbJxc89MrQaC8j_3XlHfhQUexIuf0tYYKAEXbuJphMnL4HefyjibeaQzLCMqHLKnCQ-jPZ1ZDNbHoUkZ4qeItrfSF-ZuxYQaC1nxQh84eQ74YBrT2t8z66p0QIr2QNPPPYFO1-_YktUpINhPhAV9QJ1_IQYCnmY9j94vL6aMH5kwSMqldfd_afSKDtt7CDInsvtF3fOLoRzh3FJ_y9s9sdkPO_nrJBly1]--></g></svg>