<?xml version="1.0" encoding="us-ascii" standalone="no"?><svg xmlns="http://www.w3.org/2000/svg" xmlns:xlink="http://www.w3.org/1999/xlink" contentStyleType="text/css" height="288px" preserveAspectRatio="none" style="width:772px;height:288px;background:#FFFFFF;" version="1.1" viewBox="0 0 772 288" width="772px" zoomAndPan="magnify"><defs/><g><g id="elem_Solicitante"><rect fill="#F1F1F1" height="39.0679" style="stroke:#181818;stroke-width:0.5;" width="84" x="327.05" y="7"/><text fill="#000000" font-family="sans-serif" font-size="14" lengthAdjust="spacing" textLength="70" x="334.05" y="23.9659">Solicitante</text><line style="stroke:#181818;stroke-width:0.5;" x1="328.05" x2="410.05" y1="30.0679" y2="30.0679"/></g><g id="elem_Sistema"><rect fill="#F1F1F1" height="39.0679" style="stroke:#181818;stroke-width:0.5;" width="67" x="335.55" y="125"/><text fill="#000000" font-family="sans-serif" font-size="14" lengthAdjust="spacing" textLength="53" x="342.55" y="141.9659">Sistema</text><line style="stroke:#181818;stroke-width:0.5;" x1="336.55" x2="401.55" y1="148.0679" y2="148.0679"/></g><g id="elem_Validador"><rect fill="#F1F1F1" height="39.0679" style="stroke:#181818;stroke-width:0.5;" width="78" x="136.05" y="243"/><text fill="#000000" font-family="sans-serif" font-size="14" lengthAdjust="spacing" textLength="64" x="143.05" y="259.9659">Validador</text><line style="stroke:#181818;stroke-width:0.5;" x1="137.05" x2="213.05" y1="266.0679" y2="266.0679"/></g><g id="elem_Verificador"><rect fill="#F1F1F1" height="39.0679" style="stroke:#181818;stroke-width:0.5;" width="87" x="581.55" y="243"/><text fill="#000000" font-family="sans-serif" font-size="14" lengthAdjust="spacing" textLength="73" x="588.55" y="259.9659">Verificador</text><line style="stroke:#181818;stroke-width:0.5;" x1="582.55" x2="667.55" y1="266.0679" y2="266.0679"/></g><!--link Solicitante to Sistema--><g id="link_Solicitante_Sistema"><path codeLine="6" d="M326.96,30.24 C295.65,34.75 254.89,46.36 234.05,76 C206.54,115.12 280.9203,131.9218 329.3103,138.8318 " fill="none" id="Solicitante-to-Sistema" style="stroke:#181818;stroke-width:1.0;"/><polygon fill="#181818" points="335.25,139.68,326.9058,134.4479,330.3002,138.9732,325.7749,142.3676,335.25,139.68" style="stroke:#181818;stroke-width:1.0;"/><text fill="#000000" font-family="sans-serif" font-size="13" lengthAdjust="spacing" textLength="90" x="235.05" y="90.897">Enviar solicitud</text></g><!--link Sistema to Solicitante--><g id="link_Sistema_Solicitante"><path codeLine="13" d="M367.47,124.88 C366.5,111.33 365.54,92.53 366.05,76 C366.35,66.22 366.5763,61.3257 367.1963,52.3557 " fill="none" id="Sistema-to-Solicitante" style="stroke:#181818;stroke-width:1.0;"/><polygon fill="#181818" points="367.61,46.37,362.9989,55.0728,367.2652,51.3581,370.9799,55.6244,367.61,46.37" style="stroke:#181818;stroke-width:1.0;"/><text fill="#000000" font-family="sans-serif" font-size="13" lengthAdjust="spacing" textLength="112" x="367.05" y="90.897">Solicitud aprobada</text></g><!--link Sistema to Solicitante--><g id="link_Sistema_Solicitante"><path codeLine="14" d="M402.67,137.72 C444.13,129.01 506.51,109.85 484.05,76 C467.93,51.72 442.8497,40.9377 417.1197,34.8677 " fill="none" id="Sistema-to-Solicitante-1" style="stroke:#181818;stroke-width:1.0;"/><polygon fill="#181818" points="411.28,33.49,419.1211,39.4496,416.1464,34.638,420.958,31.6633,411.28,33.49" style="stroke:#181818;stroke-width:1.0;"/><text fill="#000000" font-family="sans-serif" font-size="13" lengthAdjust="spacing" textLength="115" x="489.05" y="90.897">Solicitud rechazada</text></g><!--link Sistema to Validador--><g id="link_Sistema_Validador"><path codeLine="7" d="M335.53,145.12 C259.08,145.05 75.43,149.6 37.05,194 C6,229.91 78.9127,247.5889 129.8427,255.5889 " fill="none" id="Sistema-to-Validador" style="stroke:#181818;stroke-width:1.0;"/><polygon fill="#181818" points="135.77,256.52,127.4997,251.1719,130.8306,255.7441,126.2583,259.075,135.77,256.52" style="stroke:#181818;stroke-width:1.0;"/><text fill="#000000" font-family="sans-serif" font-size="13" lengthAdjust="spacing" textLength="93" x="38.05" y="208.897">Validar formato</text></g><!--link Validador to Sistema--><g id="link_Validador_Sistema"><path codeLine="8" d="M168.18,242.89 C164.01,228.09 161.34,207.66 172.05,194 C191.98,168.56 278.5989,155.3525 329.4289,149.5325 " fill="none" id="Validador-to-Sistema" style="stroke:#181818;stroke-width:1.0;"/><polygon fill="#181818" points="335.39,148.85,325.9934,145.8998,330.4225,149.4188,326.9034,153.8478,335.39,148.85" style="stroke:#181818;stroke-width:1.0;"/><text fill="#000000" font-family="sans-serif" font-size="13" lengthAdjust="spacing" textLength="73" x="173.05" y="208.897">Formato OK</text></g><!--link Validador to Sistema--><g id="link_Validador_Sistema"><path codeLine="9" d="M205.91,242.81 C228.38,229.22 259.56,210.41 287.05,194 C303.66,184.08 317.0542,176.152 332.3042,167.142 " fill="none" id="Validador-to-Sistema-1" style="stroke:#181818;stroke-width:1.0;"/><polygon fill="#181818" points="337.47,164.09,327.6867,165.2242,333.1652,166.6334,331.756,172.1119,337.47,164.09" style="stroke:#181818;stroke-width:1.0;"/><text fill="#000000" font-family="sans-serif" font-size="13" lengthAdjust="spacing" textLength="116" x="288.05" y="208.897">Formato incorrecto</text></g><!--link Sistema to Verificador--><g id="link_Sistema_Verificador"><path codeLine="10" d="M385.36,164.17 C399.66,179.42 421.75,200.43 445.05,213 C488.34,236.36 537.7659,248.0683 575.5859,254.5383 " fill="none" id="Sistema-to-Verificador" style="stroke:#181818;stroke-width:1.0;"/><polygon fill="#181818" points="581.5,255.55,573.3034,250.0897,576.5716,254.7069,571.9544,257.9751,581.5,255.55" style="stroke:#181818;stroke-width:1.0;"/><text fill="#000000" font-family="sans-serif" font-size="13" lengthAdjust="spacing" textLength="135" x="446.05" y="208.897">Verificar disponibilidad</text></g><!--link Verificador to Sistema--><g id="link_Verificador_Sistema"><path codeLine="11" d="M619.06,242.85 C613.13,227.41 602.52,206.1 586.05,194 C530.97,153.56 454.3188,145.9793 408.5488,145.0693 " fill="none" id="Verificador-to-Sistema" style="stroke:#181818;stroke-width:1.0;"/><polygon fill="#181818" points="402.55,144.95,411.4687,149.1281,407.549,145.0494,411.6277,141.1297,402.55,144.95" style="stroke:#181818;stroke-width:1.0;"/><text fill="#000000" font-family="sans-serif" font-size="13" lengthAdjust="spacing" textLength="63" x="604.05" y="208.897">Disponible</text></g><!--link Verificador to Sistema--><g id="link_Verificador_Sistema"><path codeLine="12" d="M654.06,242.99 C672.18,229.16 689.69,209.97 676.05,194 C641.17,153.18 481.0095,146.5989 408.7395,145.6489 " fill="none" id="Verificador-to-Sistema-1" style="stroke:#181818;stroke-width:1.0;"/><polygon fill="#181818" points="402.74,145.57,411.6866,149.688,407.7396,145.6357,411.7918,141.6886,402.74,145.57" style="stroke:#181818;stroke-width:1.0;"/><text fill="#000000" font-family="sans-serif" font-size="13" lengthAdjust="spacing" textLength="83" x="681.05" y="208.897">No disponible</text></g><!--SRC=[ZP0z3i8m38NtdC8Nw0KwC04B4Wn8x6wI2gCshjoq0wSd_KcQBi0MFtz-pmvNBwiztBaXJHwTjufNYNflMupb0nioQ5YIO8LgqhEaidaeYaCSXX9ERYGKw1TWC2gs9YoP1d1v2zGiBNfMMszlU5xwSBlyHCXf5WdByZvrstpANIi1Gtt7ZYgQNLMExVsFAzZOBz2Las7WylpyiyfO3GQm4wxGu5zmEEk9xud-0000]--></g></svg>