<?xml version="1.0" encoding="us-ascii" standalone="no"?><svg xmlns="http://www.w3.org/2000/svg" xmlns:xlink="http://www.w3.org/1999/xlink" contentStyleType="text/css" height="613px" preserveAspectRatio="none" style="width:649px;height:613px;background:#FFFFFF;" version="1.1" viewBox="0 0 649 613" width="649px" zoomAndPan="magnify"><defs/><g><ellipse cx="363.42" cy="16" fill="#222222" rx="10" ry="10" style="stroke:#222222;stroke-width:1.0;"/><g id="Recibida"><rect fill="#F1F1F1" height="50" rx="12.5" ry="12.5" style="stroke:#181818;stroke-width:0.5;" width="78" x="324.42" y="87"/><line style="stroke:#181818;stroke-width:0.5;" x1="324.42" x2="402.42" y1="116.0679" y2="116.0679"/><text fill="#000000" font-family="sans-serif" font-size="14" lengthAdjust="spacing" textLength="58" x="334.42" y="106.9659">Recibida</text></g><g id="EnValidaci&#243;n"><rect fill="#F1F1F1" height="50" rx="12.5" ry="12.5" style="stroke:#181818;stroke-width:0.5;" width="106" x="310.42" y="216"/><line style="stroke:#181818;stroke-width:0.5;" x1="310.42" x2="416.42" y1="245.0679" y2="245.0679"/><text fill="#000000" font-family="sans-serif" font-size="14" lengthAdjust="spacing" textLength="86" x="320.42" y="235.9659">EnValidaci&#243;n</text></g><g id="EnVerificaci&#243;n"><rect fill="#F1F1F1" height="50" rx="12.5" ry="12.5" style="stroke:#181818;stroke-width:0.5;" width="115" x="179.92" y="345"/><line style="stroke:#181818;stroke-width:0.5;" x1="179.92" x2="294.92" y1="374.0679" y2="374.0679"/><text fill="#000000" font-family="sans-serif" font-size="14" lengthAdjust="spacing" textLength="95" x="189.92" y="364.9659">EnVerificaci&#243;n</text></g><g id="Rechazada"><rect fill="#F1F1F1" height="50" rx="12.5" ry="12.5" style="stroke:#181818;stroke-width:0.5;" width="93" x="190.92" y="474"/><line style="stroke:#181818;stroke-width:0.5;" x1="190.92" x2="283.92" y1="503.0679" y2="503.0679"/><text fill="#000000" font-family="sans-serif" font-size="14" lengthAdjust="spacing" textLength="73" x="200.92" y="493.9659">Rechazada</text></g><g id="Aprobada"><rect fill="#F1F1F1" height="50" rx="12.5" ry="12.5" style="stroke:#181818;stroke-width:0.5;" width="86" x="7.42" y="474"/><line style="stroke:#181818;stroke-width:0.5;" x1="7.42" x2="93.42" y1="503.0679" y2="503.0679"/><text fill="#000000" font-family="sans-serif" font-size="14" lengthAdjust="spacing" textLength="66" x="17.42" y="493.9659">Aprobada</text></g><ellipse cx="112.42" cy="596" fill="none" rx="11" ry="11" style="stroke:#222222;stroke-width:1.0;"/><ellipse cx="112.42" cy="596" fill="#222222" rx="6" ry="6" style="stroke:#222222;stroke-width:1.0;"/><!--link *start* to Recibida--><g id="link_*start*_Recibida"><path d="M363.42,26.01 C363.42,39.89 363.42,60.97 363.42,80.84 " fill="none" id="*start*-to-Recibida" style="stroke:#181818;stroke-width:1.0;"/><polygon fill="#181818" points="363.42,86.84,367.42,77.84,363.42,81.84,359.42,77.84,363.42,86.84" style="stroke:#181818;stroke-width:1.0;"/></g><!--link Recibida to EnValidaci?n--><g id="link_Recibida_EnValidaci&#243;n"><path d="M363.42,137.19 C363.42,159.78 363.42,187.33 363.42,209.9 " fill="none" id="Recibida-to-EnValidaci&#243;n" style="stroke:#181818;stroke-width:1.0;"/><polygon fill="#181818" points="363.42,215.9,367.42,206.9,363.42,210.9,359.42,206.9,363.42,215.9" style="stroke:#181818;stroke-width:1.0;"/><text fill="#000000" font-family="sans-serif" font-size="13" lengthAdjust="spacing" textLength="90" x="364.42" y="181.897">recibir solicitud</text></g><!--link EnValidaci?n to EnVerificaci?n--><g id="link_EnValidaci&#243;n_EnVerificaci&#243;n"><path d="M339.42,266.19 C317,288.78 287.9456,318.0704 265.5556,340.6404 " fill="none" id="EnValidaci&#243;n-to-EnVerificaci&#243;n" style="stroke:#181818;stroke-width:1.0;"/><polygon fill="#181818" points="261.33,344.9,270.5082,341.3277,264.8514,341.3503,264.8287,335.6935,261.33,344.9" style="stroke:#181818;stroke-width:1.0;"/><text fill="#000000" font-family="sans-serif" font-size="13" lengthAdjust="spacing" textLength="139" x="309.42" y="310.897">validar formato (v&#225;lido)</text></g><!--link EnValidaci?n to Rechazada--><g id="link_EnValidaci&#243;n_Rechazada"><path d="M416.44,260.97 C432.21,269.27 447.83,280.69 457.42,296 C492.4,351.85 507.32,392.33 466.42,444 C444.11,472.18 350.2044,486.4875 289.9644,493.0775 " fill="none" id="EnValidaci&#243;n-to-Rechazada" style="stroke:#181818;stroke-width:1.0;"/><polygon fill="#181818" points="284,493.73,293.3816,496.7276,288.9703,493.1863,292.5116,488.775,284,493.73" style="stroke:#181818;stroke-width:1.0;"/><text fill="#000000" font-family="sans-serif" font-size="13" lengthAdjust="spacing" textLength="150" x="491.42" y="375.397">validar formato (inv&#225;lido)</text></g><!--link EnVerificaci?n to Aprobada--><g id="link_EnVerificaci&#243;n_Aprobada"><path d="M179.78,377.15 C121.5,384.69 37.26,399.7 17.42,425 C6,439.56 11.6901,453.9432 23.3101,468.9732 " fill="none" id="EnVerificaci&#243;n-to-Aprobada" style="stroke:#181818;stroke-width:1.0;"/><polygon fill="#181818" points="26.98,473.72,24.6398,464.1532,23.9218,469.7643,18.3107,469.0464,26.98,473.72" style="stroke:#181818;stroke-width:1.0;"/><text fill="#000000" font-family="sans-serif" font-size="13" lengthAdjust="spacing" textLength="207" x="18.42" y="439.897">verificar disponibilidad (disponible)</text></g><!--link EnVerificaci?n to Rechazada--><g id="link_EnVerificaci&#243;n_Rechazada"><path d="M235.58,395.33 C234.72,409.52 233.97,427.77 234.42,444 C234.69,453.76 234.8865,458.5104 235.4365,467.8304 " fill="none" id="EnVerificaci&#243;n-to-Rechazada" style="stroke:#181818;stroke-width:1.0;"/><polygon fill="#181818" points="235.79,473.82,239.2529,464.6,235.4954,468.8287,231.2668,465.0713,235.79,473.82" style="stroke:#181818;stroke-width:1.0;"/><text fill="#000000" font-family="sans-serif" font-size="13" lengthAdjust="spacing" textLength="226" x="235.42" y="439.897">verificar disponibilidad (no disponible)</text></g><!--link Aprobada to *end*--><g id="link_Aprobada_*end*"><path d="M66.39,524.46 C79.59,544.7 94.3094,567.2563 103.3994,581.1763 " fill="none" id="Aprobada-to-*end*" style="stroke:#181818;stroke-width:1.0;"/><polygon fill="#181818" points="106.68,586.2,105.1083,576.4774,103.9462,582.0136,98.41,580.8515,106.68,586.2" style="stroke:#181818;stroke-width:1.0;"/></g><!--link Rechazada to *end*--><g id="link_Rechazada_*end*"><path d="M205.55,524.22 C177.2,545.77 142.4466,572.179 125.4766,585.079 " fill="none" id="Rechazada-to-*end*" style="stroke:#181818;stroke-width:1.0;"/><polygon fill="#181818" points="120.7,588.71,130.2856,586.4479,124.6805,585.6842,125.4442,580.0791,120.7,588.71" style="stroke:#181818;stroke-width:1.0;"/></g><!--SRC=[YzQALT3LjLC8IatEJCfCIUI2CS2YhdbXYJb0JdBcuSrv2bOAHM398eNY_9pCvCoIqXGkL1LGFQb5cMcPoN1TPM0LHGff-KMvYINv2XfbXnS2HV8riUW6Mf-HM9K8j1-BlimyP9qeje3qEXOKvIT1jK8bYnHICeiBylE0hWQPbQAW0UFdf68t1CK1E4t9orT0DWXkCyY4QArOBeGfK140]--></g></svg>