<?xml version="1.0" encoding="us-ascii" standalone="no"?><svg xmlns="http://www.w3.org/2000/svg" xmlns:xlink="http://www.w3.org/1999/xlink" contentStyleType="text/css" height="885px" preserveAspectRatio="none" style="width:1391px;height:885px;background:#FFFFFF;" version="1.1" viewBox="0 0 1391 885" width="1391px" zoomAndPan="magnify"><defs/><g><!--cluster Sistema Hospitalario--><g id="cluster_Sistema Hospitalario"><path d="M8.5,6.602 L153.5,6.602 A3.75,3.75 0 0 1 156,9.102 L163,31.6699 L1381.5,31.6699 A2.5,2.5 0 0 1 1384,34.1699 L1384,876.102 A2.5,2.5 0 0 1 1381.5,878.602 L8.5,878.602 A2.5,2.5 0 0 1 6,876.102 L6,9.102 A2.5,2.5 0 0 1 8.5,6.602 " fill="none" style="stroke:#000000;stroke-width:1.5;"/><line style="stroke:#000000;stroke-width:1.5;" x1="6" x2="163" y1="31.6699" y2="31.6699"/><text fill="#000000" font-family="sans-serif" font-size="14" font-weight="bold" lengthAdjust="spacing" textLength="144" x="10" y="23.5679">Sistema Hospitalario</text></g><!--cluster Administraci?n de Pacientes--><g id="cluster_Administraci&#243;n de Pacientes"><path d="M380,305.602 L578,305.602 A3.75,3.75 0 0 1 580.5,308.102 L587.5,330.6699 L833.5,330.6699 A2.5,2.5 0 0 1 836,333.1699 L836,543.102 A2.5,2.5 0 0 1 833.5,545.602 L380,545.602 A2.5,2.5 0 0 1 377.5,543.102 L377.5,308.102 A2.5,2.5 0 0 1 380,305.602 " fill="none" style="stroke:#000000;stroke-width:1.5;"/><line style="stroke:#000000;stroke-width:1.5;" x1="377.5" x2="587.5" y1="330.6699" y2="330.6699"/><text fill="#000000" font-family="sans-serif" font-size="14" font-weight="bold" lengthAdjust="spacing" textLength="197" x="381.5" y="322.5679">Administraci&#243;n de Pacientes</text></g><!--cluster Gesti?n de Citas--><g id="cluster_Gesti&#243;n de Citas"><path d="M63,52.602 L176,52.602 A3.75,3.75 0 0 1 178.5,55.102 L185.5,77.6699 L570,77.6699 A2.5,2.5 0 0 1 572.5,80.1699 L572.5,279.102 A2.5,2.5 0 0 1 570,281.602 L63,281.602 A2.5,2.5 0 0 1 60.5,279.102 L60.5,55.102 A2.5,2.5 0 0 1 63,52.602 " fill="none" style="stroke:#000000;stroke-width:1.5;"/><line style="stroke:#000000;stroke-width:1.5;" x1="60.5" x2="185.5" y1="77.6699" y2="77.6699"/><text fill="#000000" font-family="sans-serif" font-size="14" font-weight="bold" lengthAdjust="spacing" textLength="112" x="64.5" y="69.5679">Gesti&#243;n de Citas</text></g><!--cluster Historias Cl?nicas--><g id="cluster_Historias Cl&#237;nicas"><path d="M33.5,305.602 L152.5,305.602 A3.75,3.75 0 0 1 155,308.102 L162,330.6699 L272.5,330.6699 A2.5,2.5 0 0 1 275,333.1699 L275,564.102 A2.5,2.5 0 0 1 272.5,566.602 L33.5,566.602 A2.5,2.5 0 0 1 31,564.102 L31,308.102 A2.5,2.5 0 0 1 33.5,305.602 " fill="none" style="stroke:#000000;stroke-width:1.5;"/><line style="stroke:#000000;stroke-width:1.5;" x1="31" x2="162" y1="330.6699" y2="330.6699"/><text fill="#000000" font-family="sans-serif" font-size="14" font-weight="bold" lengthAdjust="spacing" textLength="118" x="35" y="322.5679">Historias Cl&#237;nicas</text></g><!--cluster Prescripciones--><g id="cluster_Prescripciones"><path d="M871.5,543.602 L972.5,543.602 A3.75,3.75 0 0 1 975,546.102 L982,568.6699 L1357.5,568.6699 A2.5,2.5 0 0 1 1360,571.1699 L1360,719.102 A2.5,2.5 0 0 1 1357.5,721.602 L871.5,721.602 A2.5,2.5 0 0 1 869,719.102 L869,546.102 A2.5,2.5 0 0 1 871.5,543.602 " fill="none" style="stroke:#000000;stroke-width:1.5;"/><line style="stroke:#000000;stroke-width:1.5;" x1="869" x2="982" y1="568.6699" y2="568.6699"/><text fill="#000000" font-family="sans-serif" font-size="14" font-weight="bold" lengthAdjust="spacing" textLength="100" x="873" y="560.5679">Prescripciones</text></g><!--cluster Hospitalizaciones--><g id="cluster_Hospitalizaciones"><path d="M32.5,590.602 L154.5,590.602 A3.75,3.75 0 0 1 157,593.102 L164,615.6699 L599.5,615.6699 A2.5,2.5 0 0 1 602,618.1699 L602,852.102 A2.5,2.5 0 0 1 599.5,854.602 L32.5,854.602 A2.5,2.5 0 0 1 30,852.102 L30,593.102 A2.5,2.5 0 0 1 32.5,590.602 " fill="none" style="stroke:#000000;stroke-width:1.5;"/><line style="stroke:#000000;stroke-width:1.5;" x1="30" x2="164" y1="615.6699" y2="615.6699"/><text fill="#000000" font-family="sans-serif" font-size="14" font-weight="bold" lengthAdjust="spacing" textLength="121" x="34" y="607.5679">Hospitalizaciones</text></g><g id="elem_UC1"><ellipse cx="482.9397" cy="438.6899" fill="#F1F1F1" rx="78.4397" ry="18.0879" style="stroke:#181818;stroke-width:0.5;"/><text fill="#000000" font-family="sans-serif" font-size="14" lengthAdjust="spacing" textLength="99" x="430.4397" y="443.4229">Crear paciente</text></g><g id="elem_UC2"><ellipse cx="483.1378" cy="510.8295" fill="#F1F1F1" rx="81.6378" ry="18.7276" style="stroke:#181818;stroke-width:0.5;"/><text fill="#000000" font-family="sans-serif" font-size="14" lengthAdjust="spacing" textLength="108" x="426.1378" y="515.5625">Buscar paciente</text></g><g id="elem_UC3"><ellipse cx="483.0514" cy="364.4123" fill="#F1F1F1" rx="89.5514" ry="20.3103" style="stroke:#181818;stroke-width:0.5;"/><text fill="#000000" font-family="sans-serif" font-size="14" lengthAdjust="spacing" textLength="129" x="415.5514" y="369.1452">Actualizar paciente</text></g><g id="elem_UC4"><ellipse cx="734.3341" cy="474.5688" fill="#F1F1F1" rx="85.3341" ry="19.4668" style="stroke:#181818;stroke-width:0.5;"/><text fill="#000000" font-family="sans-serif" font-size="14" lengthAdjust="spacing" textLength="118" x="672.3341" y="479.3018">Eliminar paciente</text></g><g id="elem_UC5"><ellipse cx="152.8439" cy="248.5547" fill="#F1F1F1" rx="59.3439" ry="16.9527" style="stroke:#181818;stroke-width:0.5;"/><text fill="#000000" font-family="sans-serif" font-size="14" lengthAdjust="spacing" textLength="65" x="117.3439" y="253.2877">Crear cita</text></g><g id="elem_UC6"><ellipse cx="152.8836" cy="178.7787" fill="#F1F1F1" rx="76.3836" ry="17.6767" style="stroke:#181818;stroke-width:0.5;"/><text fill="#000000" font-family="sans-serif" font-size="14" lengthAdjust="spacing" textLength="93" x="103.3836" y="183.5117">Consultar cita</text></g><g id="elem_UC7"><ellipse cx="153.0473" cy="108.7114" fill="#F1F1F1" rx="76.0473" ry="17.6095" style="stroke:#181818;stroke-width:0.5;"/><text fill="#000000" font-family="sans-serif" font-size="14" lengthAdjust="spacing" textLength="92" x="104.0473" y="113.4444">Modificar cita</text></g><g id="elem_UC8"><ellipse cx="482.9266" cy="178.6873" fill="#F1F1F1" rx="73.4266" ry="17.0853" style="stroke:#181818;stroke-width:0.5;"/><text fill="#000000" font-family="sans-serif" font-size="14" lengthAdjust="spacing" textLength="84" x="437.9266" y="183.4203">Eliminar cita</text></g><g id="elem_UC9"><ellipse cx="153.005" cy="364.703" fill="#F1F1F1" rx="93.505" ry="21.101" style="stroke:#181818;stroke-width:0.5;"/><text fill="#000000" font-family="sans-serif" font-size="14" lengthAdjust="spacing" textLength="139" x="80.505" y="369.4359">Crear historia cl&#237;nica</text></g><g id="elem_UC10"><ellipse cx="153.0645" cy="444.5149" fill="#F1F1F1" rx="105.0645" ry="23.4129" style="stroke:#181818;stroke-width:0.5;"/><text fill="#000000" font-family="sans-serif" font-size="14" lengthAdjust="spacing" textLength="167" x="66.5645" y="449.2478">Consultar historia cl&#237;nica</text></g><g id="elem_UC11"><ellipse cx="152.9133" cy="526.6846" fill="#F1F1F1" rx="105.9133" ry="23.5827" style="stroke:#181818;stroke-width:0.5;"/><text fill="#000000" font-family="sans-serif" font-size="14" lengthAdjust="spacing" textLength="169" x="65.4133" y="531.4176">Actualizar historia cl&#237;nica</text></g><g id="elem_UC12"><ellipse cx="984.0009" cy="606.6022" fill="#F1F1F1" rx="88.0009" ry="20.0002" style="stroke:#181818;stroke-width:0.5;"/><text fill="#000000" font-family="sans-serif" font-size="14" lengthAdjust="spacing" textLength="125" x="918.5009" y="611.3351">Crear prescripci&#243;n</text></g><g id="elem_UC13"><ellipse cx="984.2037" cy="683.8427" fill="#F1F1F1" rx="99.2037" ry="22.2407" style="stroke:#181818;stroke-width:0.5;"/><text fill="#000000" font-family="sans-serif" font-size="14" lengthAdjust="spacing" textLength="153" x="904.7037" y="688.5757">Consultar prescripci&#243;n</text></g><g id="elem_UC14"><ellipse cx="1244.0317" cy="682.5083" fill="#F1F1F1" rx="100.0317" ry="22.4063" style="stroke:#181818;stroke-width:0.5;"/><text fill="#000000" font-family="sans-serif" font-size="14" lengthAdjust="spacing" textLength="155" x="1163.5317" y="687.2413">Actualizar prescripci&#243;n</text></g><g id="elem_UC15"><ellipse cx="1244.0197" cy="603.6059" fill="#F1F1F1" rx="95.5197" ry="21.5039" style="stroke:#181818;stroke-width:0.5;"/><text fill="#000000" font-family="sans-serif" font-size="14" lengthAdjust="spacing" textLength="144" x="1169.0197" y="608.3389">Eliminar prescripci&#243;n</text></g><g id="elem_UC16"><ellipse cx="153.211" cy="650.4442" fill="#F1F1F1" rx="94.711" ry="21.3422" style="stroke:#181818;stroke-width:0.5;"/><text fill="#000000" font-family="sans-serif" font-size="14" lengthAdjust="spacing" textLength="142" x="79.211" y="655.1771">Crear hospitalizaci&#243;n</text></g><g id="elem_UC17"><ellipse cx="152.8388" cy="814.7697" fill="#F1F1F1" rx="106.3388" ry="23.6678" style="stroke:#181818;stroke-width:0.5;"/><text fill="#000000" font-family="sans-serif" font-size="14" lengthAdjust="spacing" textLength="170" x="64.8388" y="819.5027">Consultar hospitalizaci&#243;n</text></g><g id="elem_UC18"><ellipse cx="153.1917" cy="731.4403" fill="#F1F1F1" rx="107.1917" ry="23.8383" style="stroke:#181818;stroke-width:0.5;"/><text fill="#000000" font-family="sans-serif" font-size="14" lengthAdjust="spacing" textLength="172" x="64.1917" y="736.1733">Actualizar hospitalizaci&#243;n</text></g><g id="elem_UC19"><ellipse cx="482.9545" cy="755.5929" fill="#F1F1F1" rx="102.9545" ry="22.9909" style="stroke:#181818;stroke-width:0.5;"/><text fill="#000000" font-family="sans-serif" font-size="14" lengthAdjust="spacing" textLength="162" x="398.9545" y="760.3259">Finalizar hospitalizaci&#243;n</text></g><!--link UC5 to UC2--><g id="link_UC5_UC2"><path d="M189.57,262.022 C235.1,281.232 312.57,321.182 350,382.602 C371.52,417.922 341.85,442.832 369.5,473.602 C381.18,486.602 391.8135,493.158 408.4135,498.648 " fill="none" id="UC5-to-UC2" style="stroke:#181818;stroke-width:1.0;stroke-dasharray:7.0,7.0;"/><polygon fill="#181818" points="414.11,500.532,406.8212,493.9083,409.3629,498.962,404.3092,501.5037,414.11,500.532" style="stroke:#181818;stroke-width:1.0;"/><text fill="#000000" font-family="sans-serif" font-size="13" lengthAdjust="spacing" textLength="57" x="292" y="318.499">&#171;include&#187;</text></g><!--link UC9 to UC2--><g id="link_UC9_UC2"><path d="M220.24,379.322 C241.01,385.322 263.56,393.312 283,403.602 C326.71,426.742 326.08,449.932 369.5,473.602 C387.46,483.392 402.7261,489.3949 421.6761,495.2349 " fill="none" id="UC9-to-UC2" style="stroke:#181818;stroke-width:1.0;stroke-dasharray:7.0,7.0;"/><polygon fill="#181818" points="427.41,497.002,419.9872,490.5288,422.6318,495.5294,417.6311,498.174,427.41,497.002" style="stroke:#181818;stroke-width:1.0;"/><text fill="#000000" font-family="sans-serif" font-size="13" lengthAdjust="spacing" textLength="57" x="292" y="405.499">&#171;include&#187;</text></g><!--link UC16 to UC2--><g id="link_UC16_UC2"><path d="M198.24,631.722 C262.93,604.102 376.7915,555.5071 438.0415,529.3671 " fill="none" id="UC16-to-UC2" style="stroke:#181818;stroke-width:1.0;stroke-dasharray:7.0,7.0;"/><polygon fill="#181818" points="443.56,527.012,433.7122,526.8657,438.9613,528.9746,436.8524,534.2237,443.56,527.012" style="stroke:#181818;stroke-width:1.0;"/><text fill="#000000" font-family="sans-serif" font-size="13" lengthAdjust="spacing" textLength="57" x="292" y="564.499">&#171;include&#187;</text></g><!--SRC=[XPDDQiCm44RtFiMG0uGwFqvSWY4rRRCf14eF86Gb7gf8Hf8tBJrILpr2BjPnS4A2P4KhmxnlxESPIR5pu3GOtDSEAZI2EzGgIHh6FzbUmEWThHC71Xjj6tHCCeDw1Dy9qBb0w-g0Ya33E1x_55G2jlGeb1Fs37UdjO8pIu7I26Qw_8aP0RFmKQO-zzHQxeCJ7rnprpA9NpuyzU5dYVIzFZexeJ_9hTohiEviLT8lY1bnglVDvW56AzjATyjbFlUcAzmXl-KM4OyhR1bqsD1mj44YIddyLTGxPb7tDF0UxdldCQMXKFeGdTPWB0sAR8smt633QKlZktK1QNJddfEOG30nZQzQA3ABBLmeC0-FhBzmzAAxilKrUzKvYmvi8BI8psiWjVHJBwGS3-MzERadT6DWF2wwwmsFi5gXuhAjH55G9H-ifDb0wHy0]--></g></svg>