<?xml version="1.0" encoding="us-ascii" standalone="no"?><svg xmlns="http://www.w3.org/2000/svg" xmlns:xlink="http://www.w3.org/1999/xlink" contentStyleType="text/css" height="481px" preserveAspectRatio="none" style="width:745px;height:481px;background:#FFFFFF;" version="1.1" viewBox="0 0 745 481" width="745px" zoomAndPan="magnify"><defs/><g><!--class Paciente--><g id="elem_Paciente"><rect codeLine="4" fill="#F1F1F1" height="29.0679" id="Paciente" rx="2.5" ry="2.5" style="stroke:#181818;stroke-width:0.5;" width="63" x="467.5" y="14.809"/><text fill="#000000" font-family="sans-serif" font-size="14" lengthAdjust="spacing" textLength="57" x="470.5" y="34.7749">Paciente</text></g><!--class HistoriaClinica--><g id="elem_HistoriaClinica"><rect fill="#F1F1F1" height="29.0679" id="HistoriaClinica" rx="2.5" ry="2.5" style="stroke:#181818;stroke-width:0.5;" width="103" x="194.5" y="122.809"/><text fill="#000000" font-family="sans-serif" font-size="14" lengthAdjust="spacing" textLength="97" x="197.5" y="142.7749">HistoriaClinica</text></g><!--class Cita--><g id="elem_Cita"><rect fill="#F1F1F1" height="29.0679" id="Cita" rx="2.5" ry="2.5" style="stroke:#181818;stroke-width:0.5;" width="32" x="593" y="446.809"/><text fill="#000000" font-family="sans-serif" font-size="14" lengthAdjust="spacing" textLength="26" x="596" y="466.7749">Cita</text></g><!--class Hospitalizacion--><g id="elem_Hospitalizacion"><rect fill="#F1F1F1" height="29.0679" id="Hospitalizacion" rx="2.5" ry="2.5" style="stroke:#181818;stroke-width:0.5;" width="108" x="378" y="122.809"/><text fill="#000000" font-family="sans-serif" font-size="14" lengthAdjust="spacing" textLength="102" x="381" y="142.7749">Hospitalizacion</text></g><!--class Medico--><g id="elem_Medico"><rect fill="#F1F1F1" height="29.0679" id="Medico" rx="2.5" ry="2.5" style="stroke:#181818;stroke-width:0.5;" width="55" x="462.5" y="338.809"/><text fill="#000000" font-family="sans-serif" font-size="14" lengthAdjust="spacing" textLength="49" x="465.5" y="358.7749">Medico</text></g><!--class Turno--><g id="elem_Turno"><rect fill="#F1F1F1" height="29.0679" id="Turno" rx="2.5" ry="2.5" style="stroke:#181818;stroke-width:0.5;" width="46" x="363" y="446.809"/><text fill="#000000" font-family="sans-serif" font-size="14" lengthAdjust="spacing" textLength="40" x="366" y="466.7749">Turno</text></g><!--class Especialidad--><g id="elem_Especialidad"><rect fill="#F1F1F1" height="29.0679" id="Especialidad" rx="2.5" ry="2.5" style="stroke:#181818;stroke-width:0.5;" width="91" x="444.5" y="446.809"/><text fill="#000000" font-family="sans-serif" font-size="14" lengthAdjust="spacing" textLength="85" x="447.5" y="466.7749">Especialidad</text></g><!--class Consulta--><g id="elem_Consulta"><rect fill="#F1F1F1" height="29.0679" id="Consulta" rx="2.5" ry="2.5" style="stroke:#181818;stroke-width:0.5;" width="65" x="119.5" y="230.809"/><text fill="#000000" font-family="sans-serif" font-size="14" lengthAdjust="spacing" textLength="59" x="122.5" y="250.7749">Consulta</text></g><!--class SignosVitales--><g id="elem_SignosVitales"><rect fill="#F1F1F1" height="29.0679" id="SignosVitales" rx="2.5" ry="2.5" style="stroke:#181818;stroke-width:0.5;" width="95" x="242.5" y="230.809"/><text fill="#000000" font-family="sans-serif" font-size="14" lengthAdjust="spacing" textLength="89" x="245.5" y="250.7749">SignosVitales</text></g><!--class Prescripcion--><g id="elem_Prescripcion"><rect fill="#F1F1F1" height="29.0679" id="Prescripcion" rx="2.5" ry="2.5" style="stroke:#181818;stroke-width:0.5;" width="89" x="11.5" y="338.809"/><text fill="#000000" font-family="sans-serif" font-size="14" lengthAdjust="spacing" textLength="83" x="14.5" y="358.7749">Prescripcion</text></g><!--class OrdenExamen--><g id="elem_OrdenExamen"><rect fill="#F1F1F1" height="29.0679" id="OrdenExamen" rx="2.5" ry="2.5" style="stroke:#181818;stroke-width:0.5;" width="102" x="136" y="338.809"/><text fill="#000000" font-family="sans-serif" font-size="14" lengthAdjust="spacing" textLength="96" x="139" y="358.7749">OrdenExamen</text></g><!--class Medicamento--><g id="elem_Medicamento"><rect fill="#F1F1F1" height="29.0679" id="Medicamento" rx="2.5" ry="2.5" style="stroke:#181818;stroke-width:0.5;" width="98" x="7" y="446.809"/><text fill="#000000" font-family="sans-serif" font-size="14" lengthAdjust="spacing" textLength="92" x="10" y="466.7749">Medicamento</text></g><!--class Cama--><g id="elem_Cama"><rect fill="#F1F1F1" height="29.0679" id="Cama" rx="2.5" ry="2.5" style="stroke:#181818;stroke-width:0.5;" width="44" x="518" y="230.809"/><text fill="#000000" font-family="sans-serif" font-size="14" lengthAdjust="spacing" textLength="38" x="521" y="250.7749">Cama</text></g><!--class Cirugia--><g id="elem_Cirugia"><rect fill="#F1F1F1" height="29.0679" id="Cirugia" rx="2.5" ry="2.5" style="stroke:#181818;stroke-width:0.5;" width="55" x="394.5" y="230.809"/><text fill="#000000" font-family="sans-serif" font-size="14" lengthAdjust="spacing" textLength="49" x="397.5" y="250.7749">Cirugia</text></g><!--class SalaOperaciones--><g id="elem_SalaOperaciones"><rect fill="#F1F1F1" height="29.0679" id="SalaOperaciones" rx="2.5" ry="2.5" style="stroke:#181818;stroke-width:0.5;" width="119" x="308.5" y="338.809"/><text fill="#000000" font-family="sans-serif" font-size="14" lengthAdjust="spacing" textLength="113" x="311.5" y="358.7749">SalaOperaciones</text></g><!--class Factura--><g id="elem_Factura"><rect fill="#F1F1F1" height="29.0679" id="Factura" rx="2.5" ry="2.5" style="stroke:#181818;stroke-width:0.5;" width="56" x="667" y="14.809"/><text fill="#000000" font-family="sans-serif" font-size="14" lengthAdjust="spacing" textLength="50" x="670" y="34.7749">Factura</text></g><!--class Pago--><g id="elem_Pago"><rect fill="#F1F1F1" height="29.0679" id="Pago" rx="2.5" ry="2.5" style="stroke:#181818;stroke-width:0.5;" width="39" x="685.5" y="122.809"/><text fill="#000000" font-family="sans-serif" font-size="14" lengthAdjust="spacing" textLength="33" x="688.5" y="142.7749">Pago</text></g><!--link Paciente to HistoriaClinica--><g id="link_Paciente_HistoriaClinica"><path codeLine="6" d="M467.47,43.519 C419.12,63.779 332.6837,99.9899 283.8637,120.4499 " fill="none" id="Paciente-to-HistoriaClinica" style="stroke:#181818;stroke-width:1.0;"/><polygon fill="#181818" points="278.33,122.769,288.1766,122.9795,282.9414,120.8364,285.0845,115.6012,278.33,122.769" style="stroke:#181818;stroke-width:1.0;"/><text fill="#000000" font-family="sans-serif" font-size="13" lengthAdjust="spacing" textLength="30" x="397" y="88.706">tiene</text></g><!--link Paciente to Cita--><g id="link_Paciente_Cita"><path codeLine="7" d="M530.52,39.909 C569.85,54.079 632,84.639 632,136.309 C632,136.309 632,136.309 632,354.309 C632,388.209 622.553,421.1555 615.803,441.1055 " fill="none" id="Paciente-to-Cita" style="stroke:#181818;stroke-width:1.0;"/><polygon fill="#181818" points="613.88,446.789,620.5535,439.5458,615.4825,442.0528,612.9755,436.9818,613.88,446.789" style="stroke:#181818;stroke-width:1.0;"/><text fill="#000000" font-family="sans-serif" font-size="13" lengthAdjust="spacing" textLength="45" x="633" y="250.706">agenda</text></g><!--link Paciente to Hospitalizacion--><g id="link_Paciente_Hospitalizacion"><path codeLine="8" d="M490.24,44.169 C477.33,64.589 456.5463,97.4776 443.7563,117.7076 " fill="none" id="Paciente-to-Hospitalizacion" style="stroke:#181818;stroke-width:1.0;"/><polygon fill="#181818" points="440.55,122.779,448.7404,117.3094,443.2219,118.5528,441.9785,113.0343,440.55,122.779" style="stroke:#181818;stroke-width:1.0;"/><text fill="#000000" font-family="sans-serif" font-size="13" lengthAdjust="spacing" textLength="30" x="473" y="88.706">tiene</text></g><!--link Medico to Cita--><g id="link_Medico_Cita"><path codeLine="10" d="M505,368.049 C518.92,380.769 540.26,400.179 559,416.809 C570.36,426.889 578.7627,434.2131 588.6327,442.7531 " fill="none" id="Medico-to-Cita" style="stroke:#181818;stroke-width:1.0;"/><polygon fill="#181818" points="593.17,446.679,588.9813,437.7653,589.3889,443.4074,583.7468,443.815,593.17,446.679" style="stroke:#181818;stroke-width:1.0;"/><text fill="#000000" font-family="sans-serif" font-size="13" lengthAdjust="spacing" textLength="45" x="560" y="412.706">atiende</text></g><!--link Medico to Turno--><g id="link_Medico_Turno"><path codeLine="11" d="M462.31,367.989 C449.02,375.499 433.52,385.749 422,397.809 C408.17,412.299 399.9912,427.6036 393.9812,441.1636 " fill="none" id="Medico-to-Turno" style="stroke:#181818;stroke-width:1.0;"/><polygon fill="#181818" points="391.55,446.649,398.8537,440.0418,393.576,442.0779,391.5399,436.8002,391.55,446.649" style="stroke:#181818;stroke-width:1.0;"/><text fill="#000000" font-family="sans-serif" font-size="13" lengthAdjust="spacing" textLength="55" x="423" y="412.706">asignado</text></g><!--link Medico to Especialidad--><g id="link_Medico_Especialidad"><path codeLine="12" d="M488.68,368.209 C487.63,380.869 486.42,400.089 487,416.809 C487.34,426.799 487.6549,432.0678 488.3349,440.6278 " fill="none" id="Medico-to-Especialidad" style="stroke:#181818;stroke-width:1.0;"/><polygon fill="#181818" points="488.81,446.609,492.0847,437.3205,488.4141,441.6247,484.1099,437.954,488.81,446.609" style="stroke:#181818;stroke-width:1.0;"/><text fill="#000000" font-family="sans-serif" font-size="13" lengthAdjust="spacing" textLength="30" x="488" y="412.706">tiene</text></g><!--link HistoriaClinica to Consulta--><g id="link_HistoriaClinica_Consulta"><path codeLine="14" d="M215.75,151.969 C202.4,159.249 187.42,169.299 177,181.809 C165.03,196.179 159.7152,211.1781 156.3152,224.7781 " fill="none" id="HistoriaClinica-to-Consulta" style="stroke:#181818;stroke-width:1.0;"/><polygon fill="#181818" points="154.86,230.599,160.9234,222.8379,156.0727,225.7483,153.1623,220.8976,154.86,230.599" style="stroke:#181818;stroke-width:1.0;"/><text fill="#000000" font-family="sans-serif" font-size="13" lengthAdjust="spacing" textLength="52" x="178" y="196.706">contiene</text></g><!--link HistoriaClinica to SignosVitales--><g id="link_HistoriaClinica_SignosVitales"><path codeLine="15" d="M242,151.859 C238.88,164.959 236.13,185.079 243,200.809 C248.25,212.829 253.9047,219.3372 263.5847,226.8272 " fill="none" id="HistoriaClinica-to-SignosVitales" style="stroke:#181818;stroke-width:1.0;"/><polygon fill="#181818" points="268.33,230.499,263.6598,221.8278,264.3756,227.4392,258.7642,228.1549,268.33,230.499" style="stroke:#181818;stroke-width:1.0;"/><text fill="#000000" font-family="sans-serif" font-size="13" lengthAdjust="spacing" textLength="46" x="244" y="196.706">registra</text></g><!--link Consulta to Prescripcion--><g id="link_Consulta_Prescripcion"><path codeLine="17" d="M139.45,260.169 C120.95,280.589 90.6087,314.1027 72.2787,334.3327 " fill="none" id="Consulta-to-Prescripcion" style="stroke:#181818;stroke-width:1.0;"/><polygon fill="#181818" points="68.25,338.779,77.2573,334.7954,71.6073,335.0738,71.3289,329.4238,68.25,338.779" style="stroke:#181818;stroke-width:1.0;"/><text fill="#000000" font-family="sans-serif" font-size="13" lengthAdjust="spacing" textLength="42" x="114" y="304.706">genera</text></g><!--link Consulta to OrdenExamen--><g id="link_Consulta_OrdenExamen"><path codeLine="18" d="M156.58,260.169 C163.32,280.589 173.9687,312.8516 180.6487,333.0816 " fill="none" id="Consulta-to-OrdenExamen" style="stroke:#181818;stroke-width:1.0;"/><polygon fill="#181818" points="182.53,338.779,183.5063,328.9787,180.9622,334.0311,175.9098,331.4871,182.53,338.779" style="stroke:#181818;stroke-width:1.0;"/><text fill="#000000" font-family="sans-serif" font-size="13" lengthAdjust="spacing" textLength="41" x="174" y="304.706">solicita</text></g><!--link Prescripcion to Medicamento--><g id="link_Prescripcion_Medicamento"><path codeLine="20" d="M56,368.169 C56,388.589 56,420.549 56,440.779 " fill="none" id="Prescripcion-to-Medicamento" style="stroke:#181818;stroke-width:1.0;"/><polygon fill="#181818" points="56,446.779,60,437.779,56,441.779,52,437.779,56,446.779" style="stroke:#181818;stroke-width:1.0;"/><text fill="#000000" font-family="sans-serif" font-size="13" lengthAdjust="spacing" textLength="42" x="57" y="412.706">incluye</text></g><!--link Hospitalizacion to Cama--><g id="link_Hospitalizacion_Cama"><path codeLine="22" d="M472.91,151.869 C488.46,158.759 505.23,168.539 517,181.809 C529.35,195.739 534.1088,210.9805 536.7988,224.7405 " fill="none" id="Hospitalizacion-to-Cama" style="stroke:#181818;stroke-width:1.0;"/><polygon fill="#181818" points="537.95,230.629,540.1489,221.0288,536.9907,225.7219,532.2976,222.5637,537.95,230.629" style="stroke:#181818;stroke-width:1.0;"/><text fill="#000000" font-family="sans-serif" font-size="13" lengthAdjust="spacing" textLength="37" x="530" y="196.706">ocupa</text></g><!--link Hospitalizacion to SignosVitales--><g id="link_Hospitalizacion_SignosVitales"><path codeLine="23" d="M408.05,151.909 C394.24,160.059 376.74,170.939 362,181.809 C340.95,197.329 322.8506,213.4096 308.7106,226.5796 " fill="none" id="Hospitalizacion-to-SignosVitales" style="stroke:#181818;stroke-width:1.0;"/><polygon fill="#181818" points="304.32,230.669,313.6321,227.462,307.9788,227.2612,308.1796,221.6079,304.32,230.669" style="stroke:#181818;stroke-width:1.0;"/><text fill="#000000" font-family="sans-serif" font-size="13" lengthAdjust="spacing" textLength="46" x="363" y="196.706">registra</text></g><!--link Hospitalizacion to Cirugia--><g id="link_Hospitalizacion_Cirugia"><path codeLine="24" d="M426.73,152.179 C423.81,160.609 420.48,171.669 419,181.809 C416.58,198.359 417.3922,211.6683 419.0322,224.3783 " fill="none" id="Hospitalizacion-to-Cirugia" style="stroke:#181818;stroke-width:1.0;"/><polygon fill="#181818" points="419.8,230.329,422.6154,220.8911,419.1601,225.3701,414.6811,221.9149,419.8,230.329" style="stroke:#181818;stroke-width:1.0;"/><text fill="#000000" font-family="sans-serif" font-size="13" lengthAdjust="spacing" textLength="92" x="420" y="196.706">puede_requerir</text></g><!--link Cirugia to SalaOperaciones--><g id="link_Cirugia_SalaOperaciones"><path codeLine="26" d="M409.3,259.929 C402.24,268.089 393.74,278.959 388,289.809 C379.69,305.519 375.4709,319.4525 372.3609,332.5025 " fill="none" id="Cirugia-to-SalaOperaciones" style="stroke:#181818;stroke-width:1.0;"/><polygon fill="#181818" points="370.97,338.339,376.9474,330.5115,372.1291,333.4752,369.1654,328.6569,370.97,338.339" style="stroke:#181818;stroke-width:1.0;"/><text fill="#000000" font-family="sans-serif" font-size="13" lengthAdjust="spacing" textLength="35" x="389" y="304.706">utiliza</text></g><!--link Cirugia to Medico--><g id="link_Cirugia_Medico"><path codeLine="27" d="M430.89,260.169 C443.99,280.589 465.0999,313.4991 478.0799,333.7291 " fill="none" id="Cirugia-to-Medico" style="stroke:#181818;stroke-width:1.0;"/><polygon fill="#181818" points="481.32,338.779,479.8264,329.0441,478.6199,334.5707,473.0932,333.3642,481.32,338.779" style="stroke:#181818;stroke-width:1.0;"/><text fill="#000000" font-family="sans-serif" font-size="13" lengthAdjust="spacing" textLength="80" x="464" y="304.706">realizada_por</text></g><!--reverse link Paciente to Factura--><g id="link_Paciente_Factura"><path codeLine="29" d="M536.93,29.309 C574.68,29.309 630.91,29.309 666.9,29.309 " fill="none" id="Paciente-backto-Factura" style="stroke:#181818;stroke-width:1.0;"/><polygon fill="#181818" points="530.93,29.309,539.93,33.309,535.93,29.309,539.93,25.309,530.93,29.309" style="stroke:#181818;stroke-width:1.0;"/><text fill="#000000" font-family="sans-serif" font-size="13" lengthAdjust="spacing" textLength="76" x="560.75" y="22.206">corresponde</text></g><!--link Factura to Pago--><g id="link_Factura_Pago"><path codeLine="30" d="M696.31,44.169 C698.23,64.589 701.246,96.5756 703.156,116.8056 " fill="none" id="Factura-to-Pago" style="stroke:#181818;stroke-width:1.0;"/><polygon fill="#181818" points="703.72,122.779,706.8563,113.4429,703.25,117.8011,698.8917,114.1948,703.72,122.779" style="stroke:#181818;stroke-width:1.0;"/><text fill="#000000" font-family="sans-serif" font-size="13" lengthAdjust="spacing" textLength="36" x="701" y="88.706">recibe</text></g><!--SRC=[TP91RiCW44NtFWKNo0MwwCPArKsLIAswZIOmSaR2G0UGcbQzUnaWgUmcEul_UCC7dyYWmZcaivfnFYB7uIHBcbXR70Pj8KQr1qte4dx_3CFbMwdDvb6fPuh9Cy5eoP46zQ1IYN6DZPGaWmcTWNyE7qF9BNsLTU-k3gNKy8A6j5zP93QupDuoEozXfCc1ySjq6mDgAYCCc8L_VVu-oBkORHsclMlqRVArJFFnNOwFiU2CK-4OglogQUoUCMgcq4kMky02hg0T6tJRJvXHcEWjwIAlkiN-HjUImYRfJaxRVEx5LfVQYy4ifRpE0UuWTnlTn4VYF94uGqQ31yQFZ4pS-lUmYy72BfJAihkgSoAnhRZ-S3Av3ZDm2Bu9dq2dp0BQUg6N_qYUYSlj12__nH_LeAd9D1tn5m00]--></g></svg>