<?xml version="1.0" encoding="us-ascii" standalone="no"?><svg xmlns="http://www.w3.org/2000/svg" xmlns:xlink="http://www.w3.org/1999/xlink" contentStyleType="text/css" height="649px" preserveAspectRatio="none" style="width:483px;height:649px;background:#FFFFFF;" version="1.1" viewBox="0 0 483 649" width="483px" zoomAndPan="magnify"><defs/><g><!--cluster Sistema Hospitalario--><g id="cluster_Sistema Hospitalario"><path d="M211.5,6.602 L356.5,6.602 A3.75,3.75 0 0 1 359,9.102 L366,31.6699 L473.5,31.6699 A2.5,2.5 0 0 1 476,34.1699 L476,640.102 A2.5,2.5 0 0 1 473.5,642.602 L211.5,642.602 A2.5,2.5 0 0 1 209,640.102 L209,9.102 A2.5,2.5 0 0 1 211.5,6.602 " fill="none" style="stroke:#000000;stroke-width:1.5;"/><line style="stroke:#000000;stroke-width:1.5;" x1="209" x2="366" y1="31.6699" y2="31.6699"/><text fill="#000000" font-family="sans-serif" font-size="14" font-weight="bold" lengthAdjust="spacing" textLength="144" x="213" y="23.5679">Sistema Hospitalario</text></g><g id="elem_UC1"><ellipse cx="342.4133" cy="68.6846" fill="#F1F1F1" rx="105.9133" ry="23.5827" style="stroke:#181818;stroke-width:0.5;"/><text fill="#000000" font-family="sans-serif" font-size="14" lengthAdjust="spacing" textLength="169" x="254.9133" y="73.4176">Registrar nuevo paciente</text></g><g id="elem_UC2"><ellipse cx="342.6378" cy="145.8295" fill="#F1F1F1" rx="81.6378" ry="18.7276" style="stroke:#181818;stroke-width:0.5;"/><text fill="#000000" font-family="sans-serif" font-size="14" lengthAdjust="spacing" textLength="108" x="285.6378" y="150.5625">Buscar paciente</text></g><g id="elem_UC3"><ellipse cx="342.4151" cy="224.585" fill="#F1F1F1" rx="115.4151" ry="25.483" style="stroke:#181818;stroke-width:0.5;"/><text fill="#000000" font-family="sans-serif" font-size="14" lengthAdjust="spacing" textLength="191" x="243.9151" y="229.318">Actualizar datos de paciente</text></g><g id="elem_UC4"><ellipse cx="342.6123" cy="311.5244" fill="#F1F1F1" rx="117.6123" ry="25.9225" style="stroke:#181818;stroke-width:0.5;"/><text fill="#000000" font-family="sans-serif" font-size="14" lengthAdjust="spacing" textLength="196" x="241.7385" y="316.2103">Eliminar registro de paciente</text></g><g id="elem_UC5"><ellipse cx="342.6149" cy="394.525" fill="#F1F1F1" rx="95.1149" ry="21.423" style="stroke:#181818;stroke-width:0.5;"/><text fill="#000000" font-family="sans-serif" font-size="14" lengthAdjust="spacing" textLength="143" x="268.1149" y="399.2579">Registrar cita m&#233;dica</text></g><g id="elem_UC6"><ellipse cx="342.3836" cy="468.7787" fill="#F1F1F1" rx="76.3836" ry="17.6767" style="stroke:#181818;stroke-width:0.5;"/><text fill="#000000" font-family="sans-serif" font-size="14" lengthAdjust="spacing" textLength="93" x="292.8836" y="473.5117">Consultar cita</text></g><g id="elem_UC7"><ellipse cx="342.5473" cy="538.7114" fill="#F1F1F1" rx="76.0473" ry="17.6095" style="stroke:#181818;stroke-width:0.5;"/><text fill="#000000" font-family="sans-serif" font-size="14" lengthAdjust="spacing" textLength="92" x="293.5473" y="543.4444">Modificar cita</text></g><g id="elem_UC8"><ellipse cx="342.3944" cy="608.3809" fill="#F1F1F1" rx="74.3944" ry="17.2789" style="stroke:#181818;stroke-width:0.5;"/><text fill="#000000" font-family="sans-serif" font-size="14" lengthAdjust="spacing" textLength="87" x="295.8944" y="613.1138">Cancelar cita</text></g><!--entity admin--><g id="elem_admin"><ellipse cx="85.5" cy="322.602" fill="#F1F1F1" rx="8" ry="8" style="stroke:#181818;stroke-width:0.5;"/><path d="M85.5,330.602 L85.5,357.602 M72.5,338.602 L98.5,338.602 M85.5,357.602 L72.5,372.602 M85.5,357.602 L98.5,372.602 " fill="none" style="stroke:#181818;stroke-width:0.5;"/><text fill="#000000" font-family="sans-serif" font-size="14" lengthAdjust="spacing" textLength="159" x="6" y="389.0679">Personal administrativo</text></g><!--link admin to UC1--><g id="link_admin_UC1"><path d="M94.4,314.082 C107.26,260.032 137.9,163.612 201,109.602 C216.15,96.632 229.4999,89.5732 248.6699,83.5032 " fill="none" id="admin-to-UC1" style="stroke:#181818;stroke-width:1.0;"/><polygon fill="#181818" points="254.39,81.692,244.6024,80.5954,249.6233,83.2013,247.0173,88.2222,254.39,81.692" style="stroke:#181818;stroke-width:1.0;"/></g><!--link admin to UC2--><g id="link_admin_UC2"><path d="M102.64,313.932 C120.75,274.442 153.9,215.022 201,181.602 C220.82,167.542 239.8062,160.2782 263.0662,155.0482 " fill="none" id="admin-to-UC2" style="stroke:#181818;stroke-width:1.0;"/><polygon fill="#181818" points="268.92,153.732,259.2617,151.8038,264.0418,154.8288,261.0167,159.6089,268.92,153.732" style="stroke:#181818;stroke-width:1.0;"/></g><!--link admin to UC3--><g id="link_admin_UC3"><path d="M131.69,313.912 C151.83,297.782 176.51,280.062 201,267.602 C220.44,257.712 236.8326,251.3876 257.6826,245.0076 " fill="none" id="admin-to-UC3" style="stroke:#181818;stroke-width:1.0;"/><polygon fill="#181818" points="263.42,243.252,253.6435,242.0605,258.6388,244.715,255.9843,249.7103,263.42,243.252" style="stroke:#181818;stroke-width:1.0;"/></g><!--link admin to UC4--><g id="link_admin_UC4"><path d="M165.09,340.662 C191.14,336.372 214.4801,332.5292 241.5601,328.0592 " fill="none" id="admin-to-UC4" style="stroke:#181818;stroke-width:1.0;"/><polygon fill="#181818" points="247.48,327.082,237.9487,324.6012,242.5468,327.8963,239.2516,332.4943,247.48,327.082" style="stroke:#181818;stroke-width:1.0;"/></g><!--link admin to UC5--><g id="link_admin_UC5"><path d="M165.09,366.242 C196.7,371.322 227.1062,376.2089 258.5562,381.2689 " fill="none" id="admin-to-UC5" style="stroke:#181818;stroke-width:1.0;"/><polygon fill="#181818" points="264.48,382.222,256.2297,376.8431,259.5435,381.4277,254.9589,384.7416,264.48,382.222" style="stroke:#181818;stroke-width:1.0;"/></g><!--link admin to UC6--><g id="link_admin_UC6"><path d="M134.82,393.262 C154.4,407.702 177.82,423.062 201,433.602 C225.83,444.902 248.987,451.627 274.187,457.107 " fill="none" id="admin-to-UC6" style="stroke:#181818;stroke-width:1.0;"/><polygon fill="#181818" points="280.05,458.382,272.1055,452.5609,275.1642,457.3195,270.4056,460.3782,280.05,458.382" style="stroke:#181818;stroke-width:1.0;"/></g><!--link admin to UC7--><g id="link_admin_UC7"><path d="M106.66,393.202 C126.18,427.552 158.98,475.982 201,503.602 C222.43,517.682 243.2044,524.8867 267.5244,529.9167 " fill="none" id="admin-to-UC7" style="stroke:#181818;stroke-width:1.0;"/><polygon fill="#181818" points="273.4,531.132,265.3967,525.392,268.5036,530.1193,263.7764,533.2262,273.4,531.132" style="stroke:#181818;stroke-width:1.0;"/></g><!--link admin to UC8--><g id="link_admin_UC8"><path d="M96.35,393.442 C110.78,443.232 142.5,527.492 201,573.602 C221.04,589.392 241.3845,597.0055 265.7545,601.8355 " fill="none" id="admin-to-UC8" style="stroke:#181818;stroke-width:1.0;"/><polygon fill="#181818" points="271.64,603.002,263.5894,597.3286,266.7354,602.0299,262.0341,605.1759,271.64,603.002" style="stroke:#181818;stroke-width:1.0;"/></g><!--SRC=[TT5BJWCn30RWVKvXpRuB-buXGON4fb85uW1MuWvMCqcLUBe0SI3EmSKmqrdW4MJt9vyj9ubq590CXTjNWS25l71Epg6NNA0vKAavOGGC7IUkKb3uaXl0Ujroxep-X2r1ywp7r24yvdfcmOY55RuxqDLNybWLFL4xT2cGUhfaq6gc93HqVDdTM7tVLwzqWkOMtNdfCVARme2IAmIQLYninKDa7LrzkKwJ_oXP_ZUtrxj1z_KPsEDeLzRkSgfzbD6EPctDFWS-ihTcC-c3oLEqPEi-z7D-NXvcizlXnNwdkKaBavOchKnQcxGnQUk-0G00]--></g></svg>