<?xml version="1.0" encoding="us-ascii" standalone="no"?><svg xmlns="http://www.w3.org/2000/svg" xmlns:xlink="http://www.w3.org/1999/xlink" contentStyleType="text/css" height="770px" preserveAspectRatio="none" style="width:378px;height:770px;background:#FFFFFF;" version="1.1" viewBox="0 0 378 770" width="378px" zoomAndPan="magnify"><defs/><g><!--cluster Sistema Hospitalario--><g id="cluster_Sistema Hospitalario"><path d="M101.5,6.602 L246.5,6.602 A3.75,3.75 0 0 1 249,9.102 L256,31.6699 L368.5,31.6699 A2.5,2.5 0 0 1 371,34.1699 L371,761.102 A2.5,2.5 0 0 1 368.5,763.602 L101.5,763.602 A2.5,2.5 0 0 1 99,761.102 L99,9.102 A2.5,2.5 0 0 1 101.5,6.602 " fill="none" style="stroke:#000000;stroke-width:1.5;"/><line style="stroke:#000000;stroke-width:1.5;" x1="99" x2="256" y1="31.6699" y2="31.6699"/><text fill="#000000" font-family="sans-serif" font-size="14" font-weight="bold" lengthAdjust="spacing" textLength="144" x="103" y="23.5679">Sistema Hospitalario</text></g><g id="elem_UC9"><ellipse cx="234.7963" cy="67.7613" fill="#F1F1F1" rx="103.7963" ry="23.1593" style="stroke:#181818;stroke-width:0.5;"/><text fill="#000000" font-family="sans-serif" font-size="14" lengthAdjust="spacing" textLength="164" x="149.7963" y="72.4942">Registrar historia cl&#237;nica</text></g><g id="elem_UC10"><ellipse cx="235.0645" cy="149.5149" fill="#F1F1F1" rx="105.0645" ry="23.4129" style="stroke:#181818;stroke-width:0.5;"/><text fill="#000000" font-family="sans-serif" font-size="14" lengthAdjust="spacing" textLength="167" x="148.5645" y="154.2478">Consultar historia cl&#237;nica</text></g><g id="elem_UC11"><ellipse cx="234.9133" cy="231.6846" fill="#F1F1F1" rx="105.9133" ry="23.5827" style="stroke:#181818;stroke-width:0.5;"/><text fill="#000000" font-family="sans-serif" font-size="14" lengthAdjust="spacing" textLength="169" x="147.4133" y="236.4176">Actualizar historia cl&#237;nica</text></g><g id="elem_UC12"><ellipse cx="234.7656" cy="314.4551" fill="#F1F1F1" rx="109.7656" ry="24.3531" style="stroke:#181818;stroke-width:0.5;"/><text fill="#000000" font-family="sans-serif" font-size="14" lengthAdjust="spacing" textLength="178" x="142.7656" y="319.1881">Crear prescripci&#243;n m&#233;dica</text></g><g id="elem_UC13"><ellipse cx="235.2037" cy="396.8427" fill="#F1F1F1" rx="99.2037" ry="22.2407" style="stroke:#181818;stroke-width:0.5;"/><text fill="#000000" font-family="sans-serif" font-size="14" lengthAdjust="spacing" textLength="153" x="155.7037" y="401.5757">Consultar prescripci&#243;n</text></g><g id="elem_UC14"><ellipse cx="234.7909" cy="475.7602" fill="#F1F1F1" rx="98.7909" ry="22.1582" style="stroke:#181818;stroke-width:0.5;"/><text fill="#000000" font-family="sans-serif" font-size="14" lengthAdjust="spacing" textLength="152" x="155.7909" y="480.4931">Modificar prescripci&#243;n</text></g><g id="elem_UC15"><ellipse cx="235.2398" cy="554.8499" fill="#F1F1F1" rx="96.7398" ry="21.748" style="stroke:#181818;stroke-width:0.5;"/><text fill="#000000" font-family="sans-serif" font-size="14" lengthAdjust="spacing" textLength="147" x="158.7398" y="559.5829">Cancelar prescripci&#243;n</text></g><g id="elem_UC16"><ellipse cx="234.8284" cy="637.4677" fill="#F1F1F1" rx="119.8284" ry="26.3657" style="stroke:#181818;stroke-width:0.5;"/><text fill="#000000" font-family="sans-serif" font-size="14" lengthAdjust="spacing" textLength="201" x="131.9384" y="641.9676">Registrar ingreso hospitalario</text></g><g id="elem_UC19"><ellipse cx="234.9758" cy="723.6972" fill="#F1F1F1" rx="108.4758" ry="24.0952" style="stroke:#181818;stroke-width:0.5;"/><text fill="#000000" font-family="sans-serif" font-size="14" lengthAdjust="spacing" textLength="175" x="144.4758" y="728.4301">Registrar alta hospitalaria</text></g><!--entity medico--><g id="elem_medico"><ellipse cx="30.5" cy="365.602" fill="#F1F1F1" rx="8" ry="8" style="stroke:#181818;stroke-width:0.5;"/><path d="M30.5,373.602 L30.5,400.602 M17.5,381.602 L43.5,381.602 M30.5,400.602 L17.5,415.602 M30.5,400.602 L43.5,415.602 " fill="none" style="stroke:#181818;stroke-width:0.5;"/><text fill="#000000" font-family="sans-serif" font-size="14" lengthAdjust="spacing" textLength="49" x="6" y="432.0679">M&#233;dico</text></g><!--link medico to UC9--><g id="link_medico_UC9"><path d="M34.67,356.972 C41.09,286.702 57.89,144.312 91,108.602 C104.61,93.922 117.3691,86.212 136.5191,80.042 " fill="none" id="medico-to-UC9" style="stroke:#181818;stroke-width:1.0;"/><polygon fill="#181818" points="142.23,78.202,132.437,77.1547,137.4709,79.7353,134.8903,84.7693,142.23,78.202" style="stroke:#181818;stroke-width:1.0;"/></g><!--link medico to UC10--><g id="link_medico_UC10"><path d="M32.02,356.792 C34.8,310.582 46.47,235.042 91,190.602 C105.17,176.462 118.1454,168.9504 137.3354,162.8104 " fill="none" id="medico-to-UC10" style="stroke:#181818;stroke-width:1.0;"/><polygon fill="#181818" points="143.05,160.982,133.2591,159.9149,138.2878,162.5057,135.697,167.5344,143.05,160.982" style="stroke:#181818;stroke-width:1.0;"/></g><!--link medico to UC11--><g id="link_medico_UC11"><path d="M41.25,356.872 C49.95,329.482 65.37,294.252 91,272.602 C106.59,259.442 120.4378,252.2645 140.0678,246.1945 " fill="none" id="medico-to-UC11" style="stroke:#181818;stroke-width:1.0;"/><polygon fill="#181818" points="145.8,244.422,136.02,243.2593,141.0232,245.8991,138.3834,250.9022,145.8,244.422" style="stroke:#181818;stroke-width:1.0;"/></g><!--link medico to UC12--><g id="link_medico_UC12"><path d="M55.1,378.292 C65.65,370.772 78.49,362.472 91,356.602 C112.08,346.712 130.2438,340.2406 152.4238,333.8606 " fill="none" id="medico-to-UC12" style="stroke:#181818;stroke-width:1.0;"/><polygon fill="#181818" points="158.19,332.202,148.435,330.8458,153.3848,333.5842,150.6465,338.534,158.19,332.202" style="stroke:#181818;stroke-width:1.0;"/></g><!--link medico to UC13--><g id="link_medico_UC13"><path d="M55.13,396.602 C75.26,396.602 99.63,396.602 129.66,396.602 " fill="none" id="medico-to-UC13" style="stroke:#181818;stroke-width:1.0;"/><polygon fill="#181818" points="135.66,396.602,126.66,392.602,130.66,396.602,126.66,400.602,135.66,396.602" style="stroke:#181818;stroke-width:1.0;"/></g><!--link medico to UC14--><g id="link_medico_UC14"><path d="M55.13,414.502 C65.67,421.842 78.52,429.932 91,435.602 C113.65,445.892 133.7413,452.5709 157.2213,458.8109 " fill="none" id="medico-to-UC14" style="stroke:#181818;stroke-width:1.0;"/><polygon fill="#181818" points="163.02,460.352,155.3493,454.1746,158.1877,459.0678,153.2946,461.9062,163.02,460.352" style="stroke:#181818;stroke-width:1.0;"/></g><!--link medico to UC15--><g id="link_medico_UC15"><path d="M42.28,436.162 C51.28,462.012 66.63,494.562 91,514.602 C108.12,528.682 124.0983,536.2181 145.4383,542.1381 " fill="none" id="medico-to-UC15" style="stroke:#181818;stroke-width:1.0;"/><polygon fill="#181818" points="151.22,543.742,143.6168,537.4817,146.402,542.4054,141.4783,545.1906,151.22,543.742" style="stroke:#181818;stroke-width:1.0;"/></g><!--link medico to UC16--><g id="link_medico_UC16"><path d="M32.82,436.142 C36.42,480.362 48.92,551.302 91,593.602 C103.82,606.492 114.7127,613.5135 131.9227,619.9735 " fill="none" id="medico-to-UC16" style="stroke:#181818;stroke-width:1.0;"/><polygon fill="#181818" points="137.54,622.082,130.5197,615.1743,132.8589,620.3249,127.7084,622.6641,137.54,622.082" style="stroke:#181818;stroke-width:1.0;"/></g><!--link medico to UC19--><g id="link_medico_UC19"><path d="M34.8,436.352 C41.39,506.052 58.39,646.272 91,681.602 C104.16,695.862 116.2128,703.4304 134.6928,709.7504 " fill="none" id="medico-to-UC19" style="stroke:#181818;stroke-width:1.0;"/><polygon fill="#181818" points="140.37,711.692,133.1486,704.9949,135.639,710.074,130.5599,712.5644,140.37,711.692" style="stroke:#181818;stroke-width:1.0;"/></g><!--SRC=[VP6_QiCm48VtUuh3Uw3EF_1IA5cwP6df0nndnJugIqQIbuOyK8TEVGI_M5M7XagWQ95-y7qdtKchKy1WqKdN1sp5AGvY3G1ni0whu_pP2jiAoUEWVey08_4xTGghL_513OJFreyII9EJI9u1uvgyOl8HUb5Tn1mvxEDkdH2odh-CC2rLtmvDAXoiyPCETuJw8JMUE4oavUEUKcUNE1NfqIdFJaQM-TlWiFHwCzQbPoNM7xr9wQDjvHIB5UXjLfiCArs2TwM1YkaYRx5Fvd-LzYM9OW__ZLk_3Lm0hd-CgzNZyZ59Z6DFSvtbTPOtMTvcUPVbVPOR0FW1]--></g></svg>