<?xml version="1.0" encoding="us-ascii" standalone="no"?><svg xmlns="http://www.w3.org/2000/svg" xmlns:xlink="http://www.w3.org/1999/xlink" contentStyleType="text/css" height="377px" preserveAspectRatio="none" style="width:435px;height:377px;background:#FFFFFF;" version="1.1" viewBox="0 0 435 377" width="435px" zoomAndPan="magnify"><defs/><g><!--cluster Sistema Hospitalario--><g id="cluster_Sistema Hospitalario"><path d="M123.5,6.602 L268.5,6.602 A3.75,3.75 0 0 1 271,9.102 L278,31.6699 L425.5,31.6699 A2.5,2.5 0 0 1 428,34.1699 L428,368.102 A2.5,2.5 0 0 1 425.5,370.602 L123.5,370.602 A2.5,2.5 0 0 1 121,368.102 L121,9.102 A2.5,2.5 0 0 1 123.5,6.602 " fill="none" style="stroke:#000000;stroke-width:1.5;"/><line style="stroke:#000000;stroke-width:1.5;" x1="121" x2="278" y1="31.6699" y2="31.6699"/><text fill="#000000" font-family="sans-serif" font-size="14" font-weight="bold" lengthAdjust="spacing" textLength="144" x="125" y="23.5679">Sistema Hospitalario</text></g><g id="elem_UC2"><ellipse cx="274.6378" cy="63.8295" fill="#F1F1F1" rx="81.6378" ry="18.7276" style="stroke:#181818;stroke-width:0.5;"/><text fill="#000000" font-family="sans-serif" font-size="14" lengthAdjust="spacing" textLength="108" x="217.6378" y="68.5625">Buscar paciente</text></g><g id="elem_UC10"><ellipse cx="274.5645" cy="140.5149" fill="#F1F1F1" rx="105.0645" ry="23.4129" style="stroke:#181818;stroke-width:0.5;"/><text fill="#000000" font-family="sans-serif" font-size="14" lengthAdjust="spacing" textLength="167" x="188.0645" y="145.2478">Consultar historia cl&#237;nica</text></g><g id="elem_UC17"><ellipse cx="274.716" cy="229.5452" fill="#F1F1F1" rx="137.716" ry="29.9432" style="stroke:#181818;stroke-width:0.5;"/><text fill="#000000" font-family="sans-serif" font-size="14" lengthAdjust="spacing" textLength="240" x="154.716" y="232.9772">Consultar estado de hospitalizaci&#243;n</text></g><g id="elem_UC18"><ellipse cx="274.4144" cy="324.4849" fill="#F1F1F1" rx="134.9144" ry="29.3829" style="stroke:#181818;stroke-width:0.5;"/><text fill="#000000" font-family="sans-serif" font-size="14" lengthAdjust="spacing" textLength="234" x="157.4144" y="327.9168">Actualizar datos de hospitalizaci&#243;n</text></g><!--entity enfermera--><g id="elem_enfermera"><ellipse cx="41.5" cy="154.602" fill="#F1F1F1" rx="8" ry="8" style="stroke:#181818;stroke-width:0.5;"/><path d="M41.5,162.602 L41.5,189.602 M28.5,170.602 L54.5,170.602 M41.5,189.602 L28.5,204.602 M41.5,189.602 L54.5,204.602 " fill="none" style="stroke:#181818;stroke-width:0.5;"/><text fill="#000000" font-family="sans-serif" font-size="14" lengthAdjust="spacing" textLength="71" x="6" y="221.0679">Enfermera</text></g><!--link enfermera to UC2--><g id="link_enfermera_UC2"><path d="M66.53,145.792 C78.52,129.142 94.43,111.052 113,99.602 C138.4,83.942 163.9024,76.1207 192.1824,71.1007 " fill="none" id="enfermera-to-UC2" style="stroke:#181818;stroke-width:1.0;"/><polygon fill="#181818" points="198.09,70.052,188.5294,67.6866,193.167,70.9259,189.9276,75.5634,198.09,70.052" style="stroke:#181818;stroke-width:1.0;"/></g><!--link enfermera to UC10--><g id="link_enfermera_UC10"><path d="M77.08,178.862 C108.05,172.832 148.7106,164.9087 188.7206,157.1187 " fill="none" id="enfermera-to-UC10" style="stroke:#181818;stroke-width:1.0;"/><polygon fill="#181818" points="194.61,155.972,185.0114,153.7657,189.7022,156.9275,186.5403,161.6183,194.61,155.972" style="stroke:#181818;stroke-width:1.0;"/></g><!--link enfermera to UC17--><g id="link_enfermera_UC17"><path d="M77.08,192.192 C101.94,196.922 130.9559,202.4495 164.4559,208.8295 " fill="none" id="enfermera-to-UC17" style="stroke:#181818;stroke-width:1.0;"/><polygon fill="#181818" points="170.35,209.952,162.2572,204.3388,165.4383,209.0166,160.7606,212.1976,170.35,209.952" style="stroke:#181818;stroke-width:1.0;"/></g><!--link enfermera to UC18--><g id="link_enfermera_UC18"><path d="M65.23,225.252 C77.33,243.232 93.72,263.382 113,276.602 C130.99,288.942 146.5085,296.2931 167.5285,303.1831 " fill="none" id="enfermera-to-UC18" style="stroke:#181818;stroke-width:1.0;"/><polygon fill="#181818" points="173.23,305.052,165.9236,298.4477,168.4787,303.4946,163.4318,306.0497,173.23,305.052" style="stroke:#181818;stroke-width:1.0;"/></g><!--SRC=[VOz1QiDG34JtEeNmFj1suwm2QIXq7te0yQtOeivNaEHDGuwKLOwGY-LZx40QMkqqp1kDUju5Xg99smKsOfn2D0DG2ZMiFlAERSz65P8Zpnl0WT8tjOpLLZnuJ_YfVf2WdaoqmYDWcS4vaHVJ- -2930iad8F7iA_DswDfezc7FeglAvbgGfZwwpbBeWbuVVcBO0zg51l6RkeXF-NOzP9dj7v4roc6qMJOKAZ_XoxX173_7HUBrLZ-jrBQFKdrixI46m00]--></g></svg>